<?xml version="1.0" standalone="no"?>
<!DOCTYPE svg PUBLIC "-//W3C//DTD SVG 1.1//EN" "http://www.w3.org/Graphics/SVG/1.1/DTD/svg11.dtd" >
<svg xmlns="http://www.w3.org/2000/svg" xmlns:xlink="http://www.w3.org/1999/xlink" version="1.1">
<metadata>
Created by FontForge 20170731 at Tue May  1 18:43:26 2001
 By Aleksey,,,
Copyright (c) The Font Bureau, Inc, 2001. All rights reserved.
</metadata>
<defs>
<font id="Agenda-Regular" horiz-adv-x="500" >
  <font-face 
    font-family="Agenda-Regular"
    font-weight="400"
    font-stretch="normal"
    units-per-em="1000"
    panose-1="2 0 6 3 4 0 0 2 0 4"
    ascent="715"
    descent="-285"
    x-height="453"
    cap-height="638"
    bbox="-80 -235 1010 917"
    underline-thickness="20"
    underline-position="-110"
    unicode-range="U+0020-FB02"
  />
<missing-glyph 
 />
    <glyph glyph-name=".notdef" 
 />
    <glyph glyph-name=".null" horiz-adv-x="0" 
 />
    <glyph glyph-name="nonmarkingreturn" 
 />
    <glyph glyph-name="space" unicode=" " horiz-adv-x="234" 
 />
    <glyph glyph-name="exclam" unicode="!" horiz-adv-x="255" 
d="M175 638h-91l13 -449l64 -16zM187 45q0 6 -6 15.5t-14.5 18t-18 14.5t-16.5 6t-16.5 -6t-18 -14.5t-14.5 -18t-6 -15.5q0 -7 6 -16.5t14.5 -18t18 -14.5t16.5 -6t16.5 6t18 14.5t14.5 18t6 16.5z" />
    <glyph glyph-name="quotedbl" unicode="&#x22;" horiz-adv-x="295" 
d="M257 638h-72l15 -217h42zM109 638h-71l13 -217h42z" />
    <glyph glyph-name="numbersign" unicode="#" horiz-adv-x="386" 
d="M380 382v50h-53l47 206h-56l-47 -206h-102l48 206h-57l-47 -206h-79v-50h67l-29 -126h-66v-50h54l-48 -206h57l47 206h101l-47 -206h56l48 206h78v50h-66l29 126h65zM258 382l-29 -126h-101l29 126h101z" />
    <glyph glyph-name="dollar" unicode="$" horiz-adv-x="458" 
d="M417 173q0 73 -49.5 121.5t-134.5 80.5q-56 21 -84.5 48t-28.5 64q0 18 7 35t21.5 30.5t35.5 22t49 8.5q38 0 70 -10t58 -25l16 66q-29 18 -61.5 26t-68.5 10v87h-50v-89q-67 -10 -110 -54.5t-43 -113.5q0 -64 46.5 -110t127.5 -75q122 -44 122 -128q0 -45 -34 -77.5
t-97 -32.5q-48 0 -86.5 16t-64.5 36l-17 -70q67 -47 156 -50v-86h50v88q36 4 67 18t54 36.5t36 54.5t13 73z" />
    <glyph glyph-name="percent" unicode="%" horiz-adv-x="698" 
d="M659 128q0 30 -10.5 55.5t-29.5 44t-44 29t-55 10.5t-55 -10.5t-43.5 -29t-29 -44t-10.5 -55.5q0 -31 10.5 -56.5t29 -44t43.5 -28.5t55 -10t55 10t44 28.5t29.5 44t10.5 56.5zM595 128q0 -38 -22 -59.5t-53 -21.5t-53 21.5t-22 59.5q0 37 22 58t53 21t53 -21t22 -58z
M628 628l-38 32l-525 -649l39 -32zM313 511q0 30 -10.5 55.5t-29 44t-43.5 29t-55 10.5t-55 -10.5t-44 -29t-29.5 -44t-10.5 -55.5q0 -31 10.5 -57t29.5 -44.5t44 -28.5t55 -10t55 10t43.5 28.5t29 44.5t10.5 57zM249 511q0 -38 -21.5 -59.5t-52.5 -21.5t-53 21.5t-22 59.5
q0 37 22 57.5t53 20.5t52.5 -20.5t21.5 -57.5z" />
    <glyph glyph-name="ampersand" unicode="&#x26;" horiz-adv-x="614" 
d="M608 0l-119 119q45 60 71 140l-52 52q-11 -38 -29 -73.5t-41 -67.5l-153 154q65 37 95.5 78.5t30.5 92.5q0 36 -14 64.5t-37.5 48.5t-53.5 31t-63 11q-32 0 -61 -11t-51 -31t-35.5 -48.5t-13.5 -64.5q0 -40 21.5 -77t62.5 -79q-60 -35 -92.5 -76.5t-32.5 -104.5
q0 -35 14.5 -65.5t40.5 -53.5t62.5 -36.5t80.5 -13.5q60 0 110 19.5t91 55.5l64 -64h104zM337 494q0 -32 -24.5 -61t-78.5 -58q-38 37 -58 64.5t-20 59.5q0 33 24 59t63 26q45 0 69.5 -27t24.5 -63zM388 115q-31 -28 -67 -43.5t-78 -15.5q-26 0 -49 8t-39.5 22.5t-26 33.5
t-9.5 42q0 44 26.5 73t70.5 53z" />
    <glyph glyph-name="quotesingle" unicode="'" horiz-adv-x="147" 
d="M109 638h-71l13 -217h42z" />
    <glyph glyph-name="parenleft" unicode="(" horiz-adv-x="237" 
d="M231 693l-77 17q-53 -99 -83 -212.5t-30 -257.5q0 -74 7.5 -135.5t21.5 -115.5t33.5 -102t42.5 -94l81 -19q-56 113 -83 224.5t-27 242.5q0 127 31.5 243t82.5 209z" />
    <glyph glyph-name="parenright" unicode=")" horiz-adv-x="237" 
d="M196 243q0 73 -7.5 135t-21.5 116t-33.5 102t-42.5 94l-80 20q27 -57 48 -112t34.5 -112t20.5 -117t7 -126q0 -126 -32 -242.5t-83 -209.5l77 -18q53 99 83 213t30 257z" />
    <glyph glyph-name="asterisk" unicode="*" horiz-adv-x="412" 
d="M398 522l-37 62l-128 -50l8 153l-71 -16l7 -138l-142 54l-8 -70l134 -35l-96 -120l66 -30l74 116l85 -128l48 53l-88 109z" />
    <glyph glyph-name="plus" unicode="+" horiz-adv-x="458" 
d="M416 244v66h-150v143h-73v-143h-151v-66h151v-143h73v143h150z" />
    <glyph glyph-name="comma" unicode="," horiz-adv-x="192" 
d="M151 45q0 7 -6.5 16.5t-15 18t-18 14t-15.5 5.5t-15.5 -5.5t-18.5 -14t-15 -18t-6 -16.5q0 -5 4.5 -12.5t11.5 -14.5t15.5 -12.5t15.5 -6.5q0 -26 -12.5 -58.5t-33.5 -58.5l28 -5q14 14 28.5 35t26 44t19 46.5t7.5 42.5z" />
    <glyph glyph-name="hyphen" unicode="-" horiz-adv-x="334" 
d="M292 244v66h-250v-66h250z" />
    <glyph glyph-name="hyphen" unicode="&#xad;" horiz-adv-x="334" 
d="M292 244v66h-250v-66h250z" />
    <glyph glyph-name="period" unicode="." horiz-adv-x="192" 
d="M151 45q0 6 -6 15.5t-14.5 18t-18 14.5t-16.5 6t-16.5 -6t-18 -14.5t-14.5 -18t-6 -15.5q0 -7 6 -16.5t14.5 -18t18 -14.5t16.5 -6t16.5 6t18 14.5t14.5 18t6 16.5z" />
    <glyph glyph-name="slash" unicode="/" horiz-adv-x="468" 
d="M430 640l-57 30l-409 -801l58 -30z" />
    <glyph glyph-name="zero" unicode="0" horiz-adv-x="510" 
d="M469 320q0 82 -17.5 144t-47 103t-68.5 62t-81 21q-43 0 -82 -21t-68 -62t-46.5 -103t-17.5 -144q0 -83 17.5 -145t46.5 -103.5t68 -62t82 -20.5q42 0 81 20.5t68.5 62t47 103.5t17.5 145zM391 320q0 -69 -11.5 -118.5t-30.5 -81.5t-43.5 -47t-50.5 -15q-27 0 -51.5 15
t-43 47t-30 81.5t-11.5 118.5q0 68 11.5 117.5t30 81.5t43 47t51.5 15q26 0 50.5 -15t43.5 -47t30.5 -81.5t11.5 -117.5z" />
    <glyph glyph-name="one" unicode="1" horiz-adv-x="263" 
d="M196 0v646l-175 -17l-15 -65l113 12v-576h77z" />
    <glyph glyph-name="two" unicode="2" horiz-adv-x="454" 
d="M413 0v64h-255q46 51 86.5 102t71 100.5t48 97t17.5 91.5q0 48 -14.5 84t-40 61t-61 37.5t-77.5 12.5t-77 -10t-64 -28l18 -65q25 17 57.5 27.5t66.5 10.5q25 0 46 -8t37 -23.5t25 -39.5t9 -57q0 -38 -18.5 -86t-53.5 -103.5t-85 -119t-113 -132.5v-16h377z" />
    <glyph glyph-name="three" unicode="3" horiz-adv-x="434" 
d="M392 190q0 41 -12.5 73.5t-33.5 56.5t-48 38.5t-55 18.5q39 11 68.5 44t29.5 85q0 31 -12.5 57.5t-34.5 45.5t-53 29.5t-68 10.5q-35 0 -64.5 -8t-56.5 -24l15 -62q26 16 50.5 23t53.5 7q45 0 70.5 -24t25.5 -62q0 -39 -35.5 -69t-92.5 -40l16 -62q7 2 13 2h12
q28 0 53.5 -10.5t44 -28.5t29.5 -42t11 -51q0 -35 -13 -62t-34.5 -45t-50 -27t-58.5 -9t-61.5 9t-56.5 25l9 -74q23 -11 53.5 -18t59.5 -7q54 0 96 15t71 42t44 63.5t15 79.5z" />
    <glyph glyph-name="four" unicode="4" horiz-adv-x="476" 
d="M435 177v63h-73v398h-52l-304 -399l14 -62h265v-177h77v177h73zM286 502q-1 -23 -1 -44v-43v-175h-198l132 174q16 21 32.5 43t32.5 46z" />
    <glyph glyph-name="five" unicode="5" horiz-adv-x="455" 
d="M414 192q0 48 -17 86.5t-46 65.5t-68 41.5t-83 14.5q-13 0 -24.5 -2t-18.5 -4l5 181h187l15 63h-273l-10 -323q23 9 50.5 14.5t62.5 5.5q30 0 56 -10t46 -28.5t31.5 -45t11.5 -58.5t-11.5 -57.5t-32 -43.5t-47.5 -28t-57 -10q-68 0 -129 38l9 -74q20 -12 53 -20.5
t71 -8.5q53 0 94 16.5t68.5 44t42 64.5t14.5 78z" />
    <glyph glyph-name="six" unicode="6" horiz-adv-x="497" 
d="M461 194q0 43 -15 80.5t-41.5 65t-64 43t-82.5 15.5q-38 0 -65 -14t-46 -36q34 88 102.5 156.5t162.5 116.5l-77 36q-63 -33 -117 -82t-93.5 -107.5t-61.5 -123t-22 -128.5q0 -55 17 -97t46.5 -71t68 -44t81.5 -15q45 0 83 15.5t65.5 43t43 65t15.5 81.5zM383 190
q0 -30 -10 -55t-27 -43t-40.5 -28t-50.5 -10t-51.5 11t-43 30t-29.5 45.5t-11 56.5v15q0 8 1 16q14 54 51 76.5t81 22.5q28 0 52 -10.5t41.5 -28.5t27 -43t9.5 -55z" />
    <glyph glyph-name="seven" unicode="7" horiz-adv-x="448" 
d="M425 638h-419v-66h309l-246 -572h83z" />
    <glyph glyph-name="eight" unicode="8" horiz-adv-x="503" 
d="M462 175q0 36 -13 65.5t-33 52t-43.5 37.5t-44.5 21q20 7 39 20t33.5 31t23.5 40.5t9 49.5q0 35 -14 64t-38.5 50t-57.5 32.5t-72 11.5q-38 0 -71.5 -11.5t-58 -32.5t-38.5 -50t-14 -64q0 -27 9 -50t24 -41t34 -31.5t39 -20.5q-21 -7 -45 -21.5t-43.5 -36.5t-32.5 -51
t-13 -65q0 -44 17 -78.5t45.5 -58.5t66.5 -36.5t81 -12.5t81 12.5t67 36.5t46 58.5t17 78.5zM359 490q0 -36 -27.5 -65.5t-76.5 -43.5q-50 14 -80 43.5t-30 65.5q0 42 31.5 68.5t75.5 26.5q22 0 42 -7t34 -20t22.5 -30t8.5 -38zM384 177q0 -27 -11 -49t-29.5 -38
t-43.5 -24.5t-52 -8.5t-51 8.5t-42.5 24.5t-29.5 38t-11 49q0 26 11.5 48t30 39.5t42 29.5t47.5 19q25 -6 50 -18.5t44.5 -30t32 -39.5t12.5 -48z" />
    <glyph glyph-name="nine" unicode="9" horiz-adv-x="497" 
d="M456 424q0 55 -17 97t-46 70.5t-67.5 43.5t-81.5 15q-45 0 -83 -15.5t-66 -42.5t-43.5 -64.5t-15.5 -81.5t15 -81t41.5 -64.5t64 -43t82.5 -15.5q38 0 65.5 14t46.5 36q-33 -88 -102.5 -156.5t-163.5 -117.5l77 -35q63 33 117 82t93.5 107.5t61.5 123t22 128.5zM377 437
v-15q0 -6 -1 -14q-14 -54 -51 -77t-81 -23q-29 0 -52.5 10.5t-41 28.5t-27 43t-9.5 55t10 55t27 43t40.5 28t50.5 10t51.5 -11t43 -30.5t29.5 -46t11 -56.5z" />
    <glyph glyph-name="colon" unicode=":" horiz-adv-x="192" 
d="M151 409q0 7 -6 16.5t-14.5 18t-18 14.5t-16.5 6t-16.5 -6t-18 -14.5t-14.5 -18t-6 -16.5q0 -6 6 -15.5t14.5 -18.5t18 -15t16.5 -6t16.5 6t18 15t14.5 18.5t6 15.5zM151 45q0 6 -6 15.5t-14.5 18t-18 14.5t-16.5 6t-16.5 -6t-18 -14.5t-14.5 -18t-6 -15.5q0 -7 6 -16.5
t14.5 -18t18 -14.5t16.5 -6t16.5 6t18 14.5t14.5 18t6 16.5z" />
    <glyph glyph-name="semicolon" unicode=";" horiz-adv-x="192" 
d="M151 409q0 7 -6 16.5t-14.5 18t-18 14.5t-16.5 6t-16.5 -6t-18 -14.5t-14.5 -18t-6 -16.5q0 -6 6 -15.5t14.5 -18.5t18 -15t16.5 -6t16.5 6t18 15t14.5 18.5t6 15.5zM151 45q0 7 -6.5 16.5t-15 18t-18 14t-15.5 5.5t-15.5 -5.5t-18.5 -14t-15 -18t-6 -16.5
q0 -5 4.5 -12.5t11.5 -14.5t15.5 -12.5t15.5 -6.5q0 -26 -12.5 -58.5t-33.5 -58.5l28 -5q14 14 28.5 35t26 44t19 46.5t7.5 42.5z" />
    <glyph glyph-name="semicolon" unicode="&#x37e;" horiz-adv-x="192" 
d="M151 409q0 7 -6 16.5t-14.5 18t-18 14.5t-16.5 6t-16.5 -6t-18 -14.5t-14.5 -18t-6 -16.5q0 -6 6 -15.5t14.5 -18.5t18 -15t16.5 -6t16.5 6t18 15t14.5 18.5t6 15.5zM151 45q0 7 -6.5 16.5t-15 18t-18 14t-15.5 5.5t-15.5 -5.5t-18.5 -14t-15 -18t-6 -16.5
q0 -5 4.5 -12.5t11.5 -14.5t15.5 -12.5t15.5 -6.5q0 -26 -12.5 -58.5t-33.5 -58.5l28 -5q14 14 28.5 35t26 44t19 46.5t7.5 42.5z" />
    <glyph glyph-name="less" unicode="&#x3c;" horiz-adv-x="458" 
d="M416 109v69l-312 99l312 99v70l-374 -123v-91z" />
    <glyph glyph-name="equal" unicode="=" horiz-adv-x="458" 
d="M416 330v66h-374v-66h374zM416 158v66h-374v-66h374z" />
    <glyph glyph-name="greater" unicode="&#x3e;" horiz-adv-x="458" 
d="M416 232v91l-374 123v-70l312 -99l-312 -99v-69z" />
    <glyph glyph-name="question" unicode="?" horiz-adv-x="374" 
d="M336 493q0 37 -13 66t-36.5 49.5t-55 31t-68.5 10.5q-39 0 -71 -10t-55 -25l16 -69q23 15 50 25t61 10q21 0 37.5 -7t28.5 -18.5t18 -26t6 -29.5q0 -35 -17 -60t-44 -53q-28 -28 -43.5 -65.5t-15.5 -79.5q0 -14 2 -26.5t5 -26.5l70 -16q-3 14 -4 31t-1 31q0 27 10.5 52
t34.5 51q39 42 62 76t23 79zM233 45q0 6 -6 15.5t-14.5 18t-18 14.5t-16.5 6t-16.5 -6t-18 -14.5t-14.5 -18t-6 -15.5q0 -7 6 -16.5t14.5 -18t18 -14.5t16.5 -6t16.5 6t18 14.5t14.5 18t6 16.5z" />
    <glyph glyph-name="at" unicode="@" horiz-adv-x="757" 
d="M716 332q0 72 -27.5 130.5t-74 100t-107.5 64.5t-127 23t-127 -23t-108.5 -66t-75.5 -103.5t-28 -135.5q0 -76 27.5 -136.5t73 -103t105 -65.5t122.5 -23q61 0 89 11l6 53q-19 -7 -42.5 -9.5t-49.5 -2.5q-51 0 -100 19t-87.5 54t-61.5 86t-23 115t23.5 115.5t63 86.5
t90 54t104.5 19q53 0 103 -19t88.5 -53.5t62 -83t23.5 -107.5q0 -70 -30.5 -108t-73.5 -38q-15 0 -26.5 10t-11.5 34v148q0 59 -38 90t-97 31q-32 0 -62 -8.5t-51 -22.5l14 -54q20 12 45 20.5t51 8.5q37 0 55 -17t18 -43v-24l-84 -8q-22 -2 -43 -9.5t-37.5 -21.5
t-26.5 -33.5t-10 -45.5q0 -44 31.5 -75t84.5 -31q33 0 62 14.5t43 47.5q6 -33 31 -47.5t51 -14.5q39 0 69.5 17.5t51.5 45t31.5 63t10.5 71.5zM451 270q0 -37 -25 -58.5t-56 -21.5q-26 0 -41.5 15t-15.5 35q0 29 19.5 42t47.5 16l71 7v-35z" />
    <glyph glyph-name="A" unicode="A" horiz-adv-x="610" 
d="M587 0l-267 647h-30l-267 -647h81l70 172h259l71 -172h83zM405 238h-203l70 176q8 19 16.5 42t14.5 46h2q7 -23 14.5 -46t15.5 -42z" />
    <glyph glyph-name="B" unicode="B" horiz-adv-x="513" 
d="M472 192q0 31 -10.5 59t-28 50t-40.5 37.5t-48 21.5q30 13 47.5 45.5t17.5 69.5q0 39 -15.5 69.5t-40 51.5t-56 31.5t-64.5 10.5h-167v-638h200q38 0 74.5 12.5t65.5 36.5t47 60t18 83zM328 475q0 -47 -31.5 -70t-73.5 -23h-78v188h77q22 0 41 -6t33.5 -18t23 -29.5
t8.5 -41.5zM390 192q0 -31 -11.5 -54t-30.5 -38.5t-44.5 -23.5t-52.5 -8h-106v248h103q28 0 54 -8t45.5 -23.5t31 -39t11.5 -53.5z" />
    <glyph glyph-name="C" unicode="C" horiz-adv-x="604" 
d="M563 602q-31 17 -77.5 29.5t-109.5 12.5q-61 0 -121 -21.5t-107.5 -63t-77 -102t-29.5 -138.5q0 -77 29 -137.5t76.5 -102t108 -63.5t122.5 -22q60 0 99 8.5t68 24.5l8 73q-31 -18 -71.5 -28.5t-95.5 -10.5q-51 0 -99 17t-85 50t-59 80.5t-22 109.5q0 61 22.5 109
t59.5 81t84.5 50t98.5 17q50 0 93.5 -13t69.5 -30z" />
    <glyph glyph-name="D" unicode="D" horiz-adv-x="639" 
d="M598 319q0 76 -28.5 135.5t-76.5 100.5t-111.5 62t-132.5 21h-182v-638h182q69 0 132.5 21t111.5 62t76.5 100t28.5 136zM514 318q0 -62 -21.5 -109t-59.5 -78t-89 -46.5t-109 -15.5h-85v498h85q58 0 109 -15.5t89 -46.5t59.5 -78t21.5 -109z" />
    <glyph glyph-name="E" unicode="E" horiz-adv-x="447" 
d="M441 0v71h-292v214h213v71h-213v211h256v71h-338v-638h374z" />
    <glyph glyph-name="F" unicode="F" horiz-adv-x="419" 
d="M413 567v71h-346v-638h82v285h224v71h-224v211h264z" />
    <glyph glyph-name="G" unicode="G" horiz-adv-x="677" 
d="M620 57v259h-236v-66h158v-154q-25 -17 -63 -27.5t-87 -10.5q-52 0 -100.5 17t-85.5 50t-59.5 81t-22.5 111t22.5 111.5t60 81.5t85.5 50t99 17t97 -14t81 -36l16 73q-36 23 -87.5 36.5t-115.5 13.5q-62 0 -123 -21.5t-109.5 -63.5t-78.5 -104t-30 -142
q0 -79 29.5 -140.5t78 -103.5t110.5 -64t128 -22q72 0 129.5 16.5t103.5 51.5z" />
    <glyph glyph-name="H" unicode="H" horiz-adv-x="646" 
d="M579 0v638h-83v-282h-347v282h-82v-638h82v285h347v-285h83z" />
    <glyph glyph-name="I" unicode="I" horiz-adv-x="236" 
d="M159 0v638h-82v-638h82z" />
    <glyph glyph-name="J" unicode="J" horiz-adv-x="236" 
d="M159 128v510h-82v-502q0 -93 -41 -143.5t-116 -64.5l53 -55q34 7 67 25.5t59.5 50t43 76t16.5 103.5z" />
    <glyph glyph-name="K" unicode="K" horiz-adv-x="531" 
d="M518 0l-284 326l273 312h-93l-264 -304h-1v304h-82v-638h82v303h1l262 -303h106z" />
    <glyph glyph-name="L" unicode="L" horiz-adv-x="444" 
d="M438 0v71h-289v567h-82v-638h371z" />
    <glyph glyph-name="M" unicode="M" horiz-adv-x="813" 
d="M765 0l-54 638h-52l-171 -342q-21 -42 -42 -86.5t-38 -85.5h-2q-17 41 -39.5 86.5t-42.5 84.5l-172 343h-52l-53 -638h73l26 309q3 32 5.5 73.5t4.5 80.5h2q17 -38 37 -80.5t37 -76.5l156 -310h31l154 310q17 35 38.5 78.5t37.5 80.5h2q2 -38 4.5 -79t5.5 -77l26 -309h78
z" />
    <glyph glyph-name="N" unicode="N" horiz-adv-x="697" 
d="M630 -12v650h-82v-321v-79q0 -40 2 -80l-2 -1q-15 19 -33 40.5t-36.5 43t-36.5 41.5t-33 37l-285 319h-57v-638h82v336v82t-2 86l2 1q33 -40 73 -87t78 -89l306 -341h24z" />
    <glyph glyph-name="O" unicode="O" horiz-adv-x="754" 
d="M713 320q0 75 -28 136t-75 104t-107.5 66.5t-125.5 23.5t-125.5 -23.5t-107.5 -66.5t-75 -104t-28 -136q0 -76 28 -137.5t75 -104.5t107.5 -66t125.5 -23t125.5 23t107.5 66t75 104.5t28 137.5zM630 318q0 -60 -21.5 -108.5t-57 -82t-81 -51.5t-93.5 -18t-94 18t-81 51.5
t-56.5 82t-21.5 108.5t21.5 108t56.5 81.5t81 51.5t94 18t93.5 -18t81 -51.5t57 -81.5t21.5 -108z" />
    <glyph glyph-name="P" unicode="P" horiz-adv-x="487" 
d="M451 462q0 43 -16.5 76t-43.5 55t-61 33.5t-69 11.5h-194v-638h81v286h114q35 0 69 11.5t60.5 33.5t43 55t16.5 76zM367 460q0 -26 -9.5 -46t-26 -33.5t-38 -20t-45.5 -6.5h-100v213h99q24 0 45.5 -7t38 -20.5t26.5 -33.5t10 -46z" />
    <glyph glyph-name="Q" unicode="Q" horiz-adv-x="754" 
d="M753 -48q-35 -14 -74 -14q-29 0 -62 8.5t-75 28.5q-52 25 -88 31v2q54 7 101 33t82 67.5t55.5 95t20.5 116.5q0 75 -28 136t-75 104t-107.5 66.5t-125.5 23.5t-125.5 -23.5t-107.5 -66.5t-75 -104t-28 -136q0 -71 24.5 -129.5t66.5 -101.5t97 -68.5t115 -30.5
q25 -11 62 -28t79 -40q24 -13 45.5 -22t42.5 -15t43 -9t47 -3q20 0 37 5zM630 318q0 -60 -21.5 -108.5t-57 -82t-81 -51.5t-93.5 -18t-94 18t-81 51.5t-56.5 82t-21.5 108.5t21.5 108t56.5 81.5t81 51.5t94 18t93.5 -18t81 -51.5t57 -81.5t21.5 -108z" />
    <glyph glyph-name="R" unicode="R" horiz-adv-x="514" 
d="M543 0l-221 299q51 17 85 58.5t34 104.5q0 43 -16.5 76t-43.5 55t-61 33.5t-69 11.5h-184v-638h81v286h87l206 -286h102zM357 460q0 -26 -9.5 -46t-26 -33.5t-38 -20t-45.5 -6.5h-90v213h89q24 0 45.5 -7t38 -20.5t26.5 -33.5t10 -46z" />
    <glyph glyph-name="S" unicode="S" horiz-adv-x="471" 
d="M430 177q0 41 -13 71.5t-36.5 54t-57 41t-75.5 32.5q-56 20 -82.5 45.5t-26.5 64.5q0 36 29.5 64.5t84.5 28.5q37 0 70 -12t51 -25l16 66q-19 13 -54.5 24.5t-80.5 11.5q-48 0 -84 -14t-60 -37t-35.5 -52.5t-11.5 -60.5q0 -67 41.5 -110t126.5 -72q63 -22 91.5 -51
t28.5 -77t-35.5 -77.5t-92.5 -29.5q-53 0 -98 17t-80 44l10 -83q26 -18 68.5 -32t96.5 -14q99 0 154 49.5t55 132.5z" />
    <glyph glyph-name="T" unicode="T" horiz-adv-x="518" 
d="M512 567v71h-506v-71h212v-567h82v567h212z" />
    <glyph glyph-name="U" unicode="U" horiz-adv-x="643" 
d="M576 223v415h-80v-407q0 -78 -44.5 -123.5t-129.5 -45.5t-129 45.5t-44 123.5v407h-82v-415q0 -55 19 -98.5t53 -73.5t80.5 -46t102.5 -16q55 0 102 16t80.5 46t52.5 73.5t19 98.5z" />
    <glyph glyph-name="V" unicode="V" horiz-adv-x="581" 
d="M558 638h-78l-126 -324q-15 -38 -29.5 -80t-28.5 -83h-2q-14 42 -29 84.5t-29 78.5l-127 324h-86l255 -648h26z" />
    <glyph glyph-name="W" unicode="W" horiz-adv-x="916" 
d="M893 638h-75l-110 -316q-12 -35 -26 -76t-25 -81h-2q-11 41 -23.5 81.5t-24.5 75.5l-110 316h-71l-108 -316q-13 -36 -26 -76t-24 -81h-2q-11 42 -25 82t-26 75l-109 316h-83l225 -648h29l123 355q14 40 28 82.5t29 95.5h2q15 -53 29.5 -95.5t28.5 -82.5l122 -355h28z
" />
    <glyph glyph-name="X" unicode="X" horiz-adv-x="590" 
d="M549 0l-204 329l195 309h-88l-105 -167q-12 -19 -24.5 -41t-23.5 -42h-2q-11 20 -24.5 42.5t-24.5 40.5l-104 167h-93l195 -314l-205 -324h87l112 176q12 19 26.5 42.5t26.5 45.5h2q12 -22 25.5 -45t26.5 -43l109 -176h93z" />
    <glyph glyph-name="Y" unicode="Y" horiz-adv-x="615" 
d="M592 638h-85l-133 -187q-14 -20 -31.5 -45.5t-31.5 -48.5h-2q-14 23 -31 47.5t-32 46.5l-133 187h-90l244 -344v-294h80v294z" />
    <glyph glyph-name="Z" unicode="Z" horiz-adv-x="527" 
d="M486 0v71h-332l-1 1q25 40 53.5 87.5t54.5 92.5l213 366v20h-413v-71h299l1 -1q-24 -38 -53.5 -87t-55.5 -94l-211 -365v-20h445z" />
    <glyph glyph-name="bracketleft" unicode="[" horiz-adv-x="277" 
d="M271 -218v65h-128v788h128v65h-204v-918h204z" />
    <glyph glyph-name="backslash" unicode="\" horiz-adv-x="468" 
d="M504 -131l-409 801l-57 -30l408 -801z" />
    <glyph glyph-name="bracketright" unicode="]" horiz-adv-x="277" 
d="M210 -218v918h-204v-65h129v-788h-129v-65h204z" />
    <glyph glyph-name="asciicircum" unicode="^" 
d="M412 537q-17 13 -35 29t-36 34t-34.5 37t-29.5 37q-5 8 -13.5 12.5t-13.5 4.5t-13.5 -4.5t-13.5 -12.5q-13 -18 -29.5 -37.5t-34.5 -37.5t-36.5 -34.5t-34.5 -29.5l48 -21q60 37 110 84q25 -23 54.5 -44.5t58.5 -39.5z" />
    <glyph glyph-name="underscore" unicode="_" 
d="M502 -231v66h-503v-66h503z" />
    <glyph glyph-name="grave" unicode="`" 
d="M296 536q-17 13 -35 29t-36 34t-34.5 37.5t-29.5 37.5q-5 7 -13 11.5t-13 4.5t-12 -4.5t-14 -11t-11.5 -13.5t-4.5 -12t4 -11t9 -11q30 -34 65 -61.5t74 -51.5z" />
    <glyph glyph-name="a" unicode="a" horiz-adv-x="440" 
d="M427 39q-22 4 -37.5 22t-15.5 50v195q0 38 -13 67.5t-35.5 49.5t-54 30.5t-68.5 10.5q-41 0 -77 -9.5t-65 -28.5l16 -64q23 16 55.5 25.5t66.5 9.5q50 0 74 -23t24 -59v-36l-113 -11q-29 -3 -55.5 -13t-47 -27.5t-33 -43t-12.5 -58.5q0 -28 10.5 -53t29 -43.5t45.5 -29.5
t60 -11q42 0 76.5 18t48.5 58q4 -32 26.5 -51.5t45.5 -24.5zM297 164q0 -25 -9 -45t-24.5 -34.5t-35 -22t-40.5 -7.5q-35 0 -56.5 20.5t-21.5 49.5q0 31 22.5 53.5t67.5 27.5l97 9v-51z" />
    <glyph glyph-name="b" unicode="b" horiz-adv-x="532" 
d="M496 229q0 51 -17 94t-48 74.5t-73 49t-91 17.5q-21 0 -41 -4t-37.5 -10t-31.5 -13.5t-21 -15.5v291h-74v-668q27 -20 78 -37.5t110 -17.5q56 0 101.5 18t77.5 50t49.5 76t17.5 96zM421 227q0 -39 -12.5 -71t-35.5 -55t-56 -35.5t-74 -12.5q-31 0 -61.5 9.5t-45.5 18.5
v268q14 14 45 31t79 17q34 0 64 -12.5t51.5 -35t33.5 -54t12 -68.5z" />
    <glyph glyph-name="c" unicode="c" horiz-adv-x="454" 
d="M418 425q-27 15 -62.5 24.5t-79.5 9.5q-48 0 -91.5 -16.5t-76.5 -46.5t-52.5 -73t-19.5 -97t20 -97t53 -73t76.5 -46t90.5 -16q70 0 120 24l8 69q-30 -16 -58.5 -23t-63.5 -7t-66 12t-54.5 34.5t-37.5 53t-14 68.5t13.5 69t37 53t54.5 34t66 12q65 0 122 -36z" />
    <glyph glyph-name="d" unicode="d" horiz-adv-x="534" 
d="M472 0v712h-77v-291q-7 8 -20.5 15.5t-30.5 13.5t-37 10t-40 4q-50 0 -92 -17.5t-73 -49t-48.5 -75.5t-17.5 -96q0 -57 19.5 -101t51 -74.5t71.5 -46t80 -15.5q55 0 89.5 19t50.5 42h1v-50h73zM395 115q-15 -22 -45.5 -40.5t-75.5 -18.5q-33 0 -62.5 12t-51 34.5
t-34 53.5t-12.5 69q0 37 12.5 68.5t34 53.5t51 34.5t62.5 12.5q47 0 77 -17t44 -32v-230z" />
    <glyph glyph-name="e" unicode="e" horiz-adv-x="488" 
d="M452 290q0 32 -13 63.5t-37.5 56t-61 39.5t-83.5 15q-40 0 -79.5 -16t-71 -47t-51 -75t-19.5 -100q0 -53 19.5 -96.5t52.5 -74.5t76.5 -48.5t92.5 -17.5q45 0 76.5 8.5t55.5 22.5l9 73q-25 -17 -57.5 -28t-74.5 -11t-74.5 14.5t-54.5 37.5t-33.5 51.5t-11.5 56.5h295
l42 43q3 13 3 33zM377 288q0 -10 -1 -14h-259q4 26 17.5 49t33 40t43.5 27t50 10q28 0 49.5 -10t36.5 -26t22.5 -36t7.5 -40z" />
    <glyph glyph-name="f" unicode="f" horiz-adv-x="334" 
d="M367 698q-34 14 -87 14q-86 0 -137 -48t-51 -144v-67h-79v-62h79v-391h77v391h135l16 62h-151v63q0 66 30 98.5t86 32.5q16 0 34 -4t32 -10z" />
    <glyph glyph-name="g" unicode="g" horiz-adv-x="461" 
d="M437 -84q0 59 -33 93.5t-91 54.5l-122 43q-11 4 -17 10.5t-6 12.5q0 30 66 30q39 0 70 12.5t52.5 33.5t33 48.5t11.5 57.5q0 26 -8.5 45.5t-19.5 30.5q15 -1 34 3.5t29 10.5l-15 64q-12 -7 -31.5 -12t-36.5 -5t-32.5 1.5t-27.5 5.5q-12 3 -26.5 5.5t-32.5 2.5
q-37 0 -68 -11.5t-53 -31.5t-34.5 -48t-12.5 -61q0 -48 24.5 -80.5t57.5 -47.5q-29 -6 -45.5 -26.5t-16.5 -46.5l48 -48q-18 -4 -36 -14t-32.5 -26.5t-23.5 -40t-9 -53.5q0 -35 14.5 -64t41.5 -50.5t64.5 -33.5t83.5 -12q45 0 81.5 11t63 31t41 46.5t14.5 58.5zM330 313
q0 -18 -7.5 -34t-21 -28t-31 -19t-36.5 -7q-42 0 -69.5 25.5t-27.5 62.5q0 18 7.5 33.5t20 27.5t30.5 19t39 7t38.5 -7t30 -19t20 -27.5t7.5 -33.5zM364 -83q0 -15 -8.5 -30t-24.5 -26.5t-40.5 -19t-55.5 -7.5q-64 0 -97.5 29t-33.5 66q0 41 27 69t69 28l89 -27
q36 -11 55.5 -32t19.5 -50z" />
    <glyph glyph-name="h" unicode="h" horiz-adv-x="507" 
d="M450 0v302q0 37 -13 67t-36 51t-55 32.5t-69 11.5q-57 0 -90 -19t-47 -46h-1v313h-77v-712h77v295q0 21 8 39.5t23 32.5t37 22t51 8t50.5 -8t36 -22t21.5 -32.5t7 -39.5v-295h77z" />
    <glyph glyph-name="i" unicode="i" horiz-adv-x="213" 
d="M156 592q0 6 -5.5 14.5t-13 16t-16.5 13t-15 5.5t-14.5 -5.5t-16 -13t-13 -16t-5.5 -14.5t5.5 -14.5t13 -16.5t16 -13.5t14.5 -5.5t15 5.5t16.5 13.5t13 16.5t5.5 14.5zM145 0v453h-78v-453h78z" />
    <glyph glyph-name="j" unicode="j" horiz-adv-x="213" 
d="M156 592q0 6 -5.5 14.5t-13 16t-16.5 13t-15 5.5t-14.5 -5.5t-16 -13t-13 -16t-5.5 -14.5t5.5 -14.5t13 -16.5t16 -13.5t14.5 -5.5t15 5.5t16.5 13.5t13 16.5t5.5 14.5zM145 -50v503h-78v-497q0 -60 -26 -93.5t-72 -44.5l49 -49q25 6 48 21.5t40.5 39t28 54t10.5 66.5z
" />
    <glyph glyph-name="k" unicode="k" horiz-adv-x="445" 
d="M441 0l-214 230l205 223h-91l-201 -216h-1v475h-77v-712h77v217h1l201 -217h100z" />
    <glyph glyph-name="l" unicode="l" horiz-adv-x="221" 
d="M199 36q-23 5 -41.5 25t-18.5 52v599h-77v-609q0 -30 8.5 -51t21 -35.5t27.5 -22.5t27 -11z" />
    <glyph glyph-name="m" unicode="m" horiz-adv-x="774" 
d="M717 0v306q0 74 -46.5 116t-123.5 42q-53 0 -92 -21t-55 -51q-17 35 -54 53.5t-82 18.5q-59 0 -90.5 -21t-43.5 -50h-1v60h-72v-453h77v299q0 40 25.5 69t84.5 29q30 0 50 -8t32 -21.5t17 -31t5 -37.5v-299h78v299q0 40 25 69t84 29q30 0 50.5 -8t32.5 -21.5t17 -31
t5 -37.5v-299h77z" />
    <glyph glyph-name="n" unicode="n" horiz-adv-x="502" 
d="M445 0v302q0 37 -13 67t-36.5 51t-55 32.5t-68.5 11.5q-62 0 -96 -21.5t-47 -52.5h-1v63h-71v-453h77v295q0 21 8 39.5t23 32.5t37 22t51 8t50.5 -8t36 -22t21.5 -32.5t7 -39.5v-295h77z" />
    <glyph glyph-name="o" unicode="o" horiz-adv-x="551" 
d="M515 226q0 52 -18.5 96t-50.5 75.5t-75.5 49t-94.5 17.5t-94.5 -17.5t-76 -49t-51 -75.5t-18.5 -96t18.5 -95.5t51 -75t76 -49t94.5 -17.5t94.5 17.5t75.5 49t50.5 75t18.5 95.5zM437 224q0 -38 -13 -68.5t-34.5 -53t-51 -34.5t-62.5 -12t-62.5 12t-51.5 34.5t-35 53
t-13 68.5t13 69t35 53.5t51.5 35t62.5 12.5t62.5 -12.5t51 -35t34.5 -53.5t13 -69z" />
    <glyph glyph-name="p" unicode="p" horiz-adv-x="529" 
d="M493 227q0 57 -19.5 101t-51 74.5t-71.5 46t-80 15.5q-55 0 -89.5 -19t-50.5 -42h-1v50h-73v-684h77v263q7 -8 20.5 -15.5t30.5 -13.5t37 -10t40 -4q49 0 91.5 17.5t73.5 49t48.5 75.5t17.5 96zM415 225q0 -38 -12.5 -69t-34 -53t-51 -34.5t-62.5 -12.5q-47 0 -77 17
t-44 32v230q15 22 45.5 40.5t75.5 18.5q33 0 62.5 -12t51 -34.5t34 -53.5t12.5 -69z" />
    <glyph glyph-name="q" unicode="q" horiz-adv-x="527" 
d="M470 -231v691h-21l-34 -34q-19 11 -52.5 24.5t-85.5 13.5q-54 0 -98 -18t-76 -50t-49.5 -76t-17.5 -96q0 -51 18 -94t49.5 -74.5t74 -49t92.5 -17.5q41 0 76 13.5t50 29.5v-263h74zM396 101q-7 -7 -17.5 -15.5t-25 -15.5t-33.5 -12t-43 -5q-35 0 -65 12.5t-52.5 35
t-35.5 54t-13 68.5q0 39 13 71t36 55t55 35.5t70 12.5q15 0 32 -3.5t32 -9t27.5 -12.5t19.5 -13v-258z" />
    <glyph glyph-name="r" unicode="r" horiz-adv-x="322" 
d="M312 453q-8 3 -21 4.5t-23 1.5q-52 0 -88.5 -28.5t-47.5 -76.5h-1v99h-74v-453h74v230q0 42 11 71t29 46.5t41.5 25.5t47.5 8q10 0 19 -1.5t15 -3.5z" />
    <glyph glyph-name="s" unicode="s" horiz-adv-x="368" 
d="M332 123q0 56 -36.5 90t-101.5 57q-35 13 -53.5 27.5t-18.5 41.5q0 26 19 42t51 16q34 0 58.5 -9.5t39.5 -20.5l16 63q-14 8 -45 18.5t-68 10.5q-31 0 -57.5 -9t-45.5 -25t-29.5 -39t-10.5 -50q0 -54 34.5 -85.5t98.5 -54.5q35 -13 55 -30.5t20 -45.5q0 -29 -23.5 -46
t-58.5 -17q-40 0 -75.5 15t-60.5 37l10 -80q23 -16 53.5 -25.5t71.5 -9.5q75 0 116 36.5t41 92.5z" />
    <glyph glyph-name="t" unicode="t" horiz-adv-x="353" 
d="M341 453h-164v134l-73 -38v-96h-90v-60h90v-272q0 -31 10.5 -54.5t28.5 -39.5t42 -24t52 -8q14 0 27.5 2t22.5 7l7 60q-18 -8 -44 -8q-34 0 -53.5 16t-19.5 56v265h150z" />
    <glyph glyph-name="u" unicode="u" horiz-adv-x="502" 
d="M445 0v453h-77v-295q0 -21 -8 -39.5t-23 -32.5t-37.5 -22t-50.5 -8q-59 0 -87 30.5t-28 71.5v295h-77v-302q0 -38 13 -68t36.5 -51t55 -32t68.5 -11q62 0 96 21.5t47 52.5h1v-63h71z" />
    <glyph glyph-name="v" unicode="v" horiz-adv-x="458" 
d="M435 453h-72l-90 -220q-10 -25 -20.5 -53.5t-19.5 -56.5h-2q-9 28 -19 57t-20 53l-91 220h-78l190 -462h31z" />
    <glyph glyph-name="w" unicode="w" horiz-adv-x="697" 
d="M674 453h-70l-78 -212q-9 -24 -17.5 -52t-16.5 -56h-2q-8 28 -16 55t-18 53l-78 212h-57l-77 -212q-9 -25 -18.5 -54.5t-16.5 -53.5h-2q-7 25 -15.5 54t-17.5 54l-78 212h-73l170 -462h28l87 236q10 26 20 57t19 63h2q10 -32 19 -63t20 -59l88 -234h27z" />
    <glyph glyph-name="x" unicode="x" horiz-adv-x="444" 
d="M408 0l-143 233l136 220h-83l-65 -107q-8 -14 -16 -26.5t-15 -25.5h-2q-8 14 -15 26.5t-15 25.5l-64 107h-83l136 -223l-143 -230h83l69 112q8 12 17 27.5t17 29.5h2q8 -14 16 -29t16 -28l69 -112h83z" />
    <glyph glyph-name="y" unicode="y" horiz-adv-x="468" 
d="M445 453h-74l-90 -221q-9 -23 -21.5 -53.5t-23.5 -57.5h-2q-9 29 -20 58.5t-21 53.5l-90 220h-80l173 -420q-20 -47 -41.5 -82t-46 -60.5t-52 -44t-59.5 -31.5l50 -50q34 15 65 37t59 55t54.5 78.5t51.5 106.5z" />
    <glyph glyph-name="z" unicode="z" horiz-adv-x="428" 
d="M392 0v62h-246l-1 2q20 32 39.5 63.5t37.5 61.5l152 248v16h-322v-62h211l1 -2q-18 -27 -38.5 -61.5t-38.5 -63.5l-151 -248v-16h356z" />
    <glyph glyph-name="braceleft" unicode="{" horiz-adv-x="304" 
d="M298 -159q-68 0 -96.5 50t-28.5 139q0 68 -18 120t-60 90q42 39 60 90.5t18 119.5q0 89 28.5 139t96.5 50l-15 60q-51 0 -86 -19t-57.5 -52.5t-32.5 -78.5t-10 -96q0 -71 -20 -126t-71 -87q51 -32 71 -86.5t20 -125.5q0 -52 10 -97t32.5 -78.5t57.5 -52.5t86 -19z" />
    <glyph glyph-name="bar" unicode="|" horiz-adv-x="201" 
d="M134 -231v943h-67v-943h67z" />
    <glyph glyph-name="braceright" unicode="}" horiz-adv-x="304" 
d="M298 240q-51 32 -71 87t-20 126q0 51 -10 96t-32.5 78.5t-57.5 52.5t-86 19l-15 -60q68 0 96.5 -50t28.5 -139q0 -68 18 -119.5t60 -90.5q-42 -38 -60 -90t-18 -120q0 -89 -28.5 -139t-96.5 -50l15 -60q51 0 86 19t57.5 52.5t32.5 78.5t10 97q0 71 20 125.5t71 86.5z" />
    <glyph glyph-name="asciitilde" unicode="~" horiz-adv-x="368" 
d="M326 320l-46 20q-5 -6 -11.5 -14.5t-14.5 -17t-16 -14.5t-14 -6t-16.5 6t-23 13t-25 13t-22.5 6q-9 0 -21.5 -9.5t-26 -24.5t-26 -32.5t-21.5 -32.5l46 -20q4 6 11 14.5t14.5 17t15.5 14.5t14 6t17 -6t23.5 -13t25 -13t22.5 -6q9 0 21.5 9.5t26 24.5t26 32.5t21.5 32.5z
" />
    <glyph glyph-name="nonbreakingspace" unicode="&#xa0;" horiz-adv-x="117" 
 />
    <glyph glyph-name="exclamdown" unicode="&#xa1;" horiz-adv-x="253" 
d="M178 593q0 7 -6 16.5t-14.5 18t-18 14.5t-16.5 6t-16.5 -6t-18 -14.5t-14.5 -18t-6 -16.5q0 -6 6 -15.5t14.5 -18t18 -14.5t16.5 -6t16.5 6t18 14.5t14.5 18t6 15.5zM171 0l-13 449l-64 16l-14 -465h91z" />
    <glyph glyph-name="cent" unicode="&#xa2;" horiz-adv-x="454" 
d="M301 0v85q56 3 95 22l8 70q-30 -17 -58.5 -23.5t-63.5 -6.5t-66 12t-54.5 34t-37.5 53t-14 69q0 37 13.5 68t37 53t54.5 34t66 12q67 0 122 -35l15 68q-23 13 -52.5 21.5t-64.5 11.5v90h-48v-91q-44 -4 -83.5 -21.5t-69 -47.5t-47 -71t-17.5 -91t17.5 -91t47.5 -71
t69 -47.5t83 -21.5v-85h48z" />
    <glyph glyph-name="sterling" unicode="&#xa3;" horiz-adv-x="433" 
d="M392 56q-36 12 -77 17t-76 5q-28 0 -59 -3.5t-49 -10.5q17 23 27.5 69t10.5 109v56h112l11 47h-123v105q0 66 30 98.5t86 32.5q16 0 34 -4t32 -10l16 65q-34 14 -87 14q-86 0 -137 -48t-51 -144v-109h-79v-47h79v-50q0 -72 -13 -124t-36 -91l38 -44q28 11 66.5 18t82.5 7
q43 0 80.5 -7t66.5 -18z" />
    <glyph glyph-name="currency" unicode="&#xa4;" horiz-adv-x="492" 
d="M346 288h-179q-1 8 -1 15v15v19t1 17h180l9 46h-184q16 91 62 136t104 45q30 0 55 -7.5t44 -20.5l14 65q-20 11 -48 19.5t-70 8.5t-80.5 -16t-70 -47t-54 -77t-31.5 -106h-83v-46h78q0 -8 -0.5 -17t-0.5 -18q0 -8 0.5 -15.5t0.5 -15.5h-78v-46h82q9 -62 31 -108.5
t53.5 -78t70.5 -47.5t82 -16q29 0 56 5t43 16l8 69q-40 -25 -101 -25q-28 0 -55 11.5t-49.5 34.5t-39 58t-23.5 82h165z" />
    <glyph glyph-name="yen" unicode="&#xa5;" horiz-adv-x="508" 
d="M485 638h-76l-102 -198q-11 -22 -24 -49.5t-24 -50.5h-2q-11 23 -23.5 50.5t-23.5 49.5l-102 198h-85l174 -338h-124v-47h141v-253h80v253h141v47h-124z" />
    <glyph glyph-name="brokenbar" unicode="&#xa6;" horiz-adv-x="226" 
d="M147 300v412h-67v-412h67zM147 -231v412h-67v-412h67z" />
    <glyph glyph-name="section" unicode="&#xa7;" horiz-adv-x="483" 
d="M416 -60q0 26 -8 52.5t-25 49.5l32 126l-249 257q-11 11 -17 29t-6 32q0 18 7 35t20.5 30t34 21t48.5 8q37 0 68.5 -10t57.5 -27l16 71q-26 15 -60 25t-83 10q-45 0 -79.5 -14t-58 -36.5t-35.5 -52t-12 -59.5q0 -26 8.5 -52.5t25.5 -49.5l-32 -126l248 -257
q11 -11 17 -29t6 -32q0 -36 -27.5 -65t-82.5 -29q-37 0 -68 10t-57 27l-16 -71q26 -15 60 -25t83 -10q45 0 79.5 14t57.5 36.5t35 52t12 59.5zM362 136l-19 -73l-221 228l18 73z" />
    <glyph glyph-name="dieresis" unicode="&#xa8;" 
d="M372 564q0 6 -5 14t-12.5 15.5t-15.5 13t-14 5.5t-14 -5.5t-15.5 -13t-12.5 -15.5t-5 -14q0 -5 5 -13t12.5 -15.5t15.5 -13t14 -5.5t14 5.5t15.5 13t12.5 15.5t5 13zM222 564q0 6 -5 14t-12.5 15.5t-15.5 13t-14 5.5q-5 0 -13 -5.5t-15.5 -13t-13 -15.5t-5.5 -14
q0 -5 5.5 -13t13 -15.5t15.5 -13t13 -5.5q6 0 14 5.5t15.5 13t12.5 15.5t5 13z" />
    <glyph glyph-name="copyright" unicode="&#xa9;" horiz-adv-x="612" 
d="M570 250q0 58 -20.5 106.5t-56 83t-84 54t-103.5 19.5q-56 0 -104 -19.5t-84 -54t-56.5 -83t-20.5 -106.5t20.5 -106t56.5 -83t84 -54.5t104 -19.5q55 0 103.5 19.5t84 54.5t56 83t20.5 106zM523 250q0 -47 -16 -87t-45 -69.5t-69 -46.5t-87 -17q-48 0 -88 17t-69 46.5
t-45 69.5t-16 87t16 87.5t45 70t69 46t88 16.5t87.5 -16.5t68.5 -46t45 -70t16 -87.5zM404 372q-14 11 -37 17t-49 6q-29 0 -55.5 -10t-46.5 -28.5t-32 -44.5t-12 -59t12 -59.5t32.5 -44.5t46.5 -28t55 -10q41 0 70 17l6 54q-18 -11 -36 -15t-37 -4q-38 0 -64.5 24.5
t-26.5 64.5t26.5 64.5t64.5 24.5q18 0 38 -6t34 -16z" />
    <glyph glyph-name="ordfeminine" unicode="&#xaa;" horiz-adv-x="376" 
d="M360 315q-21 4 -34 17t-13 38v154q0 62 -39.5 94t-100.5 32q-33 0 -62.5 -7.5t-54.5 -24.5l14 -56q21 14 47 21.5t53 7.5q38 0 56.5 -17t18.5 -44v-25l-87 -9q-23 -2 -45 -10.5t-39 -22.5t-27.5 -34.5t-10.5 -47.5q0 -23 8.5 -43t24.5 -35t38 -23.5t49 -8.5q31 0 58 12
t41 40q6 -22 23 -35t36 -17zM245 412q0 -21 -8 -37t-21 -27t-28 -16.5t-30 -5.5q-24 0 -40 15t-16 38q0 24 16.5 41.5t44.5 20.5l82 8v-37zM233 153q0 6 -5 14t-12.5 15.5t-15.5 12.5t-14 5q-5 0 -13 -5t-15.5 -12.5t-13 -15.5t-5.5 -14q0 -5 5.5 -13t13 -15.5t15.5 -13
t13 -5.5q6 0 14 5.5t15.5 13t12.5 15.5t5 13z" />
    <glyph glyph-name="guillemotleft" unicode="&#xab;" horiz-adv-x="396" 
d="M354 110q-13 31 -27.5 60t-31.5 56q17 27 31.5 56t27.5 60l-11 27q-22 -29 -54 -62.5t-64 -56.5q-7 -5 -11 -12t-4 -12t4 -12t11 -12q32 -23 64 -56.5t54 -62.5zM167 110q-13 31 -27.5 60t-31.5 56q17 27 31.5 56t27.5 60l-12 27q-22 -29 -53.5 -62.5t-63.5 -56.5
q-7 -5 -11 -12t-4 -12t4 -12t11 -12q32 -23 63.5 -56.5t53.5 -62.5z" />
    <glyph glyph-name="logicalnot" unicode="&#xac;" horiz-adv-x="504" 
d="M442 139v171h-400v-66h332v-105h68z" />
    <glyph glyph-name="registered" unicode="&#xae;" horiz-adv-x="466" 
d="M430 455q0 43 -15.5 78.5t-42 61.5t-62.5 40.5t-77 14.5q-42 0 -78 -14.5t-62.5 -40.5t-41.5 -61.5t-15 -78.5t15 -78.5t41.5 -61.5t62.5 -40.5t78 -14.5q41 0 77 14.5t62.5 40.5t42 61.5t15.5 78.5zM390 455q0 -36 -12 -65t-33 -50t-50 -32.5t-62 -11.5q-34 0 -63 11.5
t-50 32.5t-33 50t-12 65q0 35 12 64.5t33 50.5t50 32.5t63 11.5q33 0 62 -11.5t50 -32.5t33 -50.5t12 -64.5zM334 358l-58 84q16 8 26 24t10 37q0 32 -23.5 51.5t-53.5 19.5h-73v-239h42v96h31l64 -96zM270 503q0 -16 -11 -25.5t-30 -9.5h-25v69h25q19 0 30 -9t11 -25z" />
    <glyph glyph-name="macron" unicode="&#xaf;" 
d="M339 526v66h-178v-66h178z" />
    <glyph glyph-name="macron" unicode="&#x2c9;" 
d="M339 526v66h-178v-66h178z" />
    <glyph glyph-name="degree" unicode="&#xb0;" horiz-adv-x="299" 
d="M258 543q0 22 -8.5 41.5t-23.5 34t-35 23t-42 8.5t-41.5 -8.5t-34.5 -23t-23.5 -34t-8.5 -41.5t8.5 -41.5t23.5 -34t34.5 -23t41.5 -8.5t42 8.5t35 23t23.5 34t8.5 41.5zM201 543q0 -24 -14.5 -39.5t-37.5 -15.5t-37.5 15.5t-14.5 39.5t14.5 39.5t37.5 15.5t37.5 -15.5
t14.5 -39.5z" />
    <glyph glyph-name="plusminus" unicode="&#xb1;" horiz-adv-x="834" 
d="M812 36q-23 5 -41.5 25t-18.5 52v530q-29 26 -74 47.5t-106 21.5q-86 0 -137 -49q-29 20 -67.5 34.5t-87.5 14.5q-86 0 -137 -48t-51 -144v-67h-79v-62h79v-391h77v391h215v-391h77v391h107v62h-107v63q0 66 30 98.5t86 32.5q28 0 54 -9.5t44 -23.5v-511q0 -30 8.5 -51
t21 -35.5t27.5 -22.5t27 -11zM398 605q-14 -37 -14 -85v-67h-215v63q0 66 30 98.5t86 32.5q29 0 59.5 -11t53.5 -31z" />
    <glyph glyph-name="twosuperior" unicode="&#xb2;" horiz-adv-x="364" 
d="M310 248v47h-162q66 59 104 117.5t38 106.5q0 60 -37.5 95.5t-109.5 35.5q-31 0 -58 -7.5t-46 -18.5l12 -46q20 11 42.5 18t49.5 7q43 0 67.5 -21t24.5 -61q0 -43 -48.5 -106.5t-151.5 -151.5v-15h275z" />
    <glyph glyph-name="threesuperior" unicode="&#xb3;" horiz-adv-x="315" 
d="M272 367q0 46 -25.5 75t-61.5 40q24 11 39 30t15 47q0 40 -31.5 65.5t-80.5 25.5q-23 0 -42.5 -5t-39.5 -16l12 -45q20 11 35.5 16t33.5 5q26 0 43 -14.5t17 -35.5q0 -23 -23 -40t-61 -24l11 -43q7 2 11 2h7q18 0 33.5 -6.5t27 -17t18.5 -24.5t7 -30q0 -21 -8 -36.5
t-21.5 -26t-31 -16t-36.5 -5.5q-20 0 -41 6t-38 17l7 -53q15 -7 35 -11.5t39 -4.5q71 0 110.5 35t39.5 90z" />
    <glyph glyph-name="acute" unicode="&#xb4;" 
d="M402 650q0 4 -4.5 11t-11 13.5t-13.5 11t-12 4.5t-12.5 -4t-12.5 -12q-26 -37 -63 -75t-72 -65l47 -20q81 49 141 115q5 6 9 11.5t4 9.5z" />
    <glyph glyph-name="mu" unicode="&#xb5;" horiz-adv-x="611" 
d="M572 152l-55 55v246h-472v-453h472v97q19 0 37 14t18 41zM489 233l-153 153h153v-153zM233 386q0 -33 -24 -56.5t-57 -23.5t-56 23.5t-23 56.5h160zM489 27h-416v288q15 -18 34 -27l382 -180v-81z" />
    <glyph glyph-name="mu" unicode="&#x3bc;" horiz-adv-x="611" 
d="M572 152l-55 55v246h-472v-453h472v97q19 0 37 14t18 41zM489 233l-153 153h153v-153zM233 386q0 -33 -24 -56.5t-57 -23.5t-56 23.5t-23 56.5h160zM489 27h-416v288q15 -18 34 -27l382 -180v-81z" />
    <glyph glyph-name="paragraph" unicode="&#xb6;" horiz-adv-x="391" 
d="M385 580v63h-155q-38 0 -73 -11t-62 -33t-43 -54.5t-16 -75.5t16 -75.5t43 -54t61.5 -32.5t72.5 -11h10v-340q0 -60 -26.5 -93.5t-72.5 -44.5l50 -49q25 6 48 21.5t40.5 39t28 54t10.5 66.5v630h68z" />
    <glyph glyph-name="periodcentered" unicode="&#xb7;" horiz-adv-x="192" 
d="M151 271q0 6 -6 15.5t-14.5 18t-18 14.5t-16.5 6t-16.5 -6t-18 -14.5t-14.5 -18t-6 -15.5q0 -7 6 -16.5t14.5 -18t18 -14.5t16.5 -6t16.5 6t18 14.5t14.5 18t6 16.5z" />
    <glyph glyph-name="periodcentered" unicode="&#x22c5;" horiz-adv-x="192" 
d="M151 271q0 6 -6 15.5t-14.5 18t-18 14.5t-16.5 6t-16.5 -6t-18 -14.5t-14.5 -18t-6 -15.5q0 -7 6 -16.5t14.5 -18t18 -14.5t16.5 -6t16.5 6t18 14.5t14.5 18t6 16.5z" />
    <glyph glyph-name="cedilla" unicode="&#xb8;" 
d="M342 -128q0 22 -8.5 40t-22.5 30.5t-31 20t-33 7.5l9 31h-35l-12 -47q-3 -13 3 -23.5t28 -10.5q6 0 14.5 -3t15.5 -9.5t12 -16t5 -21.5q0 -24 -16 -37.5t-36 -13.5q-18 0 -35.5 5.5t-31.5 16.5l-10 -45q17 -11 35.5 -17.5t41.5 -6.5q19 0 38.5 6t34.5 18.5t24.5 31.5
t9.5 44z" />
    <glyph glyph-name="onesuperior" unicode="&#xb9;" horiz-adv-x="262" 
d="M176 249v401l-125 -11l-12 -52l81 7v-345h56z" />
    <glyph glyph-name="ordmasculine" unicode="&#xba;" horiz-adv-x="459" 
d="M423 460q0 42 -14.5 77t-40.5 60t-61.5 39t-76.5 14t-76.5 -14t-61.5 -39t-41 -60t-15 -77t15 -76.5t41 -59.5t61.5 -39t76.5 -14t76.5 14t61.5 39t40.5 59.5t14.5 76.5zM355 460q0 -29 -10 -53.5t-27 -42t-40 -27t-48 -9.5q-26 0 -49 9.5t-40 27t-27 42t-10 53.5
q0 30 10 54.5t27 42t40 27t49 9.5q25 0 48 -9.5t40 -27t27 -42t10 -54.5zM276 153q0 6 -5 14t-12.5 15.5t-15.5 12.5t-14 5q-5 0 -13 -5t-15.5 -12.5t-13 -15.5t-5.5 -14q0 -5 5.5 -13t13 -15.5t15.5 -13t13 -5.5q6 0 14 5.5t15.5 13t12.5 15.5t5 13z" />
    <glyph glyph-name="guillemotright" unicode="&#xbb;" horiz-adv-x="396" 
d="M373 226q0 5 -4 12t-11 12q-32 23 -64.5 56.5t-53.5 62.5l-11 -27q12 -31 26.5 -60t32.5 -56q-18 -27 -32.5 -56t-26.5 -60l11 -27q21 29 53.5 62.5t64.5 56.5q7 5 11 12t4 12zM185 226q0 5 -4 12t-11 12q-32 23 -64 56.5t-53 62.5l-12 -27q12 -31 26.5 -60t32.5 -56
q-18 -27 -32.5 -56t-26.5 -60l12 -27q21 29 53 62.5t64 56.5q7 5 11 12t4 12z" />
    <glyph glyph-name="onequarter" unicode="&#xbc;" horiz-adv-x="731" 
d="M675 117v47h-53v233h-48l-192 -234l13 -46h172v-117h55v117h53zM569 321q-2 -14 -2 -26v-26v-105h-123l84 104q11 14 21 27t18 27zM617 627l-31 26l-520 -642l31 -26zM176 249v401l-125 -11l-12 -52l81 7v-345h56z" />
    <glyph glyph-name="onehalf" unicode="&#xbd;" horiz-adv-x="791" 
d="M742 0v47h-163q66 59 104.5 117.5t38.5 106.5q0 60 -37.5 95.5t-109.5 35.5q-31 0 -58 -7.5t-46 -18.5l12 -47q20 11 42.5 18.5t49.5 7.5q43 0 67.5 -21t24.5 -61q0 -43 -48.5 -106.5t-151.5 -151.5v-15h275zM617 627l-31 26l-520 -642l31 -26zM176 249v401l-125 -11
l-12 -52l81 7v-345h56z" />
    <glyph glyph-name="threequarters" unicode="&#xbe;" horiz-adv-x="766" 
d="M721 117v45h-54v235h-46l-192 -236l12 -45h173v-116h53v117h54zM616 324q-1 -14 -1.5 -27t-0.5 -27v-108h-125l86 107q11 14 21 27.5t20 27.5zM664 628l-30 25l-521 -643l31 -25zM272 367q0 46 -25.5 75t-61.5 40q24 11 39 30t15 47q0 40 -31.5 65.5t-80.5 25.5
q-23 0 -42.5 -5t-39.5 -16l12 -45q20 11 35.5 16t33.5 5q26 0 43 -14.5t17 -35.5q0 -23 -23 -40t-61 -24l11 -43q7 2 11 2h7q18 0 33.5 -6.5t27 -17t18.5 -24.5t7 -30q0 -21 -8 -36.5t-21.5 -26t-31 -16t-36.5 -5.5q-20 0 -41 6t-38 17l7 -53q15 -7 35 -11.5t39 -4.5
q71 0 110.5 35t39.5 90z" />
    <glyph glyph-name="questiondown" unicode="&#xbf;" horiz-adv-x="366" 
d="M251 595q0 7 -6 16.5t-14.5 18t-18 14.5t-16.5 6t-16.5 -6t-18 -14.5t-14.5 -18t-6 -16.5q0 -6 6 -15.5t14.5 -18t18 -14.5t16.5 -6t16.5 6t18 14.5t14.5 18t6 15.5zM337 25l-16 69q-23 -15 -50 -25t-61 -10q-21 0 -37.5 7t-28.5 18.5t-18 26t-6 29.5q0 35 17 59.5
t44 52.5q28 28 43.5 66t15.5 80q0 14 -2 26.5t-5 26.5l-70 16q3 -14 4.5 -31t1.5 -31q0 -27 -10.5 -52t-35.5 -51q-35 -37 -60 -73t-25 -82q0 -37 13 -66t36.5 -49.5t55 -31t68.5 -10.5q39 0 71 10t55 25z" />
    <glyph glyph-name="Agrave" unicode="&#xc0;" horiz-adv-x="608" 
d="M587 0l-267 647h-30l-267 -647h81l70 172h259l71 -172h83zM405 238h-203l70 176q8 19 16.5 42t14.5 46h2q7 -23 14.5 -46t15.5 -42zM386 736q-17 13 -35 29t-36 34t-34.5 37.5t-29.5 37.5q-5 7 -13 11.5t-13 4.5t-12 -4.5t-14 -11t-11.5 -13.5t-4.5 -12t4 -11t9 -11
q30 -34 65 -61.5t74 -51.5z" />
    <glyph glyph-name="Aacute" unicode="&#xc1;" horiz-adv-x="608" 
d="M587 0l-267 647h-30l-267 -647h81l70 172h259l71 -172h83zM405 238h-203l70 176q8 19 16.5 42t14.5 46h2q7 -23 14.5 -46t15.5 -42zM427 850q0 4 -4.5 11t-11 13.5t-13.5 11t-12 4.5t-12.5 -4t-12.5 -12q-26 -37 -63 -75t-72 -65l47 -20q81 49 141 115q5 6 9 11.5t4 9.5z
" />
    <glyph glyph-name="Acircumflex" unicode="&#xc2;" horiz-adv-x="608" 
d="M587 0l-267 647h-30l-267 -647h81l70 172h259l71 -172h83zM405 238h-203l70 176q8 19 16.5 42t14.5 46h2q7 -23 14.5 -46t15.5 -42zM466 736q-34 26 -71.5 63.5t-63.5 74.5q-5 7 -13 11.5t-13 4.5t-13 -4.5t-13 -12.5q-13 -18 -29 -37t-34 -37.5t-36.5 -35t-35.5 -29.5
l47 -20q29 18 57 39.5t53 45.5q25 -24 55 -45.5t59 -39.5z" />
    <glyph glyph-name="Atilde" unicode="&#xc3;" horiz-adv-x="608" 
d="M587 0l-267 647h-30l-267 -647h81l70 172h259l71 -172h83zM405 238h-203l70 176q8 19 16.5 42t14.5 46h2q7 -23 14.5 -46t15.5 -42zM476 847l-51 23q-5 -7 -13.5 -17.5t-17.5 -20.5t-18.5 -17t-16.5 -7t-19.5 7t-27 16t-29.5 16t-26 7t-25.5 -11t-29.5 -28t-30 -37
t-25 -38l52 -23q5 7 13 17t17 20t18 17t17 7q7 0 19.5 -7t27.5 -16t29.5 -16t26.5 -7q10 0 25 11.5t30 28.5t29.5 37t24.5 38z" />
    <glyph glyph-name="Adieresis" unicode="&#xc4;" horiz-adv-x="608" 
d="M587 0l-267 647h-30l-267 -647h81l70 172h259l71 -172h83zM405 238h-203l70 176q8 19 16.5 42t14.5 46h2q7 -23 14.5 -46t15.5 -42zM425 764q0 6 -5 14t-12.5 15.5t-15.5 13t-14 5.5t-14 -5.5t-15.5 -13t-12.5 -15.5t-5 -14q0 -5 5 -13t12.5 -15.5t15.5 -13t14 -5.5
t14 5.5t15.5 13t12.5 15.5t5 13zM275 764q0 6 -5 14t-12.5 15.5t-15.5 13t-14 5.5q-5 0 -13 -5.5t-15.5 -13t-13 -15.5t-5.5 -14q0 -5 5.5 -13t13 -15.5t15.5 -13t13 -5.5q6 0 14 5.5t15.5 13t12.5 15.5t5 13z" />
    <glyph glyph-name="Aring" unicode="&#xc5;" horiz-adv-x="608" 
d="M587 0l-267 647h-30l-267 -647h81l70 172h259l71 -172h83zM405 238h-203l70 176q8 19 16.5 42t14.5 46h2q7 -23 14.5 -46t15.5 -42zM412 811q0 22 -8.5 41t-23 33.5t-34 23t-41.5 8.5t-41.5 -8.5t-34 -23t-23 -33.5t-8.5 -41t8.5 -41t23 -33.5t34 -23t41.5 -8.5t41.5 8.5
t34 23t23 33.5t8.5 41zM358 811q0 -24 -15 -40t-38 -16t-38.5 16t-15.5 40q0 25 15.5 40.5t38.5 15.5t38 -15.5t15 -40.5z" />
    <glyph glyph-name="AE" unicode="&#xc6;" horiz-adv-x="801" 
d="M795 0v71h-291v214h212v71h-212v211h256v71h-367l-370 -638h83l100 172h216v-172h373zM423 567q0 -31 -0.5 -54t-0.5 -56v-219h-182l125 217q15 26 29.5 55t26.5 58z" />
    <glyph glyph-name="Ccedilla" unicode="&#xc7;" horiz-adv-x="604" 
d="M563 602q-31 17 -77.5 29.5t-109.5 12.5q-61 0 -121 -21.5t-107.5 -63t-77 -102t-29.5 -138.5q0 -73 26 -130.5t69 -99t98 -65t114 -28.5l-11 -42q-3 -13 3 -23.5t28 -10.5q6 0 14.5 -3t15.5 -9.5t12 -16t5 -21.5q0 -24 -16 -37.5t-36 -13.5q-18 0 -35.5 5.5t-31.5 16.5
l-10 -45q17 -11 35.5 -17.5t41.5 -6.5q19 0 38.5 6t34.5 18.5t24.5 31.5t9.5 44q0 22 -8.5 40t-22.5 30.5t-31 20t-33 7.5l7 25q57 0 95.5 8.5t66.5 23.5l8 73q-31 -18 -71.5 -28.5t-95.5 -10.5q-51 0 -99 17t-85 50t-59 80.5t-22 109.5q0 61 22.5 109t59.5 81t84.5 50
t98.5 17q50 0 93.5 -13t69.5 -30z" />
    <glyph glyph-name="Egrave" unicode="&#xc8;" horiz-adv-x="446" 
d="M441 0v71h-292v214h213v71h-213v211h256v71h-338v-638h374zM321 736q-17 13 -35 29t-36 34t-34.5 37.5t-29.5 37.5q-5 7 -13 11.5t-13 4.5t-12 -4.5t-14 -11t-11.5 -13.5t-4.5 -12t4 -11t9 -11q30 -34 65 -61.5t74 -51.5z" />
    <glyph glyph-name="Eacute" unicode="&#xc9;" horiz-adv-x="446" 
d="M441 0v71h-292v214h213v71h-213v211h256v71h-338v-638h374zM376 850q0 4 -4.5 11t-11 13.5t-13.5 11t-12 4.5t-12.5 -4t-12.5 -12q-26 -37 -63 -75t-72 -65l47 -20q81 49 141 115q5 6 9 11.5t4 9.5z" />
    <glyph glyph-name="Ecircumflex" unicode="&#xca;" horiz-adv-x="446" 
d="M441 0v71h-292v214h213v71h-213v211h256v71h-338v-638h374zM408 736q-34 26 -71.5 63.5t-63.5 74.5q-5 7 -13 11.5t-13 4.5t-13 -4.5t-13 -12.5q-13 -18 -29 -37t-34 -37.5t-36.5 -35t-35.5 -29.5l47 -20q29 18 57 39.5t53 45.5q25 -24 55 -45.5t59 -39.5z" />
    <glyph glyph-name="Edieresis" unicode="&#xcb;" horiz-adv-x="446" 
d="M441 0v71h-292v214h213v71h-213v211h256v71h-338v-638h374zM366 764q0 6 -5 14t-12.5 15.5t-15.5 13t-14 5.5t-14 -5.5t-15.5 -13t-12.5 -15.5t-5 -14q0 -5 5 -13t12.5 -15.5t15.5 -13t14 -5.5t14 5.5t15.5 13t12.5 15.5t5 13zM216 764q0 6 -5 14t-12.5 15.5t-15.5 13
t-14 5.5q-5 0 -13 -5.5t-15.5 -13t-13 -15.5t-5.5 -14q0 -5 5.5 -13t13 -15.5t15.5 -13t13 -5.5q6 0 14 5.5t15.5 13t12.5 15.5t5 13z" />
    <glyph glyph-name="Igrave" unicode="&#xcc;" horiz-adv-x="234" 
d="M159 0v638h-82v-638h82zM199 736q-17 13 -35 29t-36 34t-34.5 37.5t-29.5 37.5q-5 7 -13 11.5t-13 4.5t-12 -4.5t-14 -11t-11.5 -13.5t-4.5 -12t4 -11t9 -11q30 -34 65 -61.5t74 -51.5z" />
    <glyph glyph-name="Iacute" unicode="&#xcd;" horiz-adv-x="234" 
d="M159 0v638h-82v-638h82zM238 850q0 4 -4.5 11t-11 13.5t-13.5 11t-12 4.5t-12.5 -4t-12.5 -12q-26 -37 -63 -75t-72 -65l47 -20q81 49 141 115q5 6 9 11.5t4 9.5z" />
    <glyph glyph-name="Icircumflex" unicode="&#xce;" horiz-adv-x="234" 
d="M159 0v638h-82v-638h82zM281 736q-34 26 -71.5 63.5t-63.5 74.5q-5 7 -13 11.5t-13 4.5t-13 -4.5t-13 -12.5q-13 -18 -29 -37t-34 -37.5t-36.5 -35t-35.5 -29.5l47 -20q29 18 57 39.5t53 45.5q25 -24 55 -45.5t59 -39.5z" />
    <glyph glyph-name="Idieresis" unicode="&#xcf;" horiz-adv-x="234" 
d="M159 0v638h-82v-638h82zM239 764q0 6 -5 14t-12.5 15.5t-15.5 13t-14 5.5t-14 -5.5t-15.5 -13t-12.5 -15.5t-5 -14q0 -5 5 -13t12.5 -15.5t15.5 -13t14 -5.5t14 5.5t15.5 13t12.5 15.5t5 13zM89 764q0 6 -5 14t-12.5 15.5t-15.5 13t-14 5.5q-5 0 -13 -5.5t-15.5 -13
t-13 -15.5t-5.5 -14q0 -5 5.5 -13t13 -15.5t15.5 -13t13 -5.5q6 0 14 5.5t15.5 13t12.5 15.5t5 13z" />
    <glyph glyph-name="Eth" unicode="&#xd0;" horiz-adv-x="666" 
d="M625 319q0 76 -28.5 135.5t-76.5 100.5t-111.5 62t-132.5 21h-182v-286h-81v-62h81v-290h182q69 0 132.5 21t111.5 62t76.5 100t28.5 136zM541 318q0 -62 -21.5 -109t-59.5 -78t-89 -46.5t-109 -15.5h-85v221h118l14 62h-132v215h85q58 0 109 -15.5t89 -46.5t59.5 -78
t21.5 -109z" />
    <glyph glyph-name="Ntilde" unicode="&#xd1;" horiz-adv-x="696" 
d="M630 -12v650h-82v-321v-79q0 -40 2 -80l-2 -1q-15 19 -33 40.5t-36.5 43t-36.5 41.5t-33 37l-285 319h-57v-638h82v336v82t-2 86l2 1q33 -40 73 -87t78 -89l306 -341h24zM516 847l-51 23q-5 -7 -13.5 -17.5t-17.5 -20.5t-18.5 -17t-16.5 -7t-19.5 7t-27 16t-29.5 16
t-26 7t-25.5 -11t-29.5 -28t-30 -37t-25 -38l52 -23q5 7 13 17t17 20t18 17t17 7q7 0 19.5 -7t27.5 -16t29.5 -16t26.5 -7q10 0 25 11.5t30 28.5t29.5 37t24.5 38z" />
    <glyph glyph-name="Ograve" unicode="&#xd2;" horiz-adv-x="754" 
d="M713 320q0 75 -28 136t-75 104t-107.5 66.5t-125.5 23.5t-125.5 -23.5t-107.5 -66.5t-75 -104t-28 -136q0 -76 28 -137.5t75 -104.5t107.5 -66t125.5 -23t125.5 23t107.5 66t75 104.5t28 137.5zM630 318q0 -60 -21.5 -108.5t-57 -82t-81 -51.5t-93.5 -18t-94 18t-81 51.5
t-56.5 82t-21.5 108.5t21.5 108t56.5 81.5t81 51.5t94 18t93.5 -18t81 -51.5t57 -81.5t21.5 -108zM453 736q-17 13 -35 29t-36 34t-34.5 37.5t-29.5 37.5q-5 7 -13 11.5t-13 4.5t-12 -4.5t-14 -11t-11.5 -13.5t-4.5 -12t4 -11t9 -11q30 -34 65 -61.5t74 -51.5z" />
    <glyph glyph-name="Oacute" unicode="&#xd3;" horiz-adv-x="754" 
d="M713 320q0 75 -28 136t-75 104t-107.5 66.5t-125.5 23.5t-125.5 -23.5t-107.5 -66.5t-75 -104t-28 -136q0 -76 28 -137.5t75 -104.5t107.5 -66t125.5 -23t125.5 23t107.5 66t75 104.5t28 137.5zM630 318q0 -60 -21.5 -108.5t-57 -82t-81 -51.5t-93.5 -18t-94 18t-81 51.5
t-56.5 82t-21.5 108.5t21.5 108t56.5 81.5t81 51.5t94 18t93.5 -18t81 -51.5t57 -81.5t21.5 -108zM496 850q0 4 -4.5 11t-11 13.5t-13.5 11t-12 4.5t-12.5 -4t-12.5 -12q-26 -37 -63 -75t-72 -65l47 -20q81 49 141 115q5 6 9 11.5t4 9.5z" />
    <glyph glyph-name="Ocircumflex" unicode="&#xd4;" horiz-adv-x="754" 
d="M713 320q0 75 -28 136t-75 104t-107.5 66.5t-125.5 23.5t-125.5 -23.5t-107.5 -66.5t-75 -104t-28 -136q0 -76 28 -137.5t75 -104.5t107.5 -66t125.5 -23t125.5 23t107.5 66t75 104.5t28 137.5zM630 318q0 -60 -21.5 -108.5t-57 -82t-81 -51.5t-93.5 -18t-94 18t-81 51.5
t-56.5 82t-21.5 108.5t21.5 108t56.5 81.5t81 51.5t94 18t93.5 -18t81 -51.5t57 -81.5t21.5 -108zM537 736q-34 26 -71.5 63.5t-63.5 74.5q-5 7 -13 11.5t-13 4.5t-13 -4.5t-13 -12.5q-13 -18 -29 -37t-34 -37.5t-36.5 -35t-35.5 -29.5l47 -20q29 18 57 39.5t53 45.5
q25 -24 55 -45.5t59 -39.5z" />
    <glyph glyph-name="Otilde" unicode="&#xd5;" horiz-adv-x="754" 
d="M713 320q0 75 -28 136t-75 104t-107.5 66.5t-125.5 23.5t-125.5 -23.5t-107.5 -66.5t-75 -104t-28 -136q0 -76 28 -137.5t75 -104.5t107.5 -66t125.5 -23t125.5 23t107.5 66t75 104.5t28 137.5zM630 318q0 -60 -21.5 -108.5t-57 -82t-81 -51.5t-93.5 -18t-94 18t-81 51.5
t-56.5 82t-21.5 108.5t21.5 108t56.5 81.5t81 51.5t94 18t93.5 -18t81 -51.5t57 -81.5t21.5 -108zM549 847l-51 23q-5 -7 -13.5 -17.5t-17.5 -20.5t-18.5 -17t-16.5 -7t-19.5 7t-27 16t-29.5 16t-26 7t-25.5 -11t-29.5 -28t-30 -37t-25 -38l52 -23q5 7 13 17t17 20t18 17
t17 7q7 0 19.5 -7t27.5 -16t29.5 -16t26.5 -7q10 0 25 11.5t30 28.5t29.5 37t24.5 38z" />
    <glyph glyph-name="Odieresis" unicode="&#xd6;" horiz-adv-x="754" 
d="M713 320q0 75 -28 136t-75 104t-107.5 66.5t-125.5 23.5t-125.5 -23.5t-107.5 -66.5t-75 -104t-28 -136q0 -76 28 -137.5t75 -104.5t107.5 -66t125.5 -23t125.5 23t107.5 66t75 104.5t28 137.5zM630 318q0 -60 -21.5 -108.5t-57 -82t-81 -51.5t-93.5 -18t-94 18t-81 51.5
t-56.5 82t-21.5 108.5t21.5 108t56.5 81.5t81 51.5t94 18t93.5 -18t81 -51.5t57 -81.5t21.5 -108zM498 764q0 6 -5 14t-12.5 15.5t-15.5 13t-14 5.5t-14 -5.5t-15.5 -13t-12.5 -15.5t-5 -14q0 -5 5 -13t12.5 -15.5t15.5 -13t14 -5.5t14 5.5t15.5 13t12.5 15.5t5 13zM348 764
q0 6 -5 14t-12.5 15.5t-15.5 13t-14 5.5q-5 0 -13 -5.5t-15.5 -13t-13 -15.5t-5.5 -14q0 -5 5.5 -13t13 -15.5t15.5 -13t13 -5.5q6 0 14 5.5t15.5 13t12.5 15.5t5 13z" />
    <glyph glyph-name="multiply" unicode="&#xd7;" horiz-adv-x="472" 
d="M397 150l-122 122l121 122l-36 36l-122 -121l-122 122l-37 -37l122 -122l-123 -123l37 -37l123 123l122 -122z" />
    <glyph glyph-name="Oslash" unicode="&#xd8;" horiz-adv-x="754" 
d="M713 320q0 77 -29 138t-77 105l58 72l-39 32l-59 -73q-42 27 -90.5 41.5t-99.5 14.5q-65 0 -125.5 -23.5t-107.5 -66.5t-75 -104t-28 -136q0 -78 29 -139.5t78 -105.5l-58 -73l38 -32l60 74q42 -27 90 -41t99 -14q65 0 125.5 23t107.5 66t75 104.5t28 137.5zM630 318
q0 -60 -21.5 -108.5t-57 -82t-81 -51.5t-93.5 -18q-38 0 -74.5 11.5t-68.5 32.5l323 400q33 -33 53 -79.5t20 -104.5zM519 534l-323 -400q-33 34 -52.5 80t-19.5 104q0 60 21.5 108t56.5 81.5t81 51.5t94 18q77 0 142 -43z" />
    <glyph glyph-name="Ugrave" unicode="&#xd9;" horiz-adv-x="642" 
d="M576 223v415h-80v-407q0 -78 -44.5 -123.5t-129.5 -45.5t-129 45.5t-44 123.5v407h-82v-415q0 -55 19 -98.5t53 -73.5t80.5 -46t102.5 -16q55 0 102 16t80.5 46t52.5 73.5t19 98.5zM403 736q-17 13 -35 29t-36 34t-34.5 37.5t-29.5 37.5q-5 7 -13 11.5t-13 4.5t-12 -4.5
t-14 -11t-11.5 -13.5t-4.5 -12t4 -11t9 -11q30 -34 65 -61.5t74 -51.5z" />
    <glyph glyph-name="Uacute" unicode="&#xda;" horiz-adv-x="642" 
d="M576 223v415h-80v-407q0 -78 -44.5 -123.5t-129.5 -45.5t-129 45.5t-44 123.5v407h-82v-415q0 -55 19 -98.5t53 -73.5t80.5 -46t102.5 -16q55 0 102 16t80.5 46t52.5 73.5t19 98.5zM444 850q0 4 -4.5 11t-11 13.5t-13.5 11t-12 4.5t-12.5 -4t-12.5 -12q-26 -37 -63 -75
t-72 -65l47 -20q81 49 141 115q5 6 9 11.5t4 9.5z" />
    <glyph glyph-name="Ucircumflex" unicode="&#xdb;" horiz-adv-x="642" 
d="M576 223v415h-80v-407q0 -78 -44.5 -123.5t-129.5 -45.5t-129 45.5t-44 123.5v407h-82v-415q0 -55 19 -98.5t53 -73.5t80.5 -46t102.5 -16q55 0 102 16t80.5 46t52.5 73.5t19 98.5zM485 736q-34 26 -71.5 63.5t-63.5 74.5q-5 7 -13 11.5t-13 4.5t-13 -4.5t-13 -12.5
q-13 -18 -29 -37t-34 -37.5t-36.5 -35t-35.5 -29.5l47 -20q29 18 57 39.5t53 45.5q25 -24 55 -45.5t59 -39.5z" />
    <glyph glyph-name="Udieresis" unicode="&#xdc;" horiz-adv-x="642" 
d="M576 223v415h-80v-407q0 -78 -44.5 -123.5t-129.5 -45.5t-129 45.5t-44 123.5v407h-82v-415q0 -55 19 -98.5t53 -73.5t80.5 -46t102.5 -16q55 0 102 16t80.5 46t52.5 73.5t19 98.5zM449 764q0 6 -5 14t-12.5 15.5t-15.5 13t-14 5.5t-14 -5.5t-15.5 -13t-12.5 -15.5
t-5 -14q0 -5 5 -13t12.5 -15.5t15.5 -13t14 -5.5t14 5.5t15.5 13t12.5 15.5t5 13zM299 764q0 6 -5 14t-12.5 15.5t-15.5 13t-14 5.5q-5 0 -13 -5.5t-15.5 -13t-13 -15.5t-5.5 -14q0 -5 5.5 -13t13 -15.5t15.5 -13t13 -5.5q6 0 14 5.5t15.5 13t12.5 15.5t5 13z" />
    <glyph glyph-name="Yacute" unicode="&#xdd;" horiz-adv-x="613" 
d="M592 638h-85l-133 -187q-14 -20 -31.5 -45.5t-31.5 -48.5h-2q-14 23 -31 47.5t-32 46.5l-133 187h-90l244 -344v-294h80v294zM441 850q0 4 -4.5 11t-11 13.5t-13.5 11t-12 4.5t-12.5 -4t-12.5 -12q-26 -37 -63 -75t-72 -65l47 -20q81 49 141 115q5 6 9 11.5t4 9.5z" />
    <glyph glyph-name="Thorn" unicode="&#xde;" horiz-adv-x="478" 
d="M442 388q0 43 -16.5 76t-43.5 55t-61 33.5t-69 11.5h-104v75h-81v-639h81v212h106q34 0 68 11.5t60.5 33.5t43 55t16.5 76zM358 388q0 -26 -9.5 -46t-26 -33.5t-38 -20t-44.5 -6.5h-92v212h90q24 0 45.5 -7t38 -20.5t26.5 -33t10 -45.5z" />
    <glyph glyph-name="germandbls" unicode="&#xdf;" horiz-adv-x="584" 
d="M548 121q0 58 -36.5 92t-103.5 58q-36 13 -54.5 28.5t-18.5 41.5q0 34 36.5 50t102.5 16q6 20 9.5 45.5t3.5 47.5q0 49 -15 88.5t-42 67t-65 42t-85 14.5q-85 0 -136.5 -48t-51.5 -144v-67h-79v-62h79v-391h77v516q0 66 30 98.5t81 32.5q31 0 55.5 -11.5t41.5 -31t26 -44
t9 -49.5q0 -12 -1.5 -22t-4.5 -22q-31 -1 -57.5 -10.5t-46 -26t-31 -40t-11.5 -51.5q0 -54 35 -88t101 -57q35 -13 55 -30.5t20 -45.5q0 -29 -23.5 -46t-58.5 -17q-42 0 -74 13t-57 32v-75q20 -14 54.5 -25t75.5 -11q39 0 68.5 10t50 28t31 42t10.5 52z" />
    <glyph glyph-name="agrave" unicode="&#xe0;" horiz-adv-x="439" 
d="M427 39q-22 4 -37.5 22t-15.5 50v195q0 38 -13 67.5t-35.5 49.5t-54 30.5t-68.5 10.5q-41 0 -77 -9.5t-65 -28.5l16 -64q23 16 55.5 25.5t66.5 9.5q50 0 74 -23t24 -59v-36l-113 -11q-29 -3 -55.5 -13t-47 -27.5t-33 -43t-12.5 -58.5q0 -28 10.5 -53t29 -43.5t45.5 -29.5
t60 -11q42 0 76.5 18t48.5 58q4 -32 26.5 -51.5t45.5 -24.5zM297 164q0 -25 -9 -45t-24.5 -34.5t-35 -22t-40.5 -7.5q-35 0 -56.5 20.5t-21.5 49.5q0 31 22.5 53.5t67.5 27.5l97 9v-51zM268 547q-29 23 -60.5 54.5t-54.5 62.5q-4 7 -10.5 10.5t-11.5 3.5q-4 0 -10 -4
t-11.5 -9.5t-9.5 -11.5t-4 -10t3 -8.5t7 -9.5q26 -29 56 -52.5t63 -43.5z" />
    <glyph glyph-name="aacute" unicode="&#xe1;" horiz-adv-x="439" 
d="M427 39q-22 4 -37.5 22t-15.5 50v195q0 38 -13 67.5t-35.5 49.5t-54 30.5t-68.5 10.5q-41 0 -77 -9.5t-65 -28.5l16 -64q23 16 55.5 25.5t66.5 9.5q50 0 74 -23t24 -59v-36l-113 -11q-29 -3 -55.5 -13t-47 -27.5t-33 -43t-12.5 -58.5q0 -28 10.5 -53t29 -43.5t45.5 -29.5
t60 -11q42 0 76.5 18t48.5 58q4 -32 26.5 -51.5t45.5 -24.5zM297 164q0 -25 -9 -45t-24.5 -34.5t-35 -22t-40.5 -7.5q-35 0 -56.5 20.5t-21.5 49.5q0 31 22.5 53.5t67.5 27.5l97 9v-51zM315 644q0 4 -4 10t-9.5 11t-11 9t-9.5 4q-5 0 -11 -3.5t-11 -9.5q-22 -32 -54 -64
t-61 -55l40 -17q34 20 64 44.5t56 53.5q11 11 11 17z" />
    <glyph glyph-name="acircumflex" unicode="&#xe2;" horiz-adv-x="439" 
d="M427 39q-22 4 -37.5 22t-15.5 50v195q0 38 -13 67.5t-35.5 49.5t-54 30.5t-68.5 10.5q-41 0 -77 -9.5t-65 -28.5l16 -64q23 16 55.5 25.5t66.5 9.5q50 0 74 -23t24 -59v-36l-113 -11q-29 -3 -55.5 -13t-47 -27.5t-33 -43t-12.5 -58.5q0 -28 10.5 -53t29 -43.5t45.5 -29.5
t60 -11q42 0 76.5 18t48.5 58q4 -32 26.5 -51.5t45.5 -24.5zM297 164q0 -25 -9 -45t-24.5 -34.5t-35 -22t-40.5 -7.5q-35 0 -56.5 20.5t-21.5 49.5q0 31 22.5 53.5t67.5 27.5l97 9v-51zM346 548q-29 22 -61 53.5t-54 62.5q-4 7 -10.5 10.5t-11.5 3.5t-11 -3.5t-11 -10.5
q-22 -31 -54 -63.5t-61 -54.5l40 -17q26 16 49.5 34t44.5 38q21 -20 46 -38t51 -34z" />
    <glyph glyph-name="atilde" unicode="&#xe3;" horiz-adv-x="439" 
d="M427 39q-22 4 -37.5 22t-15.5 50v195q0 38 -13 67.5t-35.5 49.5t-54 30.5t-68.5 10.5q-41 0 -77 -9.5t-65 -28.5l16 -64q23 16 55.5 25.5t66.5 9.5q50 0 74 -23t24 -59v-36l-113 -11q-29 -3 -55.5 -13t-47 -27.5t-33 -43t-12.5 -58.5q0 -28 10.5 -53t29 -43.5t45.5 -29.5
t60 -11q42 0 76.5 18t48.5 58q4 -32 26.5 -51.5t45.5 -24.5zM297 164q0 -25 -9 -45t-24.5 -34.5t-35 -22t-40.5 -7.5q-35 0 -56.5 20.5t-21.5 49.5q0 31 22.5 53.5t67.5 27.5l97 9v-51zM355 642l-44 19q-5 -6 -11.5 -14.5t-14.5 -17t-16 -14.5t-14 -6t-16.5 6t-23 13.5
t-25 13.5t-22.5 6q-9 0 -21 -9.5t-25 -24t-25 -31.5t-21 -32l43 -20q4 6 11 15t15 17t16 14t14 6t16.5 -6t23 -13t25 -13t22.5 -6q9 0 21.5 9.5t25.5 24t25 31.5t21 32z" />
    <glyph glyph-name="adieresis" unicode="&#xe4;" horiz-adv-x="439" 
d="M427 39q-22 4 -37.5 22t-15.5 50v195q0 38 -13 67.5t-35.5 49.5t-54 30.5t-68.5 10.5q-41 0 -77 -9.5t-65 -28.5l16 -64q23 16 55.5 25.5t66.5 9.5q50 0 74 -23t24 -59v-36l-113 -11q-29 -3 -55.5 -13t-47 -27.5t-33 -43t-12.5 -58.5q0 -28 10.5 -53t29 -43.5t45.5 -29.5
t60 -11q42 0 76.5 18t48.5 58q4 -32 26.5 -51.5t45.5 -24.5zM297 164q0 -25 -9 -45t-24.5 -34.5t-35 -22t-40.5 -7.5q-35 0 -56.5 20.5t-21.5 49.5q0 31 22.5 53.5t67.5 27.5l97 9v-51zM309 571q0 5 -4.5 12t-10.5 13.5t-13 11t-12 4.5t-11.5 -4.5t-12.5 -11t-10.5 -13.5
t-4.5 -12t4.5 -11.5t10.5 -13t12.5 -11t11.5 -4.5t12 4.5t13 11t10.5 13t4.5 11.5zM182 571q0 5 -4.5 12t-10.5 13.5t-13 11t-12 4.5t-11.5 -4.5t-13 -11t-11 -13.5t-4.5 -12t4.5 -11.5t11 -13t13 -11t11.5 -4.5t12 4.5t13 11t10.5 13t4.5 11.5z" />
    <glyph glyph-name="aring" unicode="&#xe5;" horiz-adv-x="439" 
d="M427 39q-22 4 -37.5 22t-15.5 50v195q0 38 -13 67.5t-35.5 49.5t-54 30.5t-68.5 10.5q-41 0 -77 -9.5t-65 -28.5l16 -64q23 16 55.5 25.5t66.5 9.5q50 0 74 -23t24 -59v-36l-113 -11q-29 -3 -55.5 -13t-47 -27.5t-33 -43t-12.5 -58.5q0 -28 10.5 -53t29 -43.5t45.5 -29.5
t60 -11q42 0 76.5 18t48.5 58q4 -32 26.5 -51.5t45.5 -24.5zM297 164q0 -25 -9 -45t-24.5 -34.5t-35 -22t-40.5 -7.5q-35 0 -56.5 20.5t-21.5 49.5q0 31 22.5 53.5t67.5 27.5l97 9v-51zM293 612q0 37 -27 63t-64 26t-64 -26t-27 -63q0 -38 27 -64t64 -26t64 26t27 64z
M247 612q0 -21 -12.5 -34.5t-32.5 -13.5t-32.5 13.5t-12.5 34.5q0 20 12.5 33.5t32.5 13.5t32.5 -13.5t12.5 -33.5z" />
    <glyph glyph-name="ae" unicode="&#xe6;" horiz-adv-x="731" 
d="M695 290q0 32 -13 63.5t-37.5 56t-61 39.5t-83.5 15q-42 0 -83 -18.5t-71 -54.5q-19 37 -57.5 55t-86.5 18q-83 0 -141 -38l16 -61q23 16 55 25.5t66 9.5q47 0 72 -20.5t28 -55.5q-5 -11 -8.5 -22.5t-5.5 -24.5l-100 -10q-29 -3 -55.5 -13t-47 -27.5t-33 -43t-12.5 -58.5
q0 -28 10.5 -52.5t29.5 -43t46 -29.5t60 -11q44 0 87 20.5t66 70.5q27 -42 77 -66.5t107 -24.5q45 0 77 8.5t56 22.5l8 73q-24 -17 -56.5 -28t-75.5 -11q-42 0 -74 14.5t-54.5 37.5t-33.5 51.5t-11 56.5h294l43 43q2 7 2 15t1 18zM620 288q0 -10 -1 -14h-259q4 26 17.5 49
t33 40t43.5 27t50 10q28 0 49.5 -10t36.5 -26t22.5 -36t7.5 -40zM295 137q-8 -40 -39.5 -62.5t-68.5 -22.5q-35 0 -57.5 21t-22.5 51q0 32 23 55.5t69 28.5l81 7q1 -20 4 -39.5t11 -38.5z" />
    <glyph glyph-name="ccedilla" unicode="&#xe7;" horiz-adv-x="454" 
d="M418 425q-27 15 -62.5 24.5t-79.5 9.5q-48 0 -91.5 -16.5t-76.5 -46.5t-52.5 -73t-19.5 -97q0 -51 18 -92t48 -71t70 -47.5t84 -20.5l-9 -34q-2 -11 3.5 -20t23.5 -9q11 0 25.5 -10.5t14.5 -32.5q0 -20 -13.5 -31.5t-30.5 -11.5q-34 0 -57 19l-9 -38q14 -10 30 -15.5
t36 -5.5q16 0 32.5 5.5t29.5 16t21 26.5t8 37q0 19 -7.5 34t-19 26t-26 17t-28.5 6l6 20q65 2 110 24l8 69q-30 -16 -58.5 -23t-63.5 -7t-66 12t-54.5 34.5t-37.5 53t-14 68.5t13.5 69t37 53t54.5 34t66 12q65 0 122 -36z" />
    <glyph glyph-name="egrave" unicode="&#xe8;" horiz-adv-x="488" 
d="M452 290q0 32 -13 63.5t-37.5 56t-61 39.5t-83.5 15q-40 0 -79.5 -16t-71 -47t-51 -75t-19.5 -100q0 -53 19.5 -96.5t52.5 -74.5t76.5 -48.5t92.5 -17.5q45 0 76.5 8.5t55.5 22.5l9 73q-25 -17 -57.5 -28t-74.5 -11t-74.5 14.5t-54.5 37.5t-33.5 51.5t-11.5 56.5h295
l42 43q3 13 3 33zM377 288q0 -10 -1 -14h-259q4 26 17.5 49t33 40t43.5 27t50 10q28 0 49.5 -10t36.5 -26t22.5 -36t7.5 -40zM325 547q-29 22 -61 54t-54 63q-11 14 -22 14q-5 0 -11 -4t-11.5 -9.5t-9.5 -11.5t-4 -10q0 -7 11 -18q26 -29 55.5 -52.5t62.5 -44.5z" />
    <glyph glyph-name="eacute" unicode="&#xe9;" horiz-adv-x="488" 
d="M452 290q0 32 -13 63.5t-37.5 56t-61 39.5t-83.5 15q-40 0 -79.5 -16t-71 -47t-51 -75t-19.5 -100q0 -53 19.5 -96.5t52.5 -74.5t76.5 -48.5t92.5 -17.5q45 0 76.5 8.5t55.5 22.5l9 73q-25 -17 -57.5 -28t-74.5 -11t-74.5 14.5t-54.5 37.5t-33.5 51.5t-11.5 56.5h295
l42 43q3 13 3 33zM377 288q0 -10 -1 -14h-259q4 26 17.5 49t33 40t43.5 27t50 10q28 0 49.5 -10t36.5 -26t22.5 -36t7.5 -40zM368 644q0 4 -4 9.5t-9 11t-11 9.5t-10 4q-5 0 -11 -3.5t-11 -9.5q-22 -32 -53.5 -64t-60.5 -55l40 -18q33 21 63 45.5t56 53.5q11 11 11 17z" />
    <glyph glyph-name="ecircumflex" unicode="&#xea;" horiz-adv-x="488" 
d="M452 290q0 32 -13 63.5t-37.5 56t-61 39.5t-83.5 15q-40 0 -79.5 -16t-71 -47t-51 -75t-19.5 -100q0 -53 19.5 -96.5t52.5 -74.5t76.5 -48.5t92.5 -17.5q45 0 76.5 8.5t55.5 22.5l9 73q-25 -17 -57.5 -28t-74.5 -11t-74.5 14.5t-54.5 37.5t-33.5 51.5t-11.5 56.5h295
l42 43q3 13 3 33zM377 288q0 -10 -1 -14h-259q4 26 17.5 49t33 40t43.5 27t50 10q28 0 49.5 -10t36.5 -26t22.5 -36t7.5 -40zM396 548q-29 22 -60.5 53.5t-53.5 62.5q-5 7 -11.5 10.5t-11.5 3.5q-4 0 -10.5 -3.5t-11.5 -10.5q-22 -31 -53.5 -63.5t-60.5 -54.5l40 -17
q25 16 48.5 34t44.5 38q21 -20 46 -38t51 -34z" />
    <glyph glyph-name="edieresis" unicode="&#xeb;" horiz-adv-x="488" 
d="M452 290q0 32 -13 63.5t-37.5 56t-61 39.5t-83.5 15q-40 0 -79.5 -16t-71 -47t-51 -75t-19.5 -100q0 -53 19.5 -96.5t52.5 -74.5t76.5 -48.5t92.5 -17.5q45 0 76.5 8.5t55.5 22.5l9 73q-25 -17 -57.5 -28t-74.5 -11t-74.5 14.5t-54.5 37.5t-33.5 51.5t-11.5 56.5h295
l42 43q3 13 3 33zM377 288q0 -10 -1 -14h-259q4 26 17.5 49t33 40t43.5 27t50 10q28 0 49.5 -10t36.5 -26t22.5 -36t7.5 -40zM358 571q0 5 -4.5 12t-10.5 13.5t-12.5 11t-11.5 4.5t-12 -4.5t-13 -11t-10.5 -13.5t-4.5 -12t4.5 -11.5t10.5 -13t13 -11t12 -4.5t11.5 4.5
t12.5 11t10.5 13t4.5 11.5zM231 571q0 5 -4.5 12t-10.5 13.5t-13 11t-12 4.5t-11.5 -4.5t-13 -11t-11 -13.5t-4.5 -12t4.5 -11.5t11 -13t13 -11t11.5 -4.5t12 4.5t13 11t10.5 13t4.5 11.5z" />
    <glyph glyph-name="igrave" unicode="&#xec;" horiz-adv-x="211" 
d="M145 0v453h-78v-453h78zM171 547q-29 22 -60.5 54t-53.5 63q-5 6 -11.5 10t-11.5 4q-4 0 -10 -4t-11.5 -9.5t-9.5 -11.5t-4 -10q0 -7 11 -18q26 -29 55.5 -52.5t62.5 -44.5z" />
    <glyph glyph-name="iacute" unicode="&#xed;" horiz-adv-x="211" 
d="M145 0v453h-78v-453h78zM214 644q0 4 -4 9.5t-9 11t-11 9.5t-10 4q-5 0 -11 -3.5t-11 -9.5q-22 -32 -53.5 -64t-60.5 -55l40 -18q33 21 63 45.5t56 53.5q11 11 11 17z" />
    <glyph glyph-name="icircumflex" unicode="&#xee;" horiz-adv-x="211" 
d="M145 0v453h-78v-453h78zM245 548q-29 22 -61 53.5t-54 62.5q-5 7 -11 10.5t-11 3.5t-11 -3.5t-11 -10.5q-22 -31 -54 -63.5t-61 -54.5l40 -17q50 31 94 72q21 -20 46 -38t51 -34z" />
    <glyph glyph-name="idieresis" unicode="&#xef;" horiz-adv-x="211" 
d="M145 0v453h-78v-453h78zM211 571q0 5 -4.5 12t-10.5 13.5t-13 11t-12 4.5t-12 -4.5t-13 -11t-10.5 -13.5t-4.5 -12t4.5 -11.5t10.5 -13t13 -11t12 -4.5t12 4.5t13 11t10.5 13t4.5 11.5zM83 571q0 5 -4.5 12t-10.5 13.5t-13 11t-12 4.5t-11.5 -4.5t-13 -11t-11 -13.5
t-4.5 -12t4.5 -11.5t11 -13t13 -11t11.5 -4.5t12 4.5t13 11t10.5 13t4.5 11.5z" />
    <glyph glyph-name="eth" unicode="&#xf0;" horiz-adv-x="497" 
d="M456 209q0 10 -2 23t-5.5 26t-7.5 25.5t-8 22.5l-116 272l76 31l-23 58l-78 -32l-33 77h-81l45 -104l-85 -35l23 -58l87 35l54 -125q-26 -4 -56.5 -11t-56.5 -15q-33 -11 -61 -30.5t-48.5 -45.5t-32 -58.5t-11.5 -69.5q0 -44 16 -82t43.5 -65.5t66 -43t83.5 -15.5
q43 0 81 14.5t67 42.5t46 69t17 94zM379 208q0 -36 -11 -64t-29.5 -47.5t-43 -29.5t-51.5 -10t-51 10t-42 28.5t-28 44t-10 55.5q0 52 28.5 89t83.5 56q23 8 51.5 13.5t50.5 7.5q7 -16 16.5 -37t17 -42t13 -40.5t5.5 -33.5z" />
    <glyph glyph-name="ntilde" unicode="&#xf1;" horiz-adv-x="501" 
d="M445 0v302q0 37 -13 67t-36.5 51t-55 32.5t-68.5 11.5q-62 0 -96 -21.5t-47 -52.5h-1v63h-71v-453h77v295q0 21 8 39.5t23 32.5t37 22t51 8t50.5 -8t36 -22t21.5 -32.5t7 -39.5v-295h77zM395 642l-43 19q-5 -6 -11.5 -14.5t-14.5 -17t-16 -14.5t-14 -6t-16.5 6t-23 13.5
t-25 13.5t-22.5 6q-9 0 -21.5 -9.5t-25.5 -24t-25 -31.5t-21 -32l43 -20q4 6 11 15t15 17t16 14t14 6t16.5 -6t23 -13t25 -13t22.5 -6q9 0 21.5 9.5t25.5 24t25 31.5t21 32z" />
    <glyph glyph-name="ograve" unicode="&#xf2;" horiz-adv-x="551" 
d="M515 226q0 52 -18.5 96t-50.5 75.5t-75.5 49t-94.5 17.5t-94.5 -17.5t-76 -49t-51 -75.5t-18.5 -96t18.5 -95.5t51 -75t76 -49t94.5 -17.5t94.5 17.5t75.5 49t50.5 75t18.5 95.5zM437 224q0 -38 -13 -68.5t-34.5 -53t-51 -34.5t-62.5 -12t-62.5 12t-51.5 34.5t-35 53
t-13 68.5t13 69t35 53.5t51.5 35t62.5 12.5t62.5 -12.5t51 -35t34.5 -53.5t13 -69zM342 547q-29 22 -60.5 54t-53.5 63q-5 6 -11.5 10t-11.5 4q-4 0 -10 -4t-11.5 -9.5t-9.5 -11.5t-4 -10q0 -7 11 -18q26 -29 55.5 -52.5t62.5 -44.5z" />
    <glyph glyph-name="oacute" unicode="&#xf3;" horiz-adv-x="551" 
d="M515 226q0 52 -18.5 96t-50.5 75.5t-75.5 49t-94.5 17.5t-94.5 -17.5t-76 -49t-51 -75.5t-18.5 -96t18.5 -95.5t51 -75t76 -49t94.5 -17.5t94.5 17.5t75.5 49t50.5 75t18.5 95.5zM437 224q0 -38 -13 -68.5t-34.5 -53t-51 -34.5t-62.5 -12t-62.5 12t-51.5 34.5t-35 53
t-13 68.5t13 69t35 53.5t51.5 35t62.5 12.5t62.5 -12.5t51 -35t34.5 -53.5t13 -69zM380 644q0 4 -4 9.5t-9 11t-11 9.5t-10 4q-5 0 -11 -3.5t-11 -9.5q-22 -32 -54 -64t-61 -55l40 -18q34 21 64 45.5t56 53.5q11 11 11 17z" />
    <glyph glyph-name="ocircumflex" unicode="&#xf4;" horiz-adv-x="551" 
d="M515 226q0 52 -18.5 96t-50.5 75.5t-75.5 49t-94.5 17.5t-94.5 -17.5t-76 -49t-51 -75.5t-18.5 -96t18.5 -95.5t51 -75t76 -49t94.5 -17.5t94.5 17.5t75.5 49t50.5 75t18.5 95.5zM437 224q0 -38 -13 -68.5t-34.5 -53t-51 -34.5t-62.5 -12t-62.5 12t-51.5 34.5t-35 53
t-13 68.5t13 69t35 53.5t51.5 35t62.5 12.5t62.5 -12.5t51 -35t34.5 -53.5t13 -69zM414 548q-29 22 -61 53.5t-54 62.5q-5 7 -11 10.5t-11 3.5t-11 -3.5t-11 -10.5q-22 -31 -54 -63.5t-61 -54.5l40 -17q50 31 94 72q21 -20 46 -38t51 -34z" />
    <glyph glyph-name="otilde" unicode="&#xf5;" horiz-adv-x="551" 
d="M515 226q0 52 -18.5 96t-50.5 75.5t-75.5 49t-94.5 17.5t-94.5 -17.5t-76 -49t-51 -75.5t-18.5 -96t18.5 -95.5t51 -75t76 -49t94.5 -17.5t94.5 17.5t75.5 49t50.5 75t18.5 95.5zM437 224q0 -38 -13 -68.5t-34.5 -53t-51 -34.5t-62.5 -12t-62.5 12t-51.5 34.5t-35 53
t-13 68.5t13 69t35 53.5t51.5 35t62.5 12.5t62.5 -12.5t51 -35t34.5 -53.5t13 -69zM421 642l-43 19q-5 -6 -11.5 -14.5t-14.5 -17t-16 -14.5t-14 -6t-16.5 6t-23 13.5t-25 13.5t-22.5 6q-9 0 -21.5 -9.5t-25.5 -24t-25 -31.5t-21 -32l43 -20q4 6 11 15t15 17t16 14t14 6
t16.5 -6t23 -13t25 -13t22.5 -6q9 0 21.5 9.5t25.5 24t25 31.5t21 32z" />
    <glyph glyph-name="odieresis" unicode="&#xf6;" horiz-adv-x="551" 
d="M515 226q0 52 -18.5 96t-50.5 75.5t-75.5 49t-94.5 17.5t-94.5 -17.5t-76 -49t-51 -75.5t-18.5 -96t18.5 -95.5t51 -75t76 -49t94.5 -17.5t94.5 17.5t75.5 49t50.5 75t18.5 95.5zM437 224q0 -38 -13 -68.5t-34.5 -53t-51 -34.5t-62.5 -12t-62.5 12t-51.5 34.5t-35 53
t-13 68.5t13 69t35 53.5t51.5 35t62.5 12.5t62.5 -12.5t51 -35t34.5 -53.5t13 -69zM381 571q0 5 -4.5 12t-10.5 13.5t-13 11t-12 4.5t-12 -4.5t-13 -11t-10.5 -13.5t-4.5 -12t4.5 -11.5t10.5 -13t13 -11t12 -4.5t12 4.5t13 11t10.5 13t4.5 11.5zM254 571q0 5 -4.5 12
t-10.5 13.5t-13 11t-12 4.5t-12 -4.5t-13 -11t-10.5 -13.5t-4.5 -12t4.5 -11.5t10.5 -13t13 -11t12 -4.5t12 4.5t13 11t10.5 13t4.5 11.5z" />
    <glyph glyph-name="divide" unicode="&#xf7;" horiz-adv-x="458" 
d="M277 401q0 6 -5.5 14t-13 15.5t-15.5 12.5t-14 5t-14.5 -5t-16 -12.5t-12.5 -15.5t-5 -14t5 -14.5t12.5 -16t16 -12.5t14.5 -5t14 5t15.5 12.5t13 16t5.5 14.5zM416 244v66h-374v-66h374zM277 154q0 6 -5.5 14t-13 15.5t-15.5 12.5t-14 5t-14.5 -5t-16 -12.5t-12.5 -15.5
t-5 -14t5 -14.5t12.5 -16t16 -12.5t14.5 -5t14 5t15.5 12.5t13 16t5.5 14.5z" />
    <glyph glyph-name="oslash" unicode="&#xf8;" horiz-adv-x="551" 
d="M515 226q0 54 -19 98t-52 76l41 52l-36 30l-43 -54q-28 17 -61 26.5t-69 9.5q-51 0 -94.5 -17.5t-76 -49t-51 -75.5t-18.5 -96q0 -53 18.5 -96t51.5 -75l-43 -54l36 -31l45 56q29 -17 62 -27t70 -10q51 0 94.5 17.5t75.5 49t50.5 75t18.5 95.5zM437 224q0 -38 -13 -68.5
t-34.5 -53t-51 -34.5t-62.5 -12q-49 0 -88 25l208 259q20 -22 30.5 -51.5t10.5 -64.5zM359 371l-207 -258q-18 22 -28 50t-10 61q0 38 13 69t35 53.5t51.5 35t62.5 12.5q45 0 83 -23z" />
    <glyph glyph-name="ugrave" unicode="&#xf9;" horiz-adv-x="501" 
d="M445 0v453h-77v-295q0 -21 -8 -39.5t-23 -32.5t-37.5 -22t-50.5 -8q-59 0 -87 30.5t-28 71.5v295h-77v-302q0 -38 13 -68t36.5 -51t55 -32t68.5 -11q62 0 96 21.5t47 52.5h1v-63h71zM312 547q-29 22 -60.5 54t-53.5 63q-5 6 -11.5 10t-10.5 4q-5 0 -11 -4t-11.5 -9.5
t-9.5 -11.5t-4 -10q0 -7 11 -18q26 -29 55.5 -52.5t62.5 -44.5z" />
    <glyph glyph-name="uacute" unicode="&#xfa;" horiz-adv-x="501" 
d="M445 0v453h-77v-295q0 -21 -8 -39.5t-23 -32.5t-37.5 -22t-50.5 -8q-59 0 -87 30.5t-28 71.5v295h-77v-302q0 -38 13 -68t36.5 -51t55 -32t68.5 -11q62 0 96 21.5t47 52.5h1v-63h71zM362 644q0 4 -4 9.5t-9 11t-11 9.5t-10 4q-5 0 -11 -3.5t-11 -9.5q-22 -32 -53.5 -64
t-60.5 -55l40 -18q33 21 63 45.5t56 53.5q11 11 11 17z" />
    <glyph glyph-name="ucircumflex" unicode="&#xfb;" horiz-adv-x="501" 
d="M445 0v453h-77v-295q0 -21 -8 -39.5t-23 -32.5t-37.5 -22t-50.5 -8q-59 0 -87 30.5t-28 71.5v295h-77v-302q0 -38 13 -68t36.5 -51t55 -32t68.5 -11q62 0 96 21.5t47 52.5h1v-63h71zM389 548q-29 22 -61 53.5t-54 62.5q-5 7 -11 10.5t-11 3.5t-11 -3.5t-11 -10.5
q-22 -31 -54 -63.5t-61 -54.5l40 -17q25 16 48.5 34t44.5 38q22 -20 47 -38t50 -34z" />
    <glyph glyph-name="udieresis" unicode="&#xfc;" horiz-adv-x="501" 
d="M445 0v453h-77v-295q0 -21 -8 -39.5t-23 -32.5t-37.5 -22t-50.5 -8q-59 0 -87 30.5t-28 71.5v295h-77v-302q0 -38 13 -68t36.5 -51t55 -32t68.5 -11q62 0 96 21.5t47 52.5h1v-63h71zM357 571q0 5 -4.5 12t-10.5 13.5t-13 11t-12 4.5t-12 -4.5t-13 -11t-10.5 -13.5
t-4.5 -12t4.5 -11.5t10.5 -13t13 -11t12 -4.5t12 4.5t13 11t10.5 13t4.5 11.5zM229 571q0 5 -4.5 12t-10.5 13.5t-13 11t-12 4.5t-11.5 -4.5t-13 -11t-11 -13.5t-4.5 -12t4.5 -11.5t11 -13t13 -11t11.5 -4.5t12 4.5t13 11t10.5 13t4.5 11.5z" />
    <glyph glyph-name="yacute" unicode="&#xfd;" horiz-adv-x="468" 
d="M445 453h-74l-90 -221q-9 -23 -21.5 -53.5t-23.5 -57.5h-2q-9 29 -20 58.5t-21 53.5l-90 220h-80l173 -420q-20 -47 -41.5 -82t-46 -60.5t-52 -44t-59.5 -31.5l50 -50q34 15 65 37t59 55t54.5 78.5t51.5 106.5zM353 644q0 4 -4 9.5t-9 11t-11 9.5t-10 4t-10.5 -3.5
t-10.5 -9.5q-23 -32 -54.5 -64t-60.5 -55l40 -18q33 21 63.5 45.5t56.5 53.5q10 10 10 17z" />
    <glyph glyph-name="thorn" unicode="&#xfe;" horiz-adv-x="532" 
d="M496 227q0 57 -19.5 101t-51 74.5t-71.5 46t-80 15.5q-49 0 -82.5 -16t-52.5 -37v301h-77v-943h77v261q7 -8 21 -15t31 -13t36 -9.5t38 -3.5q49 0 91.5 17.5t73.5 49t48.5 75.5t17.5 96zM418 225q0 -38 -12.5 -69t-34 -53t-51 -34.5t-62.5 -12.5q-45 0 -75.5 16t-43.5 31
v234q16 22 45.5 39.5t73.5 17.5q33 0 62.5 -12t51 -34.5t34 -53.5t12.5 -69z" />
    <glyph glyph-name="ydieresis" unicode="&#xff;" horiz-adv-x="468" 
d="M445 453h-74l-90 -221q-9 -23 -21.5 -53.5t-23.5 -57.5h-2q-9 29 -20 58.5t-21 53.5l-90 220h-80l173 -420q-20 -47 -41.5 -82t-46 -60.5t-52 -44t-59.5 -31.5l50 -50q34 15 65 37t59 55t54.5 78.5t51.5 106.5zM347 568q0 5 -4.5 12t-10.5 13.5t-13 11t-12 4.5t-12 -4.5
t-13 -11t-10.5 -13.5t-4.5 -12t4.5 -11.5t10.5 -13t13 -11t12 -4.5t12 4.5t13 11t10.5 13t4.5 11.5zM219 568q0 5 -4.5 12t-10.5 13.5t-13 11t-12 4.5t-11.5 -4.5t-12.5 -11t-10.5 -13.5t-4.5 -12t4.5 -11.5t10.5 -13t12.5 -11t11.5 -4.5t12 4.5t13 11t10.5 13t4.5 11.5z
" />
    <glyph glyph-name="dotlessi" unicode="&#x131;" horiz-adv-x="213" 
d="M145 0v453h-78v-453h78z" />
    <glyph glyph-name="Lslash" unicode="&#x141;" horiz-adv-x="441" 
d="M435 0v71h-289v223l159 92v73l-159 -92v271h-82v-318l-52 -30v-72l52 30v-248h371z" />
    <glyph glyph-name="lslash" unicode="&#x142;" horiz-adv-x="225" 
d="M209 386v73l-69 -40v293h-77v-338l-52 -31v-71l52 29v-198q0 -30 8.5 -51t21 -35.5t27.5 -22.5t27 -11l52 53q-23 5 -41 25t-18 52v233z" />
    <glyph glyph-name="OE" unicode="&#x152;" horiz-adv-x="830" 
d="M824 0v68h-294v219h214v68h-214v216h259v67h-334q-35 6 -79 6q-61 0 -121 -21.5t-107.5 -63t-77 -102t-29.5 -138.5q0 -77 29 -137.5t76.5 -102t108 -63.5t122.5 -22q47 0 83 6h364zM451 66q-15 -2 -32 -3.5t-34 -1.5q-51 0 -99 17t-85 50t-59 80.5t-22 109.5
q0 61 22.5 109t59.5 81t84.5 50t98.5 17q17 0 33.5 -2t33.5 -5z" />
    <glyph glyph-name="oe" unicode="&#x153;" horiz-adv-x="892" 
d="M855 290q0 32 -13 63.5t-37.5 56t-61 39.5t-82.5 15q-27 0 -55.5 -8.5t-54 -24t-45.5 -37.5t-29 -50q-11 28 -31 50.5t-47 38t-58.5 23.5t-64.5 8q-51 0 -94.5 -17.5t-76 -49t-51 -75.5t-18.5 -96t18.5 -95.5t51 -75t76 -49t94.5 -17.5q65 0 120.5 31t81.5 90
q11 -29 32 -51t48 -38t58.5 -24t63.5 -8q45 0 77 8.5t55 22.5l9 73q-25 -17 -57.5 -28t-74.5 -11t-74.5 14.5t-54.5 37.5t-33 51.5t-11 56.5h294l43 43q2 7 2 15v18zM781 288q0 -10 -1 -14h-259q4 26 17.5 49t33 40t43.5 27t50 10q27 0 48.5 -10t36.5 -26t23 -36t8 -40z
M440 224q0 -38 -13 -69.5t-35.5 -54t-52 -35t-63.5 -12.5t-64 12.5t-52.5 35t-35.5 54.5t-13 70t13 70t35.5 54.5t52.5 35t64 12.5t63.5 -12.5t52 -35.5t35.5 -55t13 -70z" />
    <glyph glyph-name="Scaron" unicode="&#x160;" horiz-adv-x="471" 
d="M430 177q0 41 -13 71.5t-36.5 54t-57 41t-75.5 32.5q-56 20 -82.5 45.5t-26.5 64.5q0 36 29.5 64.5t84.5 28.5q37 0 70 -12t51 -25l16 66q-19 13 -54.5 24.5t-80.5 11.5q-48 0 -84 -14t-60 -37t-35.5 -52.5t-11.5 -60.5q0 -67 41.5 -110t126.5 -72q63 -22 91.5 -51
t28.5 -77t-35.5 -77.5t-92.5 -29.5q-53 0 -98 17t-80 44l10 -83q26 -18 68.5 -32t96.5 -14q99 0 154 49.5t55 132.5zM382 860l-54 23q-26 -19 -48.5 -38t-42.5 -42q-19 23 -42 42t-49 38l-53 -23q35 -27 71 -64t61 -78q3 -8 13 -8q8 0 12 8q26 41 61 78t71 64z" />
    <glyph glyph-name="scaron" unicode="&#x161;" horiz-adv-x="368" 
d="M332 123q0 56 -36.5 90t-101.5 57q-35 13 -53.5 27.5t-18.5 41.5q0 26 19 42t51 16q34 0 58.5 -9.5t39.5 -20.5l16 63q-14 8 -45 18.5t-68 10.5q-31 0 -57.5 -9t-45.5 -25t-29.5 -39t-10.5 -50q0 -54 34.5 -85.5t98.5 -54.5q35 -13 55 -30.5t20 -45.5q0 -29 -23.5 -46
t-58.5 -17q-40 0 -75.5 15t-60.5 37l10 -80q23 -16 53.5 -25.5t71.5 -9.5q75 0 116 36.5t41 92.5zM303 654l-45 19q-23 -16 -42 -32t-36 -36q-16 20 -35 36t-42 32l-45 -19q30 -23 60 -54.5t51 -66.5q4 -6 12 -6q6 0 10 6q22 35 52 66.5t60 54.5z" />
    <glyph glyph-name="Ydieresis" unicode="&#x178;" horiz-adv-x="613" 
d="M592 638h-85l-133 -187q-14 -20 -31.5 -45.5t-31.5 -48.5h-2q-14 23 -31 47.5t-32 46.5l-133 187h-90l244 -344v-294h80v294zM422 764q0 6 -5 14t-12.5 15.5t-15.5 13t-14 5.5t-14 -5.5t-15.5 -13t-12.5 -15.5t-5 -14q0 -5 5 -13t12.5 -15.5t15.5 -13t14 -5.5t14 5.5
t15.5 13t12.5 15.5t5 13zM272 764q0 6 -5 14t-12.5 15.5t-15.5 13t-14 5.5q-5 0 -13 -5.5t-15.5 -13t-13 -15.5t-5.5 -14q0 -5 5.5 -13t13 -15.5t15.5 -13t13 -5.5q6 0 14 5.5t15.5 13t12.5 15.5t5 13z" />
    <glyph glyph-name="Zcaron" unicode="&#x17d;" horiz-adv-x="525" 
d="M486 0v71h-332l-1 1q25 40 53.5 87.5t54.5 92.5l213 366v20h-413v-71h299l1 -1q-24 -38 -53.5 -87t-55.5 -94l-211 -365v-20h445zM410 861l-54 23q-26 -19 -48.5 -38t-42.5 -42q-19 23 -42 42t-49 38l-53 -23q35 -27 71 -64t61 -78q3 -8 13 -8q8 0 12 8q26 41 61 78
t71 64z" />
    <glyph glyph-name="zcaron" unicode="&#x17e;" horiz-adv-x="427" 
d="M392 0v62h-246l-1 2q20 32 39 63.5t38 61.5l152 248v16h-322v-62h211l1 -2q-18 -27 -38.5 -61.5t-38.5 -63.5l-151 -248v-16h356zM335 654l-45 19q-22 -16 -41 -32t-36 -36q-16 20 -35.5 36t-42.5 32l-45 -19q30 -23 60.5 -54.5t51.5 -66.5q3 -6 11 -6q7 0 11 6
q21 35 51 66.5t60 54.5z" />
    <glyph glyph-name="florin" unicode="&#x192;" horiz-adv-x="426" 
d="M436 646q-11 2 -21.5 3t-23.5 1q-86 0 -146 -48t-77 -144l-28 -158h-87v-47h80l-53 -297q-11 -59 -48 -93t-84 -45l50 -49q26 6 51.5 21t46.5 38.5t37 54t22 67.5l55 303h112l11 47h-115l27 154q11 66 47 98.5t92 32.5q20 0 38 -3z" />
    <glyph glyph-name="circumflex" unicode="&#x2c6;" 
d="M411 536q-34 26 -71.5 63.5t-63.5 74.5q-5 7 -13 11.5t-13 4.5t-13 -4.5t-13 -12.5q-13 -18 -29 -37t-34 -37.5t-36.5 -35t-35.5 -29.5l47 -20q29 18 57 39.5t53 45.5q25 -24 55 -45.5t59 -39.5z" />
    <glyph glyph-name="caron" unicode="&#x2c7;" 
d="M395 661l-54 23q-26 -19 -48.5 -38t-42.5 -42q-19 23 -42 42t-49 38l-53 -23q35 -27 71 -64t61 -78q3 -8 13 -8q8 0 12 8q26 41 61 78t71 64z" />
    <glyph glyph-name="breve" unicode="&#x2d8;" 
d="M365 558l-44 45q-2 -2 -22.5 -11.5t-47.5 -9.5q-13 0 -25.5 3t-22.5 6.5t-16.5 7t-7.5 4.5l-44 -45q1 -1 10.5 -8t25 -14.5t36 -14t44.5 -6.5q23 0 43.5 6.5t35.5 14t24 14.5t11 8z" />
    <glyph glyph-name="dotaccent" unicode="&#x2d9;" 
d="M296 564q0 6 -5 14t-12.5 15.5t-15 12.5t-13.5 5q-5 0 -13 -5t-15.5 -12.5t-12.5 -15.5t-5 -14q0 -5 5 -13t12.5 -15.5t15.5 -12.5t13 -5q6 0 14 5t15 12.5t12 15.5t5 13z" />
    <glyph glyph-name="ring" unicode="&#x2da;" 
d="M357 611q0 22 -8.5 41t-23 33.5t-34 23t-41.5 8.5t-41.5 -8.5t-34 -23t-23 -33.5t-8.5 -41t8.5 -41t23 -33.5t34 -23t41.5 -8.5t41.5 8.5t34 23t23 33.5t8.5 41zM303 611q0 -24 -15 -40t-38 -16t-38.5 16t-15.5 40q0 25 15.5 40.5t38.5 15.5t38 -15.5t15 -40.5z" />
    <glyph glyph-name="ogonek" unicode="&#x2db;" 
d="M338 -164q-14 -9 -28.5 -13t-34.5 -4q-26 0 -42 12.5t-16 35.5q0 21 10 40.5t26.5 36t38.5 31t45 25.5h-69q-21 -10 -40 -24t-34 -32t-23.5 -39t-8.5 -44q0 -43 30 -66t71 -23q23 0 38 3.5t26 10.5z" />
    <glyph glyph-name="tilde" unicode="&#x2dc;" 
d="M420 647l-51 23q-5 -7 -13.5 -17.5t-17.5 -20.5t-18.5 -17t-16.5 -7t-19.5 7t-27 16t-29.5 16t-26 7t-25.5 -11t-29.5 -28t-30 -37t-25 -38l52 -23q5 7 13 17t17 20t18 17t17 7q7 0 19.5 -7t27.5 -16t29.5 -16t26.5 -7q10 0 25 11.5t30 28.5t29.5 37t24.5 38z" />
    <glyph glyph-name="hungarumlaut" unicode="&#x2dd;" 
d="M437 651q0 4 -4.5 11t-11 14t-14 11.5t-12.5 4.5t-13 -4.5t-13 -12.5q-26 -37 -63.5 -74.5t-71.5 -63.5l51 -22q39 24 74 51.5t65 61.5q5 6 9 12t4 11zM287 651q0 4 -4.5 11t-11 14t-13.5 11.5t-12 4.5t-13 -4.5t-13 -12.5q-26 -37 -63.5 -74.5t-71.5 -63.5l51 -22
q39 24 74 51.5t65 61.5q5 6 9 12t3 11z" />
    <glyph glyph-name="pi" unicode="&#x3c0;" horiz-adv-x="611" 
d="M572 152l-55 55v246h-472v-453h472v97q19 0 37 14t18 41zM489 233l-153 153h153v-153zM233 386q0 -33 -24 -56.5t-57 -23.5t-56 23.5t-23 56.5h160zM489 27h-416v288q15 -18 34 -27l382 -180v-81z" />
    <glyph glyph-name="endash" unicode="&#x2013;" 
d="M502 199v54h-502v-54h502z" />
    <glyph glyph-name="emdash" unicode="&#x2014;" horiz-adv-x="1000" 
d="M1002 199v54h-1002v-54h1002z" />
    <glyph glyph-name="quoteleft" unicode="&#x2018;" horiz-adv-x="191" 
d="M149 485q0 5 -4.5 12t-11.5 14t-15 12t-15 7q0 25 13 57t33 57l-28 5q-14 -14 -28.5 -34.5t-25.5 -43t-18 -45.5t-7 -41q0 -8 6 -17t15 -17t18 -13.5t15 -5.5t15 5.5t17.5 14t14.5 17.5t6 16z" />
    <glyph glyph-name="quoteright" unicode="&#x2019;" horiz-adv-x="191" 
d="M149 597q0 7 -6 16.5t-15 17.5t-18 13.5t-15 5.5t-15 -5.5t-17.5 -14t-14.5 -17.5t-6 -16q0 -5 4.5 -12.5t11.5 -14t15 -12t15 -6.5q0 -25 -13 -57t-33 -57l28 -5q14 14 28 34.5t25.5 43t18.5 45.5t7 41z" />
    <glyph glyph-name="quotesinglbase" unicode="&#x201a;" horiz-adv-x="192" 
d="M151 45q0 7 -6.5 16.5t-15 18t-18 14t-15.5 5.5t-15.5 -5.5t-18.5 -14t-15 -18t-6 -16.5q0 -5 4.5 -12.5t11.5 -14.5t15.5 -12.5t15.5 -6.5q0 -26 -12.5 -58.5t-33.5 -58.5l28 -5q14 14 28.5 35t26 44t19 46.5t7.5 42.5z" />
    <glyph glyph-name="quotedblleft" unicode="&#x201c;" horiz-adv-x="355" 
d="M313 485q0 5 -4.5 12t-11.5 14t-15 12t-15 7q0 25 13 57t33 57l-28 5q-14 -14 -28.5 -34.5t-25.5 -43t-18 -45.5t-7 -41q0 -8 6 -17t15 -17t18 -13.5t15 -5.5t15 5.5t17.5 14t14.5 17.5t6 16zM149 485q0 5 -4.5 12t-11.5 14t-15 12t-15 7q0 25 13 57t33 57l-28 5
q-14 -14 -28.5 -34.5t-25.5 -43t-18 -45.5t-7 -41q0 -8 6 -17t15 -17t18 -13.5t15 -5.5t15 5.5t17.5 14t14.5 17.5t6 16z" />
    <glyph glyph-name="quotedblright" unicode="&#x201d;" horiz-adv-x="355" 
d="M313 597q0 7 -6 16.5t-15 17.5t-18 13.5t-15 5.5t-15 -5.5t-17.5 -14t-14.5 -17.5t-6 -16q0 -5 4.5 -12.5t11.5 -14t15 -12t15 -6.5q0 -25 -13 -57t-33 -57l28 -5q14 14 28 34.5t25.5 43t18.5 45.5t7 41zM149 597q0 7 -6 16.5t-15 17.5t-18 13.5t-15 5.5t-15 -5.5
t-17.5 -14t-14.5 -17.5t-6 -16q0 -5 4.5 -12.5t11.5 -14t15 -12t15 -6.5q0 -25 -13 -57t-33 -57l28 -5q14 14 28 34.5t25.5 43t18.5 45.5t7 41z" />
    <glyph glyph-name="quotedblbase" unicode="&#x201e;" horiz-adv-x="358" 
d="M317 45q0 7 -6.5 16.5t-15 18t-18 14t-15.5 5.5t-15.5 -5.5t-18.5 -14t-15 -18t-6 -16.5q0 -5 4.5 -12.5t11.5 -14.5t15.5 -12.5t15.5 -6.5q0 -26 -13 -58.5t-34 -58.5l29 -5q14 14 28.5 35t26 44t19 46.5t7.5 42.5zM151 45q0 7 -6.5 16.5t-15 18t-18 14t-15.5 5.5
t-15.5 -5.5t-18.5 -14t-15 -18t-6 -16.5q0 -5 4.5 -12.5t11.5 -14.5t15.5 -12.5t15.5 -6.5q0 -26 -12.5 -58.5t-33.5 -58.5l28 -5q14 14 28.5 35t26 44t19 46.5t7.5 42.5z" />
    <glyph glyph-name="dagger" unicode="&#x2020;" horiz-adv-x="399" 
d="M357 383v78l-120 -16l2 112h-79l2 -112l-120 16v-78l122 16l12 -627h47l13 627z" />
    <glyph glyph-name="daggerdbl" unicode="&#x2021;" horiz-adv-x="399" 
d="M357 -132v78l-121 -16l-4 234l4 235l121 -16v78l-120 -16l2 112h-79l2 -112l-120 16v-78l122 16l4 -235l-4 -234l-122 16v-78l120 16l-2 -112h79l-2 112z" />
    <glyph glyph-name="bullet" unicode="&#x2022;" horiz-adv-x="364" 
d="M322 277q0 31 -10.5 56.5t-29.5 44t-44 28.5t-55 10t-55.5 -10t-44.5 -28.5t-30 -44t-11 -56.5q0 -30 11 -55.5t30 -44t44.5 -28.5t55.5 -10t55 10t44 28.5t29.5 44t10.5 55.5z" />
    <glyph glyph-name="ellipsis" unicode="&#x2026;" horiz-adv-x="578" 
d="M537 45q0 6 -6 15.5t-15 18t-18.5 14.5t-16.5 6t-16.5 -6t-18 -14.5t-14.5 -18t-6 -15.5q0 -7 6 -16.5t14.5 -18t18 -14.5t16.5 -6t16.5 6t18.5 14.5t15 18t6 16.5zM344 45q0 6 -6 15.5t-14.5 18t-18 14.5t-16.5 6t-16.5 -6t-18 -14.5t-14.5 -18t-6 -15.5q0 -7 6 -16.5
t14.5 -18t18 -14.5t16.5 -6t16.5 6t18 14.5t14.5 18t6 16.5zM151 45q0 6 -6 15.5t-14.5 18t-18 14.5t-16.5 6t-16.5 -6t-18 -14.5t-14.5 -18t-6 -15.5q0 -7 6 -16.5t14.5 -18t18 -14.5t16.5 -6t16.5 6t18 14.5t14.5 18t6 16.5z" />
    <glyph glyph-name="perthousand" unicode="&#x2030;" horiz-adv-x="1050" 
d="M1010 128q0 30 -10.5 55.5t-29 44t-44 29t-55.5 10.5t-55 -10.5t-43.5 -29t-29 -44t-10.5 -55.5q0 -31 10.5 -56.5t29 -44t43.5 -28.5t55 -10t55.5 10t44 28.5t29 44t10.5 56.5zM946 128q0 -38 -22 -59.5t-53 -21.5t-52.5 21.5t-21.5 59.5q0 37 21.5 58t52.5 21t53 -21
t22 -58zM658 128q0 30 -10.5 55.5t-29 44t-43.5 29t-55 10.5t-55 -10.5t-44 -29t-29.5 -44t-10.5 -55.5q0 -31 10.5 -56.5t29.5 -44t44 -28.5t55 -10t55 10t43.5 28.5t29 44t10.5 56.5zM595 128q0 -38 -22 -59.5t-53 -21.5t-53 21.5t-22 59.5q0 37 22 58t53 21t53 -21
t22 -58zM628 628l-38 32l-525 -649l38 -32zM313 511q0 31 -10.5 56.5t-29 44t-44 28.5t-55.5 10t-55 -10t-43.5 -28.5t-29 -44t-10.5 -56.5t10.5 -57t29 -44.5t43.5 -28.5t55 -10t55.5 10t44 28.5t29 44.5t10.5 57zM249 511q0 -38 -22 -59t-53 -21t-52.5 21t-21.5 59
q0 37 21.5 58t52.5 21t53 -21t22 -58z" />
    <glyph glyph-name="guilsinglleft" unicode="&#x2039;" horiz-adv-x="208" 
d="M167 110q-13 31 -27.5 60t-31.5 56q17 27 31.5 56t27.5 60l-12 27q-22 -29 -53.5 -62.5t-63.5 -56.5q-7 -5 -11 -12t-4 -12t4 -12t11 -12q32 -23 63.5 -56.5t53.5 -62.5z" />
    <glyph glyph-name="guilsinglright" unicode="&#x203a;" horiz-adv-x="208" 
d="M185 226q0 5 -4 12t-11 12q-32 23 -64 56.5t-53 62.5l-12 -27q12 -31 26.5 -60t32.5 -56q-18 -27 -32.5 -56t-26.5 -60l12 -27q21 29 53 62.5t64 56.5q7 5 11 12t4 12z" />
    <glyph glyph-name="fraction" unicode="&#x2044;" horiz-adv-x="638" 
d="M601 628l-39 32l-524 -649l38 -32z" />
    <glyph glyph-name="Euro" unicode="&#x20ac;" horiz-adv-x="492" 
d="M346 288h-179q-1 8 -1 15v15v19t1 17h180l9 46h-184q16 91 62 136t104 45q30 0 55 -7.5t44 -20.5l14 65q-20 11 -48 19.5t-70 8.5t-80.5 -16t-70 -47t-54 -77t-31.5 -106h-83v-46h78q0 -8 -0.5 -17t-0.5 -18q0 -8 0.5 -15.5t0.5 -15.5h-78v-46h82q9 -62 31 -108.5
t53.5 -78t70.5 -47.5t82 -16q29 0 56 5t43 16l8 69q-40 -25 -101 -25q-28 0 -55 11.5t-49.5 34.5t-39 58t-23.5 82h165z" />
    <glyph glyph-name="trademark" unicode="&#x2122;" horiz-adv-x="416" 
d="M380 453l-15 185h-22l-65 -133l-67 133h-22l-15 -185h31l9 111l56 -112h11l58 113l9 -112h32zM162 609v29h-141v-29h55v-156h31v156h55z" />
    <glyph glyph-name="Omega" unicode="&#x2126;" horiz-adv-x="611" 
d="M572 152l-55 55v246h-472v-453h472v97q19 0 37 14t18 41zM489 233l-153 153h153v-153zM233 386q0 -33 -24 -56.5t-57 -23.5t-56 23.5t-23 56.5h160zM489 27h-416v288q15 -18 34 -27l382 -180v-81z" />
    <glyph glyph-name="partialdiff" unicode="&#x2202;" horiz-adv-x="611" 
d="M572 152l-55 55v246h-472v-453h472v97q19 0 37 14t18 41zM489 233l-153 153h153v-153zM233 386q0 -33 -24 -56.5t-57 -23.5t-56 23.5t-23 56.5h160zM489 27h-416v288q15 -18 34 -27l382 -180v-81z" />
    <glyph glyph-name="Delta" unicode="&#x2206;" horiz-adv-x="611" 
d="M572 152l-55 55v246h-472v-453h472v97q19 0 37 14t18 41zM489 233l-153 153h153v-153zM233 386q0 -33 -24 -56.5t-57 -23.5t-56 23.5t-23 56.5h160zM489 27h-416v288q15 -18 34 -27l382 -180v-81z" />
    <glyph glyph-name="product" unicode="&#x220f;" horiz-adv-x="466" 
d="M430 455q0 43 -15.5 78.5t-42 61.5t-62.5 40.5t-77 14.5q-42 0 -78 -14.5t-62.5 -40.5t-41.5 -61.5t-15 -78.5t15 -78.5t41.5 -61.5t62.5 -40.5t78 -14.5q41 0 77 14.5t62.5 40.5t42 61.5t15.5 78.5zM390 455q0 -36 -12 -65t-33 -50t-50 -32.5t-62 -11.5q-34 0 -63 11.5
t-50 32.5t-33 50t-12 65q0 35 12 64.5t33 50.5t50 32.5t63 11.5q33 0 62 -11.5t50 -32.5t33 -50.5t12 -64.5zM324 503q0 32 -23.5 51.5t-53.5 19.5h-73v-239h43v96h30q30 0 53.5 19.5t23.5 52.5zM282 503q0 -16 -10.5 -25.5t-29.5 -9.5h-25v69h25q40 0 40 -34z" />
    <glyph glyph-name="summation" unicode="&#x2211;" horiz-adv-x="611" 
d="M572 152l-55 55v246h-472v-453h472v97q19 0 37 14t18 41zM489 233l-153 153h153v-153zM233 386q0 -33 -24 -56.5t-57 -23.5t-56 23.5t-23 56.5h160zM489 27h-416v288q15 -18 34 -27l382 -180v-81z" />
    <glyph glyph-name="minus" unicode="&#x2212;" horiz-adv-x="416" 
d="M360 245v57h-304v-57h304z" />
    <glyph glyph-name="radical" unicode="&#x221a;" horiz-adv-x="567" 
d="M554 645v67h-125l-162 -387q-20 -46 -41 -99.5t-36 -93.5h-2q-10 29 -21 56l-48 112h-91l-10 -73h53l99 -234h31l273 652h80z" />
    <glyph glyph-name="infinity" unicode="&#x221e;" horiz-adv-x="809" 
d="M752 0v453h-291v63q0 66 30 98.5t86 32.5q16 0 34 -4t32 -10l15 65q-34 14 -86 14q-86 0 -137 -49q-29 20 -67.5 34.5t-87.5 14.5q-86 0 -137 -48t-51 -144v-67h-79v-62h79v-391h77v391h215v-391h77v391h214v-391h77zM398 605q-14 -37 -14 -85v-67h-215v63q0 66 30 98.5
t86 32.5q29 0 59.5 -11t53.5 -31z" />
    <glyph glyph-name="integral" unicode="&#x222b;" horiz-adv-x="611" 
d="M572 152l-55 55v246h-472v-453h472v97q19 0 37 14t18 41zM489 233l-153 153h153v-153zM233 386q0 -33 -24 -56.5t-57 -23.5t-56 23.5t-23 56.5h160zM489 27h-416v288q15 -18 34 -27l382 -180v-81z" />
    <glyph glyph-name="approxequal" unicode="&#x2248;" horiz-adv-x="459" 
d="M415 357l-14 63q-18 -20 -41.5 -32.5t-55.5 -12.5q-20 0 -37 7.5t-34 15.5q-16 8 -32.5 13.5t-38.5 5.5q-39 0 -68 -12.5t-50 -36.5l15 -63q19 20 42 32.5t54 12.5q18 0 35.5 -7t35.5 -15q16 -7 33 -13t39 -6q39 0 67.5 12t49.5 36zM415 185l-14 63q-18 -20 -41.5 -32.5
t-55.5 -12.5q-20 0 -37 7.5t-34 15.5q-16 8 -32.5 13.5t-38.5 5.5q-39 0 -68 -12.5t-50 -36.5l15 -63q19 20 42 32.5t54 12.5q18 0 35.5 -7t35.5 -15q16 -7 33 -13t39 -6q39 0 67.5 12t49.5 36z" />
    <glyph glyph-name="notequal" unicode="&#x2260;" horiz-adv-x="626" 
d="M658 698q-34 14 -86 14q-86 0 -137 -49q-29 20 -67.5 34.5t-87.5 14.5q-86 0 -137 -48t-51 -144v-67h-79v-62h79v-391h77v391h215v-391h77v391h124l13 62h-137v63q0 66 30 98.5t86 32.5q16 0 34 -4t32 -10zM398 605q-14 -37 -14 -85v-67h-215v63q0 66 30 98.5t86 32.5
q29 0 59.5 -11t53.5 -31z" />
    <glyph glyph-name="lessequal" unicode="&#x2264;" horiz-adv-x="458" 
d="M416 109v69l-312 99l312 99v70l-374 -123v-91zM416 0v66h-374v-66h374z" />
    <glyph glyph-name="greaterequal" unicode="&#x2265;" horiz-adv-x="458" 
d="M416 232v91l-374 123v-70l312 -99l-312 -99v-69zM416 0v66h-374v-66h374z" />
    <glyph glyph-name="lozenge" unicode="&#x25ca;" horiz-adv-x="588" 
d="M506 277l-217 217l-217 -217l217 -217zM433 277l-144 -144l-144 144l144 143z" />
    <glyph glyph-name="apple" unicode="&#xf8ff;" horiz-adv-x="611" 
d="M569 152l-55 55v246h-472v-453h472v97q19 0 37 14t18 41zM486 233l-153 153h153v-153zM230 386q0 -33 -24 -56.5t-57 -23.5t-56 23.5t-23 56.5h160zM486 27h-416v288q15 -18 34 -27l382 -180v-81z" />
    <glyph glyph-name="fi" unicode="&#xfb01;" horiz-adv-x="518" 
d="M461 0v453h-292v63q0 66 30 98.5t86 32.5q16 0 34 -4t32 -10l16 65q-34 14 -87 14q-86 0 -137 -48t-51 -144v-67h-79v-62h79v-391h77v391h215v-391h77z" />
    <glyph glyph-name="fl" unicode="&#xfb02;" horiz-adv-x="542" 
d="M520 36q-23 5 -41 25t-18 52v530q-29 26 -74.5 47.5t-106.5 21.5q-86 0 -137 -48t-51 -144v-67h-79v-62h79v-391h77v391h108v62h-108v63q0 66 30 98.5t86 32.5q28 0 54.5 -9.5t44.5 -23.5v-511q0 -30 8.5 -51t21 -35.5t27.5 -22.5t27 -11z" />
    </font>
</defs>
</svg>
