<?xml version="1.0" standalone="no"?>
<!DOCTYPE svg PUBLIC "-//W3C//DTD SVG 1.1//EN" "http://www.w3.org/Graphics/SVG/1.1/DTD/svg11.dtd" >
<svg>
<metadata>
Created by FontForge 20110222 at Tue Mar 18 05:20:22 2014
 By deploy user
Copyright (c) 1989, 1995 Adobe Systems Incorporated.  All Rights Reserved.
</metadata>
<defs>
<font id="VAGRounded-Thin" horiz-adv-x="536" >
  <font-face 
    font-family="VAG Rounded"
    font-weight="100"
    font-stretch="normal"
    units-per-em="1000"
    panose-1="2 0 3 3 3 0 0 2 0 4"
    ascent="800"
    descent="-200"
    x-height="532"
    cap-height="718"
    bbox="-108 -288 1053 922"
    underline-thickness="50"
    underline-position="-75"
    unicode-range="U+0001-2122"
  />
<missing-glyph horiz-adv-x="240" 
 />
    <glyph glyph-name=".notdef" horiz-adv-x="240" 
 />
    <glyph glyph-name=".null" horiz-adv-x="0" 
 />
    <glyph glyph-name="nonmarkingreturn" horiz-adv-x="500" 
 />
    <glyph glyph-name="space" unicode=" " horiz-adv-x="240" 
 />
    <glyph glyph-name="Eth" horiz-adv-x="630" 
d="M138 646h144q64 0 108 -25t71 -65t39 -90.5t12 -101.5q0 -63 -12 -117t-40 -94.5t-72.5 -63.5t-109.5 -23h-140v260h141q17 0 28 9.5t11 23.5t-11 23.5t-28 9.5h-141v254zM66 36q0 -15 10.5 -25.5t25.5 -10.5h180q65 0 121 24t97.5 69.5t65.5 110.5t24 147
q0 62 -17 126.5t-53 116.5t-93.5 85t-138.5 33h-186q-15 0 -25.5 -10.5t-10.5 -25.5v-284h-28q-17 0 -28 -9.5t-11 -23.5t11 -23.5t28 -9.5h28v-290z" />
    <glyph glyph-name="eth" 
d="M268 -6q34 0 74 12.5t74.5 46t57.5 92.5t23 151q0 115 -40 212.5t-125 169.5l79 39q9 5 11.5 10t2.5 11q0 10 -5.5 17t-16.5 7q-3 0 -8.5 -1.5t-16.5 -6.5l-85 -42q-15 10 -31.5 20.5t-33.5 19.5t-33 14.5t-29 5.5q-16 0 -24 -9.5t-8 -19.5t9 -16.5t23.5 -12t32 -13
t33.5 -20.5l-84 -43q-10 -5 -15 -11t-5 -15q0 -8 5 -15.5t15 -7.5q5 0 9.5 1.5t14.5 6.5l96 48q45 -35 79.5 -81t53.5 -97l-2 -2q-23 34 -59.5 50.5t-71.5 16.5q-57 0 -100 -24t-71.5 -62.5t-43 -87t-14.5 -96.5t14.5 -95.5t43 -86t71.5 -62.5t100 -24zM117 262q0 36 8 73
t26 67.5t47 50t70 19.5q41 -1 70 -20.5t47 -49.5t26 -67t8 -73q0 -35 -8 -72t-26 -67t-47 -49.5t-70 -19.5t-70 19.5t-47 49.5t-26 67t-8 72z" />
    <glyph glyph-name="Lslash" horiz-adv-x="370" 
d="M138 349l108 63q11 7 16.5 13.5t5.5 18.5q0 11 -7 20.5t-19 9.5q-9 0 -22 -8l-82 -48v254q0 46 -36 46t-36 -46v-296l-68 -40q-20 -11 -20 -33q0 -8 5 -18t21 -10q4 0 9 2l10 4l43 26v-271q0 -15 10.5 -25.5t25.5 -10.5h224q17 0 27.5 9.5t10.5 23.5t-10.5 23.5
t-27.5 9.5h-188v283z" />
    <glyph glyph-name="lslash" horiz-adv-x="204" 
d="M138 383l59 48q13 11 19 18.5t6 16.5q0 13 -7.5 19.5t-19.5 6.5q-11 0 -18 -3.5t-13 -8.5l-26 -22v268q0 46 -36 46t-36 -46v-329l-59 -49q-11 -9 -17.5 -17t-6.5 -18t6.5 -17.5t20.5 -7.5q12 0 26 11l30 25v-284q0 -46 36 -46t36 46v343z" />
    <glyph glyph-name="Scaron" horiz-adv-x="462" 
d="M216 -6q51 0 93 17t71.5 47.5t45.5 72t16 89.5q0 57 -25 92t-62.5 57.5t-81.5 37.5t-81.5 31.5t-62.5 40t-25 62.5q0 22 9.5 42t27 35.5t41 24.5t51.5 9q29 0 48.5 -8t34.5 -17t27.5 -17t26.5 -8q10 0 20 10.5t10 27.5q0 13 -14.5 26.5t-37.5 25t-52 19t-58 7.5
q-40 -1 -77.5 -13.5t-66 -35.5t-45.5 -56.5t-17 -76.5q0 -54 25 -87t62.5 -54.5t81.5 -36t81.5 -32t62.5 -43t25 -68.5q0 -28 -11.5 -56t-33 -50t-51.5 -35.5t-68 -13.5q-19 0 -39 5t-36.5 11t-28 12t-14.5 9q-6 5 -17 11t-17 6q-14 0 -24 -10.5t-10 -24.5q0 -15 14 -30
t39.5 -27t62 -20t80.5 -8zM231 758l127 49q21 8 25 18.5t4 18.5q0 11 -8 20.5t-22 9.5q-8 0 -14.5 -1.5t-11.5 -3.5l-100 -45l-100 45q-5 2 -11.5 3.5t-14.5 1.5q-14 0 -22 -9.5t-8 -20.5q0 -8 4 -18.5t25 -18.5z" />
    <glyph glyph-name="scaron" horiz-adv-x="444" 
d="M211 538q-30 0 -60 -9.5t-54 -27.5t-38.5 -44t-14.5 -59q0 -50 26 -76.5t67 -43.5l124 -51q15 -6 28 -13t23.5 -16.5t16.5 -22t6 -30.5q0 -38 -31.5 -64.5t-83.5 -26.5q-35 0 -60 12t-43 26t-31.5 26t-26.5 12t-23.5 -13.5t-10.5 -21.5q0 -13 13.5 -30t39 -33t61 -27
t78.5 -11q42 0 78 11t62 31t41 48.5t15 63.5q0 32 -10.5 54.5t-29 40t-42.5 30t-51 23.5l-109 44q-27 11 -38 28t-11 35q0 19 9 33t24 23.5t33.5 14t37.5 4.5q27 0 48 -9t37 -19.5t29 -19.5t23 -9q23 0 29.5 11.5t6.5 23.5q1 14 -14 28.5t-40.5 26.5t-60 19.5t-73.5 7.5z
M222 598l127 49q21 8 25 18.5t4 18.5q0 11 -8 20.5t-22 9.5q-8 0 -14.5 -1.5t-11.5 -3.5l-100 -45l-100 45q-5 2 -11.5 3.5t-14.5 1.5q-14 0 -22 -9.5t-8 -20.5q0 -8 4 -18.5t25 -18.5z" />
    <glyph glyph-name="Yacute" horiz-adv-x="482" 
d="M241 407l-174 290q-7 12 -15.5 16.5t-20.5 4.5q-15 0 -22.5 -8.5t-7.5 -19.5q0 -7 4 -17t18 -33l182 -303v-297q0 -46 36 -46t36 46v297l182 303q14 23 18 33t4 17q0 11 -7.5 19.5t-22.5 8.5q-12 0 -20.5 -4.5t-15.5 -16.5zM159 829q-21 -8 -24.5 -16.5t-3.5 -16.5
q0 -11 7.5 -22.5t20.5 -11.5q5 0 11 1t15 5l138 53q21 8 24.5 16.5t3.5 16.5q0 11 -7.5 22.5t-20.5 11.5q-5 0 -11 -1t-15 -5z" />
    <glyph glyph-name="yacute" horiz-adv-x="426" 
d="M179 14l-65 -171q-6 -15 -6 -29q0 -11 8 -20.5t25 -9.5q15 0 24 9t15 27l230 664q4 11 4 21q0 13 -9 23t-24 10t-24 -8.5t-14 -24.5l-129 -386h-2l-129 386q-5 16 -14 24.5t-24 8.5t-24 -10t-9 -23q0 -10 4 -21zM131 669q-21 -8 -24.5 -16.5t-3.5 -16.5q0 -11 7.5 -22.5
t20.5 -11.5q5 0 11 1t15 5l138 53q21 8 24.5 16.5t3.5 16.5q0 11 -7.5 22.5t-20.5 11.5q-5 0 -11 -1t-15 -5z" />
    <glyph glyph-name="Thorn" horiz-adv-x="519" 
d="M138 150h126q62 0 106.5 18.5t74 50t43.5 72.5t14 85q0 33 -11.5 70.5t-37.5 69.5t-68 53t-103 21h-144v82q0 46 -36 46t-36 -46v-632q0 -46 36 -46t36 46v110zM138 524h132q43 0 73 -14t49.5 -36t28.5 -49.5t9 -54.5t-9 -54.5t-28.5 -49.5t-49.5 -36t-73 -14h-132v308z
" />
    <glyph glyph-name="thorn" horiz-adv-x="556" 
d="M66 -170q0 -46 36 -46t36 46v243h3q31 -40 68 -59.5t79 -19.5q56 0 99 23.5t72 62t43.5 87.5t14.5 99t-14.5 99t-43.5 87.5t-72 62t-99 23.5q-42 0 -79 -19.5t-68 -59.5h-3v267q0 46 -36 46t-36 -46v-896zM137 266q0 36 8 74t25.5 68.5t46.5 50t71 19.5t71 -19.5
t46.5 -50t25.5 -68.5t8 -74t-8 -74t-25.5 -68.5t-46.5 -50t-71 -19.5t-71 19.5t-46.5 50t-25.5 68.5t-8 74z" />
    <glyph glyph-name="Zcaron" horiz-adv-x="556" 
d="M118 66l383 583q14 20 14 36q0 10 -7.5 18.5t-26.5 8.5h-401q-17 0 -27.5 -9.5t-10.5 -23.5t10.5 -23.5t27.5 -9.5h334l-357 -544q-15 -23 -22 -37t-7 -25q0 -17 14.5 -28.5t45.5 -11.5h402q17 0 27.5 9.5t10.5 23.5t-10.5 23.5t-27.5 9.5h-372zM278 758l127 49
q21 8 25 18.5t4 18.5q0 11 -8 20.5t-22 9.5q-8 0 -14.5 -1.5t-11.5 -3.5l-100 -45l-100 45q-5 2 -11.5 3.5t-14.5 1.5q-14 0 -22 -9.5t-8 -20.5q0 -8 4 -18.5t25 -18.5z" />
    <glyph glyph-name="zcaron" horiz-adv-x="444" 
d="M388 461q8 12 12 21.5t4 22.5q0 12 -9 19.5t-31 7.5h-287q-17 0 -27.5 -9.5t-10.5 -23.5t10.5 -23.5t27.5 -9.5h234l-267 -395q-8 -12 -12 -20.5t-4 -21.5q0 -8 7.5 -18.5t34.5 -10.5h309q17 0 27.5 9.5t10.5 23.5t-10.5 23.5t-27.5 9.5h-258zM222 598l127 49
q21 8 25 18.5t4 18.5q0 11 -8 20.5t-22 9.5q-8 0 -14.5 -1.5t-11.5 -3.5l-100 -45l-100 45q-5 2 -11.5 3.5t-14.5 1.5q-14 0 -22 -9.5t-8 -20.5q0 -8 4 -18.5t25 -18.5z" />
    <glyph glyph-name="onehalf" horiz-adv-x="805" 
d="M192 38q-5 -11 -7 -18t-2 -13q0 -10 7.5 -16.5t20.5 -6.5t19.5 7t11.5 18l260 665q5 11 7 18t2 13q0 10 -7.5 16.5t-20.5 6.5t-19.5 -7t-11.5 -18zM126 658v-343q0 -15 8 -22.5t22 -7.5t22 7.5t8 22.5v373q0 9 -7 16.5t-20 7.5h-89q-13 0 -20 -8t-7 -19t7 -19t20 -8h56z
M538 54l133 173q22 29 33 52t11 49q0 39 -31.5 69t-100.5 30q-67 0 -102.5 -37t-35.5 -95q0 -12 8 -19t20 -7q14 0 22 5.5t10 20.5q5 35 23.5 56.5t54.5 21.5q27 0 46.5 -13.5t19.5 -37.5q0 -31 -40 -84l-138 -188q-12 -16 -12 -29q0 -8 7 -14.5t21 -6.5h213q11 0 18 8t7 19
t-7 19t-18 8h-162z" />
    <glyph glyph-name="onequarter" horiz-adv-x="805" 
d="M192 38q-5 -11 -7 -18t-2 -13q0 -10 7.5 -16.5t20.5 -6.5t19.5 7t11.5 18l260 665q5 11 7 18t2 13q0 10 -7.5 16.5t-20.5 6.5t-19.5 -7t-11.5 -18zM126 658v-343q0 -15 8 -22.5t22 -7.5t22 7.5t8 22.5v373q0 9 -7 16.5t-20 7.5h-89q-13 0 -20 -8t-7 -19t7 -19t20 -8h56z
M701 101h22q11 0 18 7.5t7 19.5t-7 19.5t-18 7.5h-22v227q0 24 -12.5 34.5t-31.5 10.5q-15 0 -30.5 -7t-26.5 -24l-150 -236q-7 -11 -10.5 -18.5t-3.5 -15.5q0 -10 6 -17.5t23 -7.5h176v-79q0 -11 8 -19.5t22 -8.5q15 0 22.5 8.5t7.5 19.5v79zM641 155h-142l140 224h2v-224z
" />
    <glyph glyph-name="onesuperior" horiz-adv-x="229" 
d="M100 658v-343q0 -15 8 -22.5t22 -7.5t22 7.5t8 22.5v373q0 9 -7 16.5t-20 7.5h-89q-13 0 -20 -8t-7 -19t7 -19t20 -8h56z" />
    <glyph glyph-name="threequarters" horiz-adv-x="805" 
d="M242 38q-5 -11 -7 -18t-2 -13q0 -10 7.5 -16.5t20.5 -6.5t19.5 7t11.5 18l260 665q5 11 7 18t2 13q0 10 -7.5 16.5t-20.5 6.5t-19.5 -7t-11.5 -18zM269 611q0 21 -6.5 40t-20.5 34t-37 24t-56 9q-30 0 -52 -9.5t-36 -24t-21 -32.5t-7 -35q0 -14 8.5 -21t19.5 -7
q14 0 22.5 6.5t9.5 21.5q2 21 16 34t37 13q30 0 43.5 -17t13.5 -46q0 -21 -7.5 -41t-31.5 -26q-17 -5 -26 -10t-9 -19q0 -8 6 -14t24 -8q31 -2 50 -17.5t19 -46.5q0 -38 -23 -59t-54 -21q-38 0 -52.5 12t-19.5 25q-8 19 -17 23t-18 4q-11 0 -19.5 -6.5t-8.5 -20.5
q0 -12 7.5 -27.5t24 -30t41.5 -24t61 -9.5q72 0 108 36.5t36 94.5q0 40 -21.5 65t-56.5 38q25 13 39 37t14 55zM701 101h22q11 0 18 7.5t7 19.5t-7 19.5t-18 7.5h-22v227q0 24 -12.5 34.5t-31.5 10.5q-15 0 -30.5 -7t-26.5 -24l-150 -236q-7 -11 -10.5 -18.5t-3.5 -15.5
q0 -10 6 -17.5t23 -7.5h176v-79q0 -11 8 -19.5t22 -8.5q15 0 22.5 8.5t7.5 19.5v79zM641 155h-142l140 224h2v-224z" />
    <glyph glyph-name="threesuperior" horiz-adv-x="348" 
d="M288 611q0 21 -6.5 40t-20.5 34t-37 24t-56 9q-30 0 -52 -9.5t-36 -24t-21 -32.5t-7 -35q0 -14 8.5 -21t19.5 -7q14 0 22.5 6.5t9.5 21.5q2 21 16 34t37 13q30 0 43.5 -17t13.5 -46q0 -21 -7.5 -41t-31.5 -26q-17 -5 -26 -10t-9 -19q0 -8 6 -14t24 -8q31 -2 50 -17.5
t19 -46.5q0 -38 -23 -59t-54 -21q-38 0 -52.5 12t-19.5 25q-8 19 -17 23t-18 4q-11 0 -19.5 -6.5t-8.5 -20.5q0 -12 7.5 -27.5t24 -30t41.5 -24t61 -9.5q72 0 108 36.5t36 94.5q0 40 -21.5 65t-56.5 38q25 13 39 37t14 55z" />
    <glyph glyph-name="twosuperior" horiz-adv-x="348" 
d="M127 345l133 173q22 29 33 52t11 49q0 39 -31.5 69t-100.5 30q-67 0 -102.5 -37t-35.5 -95q0 -12 8 -19t20 -7q14 0 22 5.5t10 20.5q5 35 23.5 56.5t54.5 21.5q27 0 46.5 -13.5t19.5 -37.5q0 -31 -40 -84l-138 -188q-12 -16 -12 -29q0 -8 7 -14.5t21 -6.5h213q11 0 18 8
t7 19t-7 19t-18 8h-162z" />
    <glyph glyph-name="brokenbar" horiz-adv-x="222" 
d="M78 363q0 -17 9.5 -27.5t23.5 -10.5t23.5 10.5t9.5 27.5v274q0 17 -9.5 27.5t-23.5 10.5t-23.5 -10.5t-9.5 -27.5v-274zM78 -137q0 -17 9.5 -27.5t23.5 -10.5t23.5 10.5t9.5 27.5v274q0 17 -9.5 27.5t-23.5 10.5t-23.5 -10.5t-9.5 -27.5v-274z" />
    <glyph glyph-name="minus" horiz-adv-x="600" 
d="M515 220q17 0 27.5 9.5t10.5 23.5t-10.5 23.5t-27.5 9.5h-430q-17 0 -27.5 -9.5t-10.5 -23.5t10.5 -23.5t27.5 -9.5h430z" />
    <glyph glyph-name="multiply" horiz-adv-x="600" 
d="M471 37q14 -14 28 -14t22.5 9.5t8.5 21.5q0 7 -2.5 13t-12.5 16l-169 170l169 170q10 10 12.5 16t2.5 13q0 12 -8.5 21.5t-22.5 9.5t-28 -14l-171 -171l-171 171q-14 14 -28 14t-22.5 -9.5t-8.5 -21.5q0 -7 2.5 -13t12.5 -16l169 -170l-169 -170q-10 -10 -12.5 -16
t-2.5 -13q0 -12 8.5 -21.5t22.5 -9.5t28 14l171 171z" />
    <glyph glyph-name="exclam" unicode="!" horiz-adv-x="278" 
d="M93 40q0 -19 14 -32.5t32 -13.5t32 13.5t14 32.5q0 18 -14 32t-32 14t-32 -14t-14 -32zM103 248q0 -46 36 -46t36 46v424q0 46 -36 46t-36 -46v-424z" />
    <glyph glyph-name="quotedbl" unicode="&#x22;" horiz-adv-x="315" 
d="M60 548q0 -17 9.5 -27.5t23.5 -10.5t23.5 10.5t9.5 27.5v132q0 17 -9.5 27.5t-23.5 10.5t-23.5 -10.5t-9.5 -27.5v-132zM189 548q0 -17 9.5 -27.5t23.5 -10.5t23.5 10.5t9.5 27.5v132q0 17 -9.5 27.5t-23.5 10.5t-23.5 -10.5t-9.5 -27.5v-132z" />
    <glyph glyph-name="numbersign" unicode="#" 
d="M182 216h132l-20 -146q-2 -14 -3.5 -25t-1.5 -23q0 -11 6 -19.5t20 -8.5q17 0 24.5 9.5t9.5 26.5l26 186h70q17 0 29 8t12 22q0 15 -12 22.5t-29 7.5h-62l23 160h70q17 0 29 7.5t12 22.5q0 14 -12 22t-29 8h-61l20 146q2 14 3.5 25t1.5 23q0 11 -6 19.5t-20 8.5
q-17 0 -24.5 -9.5t-9.5 -26.5l-26 -186h-132l20 146q2 14 3.5 25t1.5 23q0 11 -6 19.5t-20 8.5q-17 0 -24.5 -9.5t-9.5 -26.5l-26 -186h-70q-17 0 -29 -8t-12 -22q0 -15 12 -22.5t29 -7.5h62l-23 -160h-70q-17 0 -29 -7.5t-12 -22.5q0 -14 12 -22t29 -8h61l-20 -146
q-2 -14 -3.5 -25t-1.5 -23q0 -11 6 -19.5t20 -8.5q17 0 24.5 9.5t9.5 26.5zM324 276h-133l22 160h133z" />
    <glyph glyph-name="dollar" unicode="$" horiz-adv-x="463" 
d="M245 343q26 -9 48.5 -19.5t40 -25t27.5 -34.5t10 -49q0 -26 -9 -51.5t-25.5 -46.5t-39.5 -35.5t-52 -19.5v281zM209 433q-22 8 -41 18t-33 23.5t-22 30.5t-8 40q0 40 25 68.5t79 36.5v-217zM209 60q-38 0 -62 8t-40 18t-28 18t-27 8q-17 0 -24.5 -10.5t-7.5 -19.5
q0 -15 13.5 -30.5t38 -28t59.5 -20.5t78 -9v-45q0 -20 18 -20t18 20v47q44 4 80.5 23t62.5 49t40.5 69.5t14.5 85.5q0 47 -18 78.5t-46.5 53t-63.5 36t-70 27.5v234q30 -1 49.5 -8t33 -15.5t23.5 -15.5t20 -7q16 0 23 10.5t7 22.5q0 15 -13.5 28.5t-36 24.5t-50 18t-56.5 8
v45q0 20 -18 20t-18 -20v-47q-36 -4 -68 -17.5t-56 -36t-38 -53.5t-14 -70q0 -45 15.5 -75t40 -50t56 -33.5t64.5 -24.5v-296z" />
    <glyph glyph-name="percent" unicode="%" horiz-adv-x="741" 
d="M194 372q31 0 59 12.5t49 34.5t33.5 53.5t12.5 68.5q0 41 -13 73.5t-34.5 55.5t-49 35.5t-57.5 12.5t-57.5 -12.5t-49 -35.5t-34.5 -55.5t-13 -73.5q0 -37 12.5 -68.5t33.5 -53.5t49 -34.5t59 -12.5zM194 420q-25 0 -42.5 11t-29 28t-17 39t-5.5 43q0 56 24.5 92.5
t69.5 36.5t69.5 -36.5t24.5 -92.5q0 -21 -5.5 -43t-17 -39t-29 -28t-42.5 -11zM547 -6q31 0 59 12.5t49 34.5t33.5 53.5t12.5 68.5q0 41 -13 73.5t-34.5 55.5t-49 35.5t-57.5 12.5t-57.5 -12.5t-49 -35.5t-34.5 -55.5t-13 -73.5q0 -37 12.5 -68.5t33.5 -53.5t49 -34.5
t59 -12.5zM547 42q-25 0 -42.5 11t-29 28t-17 39t-5.5 43q0 56 24.5 92.5t69.5 36.5t69.5 -36.5t24.5 -92.5q0 -21 -5.5 -43t-17 -39t-29 -28t-42.5 -11zM215 38q-5 -11 -7 -18t-2 -13q0 -10 7.5 -16.5t20.5 -6.5t19.5 7t11.5 18l260 665q5 11 7 18t2 13q0 10 -7.5 16.5
t-20.5 6.5t-19.5 -7t-11.5 -18z" />
    <glyph glyph-name="ampersand" unicode="&#x26;" horiz-adv-x="667" 
d="M314 423q23 14 46 30t42 36t30.5 44.5t11.5 54.5q0 32 -12.5 56.5t-34.5 41t-50.5 24.5t-60.5 8q-39 0 -68.5 -10.5t-49 -28.5t-29.5 -42.5t-10 -52.5q0 -16 4 -31t13.5 -31.5t25 -36.5t39.5 -46q-77 -45 -123.5 -100.5t-46.5 -130.5q0 -48 15.5 -87t45.5 -67.5t73.5 -44
t98.5 -15.5q33 0 63.5 9.5t58 25.5t51.5 37.5t44 45.5l80 -92q11 -14 17.5 -18.5t15.5 -4.5q17 0 26.5 9.5t9.5 29.5q0 5 -2.5 12t-13.5 18l-92 103q30 37 49 64.5t30 47t15.5 31t4.5 16.5q0 14 -8.5 23t-23.5 9q-11 0 -19.5 -7.5t-17 -21t-19 -32t-25.5 -39.5l-28 -40z
M372 584q0 -15 -5 -28t-17 -25.5t-31.5 -26t-48.5 -30.5q-11 13 -23.5 27t-22.5 28t-16.5 28t-6.5 27q0 22 7 36t18.5 22.5t26 12t29.5 3.5q40 0 65 -20t25 -54zM445 165q-38 -57 -85.5 -81t-88.5 -24q-69 0 -110.5 41t-41.5 110q0 54 36 100.5t96 76.5z" />
    <glyph glyph-name="quotesingle" unicode="'" horiz-adv-x="186" 
d="M60 548q0 -17 9.5 -27.5t23.5 -10.5t23.5 10.5t9.5 27.5v132q0 17 -9.5 27.5t-23.5 10.5t-23.5 -10.5t-9.5 -27.5v-132z" />
    <glyph glyph-name="parenleft" unicode="(" horiz-adv-x="204" 
d="M109 330q0 71 4.5 141.5t19.5 142.5q6 26 11 42.5t9 27.5t6 18t2 14q-2 24 -29 24q-17 0 -27.5 -16t-20.5 -48q-23 -81 -32 -171t-9 -175t9 -175t32 -171q10 -32 20.5 -48t27.5 -16q27 0 29 24q0 7 -2 14t-6 18t-9 27.5t-11 42.5q-15 72 -19.5 142.5t-4.5 141.5z" />
    <glyph glyph-name="parenright" unicode=")" horiz-adv-x="204" 
d="M95 330q0 -71 -4.5 -141.5t-19.5 -142.5q-6 -26 -11 -42.5t-9 -27.5t-6 -18t-2 -14q2 -24 29 -24q17 0 27.5 16t20.5 48q23 81 32 171t9 175t-9 175t-32 171q-10 32 -20.5 48t-27.5 16q-27 0 -29 -24q0 -7 2 -14t6 -18t9 -27.5t11 -42.5q15 -72 19.5 -142.5t4.5 -141.5z
" />
    <glyph glyph-name="asterisk" unicode="*" horiz-adv-x="388" 
d="M160 540l-91 -41q-29 -14 -29 -30q0 -29 31 -29q12 0 33 15l74 56l-8 -56q-2 -16 -3.5 -26t-2 -16t-0.5 -10v-8q0 -14 8 -23.5t22 -9.5t22 9.5t8 23.5v8t-0.5 10t-2 16t-3.5 26l-8 56l74 -56q21 -15 33 -15q31 0 31 29q0 16 -29 30l-91 41l91 41q29 14 29 30q0 29 -31 29
q-12 0 -33 -15l-74 -56l8 56q2 16 3.5 26t2 16t0.5 10v8q0 14 -8 23.5t-22 9.5t-22 -9.5t-8 -23.5v-8t0.5 -10t2 -16t3.5 -26l8 -56l-74 56q-21 15 -33 15q-31 0 -31 -29q0 -16 29 -30z" />
    <glyph glyph-name="plus" unicode="+" horiz-adv-x="600" 
d="M267 286h-182q-17 0 -27.5 -9.5t-10.5 -23.5t10.5 -23.5t27.5 -9.5h182v-182q0 -17 9.5 -27.5t23.5 -10.5t23.5 10.5t9.5 27.5v182h182q17 0 27.5 9.5t10.5 23.5t-10.5 23.5t-27.5 9.5h-182v182q0 17 -9.5 27.5t-23.5 10.5t-23.5 -10.5t-9.5 -27.5v-182z" />
    <glyph glyph-name="comma" unicode="," horiz-adv-x="240" 
d="M40 -61q-8 -18 -8 -30q0 -11 9 -21t26 -10q24 0 34 21l57 126q8 18 8 30q0 11 -9 21t-26 10q-24 0 -34 -21z" />
    <glyph glyph-name="hyphen" unicode="-" horiz-adv-x="352" 
d="M79 299q-17 0 -27.5 -9.5t-10.5 -23.5t10.5 -23.5t27.5 -9.5h194q17 0 27.5 9.5t10.5 23.5t-10.5 23.5t-27.5 9.5h-194z" />
    <glyph glyph-name="period" unicode="." horiz-adv-x="240" 
d="M74 40q0 -19 13.5 -32.5t32.5 -13.5t32.5 13.5t13.5 32.5t-13.5 32.5t-32.5 13.5t-32.5 -13.5t-13.5 -32.5z" />
    <glyph glyph-name="slash" unicode="/" horiz-adv-x="407" 
d="M47 47q-7 -17 -7 -27q0 -11 8.5 -18.5t22.5 -7.5t21.5 6.5t12.5 19.5l255 645q3 8 5 15t2 12q0 11 -8.5 18.5t-22.5 7.5t-21.5 -6.5t-12.5 -19.5z" />
    <glyph glyph-name="zero" unicode="0" 
d="M268 -6q38 0 78 18.5t73 61t54.5 111.5t21.5 171t-21.5 171t-54.5 111.5t-73 61t-78 18.5q-37 0 -77.5 -18.5t-73.5 -61t-54.5 -111.5t-21.5 -171t21.5 -171t54.5 -111.5t73.5 -61t77.5 -18.5zM268 652q38 0 66 -22.5t46.5 -62t27.5 -93.5t9 -118t-9 -118t-27.5 -93.5
t-46.5 -62t-66 -22.5t-66 22.5t-46.5 62t-27.5 93.5t-9 118t9 118t27.5 93.5t46.5 62t66 22.5z" />
    <glyph glyph-name="one" unicode="1" horiz-adv-x="352" 
d="M176 646v-606q0 -46 36 -46t36 46v639q0 14 -10.5 23.5t-27.5 9.5h-125q-17 0 -27.5 -9.5t-10.5 -23.5t10.5 -23.5t27.5 -9.5h91z" />
    <glyph glyph-name="two" unicode="2" 
d="M165 66l224 306q38 51 53 89.5t15 74.5q0 86 -52 134t-137 48q-47 0 -85.5 -17t-66 -46.5t-42.5 -69t-15 -85.5q0 -27 10 -37.5t27 -10.5q15 0 25 9t10 27q0 81 35 122.5t99 41.5q53 0 83.5 -28t30.5 -94q0 -24 -14.5 -59t-46.5 -80l-231 -319q-11 -16 -15 -25.5
t-4 -18.5q0 -11 8.5 -19.5t29.5 -8.5h333q17 0 27.5 9.5t10.5 23.5t-10.5 23.5t-27.5 9.5h-274z" />
    <glyph glyph-name="three" unicode="3" 
d="M351 535q0 -56 -24 -89t-67 -39q-25 -4 -33.5 -13t-8.5 -22q0 -6 1.5 -11.5t8 -10.5t21 -9.5t40.5 -8.5q14 -2 31 -9t33 -22t26.5 -40t10.5 -63q0 -29 -10 -54t-28 -44t-44 -29.5t-58 -10.5q-36 0 -60.5 13.5t-39.5 31t-22.5 35t-10.5 25.5q-5 17 -15.5 21t-17.5 4
q-11 0 -22 -10t-11 -30q0 -19 13 -45.5t38 -51t62.5 -42t85.5 -17.5q47 0 86.5 16.5t69 45.5t46 68.5t16.5 86.5q0 30 -9 56.5t-25 49t-38 38.5t-48 25q38 25 59.5 65.5t21.5 93.5q0 39 -13.5 71.5t-37 56.5t-56.5 37.5t-72 13.5q-38 0 -69.5 -14.5t-54 -39t-34.5 -57
t-12 -67.5q0 -15 10.5 -25.5t25.5 -10.5t25.5 10.5t10.5 25.5q0 54 25.5 83t72.5 29q30 0 49.5 -12.5t31 -31t16 -38.5t4.5 -35z" />
    <glyph glyph-name="four" unicode="4" 
d="M355 40q0 -46 36 -46t36 46v151h39q17 0 27.5 9.5t10.5 23.5t-10.5 23.5t-27.5 9.5h-39v402q0 27 -15.5 43t-43.5 16q-26 0 -43.5 -13.5t-28.5 -31.5l-237 -394q-13 -20 -20 -35t-7 -25q0 -13 8 -20.5t29 -7.5h286v-151zM355 257h-232l230 401h2v-401z" />
    <glyph glyph-name="five" unicode="5" 
d="M123 431q-2 -16 -3.5 -25.5t-1.5 -17.5q0 -12 8.5 -19.5t18.5 -7.5q12 0 22.5 4.5t22.5 10.5t26 10.5t33 4.5q66 0 103.5 -42t37.5 -112q0 -37 -10 -69.5t-28.5 -56.5t-45 -37.5t-60.5 -13.5q-40 0 -66 12.5t-43 27t-29 27t-23 12.5q-18 0 -26.5 -13.5t-8.5 -22.5
q0 -11 15 -29.5t41 -36t62 -30.5t79 -13q48 0 89 18t70 51t45.5 79.5t16.5 103.5q0 45 -15.5 84t-42 67t-62 44t-74.5 16q-20 0 -40 -4t-38 -13l32 206h189q17 0 27.5 9.5t10.5 23.5t-10.5 23.5t-27.5 9.5h-214q-23 0 -31 -12t-12 -34z" />
    <glyph glyph-name="six" unicode="6" 
d="M271 -6q53 0 91.5 21.5t63.5 55.5t37 76.5t12 83.5q0 52 -13.5 94t-38.5 72t-60.5 46t-79.5 16q-27 0 -54.5 -7t-48.5 -21h-2q38 75 72.5 120.5t60.5 72t42 40.5t16 26q0 17 -9 27.5t-23 10.5q-10 0 -18.5 -5t-19.5 -15q-47 -44 -90 -97.5t-76 -114t-52.5 -127.5
t-19.5 -138q0 -36 11 -77.5t35.5 -77t65 -59t98.5 -23.5zM265 60q-33 0 -56.5 14.5t-39 37.5t-23 53t-7.5 60q0 85 31.5 129.5t96.5 44.5q30 0 54 -12.5t41 -35.5t26 -55t9 -71q0 -41 -10.5 -72t-28.5 -51.5t-42 -31t-51 -10.5z" />
    <glyph glyph-name="seven" unicode="7" horiz-adv-x="481" 
d="M440 646q5 11 8.5 23t3.5 21q0 22 -35 22h-350q-17 0 -27.5 -9.5t-10.5 -23.5t10.5 -23.5t27.5 -9.5h298l-248 -586q-7 -15 -9.5 -23.5t-2.5 -14.5q0 -12 9.5 -20t23.5 -8q9 0 19 4t18 22z" />
    <glyph glyph-name="eight" unicode="8" 
d="M268 364q32 0 56 -12.5t40 -33t24.5 -47t8.5 -55.5q0 -27 -8 -54.5t-24 -50t-40.5 -37t-56.5 -14.5t-56.5 14.5t-40.5 37t-24 50t-8 54.5q0 29 8.5 55.5t24.5 47t40.5 33t55.5 12.5zM268 -6q50 0 89 18t65 48t39.5 69t13.5 81q0 67 -32.5 117.5t-89.5 65.5v2
q41 25 67.5 65.5t26.5 92.5q0 32 -13.5 62t-37 53t-56.5 36.5t-72 13.5t-72 -13.5t-56.5 -36.5t-37 -53t-13.5 -62q0 -52 26.5 -92.5t67.5 -65.5v-2q-57 -15 -89.5 -65.5t-32.5 -117.5q0 -42 13.5 -81t40 -69t65 -48t88.5 -18zM268 430q-55 0 -81 33.5t-26 82.5
q0 45 29 75.5t78 30.5q47 0 77 -31t30 -77q0 -47 -26 -80.5t-81 -33.5z" />
    <glyph glyph-name="nine" unicode="9" 
d="M265 718q-53 0 -91.5 -21.5t-63.5 -55.5t-37 -76.5t-12 -83.5q0 -52 13.5 -94t38.5 -72t60.5 -46t79.5 -16q27 0 54.5 7t48.5 21h2q-37 -75 -72 -120.5t-61 -72t-42 -40.5t-16 -26q0 -17 9 -27.5t23 -10.5q10 0 18.5 5t19.5 15q47 44 90 97.5t76 114t52.5 127.5t19.5 138
q0 36 -11 77.5t-35.5 77t-64.5 59t-99 23.5zM271 652q33 0 56.5 -14.5t39 -37.5t23 -53t7.5 -60q0 -85 -31.5 -129.5t-96.5 -44.5q-30 0 -54 12.5t-41 35.5t-26 55t-9 71q0 41 10.5 72t28.5 51.5t42 31t51 10.5z" />
    <glyph glyph-name="colon" unicode=":" horiz-adv-x="240" 
d="M74 378q0 -19 13.5 -32.5t32.5 -13.5t32.5 13.5t13.5 32.5t-13.5 32.5t-32.5 13.5t-32.5 -13.5t-13.5 -32.5zM74 40q0 -19 13.5 -32.5t32.5 -13.5t32.5 13.5t13.5 32.5t-13.5 32.5t-32.5 13.5t-32.5 -13.5t-13.5 -32.5z" />
    <glyph glyph-name="semicolon" unicode=";" horiz-adv-x="240" 
d="M40 -61q-8 -18 -8 -30q0 -11 9 -21t26 -10q24 0 34 21l57 126q8 18 8 30q0 11 -9 21t-26 10q-24 0 -34 -21zM166 378q0 18 -14 32t-32 14t-32 -14t-14 -32t14 -32t32 -14t32 14t14 32z" />
    <glyph glyph-name="less" unicode="&#x3c;" horiz-adv-x="600" 
d="M138 253l391 191q16 8 25 17.5t9 25.5q0 10 -8 17.5t-21 7.5t-31 -9l-439 -215q-17 -8 -22 -17.5t-5 -17.5t5 -17.5t22 -17.5l439 -215q18 -9 31 -9t21 8.5t8 22.5q0 13 -7 20.5t-24 15.5z" />
    <glyph glyph-name="equal" unicode="=" horiz-adv-x="600" 
d="M85 386q-17 0 -27.5 -9.5t-10.5 -23.5t10.5 -23.5t27.5 -9.5h430q17 0 27.5 9.5t10.5 23.5t-10.5 23.5t-27.5 9.5h-430zM85 186q-17 0 -27.5 -9.5t-10.5 -23.5t10.5 -23.5t27.5 -9.5h430q17 0 27.5 9.5t10.5 23.5t-10.5 23.5t-27.5 9.5h-430z" />
    <glyph glyph-name="greater" unicode="&#x3e;" horiz-adv-x="600" 
d="M462 253l-394 -192q-17 -8 -24 -15.5t-7 -20.5q0 -14 8 -22.5t21 -8.5t31 9l439 215q17 8 22 17.5t5 17.5t-5 17.5t-22 17.5l-439 215q-18 9 -31 9t-21 -7.5t-8 -17.5q0 -16 9 -25.5t25 -17.5z" />
    <glyph glyph-name="question" unicode="?" horiz-adv-x="444" 
d="M175 246q0 -46 36 -46t36 46v106q33 8 64 21.5t54.5 36t37.5 54.5t14 78q0 39 -14.5 71.5t-41 55.5t-63 36t-80.5 13q-38 0 -72.5 -10.5t-61 -30t-42 -47t-15.5 -60.5q0 -15 8 -26.5t25 -11.5t25.5 8t13.5 33q4 20 16 34.5t28.5 24.5t36 15t38.5 5q21 0 42.5 -7t39 -21
t28.5 -35t11 -49q0 -47 -30.5 -79.5t-94.5 -45.5q-26 -5 -32.5 -13.5t-6.5 -28.5v-127zM165 40q0 -19 13.5 -32.5t32.5 -13.5t32.5 13.5t13.5 32.5t-13.5 32.5t-32.5 13.5t-32.5 -13.5t-13.5 -32.5z" />
    <glyph glyph-name="at" unicode="@" horiz-adv-x="800" 
d="M262 297q0 32 11.5 67.5t32.5 65.5t49.5 50t62.5 20q42 0 61.5 -23.5t19.5 -65.5q0 -25 -12 -60.5t-33 -67.5t-49.5 -55t-61.5 -23q-39 0 -60 25.5t-21 66.5zM530 488q-18 41 -50.5 59.5t-67.5 18.5q-51 0 -93 -24t-72 -63t-46.5 -88t-16.5 -99q0 -31 9 -59t27 -49
t44 -33t60 -12q24 0 42.5 5.5t33 14.5t25.5 20t20 23h2q12 -63 80 -63q32 0 72.5 20.5t76.5 57.5t61 88.5t25 114.5q0 66 -27.5 120.5t-74.5 94t-111 61.5t-138 22q-76 0 -144 -28t-119 -77t-80.5 -114.5t-29.5 -140.5q0 -76 29 -142.5t79 -115.5t117.5 -77.5t144.5 -28.5
q66 0 122 19t96 43.5t62.5 49.5t22.5 37q0 9 -5.5 15.5t-16.5 6.5q-9 0 -19.5 -8.5t-25 -21.5t-35 -28.5t-49 -28.5t-67 -21.5t-89.5 -8.5q-61 0 -116.5 23.5t-97.5 64.5t-67 97t-25 120t23.5 120.5t65.5 99t99.5 67t125.5 24.5q60 0 113 -17t92 -49.5t62 -78.5t23 -104
q0 -39 -13 -78.5t-35 -71.5t-50 -52t-58 -20q-13 0 -20 8t-7 22q0 11 3 24t7 25l72 229q4 11 5 15.5t1 8.5q0 11 -8 17t-21 6q-11 0 -20 -5t-15 -21z" />
    <glyph glyph-name="A" unicode="A" horiz-adv-x="612" 
d="M133 155h346l47 -128q5 -14 13 -23.5t27 -9.5q16 0 24 8.5t8 19.5q0 13 -7 30l-229 614q-3 9 -7.5 18t-10.5 16.5t-15 12.5t-23 5q-13 0 -22.5 -5t-15.5 -12.5t-10.5 -16.5t-7.5 -18l-229 -614q-7 -17 -7 -30q0 -11 8 -19.5t24 -8.5q19 0 26 9.5t14 23.5zM455 221h-298
l148 403h2z" />
    <glyph glyph-name="B" unicode="B" horiz-adv-x="537" 
d="M66 38q0 -19 10 -28.5t34 -9.5h164q59 0 101.5 17t70.5 45t41 65t13 77q0 76 -41 121.5t-115 57.5v2q46 19 73.5 52.5t27.5 96.5q0 30 -10.5 61.5t-34.5 57.5t-63.5 42.5t-97.5 16.5h-129q-24 0 -34 -9.5t-10 -28.5v-636zM138 646h107q32 0 55.5 -10t40 -26t24.5 -36.5
t8 -42.5q0 -27 -10 -49.5t-27.5 -39t-41 -26t-51.5 -9.5h-105v239zM138 347h127q74 0 118.5 -39t44.5 -102q0 -69 -43 -104.5t-119 -35.5h-128v281z" />
    <glyph glyph-name="C" unicode="C" horiz-adv-x="593" 
d="M350 718q-79 0 -137 -32t-96.5 -84t-57.5 -119t-19 -137q0 -71 19 -135t58 -112t99 -76.5t142 -28.5q49 0 90 11.5t70.5 27t46 32.5t16.5 29q0 19 -8 27.5t-22 8.5q-10 0 -23 -11t-34.5 -24t-53 -24t-78.5 -11q-64 0 -110.5 24t-76 64t-43.5 91.5t-14 106.5q0 54 15 109
t44.5 98.5t72.5 71t99 27.5q44 0 74.5 -12.5t51 -27t34.5 -27t25 -12.5t21.5 9.5t10.5 28.5q0 13 -17 31.5t-46 35t-68.5 28.5t-84.5 12z" />
    <glyph glyph-name="D" unicode="D" horiz-adv-x="630" 
d="M66 38q0 -19 10 -28.5t34 -9.5h172q65 0 121 24t97.5 69.5t65.5 110.5t24 147q0 62 -17 126.5t-53 116.5t-93.5 85t-138.5 33h-178q-24 0 -34 -9.5t-10 -28.5v-636zM138 646h144q64 0 108 -25t71 -65t39 -90.5t12 -101.5q0 -63 -12 -117t-40 -94.5t-72.5 -63.5
t-109.5 -23h-140v580z" />
    <glyph glyph-name="E" unicode="E" horiz-adv-x="444" 
d="M138 322h199q17 0 27.5 9.5t10.5 23.5t-10.5 23.5t-27.5 9.5h-198v258h207q17 0 27.5 9.5t10.5 23.5t-10.5 23.5t-27.5 9.5h-236q-24 0 -34 -9.5t-10 -28.5v-636q0 -19 10 -28.5t34 -9.5h246q17 0 27.5 9.5t10.5 23.5t-10.5 23.5t-27.5 9.5h-218v256z" />
    <glyph glyph-name="F" unicode="F" horiz-adv-x="407" 
d="M138 322h192q17 0 27.5 9.5t10.5 23.5t-10.5 23.5t-27.5 9.5h-192v258h217q17 0 27.5 9.5t10.5 23.5t-10.5 23.5t-27.5 9.5h-253q-15 -1 -25.5 -11t-10.5 -25v-636q0 -46 36 -46t36 46v282z" />
    <glyph glyph-name="G" unicode="G" horiz-adv-x="667" 
d="M444 401q-17 0 -27.5 -9.5t-10.5 -23.5t10.5 -23.5t27.5 -9.5h126q0 -54 -11.5 -103.5t-36.5 -87.5t-65.5 -61t-98.5 -23q-61 0 -106 23.5t-75 64t-44.5 94.5t-14.5 114q0 51 13.5 104t42 95.5t73.5 69.5t107 27q46 0 79 -12.5t56.5 -28t40 -28t28.5 -12.5q14 0 24.5 9
t10.5 29q0 11 -18.5 29.5t-50.5 36t-76.5 30.5t-97.5 13q-79 0 -137 -31.5t-96.5 -83t-57.5 -116.5t-19 -131q0 -69 17.5 -134t55 -115.5t97 -81.5t142.5 -31q59 0 111.5 16t92 56.5t63 108.5t23.5 171q0 11 -2.5 21t-9 17.5t-18.5 12t-31 4.5h-137z" />
    <glyph glyph-name="H" unicode="H" horiz-adv-x="667" 
d="M138 332h391v-292q0 -46 36 -46t36 46v632q0 46 -36 46t-36 -46v-274h-391v274q0 46 -36 46t-36 -46v-632q0 -46 36 -46t36 46v292z" />
    <glyph glyph-name="I" unicode="I" horiz-adv-x="204" 
d="M138 672q0 46 -36 46t-36 -46v-632q0 -46 36 -46t36 46v632z" />
    <glyph glyph-name="J" unicode="J" horiz-adv-x="352" 
d="M286 672q0 46 -36 46t-36 -46v-508q0 -23 -4 -43t-13.5 -35t-26.5 -23.5t-44 -8.5q-28 0 -45.5 6.5t-30 15t-21 15t-18.5 6.5q-12 0 -20 -8.5t-8 -23.5q0 -10 11 -22.5t30.5 -23t46.5 -18t58 -7.5q72 0 114.5 46t42.5 124v508z" />
    <glyph glyph-name="K" unicode="K" horiz-adv-x="556" 
d="M138 345l343 -327q11 -11 21 -17.5t22 -6.5q15 0 23.5 9.5t8.5 21.5q0 7 -4 15.5t-12 16.5l-336 320l312 280q11 9 13.5 16t2.5 15q0 11 -7.5 20.5t-23.5 9.5q-12 0 -22 -6.5t-22 -17.5l-319 -287v265q0 46 -36 46t-36 -46v-632q0 -46 36 -46t36 46v305z" />
    <glyph glyph-name="L" unicode="L" horiz-adv-x="370" 
d="M138 672q0 46 -36 46t-36 -46v-636q0 -15 10.5 -25.5t25.5 -10.5h224q17 0 27.5 9.5t10.5 23.5t-10.5 23.5t-27.5 9.5h-188v606z" />
    <glyph glyph-name="M" unicode="M" horiz-adv-x="834" 
d="M417 119h-2l-158 552q-14 47 -55 47q-12 0 -24 -2.5t-22 -8.5t-17 -17t-10 -28l-85 -570q-1 -7 -3 -16.5t-3.5 -19.5t-2.5 -18t-1 -11q0 -20 11.5 -26.5t22.5 -6.5q20 0 27.5 11.5t10.5 31.5l89 601h2l183 -607q5 -17 12.5 -27t23.5 -10q17 0 26 10.5t17 37.5l178 598h2
l89 -603q3 -20 10.5 -31.5t27.5 -11.5q11 0 22.5 6.5t11.5 26.5q0 3 -1 11t-2.5 18t-3.5 19.5t-3 16.5l-85 570q-3 17 -10 28t-17 17t-22 8.5t-24 2.5q-22 0 -34 -12t-19 -35z" />
    <glyph glyph-name="N" unicode="N" horiz-adv-x="666" 
d="M138 586h2l387 -566q9 -13 17 -19.5t22 -6.5q15 0 24.5 9t9.5 35v634q0 46 -36 46t-36 -46v-539h-2l-382 559q-8 11 -17.5 18.5t-24.5 7.5t-25.5 -10.5t-10.5 -31.5v-636q0 -46 36 -46t36 46v546z" />
    <glyph glyph-name="O" unicode="O" horiz-adv-x="684" 
d="M40 356q0 -68 19 -133t56.5 -116t94.5 -82t132 -31t132 31t94.5 82t56.5 116t19 133t-19 133t-56.5 116t-94.5 82t-132 31t-132 -31t-94.5 -82t-56.5 -116t-19 -133zM342 60q-63 0 -105.5 27.5t-69 70.5t-38 95.5t-11.5 102.5t11.5 102.5t38 95.5t69 70.5t105.5 27.5
t105.5 -27.5t69 -70.5t38 -95.5t11.5 -102.5t-11.5 -102.5t-38 -95.5t-69 -70.5t-105.5 -27.5z" />
    <glyph glyph-name="P" unicode="P" horiz-adv-x="519" 
d="M138 272h126q62 0 106.5 18.5t74 50t43.5 72.5t14 85q0 33 -11.5 70.5t-37.5 69.5t-68 53t-103 21h-171q-26 0 -35.5 -10t-9.5 -28v-634q0 -46 36 -46t36 46v232zM138 646h132q43 0 73 -14t49.5 -36t28.5 -49.5t9 -54.5t-9 -54.5t-28.5 -49.5t-49.5 -36t-73 -14h-132v308
z" />
    <glyph glyph-name="Q" unicode="Q" horiz-adv-x="684" 
d="M585 130q30 49 44.5 106.5t14.5 119.5q0 68 -19 133t-56.5 116t-94.5 82t-132 31t-132 -31t-94.5 -82t-56.5 -116t-19 -133t19 -133t56.5 -116t94.5 -82t132 -31q66 0 116.5 23t87.5 63l66 -70q15 -16 31 -16q11 0 21 8t10 19q0 17 -15 32zM500 128q-26 -33 -65 -53.5
t-93 -20.5q-63 0 -105.5 27.5t-69 71t-38 97.5t-11.5 106q0 53 11.5 106.5t38 97t69 71t105.5 27.5t105.5 -27.5t69 -71t38 -97t11.5 -106.5q0 -45 -7.5 -89t-24.5 -82l-49 52q-8 9 -16 12t-14 3q-15 0 -24.5 -8.5t-9.5 -20.5q0 -11 14 -27z" />
    <glyph glyph-name="R" unicode="R" horiz-adv-x="519" 
d="M138 316l285 -306q15 -16 32 -16q12 0 22 8t10 22q0 11 -3 17t-11 14l-246 263h66q43 0 78 15.5t60 42.5t38.5 63.5t13.5 79.5q0 37 -14 72t-41 62t-67 43t-93 16h-157q-26 0 -35.5 -10t-9.5 -28v-634q0 -46 36 -46t36 46v276zM138 646h125q148 0 148 -140
q0 -63 -38.5 -95.5t-109.5 -32.5h-125v268z" />
    <glyph glyph-name="S" unicode="S" horiz-adv-x="462" 
d="M216 -6q51 0 93 17t71.5 47.5t45.5 72t16 89.5q0 57 -25 92t-62.5 57.5t-81.5 37.5t-81.5 31.5t-62.5 40t-25 62.5q0 22 9.5 42t27 35.5t41 24.5t51.5 9q29 0 48.5 -8t34.5 -17t27.5 -17t26.5 -8q10 0 20 10.5t10 27.5q0 13 -14.5 26.5t-37.5 25t-52 19t-58 7.5
q-40 -1 -77.5 -13.5t-66 -35.5t-45.5 -56.5t-17 -76.5q0 -54 25 -87t62.5 -54.5t81.5 -36t81.5 -32t62.5 -43t25 -68.5q0 -28 -11.5 -56t-33 -50t-51.5 -35.5t-68 -13.5q-19 0 -39 5t-36.5 11t-28 12t-14.5 9q-6 5 -17 11t-17 6q-14 0 -24 -10.5t-10 -24.5q0 -15 14 -30
t39.5 -27t62 -20t80.5 -8z" />
    <glyph glyph-name="T" unicode="T" horiz-adv-x="426" 
d="M249 646h138q17 0 27.5 9.5t10.5 23.5t-10.5 23.5t-27.5 9.5h-348q-17 0 -27.5 -9.5t-10.5 -23.5t10.5 -23.5t27.5 -9.5h138v-606q0 -46 36 -46t36 46v606z" />
    <glyph glyph-name="U" unicode="U" horiz-adv-x="666" 
d="M66 242q0 -61 22.5 -107.5t59.5 -78t85 -47t100 -15.5t100 15.5t85 47t59.5 78t22.5 107.5v430q0 46 -36 46t-36 -46v-421q0 -49 -16.5 -85t-43.5 -59.5t-62 -35t-73 -11.5q-37 0 -72.5 11.5t-62.5 35t-43.5 59.5t-16.5 85v421q0 46 -36 46t-36 -46v-430z" />
    <glyph glyph-name="V" unicode="V" horiz-adv-x="556" 
d="M279 113h-2l-196 575q-9 30 -35 30q-17 0 -26.5 -9.5t-9.5 -24.5q0 -12 14 -50l211 -596q5 -15 14.5 -29.5t28.5 -14.5t28.5 14.5t14.5 29.5l211 596q14 38 14 50q0 15 -9.5 24.5t-26.5 9.5q-26 0 -35 -30z" />
    <glyph glyph-name="W" unicode="W" horiz-adv-x="816" 
d="M198 78h-2l-96 604q-4 22 -15 29t-24 7q-14 0 -23.5 -7.5t-9.5 -22.5q0 -3 0.5 -7t1.5 -11.5t3.5 -20.5t6.5 -35l101 -580q4 -20 20 -30t33 -10q20 0 34 9t20 31l159 571h2l155 -571q6 -22 20 -31t34 -9q17 0 33 10t20 30l105 580q5 28 8.5 48t3.5 26q0 15 -9.5 22.5
t-23.5 7.5q-13 0 -24 -7t-15 -29l-96 -604h-2l-172 606q-4 13 -12 23.5t-26 10.5t-26 -10.5t-12 -23.5z" />
    <glyph glyph-name="X" unicode="X" horiz-adv-x="594" 
d="M297 439l-174 253q-9 14 -16.5 20t-21.5 6t-24 -8.5t-10 -19.5q0 -8 3 -15t11 -18l192 -275l-231 -327q-8 -11 -11 -18t-3 -15q0 -11 10 -19.5t24 -8.5t21.5 6t16.5 20l213 304l213 -304q9 -14 16.5 -20t21.5 -6t24 8.5t10 19.5q0 8 -3 15t-11 18l-231 327l192 275
q8 11 11 18t3 15q0 11 -10 19.5t-24 8.5t-21.5 -6t-16.5 -20z" />
    <glyph glyph-name="Y" unicode="Y" horiz-adv-x="482" 
d="M241 407l-174 290q-7 12 -15.5 16.5t-20.5 4.5q-15 0 -22.5 -8.5t-7.5 -19.5q0 -7 4 -17t18 -33l182 -303v-297q0 -46 36 -46t36 46v297l182 303q14 23 18 33t4 17q0 11 -7.5 19.5t-22.5 8.5q-12 0 -20.5 -4.5t-15.5 -16.5z" />
    <glyph glyph-name="Z" unicode="Z" horiz-adv-x="556" 
d="M118 66l383 583q14 20 14 36q0 10 -7.5 18.5t-26.5 8.5h-401q-17 0 -27.5 -9.5t-10.5 -23.5t10.5 -23.5t27.5 -9.5h334l-357 -544q-15 -23 -22 -37t-7 -25q0 -17 14.5 -28.5t45.5 -11.5h402q17 0 27.5 9.5t10.5 23.5t-10.5 23.5t-27.5 9.5h-372z" />
    <glyph glyph-name="bracketleft" unicode="[" horiz-adv-x="222" 
d="M74 -22q0 -15 10.5 -25.5t25.5 -10.5h68q18 0 24.5 10.5t6.5 19.5t-6.5 19.5t-24.5 10.5h-32v656h32q18 0 24.5 10.5t6.5 19.5t-6.5 19.5t-24.5 10.5h-68q-15 0 -25.5 -10.5t-10.5 -25.5v-704z" />
    <glyph glyph-name="backslash" unicode="\" horiz-adv-x="407" 
d="M105 692q-5 13 -12.5 19.5t-21.5 6.5t-22.5 -7.5t-8.5 -18.5q0 -5 2 -12t5 -15l255 -645q5 -13 12.5 -19.5t21.5 -6.5t22.5 7.5t8.5 18.5q0 10 -7 27z" />
    <glyph glyph-name="bracketright" unicode="]" horiz-adv-x="222" 
d="M148 682q0 15 -10.5 25.5t-25.5 10.5h-68q-18 0 -24.5 -10.5t-6.5 -19.5t6.5 -19.5t24.5 -10.5h32v-656h-32q-18 0 -24.5 -10.5t-6.5 -19.5t6.5 -19.5t24.5 -10.5h68q15 0 25.5 10.5t10.5 25.5v704z" />
    <glyph glyph-name="asciicircum" unicode="^" horiz-adv-x="600" 
d="M57 316q-5 -9 -7 -15.5t-2 -12.5q0 -14 11 -20t22 -6q15 1 23.5 9.5t17.5 25.5l178 323l178 -323q9 -17 17.5 -25.5t23.5 -9.5q11 0 22 6t11 20q0 6 -2 12.5t-7 15.5l-211 380q-8 14 -15.5 18t-16.5 4t-16.5 -4t-15.5 -18z" />
    <glyph glyph-name="underscore" unicode="_" horiz-adv-x="500" 
d="M500 -125q12 0 20.5 6.5t8.5 18.5t-8.5 18.5t-20.5 6.5h-500q-12 0 -20.5 -6.5t-8.5 -18.5t8.5 -18.5t20.5 -6.5h500z" />
    <glyph glyph-name="grave" unicode="`" horiz-adv-x="204" 
d="M158 608q9 -4 15 -5t11 -1q13 0 20.5 11.5t7.5 22.5q0 8 -3.5 16.5t-24.5 16.5l-138 53q-9 4 -15 5t-11 1q-13 0 -20.5 -11.5t-7.5 -22.5q0 -8 3.5 -16.5t24.5 -16.5z" />
    <glyph glyph-name="a" unicode="a" horiz-adv-x="556" 
d="M418 459h-3q-31 40 -66.5 59.5t-82.5 19.5q-58 0 -100.5 -23.5t-70.5 -62t-42 -87.5t-14 -99q0 -56 14.5 -105.5t43 -86.5t71.5 -58.5t100 -21.5q47 0 85 20t62 59h3v-33q0 -46 36 -46t36 46v452q0 46 -36 46t-36 -46v-33zM117 266q0 36 8.5 74t26.5 68.5t46.5 50
t69.5 19.5q42 0 70.5 -19.5t46.5 -50t25.5 -68.5t7.5 -74t-7.5 -74t-25.5 -68.5t-46.5 -50t-70.5 -19.5t-71 19.5t-46.5 50t-25.5 68.5t-8 74z" />
    <glyph glyph-name="b" unicode="b" horiz-adv-x="556" 
d="M66 40q0 -46 36 -46t36 46v33h3q24 -39 62 -59t85 -20q57 0 100 21.5t71.5 58.5t43 86.5t14.5 105.5q0 50 -14 99t-42 87.5t-70.5 62t-100.5 23.5q-47 0 -82.5 -19.5t-66.5 -59.5h-3v267q0 46 -36 46t-36 -46v-686zM137 266q0 36 8 74t25.5 68.5t46.5 50t71 19.5
t71 -19.5t46.5 -50t25.5 -68.5t8 -74t-8 -74t-25.5 -68.5t-46.5 -50t-71 -19.5t-71 19.5t-46.5 50t-25.5 68.5t-8 74z" />
    <glyph glyph-name="c" unicode="c" horiz-adv-x="444" 
d="M268 60q-35 0 -63 17.5t-47.5 46.5t-30 67.5t-10.5 80.5q0 32 9.5 67t28 64.5t47 49t66.5 19.5q24 0 40.5 -4.5t27.5 -10.5t18.5 -10.5t14.5 -4.5q21 0 30.5 11.5t9.5 28.5q0 11 -11 21.5t-29.5 18t-42 12t-49.5 4.5q-57 0 -101 -23.5t-74.5 -62t-46.5 -87.5t-16 -99
t14.5 -99t43.5 -87.5t72 -62t99 -23.5q27 0 51.5 4t44 12t31 20.5t11.5 28.5q0 13 -10 21t-20 8q-7 0 -16 -4.5t-21 -9.5t-29.5 -9.5t-41.5 -4.5z" />
    <glyph glyph-name="d" unicode="d" horiz-adv-x="556" 
d="M418 459h-3q-31 40 -66.5 59.5t-82.5 19.5q-58 0 -100.5 -23.5t-70.5 -62t-42 -87.5t-14 -99q0 -56 14.5 -105.5t43 -86.5t71.5 -58.5t100 -21.5q47 0 85 20t62 59h3v-33q0 -46 36 -46t36 46v686q0 46 -36 46t-36 -46v-267zM117 266q0 36 8.5 74t26.5 68.5t46.5 50
t69.5 19.5q42 0 70.5 -19.5t46.5 -50t25.5 -68.5t7.5 -74t-7.5 -74t-25.5 -68.5t-46.5 -50t-70.5 -19.5t-71 19.5t-46.5 50t-25.5 68.5t-8 74z" />
    <glyph glyph-name="e" unicode="e" horiz-adv-x="519" 
d="M446 234q16 0 25.5 4t15 10.5t7 14.5t1.5 15q0 50 -14.5 97t-43 83t-71 58t-98.5 22t-99 -23.5t-72 -62t-43.5 -87.5t-14.5 -99t14 -99t43 -87.5t74.5 -62t109.5 -23.5q47 0 85 12t65 29.5t42 35.5t15 30q0 21 -9.5 28t-24.5 7q-13 0 -26 -13t-32.5 -28t-48 -28
t-71.5 -13q-34 0 -63 15t-49.5 40t-32.5 57.5t-13 67.5h329zM117 294q1 33 11 66t29 59.5t46.5 42.5t63.5 16t64 -16t46.5 -42.5t28.5 -59.5t11 -66h-300z" />
    <glyph glyph-name="f" unicode="f" horiz-adv-x="241" 
d="M156 472h64q18 0 24.5 10.5t6.5 19.5t-6.5 19.5t-24.5 10.5h-64v141q0 14 10.5 23.5t27.5 9.5h33q22 0 30 9.5t8 23.5t-11.5 23.5t-37.5 9.5h-37q-40 0 -67.5 -24.5t-27.5 -78.5v-137h-47q-18 0 -24.5 -10.5t-6.5 -19.5t6.5 -19.5t24.5 -10.5h47v-432q0 -46 36 -46t36 46
v432z" />
    <glyph glyph-name="g" unicode="g" horiz-adv-x="556" 
d="M418 460h-2q-23 32 -62.5 55t-87.5 23q-58 0 -100.5 -23.5t-70.5 -62t-42 -87.5t-14 -99q0 -56 14.5 -105.5t43 -86.5t71.5 -58.5t100 -21.5q48 0 86.5 20t61.5 61h2v-56q0 -45 -14 -77t-37.5 -52.5t-53.5 -30t-62 -9.5q-31 0 -56.5 10.5t-45 23t-34 23t-25.5 10.5
q-19 0 -27.5 -10.5t-8.5 -26.5q0 -14 17 -30.5t45.5 -31t65 -24.5t76.5 -10q44 0 85.5 14.5t74 44t52.5 75t20 107.5v467q0 46 -36 46t-36 -46v-32zM117 266q0 36 8 74t25.5 68.5t46.5 50t71 19.5q36 0 64.5 -14.5t47.5 -38t29 -52t10 -56.5v-102q0 -28 -10 -56.5t-29 -51.5
t-47.5 -38t-64.5 -15q-42 0 -71 19.5t-46.5 50t-25.5 68.5t-8 74z" />
    <glyph glyph-name="h" unicode="h" 
d="M138 333q0 34 11 60t29 43.5t41.5 26.5t48.5 9q60 0 95 -33t35 -89v-310q0 -46 36 -46t36 46v308q0 48 -16.5 83.5t-43.5 59t-61.5 35.5t-69.5 12q-51 0 -85 -21.5t-54 -50.5h-2v260q0 46 -36 46t-36 -46v-686q0 -46 36 -46t36 46v293z" />
    <glyph glyph-name="i" unicode="i" horiz-adv-x="204" 
d="M138 492q0 46 -36 46t-36 -46v-452q0 -46 36 -46t36 46v452zM53 669q0 -20 14.5 -34.5t34.5 -14.5t34.5 14.5t14.5 34.5t-14.5 34.5t-34.5 14.5t-34.5 -14.5t-14.5 -34.5z" />
    <glyph glyph-name="j" unicode="j" horiz-adv-x="204" 
d="M138 491q0 47 -36 47t-36 -47v-661q0 -46 36 -46t36 46v661zM53 669q0 -20 14.5 -34.5t34.5 -14.5t34.5 14.5t14.5 34.5t-14.5 34.5t-34.5 14.5t-34.5 -14.5t-14.5 -34.5z" />
    <glyph glyph-name="k" unicode="k" horiz-adv-x="444" 
d="M138 254l218 -220q22 -22 34.5 -31t29.5 -9q11 0 20 8.5t9 21.5q0 12 -6.5 22t-20.5 24l-239 233l216 167q11 8 16 16t5 21t-9 22t-21 9q-8 0 -15.5 -4.5t-21.5 -15.5l-215 -174v382q0 46 -36 46t-36 -46v-686q0 -46 36 -46t36 46v214z" />
    <glyph glyph-name="l" unicode="l" horiz-adv-x="204" 
d="M138 726q0 46 -36 46t-36 -46v-686q0 -46 36 -46t36 46v686z" />
    <glyph glyph-name="m" unicode="m" horiz-adv-x="832" 
d="M452 333q0 34 11 60t28.5 43.5t39 26.5t43.5 9q21 0 42.5 -5.5t38.5 -20.5t28 -42t11 -71v-293q0 -46 36 -46t36 46v308q0 48 -16.5 83.5t-43.5 59t-61.5 35.5t-69.5 12q-43 0 -86 -23.5t-70 -69.5q-18 44 -55.5 68.5t-84.5 24.5q-51 0 -85 -21.5t-54 -50.5h-2v26
q0 46 -36 46t-36 -46v-452q0 -46 36 -46t36 46v293q0 34 11 60t28.5 43.5t39 26.5t43.5 9q21 0 42.5 -5.5t38.5 -20.5t28 -42t11 -71v-293q0 -46 36 -46t36 46v293z" />
    <glyph glyph-name="n" unicode="n" 
d="M138 333q0 34 11 60t29 43.5t41.5 26.5t48.5 9q60 0 95 -33t35 -89v-310q0 -46 36 -46t36 46v308q0 48 -16.5 83.5t-43.5 59t-61.5 35.5t-69.5 12q-51 0 -85 -21.5t-54 -50.5h-2v26q0 46 -36 46t-36 -46v-452q0 -46 36 -46t36 46v293z" />
    <glyph glyph-name="o" unicode="o" 
d="M117 266q0 36 8 74t25.5 68.5t46.5 50t71 19.5t71 -19.5t46.5 -50t25.5 -68.5t8 -74t-8 -74t-25.5 -68.5t-46.5 -50t-71 -19.5t-71 19.5t-46.5 50t-25.5 68.5t-8 74zM497 266q0 50 -13.5 99t-42 87.5t-71.5 62t-102 23.5q-58 0 -101.5 -23.5t-71.5 -62t-42 -87.5t-14 -99
q0 -56 14.5 -105.5t43 -86.5t71.5 -58.5t100 -21.5t100 21.5t71.5 58.5t43 86.5t14.5 105.5z" />
    <glyph glyph-name="p" unicode="p" horiz-adv-x="556" 
d="M66 -170q0 -46 36 -46t36 46v243h3q31 -40 66.5 -59.5t82.5 -19.5q58 0 100.5 23.5t70.5 62t42 87.5t14 99q0 56 -14.5 105.5t-43 86.5t-71.5 58.5t-100 21.5q-47 0 -85 -20t-62 -59h-3v33q0 46 -36 46t-36 -46v-662zM137 266q0 36 8 74t25.5 68.5t46.5 50t71 19.5
t71 -19.5t46.5 -50t25.5 -68.5t8 -74t-8 -74t-25.5 -68.5t-46.5 -50t-71 -19.5t-71 19.5t-46.5 50t-25.5 68.5t-8 74z" />
    <glyph glyph-name="q" unicode="q" horiz-adv-x="556" 
d="M39 266q0 -50 14 -99t42 -87.5t70.5 -62t100.5 -23.5q47 0 82.5 19.5t66.5 59.5h3v-243q0 -46 36 -46t36 46v662q0 46 -36 46t-36 -46v-33h-3q-24 39 -62 59t-85 20q-57 0 -100 -21.5t-71.5 -58.5t-43 -86.5t-14.5 -105.5zM419 266q0 -36 -8 -74t-25.5 -68.5t-46.5 -50
t-71 -19.5t-71 19.5t-46.5 50t-25.5 68.5t-8 74t8 74t25.5 68.5t46.5 50t71 19.5t71 -19.5t46.5 -50t25.5 -68.5t8 -74z" />
    <glyph glyph-name="r" unicode="r" horiz-adv-x="315" 
d="M138 299q0 44 13 73.5t31 48t38.5 27.5t35.5 12q26 6 37.5 15t11.5 24t-11 27t-37 12q-34 0 -65.5 -25.5t-51.5 -70.5h-2v50q0 46 -36 46t-36 -46v-452q0 -46 36 -46t36 46v259z" />
    <glyph glyph-name="s" unicode="s" horiz-adv-x="444" 
d="M211 538q-30 0 -60 -9.5t-54 -27.5t-38.5 -44t-14.5 -59q0 -50 26 -76.5t67 -43.5l124 -51q15 -6 28 -13t23.5 -16.5t16.5 -22t6 -30.5q0 -38 -31.5 -64.5t-83.5 -26.5q-35 0 -60 12t-43 26t-31.5 26t-26.5 12t-23.5 -13.5t-10.5 -21.5q0 -13 13.5 -30t39 -33t61 -27
t78.5 -11q42 0 78 11t62 31t41 48.5t15 63.5q0 32 -10.5 54.5t-29 40t-42.5 30t-51 23.5l-109 44q-27 11 -38 28t-11 35q0 19 9 33t24 23.5t33.5 14t37.5 4.5q27 0 48 -9t37 -19.5t29 -19.5t23 -9q23 0 29.5 11.5t6.5 23.5q1 14 -14 28.5t-40.5 26.5t-60 19.5t-73.5 7.5z
" />
    <glyph glyph-name="t" unicode="t" horiz-adv-x="240" 
d="M156 472h47q18 0 24.5 10.5t6.5 19.5t-6.5 19.5t-24.5 10.5h-47v117q0 47 -36 47t-36 -47v-117h-47q-18 0 -24.5 -10.5t-6.5 -19.5t6.5 -19.5t24.5 -10.5h47v-432q0 -46 36 -46t36 46v432z" />
    <glyph glyph-name="u" unicode="u" 
d="M66 175q0 -43 15.5 -76.5t42.5 -57t64 -35.5t80 -12t80 12t64 35.5t42.5 57t15.5 76.5v317q0 46 -36 46t-36 -46v-299q0 -69 -34.5 -104t-95.5 -35t-95.5 35t-34.5 104v299q0 46 -36 46t-36 -46v-317z" />
    <glyph glyph-name="v" unicode="v" horiz-adv-x="426" 
d="M214 119h-2l-129 386q-5 16 -14 24.5t-24 8.5t-24 -10t-9 -23q0 -10 4 -21l160 -463q5 -16 16 -21.5t21 -5.5t21 5.5t16 21.5l160 463q4 11 4 21q0 13 -9 23t-24 10t-24 -8.5t-14 -24.5z" />
    <glyph glyph-name="w" unicode="w" horiz-adv-x="740" 
d="M206 110h-2l-124 395q-5 16 -14 24.5t-26 8.5q-16 0 -25 -10t-9 -23q0 -7 6 -27l152 -452q5 -17 18 -24.5t22 -7.5q11 0 22.5 6t17.5 26l125 400h2l121 -387q8 -27 19 -36t25 -9q7 0 19.5 5t20.5 27l152 452q6 20 6 27q0 13 -9 23t-25 10q-17 0 -26 -8.5t-14 -24.5
l-124 -395h-2l-123 395q-10 33 -41 33q-30 0 -41 -33z" />
    <glyph glyph-name="x" unicode="x" horiz-adv-x="462" 
d="M231 230l150 -211q18 -25 39 -25q14 0 23 9.5t9 23.5q0 7 -2.5 13t-10.5 17l-166 227l144 191q8 11 10.5 17t2.5 13q0 14 -9 23.5t-23 9.5q-21 0 -39 -25l-128 -175l-128 175q-18 25 -39 25q-14 0 -23 -9.5t-9 -23.5q0 -7 2.5 -13t10.5 -17l144 -191l-166 -227
q-8 -11 -10.5 -17t-2.5 -13q0 -14 9 -23.5t23 -9.5q21 0 39 25z" />
    <glyph glyph-name="y" unicode="y" horiz-adv-x="426" 
d="M179 14l-65 -171q-6 -15 -6 -29q0 -11 8 -20.5t25 -9.5q15 0 24 9t15 27l230 664q4 11 4 21q0 13 -9 23t-24 10t-24 -8.5t-14 -24.5l-129 -386h-2l-129 386q-5 16 -14 24.5t-24 8.5t-24 -10t-9 -23q0 -10 4 -21z" />
    <glyph glyph-name="z" unicode="z" horiz-adv-x="444" 
d="M388 461q8 12 12 21.5t4 22.5q0 12 -9 19.5t-31 7.5h-287q-17 0 -27.5 -9.5t-10.5 -23.5t10.5 -23.5t27.5 -9.5h234l-267 -395q-8 -12 -12 -20.5t-4 -21.5q0 -8 7.5 -18.5t34.5 -10.5h309q17 0 27.5 9.5t10.5 23.5t-10.5 23.5t-27.5 9.5h-258z" />
    <glyph glyph-name="braceleft" unicode="{" horiz-adv-x="258" 
d="M95 493q0 -70 -14 -103t-52 -33q-10 0 -17.5 -8t-7.5 -19t7.5 -19t17.5 -8q38 0 52 -33t14 -103v-117q0 -32 7 -53t20 -33t31 -17t40 -5h29q18 0 25 9.5t7 17.5t-7 17.5t-25 9.5h-21q-12 0 -19.5 7t-12 18t-6.5 24.5t-2 27.5v110q0 38 -10 64.5t-23 44t-26 26.5t-20 11v2
q7 2 20 11t26 26.5t23 44.5t10 64v110q0 14 2 27.5t6.5 24.5t12 18t19.5 7h21q18 0 25 9.5t7 17.5t-7 17.5t-25 9.5h-29q-22 0 -40 -5t-31 -17t-20 -33t-7 -53v-117z" />
    <glyph glyph-name="bar" unicode="|" horiz-adv-x="222" 
d="M78 -250q0 -17 9.5 -27.5t23.5 -10.5t23.5 10.5t9.5 27.5v1000q0 17 -9.5 27.5t-23.5 10.5t-23.5 -10.5t-9.5 -27.5v-1000z" />
    <glyph glyph-name="braceright" unicode="}" horiz-adv-x="258" 
d="M97 477q0 -37 10 -64t23 -44.5t26 -26.5t20 -11v-2q-7 -2 -20 -11t-26 -26.5t-23 -44t-10 -64.5v-110q0 -14 -1.5 -27.5t-6 -24.5t-12.5 -18t-20 -7h-21q-18 0 -25 -9.5t-7 -17.5t7 -17.5t25 -9.5h29q22 0 40 5t31 17t20 33t7 53v117q0 70 14 103t52 33q10 0 17.5 8
t7.5 19t-7.5 19t-17.5 8q-38 0 -52 33t-14 103v117q0 32 -7 53t-20 33t-31 17t-40 5h-29q-18 0 -25 -9.5t-7 -17.5t7 -17.5t25 -9.5h21q12 0 20 -7t12.5 -18t6 -24.5t1.5 -27.5v-110z" />
    <glyph glyph-name="asciitilde" unicode="~" horiz-adv-x="600" 
d="M531 295q0 17 -9.5 25t-21.5 6q-17 -1 -26 -13t-18 -26t-21 -25t-35 -11q-26 0 -48.5 12t-45.5 26t-48 25.5t-54 11.5q-28 0 -52.5 -10t-43 -26t-29 -35.5t-10.5 -38.5q0 -17 9.5 -25t21.5 -6q17 2 26 13.5t18 25.5t21.5 25t34.5 11q26 0 48.5 -11.5t45.5 -25.5t48 -26
t54 -12q28 0 52.5 10t43 26t29 35.5t10.5 38.5z" />
    <glyph glyph-name="Adieresis" horiz-adv-x="612" 
d="M133 155h346l47 -128q5 -14 13 -23.5t27 -9.5q16 0 24 8.5t8 19.5q0 13 -7 30l-229 614q-3 9 -7.5 18t-10.5 16.5t-15 12.5t-23 5q-13 0 -22.5 -5t-15.5 -12.5t-10.5 -16.5t-7.5 -18l-229 -614q-7 -17 -7 -30q0 -11 8 -19.5t24 -8.5q19 0 26 9.5t14 23.5zM455 221h-298
l148 403h2zM168 800q0 -20 14.5 -34.5t34.5 -14.5t34.5 14.5t14.5 34.5t-14.5 34.5t-34.5 14.5t-34.5 -14.5t-14.5 -34.5zM346 800q0 -20 14.5 -34.5t34.5 -14.5t34.5 14.5t14.5 34.5t-14.5 34.5t-34.5 14.5t-34.5 -14.5t-14.5 -34.5z" />
    <glyph glyph-name="Aring" horiz-adv-x="612" 
d="M133 155h346l47 -128q5 -14 13 -23.5t27 -9.5q16 0 24 8.5t8 19.5q0 13 -7 30l-229 614q-3 9 -7.5 18t-10.5 16.5t-15 12.5t-23 5q-13 0 -22.5 -5t-15.5 -12.5t-10.5 -16.5t-7.5 -18l-229 -614q-7 -17 -7 -30q0 -11 8 -19.5t24 -8.5q19 0 26 9.5t14 23.5zM455 221h-298
l148 403h2zM213 829q0 -19 7.5 -36t20 -29.5t29.5 -20t36 -7.5t36 7.5t29.5 20t20 29.5t7.5 36t-7.5 36t-20 29.5t-29.5 20t-36 7.5t-36 -7.5t-29.5 -20t-20 -29.5t-7.5 -36zM255 829q0 21 15 36t36 15t36 -15t15 -36t-15 -36t-36 -15t-36 15t-15 36z" />
    <glyph glyph-name="Ccedilla" unicode="&#x201a;" horiz-adv-x="593" 
d="M366 -5q48 1 87.5 12t68 27t44 32.5t15.5 27.5q0 19 -8 27.5t-22 8.5q-10 0 -23 -11t-34.5 -24t-53 -24t-78.5 -11q-64 0 -110.5 24t-76 64t-43.5 91.5t-14 106.5q0 54 15 109t44.5 98.5t72.5 71t99 27.5q44 0 74.5 -12.5t51 -27t34.5 -27t25 -12.5t21.5 9.5t10.5 28.5
q0 13 -17 31.5t-46 35t-68.5 28.5t-84.5 12q-79 0 -137 -32t-96.5 -84t-57.5 -119t-19 -137q0 -67 17 -128t51.5 -108t88 -77.5t125.5 -36.5l-17 -27q-7 -11 -11 -19.5t-4 -15.5q0 -8 9 -10t29 -2q17 0 30.5 -4t13.5 -22q0 -10 -6.5 -17.5t-20.5 -7.5q-15 0 -23.5 2t-14.5 4
t-11.5 4t-13.5 2q-15 0 -20.5 -7.5t-5.5 -16.5q0 -18 20 -27t55 -9q45 0 73 23t28 60q0 22 -16.5 39t-45.5 17q-13 0 -24 -3l-2 2z" />
    <glyph glyph-name="Eacute" unicode="&#x192;" horiz-adv-x="444" 
d="M138 322h199q17 0 27.5 9.5t10.5 23.5t-10.5 23.5t-27.5 9.5h-198v258h207q17 0 27.5 9.5t10.5 23.5t-10.5 23.5t-27.5 9.5h-236q-24 0 -34 -9.5t-10 -28.5v-636q0 -19 10 -28.5t34 -9.5h246q17 0 27.5 9.5t10.5 23.5t-10.5 23.5t-27.5 9.5h-218v256zM140 829
q-21 -8 -24.5 -16.5t-3.5 -16.5q0 -11 7.5 -22.5t20.5 -11.5q5 0 11 1t15 5l138 53q21 8 24.5 16.5t3.5 16.5q0 11 -7.5 22.5t-20.5 11.5q-5 0 -11 -1t-15 -5z" />
    <glyph glyph-name="Ntilde" unicode="&#x201e;" horiz-adv-x="666" 
d="M138 586h2l387 -566q9 -13 17 -19.5t22 -6.5q15 0 24.5 9t9.5 35v634q0 46 -36 46t-36 -46v-539h-2l-382 559q-8 11 -17.5 18.5t-24.5 7.5t-25.5 -10.5t-10.5 -31.5v-636q0 -46 36 -46t36 46v546zM273 800q15 0 30.5 -4t31 -9t31 -9t31.5 -4t30.5 5.5t25.5 13.5t17.5 18
t6.5 20q0 33 -29 33q-9 0 -15 -4t-11.5 -8.5t-12 -8.5t-16.5 -4q-15 0 -30.5 4t-31 9.5t-31 9.5t-31.5 4t-30.5 -5.5t-25.5 -14t-17.5 -20t-6.5 -23.5q0 -27 29 -27q9 0 15 4t11.5 8.5t12 8t16.5 3.5z" />
    <glyph glyph-name="Odieresis" unicode="&#x2026;" horiz-adv-x="684" 
d="M40 356q0 -68 19 -133t56.5 -116t94.5 -82t132 -31t132 31t94.5 82t56.5 116t19 133t-19 133t-56.5 116t-94.5 82t-132 31t-132 -31t-94.5 -82t-56.5 -116t-19 -133zM342 60q-63 0 -105.5 27.5t-69 70.5t-38 95.5t-11.5 102.5t11.5 102.5t38 95.5t69 70.5t105.5 27.5
t105.5 -27.5t69 -70.5t38 -95.5t11.5 -102.5t-11.5 -102.5t-38 -95.5t-69 -70.5t-105.5 -27.5zM204 800q0 -20 14.5 -34.5t34.5 -14.5t34.5 14.5t14.5 34.5t-14.5 34.5t-34.5 14.5t-34.5 -14.5t-14.5 -34.5zM382 800q0 -20 14.5 -34.5t34.5 -14.5t34.5 14.5t14.5 34.5
t-14.5 34.5t-34.5 14.5t-34.5 -14.5t-14.5 -34.5z" />
    <glyph glyph-name="Udieresis" unicode="&#x2020;" horiz-adv-x="666" 
d="M66 242q0 -61 22.5 -107.5t59.5 -78t85 -47t100 -15.5t100 15.5t85 47t59.5 78t22.5 107.5v430q0 46 -36 46t-36 -46v-421q0 -49 -16.5 -85t-43.5 -59.5t-62 -35t-73 -11.5q-37 0 -72.5 11.5t-62.5 35t-43.5 59.5t-16.5 85v421q0 46 -36 46t-36 -46v-430zM195 800
q0 -20 14.5 -34.5t34.5 -14.5t34.5 14.5t14.5 34.5t-14.5 34.5t-34.5 14.5t-34.5 -14.5t-14.5 -34.5zM373 800q0 -20 14.5 -34.5t34.5 -14.5t34.5 14.5t14.5 34.5t-14.5 34.5t-34.5 14.5t-34.5 -14.5t-14.5 -34.5z" />
    <glyph glyph-name="aacute" unicode="&#x2021;" horiz-adv-x="556" 
d="M418 459h-3q-31 40 -66.5 59.5t-82.5 19.5q-58 0 -100.5 -23.5t-70.5 -62t-42 -87.5t-14 -99q0 -56 14.5 -105.5t43 -86.5t71.5 -58.5t100 -21.5q47 0 85 20t62 59h3v-33q0 -46 36 -46t36 46v452q0 46 -36 46t-36 -46v-33zM117 266q0 36 8.5 74t26.5 68.5t46.5 50
t69.5 19.5q42 0 70.5 -19.5t46.5 -50t25.5 -68.5t7.5 -74t-7.5 -74t-25.5 -68.5t-46.5 -50t-70.5 -19.5t-71 19.5t-46.5 50t-25.5 68.5t-8 74zM196 669q-21 -8 -24.5 -16.5t-3.5 -16.5q0 -11 7.5 -22.5t20.5 -11.5q5 0 11 1t15 5l138 53q21 8 24.5 16.5t3.5 16.5
q0 11 -7.5 22.5t-20.5 11.5q-5 0 -11 -1t-15 -5z" />
    <glyph glyph-name="agrave" unicode="&#x2c6;" horiz-adv-x="556" 
d="M418 459h-3q-31 40 -66.5 59.5t-82.5 19.5q-58 0 -100.5 -23.5t-70.5 -62t-42 -87.5t-14 -99q0 -56 14.5 -105.5t43 -86.5t71.5 -58.5t100 -21.5q47 0 85 20t62 59h3v-33q0 -46 36 -46t36 46v452q0 46 -36 46t-36 -46v-33zM117 266q0 36 8.5 74t26.5 68.5t46.5 50
t69.5 19.5q42 0 70.5 -19.5t46.5 -50t25.5 -68.5t7.5 -74t-7.5 -74t-25.5 -68.5t-46.5 -50t-70.5 -19.5t-71 19.5t-46.5 50t-25.5 68.5t-8 74zM334 608q9 -4 15 -5t11 -1q13 0 20.5 11.5t7.5 22.5q0 8 -3.5 16.5t-24.5 16.5l-138 53q-9 4 -15 5t-11 1q-13 0 -20.5 -11.5
t-7.5 -22.5q0 -8 3.5 -16.5t24.5 -16.5z" />
    <glyph glyph-name="acircumflex" unicode="&#x2030;" horiz-adv-x="556" 
d="M418 459h-3q-31 40 -66.5 59.5t-82.5 19.5q-58 0 -100.5 -23.5t-70.5 -62t-42 -87.5t-14 -99q0 -56 14.5 -105.5t43 -86.5t71.5 -58.5t100 -21.5q47 0 85 20t62 59h3v-33q0 -46 36 -46t36 46v452q0 46 -36 46t-36 -46v-33zM117 266q0 36 8.5 74t26.5 68.5t46.5 50
t69.5 19.5q42 0 70.5 -19.5t46.5 -50t25.5 -68.5t7.5 -74t-7.5 -74t-25.5 -68.5t-46.5 -50t-70.5 -19.5t-71 19.5t-46.5 50t-25.5 68.5t-8 74zM278 714l-127 -49q-21 -8 -25 -18.5t-4 -18.5q0 -11 8 -20.5t22 -9.5q8 0 14.5 1.5t11.5 3.5l100 45l100 -45q5 -2 11.5 -3.5
t14.5 -1.5q14 0 22 9.5t8 20.5q0 8 -4 18.5t-25 18.5z" />
    <glyph glyph-name="adieresis" unicode="&#x160;" horiz-adv-x="556" 
d="M418 459h-3q-31 40 -66.5 59.5t-82.5 19.5q-58 0 -100.5 -23.5t-70.5 -62t-42 -87.5t-14 -99q0 -56 14.5 -105.5t43 -86.5t71.5 -58.5t100 -21.5q47 0 85 20t62 59h3v-33q0 -46 36 -46t36 46v452q0 46 -36 46t-36 -46v-33zM117 266q0 36 8.5 74t26.5 68.5t46.5 50
t69.5 19.5q42 0 70.5 -19.5t46.5 -50t25.5 -68.5t7.5 -74t-7.5 -74t-25.5 -68.5t-46.5 -50t-70.5 -19.5t-71 19.5t-46.5 50t-25.5 68.5t-8 74zM140 640q0 -20 14.5 -34.5t34.5 -14.5t34.5 14.5t14.5 34.5t-14.5 34.5t-34.5 14.5t-34.5 -14.5t-14.5 -34.5zM318 640
q0 -20 14.5 -34.5t34.5 -14.5t34.5 14.5t14.5 34.5t-14.5 34.5t-34.5 14.5t-34.5 -14.5t-14.5 -34.5z" />
    <glyph glyph-name="atilde" unicode="&#x2039;" horiz-adv-x="556" 
d="M418 459h-3q-31 40 -66.5 59.5t-82.5 19.5q-58 0 -100.5 -23.5t-70.5 -62t-42 -87.5t-14 -99q0 -56 14.5 -105.5t43 -86.5t71.5 -58.5t100 -21.5q47 0 85 20t62 59h3v-33q0 -46 36 -46t36 46v452q0 46 -36 46t-36 -46v-33zM117 266q0 36 8.5 74t26.5 68.5t46.5 50
t69.5 19.5q42 0 70.5 -19.5t46.5 -50t25.5 -68.5t7.5 -74t-7.5 -74t-25.5 -68.5t-46.5 -50t-70.5 -19.5t-71 19.5t-46.5 50t-25.5 68.5t-8 74zM218 640q15 0 30.5 -4t31 -9t31 -9t31.5 -4t30.5 5.5t25.5 13.5t17.5 18t6.5 20q0 33 -29 33q-9 0 -15 -4t-11.5 -8.5t-12 -8.5
t-16.5 -4q-15 0 -30.5 4t-31 9.5t-31 9.5t-31.5 4t-30.5 -5.5t-25.5 -14t-17.5 -20t-6.5 -23.5q0 -27 29 -27q9 0 15 4t11.5 8.5t12 8t16.5 3.5z" />
    <glyph glyph-name="aring" unicode="&#x152;" horiz-adv-x="556" 
d="M418 459h-3q-31 40 -66.5 59.5t-82.5 19.5q-58 0 -100.5 -23.5t-70.5 -62t-42 -87.5t-14 -99q0 -56 14.5 -105.5t43 -86.5t71.5 -58.5t100 -21.5q47 0 85 20t62 59h3v-33q0 -46 36 -46t36 46v452q0 46 -36 46t-36 -46v-33zM117 266q0 36 8.5 74t26.5 68.5t46.5 50
t69.5 19.5q42 0 70.5 -19.5t46.5 -50t25.5 -68.5t7.5 -74t-7.5 -74t-25.5 -68.5t-46.5 -50t-70.5 -19.5t-71 19.5t-46.5 50t-25.5 68.5t-8 74zM185 679q0 -19 7.5 -36t20 -29.5t29.5 -20t36 -7.5t36 7.5t29.5 20t20 29.5t7.5 36t-7.5 36t-20 29.5t-29.5 20t-36 7.5t-36 -7.5
t-29.5 -20t-20 -29.5t-7.5 -36zM227 679q0 21 15 36t36 15t36 -15t15 -36t-15 -36t-36 -15t-36 15t-15 36z" />
    <glyph glyph-name="ccedilla" horiz-adv-x="444" 
d="M292 -4q23 1 44 5.5t36.5 12.5t24.5 19t9 26q0 13 -10 21t-20 8q-7 0 -16 -4.5t-21 -9.5t-29.5 -9.5t-41.5 -4.5q-35 0 -63 17.5t-47.5 46.5t-30 67.5t-10.5 80.5q0 32 9.5 67t28 64.5t47 49t66.5 19.5q24 0 40.5 -4.5t27.5 -10.5t18.5 -10.5t14.5 -4.5q21 0 30.5 11.5
t9.5 28.5q0 11 -11 21.5t-29.5 18t-42 12t-49.5 4.5q-57 0 -101 -23.5t-74.5 -62t-46.5 -87.5t-16 -99q0 -48 13 -94.5t39.5 -84t65.5 -62.5t90 -30l-17 -26q-7 -11 -11 -19.5t-4 -15.5q0 -8 9 -10t29 -2q17 0 30.5 -4t13.5 -22q0 -10 -6.5 -17.5t-20.5 -7.5q-15 0 -23.5 2
t-14.5 4t-11.5 4t-13.5 2q-15 0 -20.5 -7.5t-5.5 -16.5q0 -18 20 -27t55 -9q45 0 73 23t28 60q0 22 -16.5 39t-45.5 17q-13 0 -24 -3l-2 2z" />
    <glyph glyph-name="eacute" horiz-adv-x="519" 
d="M446 234q16 0 25.5 4t15 10.5t7 14.5t1.5 15q0 50 -14.5 97t-43 83t-71 58t-98.5 22t-99 -23.5t-72 -62t-43.5 -87.5t-14.5 -99t14 -99t43 -87.5t74.5 -62t109.5 -23.5q47 0 85 12t65 29.5t42 35.5t15 30q0 21 -9.5 28t-24.5 7q-13 0 -26 -13t-32.5 -28t-48 -28
t-71.5 -13q-34 0 -63 15t-49.5 40t-32.5 57.5t-13 67.5h329zM117 294q1 33 11 66t29 59.5t46.5 42.5t63.5 16t64 -16t46.5 -42.5t28.5 -59.5t11 -66h-300zM178 669q-21 -8 -24.5 -16.5t-3.5 -16.5q0 -11 7.5 -22.5t20.5 -11.5q5 0 11 1t15 5l138 53q21 8 24.5 16.5t3.5 16.5
q0 11 -7.5 22.5t-20.5 11.5q-5 0 -11 -1t-15 -5z" />
    <glyph glyph-name="egrave" horiz-adv-x="519" 
d="M446 234q16 0 25.5 4t15 10.5t7 14.5t1.5 15q0 50 -14.5 97t-43 83t-71 58t-98.5 22t-99 -23.5t-72 -62t-43.5 -87.5t-14.5 -99t14 -99t43 -87.5t74.5 -62t109.5 -23.5q47 0 85 12t65 29.5t42 35.5t15 30q0 21 -9.5 28t-24.5 7q-13 0 -26 -13t-32.5 -28t-48 -28
t-71.5 -13q-34 0 -63 15t-49.5 40t-32.5 57.5t-13 67.5h329zM117 294q1 33 11 66t29 59.5t46.5 42.5t63.5 16t64 -16t46.5 -42.5t28.5 -59.5t11 -66h-300zM316 608q9 -4 15 -5t11 -1q13 0 20.5 11.5t7.5 22.5q0 8 -3.5 16.5t-24.5 16.5l-138 53q-9 4 -15 5t-11 1
q-13 0 -20.5 -11.5t-7.5 -22.5q0 -8 3.5 -16.5t24.5 -16.5z" />
    <glyph glyph-name="ecircumflex" horiz-adv-x="519" 
d="M446 234q16 0 25.5 4t15 10.5t7 14.5t1.5 15q0 50 -14.5 97t-43 83t-71 58t-98.5 22t-99 -23.5t-72 -62t-43.5 -87.5t-14.5 -99t14 -99t43 -87.5t74.5 -62t109.5 -23.5q47 0 85 12t65 29.5t42 35.5t15 30q0 21 -9.5 28t-24.5 7q-13 0 -26 -13t-32.5 -28t-48 -28
t-71.5 -13q-34 0 -63 15t-49.5 40t-32.5 57.5t-13 67.5h329zM117 294q1 33 11 66t29 59.5t46.5 42.5t63.5 16t64 -16t46.5 -42.5t28.5 -59.5t11 -66h-300zM260 714l-127 -49q-21 -8 -25 -18.5t-4 -18.5q0 -11 8 -20.5t22 -9.5q8 0 14.5 1.5t11.5 3.5l100 45l100 -45
q5 -2 11.5 -3.5t14.5 -1.5q14 0 22 9.5t8 20.5q0 8 -4 18.5t-25 18.5z" />
    <glyph glyph-name="edieresis" unicode="&#x2018;" horiz-adv-x="519" 
d="M446 234q16 0 25.5 4t15 10.5t7 14.5t1.5 15q0 50 -14.5 97t-43 83t-71 58t-98.5 22t-99 -23.5t-72 -62t-43.5 -87.5t-14.5 -99t14 -99t43 -87.5t74.5 -62t109.5 -23.5q47 0 85 12t65 29.5t42 35.5t15 30q0 21 -9.5 28t-24.5 7q-13 0 -26 -13t-32.5 -28t-48 -28
t-71.5 -13q-34 0 -63 15t-49.5 40t-32.5 57.5t-13 67.5h329zM117 294q1 33 11 66t29 59.5t46.5 42.5t63.5 16t64 -16t46.5 -42.5t28.5 -59.5t11 -66h-300zM122 640q0 -20 14.5 -34.5t34.5 -14.5t34.5 14.5t14.5 34.5t-14.5 34.5t-34.5 14.5t-34.5 -14.5t-14.5 -34.5z
M300 640q0 -20 14.5 -34.5t34.5 -14.5t34.5 14.5t14.5 34.5t-14.5 34.5t-34.5 14.5t-34.5 -14.5t-14.5 -34.5z" />
    <glyph glyph-name="iacute" unicode="&#x2019;" horiz-adv-x="204" 
d="M138 492q0 46 -36 46t-36 -46v-452q0 -46 36 -46t36 46v452zM20 669q-21 -8 -24.5 -16.5t-3.5 -16.5q0 -11 7.5 -22.5t20.5 -11.5q5 0 11 1t15 5l138 53q21 8 24.5 16.5t3.5 16.5q0 11 -7.5 22.5t-20.5 11.5q-5 0 -11 -1t-15 -5z" />
    <glyph glyph-name="igrave" unicode="&#x201c;" horiz-adv-x="204" 
d="M138 492q0 46 -36 46t-36 -46v-452q0 -46 36 -46t36 46v452zM158 608q9 -4 15 -5t11 -1q13 0 20.5 11.5t7.5 22.5q0 8 -3.5 16.5t-24.5 16.5l-138 53q-9 4 -15 5t-11 1q-13 0 -20.5 -11.5t-7.5 -22.5q0 -8 3.5 -16.5t24.5 -16.5z" />
    <glyph glyph-name="icircumflex" unicode="&#x201d;" horiz-adv-x="204" 
d="M138 492q0 46 -36 46t-36 -46v-452q0 -46 36 -46t36 46v452zM102 714l-127 -49q-21 -8 -25 -18.5t-4 -18.5q0 -11 8 -20.5t22 -9.5q8 0 14.5 1.5t11.5 3.5l100 45l100 -45q5 -2 11.5 -3.5t14.5 -1.5q14 0 22 9.5t8 20.5q0 8 -4 18.5t-25 18.5z" />
    <glyph glyph-name="idieresis" unicode="&#x2022;" horiz-adv-x="204" 
d="M138 492q0 46 -36 46t-36 -46v-452q0 -46 36 -46t36 46v452zM-36 640q0 -20 14.5 -34.5t34.5 -14.5t34.5 14.5t14.5 34.5t-14.5 34.5t-34.5 14.5t-34.5 -14.5t-14.5 -34.5zM142 640q0 -20 14.5 -34.5t34.5 -14.5t34.5 14.5t14.5 34.5t-14.5 34.5t-34.5 14.5t-34.5 -14.5
t-14.5 -34.5z" />
    <glyph glyph-name="ntilde" unicode="&#x2013;" 
d="M138 333q0 34 11 60t29 43.5t41.5 26.5t48.5 9q60 0 95 -33t35 -89v-310q0 -46 36 -46t36 46v308q0 48 -16.5 83.5t-43.5 59t-61.5 35.5t-69.5 12q-51 0 -85 -21.5t-54 -50.5h-2v26q0 46 -36 46t-36 -46v-452q0 -46 36 -46t36 46v293zM208 640q15 0 30.5 -4t31 -9t31 -9
t31.5 -4t30.5 5.5t25.5 13.5t17.5 18t6.5 20q0 33 -29 33q-9 0 -15 -4t-11.5 -8.5t-12 -8.5t-16.5 -4q-15 0 -30.5 4t-31 9.5t-31 9.5t-31.5 4t-30.5 -5.5t-25.5 -14t-17.5 -20t-6.5 -23.5q0 -27 29 -27q9 0 15 4t11.5 8.5t12 8t16.5 3.5z" />
    <glyph glyph-name="oacute" unicode="&#x2014;" 
d="M117 266q0 36 8 74t25.5 68.5t46.5 50t71 19.5t71 -19.5t46.5 -50t25.5 -68.5t8 -74t-8 -74t-25.5 -68.5t-46.5 -50t-71 -19.5t-71 19.5t-46.5 50t-25.5 68.5t-8 74zM497 266q0 50 -13.5 99t-42 87.5t-71.5 62t-102 23.5q-58 0 -101.5 -23.5t-71.5 -62t-42 -87.5t-14 -99
q0 -56 14.5 -105.5t43 -86.5t71.5 -58.5t100 -21.5t100 21.5t71.5 58.5t43 86.5t14.5 105.5zM186 669q-21 -8 -24.5 -16.5t-3.5 -16.5q0 -11 7.5 -22.5t20.5 -11.5q5 0 11 1t15 5l138 53q21 8 24.5 16.5t3.5 16.5q0 11 -7.5 22.5t-20.5 11.5q-5 0 -11 -1t-15 -5z" />
    <glyph glyph-name="ograve" unicode="&#x2dc;" 
d="M117 266q0 36 8 74t25.5 68.5t46.5 50t71 19.5t71 -19.5t46.5 -50t25.5 -68.5t8 -74t-8 -74t-25.5 -68.5t-46.5 -50t-71 -19.5t-71 19.5t-46.5 50t-25.5 68.5t-8 74zM497 266q0 50 -13.5 99t-42 87.5t-71.5 62t-102 23.5q-58 0 -101.5 -23.5t-71.5 -62t-42 -87.5t-14 -99
q0 -56 14.5 -105.5t43 -86.5t71.5 -58.5t100 -21.5t100 21.5t71.5 58.5t43 86.5t14.5 105.5zM324 608q9 -4 15 -5t11 -1q13 0 20.5 11.5t7.5 22.5q0 8 -3.5 16.5t-24.5 16.5l-138 53q-9 4 -15 5t-11 1q-13 0 -20.5 -11.5t-7.5 -22.5q0 -8 3.5 -16.5t24.5 -16.5z" />
    <glyph glyph-name="ocircumflex" unicode="&#x2122;" 
d="M117 266q0 36 8 74t25.5 68.5t46.5 50t71 19.5t71 -19.5t46.5 -50t25.5 -68.5t8 -74t-8 -74t-25.5 -68.5t-46.5 -50t-71 -19.5t-71 19.5t-46.5 50t-25.5 68.5t-8 74zM497 266q0 50 -13.5 99t-42 87.5t-71.5 62t-102 23.5q-58 0 -101.5 -23.5t-71.5 -62t-42 -87.5t-14 -99
q0 -56 14.5 -105.5t43 -86.5t71.5 -58.5t100 -21.5t100 21.5t71.5 58.5t43 86.5t14.5 105.5zM268 714l-127 -49q-21 -8 -25 -18.5t-4 -18.5q0 -11 8 -20.5t22 -9.5q8 0 14.5 1.5t11.5 3.5l100 45l100 -45q5 -2 11.5 -3.5t14.5 -1.5q14 0 22 9.5t8 20.5q0 8 -4 18.5t-25 18.5
z" />
    <glyph glyph-name="odieresis" unicode="&#x161;" 
d="M117 266q0 36 8 74t25.5 68.5t46.5 50t71 19.5t71 -19.5t46.5 -50t25.5 -68.5t8 -74t-8 -74t-25.5 -68.5t-46.5 -50t-71 -19.5t-71 19.5t-46.5 50t-25.5 68.5t-8 74zM497 266q0 50 -13.5 99t-42 87.5t-71.5 62t-102 23.5q-58 0 -101.5 -23.5t-71.5 -62t-42 -87.5t-14 -99
q0 -56 14.5 -105.5t43 -86.5t71.5 -58.5t100 -21.5t100 21.5t71.5 58.5t43 86.5t14.5 105.5zM130 640q0 -20 14.5 -34.5t34.5 -14.5t34.5 14.5t14.5 34.5t-14.5 34.5t-34.5 14.5t-34.5 -14.5t-14.5 -34.5zM308 640q0 -20 14.5 -34.5t34.5 -14.5t34.5 14.5t14.5 34.5
t-14.5 34.5t-34.5 14.5t-34.5 -14.5t-14.5 -34.5z" />
    <glyph glyph-name="otilde" unicode="&#x203a;" 
d="M117 266q0 36 8 74t25.5 68.5t46.5 50t71 19.5t71 -19.5t46.5 -50t25.5 -68.5t8 -74t-8 -74t-25.5 -68.5t-46.5 -50t-71 -19.5t-71 19.5t-46.5 50t-25.5 68.5t-8 74zM497 266q0 50 -13.5 99t-42 87.5t-71.5 62t-102 23.5q-58 0 -101.5 -23.5t-71.5 -62t-42 -87.5t-14 -99
q0 -56 14.5 -105.5t43 -86.5t71.5 -58.5t100 -21.5t100 21.5t71.5 58.5t43 86.5t14.5 105.5zM208 640q15 0 30.5 -4t31 -9t31 -9t31.5 -4t30.5 5.5t25.5 13.5t17.5 18t6.5 20q0 33 -29 33q-9 0 -15 -4t-11.5 -8.5t-12 -8.5t-16.5 -4q-15 0 -30.5 4t-31 9.5t-31 9.5t-31.5 4
t-30.5 -5.5t-25.5 -14t-17.5 -20t-6.5 -23.5q0 -27 29 -27q9 0 15 4t11.5 8.5t12 8t16.5 3.5z" />
    <glyph glyph-name="uacute" unicode="&#x153;" 
d="M66 175q0 -43 15.5 -76.5t42.5 -57t64 -35.5t80 -12t80 12t64 35.5t42.5 57t15.5 76.5v317q0 46 -36 46t-36 -46v-299q0 -69 -34.5 -104t-95.5 -35t-95.5 35t-34.5 104v299q0 46 -36 46t-36 -46v-317zM186 669q-21 -8 -24.5 -16.5t-3.5 -16.5q0 -11 7.5 -22.5t20.5 -11.5
q5 0 11 1t15 5l138 53q21 8 24.5 16.5t3.5 16.5q0 11 -7.5 22.5t-20.5 11.5q-5 0 -11 -1t-15 -5z" />
    <glyph glyph-name="ugrave" 
d="M66 175q0 -43 15.5 -76.5t42.5 -57t64 -35.5t80 -12t80 12t64 35.5t42.5 57t15.5 76.5v317q0 46 -36 46t-36 -46v-299q0 -69 -34.5 -104t-95.5 -35t-95.5 35t-34.5 104v299q0 46 -36 46t-36 -46v-317zM324 608q9 -4 15 -5t11 -1q13 0 20.5 11.5t7.5 22.5q0 8 -3.5 16.5
t-24.5 16.5l-138 53q-9 4 -15 5t-11 1q-13 0 -20.5 -11.5t-7.5 -22.5q0 -8 3.5 -16.5t24.5 -16.5z" />
    <glyph glyph-name="ucircumflex" 
d="M66 175q0 -43 15.5 -76.5t42.5 -57t64 -35.5t80 -12t80 12t64 35.5t42.5 57t15.5 76.5v317q0 46 -36 46t-36 -46v-299q0 -69 -34.5 -104t-95.5 -35t-95.5 35t-34.5 104v299q0 46 -36 46t-36 -46v-317zM268 714l-127 -49q-21 -8 -25 -18.5t-4 -18.5q0 -11 8 -20.5t22 -9.5
q8 0 14.5 1.5t11.5 3.5l100 45l100 -45q5 -2 11.5 -3.5t14.5 -1.5q14 0 22 9.5t8 20.5q0 8 -4 18.5t-25 18.5z" />
    <glyph glyph-name="udieresis" unicode="&#x178;" 
d="M66 175q0 -43 15.5 -76.5t42.5 -57t64 -35.5t80 -12t80 12t64 35.5t42.5 57t15.5 76.5v317q0 46 -36 46t-36 -46v-299q0 -69 -34.5 -104t-95.5 -35t-95.5 35t-34.5 104v299q0 46 -36 46t-36 -46v-317zM130 640q0 -20 14.5 -34.5t34.5 -14.5t34.5 14.5t14.5 34.5
t-14.5 34.5t-34.5 14.5t-34.5 -14.5t-14.5 -34.5zM308 640q0 -20 14.5 -34.5t34.5 -14.5t34.5 14.5t14.5 34.5t-14.5 34.5t-34.5 14.5t-34.5 -14.5t-14.5 -34.5z" />
    <glyph glyph-name="dagger" unicode="&#xa0;" horiz-adv-x="610" 
d="M338 391h199q23 0 34.5 9t11.5 24t-11.5 24t-34.5 9h-199v215q0 23 -9 34.5t-24 11.5t-24 -11.5t-9 -34.5v-215h-199q-23 0 -34.5 -9t-11.5 -24t11.5 -24t34.5 -9h199v-561q0 -23 9 -34.5t24 -11.5t24 11.5t9 34.5v561z" />
    <glyph glyph-name="degree" unicode="&#xa1;" horiz-adv-x="400" 
d="M57 575q0 -30 11 -56t30.5 -45.5t45.5 -30.5t56 -11t56 11t45.5 30.5t30.5 45.5t11 56t-11 56t-30.5 45.5t-45.5 30.5t-56 11t-56 -11t-45.5 -30.5t-30.5 -45.5t-11 -56zM105 575q0 20 7.5 37t20.5 30t30.5 20.5t36.5 7.5q20 0 37 -7.5t30 -20.5t20.5 -30t7.5 -37
q0 -19 -7.5 -36.5t-20.5 -30.5t-30 -20.5t-37 -7.5q-19 0 -36.5 7.5t-30.5 20.5t-20.5 30.5t-7.5 36.5z" />
    <glyph glyph-name="cent" unicode="&#xa2;" horiz-adv-x="444" 
d="M235 57q-33 8 -56 29.5t-37.5 50.5t-20.5 63t-6 67q0 32 6 66t20.5 64t37.5 52t56 29v-421zM235 -61q0 -20 18 -20t18 20v55q21 0 44.5 4.5t43 13t32.5 19t13 22.5q0 13 -6.5 21t-20.5 8q-8 0 -17 -4.5t-21 -9.5t-28.5 -9.5t-39.5 -4.5v423q19 0 34 -5t27.5 -10.5
t22.5 -10.5t20 -5q32 0 32 31q0 26 -36.5 43t-99.5 18v55q0 20 -18 20t-18 -20v-55q-49 -7 -86 -33t-62 -64t-37.5 -83.5t-12.5 -92.5q0 -46 12.5 -91t37.5 -82.5t62 -63.5t86 -33v-56z" />
    <glyph glyph-name="sterling" unicode="&#xa3;" horiz-adv-x="593" 
d="M171 66q51 52 73 95t22 89q0 22 -2.5 40.5t-8.5 38.5h102q17 0 27.5 9.5t10.5 23.5t-10.5 23.5t-27.5 9.5h-122q-14 26 -23.5 46t-15.5 35.5t-8.5 29t-2.5 26.5q0 32 10.5 54.5t28 37t41 21.5t49.5 7q67 0 105 -33.5t58 -92.5q4 -11 11 -18t21 -7q16 0 24 9.5t8 25.5
q0 26 -15 57.5t-44 59t-71 46.5t-96 19q-46 0 -84 -13t-65.5 -36t-43 -56t-15.5 -72q0 -17 3.5 -33t10 -32.5t17 -36t24.5 -44.5h-88q-17 0 -27.5 -9.5t-10.5 -23.5t10.5 -23.5t27.5 -9.5h109q7 -24 9 -42.5t2 -32.5q0 -31 -9 -57t-23 -49t-31.5 -42.5t-35.5 -36.5
q-14 -14 -17.5 -21.5t-3.5 -15.5q0 -13 9 -22.5t29 -9.5h407q17 0 27.5 9.5t10.5 23.5t-10.5 23.5t-27.5 9.5h-348z" />
    <glyph glyph-name="section" unicode="&#xa4;" horiz-adv-x="556" 
d="M218 490q-32 17 -46 38t-14 36q-1 21 9 37t27.5 27.5t40.5 17.5t49 6q59 0 93 -25t37 -57q2 -26 13.5 -36.5t25.5 -10.5t23.5 13.5t9.5 36.5q0 37 -17.5 64.5t-46 45.5t-64 26.5t-70.5 8.5q-33 0 -68.5 -8.5t-65.5 -27.5t-49 -49t-19 -74q0 -38 20 -65.5t58 -51.5
q-27 -13 -50.5 -27t-41 -32.5t-27.5 -44.5t-10 -62q0 -60 35.5 -100.5t97.5 -72.5l149 -76q24 -12 39.5 -22t24.5 -20t12.5 -22t3.5 -28q0 -24 -12 -40.5t-31 -26.5t-42 -14t-44 -4q-33 0 -57 7.5t-40.5 18.5t-24.5 25t-10 28q-2 19 -11 32t-27 13q-14 0 -27 -9.5t-13 -23.5
q0 -17 8 -43.5t31.5 -52t64.5 -43.5t107 -18q40 0 77.5 10t66 28.5t45.5 46.5t17 64q0 43 -17.5 74t-49.5 53q35 22 57 44.5t34.5 44t17 41.5t4.5 36q1 38 -10 66t-30.5 49t-45.5 37.5t-54 30.5zM182 176q-42 22 -58.5 46.5t-16.5 65.5q0 26 11.5 46t29.5 35t39 25t40 16
l152 -78q35 -19 52.5 -43.5t17.5 -63.5q0 -22 -9 -43.5t-22.5 -39.5t-30.5 -32t-34 -22z" />
    <glyph glyph-name="bullet" unicode="&#xa5;" horiz-adv-x="500" 
d="M72 356q0 -37 14 -69.5t38 -56.5t56.5 -38t69.5 -14t69.5 14t56.5 38t38 56.5t14 69.5t-14 69.5t-38 56.5t-56.5 38t-69.5 14t-69.5 -14t-56.5 -38t-38 -56.5t-14 -69.5z" />
    <glyph glyph-name="paragraph" unicode="&#xa6;" horiz-adv-x="600" 
d="M258 -178q0 -17 9.5 -27.5t23.5 -10.5t23.5 10.5t9.5 27.5v830h124v-830q0 -17 9.5 -27.5t23.5 -10.5t23.5 10.5t9.5 27.5v838q0 32 -11 42t-44 10h-183q-105 0 -166.5 -47t-61.5 -145q0 -39 15.5 -73t43.5 -59t66.5 -39.5t84.5 -14.5v-512z" />
    <glyph glyph-name="germandbls" unicode="&#xa7;" horiz-adv-x="556" 
d="M138 558q0 28 5.5 54.5t18.5 47.5t35 33.5t55 12.5q32 0 55 -12t37.5 -30.5t21 -41t6.5 -44.5q0 -35 -6.5 -58.5t-17.5 -38.5t-26 -23.5t-33 -13.5q-22 -7 -26 -14.5t-4 -18.5q0 -6 1 -11t6 -9.5t15.5 -8t29.5 -5.5q60 -7 87 -48.5t27 -103.5q0 -30 -5.5 -58.5t-19 -51
t-36 -36t-57.5 -13.5q-17 0 -26.5 -3.5t-14 -8.5t-5 -11t-0.5 -12q1 -16 15.5 -26.5t43.5 -10.5q47 0 81 20t57 51.5t34 71.5t11 79q0 32 -7 64.5t-23 60.5t-42 49.5t-64 31.5q43 28 60 68t17 90q0 41 -13.5 76t-38.5 60.5t-60.5 40.5t-79.5 15q-38 0 -72 -13t-59.5 -39
t-40 -64.5t-14.5 -89.5v-526q0 -46 36 -46t36 46v518z" />
    <glyph glyph-name="registered" unicode="&#xa8;" horiz-adv-x="800" 
d="M324 325h78l102 -167q8 -14 17 -19t18 -5q14 0 22 8t8 17q0 8 -4 15.5t-9 15.5l-88 137q20 3 38 10.5t32 21t22.5 34.5t8.5 49q0 118 -145 118h-141q-11 0 -15 -4.5t-4 -12.5v-368q0 -17 8 -29t22 -12t22 12t8 29v150zM324 512h90q18 0 35 -2.5t30.5 -10t21.5 -20.5
t8 -34q0 -25 -9 -39.5t-24.5 -22t-35.5 -9t-42 -1.5h-74v139zM38 356q0 -75 28.5 -141t77.5 -115t115 -77.5t141 -28.5t141 28.5t115 77.5t77.5 115t28.5 141t-28.5 141t-77.5 115t-115 77.5t-141 28.5t-141 -28.5t-115 -77.5t-77.5 -115t-28.5 -141zM104 356q0 63 23.5 118
t64 96t94.5 64.5t114 23.5t114 -23.5t94.5 -64.5t64 -96t23.5 -118t-23.5 -118t-64 -96t-94.5 -64.5t-114 -23.5t-114 23.5t-94.5 64.5t-64 96t-23.5 118z" />
    <glyph glyph-name="copyright" unicode="&#xa9;" horiz-adv-x="800" 
d="M257 353q0 35 9.5 64.5t27.5 51t44.5 34t59.5 12.5q30 0 49.5 -7.5t32.5 -18t21 -23.5t15 -23.5t15.5 -18t22.5 -7.5t22 7.5t8 23.5q0 13 -11.5 34.5t-34.5 42t-57.5 35.5t-80.5 15q-48 0 -87 -17t-66 -47t-41.5 -71t-14.5 -89q0 -47 15.5 -88t43.5 -71t67.5 -47.5
t88.5 -17.5q44 0 76 16t53.5 37.5t32 44.5t10.5 37q0 11 -5.5 19t-19.5 8q-18 0 -28 -16t-23.5 -35t-35 -35t-60.5 -16q-35 0 -62.5 12.5t-47 35t-29.5 52.5t-10 66zM38 356q0 -75 28.5 -141t77.5 -115t115 -77.5t141 -28.5t141 28.5t115 77.5t77.5 115t28.5 141t-28.5 141
t-77.5 115t-115 77.5t-141 28.5t-141 -28.5t-115 -77.5t-77.5 -115t-28.5 -141zM104 356q0 63 23.5 118t64 96t94.5 64.5t114 23.5t114 -23.5t94.5 -64.5t64 -96t23.5 -118t-23.5 -118t-64 -96t-94.5 -64.5t-114 -23.5t-114 23.5t-94.5 64.5t-64 96t-23.5 118z" />
    <glyph glyph-name="trademark" unicode="&#xaa;" horiz-adv-x="990" 
d="M194 338q0 -17 9.5 -27.5t23.5 -10.5t23.5 10.5t9.5 27.5v314h99q18 0 24.5 10.5t6.5 19.5t-6.5 19.5t-24.5 10.5h-264q-18 0 -24.5 -10.5t-6.5 -19.5t6.5 -19.5t24.5 -10.5h99v-314zM475 336q0 -17 9.5 -27.5t23.5 -10.5t23.5 10.5t9.5 27.5v310h2l124 -315
q8 -21 16 -27t18 -6t18 6t16 27l123 315h2v-310q0 -17 9.5 -27.5t23.5 -10.5t23.5 10.5t9.5 27.5v320q0 30 -15 46t-39 16q-19 0 -37 -10.5t-31 -42.5l-102 -265l-105 265q-13 32 -31 42.5t-37 10.5q-24 0 -39 -16t-15 -46v-320z" />
    <glyph glyph-name="acute" unicode="&#xab;" horiz-adv-x="204" 
d="M20 669q-21 -8 -24.5 -16.5t-3.5 -16.5q0 -11 7.5 -22.5t20.5 -11.5q5 0 11 1t15 5l138 53q21 8 24.5 16.5t3.5 16.5q0 11 -7.5 22.5t-20.5 11.5q-5 0 -11 -1t-15 -5z" />
    <glyph glyph-name="dieresis" unicode="&#xac;" horiz-adv-x="204" 
d="M-36 640q0 -20 14.5 -34.5t34.5 -14.5t34.5 14.5t14.5 34.5t-14.5 34.5t-34.5 14.5t-34.5 -14.5t-14.5 -34.5zM142 640q0 -20 14.5 -34.5t34.5 -14.5t34.5 14.5t14.5 34.5t-14.5 34.5t-34.5 14.5t-34.5 -14.5t-14.5 -34.5z" />
    <glyph glyph-name="AE" unicode="&#xae;" horiz-adv-x="741" 
d="M453 322h199q17 0 27.5 9.5t10.5 23.5t-10.5 23.5t-27.5 9.5h-198v258h207q17 0 27.5 9.5t10.5 23.5t-10.5 23.5t-27.5 9.5h-296q-17 0 -26 -18l-310 -623q-11 -21 -14.5 -30t-3.5 -20q0 -12 8.5 -19.5t19.5 -7.5q17 0 29 14.5t20 29.5l60 122h233v-119q0 -19 10.5 -30
t25.5 -11h254q17 0 27.5 9.5t10.5 23.5t-10.5 23.5t-27.5 9.5h-218v256zM381 220h-204l202 408h2v-408z" />
    <glyph glyph-name="Oslash" unicode="&#xaf;" horiz-adv-x="684" 
d="M526 536q21 -40 30.5 -87.5t9.5 -92.5q0 -50 -11.5 -102.5t-38 -95.5t-69 -70.5t-105.5 -27.5q-52 0 -89.5 19t-63.5 50zM156 179q-20 40 -29 86t-9 91q0 50 11.5 102.5t38 95.5t69 70.5t105.5 27.5q51 0 88 -18t63 -49zM52 52q-11 -13 -17 -22t-6 -20q0 -10 7.5 -18
t18.5 -8q10 0 16 5t13 13l60 73q36 -38 85.5 -59.5t112.5 -21.5q75 0 132 31t94.5 82t56.5 116t19 133q0 65 -17 127t-52 112l58 69q21 25 21 40q0 10 -6.5 17t-20.5 7q-9 0 -16.5 -5t-15.5 -15l-57 -69q-36 37 -85 58t-111 21q-75 0 -132 -31t-94.5 -82t-56.5 -116
t-19 -133q0 -65 17 -126t51 -110z" />
    <glyph glyph-name="plusminus" unicode="&#xb1;" horiz-adv-x="600" 
d="M267 338h-182q-17 0 -27.5 -9.5t-10.5 -23.5t10.5 -23.5t27.5 -9.5h182v-130q0 -17 9.5 -27.5t23.5 -10.5t23.5 10.5t9.5 27.5v130h182q17 0 27.5 9.5t10.5 23.5t-10.5 23.5t-27.5 9.5h-182v130q0 17 -9.5 27.5t-23.5 10.5t-23.5 -10.5t-9.5 -27.5v-130zM515 0
q17 0 27.5 9.5t10.5 23.5t-10.5 23.5t-27.5 9.5h-430q-17 0 -27.5 -9.5t-10.5 -23.5t10.5 -23.5t27.5 -9.5h430z" />
    <glyph glyph-name="yen" unicode="&#xb4;" 
d="M235 30q0 -15 10 -25.5t23 -10.5t23 10.5t10 25.5v160h141q18 0 24.5 10.5t6.5 19.5t-6.5 19.5t-24.5 10.5h-141v76h141q18 0 24.5 10.5t6.5 19.5t-6.5 19.5t-24.5 10.5h-110l151 254q14 23 18 33t4 17q0 11 -7.5 19.5t-22.5 8.5q-10 0 -18 -4.5t-15 -16.5l-174 -292
l-174 292q-7 12 -15 16.5t-18 4.5q-15 0 -22.5 -8.5t-7.5 -19.5q0 -7 4 -17t18 -33l152 -254h-111q-18 0 -24.5 -10.5t-6.5 -19.5t6.5 -19.5t24.5 -10.5h141v-76h-141q-18 0 -24.5 -10.5t-6.5 -19.5t6.5 -19.5t24.5 -10.5h141v-160z" />
    <glyph glyph-name="mu" unicode="&#xb5;" 
d="M66 -170q0 -46 36 -46t36 46v220h2q27 -29 59 -42.5t69 -13.5q38 0 71.5 9.5t58.5 26.5q0 -15 10.5 -25.5t25.5 -10.5t25.5 10.5t10.5 25.5v462q0 46 -36 46t-36 -46v-299q0 -69 -34.5 -104t-95.5 -35t-95.5 35t-34.5 104v299q0 46 -36 46t-36 -46v-662z" />
    <glyph glyph-name="ordfeminine" unicode="&#xbb;" horiz-adv-x="361" 
d="M322 690q0 12 -8 20t-22 8t-22 -8t-8 -20v-15h-2q-33 43 -93 43q-34 0 -60.5 -14t-45.5 -37t-29 -52.5t-10 -60.5q0 -30 10 -59.5t29 -52.5t45.5 -37t60.5 -14q29 0 54 13.5t39 37.5h2v-23q0 -12 8 -20t22 -8t22 8t8 20v271zM262 555q0 -53 -20.5 -84.5t-69.5 -31.5
q-22 0 -38 10.5t-26 27.5t-15 37.5t-5 40.5t4.5 40.5t14.5 37t26 27t39 10.5q49 0 69.5 -31.5t20.5 -83.5z" />
    <glyph glyph-name="ordmasculine" unicode="&#xbc;" horiz-adv-x="348" 
d="M88 555q0 20 5 40.5t15.5 37t26.5 27t39 10.5t39 -10.5t26.5 -27.5t15.5 -37.5t5 -41.5q0 -19 -5 -39.5t-15.5 -37t-26.5 -27t-39 -10.5t-39 10.5t-26.5 27.5t-15.5 37.5t-5 40.5zM22 555q0 -31 9.5 -60.5t29 -52.5t48 -37t65.5 -14q38 0 66.5 14t47.5 37t28.5 52t9.5 59
q0 31 -9.5 60.5t-28.5 53t-47.5 37.5t-66.5 14q-37 0 -65.5 -14t-48 -37t-29 -52.5t-9.5 -59.5z" />
    <glyph glyph-name="ae" unicode="&#xbe;" horiz-adv-x="889" 
d="M117 266q0 36 8.5 74t26.5 68.5t46.5 50t69.5 19.5q42 0 70.5 -19.5t46.5 -50t25.5 -68.5t7.5 -74t-7.5 -74t-25.5 -68.5t-46.5 -50t-70.5 -19.5t-71 19.5t-46.5 50t-25.5 68.5t-8 74zM418 40q0 -23 9 -34.5t24 -11.5t24 11.5t9 34.5v28h2q23 -31 64 -52.5t109 -21.5
q41 0 75.5 12t60.5 29.5t40.5 35.5t14.5 30q0 21 -9.5 28t-24.5 7q-13 0 -26 -13t-32.5 -28t-47 -28t-68.5 -13q-34 0 -63 15t-49.5 40t-32.5 57.5t-13 67.5h325q16 0 25.5 4t15 10.5t7 14.5t1.5 15q0 50 -14.5 97t-43 83t-71 58t-98.5 22q-20 0 -41.5 -6t-40 -16t-34 -23
t-23.5 -28h-8v27q0 23 -9 34.5t-24 11.5t-24 -11.5t-9 -34.5v-31h-2q-32 38 -66 57.5t-84 19.5q-58 0 -100.5 -23.5t-70.5 -62t-42 -87.5t-14 -99q0 -56 14.5 -105.5t43 -86.5t71.5 -58.5t100 -21.5q45 0 84.5 19.5t63.5 61.5h2v-35zM484 294q1 33 11 66t28.5 59.5t45 42.5
t61.5 16q36 0 64 -16t46.5 -42.5t28.5 -59.5t11 -66h-296z" />
    <glyph glyph-name="oslash" unicode="&#xbf;" 
d="M139 149q-12 28 -17 58t-5 59q0 36 8 74t25.5 68.5t46.5 50t71 19.5q33 0 57 -12t41 -32zM408 487q-26 24 -61 37.5t-79 13.5q-58 0 -101.5 -23.5t-71.5 -62t-42 -87.5t-14 -99q0 -52 12 -98.5t38 -81.5l-41 -51q-8 -10 -12.5 -18t-4.5 -16q0 -11 8 -19t18 -8q16 0 29 18
l41 51q26 -23 61.5 -36t79.5 -13q57 0 100 21.5t71.5 58.5t43 86.5t14.5 105.5q0 48 -12.5 94.5t-38.5 83.5l42 53q8 10 12.5 18t4.5 16q0 11 -8 19t-18 8q-15 0 -29 -18zM397 383q12 -26 17 -57t5 -60q0 -36 -8 -74t-25.5 -68.5t-46.5 -50t-71 -19.5q-32 0 -56.5 12
t-41.5 32z" />
    <glyph glyph-name="questiondown" unicode="&#xc0;" horiz-adv-x="444" 
d="M269 286q0 46 -36 46t-36 -46v-106q-33 -8 -64 -21.5t-54.5 -36t-37.5 -54.5t-14 -78q0 -39 14.5 -71.5t41 -55.5t63 -36t80.5 -13q38 0 72.5 10.5t61 30t42 47t15.5 60.5q0 15 -8 26.5t-25 11.5t-25.5 -8t-13.5 -33q-4 -20 -16 -34.5t-28.5 -24.5t-35.5 -15t-39 -5
q-21 0 -42.5 7t-39 21t-28.5 35t-11 49q0 47 30.5 79.5t94.5 45.5q26 5 32.5 13.5t6.5 28.5v127zM279 492q0 19 -13.5 32.5t-32.5 13.5t-32.5 -13.5t-13.5 -32.5t13.5 -32.5t32.5 -13.5t32.5 13.5t13.5 32.5z" />
    <glyph glyph-name="exclamdown" unicode="&#xc1;" horiz-adv-x="278" 
d="M185 492q0 19 -14 32.5t-32 13.5t-32 -13.5t-14 -32.5q0 -18 14 -32t32 -14t32 14t14 32zM175 284q0 46 -36 46t-36 -46v-424q0 -46 36 -46t36 46v424z" />
    <glyph glyph-name="logicalnot" unicode="&#xc2;" horiz-adv-x="600" 
d="M487 145q0 -17 9.5 -27.5t23.5 -10.5t23.5 10.5t9.5 27.5v194q0 23 -10.5 35t-39.5 12h-418q-17 0 -27.5 -9.5t-10.5 -23.5t10.5 -23.5t27.5 -9.5h402v-175z" />
    <glyph glyph-name="florin" unicode="&#xc4;" 
d="M152 488q-17 0 -29 -8t-12 -22t12 -22t29 -8h49l-66 -384q-7 -44 -17 -71t-22 -42t-26 -20t-30 -5h-26q-17 0 -27.5 -9.5t-10.5 -23.5t10.5 -23.5t27.5 -9.5h27q27 0 52.5 9.5t46.5 33.5t38 64.5t28 102.5l67 378h64q17 0 29 8t12 22t-12 22t-29 8h-53l22 122
q5 29 13.5 48t19 29.5t22.5 14.5t25 4h32q17 0 27.5 9.5t10.5 23.5t-10.5 23.5t-27.5 9.5h-41q-23 0 -45.5 -7.5t-42 -26t-34.5 -50.5t-23 -82l-20 -118h-60z" />
    <glyph glyph-name="guillemotleft" unicode="&#xc7;" horiz-adv-x="389" 
d="M282 94q8 -13 15.5 -20.5t20.5 -7.5q14 0 22 8.5t8 17.5q0 7 -1.5 12.5t-8.5 16.5l-84 145l84 145q7 11 8.5 16.5t1.5 12.5q0 9 -8 17.5t-22 8.5q-13 0 -20.5 -7.5t-15.5 -20.5l-81 -143q-11 -21 -11 -29t11 -29zM133 94q8 -13 15.5 -20.5t20.5 -7.5q14 0 22 8.5t8 17.5
q0 7 -1.5 12.5t-8.5 16.5l-84 145l84 145q7 11 8.5 16.5t1.5 12.5q0 9 -8 17.5t-22 8.5q-13 0 -20.5 -7.5t-15.5 -20.5l-81 -143q-11 -21 -11 -29t11 -29z" />
    <glyph glyph-name="guillemotright" unicode="&#xc8;" horiz-adv-x="389" 
d="M107 438q-8 13 -15.5 20.5t-20.5 7.5q-14 0 -22 -8.5t-8 -17.5q0 -7 1.5 -12.5t8.5 -16.5l84 -145l-84 -145q-7 -11 -8.5 -16.5t-1.5 -12.5q0 -9 8 -17.5t22 -8.5q13 0 20.5 7.5t15.5 20.5l81 143q11 21 11 29t-11 29zM256 438q-8 13 -15.5 20.5t-20.5 7.5
q-14 0 -22 -8.5t-8 -17.5q0 -7 1.5 -12.5t8.5 -16.5l84 -145l-84 -145q-7 -11 -8.5 -16.5t-1.5 -12.5q0 -9 8 -17.5t22 -8.5q13 0 20.5 7.5t15.5 20.5l81 143q11 21 11 29t-11 29z" />
    <glyph glyph-name="ellipsis" unicode="&#xc9;" horiz-adv-x="1000" 
d="M121 40q0 -19 13.5 -32.5t32.5 -13.5t32.5 13.5t13.5 32.5t-13.5 32.5t-32.5 13.5t-32.5 -13.5t-13.5 -32.5zM454 40q0 -19 13.5 -32.5t32.5 -13.5t32.5 13.5t13.5 32.5t-13.5 32.5t-32.5 13.5t-32.5 -13.5t-13.5 -32.5zM787 40q0 -19 13.5 -32.5t32.5 -13.5t32.5 13.5
t13.5 32.5t-13.5 32.5t-32.5 13.5t-32.5 -13.5t-13.5 -32.5z" />
    <glyph glyph-name="Agrave" unicode="&#xcb;" horiz-adv-x="612" 
d="M133 155h346l47 -128q5 -14 13 -23.5t27 -9.5q16 0 24 8.5t8 19.5q0 13 -7 30l-229 614q-3 9 -7.5 18t-10.5 16.5t-15 12.5t-23 5q-13 0 -22.5 -5t-15.5 -12.5t-10.5 -16.5t-7.5 -18l-229 -614q-7 -17 -7 -30q0 -11 8 -19.5t24 -8.5q19 0 26 9.5t14 23.5zM455 221h-298
l148 403h2zM362 768q9 -4 15 -5t11 -1q13 0 20.5 11.5t7.5 22.5q0 8 -3.5 16.5t-24.5 16.5l-138 53q-9 4 -15 5t-11 1q-13 0 -20.5 -11.5t-7.5 -22.5q0 -8 3.5 -16.5t24.5 -16.5z" />
    <glyph glyph-name="Atilde" unicode="&#xcc;" horiz-adv-x="612" 
d="M133 155h346l47 -128q5 -14 13 -23.5t27 -9.5q16 0 24 8.5t8 19.5q0 13 -7 30l-229 614q-3 9 -7.5 18t-10.5 16.5t-15 12.5t-23 5q-13 0 -22.5 -5t-15.5 -12.5t-10.5 -16.5t-7.5 -18l-229 -614q-7 -17 -7 -30q0 -11 8 -19.5t24 -8.5q19 0 26 9.5t14 23.5zM455 221h-298
l148 403h2zM246 800q15 0 30.5 -4t31 -9t31 -9t31.5 -4t30.5 5.5t25.5 13.5t17.5 18t6.5 20q0 33 -29 33q-9 0 -15 -4t-11.5 -8.5t-12 -8.5t-16.5 -4q-15 0 -30.5 4t-31 9.5t-31 9.5t-31.5 4t-30.5 -5.5t-25.5 -14t-17.5 -20t-6.5 -23.5q0 -27 29 -27q9 0 15 4t11.5 8.5
t12 8t16.5 3.5z" />
    <glyph glyph-name="Otilde" unicode="&#xcd;" horiz-adv-x="684" 
d="M40 356q0 -68 19 -133t56.5 -116t94.5 -82t132 -31t132 31t94.5 82t56.5 116t19 133t-19 133t-56.5 116t-94.5 82t-132 31t-132 -31t-94.5 -82t-56.5 -116t-19 -133zM342 60q-63 0 -105.5 27.5t-69 70.5t-38 95.5t-11.5 102.5t11.5 102.5t38 95.5t69 70.5t105.5 27.5
t105.5 -27.5t69 -70.5t38 -95.5t11.5 -102.5t-11.5 -102.5t-38 -95.5t-69 -70.5t-105.5 -27.5zM282 800q15 0 30.5 -4t31 -9t31 -9t31.5 -4t30.5 5.5t25.5 13.5t17.5 18t6.5 20q0 33 -29 33q-9 0 -15 -4t-11.5 -8.5t-12 -8.5t-16.5 -4q-15 0 -30.5 4t-31 9.5t-31 9.5
t-31.5 4t-30.5 -5.5t-25.5 -14t-17.5 -20t-6.5 -23.5q0 -27 29 -27q9 0 15 4t11.5 8.5t12 8t16.5 3.5z" />
    <glyph glyph-name="OE" unicode="&#xce;" horiz-adv-x="926" 
d="M40 356q0 -67 19 -132t56.5 -116t94.5 -82.5t132 -31.5q72 0 128 33t94 95h2v-86q0 -15 10.5 -25.5t25.5 -10.5h254q17 0 27.5 9.5t10.5 23.5t-10.5 23.5t-27.5 9.5h-218v256h199q17 0 27.5 9.5t10.5 23.5t-10.5 23.5t-27.5 9.5h-198v258h207q17 0 27.5 9.5t10.5 23.5
t-10.5 23.5t-27.5 9.5h-231q-27 0 -38 -10.5t-11 -25.5v-81h-2q-15 30 -38 52.5t-52 38.5t-62.5 24t-69.5 8q-75 0 -132 -31t-94.5 -82t-56.5 -116t-19 -133zM566 356q0 -50 -11.5 -102.5t-38 -95.5t-69 -70.5t-105.5 -27.5t-105.5 27.5t-69 70.5t-38 95.5t-11.5 102.5
t11.5 102.5t38 95.5t69 70.5t105.5 27.5t105.5 -27.5t69 -70.5t38 -95.5t11.5 -102.5z" />
    <glyph glyph-name="oe" unicode="&#xcf;" horiz-adv-x="908" 
d="M117 266q0 36 8 74t25.5 68.5t46.5 50t71 19.5t71 -19.5t46.5 -50t25.5 -68.5t8 -74t-8 -74t-25.5 -68.5t-46.5 -50t-71 -19.5t-71 19.5t-46.5 50t-25.5 68.5t-8 74zM268 538q-58 0 -101.5 -23.5t-71.5 -62t-42 -87.5t-14 -99q0 -56 14.5 -105.5t43 -86.5t71.5 -58.5
t100 -21.5q37 0 66.5 8.5t52.5 23.5t40 34.5t29 41.5q30 -53 81.5 -81.5t121.5 -26.5q41 0 75.5 12t60.5 29.5t40.5 35.5t14.5 30q0 21 -9.5 28t-24.5 7q-13 0 -26 -13t-32 -28t-46.5 -28t-68.5 -13q-34 0 -61.5 15t-47.5 40t-31 57.5t-12 67.5h318q16 0 25.5 4t15 10.5
t7 14.5t1.5 15q0 50 -14.5 97t-43 83t-71 58t-98.5 22q-54 0 -100 -31t-75 -81q-29 53 -75.5 82.5t-112.5 29.5zM491 294q1 33 10.5 66t27.5 59.5t43.5 42.5t57.5 16q36 0 64 -16t46.5 -42.5t28.5 -59.5t11 -66h-289z" />
    <glyph glyph-name="endash" unicode="&#xd0;" horiz-adv-x="500" 
d="M469 236q18 0 24.5 10.5t6.5 19.5t-6.5 19.5t-24.5 10.5h-438q-18 0 -24.5 -10.5t-6.5 -19.5t6.5 -19.5t24.5 -10.5h438z" />
    <glyph glyph-name="emdash" unicode="&#xd1;" horiz-adv-x="1000" 
d="M1000 236q18 0 24.5 10.5t6.5 19.5t-6.5 19.5t-24.5 10.5h-1000q-18 0 -24.5 -10.5t-6.5 -19.5t6.5 -19.5t24.5 -10.5h1000z" />
    <glyph glyph-name="quotedblleft" unicode="&#xd2;" horiz-adv-x="315" 
d="M34 571q-8 -18 -8 -30q0 -11 9 -21t26 -10q24 0 34 21l57 126q8 18 8 30q0 11 -9 21t-26 10q-24 0 -34 -21zM163 571q-8 -18 -8 -30q0 -11 9 -21t26 -10q24 0 34 21l57 126q8 18 8 30q0 11 -9 21t-26 10q-24 0 -34 -21z" />
    <glyph glyph-name="quotedblright" unicode="&#xd3;" horiz-adv-x="315" 
d="M34 571q-8 -18 -8 -30q0 -11 9 -21t26 -10q24 0 34 21l57 126q8 18 8 30q0 11 -9 21t-26 10q-24 0 -34 -21zM163 571q-8 -18 -8 -30q0 -11 9 -21t26 -10q24 0 34 21l57 126q8 18 8 30q0 11 -9 21t-26 10q-24 0 -34 -21z" />
    <glyph glyph-name="quoteleft" unicode="&#xd4;" horiz-adv-x="186" 
d="M34 571q-8 -18 -8 -30q0 -11 9 -21t26 -10q24 0 34 21l57 126q8 18 8 30q0 11 -9 21t-26 10q-24 0 -34 -21z" />
    <glyph glyph-name="quoteright" unicode="&#xd5;" horiz-adv-x="186" 
d="M34 571q-8 -18 -8 -30q0 -11 9 -21t26 -10q24 0 34 21l57 126q8 18 8 30q0 11 -9 21t-26 10q-24 0 -34 -21z" />
    <glyph glyph-name="divide" unicode="&#xd6;" horiz-adv-x="600" 
d="M515 220q17 0 27.5 9.5t10.5 23.5t-10.5 23.5t-27.5 9.5h-430q-17 0 -27.5 -9.5t-10.5 -23.5t10.5 -23.5t27.5 -9.5h430zM237 43q0 -26 18.5 -44.5t44.5 -18.5t44.5 18.5t18.5 44.5t-18.5 44.5t-44.5 18.5t-44.5 -18.5t-18.5 -44.5zM237 463q0 -26 18.5 -44.5t44.5 -18.5
t44.5 18.5t18.5 44.5t-18.5 44.5t-44.5 18.5t-44.5 -18.5t-18.5 -44.5z" />
    <glyph glyph-name="ydieresis" unicode="&#xd8;" horiz-adv-x="426" 
d="M179 14l-65 -171q-6 -15 -6 -29q0 -11 8 -20.5t25 -9.5q15 0 24 9t15 27l230 664q4 11 4 21q0 13 -9 23t-24 10t-24 -8.5t-14 -24.5l-129 -386h-2l-129 386q-5 16 -14 24.5t-24 8.5t-24 -10t-9 -23q0 -10 4 -21zM75 640q0 -20 14.5 -34.5t34.5 -14.5t34.5 14.5t14.5 34.5
t-14.5 34.5t-34.5 14.5t-34.5 -14.5t-14.5 -34.5zM253 640q0 -20 14.5 -34.5t34.5 -14.5t34.5 14.5t14.5 34.5t-14.5 34.5t-34.5 14.5t-34.5 -14.5t-14.5 -34.5z" />
    <glyph glyph-name="Ydieresis" unicode="&#xd9;" horiz-adv-x="482" 
d="M241 407l-174 290q-7 12 -15.5 16.5t-20.5 4.5q-15 0 -22.5 -8.5t-7.5 -19.5q0 -7 4 -17t18 -33l182 -303v-297q0 -46 36 -46t36 46v297l182 303q14 23 18 33t4 17q0 11 -7.5 19.5t-22.5 8.5q-12 0 -20.5 -4.5t-15.5 -16.5zM103 800q0 -20 14.5 -34.5t34.5 -14.5
t34.5 14.5t14.5 34.5t-14.5 34.5t-34.5 14.5t-34.5 -14.5t-14.5 -34.5zM281 800q0 -20 14.5 -34.5t34.5 -14.5t34.5 14.5t14.5 34.5t-14.5 34.5t-34.5 14.5t-34.5 -14.5t-14.5 -34.5z" />
    <glyph glyph-name="fraction" unicode="&#xda;" horiz-adv-x="166" 
d="M-72 38q-5 -11 -7 -18t-2 -13q0 -10 7.5 -16.5t20.5 -6.5t19.5 7t11.5 18l260 665q5 11 7 18t2 13q0 10 -7.5 16.5t-20.5 6.5t-19.5 -7t-11.5 -18z" />
    <glyph glyph-name="currency" unicode="&#xdb;" 
d="M39 172q-10 -10 -13 -16t-3 -14q0 -11 8 -21.5t22 -10.5q8 0 17 5.5t16 12.5l32 32q30 -26 69 -39t81 -13t81 13t69 39l32 -32q7 -7 16 -12.5t17 -5.5q14 0 22 10.5t8 21.5q0 8 -3 14t-13 16l-32 32q26 30 38.5 70t12.5 82t-12.5 82t-38.5 70l32 32q10 10 13 16t3 14
q0 11 -8 21.5t-22 10.5q-8 0 -17 -5.5t-16 -12.5l-32 -32q-30 26 -69 39t-81 13t-81 -13t-69 -39l-32 32q-7 7 -16 12.5t-17 5.5q-14 0 -22 -10.5t-8 -21.5q0 -8 3 -14t13 -16l32 -32q-26 -30 -38.5 -70t-12.5 -82t12.5 -82t38.5 -70zM86 356q0 39 14 73.5t38 60t57.5 40
t72.5 14.5t72.5 -14.5t57.5 -40t38 -60t14 -73.5t-14 -73t-38 -59.5t-57.5 -40.5t-72.5 -15t-72.5 15t-57.5 40.5t-38 59.5t-14 73z" />
    <glyph glyph-name="guilsinglleft" unicode="&#xdc;" horiz-adv-x="240" 
d="M133 94q8 -13 15.5 -20.5t20.5 -7.5q14 0 22 8.5t8 17.5q0 7 -1.5 12.5t-8.5 16.5l-84 145l84 145q7 11 8.5 16.5t1.5 12.5q0 9 -8 17.5t-22 8.5q-13 0 -20.5 -7.5t-15.5 -20.5l-81 -143q-11 -21 -11 -29t11 -29z" />
    <glyph glyph-name="guilsinglright" unicode="&#xdd;" horiz-adv-x="240" 
d="M107 438q-8 13 -15.5 20.5t-20.5 7.5q-14 0 -22 -8.5t-8 -17.5q0 -7 1.5 -12.5t8.5 -16.5l84 -145l-84 -145q-7 -11 -8.5 -16.5t-1.5 -12.5q0 -9 8 -17.5t22 -8.5q13 0 20.5 7.5t15.5 20.5l81 143q11 21 11 29t-11 29z" />
    <glyph glyph-name="fi" unicode="&#xde;" horiz-adv-x="444" 
d="M156 472h64q18 0 24.5 10.5t6.5 19.5t-6.5 19.5t-24.5 10.5h-64v141q0 14 10.5 23.5t27.5 9.5h33q22 0 30 9.5t8 23.5t-11.5 23.5t-37.5 9.5h-37q-40 0 -67.5 -24.5t-27.5 -78.5v-137h-47q-18 0 -24.5 -10.5t-6.5 -19.5t6.5 -19.5t24.5 -10.5h47v-432q0 -46 36 -46t36 46
v432zM378 492q0 46 -36 46t-36 -46v-452q0 -46 36 -46t36 46v452zM342 620q20 0 34.5 14.5t14.5 34.5t-14.5 34.5t-34.5 14.5t-34.5 -14.5t-14.5 -34.5t14.5 -34.5t34.5 -14.5z" />
    <glyph glyph-name="fl" unicode="&#xdf;" horiz-adv-x="444" 
d="M156 472h64q18 0 24.5 10.5t6.5 19.5t-6.5 19.5t-24.5 10.5h-64v141q0 14 10.5 23.5t27.5 9.5h33q22 0 30 9.5t8 23.5t-11.5 23.5t-37.5 9.5h-37q-40 0 -67.5 -24.5t-27.5 -78.5v-137h-47q-18 0 -24.5 -10.5t-6.5 -19.5t6.5 -19.5t24.5 -10.5h47v-432q0 -46 36 -46t36 46
v432zM378 726q0 46 -36 46t-36 -46v-686q0 -46 36 -46t36 46v686z" />
    <glyph glyph-name="daggerdbl" unicode="&#xe0;" horiz-adv-x="610" 
d="M272 87h-207q-17 0 -27.5 -9.5t-10.5 -23.5t10.5 -23.5t27.5 -9.5h207v-199q0 -17 9.5 -27.5t23.5 -10.5t23.5 10.5t9.5 27.5v199h207q17 0 27.5 9.5t10.5 23.5t-10.5 23.5t-27.5 9.5h-207v332h207q17 0 27.5 9.5t10.5 23.5t-10.5 23.5t-27.5 9.5h-207v199
q0 17 -9.5 27.5t-23.5 10.5t-23.5 -10.5t-9.5 -27.5v-199h-207q-17 0 -27.5 -9.5t-10.5 -23.5t10.5 -23.5t27.5 -9.5h207v-332z" />
    <glyph glyph-name="periodcentered" unicode="&#xe1;" horiz-adv-x="240" 
d="M74 319q0 -18 14 -32t32 -14t32 14t14 32t-14 32t-32 14t-32 -14t-14 -32z" />
    <glyph glyph-name="quotesinglbase" unicode="&#xe2;" horiz-adv-x="186" 
d="M34 -61q-8 -18 -8 -30q0 -11 9 -21t26 -10q24 0 34 21l57 126q8 18 8 30q0 11 -9 21t-26 10q-24 0 -34 -21z" />
    <glyph glyph-name="quotedblbase" unicode="&#xe3;" horiz-adv-x="315" 
d="M34 -61q-8 -18 -8 -30q0 -11 9 -21t26 -10q24 0 34 21l57 126q8 18 8 30q0 11 -9 21t-26 10q-24 0 -34 -21zM163 -61q-8 -18 -8 -30q0 -11 9 -21t26 -10q24 0 34 21l57 126q8 18 8 30q0 11 -9 21t-26 10q-24 0 -34 -21z" />
    <glyph glyph-name="perthousand" unicode="&#xe4;" horiz-adv-x="1093" 
d="M899 -6q31 0 59 12.5t49 34.5t33.5 53.5t12.5 68.5q0 41 -13 73.5t-34.5 55.5t-49 35.5t-57.5 12.5t-57.5 -12.5t-49 -35.5t-34.5 -55.5t-13 -73.5q0 -37 12.5 -68.5t33.5 -53.5t49 -34.5t59 -12.5zM899 42q-25 0 -42.5 11t-29 28t-17 39t-5.5 43q0 56 24.5 92.5
t69.5 36.5t69.5 -36.5t24.5 -92.5q0 -21 -5.5 -43t-17 -39t-29 -28t-42.5 -11zM194 372q31 0 59 12.5t49 34.5t33.5 53.5t12.5 68.5q0 41 -13 73.5t-34.5 55.5t-49 35.5t-57.5 12.5t-57.5 -12.5t-49 -35.5t-34.5 -55.5t-13 -73.5q0 -37 12.5 -68.5t33.5 -53.5t49 -34.5
t59 -12.5zM194 420q-25 0 -42.5 11t-29 28t-17 39t-5.5 43q0 56 24.5 92.5t69.5 36.5t69.5 -36.5t24.5 -92.5q0 -21 -5.5 -43t-17 -39t-29 -28t-42.5 -11zM547 -6q31 0 59 12.5t49 34.5t33.5 53.5t12.5 68.5q0 41 -13 73.5t-34.5 55.5t-49 35.5t-57.5 12.5t-57.5 -12.5
t-49 -35.5t-34.5 -55.5t-13 -73.5q0 -37 12.5 -68.5t33.5 -53.5t49 -34.5t59 -12.5zM547 42q-25 0 -42.5 11t-29 28t-17 39t-5.5 43q0 56 24.5 92.5t69.5 36.5t69.5 -36.5t24.5 -92.5q0 -21 -5.5 -43t-17 -39t-29 -28t-42.5 -11zM214 38q-5 -11 -7 -18t-2 -13
q0 -10 7.5 -16.5t20.5 -6.5t19.5 7t11.5 18l260 665q5 11 7 18t2 13q0 10 -7.5 16.5t-20.5 6.5t-19.5 -7t-11.5 -18z" />
    <glyph glyph-name="Acircumflex" unicode="&#xe5;" horiz-adv-x="612" 
d="M133 155h346l47 -128q5 -14 13 -23.5t27 -9.5q16 0 24 8.5t8 19.5q0 13 -7 30l-229 614q-3 9 -7.5 18t-10.5 16.5t-15 12.5t-23 5q-13 0 -22.5 -5t-15.5 -12.5t-10.5 -16.5t-7.5 -18l-229 -614q-7 -17 -7 -30q0 -11 8 -19.5t24 -8.5q19 0 26 9.5t14 23.5zM455 221h-298
l148 403h2zM306 874l-127 -49q-21 -8 -25 -18.5t-4 -18.5q0 -11 8 -20.5t22 -9.5q8 0 14.5 1.5t11.5 3.5l100 45l100 -45q5 -2 11.5 -3.5t14.5 -1.5q14 0 22 9.5t8 20.5q0 8 -4 18.5t-25 18.5z" />
    <glyph glyph-name="Ecircumflex" unicode="&#xe6;" horiz-adv-x="444" 
d="M138 322h199q17 0 27.5 9.5t10.5 23.5t-10.5 23.5t-27.5 9.5h-198v258h207q17 0 27.5 9.5t10.5 23.5t-10.5 23.5t-27.5 9.5h-236q-24 0 -34 -9.5t-10 -28.5v-636q0 -19 10 -28.5t34 -9.5h246q17 0 27.5 9.5t10.5 23.5t-10.5 23.5t-27.5 9.5h-218v256zM222 874l-127 -49
q-21 -8 -25 -18.5t-4 -18.5q0 -11 8 -20.5t22 -9.5q8 0 14.5 1.5t11.5 3.5l100 45l100 -45q5 -2 11.5 -3.5t14.5 -1.5q14 0 22 9.5t8 20.5q0 8 -4 18.5t-25 18.5z" />
    <glyph glyph-name="Aacute" unicode="&#xe7;" horiz-adv-x="612" 
d="M133 155h346l47 -128q5 -14 13 -23.5t27 -9.5q16 0 24 8.5t8 19.5q0 13 -7 30l-229 614q-3 9 -7.5 18t-10.5 16.5t-15 12.5t-23 5q-13 0 -22.5 -5t-15.5 -12.5t-10.5 -16.5t-7.5 -18l-229 -614q-7 -17 -7 -30q0 -11 8 -19.5t24 -8.5q19 0 26 9.5t14 23.5zM455 221h-298
l148 403h2zM224 829q-21 -8 -24.5 -16.5t-3.5 -16.5q0 -11 7.5 -22.5t20.5 -11.5q5 0 11 1t15 5l138 53q21 8 24.5 16.5t3.5 16.5q0 11 -7.5 22.5t-20.5 11.5q-5 0 -11 -1t-15 -5z" />
    <glyph glyph-name="Edieresis" unicode="&#xe8;" horiz-adv-x="444" 
d="M138 322h199q17 0 27.5 9.5t10.5 23.5t-10.5 23.5t-27.5 9.5h-198v258h207q17 0 27.5 9.5t10.5 23.5t-10.5 23.5t-27.5 9.5h-236q-24 0 -34 -9.5t-10 -28.5v-636q0 -19 10 -28.5t34 -9.5h246q17 0 27.5 9.5t10.5 23.5t-10.5 23.5t-27.5 9.5h-218v256zM84 800
q0 -20 14.5 -34.5t34.5 -14.5t34.5 14.5t14.5 34.5t-14.5 34.5t-34.5 14.5t-34.5 -14.5t-14.5 -34.5zM262 800q0 -20 14.5 -34.5t34.5 -14.5t34.5 14.5t14.5 34.5t-14.5 34.5t-34.5 14.5t-34.5 -14.5t-14.5 -34.5z" />
    <glyph glyph-name="Egrave" unicode="&#xe9;" horiz-adv-x="444" 
d="M138 322h199q17 0 27.5 9.5t10.5 23.5t-10.5 23.5t-27.5 9.5h-198v258h207q17 0 27.5 9.5t10.5 23.5t-10.5 23.5t-27.5 9.5h-236q-24 0 -34 -9.5t-10 -28.5v-636q0 -19 10 -28.5t34 -9.5h246q17 0 27.5 9.5t10.5 23.5t-10.5 23.5t-27.5 9.5h-218v256zM278 768q9 -4 15 -5
t11 -1q13 0 20.5 11.5t7.5 22.5q0 8 -3.5 16.5t-24.5 16.5l-138 53q-9 4 -15 5t-11 1q-13 0 -20.5 -11.5t-7.5 -22.5q0 -8 3.5 -16.5t24.5 -16.5z" />
    <glyph glyph-name="Iacute" unicode="&#xea;" horiz-adv-x="204" 
d="M138 672q0 46 -36 46t-36 -46v-632q0 -46 36 -46t36 46v632zM20 829q-21 -8 -24.5 -16.5t-3.5 -16.5q0 -11 7.5 -22.5t20.5 -11.5q5 0 11 1t15 5l138 53q21 8 24.5 16.5t3.5 16.5q0 11 -7.5 22.5t-20.5 11.5q-5 0 -11 -1t-15 -5z" />
    <glyph glyph-name="Icircumflex" unicode="&#xeb;" horiz-adv-x="204" 
d="M138 672q0 46 -36 46t-36 -46v-632q0 -46 36 -46t36 46v632zM102 874l-127 -49q-21 -8 -25 -18.5t-4 -18.5q0 -11 8 -20.5t22 -9.5q8 0 14.5 1.5t11.5 3.5l100 45l100 -45q5 -2 11.5 -3.5t14.5 -1.5q14 0 22 9.5t8 20.5q0 8 -4 18.5t-25 18.5z" />
    <glyph glyph-name="Idieresis" unicode="&#xec;" horiz-adv-x="204" 
d="M138 672q0 46 -36 46t-36 -46v-632q0 -46 36 -46t36 46v632zM-36 800q0 -20 14.5 -34.5t34.5 -14.5t34.5 14.5t14.5 34.5t-14.5 34.5t-34.5 14.5t-34.5 -14.5t-14.5 -34.5zM142 800q0 -20 14.5 -34.5t34.5 -14.5t34.5 14.5t14.5 34.5t-14.5 34.5t-34.5 14.5t-34.5 -14.5
t-14.5 -34.5z" />
    <glyph glyph-name="Igrave" unicode="&#xed;" horiz-adv-x="204" 
d="M138 672q0 46 -36 46t-36 -46v-632q0 -46 36 -46t36 46v632zM158 768q9 -4 15 -5t11 -1q13 0 20.5 11.5t7.5 22.5q0 8 -3.5 16.5t-24.5 16.5l-138 53q-9 4 -15 5t-11 1q-13 0 -20.5 -11.5t-7.5 -22.5q0 -8 3.5 -16.5t24.5 -16.5z" />
    <glyph glyph-name="Oacute" unicode="&#xee;" horiz-adv-x="684" 
d="M40 356q0 -68 19 -133t56.5 -116t94.5 -82t132 -31t132 31t94.5 82t56.5 116t19 133t-19 133t-56.5 116t-94.5 82t-132 31t-132 -31t-94.5 -82t-56.5 -116t-19 -133zM342 60q-63 0 -105.5 27.5t-69 70.5t-38 95.5t-11.5 102.5t11.5 102.5t38 95.5t69 70.5t105.5 27.5
t105.5 -27.5t69 -70.5t38 -95.5t11.5 -102.5t-11.5 -102.5t-38 -95.5t-69 -70.5t-105.5 -27.5zM260 829q-21 -8 -24.5 -16.5t-3.5 -16.5q0 -11 7.5 -22.5t20.5 -11.5q5 0 11 1t15 5l138 53q21 8 24.5 16.5t3.5 16.5q0 11 -7.5 22.5t-20.5 11.5q-5 0 -11 -1t-15 -5z" />
    <glyph glyph-name="Ocircumflex" unicode="&#xef;" horiz-adv-x="684" 
d="M40 356q0 -68 19 -133t56.5 -116t94.5 -82t132 -31t132 31t94.5 82t56.5 116t19 133t-19 133t-56.5 116t-94.5 82t-132 31t-132 -31t-94.5 -82t-56.5 -116t-19 -133zM342 60q-63 0 -105.5 27.5t-69 70.5t-38 95.5t-11.5 102.5t11.5 102.5t38 95.5t69 70.5t105.5 27.5
t105.5 -27.5t69 -70.5t38 -95.5t11.5 -102.5t-11.5 -102.5t-38 -95.5t-69 -70.5t-105.5 -27.5zM342 874l-127 -49q-21 -8 -25 -18.5t-4 -18.5q0 -11 8 -20.5t22 -9.5q8 0 14.5 1.5t11.5 3.5l100 45l100 -45q5 -2 11.5 -3.5t14.5 -1.5q14 0 22 9.5t8 20.5q0 8 -4 18.5
t-25 18.5z" />
    <glyph glyph-name="Ograve" unicode="&#xf1;" horiz-adv-x="684" 
d="M40 356q0 -68 19 -133t56.5 -116t94.5 -82t132 -31t132 31t94.5 82t56.5 116t19 133t-19 133t-56.5 116t-94.5 82t-132 31t-132 -31t-94.5 -82t-56.5 -116t-19 -133zM342 60q-63 0 -105.5 27.5t-69 70.5t-38 95.5t-11.5 102.5t11.5 102.5t38 95.5t69 70.5t105.5 27.5
t105.5 -27.5t69 -70.5t38 -95.5t11.5 -102.5t-11.5 -102.5t-38 -95.5t-69 -70.5t-105.5 -27.5zM398 768q9 -4 15 -5t11 -1q13 0 20.5 11.5t7.5 22.5q0 8 -3.5 16.5t-24.5 16.5l-138 53q-9 4 -15 5t-11 1q-13 0 -20.5 -11.5t-7.5 -22.5q0 -8 3.5 -16.5t24.5 -16.5z" />
    <glyph glyph-name="Uacute" unicode="&#xf2;" horiz-adv-x="666" 
d="M66 242q0 -61 22.5 -107.5t59.5 -78t85 -47t100 -15.5t100 15.5t85 47t59.5 78t22.5 107.5v430q0 46 -36 46t-36 -46v-421q0 -49 -16.5 -85t-43.5 -59.5t-62 -35t-73 -11.5q-37 0 -72.5 11.5t-62.5 35t-43.5 59.5t-16.5 85v421q0 46 -36 46t-36 -46v-430zM251 829
q-21 -8 -24.5 -16.5t-3.5 -16.5q0 -11 7.5 -22.5t20.5 -11.5q5 0 11 1t15 5l138 53q21 8 24.5 16.5t3.5 16.5q0 11 -7.5 22.5t-20.5 11.5q-5 0 -11 -1t-15 -5z" />
    <glyph glyph-name="Ucircumflex" unicode="&#xf3;" horiz-adv-x="666" 
d="M66 242q0 -61 22.5 -107.5t59.5 -78t85 -47t100 -15.5t100 15.5t85 47t59.5 78t22.5 107.5v430q0 46 -36 46t-36 -46v-421q0 -49 -16.5 -85t-43.5 -59.5t-62 -35t-73 -11.5q-37 0 -72.5 11.5t-62.5 35t-43.5 59.5t-16.5 85v421q0 46 -36 46t-36 -46v-430zM333 874
l-127 -49q-21 -8 -25 -18.5t-4 -18.5q0 -11 8 -20.5t22 -9.5q8 0 14.5 1.5t11.5 3.5l100 45l100 -45q5 -2 11.5 -3.5t14.5 -1.5q14 0 22 9.5t8 20.5q0 8 -4 18.5t-25 18.5z" />
    <glyph glyph-name="Ugrave" unicode="&#xf4;" horiz-adv-x="666" 
d="M66 242q0 -61 22.5 -107.5t59.5 -78t85 -47t100 -15.5t100 15.5t85 47t59.5 78t22.5 107.5v430q0 46 -36 46t-36 -46v-421q0 -49 -16.5 -85t-43.5 -59.5t-62 -35t-73 -11.5q-37 0 -72.5 11.5t-62.5 35t-43.5 59.5t-16.5 85v421q0 46 -36 46t-36 -46v-430zM389 768
q9 -4 15 -5t11 -1q13 0 20.5 11.5t7.5 22.5q0 8 -3.5 16.5t-24.5 16.5l-138 53q-9 4 -15 5t-11 1q-13 0 -20.5 -11.5t-7.5 -22.5q0 -8 3.5 -16.5t24.5 -16.5z" />
    <glyph glyph-name="dotlessi" unicode="&#xf5;" horiz-adv-x="204" 
d="M138 492q0 46 -36 46t-36 -46v-452q0 -46 36 -46t36 46v452z" />
    <glyph glyph-name="circumflex" unicode="&#xf6;" horiz-adv-x="204" 
d="M102 714l-127 -49q-21 -8 -25 -18.5t-4 -18.5q0 -11 8 -20.5t22 -9.5q8 0 14.5 1.5t11.5 3.5l100 45l100 -45q5 -2 11.5 -3.5t14.5 -1.5q14 0 22 9.5t8 20.5q0 8 -4 18.5t-25 18.5z" />
    <glyph glyph-name="tilde" unicode="&#xf7;" horiz-adv-x="204" 
d="M42 640q15 0 30.5 -4t31 -9t31 -9t31.5 -4t30.5 5.5t25.5 13.5t17.5 18t6.5 20q0 33 -29 33q-9 0 -15 -4t-11.5 -8.5t-12 -8.5t-16.5 -4q-15 0 -30.5 4t-31 9.5t-31 9.5t-31.5 4t-30.5 -5.5t-25.5 -14t-17.5 -20t-6.5 -23.5q0 -27 29 -27q9 0 15 4t11.5 8.5t12 8
t16.5 3.5z" />
    <glyph glyph-name="macron" unicode="&#xf8;" horiz-adv-x="204" 
d="M196 597q46 0 46 36t-46 36h-188q-46 0 -46 -36t46 -36h188z" />
    <glyph glyph-name="breve" unicode="&#xf9;" horiz-adv-x="204" 
d="M-32 687q0 -17 9 -33.5t26 -29t42 -20t57 -7.5t57 7.5t42 20t26 29t9 33.5q0 19 -7.5 26t-19.5 7q-15 0 -22.5 -9t-16 -19.5t-23 -19.5t-45.5 -9t-45.5 9t-23 19.5t-16 19.5t-22.5 9q-12 0 -19.5 -7t-7.5 -26z" />
    <glyph glyph-name="dotaccent" unicode="&#xfa;" horiz-adv-x="204" 
d="M53 640q0 -20 14.5 -34.5t34.5 -14.5t34.5 14.5t14.5 34.5t-14.5 34.5t-34.5 14.5t-34.5 -14.5t-14.5 -34.5z" />
    <glyph glyph-name="ring" unicode="&#xfb;" horiz-adv-x="204" 
d="M9 679q0 -19 7.5 -36t20 -29.5t29.5 -20t36 -7.5t36 7.5t29.5 20t20 29.5t7.5 36t-7.5 36t-20 29.5t-29.5 20t-36 7.5t-36 -7.5t-29.5 -20t-20 -29.5t-7.5 -36zM51 679q0 21 15 36t36 15t36 -15t15 -36t-15 -36t-36 -15t-36 15t-15 36z" />
    <glyph glyph-name="cedilla" unicode="&#xfc;" horiz-adv-x="204" 
d="M80 0l-20 -31q-7 -11 -11 -19.5t-4 -15.5q0 -8 9 -10t29 -2q17 0 30.5 -4t13.5 -22q0 -10 -6.5 -17.5t-20.5 -7.5q-15 0 -23.5 2t-14.5 4t-11.5 4t-13.5 2q-15 0 -20.5 -7.5t-5.5 -16.5q0 -18 20 -27t55 -9q45 0 73 23t28 60q0 22 -16.5 39t-45.5 17q-13 0 -24 -3l-2 2
l26 39h-45z" />
    <glyph glyph-name="hungarumlaut" unicode="&#xfd;" horiz-adv-x="204" 
d="M-80 669q-21 -8 -24.5 -16.5t-3.5 -16.5q0 -11 7.5 -22.5t20.5 -11.5q5 0 11 1t15 5l138 53q21 8 24.5 16.5t3.5 16.5q0 11 -7.5 22.5t-20.5 11.5q-5 0 -11 -1t-15 -5zM120 669q-21 -8 -24.5 -16.5t-3.5 -16.5q0 -11 7.5 -22.5t20.5 -11.5q5 0 11 1t15 5l138 53
q21 8 24.5 16.5t3.5 16.5q0 11 -7.5 22.5t-20.5 11.5q-5 0 -11 -1t-15 -5z" />
    <glyph glyph-name="ogonek" unicode="&#xfe;" horiz-adv-x="204" 
d="M77 0q-40 -20 -66 -47t-26 -65t23.5 -51.5t59.5 -13.5q42 0 64.5 11.5t22.5 28.5q0 8 -5.5 16t-19.5 8t-24 -5t-27 -5q-28 0 -28 27q0 10 6.5 22t17.5 24.5t25 25t28 24.5h-51z" />
    <glyph glyph-name="caron" unicode="&#xff;" horiz-adv-x="204" 
d="M102 598l127 49q21 8 25 18.5t4 18.5q0 11 -8 20.5t-22 9.5q-8 0 -14.5 -1.5t-11.5 -3.5l-100 -45l-100 45q-5 2 -11.5 3.5t-14.5 1.5q-14 0 -22 -9.5t-8 -20.5q0 -8 4 -18.5t25 -18.5z" />
  </font>
</defs>
</svg>
