<?xml version="1.0" encoding="UTF-8" standalone="no"?>
<!DOCTYPE svg  PUBLIC '-//W3C//DTD SVG 1.1//EN'  'http://www.w3.org/Graphics/SVG/1.1/DTD/svg11.dtd'>
<svg xmlns="http://www.w3.org/2000/svg">
<defs>
<font id="VAGRoundedStd-Light" horiz-adv-x="204">
<font-face underline-position="-50" font-weight="300" descent="-200" panose-1="2 15 5 2 2 2 4 2 2 4" units-per-em="1000" unicode-range="U+0020-25CA" bbox="-91 -293 1047 922" x-height="532" underline-thickness="50" font-family="VAG Rounded Std Light" ascent="800" cap-height="718"/>
<missing-glyph horiz-adv-x="1000"/>
<glyph glyph-name=".notdef" horiz-adv-x="1000"/>
<glyph glyph-name=".null" horiz-adv-x="0"/>
<glyph glyph-name="nonmarkingreturn" horiz-adv-x="333"/>
<glyph glyph-name="space" horiz-adv-x="250" unicode=" "/>
<glyph glyph-name="exclam" horiz-adv-x="296" unicode="!" d="M97 45q0 21 15 36t36 15t36 -15t15 -36t-15 -36t-36 -15t-36 15t-15 36zM104 238v433q0 22 12 34.5t32 12.5t32 -12.5t12 -34.5v-433q0 -22 -12 -34.5t-32 -12.5t-32 12.5t-12 34.5z"/>
<glyph glyph-name="quotedbl" horiz-adv-x="334" unicode='&quot;' d="M55 539v136q0 43 41 43t41 -43v-136q0 -43 -41 -43t-41 43zM197 539v136q0 43 41 43t41 -43v-136q0 -43 -41 -43t-41 43z"/>
<glyph glyph-name="numbersign" horiz-adv-x="536" unicode="#" d="M317 282l21 148h-119l-21 -148h119zM381 216l-26 -186q-5 -36 -38 -36q-34 0 -34 34q0 10 5 42l20 146h-119l-26 -186q-5 -36 -38 -36q-34 0 -34 34q0 10 5 42l20 146h-61q-41 0 -41 33t41 33h70l21 148h-61q-41 0 -41 33t41 33h70l26 186q5 36 38 36q34 0 34 -34 q0 -10 -5 -42l-20 -146h119l26 186q5 36 38 36q34 0 34 -34q0 -10 -5 -42l-20 -146h61q41 0 41 -33t-41 -33h-70l-21 -148h61q41 0 41 -33t-41 -33h-70z"/>
<glyph glyph-name="dollar" horiz-adv-x="481" unicode="$" d="M260 332v-257q50 10 78 48t28 92q0 45 -27.5 71.5t-78.5 45.5zM218 70v277q-28 9 -40 13.5t-37 15t-37 19t-29.5 23.5t-25.5 30.5t-14.5 38t-6.5 48.5q0 64 52.5 119.5t137.5 63.5v47q0 21 21 21t21 -21v-47q62 -5 107.5 -28.5t45.5 -54.5q0 -16 -11 -27.5t-27 -11.5 t-47.5 20.5t-67.5 25.5v-219q29 -10 41.5 -14.5t38.5 -16.5t38.5 -21t31 -25t27.5 -33.5t16 -41.5t7 -52q0 -84 -53.5 -146.5t-146.5 -74.5v-51q0 -21 -21 -21t-21 21v47q-75 0 -136 28t-61 61q0 17 9.5 29.5t25.5 12.5q14 0 36.5 -13.5t54.5 -27.5t71 -14zM218 439v203 q-43 -5 -69.5 -32.5t-26.5 -68.5q0 -38 24.5 -61t71.5 -41z"/>
<glyph glyph-name="percent" horiz-adv-x="741" unicode="%" d="M209 58l266 638q13 30 35 30q17 0 26 -8.5t9 -18.5q0 -9 -14 -45l-266 -638q-13 -30 -37 -30q-15 0 -24 8t-9 19t14 45zM547 48q44 0 65 34.5t21 80.5t-21 80.5t-65 34.5t-65 -34.5t-21 -80.5t21 -80.5t65 -34.5zM547 -6q-72 0 -112 49t-40 120t40 120t112 49t112 -49 t40 -120t-40 -120t-112 -49zM194 380q-72 0 -112 49t-40 120t40 120t112 49t112 -49t40 -120t-40 -120t-112 -49zM194 434q44 0 65 34.5t21 80.5t-21 80.5t-65 34.5t-65 -34.5t-21 -80.5t21 -80.5t65 -34.5z"/>
<glyph glyph-name="ampersand" horiz-adv-x="667" unicode="&amp;" d="M124 211q0 -59 36 -97t103 -38q46 0 84 20.5t79 70.5l-182 210q-67 -38 -93.5 -76.5t-26.5 -89.5zM204 575q0 -14 10.5 -33t21.5 -31.5t34 -38.5q94 54 94 105q0 34 -24 52.5t-57 18.5q-34 0 -56.5 -19t-22.5 -54zM318 417l159 -188l6 8q15 21 37 57t35.5 51.5t26.5 15.5 q16 0 26.5 -8t10.5 -22q0 -49 -93 -160l87 -103q18 -21 18 -38q0 -16 -10.5 -26t-25.5 -10q-21 0 -34 16l-86 99q-91 -115 -220 -115q-91 0 -155 56t-64 151q0 84 37.5 133t121.5 100q-79 81 -79 139q0 74 48 109.5t126 35.5q64 0 110 -36t46 -90q0 -62 -34.5 -102 t-93.5 -73z"/>
<glyph glyph-name="quotesingle" d="M61 539v136q0 43 41 43t41 -43v-136q0 -43 -41 -43t-41 43z" unicode="&apos;"/>
<glyph glyph-name="parenleft" horiz-adv-x="241" unicode="(" d="M65 318q0 219 58 373q17 45 44 45q17 0 26 -8.5t9 -20.5q0 -9 -14 -53q-41 -129 -41 -336t41 -336q14 -44 14 -53q0 -12 -9 -20.5t-26 -8.5q-27 0 -44 45q-58 154 -58 373z"/>
<glyph glyph-name="parenright" horiz-adv-x="241" unicode=")" d="M176 318q0 -219 -58 -373q-17 -45 -44 -45q-17 0 -26 8.5t-9 20.5q0 9 14 53q41 129 41 336t-41 336q-14 44 -14 53q0 12 9 20.5t26 8.5q27 0 44 -45q58 -154 58 -373z"/>
<glyph glyph-name="asterisk" horiz-adv-x="390" unicode="*" d="M150 541l-89 37q-23 10 -23 32q0 14 10 24t25 10q11 0 25.5 -9t37 -28t34.5 -28q0 19 -5.5 55.5t-5.5 48.5q0 15 9.5 25t26.5 10t26.5 -10t9.5 -25q0 -12 -5.5 -48.5t-5.5 -55.5q12 9 34.5 28t37 28t25.5 9q15 0 25 -10t10 -24q0 -22 -23 -32l-89 -37l89 -37 q23 -10 23 -32q0 -14 -10 -24t-25 -10q-11 0 -25.5 9t-37 28t-34.5 28q0 -19 5.5 -55.5t5.5 -48.5q0 -15 -9.5 -25t-26.5 -10t-26.5 10t-9.5 25q0 12 5.5 48.5t5.5 55.5q-12 -9 -34.5 -28t-37 -28t-25.5 -9q-15 0 -25 10t-10 24q0 22 23 32z"/>
<glyph glyph-name="plus" horiz-adv-x="600" unicode="+" d="M259 294v169q0 43 41 43t41 -43v-169h169q43 0 43 -41t-43 -41h-169v-169q0 -43 -41 -43t-41 43v169h-169q-43 0 -43 41t43 41h169z"/>
<glyph glyph-name="comma" horiz-adv-x="250" unicode="," d="M33 -51l56 110q19 37 47 37q16 0 28 -11t12 -27q0 -15 -11 -37l-56 -110q-19 -37 -47 -37q-16 0 -28 11t-12 27q0 15 11 37z"/>
<glyph glyph-name="hyphen" horiz-adv-x="352" unicode="-" d="M279 230h-206q-16 0 -27 11t-11 27t11 27t27 11h206q16 0 27 -11t11 -27t-11 -27t-27 -11z"/>
<glyph glyph-name="period" horiz-adv-x="250" unicode="." d="M74 45q0 21 15 36t36 15t36 -15t15 -36t-15 -36t-36 -15t-36 15t-15 36z"/>
<glyph glyph-name="slash" horiz-adv-x="407" unicode="/" d="M34 75l273 613q13 30 41 30q17 0 28 -10t11 -27q0 -13 -14 -44l-273 -613q-13 -30 -41 -30q-17 0 -28 10t-11 27q0 13 14 44z"/>
<glyph glyph-name="zero" horiz-adv-x="536" unicode="0" d="M127 356q0 -142 39.5 -214t101.5 -72t101.5 72t39.5 214t-39.5 214t-101.5 72t-101.5 -72t-39.5 -214zM33 356q0 167 67 264.5t168 97.5t168 -97.5t67 -264.5t-67 -264.5t-168 -97.5t-168 97.5t-67 264.5z"/>
<glyph glyph-name="one" horiz-adv-x="352" unicode="1" d="M164 41v595h-92q-16 0 -27 11t-11 27t11 27t27 11h153q15 0 21 -4.5t6 -19.5v-647q0 -22 -12 -34.5t-32 -12.5t-32 12.5t-12 34.5z"/>
<glyph glyph-name="two" horiz-adv-x="536" unicode="2" d="M182 76h270q16 0 27 -11t11 -27t-11 -27t-27 -11h-345q-25 0 -36.5 11t-11.5 25q0 13 19 40l246 329q52 68 52 126q0 48 -32.5 79.5t-80.5 31.5q-61 0 -95.5 -45.5t-34.5 -115.5q0 -40 -39 -40q-43 0 -43 54q0 93 60.5 158t166.5 65q85 0 138.5 -52.5t53.5 -124.5 q0 -83 -49 -147z"/>
<glyph glyph-name="three" horiz-adv-x="536" unicode="3" d="M476 210q0 -99 -64.5 -157.5t-162.5 -58.5q-52 0 -94.5 18t-66 44.5t-35.5 53t-12 48.5q0 23 10.5 36t26.5 13q34 0 49 -46q30 -91 120 -91q59 0 97 38t38 94q0 133 -124 133q-54 0 -54 38q0 28 46 38q53 12 76.5 39t23.5 76q0 51 -28 83.5t-73 32.5q-91 0 -101 -104 q-3 -41 -42 -41q-18 0 -29 11.5t-11 29.5q0 75 51 127.5t136 52.5q83 0 134 -53.5t51 -130.5q0 -46 -21.5 -86t-62.5 -65q59 -18 90.5 -64.5t31.5 -108.5z"/>
<glyph glyph-name="four" horiz-adv-x="536" unicode="4" d="M122 259h212v365h-2zM334 183h-284q-38 0 -38 31q0 15 22 51l252 413q24 40 69 40q67 0 67 -73v-386h45q16 0 27 -11t11 -27t-11 -27t-27 -11h-45v-142q0 -22 -12 -34.5t-32 -12.5t-32 12.5t-12 34.5v142z"/>
<glyph glyph-name="five" horiz-adv-x="536" unicode="5" d="M228 636l-29 -193q39 20 94 20q80 0 131 -64.5t51 -151.5q0 -116 -62 -184.5t-169 -68.5q-82 0 -141 40.5t-59 77.5q0 15 8.5 26.5t23.5 11.5q13 0 35 -18.5t56 -37t78 -18.5q62 0 99 44.5t37 109.5q0 67 -31 109t-92 42q-38 0 -76 -13.5t-45 -13.5q-30 0 -30 27 q0 8 7 59l37 249q4 23 33 23h247q16 0 27 -11t11 -27t-11 -27t-27 -11h-203z"/>
<glyph glyph-name="six" horiz-adv-x="536" unicode="6" d="M140 230q0 -67 31.5 -110.5t93.5 -43.5t93.5 43.5t31.5 110.5q0 154 -125 154q-62 0 -93.5 -44t-31.5 -110zM266 -6q-93 0 -153.5 69.5t-60.5 175.5q0 74 22.5 145.5t61.5 129.5t78.5 102t85.5 82q24 20 41 20q12 0 24 -11t12 -30q0 -16 -35 -47q-46 -41 -80.5 -84.5 t-72.5 -113.5h2q54 28 113 28q83 0 131.5 -68t48.5 -166t-62 -165t-156 -67z"/>
<glyph glyph-name="seven" horiz-adv-x="500" unicode="7" d="M366 636h-300q-16 0 -27 11t-11 27t11 27t27 11h361q45 0 45 -28q0 -14 -17 -53l-266 -605q-14 -32 -53 -32q-11 0 -22 9t-11 25q0 14 14 47l249 559v2z"/>
<glyph glyph-name="eight" horiz-adv-x="536" unicode="8" d="M144 215q0 -66 36 -105.5t88 -39.5t88 39.5t36 105.5q0 59 -33 100.5t-91 41.5t-91 -41.5t-33 -100.5zM168 538q0 -47 27 -76t73 -29t73 29t27 76q0 46 -27 75t-73 29t-73 -29t-27 -75zM86 555q0 77 54.5 120t127.5 43t127.5 -43t54.5 -120q0 -56 -22 -91.5t-71 -66.5 q60 -14 94.5 -63.5t34.5 -114.5q0 -92 -59 -158.5t-159 -66.5t-159 66.5t-59 158.5q0 65 34.5 114.5t94.5 63.5q-49 31 -71 66.5t-22 91.5z"/>
<glyph glyph-name="nine" horiz-adv-x="536" unicode="9" d="M396 482q0 67 -31.5 110.5t-93.5 43.5t-93.5 -43.5t-31.5 -110.5q0 -154 125 -154q62 0 93.5 44t31.5 110zM270 718q93 0 153.5 -69.5t60.5 -175.5q0 -74 -22.5 -145.5t-61.5 -129.5t-78.5 -102t-85.5 -82q-24 -20 -41 -20q-12 0 -24 11t-12 30q0 16 35 47 q46 41 80.5 84.5t72.5 113.5h-2q-54 -28 -113 -28q-83 0 -131.5 68t-48.5 166t62 165t156 67z"/>
<glyph glyph-name="colon" horiz-adv-x="250" unicode=":" d="M74 381q0 21 15 36t36 15t36 -15t15 -36t-15 -36t-36 -15t-36 15t-15 36zM74 45q0 21 15 36t36 15t36 -15t15 -36t-15 -36t-36 -15t-36 15t-15 36z"/>
<glyph glyph-name="semicolon" horiz-adv-x="250" unicode=";" d="M74 381q0 21 15 36t36 15t36 -15t15 -36t-15 -36t-36 -15t-36 15t-15 36zM33 -51l56 110q19 37 47 37q16 0 28 -11t12 -27q0 -15 -11 -37l-56 -110q-19 -37 -47 -37q-16 0 -28 11t-12 27q0 15 11 37z"/>
<glyph glyph-name="less" horiz-adv-x="600" unicode="&lt;" d="M150 253l372 -184q32 -17 32 -38q0 -15 -10 -26t-23 -11q-11 0 -49 18l-390 195q-36 18 -36 46t36 46l390 195q38 18 49 18q13 0 23 -11t10 -26q0 -21 -32 -38z"/>
<glyph glyph-name="equal" horiz-adv-x="600" unicode="=" d="M510 108h-420q-43 0 -43 41t43 41h420q43 0 43 -41t-43 -41zM510 316h-420q-43 0 -43 41t43 41h420q43 0 43 -41t-43 -41z"/>
<glyph glyph-name="greater" horiz-adv-x="600" unicode="&gt;" d="M78 69l372 184l-372 184q-32 17 -32 38q0 15 10 26t23 11q11 0 49 -18l390 -195q36 -18 36 -46t-36 -46l-390 -195q-38 -18 -49 -18q-13 0 -23 11t-10 26q0 21 32 38z"/>
<glyph glyph-name="question" horiz-adv-x="444" unicode="?" d="M163 45q0 21 15 36t36 15t36 -15t15 -36t-15 -36t-36 -15t-36 15t-15 36zM258 338v-100q0 -22 -12 -34.5t-32 -12.5t-32 12.5t-12 34.5v113q0 35 10 46t60 21q92 19 92 108q0 50 -32.5 80t-83.5 30q-87 0 -116 -82q-11 -33 -39 -33q-17 0 -30 12.5t-13 31.5 q0 64 61.5 108.5t133.5 44.5q91 0 152 -52.5t61 -131.5t-45.5 -129.5t-122.5 -66.5z"/>
<glyph glyph-name="at" horiz-adv-x="800" unicode="@" d="M598 494l-62 -214q-8 -28 -8 -41q0 -29 28 -29q49 0 90.5 61t41.5 137q0 112 -80.5 178t-193.5 66q-129 0 -215.5 -85.5t-86.5 -210.5q0 -130 88.5 -213t222.5 -83q58 0 104.5 17t70.5 38t48.5 38t41.5 17q11 0 18 -6.5t7 -16.5q0 -27 -46 -63.5t-117 -63t-134 -26.5 q-159 0 -269.5 105t-110.5 257q0 151 111 256.5t267 105.5q145 0 247.5 -84t102.5 -214q0 -69 -26 -125t-65 -87.5t-80 -48.5t-77 -17q-60 0 -70 57h-2q-51 -57 -115 -57t-107.5 46t-43.5 111q0 100 64.5 179.5t161.5 79.5q81 0 117 -75l13 40q9 29 40 29q32 0 32 -22 q0 -8 -8 -36zM266 308q0 -39 24 -64.5t58 -25.5q35 0 62.5 21.5t43 53.5t23 63t7.5 54q0 72 -75 72q-67 0 -105 -55t-38 -119z"/>
<glyph glyph-name="A" horiz-adv-x="612" unicode="A" d="M444 231l-137 385h-2l-137 -385h276zM141 155l-46 -128q-12 -33 -43 -33q-18 0 -30 10t-12 27q0 8 12 44l221 589q19 54 63 54t63 -54l221 -589q12 -36 12 -44q0 -17 -12 -27t-30 -10q-31 0 -43 33l-46 128h-330z"/>
<glyph glyph-name="B" horiz-adv-x="537" unicode="B" d="M58 48v616q0 48 47 48h155q89 0 140.5 -52t51.5 -118q0 -58 -27.5 -100t-71.5 -56v-2q65 -7 109.5 -56.5t44.5 -119.5q0 -88 -62.5 -148t-170.5 -60h-169q-47 0 -47 48zM146 339v-263h124q65 0 107 36.5t42 95.5q0 57 -39 94t-106 37h-128zM146 636v-225h100 q55 0 86.5 32.5t31.5 82.5t-29 80t-86 30h-103z"/>
<glyph glyph-name="C" horiz-adv-x="593" unicode="C" d="M125 356q0 -114 56.5 -200t161.5 -86q47 0 86.5 16t65.5 32t39 16q16 0 25.5 -11t9.5 -30q0 -35 -68 -67t-158 -32q-99 0 -171.5 52.5t-106.5 133.5t-34 176q0 71 20.5 135t58.5 115t100 81.5t138 30.5q86 0 146 -36t60 -68q0 -18 -10 -30t-26 -12q-15 0 -35 17.5 t-53.5 35t-81.5 17.5q-57 0 -101 -25t-70 -67t-39 -91.5t-13 -102.5z"/>
<glyph glyph-name="D" horiz-adv-x="630" unicode="D" d="M151 636v-560h126q60 0 105.5 23.5t71.5 64.5t38.5 90t12.5 106q0 120 -58 198t-176 78h-120zM63 48v616q0 48 47 48h173q102 0 175 -49.5t107 -127.5t34 -175q0 -162 -81.5 -261t-222.5 -99h-185q-47 0 -47 48z"/>
<glyph glyph-name="E" horiz-adv-x="444" unicode="E" d="M146 315v-233h212q43 0 43 -41t-43 -41h-253q-47 0 -47 48v616q0 48 47 48h253q43 0 43 -41t-43 -41h-212v-233h193q43 0 43 -41t-43 -41h-193z"/>
<glyph glyph-name="F" horiz-adv-x="407" unicode="F" d="M146 315v-274q0 -22 -12 -34.5t-32 -12.5t-32 12.5t-12 34.5v623q0 48 47 48h250q43 0 43 -41t-43 -41h-209v-233h185q43 0 43 -41t-43 -41h-185z"/>
<glyph glyph-name="G" horiz-adv-x="667" unicode="G" d="M559 326h-124q-43 0 -43 41t43 41h148q35 0 49.5 -16t14.5 -56q0 -70 -14 -127t-46.5 -107.5t-94.5 -79t-149 -28.5q-74 0 -134.5 30.5t-98.5 81.5t-58.5 115.5t-20.5 134.5q0 96 33.5 176t109 133t182.5 53q100 0 172 -40t72 -74q0 -18 -12 -30t-30 -12 q-14 0 -33.5 12.5t-39 27.5t-55.5 27.5t-80 12.5q-58 0 -102.5 -25t-70.5 -67t-39 -91.5t-13 -102.5q0 -54 13 -102.5t39 -91t71.5 -67.5t105.5 -25q96 0 150.5 66.5t54.5 147.5v42z"/>
<glyph glyph-name="H" horiz-adv-x="667" unicode="H" d="M146 319v-272q0 -53 -44 -53t-44 53v618q0 53 44 53t44 -53v-270h375v270q0 53 44 53t44 -53v-618q0 -53 -44 -53t-44 53v272h-375z"/>
<glyph glyph-name="I" d="M146 671v-630q0 -22 -12 -34.5t-32 -12.5t-32 12.5t-12 34.5v630q0 22 12 34.5t32 12.5t32 -12.5t12 -34.5z" unicode="I"/>
<glyph glyph-name="J" horiz-adv-x="370" unicode="J" d="M224 172v499q0 22 12 34.5t32 12.5t32 -12.5t12 -34.5v-490q0 -187 -173 -187q-44 0 -95 22.5t-51 57.5q0 17 9.5 27t25.5 10t30 -10.5t34.5 -20.5t53.5 -10q78 0 78 102z"/>
<glyph glyph-name="K" horiz-adv-x="574" unicode="K" d="M146 339v-298q0 -22 -12 -34.5t-32 -12.5t-32 12.5t-12 34.5v630q0 22 12 34.5t32 12.5t32 -12.5t12 -34.5v-260l305 279q30 28 48 28q17 0 27.5 -10.5t10.5 -27.5q0 -24 -18 -40l-292 -263l319 -308q18 -17 18 -36q0 -16 -12.5 -27.5t-30.5 -11.5q-23 0 -43 19z"/>
<glyph glyph-name="L" horiz-adv-x="389" unicode="L" d="M146 671v-589h188q43 0 43 -41t-43 -41h-229q-47 0 -47 48v623q0 22 12 34.5t32 12.5t32 -12.5t12 -34.5z"/>
<glyph glyph-name="M" horiz-adv-x="834" unicode="M" d="M200 604l-83 -572q-5 -38 -47 -38q-41 0 -41 45q0 12 5 40l97 572q12 67 69 67q50 0 64 -46l152 -521h2l152 521q14 46 64 46q57 0 69 -67l97 -572q5 -28 5 -40q0 -45 -41 -45q-42 0 -47 38l-83 572h-2l-170 -574q-11 -36 -45 -36t-45 36l-170 574h-2z"/>
<glyph glyph-name="N" horiz-adv-x="668" unicode="N" d="M146 557v-516q0 -22 -12 -34.5t-32 -12.5t-32 12.5t-12 34.5v625q0 52 40 52q19 0 31 -9.5t31 -36.5l360 -517h2v516q0 22 12 34.5t32 12.5t32 -12.5t12 -34.5v-625q0 -52 -40 -52q-19 0 -31 9.5t-31 36.5l-360 517h-2z"/>
<glyph glyph-name="O" horiz-adv-x="686" unicode="O" d="M31 356q0 95 34.5 176t107.5 133.5t170 52.5t170 -52.5t107.5 -133.5t34.5 -176t-34.5 -176t-107.5 -133.5t-170 -52.5t-170 52.5t-107.5 133.5t-34.5 176zM125 356q0 -73 20 -135t71 -106.5t127 -44.5t127 44.5t71 106.5t20 135t-20 135t-71 106.5t-127 44.5t-127 -44.5 t-71 -106.5t-20 -135z"/>
<glyph glyph-name="P" horiz-adv-x="519" unicode="P" d="M146 636v-294h130q64 0 105 42t41 104q0 60 -37 104t-113 44h-126zM146 266v-225q0 -22 -12 -34.5t-32 -12.5t-32 12.5t-12 34.5v623q0 48 47 48h174q105 0 168 -64t63 -160q0 -93 -65.5 -157.5t-162.5 -64.5h-136z"/>
<glyph glyph-name="Q" horiz-adv-x="685" unicode="Q" d="M612 2l-70 69q-80 -77 -199 -77q-97 0 -170 52.5t-107.5 133.5t-34.5 176t34.5 176t107.5 133.5t170 52.5t170 -52.5t107.5 -133.5t34.5 -176q0 -128 -62 -225l74 -73q17 -17 17 -35q0 -15 -10.5 -26t-27.5 -11q-18 0 -34 16zM485 127l-59 58q-18 18 -18 33q0 17 11 28.5 t28 11.5t33 -16l49 -48q32 70 32 162q0 73 -20 135t-71 106.5t-127 44.5t-127 -44.5t-71 -106.5t-20 -135t20 -135t71 -106.5t127 -44.5q87 0 142 57z"/>
<glyph glyph-name="R" horiz-adv-x="519" unicode="R" d="M146 636v-252h120q69 0 100.5 30.5t31.5 99.5q0 51 -37 86.5t-97 35.5h-118zM146 312v-271q0 -22 -12 -34.5t-32 -12.5t-32 12.5t-12 34.5v623q0 48 47 48h163q88 0 153 -54t65 -138q0 -102 -53.5 -150.5t-140.5 -51.5l-38 -1l227 -249q17 -18 17 -40q0 -14 -11.5 -24 t-28.5 -10q-22 0 -40 20z"/>
<glyph glyph-name="S" horiz-adv-x="481" unicode="S" d="M238 718q68 0 121.5 -24.5t53.5 -58.5q0 -16 -11 -27.5t-27 -11.5q-15 0 -32 11.5t-43.5 23t-64.5 11.5q-49 0 -81 -28t-32 -73q0 -32 18.5 -54.5t48.5 -36.5t66 -26t72 -27.5t66 -36t48.5 -56.5t18.5 -85q0 -93 -65 -159t-176 -66q-74 0 -136 25t-62 61q0 19 9.5 32 t27.5 13q11 0 33 -13.5t56 -27.5t73 -14q66 0 106 42t40 103q0 39 -25 66t-62.5 40t-81.5 30t-81.5 35t-62.5 56t-25 93q0 68 58.5 125.5t151.5 57.5z"/>
<glyph glyph-name="T" horiz-adv-x="444" unicode="T" d="M178 41v589h-133q-43 0 -43 41t43 41h354q43 0 43 -41t-43 -41h-133v-589q0 -22 -12 -34.5t-32 -12.5t-32 12.5t-12 34.5z"/>
<glyph glyph-name="U" horiz-adv-x="668" unicode="U" d="M58 282v389q0 22 12 34.5t32 12.5t32 -12.5t12 -34.5v-423q0 -83 51.5 -130.5t136.5 -47.5t136.5 47.5t51.5 130.5v423q0 22 12 34.5t32 12.5t32 -12.5t12 -34.5v-389q0 -69 -17.5 -122t-44.5 -83.5t-64.5 -50t-73.5 -26t-76 -6.5t-76 6.5t-73.5 26t-64.5 50t-44.5 83.5 t-17.5 122z"/>
<glyph glyph-name="V" horiz-adv-x="556" unicode="V" d="M279 142l180 519q8 21 11.5 30t15 18t27.5 9q17 0 28 -11t11 -25q0 -16 -6 -34l-217 -606q-8 -25 -19 -36.5t-32 -11.5t-32 11.5t-19 36.5l-217 606q-6 18 -6 34q0 14 11 25t28 11q16 0 27.5 -9t15 -18t11.5 -30l180 -519h2z"/>
<glyph glyph-name="W" horiz-adv-x="834" unicode="W" d="M208 108l164 575q10 35 45 35t45 -35l164 -575h2l93 569q7 41 48 41q18 0 29 -11.5t11 -28.5q0 -19 -5 -45l-108 -581q-11 -58 -63 -58q-28 0 -43.5 11.5t-25.5 46.5l-146 522h-2l-146 -522q-10 -35 -25.5 -46.5t-43.5 -11.5q-52 0 -63 58l-108 581q-5 26 -5 45 q0 17 11 28.5t29 11.5q41 0 48 -41l93 -569h2z"/>
<glyph glyph-name="X" horiz-adv-x="594" unicode="X" d="M297 313l-204 -291q-20 -28 -44 -28q-15 0 -27.5 11t-12.5 26t14 36l223 315l-186 263q-14 20 -14 36t11.5 26.5t27.5 10.5q25 0 45 -28l167 -244l167 244q20 28 45 28q16 0 27.5 -10.5t11.5 -26.5t-14 -36l-186 -263l223 -315q14 -21 14 -36t-12.5 -26t-27.5 -11 q-24 0 -44 28z"/>
<glyph glyph-name="Y" horiz-adv-x="500" unicode="Y" d="M206 41v293l-191 311q-14 22 -14 37q0 16 11.5 26t28.5 10q27 0 44 -28l165 -269l165 269q17 28 44 28q17 0 28.5 -10t11.5 -26q0 -15 -14 -37l-191 -311v-293q0 -22 -12 -34.5t-32 -12.5t-32 12.5t-12 34.5z"/>
<glyph glyph-name="Z" horiz-adv-x="556" unicode="Z" d="M41 87l366 549h-323q-19 0 -31 10t-12 28t12 28t31 10h389q21 0 33.5 -9t12.5 -22q0 -24 -22 -56l-367 -549h359q19 0 31 -10t12 -28t-12 -28t-31 -10h-413q-52 0 -52 40q0 22 17 47z"/>
<glyph glyph-name="bracketleft" horiz-adv-x="241" unicode="[" d="M158 642v-648h34q16 0 27 -11t11 -27t-11 -27t-27 -11h-69q-47 0 -47 48v704q0 48 47 48h69q16 0 27 -11t11 -27t-11 -27t-27 -11h-34z"/>
<glyph glyph-name="backslash" horiz-adv-x="407" unicode="\" d="M307 24l-273 613q-14 31 -14 44q0 17 11 27t28 10q28 0 41 -30l273 -613q14 -31 14 -44q0 -17 -11 -27t-28 -10q-28 0 -41 30z"/>
<glyph glyph-name="bracketright" horiz-adv-x="241" unicode="]" d="M83 -6v648h-34q-16 0 -27 11t-11 27t11 27t27 11h69q47 0 47 -48v-704q0 -48 -47 -48h-69q-16 0 -27 11t-11 27t11 27t27 11h34z"/>
<glyph glyph-name="asciicircum" horiz-adv-x="600" unicode="^" d="M300 630l-157 -291q-12 -22 -17 -29.5t-13.5 -14t-19.5 -6.5q-16 0 -26.5 9.5t-10.5 23.5q0 11 17 43l175 312q23 41 52 41t52 -41l175 -312q17 -32 17 -43q0 -14 -10.5 -23.5t-26.5 -9.5t-24.5 10t-25.5 40z"/>
<glyph glyph-name="underscore" horiz-adv-x="500" unicode="_" d="M500 -125h-500q-29 0 -29 25t29 25h500q29 0 29 -25t-29 -25z"/>
<glyph glyph-name="grave" d="M141 616l-115 47q-35 14 -35 37q0 14 10 28t28 14q12 0 34 -9l115 -47q35 -14 35 -37q0 -14 -10 -28t-28 -14q-12 0 -34 9z" unicode="`"/>
<glyph glyph-name="a" horiz-adv-x="556" unicode="a" d="M123 266q0 -78 36 -137t110 -59t110 59t36 137t-36 137t-110 59t-110 -59t-36 -137zM498 495v-458q0 -21 -13 -32t-28 -11q-16 0 -28.5 11t-12.5 32v37h-2q-56 -80 -145 -80q-108 0 -171 80t-63 192t63 192t171 80q80 0 145 -71h2v28q0 21 12.5 32t28.5 11q15 0 28 -11 t13 -32z"/>
<glyph glyph-name="b" horiz-adv-x="556" unicode="b" d="M62 41v684q0 22 12 34.5t32 12.5t32 -12.5t12 -34.5v-259h2q20 29 57 50.5t85 21.5q104 0 165.5 -80t61.5 -192t-61.5 -192t-165.5 -80t-142 73h-2v-26q0 -22 -12 -34.5t-32 -12.5t-32 12.5t-12 34.5zM141 266q0 -78 36 -137t110 -59t110 59t36 137t-36 137t-110 59 t-110 -59t-36 -137z"/>
<glyph glyph-name="c" horiz-adv-x="444" unicode="c" d="M35 266q0 114 62.5 193t177.5 79q65 0 104 -19.5t39 -47.5q0 -14 -10.5 -25.5t-25.5 -11.5q-14 0 -44 14t-63 14q-75 0 -113.5 -59.5t-38.5 -136.5t38.5 -136.5t113.5 -59.5q35 0 65.5 15t40.5 15q34 0 34 -37q0 -27 -38 -48t-102 -21q-115 0 -177.5 79t-62.5 193z"/>
<glyph glyph-name="d" horiz-adv-x="556" unicode="d" d="M406 41v26h-2q-38 -73 -142 -73t-165.5 80t-61.5 192t61.5 192t165.5 80q48 0 85 -21.5t57 -50.5h2v259q0 22 12 34.5t32 12.5t32 -12.5t12 -34.5v-684q0 -22 -12 -34.5t-32 -12.5t-32 12.5t-12 34.5zM415 266q0 78 -36 137t-110 59t-110 -59t-36 -137t36 -137t110 -59 t110 59t36 137z"/>
<glyph glyph-name="e" horiz-adv-x="520" unicode="e" d="M114 298h292q0 64 -36.5 114t-104.5 50h-7q-72 0 -106.5 -48t-37.5 -116zM445 232h-331q0 -70 42.5 -116t114.5 -46q40 0 72.5 11t49 25t32.5 25t26 11q13 0 22.5 -10.5t9.5 -28.5q0 -34 -69 -71.5t-144 -37.5q-120 0 -182 78.5t-62 193.5q0 113 65.5 192.5t173.5 79.5 q103 0 166 -78t63 -181q0 -24 -11 -35.5t-38 -11.5z"/>
<glyph glyph-name="f" horiz-adv-x="259" unicode="f" d="M174 456v-415q0 -22 -12 -34.5t-32 -12.5t-32 12.5t-12 34.5v415h-36q-44 0 -44 38t44 38h36v125q0 55 33 85t84 30h27q19 0 34.5 -10.5t15.5 -27.5q0 -38 -48 -38h-22q-36 0 -36 -35v-129h55q44 0 44 -38t-44 -38h-55z"/>
<glyph glyph-name="g" horiz-adv-x="556" unicode="g" d="M123 266q0 -78 36 -137t110 -59t110 59t36 137t-36 137t-110 59t-110 -59t-36 -137zM494 495v-457q0 -117 -65.5 -185.5t-174.5 -68.5q-69 0 -136.5 32t-67.5 65q0 16 9 28.5t28 12.5q15 0 39 -15.5t59 -31t76 -15.5q77 0 111 48.5t34 115.5v46h-2q-45 -76 -135 -76 q-108 0 -171 80t-63 192t63 192t171 80q40 0 78 -20.5t57 -46.5h2v24q0 22 13.5 32.5t33.5 10.5q15 0 28 -11t13 -32z"/>
<glyph glyph-name="h" horiz-adv-x="538" unicode="h" d="M392 41v290q0 65 -37 98t-86 33t-86 -33t-37 -98v-290q0 -22 -12 -34.5t-32 -12.5t-32 12.5t-12 34.5v684q0 22 12 34.5t32 12.5t32 -12.5t12 -34.5v-255l2 -2q55 70 147 70q33 0 64 -11t59 -33.5t45 -63t17 -94.5v-295q0 -22 -12 -34.5t-32 -12.5t-32 12.5t-12 34.5z "/>
<glyph glyph-name="i" d="M48 664q0 22 16 38t38 16t38 -16t16 -38t-16 -38t-38 -16t-38 16t-16 38zM146 491v-450q0 -22 -12 -34.5t-32 -12.5t-32 12.5t-12 34.5v450q0 22 12 34.5t32 12.5t32 -12.5t12 -34.5z" unicode="i"/>
<glyph glyph-name="j" d="M48 664q0 22 16 38t38 16t38 -16t16 -38t-16 -38t-38 -16t-38 16t-16 38zM146 491v-660q0 -22 -12 -34.5t-32 -12.5t-32 12.5t-12 34.5v660q0 22 12 34.5t32 12.5t32 -12.5t12 -34.5z" unicode="j"/>
<glyph glyph-name="k" horiz-adv-x="463" unicode="k" d="M58 41v684q0 22 12 34.5t32 12.5t32 -12.5t12 -34.5v-375l192 161q30 27 50 27q17 0 27 -11t10 -28q0 -21 -22 -38l-200 -158l232 -229q21 -21 21 -45q0 -15 -11 -25t-26 -10t-25 5.5t-26 21.5l-222 232v-212q0 -22 -12 -34.5t-32 -12.5t-32 12.5t-12 34.5z"/>
<glyph glyph-name="l" d="M146 725v-684q0 -22 -12 -34.5t-32 -12.5t-32 12.5t-12 34.5v684q0 22 12 34.5t32 12.5t32 -12.5t12 -34.5z" unicode="l"/>
<glyph glyph-name="m" horiz-adv-x="834" unicode="m" d="M373 41v298q0 57 -30 90t-84 33q-53 0 -83 -33t-30 -90v-298q0 -22 -12 -34.5t-32 -12.5t-32 12.5t-12 34.5v450q0 22 12 34.5t32 12.5t32 -12.5t12 -34.5v-16l2 -2q14 18 26.5 29.5t41.5 23.5t66 12q93 0 146 -90q63 90 163 90q33 0 64 -11t59 -33.5t45 -63t17 -94.5 v-295q0 -22 -12 -34.5t-32 -12.5t-32 12.5t-12 34.5v298q0 57 -30 90t-84 33q-53 0 -83 -33t-30 -90v-298q0 -22 -12 -34.5t-32 -12.5t-32 12.5t-12 34.5z"/>
<glyph glyph-name="n" horiz-adv-x="538" unicode="n" d="M58 41v450q0 22 12 34.5t32 12.5t32 -12.5t12 -34.5v-21l2 -2q55 70 147 70q33 0 64 -11t59 -33.5t45 -63t17 -94.5v-295q0 -22 -12 -34.5t-32 -12.5t-32 12.5t-12 34.5v290q0 65 -37 98t-86 33t-86 -33t-37 -98v-290q0 -22 -12 -34.5t-32 -12.5t-32 12.5t-12 34.5z"/>
<glyph glyph-name="o" horiz-adv-x="538" unicode="o" d="M123 266q0 -78 36 -137t110 -59t110 59t36 137t-36 137t-110 59t-110 -59t-36 -137zM35 266q0 112 63 192t171 80t171 -80t63 -192t-63 -192t-171 -80t-171 80t-63 192z"/>
<glyph glyph-name="p" horiz-adv-x="556" unicode="p" d="M62 -169v660q0 22 12 34.5t32 12.5t32 -12.5t12 -34.5v-26h2q38 73 142 73t165.5 -80t61.5 -192t-61.5 -192t-165.5 -80q-48 0 -85 21.5t-57 50.5h-2v-235q0 -22 -12 -34.5t-32 -12.5t-32 12.5t-12 34.5zM141 266q0 -78 36 -137t110 -59t110 59t36 137t-36 137t-110 59 t-110 -59t-36 -137z"/>
<glyph glyph-name="q" horiz-adv-x="556" unicode="q" d="M35 266q0 112 61.5 192t165.5 80t142 -73h2v26q0 22 12 34.5t32 12.5t32 -12.5t12 -34.5v-660q0 -22 -12 -34.5t-32 -12.5t-32 12.5t-12 34.5v235h-2q-20 -29 -57 -50.5t-85 -21.5q-104 0 -165.5 80t-61.5 192zM415 266q0 78 -36 137t-110 59t-110 -59t-36 -137t36 -137 t110 -59t110 59t36 137z"/>
<glyph glyph-name="r" horiz-adv-x="315" unicode="r" d="M58 41v450q0 22 12 34.5t32 12.5t32 -12.5t12 -34.5v-45h2q17 35 51 63.5t69 28.5q23 0 36 -13t13 -32q0 -38 -55 -48q-47 -8 -81.5 -44.5t-34.5 -106.5v-253q0 -22 -12 -34.5t-32 -12.5t-32 12.5t-12 34.5z"/>
<glyph glyph-name="s" horiz-adv-x="444" unicode="s" d="M46 388q0 69 54.5 109.5t126.5 40.5q60 0 118.5 -27.5t58.5 -66.5q0 -15 -10.5 -25.5t-29.5 -10.5q-15 0 -32 13.5t-43 27t-62 13.5q-40 0 -66.5 -17.5t-26.5 -49.5q0 -25 29.5 -45t71 -35t83 -33t71 -49.5t29.5 -74.5q0 -79 -57 -121.5t-137 -42.5t-140 32.5t-60 68.5 q0 18 10.5 29t25.5 11t37 -16.5t55 -32.5t75 -16q46 0 74.5 21.5t28.5 50.5q0 28 -29.5 50.5t-71 39t-83 35t-71 49.5t-29.5 72z"/>
<glyph glyph-name="t" horiz-adv-x="260" unicode="t" d="M86 532v115q0 22 12 34.5t32 12.5t32 -12.5t12 -34.5v-115h36q44 0 44 -38t-44 -38h-36v-415q0 -22 -12 -34.5t-32 -12.5t-32 12.5t-12 34.5v415h-36q-44 0 -44 38t44 38h36z"/>
<glyph glyph-name="u" horiz-adv-x="538" unicode="u" d="M58 206v285q0 22 12 34.5t32 12.5t32 -12.5t12 -34.5v-282q0 -139 123 -139t123 139v282q0 22 12 34.5t32 12.5t32 -12.5t12 -34.5v-285q0 -109 -60.5 -160.5t-150.5 -51.5t-150.5 51.5t-60.5 160.5z"/>
<glyph glyph-name="v" horiz-adv-x="426" unicode="v" d="M167 32l-153 429q-9 24 -9 36q0 19 11.5 30t28.5 11q34 0 46 -34l121 -368h2l121 368q12 34 46 34q17 0 28.5 -11t11.5 -30q0 -12 -9 -36l-153 -429q-7 -21 -16.5 -29.5t-29.5 -8.5t-29.5 8.5t-16.5 29.5z"/>
<glyph glyph-name="w" horiz-adv-x="742" unicode="w" d="M155 40l-146 425q-7 23 -7 34q0 15 10.5 27t31.5 12q35 0 49 -45l113 -363h2l111 350q10 33 20 45.5t32 12.5t32 -12.5t20 -45.5l111 -350h2l113 363q14 45 49 45q21 0 31.5 -12t10.5 -27q0 -11 -7 -34l-146 -425q-16 -46 -51 -46t-50 46l-114 359h-2l-114 -359 q-15 -46 -50 -46t-51 46z"/>
<glyph glyph-name="x" horiz-adv-x="464" unicode="x" d="M24 76l157 206l-138 181q-15 19 -15 35q0 17 10.5 28.5t26.5 11.5q22 0 38 -20l129 -172l129 172q16 20 38 20q16 0 26.5 -11.5t10.5 -28.5q0 -16 -15 -35l-138 -181l157 -206q18 -24 18 -42q0 -17 -11.5 -28.5t-28.5 -11.5q-25 0 -39 20l-147 204l-147 -204 q-14 -20 -39 -20q-17 0 -28.5 11.5t-11.5 28.5q0 18 18 42z"/>
<glyph glyph-name="y" horiz-adv-x="444" unicode="y" d="M179 19l-150 433q-12 36 -12 49q0 16 12 26.5t28 10.5q34 0 44 -33l122 -365h2l120 365q10 33 42 33q16 0 28 -10.5t12 -26.5q0 -13 -12 -49l-222 -635q-12 -33 -43 -33q-16 0 -28 10.5t-12 26.5q0 14 13 49z"/>
<glyph glyph-name="z" horiz-adv-x="444" unicode="z" d="M141 76h239q44 0 44 -38t-44 -38h-317q-43 0 -43 31q0 19 18 45l254 380h-218q-44 0 -44 38t44 38h296q43 0 43 -31q0 -19 -18 -45l-257 -378z"/>
<glyph glyph-name="braceleft" horiz-adv-x="241" unicode="{" d="M76 26v122q0 34 -1 49.5t-5 36t-14 31t-27 15.5q-25 7 -34.5 14.5t-9.5 23.5t10 24t34 14q17 4 27 14.5t14 31t5 36.5t1 50v122q0 108 102 108h38q40 0 40 -30t-40 -30h-14q-20 0 -32 -13t-12 -35v-158q0 -123 -91 -133v-2q91 -10 91 -133v-158q0 -22 12 -35t32 -13h14 q40 0 40 -30t-40 -30h-38q-102 0 -102 108z"/>
<glyph glyph-name="bar" horiz-adv-x="222" unicode="|" d="M70 -250v1000q0 43 41 43t41 -43v-1000q0 -43 -41 -43t-41 43z"/>
<glyph glyph-name="braceright" horiz-adv-x="241" unicode="}" d="M165 610v-122q0 -34 1 -49.5t5 -36t14 -31t27 -15.5q25 -7 34.5 -14.5t9.5 -23.5t-10 -24t-34 -14q-17 -4 -27 -14.5t-14 -31t-5 -36.5t-1 -50v-122q0 -108 -102 -108h-38q-40 0 -40 30t40 30h14q20 0 32 13t12 35v158q0 123 91 133v2q-91 10 -91 133v158q0 22 -12 35 t-32 13h-14q-40 0 -40 30t40 30h38q102 0 102 -108z"/>
<glyph glyph-name="asciitilde" horiz-adv-x="600" unicode="~" d="M64 210q0 42 41.5 78.5t88.5 36.5q48 0 118 -34q68 -34 91 -34q21 0 46.5 34t50.5 34h1q15 -1 25 -9.5t10 -19.5q0 -42 -41.5 -78.5t-88.5 -36.5q-48 0 -118 34q-68 34 -91 34q-21 0 -46.5 -34t-50.5 -34h-1q-15 1 -25 9.5t-10 19.5z"/>
<glyph glyph-name="uni00A0" horiz-adv-x="250" unicode=" "/>
<glyph glyph-name="exclamdown" horiz-adv-x="296" unicode="¡" d="M199 487q0 -21 -15 -36t-36 -15t-36 15t-15 36t15 36t36 15t36 -15t15 -36zM192 294v-433q0 -22 -12 -34.5t-32 -12.5t-32 12.5t-12 34.5v433q0 22 12 34.5t32 12.5t32 -12.5t12 -34.5z"/>
<glyph glyph-name="cent" horiz-adv-x="444" unicode="¢" d="M227 79v375q-52 -19 -78 -72.5t-26 -115.5t26 -115.5t78 -71.5zM227 -60v59q-93 16 -142.5 91t-49.5 176t49.5 176.5t142.5 91.5v58q0 21 21 21t21 -21v-54q69 0 109 -19.5t40 -47.5q0 -14 -10.5 -25.5t-25.5 -11.5q-13 0 -44.5 14t-68.5 14v-392q39 0 71 15t41 15 q34 0 34 -37q0 -27 -39 -48t-107 -21v-54q0 -21 -21 -21t-21 21z"/>
<glyph glyph-name="sterling" horiz-adv-x="593" unicode="£" d="M242 398h129q43 0 43 -41t-43 -41h-109q7 -40 7 -66q0 -37 -23.5 -85t-62.5 -83h337q43 0 43 -41t-43 -41h-400q-53 0 -53 42q0 14 18 34.5t39 41t39 57t18 76.5q0 39 -7 65h-101q-43 0 -43 41t43 41h77q-49 88 -49 143q0 77 64.5 127t151.5 50t158 -58t71 -119 q0 -20 -11.5 -31.5t-30.5 -11.5q-18 0 -29.5 14t-21 34.5t-22.5 41t-41.5 34.5t-71.5 14q-52 0 -90.5 -27t-38.5 -74q0 -19 6 -39t11 -31.5t18.5 -35.5t17.5 -31z"/>
<glyph glyph-name="currency" horiz-adv-x="536" unicode="¤" d="M102 356q0 -75 49 -123.5t117 -48.5t117 48.5t49 123.5t-49 123.5t-117 48.5t-117 -48.5t-49 -123.5zM35 172l34 35q-49 55 -49 149t49 149l-34 35q-14 14 -14 28q0 15 11.5 25.5t22.5 10.5q10 0 21 -11l42 -43q57 54 150 54t150 -54l42 43q11 11 21 11q11 0 22.5 -10.5 t11.5 -25.5q0 -14 -14 -28l-34 -35q49 -55 49 -149t-49 -149l34 -35q14 -14 14 -28q0 -15 -11.5 -25.5t-22.5 -10.5q-10 0 -21 11l-42 43q-57 -54 -150 -54t-150 54l-42 -43q-11 -11 -21 -11q-11 0 -22.5 10.5t-11.5 25.5q0 14 14 28z"/>
<glyph glyph-name="yen" horiz-adv-x="536" unicode="¥" d="M224 261v71h-137q-41 0 -41 33t41 33h96l-160 247q-15 23 -15 40q0 14 11 23.5t24 9.5q27 0 46 -28l179 -269l179 269q19 28 46 28q13 0 24 -9.5t11 -23.5q0 -17 -15 -40l-160 -247h96q41 0 41 -33t-41 -33h-137v-71h137q41 0 41 -33t-41 -33h-137v-154q0 -22 -12 -34.5 t-32 -12.5t-32 12.5t-12 34.5v154h-137q-41 0 -41 33t41 33h137z"/>
<glyph glyph-name="brokenbar" horiz-adv-x="222" unicode="¦" d="M70 -132v264q0 43 41 43t41 -43v-264q0 -43 -41 -43t-41 43zM70 368v264q0 43 41 43t41 -43v-264q0 -43 -41 -43t-41 43z"/>
<glyph glyph-name="section" horiz-adv-x="556" unicode="§" d="M116 277q0 -37 30 -64.5t94 -59.5l114 -56q51 38 68.5 66.5t17.5 59.5q0 37 -17 63t-72 51l-125 58q-52 -22 -81 -49t-29 -69zM85 554q0 77 58 120.5t153 43.5q86 0 145.5 -48t59.5 -103q0 -19 -10.5 -32.5t-29.5 -13.5q-17 0 -28.5 12.5t-20 30.5t-20 35.5t-37.5 30 t-65 12.5q-50 0 -83.5 -22.5t-33.5 -61.5q0 -35 36.5 -62.5t88.5 -48.5t104.5 -46.5t89 -70t36.5 -104.5q0 -49 -30.5 -95.5t-78.5 -73.5q65 -44 65 -118q0 -70 -63.5 -112.5t-143.5 -42.5h-3q-53 1 -98.5 17t-72 39t-41 46.5t-14.5 41.5q0 50 44 50q18 0 30 -12t21 -29.5 t22 -35t40 -29.5t67 -12q58 0 91 23t33 57q0 30 -27.5 54.5t-68 40.5t-88.5 38t-88.5 45t-68 62.5t-27.5 89.5q0 62 31.5 101.5t90.5 69.5q-36 26 -50.5 51t-14.5 62z"/>
<glyph glyph-name="dieresis" d="M141 658q0 22 15.5 38t38.5 16t38.5 -16t15.5 -38t-15.5 -38t-38.5 -16t-38.5 16t-15.5 38zM-45 658q0 22 15.5 38t38.5 16t38.5 -16t15.5 -38t-15.5 -38t-38.5 -16t-38.5 16t-15.5 38z" unicode="¨"/>
<glyph glyph-name="copyright" horiz-adv-x="800" unicode="©" d="M400 70q114 0 197 84t83 202t-83 202t-197 84t-197 -84t-83 -202t83 -202t197 -84zM400 -6q-150 0 -256 106t-106 256t106 256t256 106t256 -106t106 -256t-106 -256t-256 -106zM272 358q0 -64 36 -109.5t94 -45.5q30 0 51.5 9.5t33.5 23t21 27t19 23t22 9.5q32 0 32 -28 q0 -35 -49.5 -82.5t-129.5 -47.5q-94 0 -153 63.5t-59 157.5q0 96 58 158.5t154 62.5q83 0 131 -45t48 -82q0 -28 -33 -28q-17 0 -30.5 14t-22.5 30.5t-33 30.5t-60 14q-62 0 -96 -43t-34 -112z"/>
<glyph glyph-name="ordfeminine" horiz-adv-x="361" unicode="ª" d="M184 451q37 0 60 30.5t23 73.5q0 42 -23 72.5t-60 30.5t-60 -30.5t-23 -72.5q0 -43 23 -73.5t60 -30.5zM332 692v-275q0 -26 -33 -26t-33 26v16h-2q-31 -42 -83 -42q-68 0 -110 46.5t-42 117.5q0 70 42 116.5t110 46.5q52 0 83 -42h2v16q0 26 33 26t33 -26z"/>
<glyph glyph-name="guillemotleft" horiz-adv-x="407" unicode="«" d="M38 268l99 178q15 26 34 26q16 0 28 -9t12 -26q0 -12 -11 -31l-83 -138l83 -138q11 -19 11 -31q0 -17 -12 -26t-28 -9q-19 0 -34 26zM196 268l99 178q15 26 34 26q16 0 28 -9t12 -26q0 -12 -11 -31l-83 -138l83 -138q11 -19 11 -31q0 -17 -12 -26t-28 -9q-19 0 -34 26z "/>
<glyph glyph-name="logicalnot" horiz-adv-x="600" unicode="¬" d="M471 316h-381q-43 0 -43 41t43 41h422q41 0 41 -43v-204q0 -43 -41 -43t-41 43v165z"/>
<glyph glyph-name="uni00AD" horiz-adv-x="352" unicode="­" d="M279 230h-206q-16 0 -27 11t-11 27t11 27t27 11h206q16 0 27 -11t11 -27t-11 -27t-27 -11z"/>
<glyph glyph-name="registered" horiz-adv-x="800" unicode="®" d="M400 70q114 0 197 84t83 202t-83 202t-197 84t-197 -84t-83 -202t83 -202t197 -84zM400 -6q-150 0 -256 106t-106 256t106 256t256 106t256 -106t106 -256t-106 -256t-256 -106zM317 381h76q23 0 37.5 1.5t30 7.5t23 19.5t7.5 34.5q0 23 -15.5 36t-32.5 15.5t-44 2.5h-82 v-117zM381 321h-64v-143q0 -32 -33 -32t-33 32v359q0 21 23 21h132q78 0 114.5 -27t36.5 -92q0 -102 -103 -115l89 -136q10 -15 10 -25q0 -8 -11.5 -12.5t-25.5 -4.5q-26 0 -40 22z"/>
<glyph glyph-name="macron" d="M1 689h202q43 0 43 -41t-43 -41h-202q-43 0 -43 41t43 41z" unicode="¯"/>
<glyph glyph-name="degree" horiz-adv-x="400" unicode="°" d="M111 575q0 -37 26 -63t63 -26t63 26t26 63t-26 63t-63 26t-63 -26t-26 -63zM57 575q0 59 42 101t101 42t101 -42t42 -101t-42 -101t-101 -42t-101 42t-42 101z"/>
<glyph glyph-name="plusminus" horiz-adv-x="600" unicode="±" d="M510 0h-420q-43 0 -43 41t43 41h420q43 0 43 -41t-43 -41zM259 353v110q0 43 41 43t41 -43v-110h169q43 0 43 -41t-43 -41h-169v-110q0 -43 -41 -43t-41 43v110h-169q-43 0 -43 41t43 41h169z"/>
<glyph glyph-name="twosuperior" horiz-adv-x="348" unicode="²" d="M131 351h148q38 0 38 -30t-38 -30h-218q-15 0 -22.5 6.5t-7.5 14.5t12 23l171 217q26 33 26 56t-17.5 36.5t-46.5 13.5q-36 0 -60 -26.5t-24 -55.5q0 -24 -29 -24q-31 0 -31 33q0 55 39.5 94t108.5 39q63 0 97.5 -31t34.5 -77q0 -40 -36 -84z"/>
<glyph glyph-name="threesuperior" horiz-adv-x="348" unicode="³" d="M164 718q61 0 95.5 -31.5t34.5 -78.5q0 -61 -55 -91q38 -11 58.5 -38.5t20.5 -64.5q0 -59 -44.5 -94t-110.5 -35q-61 0 -97 33t-36 72q0 32 28 32q18 0 29 -25q24 -52 81 -52q32 0 55 22t23 54q0 63 -67 63q-28 0 -37 6.5t-9 18.5q0 13 6.5 19t23.5 10q32 7 45.5 23 t13.5 44q0 21 -17 37t-44 16q-29 0 -45 -14.5t-20 -34.5q-3 -23 -29 -23q-25 0 -25 28q0 45 32.5 74.5t89.5 29.5z"/>
<glyph glyph-name="acute" d="M178 663l-115 -47q-22 -9 -34 -9q-18 0 -28 14t-10 28q0 23 35 37l115 47q22 9 34 9q18 0 28 -14t10 -28q0 -23 -35 -37z" unicode="´"/>
<glyph glyph-name="mu" horiz-adv-x="538" unicode="µ" d="M58 -169v660q0 22 12 34.5t32 12.5t32 -12.5t12 -34.5v-282q0 -75 27.5 -107t95.5 -32t95.5 32t27.5 107v282q0 22 12 34.5t32 12.5t32 -12.5t12 -34.5v-450q0 -22 -12 -34.5t-32 -12.5q-33 0 -41 29q-48 -29 -126 -29q-81 0 -123 46v-209q0 -22 -12 -34.5t-32 -12.5 t-32 12.5t-12 34.5z"/>
<glyph glyph-name="paragraph" horiz-adv-x="600" unicode="¶" d="M242 -173v517q-96 0 -155 51.5t-59 133.5q0 83 65.5 133t189.5 50h191q47 0 47 -48v-837q0 -43 -41 -43t-41 43v819h-115v-819q0 -43 -41 -43t-41 43z"/>
<glyph glyph-name="periodcentered" horiz-adv-x="250" unicode="·" d="M71 303q0 23 15.5 38.5t38.5 15.5t38.5 -15.5t15.5 -38.5t-15.5 -38.5t-38.5 -15.5t-38.5 15.5t-15.5 38.5z"/>
<glyph glyph-name="cedilla" d="M183 0l-29 -42q15 3 21 3q31 0 50 -18t19 -37q0 -44 -30 -65t-81 -21q-32 0 -52.5 9.5t-20.5 25.5q0 11 5.5 19t15.5 8q6 0 24 -4t28 -4q35 0 35 27q0 12 -9 15t-35 3q-11 0 -18.5 4t-9.5 8t-2 7q0 10 10 25l26 37h53z" unicode="¸"/>
<glyph glyph-name="onesuperior" horiz-adv-x="229" unicode="¹" d="M87 652h-51q-28 0 -28 30t28 30h104q19 0 19 -14v-377q0 -36 -36 -36q-15 0 -25.5 9t-10.5 27v331z"/>
<glyph glyph-name="ordmasculine" horiz-adv-x="350" unicode="º" d="M95 555q0 -43 22.5 -73.5t57.5 -30.5t57.5 30.5t22.5 73.5q0 42 -22.5 72.5t-57.5 30.5t-57.5 -30.5t-22.5 -72.5zM23 555q0 70 42 116.5t110 46.5t110 -46.5t42 -116.5q0 -71 -41.5 -117.5t-110.5 -46.5q-68 0 -110 46.5t-42 117.5z"/>
<glyph glyph-name="guillemotright" horiz-adv-x="407" unicode="»" d="M207 130l83 138l-83 138q-11 19 -11 31q0 17 12 26t28 9q19 0 34 -26l99 -178l-99 -178q-15 -26 -34 -26q-16 0 -28 9t-12 26q0 12 11 31zM49 130l83 138l-83 138q-11 19 -11 31q0 17 12 26t28 9q19 0 34 -26l99 -178l-99 -178q-15 -26 -34 -26q-16 0 -28 9t-12 26 q0 12 11 31z"/>
<glyph glyph-name="onequarter" horiz-adv-x="805" unicode="¼" d="M115 652h-51q-28 0 -28 30t28 30h104q19 0 19 -14v-377q0 -36 -36 -36q-15 0 -25.5 9t-10.5 27v331zM202 58l266 638q13 30 35 30q17 0 26 -8.5t9 -18.5q0 -12 -14 -45l-266 -638q-13 -30 -37 -30q-15 0 -24 8t-9 19t14 45zM528 157h118v198h-2zM646 97h-178 q-23 0 -23 24q0 13 14 35l159 239q20 32 50 32q50 0 50 -44v-226h24q12 0 19.5 -8.5t7.5 -21.5t-7.5 -21.5t-19.5 -8.5h-24v-72q0 -31 -36 -31t-36 31v72z"/>
<glyph glyph-name="onehalf" horiz-adv-x="805" unicode="½" d="M553 60h148q38 0 38 -30t-38 -30h-218q-15 0 -22.5 6.5t-7.5 14.5t12 23l171 217q26 33 26 56t-17.5 36.5t-46.5 13.5q-36 0 -60 -26.5t-24 -55.5q0 -24 -29 -24q-31 0 -31 33q0 55 39.5 94t108.5 39q63 0 97.5 -31t34.5 -77q0 -41 -36 -84zM115 652h-51q-28 0 -28 30 t28 30h104q19 0 19 -14v-377q0 -36 -36 -36q-15 0 -25.5 9t-10.5 27v331zM172 58l266 638q13 30 35 30q17 0 26 -8.5t9 -18.5q0 -12 -14 -45l-266 -638q-13 -30 -37 -30q-15 0 -24 8t-9 19t14 45z"/>
<glyph glyph-name="threequarters" horiz-adv-x="805" unicode="¾" d="M176 718q61 0 95.5 -31.5t34.5 -78.5q0 -61 -55 -91q38 -11 58.5 -38.5t20.5 -64.5q0 -59 -44.5 -94t-110.5 -35q-61 0 -97 33t-36 72q0 32 28 32q18 0 29 -25q24 -52 81 -52q32 0 55 22t23 54q0 63 -67 63q-28 0 -37 6.5t-9 18.5q0 13 6.5 19t23.5 10q32 7 45.5 23 t13.5 44q0 21 -17 37t-44 16q-29 0 -45 -14.5t-20 -34.5q-3 -23 -29 -23q-25 0 -25 28q0 45 32.5 74.5t89.5 29.5zM262 58l266 638q13 30 35 30q17 0 26 -8.5t9 -18.5q0 -12 -14 -45l-266 -638q-13 -30 -37 -30q-15 0 -24 8t-9 19t14 45zM528 157h118v198h-2zM646 97h-178 q-23 0 -23 24q0 13 14 35l159 239q20 32 50 32q50 0 50 -44v-226h24q12 0 19.5 -8.5t7.5 -21.5t-7.5 -21.5t-19.5 -8.5h-24v-72q0 -31 -36 -31t-36 31v72z"/>
<glyph glyph-name="questiondown" horiz-adv-x="444" unicode="¿" d="M281 487q0 -21 -15 -36t-36 -15t-36 15t-15 36t15 36t36 15t36 -15t15 -36zM186 194v100q0 22 12 34.5t32 12.5t32 -12.5t12 -34.5v-113q0 -35 -10 -46t-60 -21q-92 -19 -92 -108q0 -50 32.5 -80t83.5 -30q87 0 116 82q11 33 39 33q17 0 30 -12.5t13 -31.5 q0 -64 -61.5 -108.5t-133.5 -44.5q-91 0 -152 52.5t-61 131.5t45.5 129.5t122.5 66.5z"/>
<glyph glyph-name="Agrave" horiz-adv-x="612" unicode="À" d="M345 776l-115 47q-35 14 -35 37q0 14 10 28t28 14q12 0 34 -9l115 -47q35 -14 35 -37q0 -14 -10 -28t-28 -14q-12 0 -34 9zM444 231l-137 385h-2l-137 -385h276zM141 155l-46 -128q-12 -33 -43 -33q-18 0 -30 10t-12 27q0 8 12 44l221 589q19 54 63 54t63 -54l221 -589 q12 -36 12 -44q0 -17 -12 -27t-30 -10q-31 0 -43 33l-46 128h-330z"/>
<glyph glyph-name="Aacute" horiz-adv-x="612" unicode="Á" d="M382 823l-115 -47q-22 -9 -34 -9q-18 0 -28 14t-10 28q0 23 35 37l115 47q22 9 34 9q18 0 28 -14t10 -28q0 -23 -35 -37zM444 231l-137 385h-2l-137 -385h276zM141 155l-46 -128q-12 -33 -43 -33q-18 0 -30 10t-12 27q0 8 12 44l221 589q19 54 63 54t63 -54l221 -589 q12 -36 12 -44q0 -17 -12 -27t-30 -10q-31 0 -43 33l-46 128h-330z"/>
<glyph glyph-name="Acircumflex" horiz-adv-x="612" unicode="Â" d="M177 840l129 55l129 -55q23 -10 23 -35q0 -16 -10 -27t-26 -11q-11 0 -22 5l-94 37l-94 -37q-11 -5 -22 -5q-16 0 -26 11t-10 27q0 25 23 35zM444 231l-137 385h-2l-137 -385h276zM141 155l-46 -128q-12 -33 -43 -33q-18 0 -30 10t-12 27q0 8 12 44l221 589q19 54 63 54 t63 -54l221 -589q12 -36 12 -44q0 -17 -12 -27t-30 -10q-31 0 -43 33l-46 128h-330z"/>
<glyph glyph-name="Atilde" horiz-adv-x="612" unicode="Ã" d="M157 815q0 24 26.5 43.5t66.5 19.5q24 0 57.5 -10t52.5 -10q15 0 33 10t29 10q12 0 22.5 -12t10.5 -27q0 -24 -26.5 -43.5t-66.5 -19.5q-24 0 -57.5 10t-52.5 10q-15 0 -33 -10t-29 -10q-12 0 -22.5 12t-10.5 27zM444 231l-137 385h-2l-137 -385h276zM141 155l-46 -128 q-12 -33 -43 -33q-18 0 -30 10t-12 27q0 8 12 44l221 589q19 54 63 54t63 -54l221 -589q12 -36 12 -44q0 -17 -12 -27t-30 -10q-31 0 -43 33l-46 128h-330z"/>
<glyph glyph-name="Adieresis" horiz-adv-x="612" unicode="Ä" d="M345 818q0 22 15.5 38t38.5 16t38.5 -16t15.5 -38t-15.5 -38t-38.5 -16t-38.5 16t-15.5 38zM159 818q0 22 15.5 38t38.5 16t38.5 -16t15.5 -38t-15.5 -38t-38.5 -16t-38.5 16t-15.5 38zM444 231l-137 385h-2l-137 -385h276zM141 155l-46 -128q-12 -33 -43 -33 q-18 0 -30 10t-12 27q0 8 12 44l221 589q19 54 63 54t63 -54l221 -589q12 -36 12 -44q0 -17 -12 -27t-30 -10q-31 0 -43 33l-46 128h-330z"/>
<glyph glyph-name="Aring" horiz-adv-x="612" unicode="Å" d="M260 828q0 -19 13.5 -32.5t32.5 -13.5t32.5 13.5t13.5 32.5t-13.5 32.5t-32.5 13.5t-32.5 -13.5t-13.5 -32.5zM212 828q0 39 27.5 66.5t66.5 27.5t66.5 -27.5t27.5 -66.5t-27.5 -66.5t-66.5 -27.5t-66.5 27.5t-27.5 66.5zM444 231l-137 385h-2l-137 -385h276zM141 155 l-46 -128q-12 -33 -43 -33q-18 0 -30 10t-12 27q0 8 12 44l221 589q19 54 63 54t63 -54l221 -589q12 -36 12 -44q0 -17 -12 -27t-30 -10q-31 0 -43 33l-46 128h-330z"/>
<glyph glyph-name="AE" horiz-adv-x="759" unicode="Æ" d="M373 231v379h-2l-191 -379h193zM461 315v-233h212q43 0 43 -41t-43 -41h-253q-47 0 -47 48v107h-231l-68 -133q-13 -28 -42 -28q-18 0 -29.5 9.5t-11.5 22.5q0 15 13 41l311 607q13 25 24.5 31.5t36.5 6.5h287q43 0 43 -41t-43 -41h-202v-233h193q43 0 43 -41t-43 -41 h-193z"/>
<glyph glyph-name="Ccedilla" horiz-adv-x="593" unicode="Ç" d="M359 -5l-25 -37q15 3 21 3q31 0 50 -18t19 -37q0 -44 -30 -65t-81 -21q-32 0 -52.5 9.5t-20.5 25.5q0 11 5.5 19t15.5 8q6 0 24 -4t28 -4q35 0 35 27q0 12 -9 15t-35 3q-11 0 -18.5 4t-9.5 8t-2 7q0 10 10 25l23 33q-130 14 -203 117.5t-73 242.5q0 71 20.5 135t58.5 115 t100 81.5t138 30.5q86 0 146 -36t60 -68q0 -18 -10 -30t-26 -12q-15 0 -35 17.5t-53.5 35t-81.5 17.5q-57 0 -101 -25t-70 -67t-39 -91.5t-13 -102.5q0 -114 56.5 -200t161.5 -86q47 0 86.5 16t65.5 32t39 16q16 0 25.5 -11t9.5 -30q0 -34 -62.5 -64.5t-147.5 -33.5z"/>
<glyph glyph-name="Egrave" horiz-adv-x="444" unicode="È" d="M261 776l-115 47q-35 14 -35 37q0 14 10 28t28 14q12 0 34 -9l115 -47q35 -14 35 -37q0 -14 -10 -28t-28 -14q-12 0 -34 9zM146 315v-233h212q43 0 43 -41t-43 -41h-253q-47 0 -47 48v616q0 48 47 48h253q43 0 43 -41t-43 -41h-212v-233h193q43 0 43 -41t-43 -41h-193z "/>
<glyph glyph-name="Eacute" horiz-adv-x="444" unicode="É" d="M298 823l-115 -47q-22 -9 -34 -9q-18 0 -28 14t-10 28q0 23 35 37l115 47q22 9 34 9q18 0 28 -14t10 -28q0 -23 -35 -37zM146 315v-233h212q43 0 43 -41t-43 -41h-253q-47 0 -47 48v616q0 48 47 48h253q43 0 43 -41t-43 -41h-212v-233h193q43 0 43 -41t-43 -41h-193z"/>
<glyph glyph-name="Ecircumflex" horiz-adv-x="444" unicode="Ê" d="M93 840l129 55l129 -55q23 -10 23 -35q0 -16 -10 -27t-26 -11q-11 0 -22 5l-94 37l-94 -37q-11 -5 -22 -5q-16 0 -26 11t-10 27q0 25 23 35zM146 315v-233h212q43 0 43 -41t-43 -41h-253q-47 0 -47 48v616q0 48 47 48h253q43 0 43 -41t-43 -41h-212v-233h193q43 0 43 -41 t-43 -41h-193z"/>
<glyph glyph-name="Edieresis" horiz-adv-x="444" unicode="Ë" d="M261 818q0 22 15.5 38t38.5 16t38.5 -16t15.5 -38t-15.5 -38t-38.5 -16t-38.5 16t-15.5 38zM75 818q0 22 15.5 38t38.5 16t38.5 -16t15.5 -38t-15.5 -38t-38.5 -16t-38.5 16t-15.5 38zM146 315v-233h212q43 0 43 -41t-43 -41h-253q-47 0 -47 48v616q0 48 47 48h253 q43 0 43 -41t-43 -41h-212v-233h193q43 0 43 -41t-43 -41h-193z"/>
<glyph glyph-name="Igrave" d="M141 776l-115 47q-35 14 -35 37q0 14 10 28t28 14q12 0 34 -9l115 -47q35 -14 35 -37q0 -14 -10 -28t-28 -14q-12 0 -34 9zM146 671v-630q0 -22 -12 -34.5t-32 -12.5t-32 12.5t-12 34.5v630q0 22 12 34.5t32 12.5t32 -12.5t12 -34.5z" unicode="Ì"/>
<glyph glyph-name="Iacute" d="M178 823l-115 -47q-22 -9 -34 -9q-18 0 -28 14t-10 28q0 23 35 37l115 47q22 9 34 9q18 0 28 -14t10 -28q0 -23 -35 -37zM146 671v-630q0 -22 -12 -34.5t-32 -12.5t-32 12.5t-12 34.5v630q0 22 12 34.5t32 12.5t32 -12.5t12 -34.5z" unicode="Í"/>
<glyph glyph-name="Icircumflex" d="M-27 840l129 55l129 -55q23 -10 23 -35q0 -16 -10 -27t-26 -11q-11 0 -22 5l-94 37l-94 -37q-11 -5 -22 -5q-16 0 -26 11t-10 27q0 25 23 35zM146 671v-630q0 -22 -12 -34.5t-32 -12.5t-32 12.5t-12 34.5v630q0 22 12 34.5t32 12.5t32 -12.5t12 -34.5z" unicode="Î"/>
<glyph glyph-name="Idieresis" d="M141 818q0 22 15.5 38t38.5 16t38.5 -16t15.5 -38t-15.5 -38t-38.5 -16t-38.5 16t-15.5 38zM-45 818q0 22 15.5 38t38.5 16t38.5 -16t15.5 -38t-15.5 -38t-38.5 -16t-38.5 16t-15.5 38zM146 671v-630q0 -22 -12 -34.5t-32 -12.5t-32 12.5t-12 34.5v630q0 22 12 34.5 t32 12.5t32 -12.5t12 -34.5z" unicode="Ï"/>
<glyph glyph-name="Eth" horiz-adv-x="630" unicode="Ð" d="M151 321v-245h126q60 0 105.5 23.5t71.5 64.5t38.5 90t12.5 106q0 120 -58 198t-176 78h-120v-239h120q19 0 31 -10t12 -28t-12 -28t-31 -10h-120zM63 48v273h-38q-19 0 -31 10t-12 28t12 28t31 10h38v267q0 48 47 48h173q102 0 175 -49.5t107 -127.5t34 -175 q0 -162 -81.5 -261t-222.5 -99h-185q-47 0 -47 48z"/>
<glyph glyph-name="Ntilde" horiz-adv-x="668" unicode="Ñ" d="M185 815q0 24 26.5 43.5t66.5 19.5q24 0 57.5 -10t52.5 -10q15 0 33 10t29 10q12 0 22.5 -12t10.5 -27q0 -24 -26.5 -43.5t-66.5 -19.5q-24 0 -57.5 10t-52.5 10q-15 0 -33 -10t-29 -10q-12 0 -22.5 12t-10.5 27zM146 557v-516q0 -22 -12 -34.5t-32 -12.5t-32 12.5 t-12 34.5v625q0 52 40 52q19 0 31 -9.5t31 -36.5l360 -517h2v516q0 22 12 34.5t32 12.5t32 -12.5t12 -34.5v-625q0 -52 -40 -52q-19 0 -31 9.5t-31 36.5l-360 517h-2z"/>
<glyph glyph-name="Ograve" horiz-adv-x="686" unicode="Ò" d="M382 776l-115 47q-35 14 -35 37q0 14 10 28t28 14q12 0 34 -9l115 -47q35 -14 35 -37q0 -14 -10 -28t-28 -14q-12 0 -34 9zM31 356q0 95 34.5 176t107.5 133.5t170 52.5t170 -52.5t107.5 -133.5t34.5 -176t-34.5 -176t-107.5 -133.5t-170 -52.5t-170 52.5t-107.5 133.5 t-34.5 176zM125 356q0 -73 20 -135t71 -106.5t127 -44.5t127 44.5t71 106.5t20 135t-20 135t-71 106.5t-127 44.5t-127 -44.5t-71 -106.5t-20 -135z"/>
<glyph glyph-name="Oacute" horiz-adv-x="686" unicode="Ó" d="M419 823l-115 -47q-22 -9 -34 -9q-18 0 -28 14t-10 28q0 23 35 37l115 47q22 9 34 9q18 0 28 -14t10 -28q0 -23 -35 -37zM31 356q0 95 34.5 176t107.5 133.5t170 52.5t170 -52.5t107.5 -133.5t34.5 -176t-34.5 -176t-107.5 -133.5t-170 -52.5t-170 52.5t-107.5 133.5 t-34.5 176zM125 356q0 -73 20 -135t71 -106.5t127 -44.5t127 44.5t71 106.5t20 135t-20 135t-71 106.5t-127 44.5t-127 -44.5t-71 -106.5t-20 -135z"/>
<glyph glyph-name="Ocircumflex" horiz-adv-x="686" unicode="Ô" d="M214 840l129 55l129 -55q23 -10 23 -35q0 -16 -10 -27t-26 -11q-11 0 -22 5l-94 37l-94 -37q-11 -5 -22 -5q-16 0 -26 11t-10 27q0 25 23 35zM31 356q0 95 34.5 176t107.5 133.5t170 52.5t170 -52.5t107.5 -133.5t34.5 -176t-34.5 -176t-107.5 -133.5t-170 -52.5 t-170 52.5t-107.5 133.5t-34.5 176zM125 356q0 -73 20 -135t71 -106.5t127 -44.5t127 44.5t71 106.5t20 135t-20 135t-71 106.5t-127 44.5t-127 -44.5t-71 -106.5t-20 -135z"/>
<glyph glyph-name="Otilde" horiz-adv-x="686" unicode="Õ" d="M194 815q0 24 26.5 43.5t66.5 19.5q24 0 57.5 -10t52.5 -10q15 0 33 10t29 10q12 0 22.5 -12t10.5 -27q0 -24 -26.5 -43.5t-66.5 -19.5q-24 0 -57.5 10t-52.5 10q-15 0 -33 -10t-29 -10q-12 0 -22.5 12t-10.5 27zM31 356q0 95 34.5 176t107.5 133.5t170 52.5t170 -52.5 t107.5 -133.5t34.5 -176t-34.5 -176t-107.5 -133.5t-170 -52.5t-170 52.5t-107.5 133.5t-34.5 176zM125 356q0 -73 20 -135t71 -106.5t127 -44.5t127 44.5t71 106.5t20 135t-20 135t-71 106.5t-127 44.5t-127 -44.5t-71 -106.5t-20 -135z"/>
<glyph glyph-name="Odieresis" horiz-adv-x="686" unicode="Ö" d="M382 818q0 22 16 38t38 16t38 -16t16 -38t-16 -38t-38 -16t-38 16t-16 38zM196 818q0 22 16 38t38 16t38 -16t16 -38t-16 -38t-38 -16t-38 16t-16 38zM31 356q0 95 34.5 176t107.5 133.5t170 52.5t170 -52.5t107.5 -133.5t34.5 -176t-34.5 -176t-107.5 -133.5t-170 -52.5 t-170 52.5t-107.5 133.5t-34.5 176zM125 356q0 -73 20 -135t71 -106.5t127 -44.5t127 44.5t71 106.5t20 135t-20 135t-71 106.5t-127 44.5t-127 -44.5t-71 -106.5t-20 -135z"/>
<glyph glyph-name="multiply" horiz-adv-x="600" unicode="×" d="M300 309l152 151q23 23 42 23q15 0 25.5 -11.5t10.5 -25.5q0 -19 -21 -40l-153 -153l153 -153q21 -21 21 -40q0 -14 -10.5 -25.5t-25.5 -11.5q-19 0 -42 23l-152 152l-152 -152q-23 -23 -42 -23q-15 0 -25.5 11.5t-10.5 25.5q0 19 21 40l153 153l-153 153q-21 21 -21 40 q0 14 10.5 25.5t25.5 11.5q19 0 42 -23z"/>
<glyph glyph-name="Oslash" horiz-adv-x="686" unicode="Ø" d="M545 639l59 70q14 17 31 17q12 0 21.5 -7.5t9.5 -20.5t-12 -26l-69 -80q70 -99 70 -236q0 -95 -34.5 -176t-107.5 -133.5t-170 -52.5q-120 0 -202 80l-61 -72q-14 -16 -31 -16q-13 0 -21 8.5t-8 18.5q0 13 14 30l66 77q-69 100 -69 236q0 95 34.5 176t107.5 133.5 t170 52.5q120 0 202 -79zM527 524l-333 -389q55 -65 149 -65q76 0 127 44.5t71 106.5t20 135q0 97 -34 168zM160 190l332 388q-57 64 -149 64q-76 0 -127 -44.5t-71 -106.5t-20 -135q0 -96 35 -166z"/>
<glyph glyph-name="Ugrave" horiz-adv-x="668" unicode="Ù" d="M373 776l-115 47q-35 14 -35 37q0 14 10 28t28 14q12 0 34 -9l115 -47q35 -14 35 -37q0 -14 -10 -28t-28 -14q-12 0 -34 9zM58 282v389q0 22 12 34.5t32 12.5t32 -12.5t12 -34.5v-423q0 -83 51.5 -130.5t136.5 -47.5t136.5 47.5t51.5 130.5v423q0 22 12 34.5t32 12.5 t32 -12.5t12 -34.5v-389q0 -69 -17.5 -122t-44.5 -83.5t-64.5 -50t-73.5 -26t-76 -6.5t-76 6.5t-73.5 26t-64.5 50t-44.5 83.5t-17.5 122z"/>
<glyph glyph-name="Uacute" horiz-adv-x="668" unicode="Ú" d="M410 823l-115 -47q-22 -9 -34 -9q-18 0 -28 14t-10 28q0 23 35 37l115 47q22 9 34 9q18 0 28 -14t10 -28q0 -23 -35 -37zM58 282v389q0 22 12 34.5t32 12.5t32 -12.5t12 -34.5v-423q0 -83 51.5 -130.5t136.5 -47.5t136.5 47.5t51.5 130.5v423q0 22 12 34.5t32 12.5 t32 -12.5t12 -34.5v-389q0 -69 -17.5 -122t-44.5 -83.5t-64.5 -50t-73.5 -26t-76 -6.5t-76 6.5t-73.5 26t-64.5 50t-44.5 83.5t-17.5 122z"/>
<glyph glyph-name="Ucircumflex" horiz-adv-x="668" unicode="Û" d="M205 840l129 55l129 -55q23 -10 23 -35q0 -16 -10 -27t-26 -11q-11 0 -22 5l-94 37l-94 -37q-11 -5 -22 -5q-16 0 -26 11t-10 27q0 25 23 35zM58 282v389q0 22 12 34.5t32 12.5t32 -12.5t12 -34.5v-423q0 -83 51.5 -130.5t136.5 -47.5t136.5 47.5t51.5 130.5v423 q0 22 12 34.5t32 12.5t32 -12.5t12 -34.5v-389q0 -69 -17.5 -122t-44.5 -83.5t-64.5 -50t-73.5 -26t-76 -6.5t-76 6.5t-73.5 26t-64.5 50t-44.5 83.5t-17.5 122z"/>
<glyph glyph-name="Udieresis" horiz-adv-x="668" unicode="Ü" d="M373 818q0 22 15.5 38t38.5 16t38.5 -16t15.5 -38t-15.5 -38t-38.5 -16t-38.5 16t-15.5 38zM187 818q0 22 15.5 38t38.5 16t38.5 -16t15.5 -38t-15.5 -38t-38.5 -16t-38.5 16t-15.5 38zM58 282v389q0 22 12 34.5t32 12.5t32 -12.5t12 -34.5v-423q0 -83 51.5 -130.5 t136.5 -47.5t136.5 47.5t51.5 130.5v423q0 22 12 34.5t32 12.5t32 -12.5t12 -34.5v-389q0 -69 -17.5 -122t-44.5 -83.5t-64.5 -50t-73.5 -26t-76 -6.5t-76 6.5t-73.5 26t-64.5 50t-44.5 83.5t-17.5 122z"/>
<glyph glyph-name="Yacute" horiz-adv-x="500" unicode="Ý" d="M326 823l-115 -47q-22 -9 -34 -9q-18 0 -28 14t-10 28q0 23 35 37l115 47q22 9 34 9q18 0 28 -14t10 -28q0 -23 -35 -37zM206 41v293l-191 311q-14 22 -14 37q0 16 11.5 26t28.5 10q27 0 44 -28l165 -269l165 269q17 28 44 28q17 0 28.5 -10t11.5 -26q0 -15 -14 -37 l-191 -311v-293q0 -22 -12 -34.5t-32 -12.5t-32 12.5t-12 34.5z"/>
<glyph glyph-name="Thorn" horiz-adv-x="519" unicode="Þ" d="M146 156v-115q0 -22 -12 -34.5t-32 -12.5t-32 12.5t-12 34.5v630q0 22 12 34.5t32 12.5t32 -12.5t12 -34.5v-71h133q104 0 167.5 -64.5t63.5 -158.5q0 -93 -65.5 -157t-162.5 -64h-136zM146 524v-292h130q64 0 105 41.5t41 103.5q0 59 -37 103t-113 44h-126z"/>
<glyph glyph-name="germandbls" horiz-adv-x="556" unicode="ß" d="M58 37v526q0 97 52.5 153t139.5 56t143 -56.5t56 -125.5q0 -115 -77 -168q62 -16 98 -71.5t36 -126.5q0 -87 -54.5 -158.5t-143.5 -71.5q-58 0 -58 41q0 38 33 38q71 0 100 40.5t29 114.5q0 68 -34 105.5t-87 40.5q-45 3 -45 37q0 20 9 28t36 16q15 5 25 10.5t21.5 18.5 t17.5 37t6 59q0 50 -29.5 83t-79.5 33q-106 0 -106 -150v-509q0 -22 -13 -32.5t-31 -10.5t-31 10.5t-13 32.5z"/>
<glyph glyph-name="agrave" horiz-adv-x="556" unicode="à" d="M317 616l-115 47q-35 14 -35 37q0 14 10 28t28 14q12 0 34 -9l115 -47q35 -14 35 -37q0 -14 -10 -28t-28 -14q-12 0 -34 9zM123 266q0 -78 36 -137t110 -59t110 59t36 137t-36 137t-110 59t-110 -59t-36 -137zM498 495v-458q0 -21 -13 -32t-28 -11q-16 0 -28.5 11 t-12.5 32v37h-2q-56 -80 -145 -80q-108 0 -171 80t-63 192t63 192t171 80q80 0 145 -71h2v28q0 21 12.5 32t28.5 11q15 0 28 -11t13 -32z"/>
<glyph glyph-name="aacute" horiz-adv-x="556" unicode="á" d="M354 663l-115 -47q-22 -9 -34 -9q-18 0 -28 14t-10 28q0 23 35 37l115 47q22 9 34 9q18 0 28 -14t10 -28q0 -23 -35 -37zM123 266q0 -78 36 -137t110 -59t110 59t36 137t-36 137t-110 59t-110 -59t-36 -137zM498 495v-458q0 -21 -13 -32t-28 -11q-16 0 -28.5 11t-12.5 32 v37h-2q-56 -80 -145 -80q-108 0 -171 80t-63 192t63 192t171 80q80 0 145 -71h2v28q0 21 12.5 32t28.5 11q15 0 28 -11t13 -32z"/>
<glyph glyph-name="acircumflex" horiz-adv-x="556" unicode="â" d="M149 680l129 55l129 -55q23 -10 23 -35q0 -16 -10 -27t-26 -11q-11 0 -22 5l-94 37l-94 -37q-11 -5 -22 -5q-16 0 -26 11t-10 27q0 25 23 35zM123 266q0 -78 36 -137t110 -59t110 59t36 137t-36 137t-110 59t-110 -59t-36 -137zM498 495v-458q0 -21 -13 -32t-28 -11 q-16 0 -28.5 11t-12.5 32v37h-2q-56 -80 -145 -80q-108 0 -171 80t-63 192t63 192t171 80q80 0 145 -71h2v28q0 21 12.5 32t28.5 11q15 0 28 -11t13 -32z"/>
<glyph glyph-name="atilde" horiz-adv-x="556" unicode="ã" d="M129 655q0 24 26.5 43.5t66.5 19.5q24 0 57.5 -10t52.5 -10q15 0 33 10t29 10q12 0 22.5 -12t10.5 -27q0 -24 -26.5 -43.5t-66.5 -19.5q-24 0 -57.5 10t-52.5 10q-15 0 -33 -10t-29 -10q-12 0 -22.5 12t-10.5 27zM123 266q0 -78 36 -137t110 -59t110 59t36 137t-36 137 t-110 59t-110 -59t-36 -137zM498 495v-458q0 -21 -13 -32t-28 -11q-16 0 -28.5 11t-12.5 32v37h-2q-56 -80 -145 -80q-108 0 -171 80t-63 192t63 192t171 80q80 0 145 -71h2v28q0 21 12.5 32t28.5 11q15 0 28 -11t13 -32z"/>
<glyph glyph-name="adieresis" horiz-adv-x="556" unicode="ä" d="M317 658q0 22 15.5 38t38.5 16t38.5 -16t15.5 -38t-15.5 -38t-38.5 -16t-38.5 16t-15.5 38zM131 658q0 22 15.5 38t38.5 16t38.5 -16t15.5 -38t-15.5 -38t-38.5 -16t-38.5 16t-15.5 38zM123 266q0 -78 36 -137t110 -59t110 59t36 137t-36 137t-110 59t-110 -59t-36 -137z M498 495v-458q0 -21 -13 -32t-28 -11q-16 0 -28.5 11t-12.5 32v37h-2q-56 -80 -145 -80q-108 0 -171 80t-63 192t63 192t171 80q80 0 145 -71h2v28q0 21 12.5 32t28.5 11q15 0 28 -11t13 -32z"/>
<glyph glyph-name="aring" horiz-adv-x="556" unicode="å" d="M232 678q0 -19 13.5 -32.5t32.5 -13.5t32.5 13.5t13.5 32.5t-13.5 32.5t-32.5 13.5t-32.5 -13.5t-13.5 -32.5zM184 678q0 39 27.5 66.5t66.5 27.5t66.5 -27.5t27.5 -66.5t-27.5 -66.5t-66.5 -27.5t-66.5 27.5t-27.5 66.5zM123 266q0 -78 36 -137t110 -59t110 59t36 137 t-36 137t-110 59t-110 -59t-36 -137zM498 495v-458q0 -21 -13 -32t-28 -11q-16 0 -28.5 11t-12.5 32v37h-2q-56 -80 -145 -80q-108 0 -171 80t-63 192t63 192t171 80q80 0 145 -71h2v28q0 21 12.5 32t28.5 11q15 0 28 -11t13 -32z"/>
<glyph glyph-name="ae" horiz-adv-x="889" unicode="æ" d="M495 298h280q0 64 -36.5 114t-104.5 50q-70 0 -104.5 -49.5t-34.5 -114.5zM415 37v37h-2q-55 -80 -144 -80q-108 0 -171 80t-63 192t63 192t171 80q81 0 144 -71h2v28q0 21 12.5 32t28.5 11q15 0 28 -11t13 -32v-22h2q13 18 53 41.5t87 23.5q89 0 156.5 -72.5 t67.5 -186.5q0 -24 -11 -35.5t-38 -11.5h-325q2 -65 44 -112.5t113 -47.5h4q37 1 67 11.5t45.5 23.5t31 23.5t26.5 11.5q13 0 22.5 -10.5t9.5 -28.5q1 -21 -28 -47t-76 -44t-92 -18q-106 0 -157 64h-2v-21q0 -21 -13 -32t-28 -11q-16 0 -28.5 11t-12.5 32zM123 266 q0 -78 36 -137t110 -59t110 59t36 137t-36 137t-110 59t-110 -59t-36 -137z"/>
<glyph glyph-name="ccedilla" horiz-adv-x="444" unicode="ç" d="M284 -5l-25 -37q15 3 21 3q31 0 50 -18t19 -37q0 -44 -30 -65t-81 -21q-32 0 -52.5 9.5t-20.5 25.5q0 11 5.5 19t15.5 8q6 0 24 -4t28 -4q35 0 35 27q0 12 -9.5 15t-34.5 3q-11 0 -18.5 4t-9.5 8t-2 7q0 10 10 25l24 35q-96 14 -147 90t-51 178q0 114 62.5 193t177.5 79 q65 0 104 -19.5t39 -47.5q0 -14 -10.5 -25.5t-25.5 -11.5q-14 0 -44 14t-63 14q-75 0 -113.5 -59.5t-38.5 -136.5t38.5 -136.5t113.5 -59.5q35 0 65.5 15t40.5 15q34 0 34 -37q0 -26 -35 -46.5t-96 -21.5z"/>
<glyph glyph-name="egrave" horiz-adv-x="520" unicode="è" d="M299 616l-115 47q-35 14 -35 37q0 14 10 28t28 14q12 0 34 -9l115 -47q35 -14 35 -37q0 -14 -10 -28t-28 -14q-12 0 -34 9zM114 298h292q0 64 -36.5 114t-104.5 50h-7q-72 0 -106.5 -48t-37.5 -116zM445 232h-331q0 -70 42.5 -116t114.5 -46q40 0 72.5 11t49 25t32.5 25 t26 11q13 0 22.5 -10.5t9.5 -28.5q0 -34 -69 -71.5t-144 -37.5q-120 0 -182 78.5t-62 193.5q0 113 65.5 192.5t173.5 79.5q103 0 166 -78t63 -181q0 -24 -11 -35.5t-38 -11.5z"/>
<glyph glyph-name="eacute" horiz-adv-x="520" unicode="é" d="M336 663l-115 -47q-22 -9 -34 -9q-18 0 -28 14t-10 28q0 23 35 37l115 47q22 9 34 9q18 0 28 -14t10 -28q0 -23 -35 -37zM114 298h292q0 64 -36.5 114t-104.5 50h-7q-72 0 -106.5 -48t-37.5 -116zM445 232h-331q0 -70 42.5 -116t114.5 -46q40 0 72.5 11t49 25t32.5 25 t26 11q13 0 22.5 -10.5t9.5 -28.5q0 -34 -69 -71.5t-144 -37.5q-120 0 -182 78.5t-62 193.5q0 113 65.5 192.5t173.5 79.5q103 0 166 -78t63 -181q0 -24 -11 -35.5t-38 -11.5z"/>
<glyph glyph-name="ecircumflex" horiz-adv-x="520" unicode="ê" d="M131 680l129 55l129 -55q23 -10 23 -35q0 -16 -10 -27t-26 -11q-11 0 -22 5l-94 37l-94 -37q-11 -5 -22 -5q-16 0 -26 11t-10 27q0 25 23 35zM114 298h292q0 64 -36.5 114t-104.5 50h-7q-72 0 -106.5 -48t-37.5 -116zM445 232h-331q0 -70 42.5 -116t114.5 -46 q40 0 72.5 11t49 25t32.5 25t26 11q13 0 22.5 -10.5t9.5 -28.5q0 -34 -69 -71.5t-144 -37.5q-120 0 -182 78.5t-62 193.5q0 113 65.5 192.5t173.5 79.5q103 0 166 -78t63 -181q0 -24 -11 -35.5t-38 -11.5z"/>
<glyph glyph-name="edieresis" horiz-adv-x="520" unicode="ë" d="M299 658q0 22 15.5 38t38.5 16t38.5 -16t15.5 -38t-15.5 -38t-38.5 -16t-38.5 16t-15.5 38zM113 658q0 22 15.5 38t38.5 16t38.5 -16t15.5 -38t-15.5 -38t-38.5 -16t-38.5 16t-15.5 38zM114 298h292q0 64 -36.5 114t-104.5 50h-7q-72 0 -106.5 -48t-37.5 -116zM445 232 h-331q0 -70 42.5 -116t114.5 -46q40 0 72.5 11t49 25t32.5 25t26 11q13 0 22.5 -10.5t9.5 -28.5q0 -34 -69 -71.5t-144 -37.5q-120 0 -182 78.5t-62 193.5q0 113 65.5 192.5t173.5 79.5q103 0 166 -78t63 -181q0 -24 -11 -35.5t-38 -11.5z"/>
<glyph glyph-name="igrave" d="M141 616l-115 47q-35 14 -35 37q0 14 10 28t28 14q12 0 34 -9l115 -47q35 -14 35 -37q0 -14 -10 -28t-28 -14q-12 0 -34 9zM146 491v-450q0 -22 -12 -34.5t-32 -12.5t-32 12.5t-12 34.5v450q0 22 12 34.5t32 12.5t32 -12.5t12 -34.5z" unicode="ì"/>
<glyph glyph-name="iacute" d="M178 663l-115 -47q-22 -9 -34 -9q-18 0 -28 14t-10 28q0 23 35 37l115 47q22 9 34 9q18 0 28 -14t10 -28q0 -23 -35 -37zM146 491v-450q0 -22 -12 -34.5t-32 -12.5t-32 12.5t-12 34.5v450q0 22 12 34.5t32 12.5t32 -12.5t12 -34.5z" unicode="í"/>
<glyph glyph-name="icircumflex" d="M-27 680l129 55l129 -55q23 -10 23 -35q0 -16 -10 -27t-26 -11q-11 0 -22 5l-94 37l-94 -37q-11 -5 -22 -5q-16 0 -26 11t-10 27q0 25 23 35zM146 491v-450q0 -22 -12 -34.5t-32 -12.5t-32 12.5t-12 34.5v450q0 22 12 34.5t32 12.5t32 -12.5t12 -34.5z" unicode="î"/>
<glyph glyph-name="idieresis" d="M141 658q0 22 15.5 38t38.5 16t38.5 -16t15.5 -38t-15.5 -38t-38.5 -16t-38.5 16t-15.5 38zM-45 658q0 22 15.5 38t38.5 16t38.5 -16t15.5 -38t-15.5 -38t-38.5 -16t-38.5 16t-15.5 38zM146 491v-450q0 -22 -12 -34.5t-32 -12.5t-32 12.5t-12 34.5v450q0 22 12 34.5 t32 12.5t32 -12.5t12 -34.5z" unicode="ï"/>
<glyph glyph-name="eth" horiz-adv-x="538" unicode="ð" d="M123 262q0 -76 37.5 -134t108.5 -58t108.5 58t37.5 134t-37.5 134t-108.5 58t-108.5 -58t-37.5 -134zM35 262q0 109 62 189.5t166 80.5q36 0 70.5 -16.5t55.5 -43.5l2 2q-32 87 -121 161l-87 -42q-18 -9 -29 -9q-9 0 -16.5 7.5t-7.5 19.5q0 15 17 23l77 37 q-17 13 -42.5 24t-38.5 20t-13 26q0 14 10.5 22.5t26.5 8.5q23 0 62.5 -18t72.5 -43l92 46q18 9 29 9q24 0 24 -24q0 -18 -21 -29l-78 -38q155 -139 155 -376q0 -139 -60.5 -222t-179.5 -83q-104 0 -166 80.5t-62 187.5z"/>
<glyph glyph-name="ntilde" horiz-adv-x="538" unicode="ñ" d="M120 655q0 24 26.5 43.5t66.5 19.5q24 0 57.5 -10t52.5 -10q15 0 33 10t29 10q12 0 22.5 -12t10.5 -27q0 -24 -26.5 -43.5t-66.5 -19.5q-24 0 -57.5 10t-52.5 10q-15 0 -33 -10t-29 -10q-12 0 -22.5 12t-10.5 27zM58 41v450q0 22 12 34.5t32 12.5t32 -12.5t12 -34.5v-21 l2 -2q55 70 147 70q33 0 64 -11t59 -33.5t45 -63t17 -94.5v-295q0 -22 -12 -34.5t-32 -12.5t-32 12.5t-12 34.5v290q0 65 -37 98t-86 33t-86 -33t-37 -98v-290q0 -22 -12 -34.5t-32 -12.5t-32 12.5t-12 34.5z"/>
<glyph glyph-name="ograve" horiz-adv-x="538" unicode="ò" d="M308 616l-115 47q-35 14 -35 37q0 14 10 28t28 14q12 0 34 -9l115 -47q35 -14 35 -37q0 -14 -10 -28t-28 -14q-12 0 -34 9zM123 266q0 -78 36 -137t110 -59t110 59t36 137t-36 137t-110 59t-110 -59t-36 -137zM35 266q0 112 63 192t171 80t171 -80t63 -192t-63 -192 t-171 -80t-171 80t-63 192z"/>
<glyph glyph-name="oacute" horiz-adv-x="538" unicode="ó" d="M345 663l-115 -47q-22 -9 -34 -9q-18 0 -28 14t-10 28q0 23 35 37l115 47q22 9 34 9q18 0 28 -14t10 -28q0 -23 -35 -37zM123 266q0 -78 36 -137t110 -59t110 59t36 137t-36 137t-110 59t-110 -59t-36 -137zM35 266q0 112 63 192t171 80t171 -80t63 -192t-63 -192 t-171 -80t-171 80t-63 192z"/>
<glyph glyph-name="ocircumflex" horiz-adv-x="538" unicode="ô" d="M140 680l129 55l129 -55q23 -10 23 -35q0 -16 -10 -27t-26 -11q-11 0 -22 5l-94 37l-94 -37q-11 -5 -22 -5q-16 0 -26 11t-10 27q0 25 23 35zM123 266q0 -78 36 -137t110 -59t110 59t36 137t-36 137t-110 59t-110 -59t-36 -137zM35 266q0 112 63 192t171 80t171 -80 t63 -192t-63 -192t-171 -80t-171 80t-63 192z"/>
<glyph glyph-name="otilde" horiz-adv-x="538" unicode="õ" d="M120 655q0 24 26.5 43.5t66.5 19.5q24 0 57.5 -10t52.5 -10q15 0 33 10t29 10q12 0 22.5 -12t10.5 -27q0 -24 -26.5 -43.5t-66.5 -19.5q-24 0 -57.5 10t-52.5 10q-15 0 -33 -10t-29 -10q-12 0 -22.5 12t-10.5 27zM123 266q0 -78 36 -137t110 -59t110 59t36 137t-36 137 t-110 59t-110 -59t-36 -137zM35 266q0 112 63 192t171 80t171 -80t63 -192t-63 -192t-171 -80t-171 80t-63 192z"/>
<glyph glyph-name="odieresis" horiz-adv-x="538" unicode="ö" d="M308 658q0 22 16 38t38 16t38 -16t16 -38t-16 -38t-38 -16t-38 16t-16 38zM122 658q0 22 16 38t38 16t38 -16t16 -38t-16 -38t-38 -16t-38 16t-16 38zM123 266q0 -78 36 -137t110 -59t110 59t36 137t-36 137t-110 59t-110 -59t-36 -137zM35 266q0 112 63 192t171 80 t171 -80t63 -192t-63 -192t-171 -80t-171 80t-63 192z"/>
<glyph glyph-name="divide" horiz-adv-x="600" unicode="÷" d="M228 46q0 30 21 51t51 21t51 -21t21 -51t-21 -51t-51 -21t-51 21t-21 51zM228 460q0 30 21 51t51 21t51 -21t21 -51t-21 -51t-51 -21t-51 21t-21 51zM510 212h-420q-43 0 -43 41t43 41h420q43 0 43 -41t-43 -41z"/>
<glyph glyph-name="oslash" horiz-adv-x="538" unicode="ø" d="M395 370l-218 -263q35 -37 92 -37q74 0 110 59t36 137q0 60 -20 104zM143 162l218 263q-35 37 -92 37q-74 0 -110 -59t-36 -137q0 -58 20 -104zM41 39l45 54q-51 69 -51 173q0 112 63 192t171 80q84 0 143 -51l41 50q15 19 31 19q13 0 22 -8t9 -20q0 -14 -14 -31l-48 -57 q50 -76 50 -174q0 -112 -63 -192t-171 -80q-84 0 -142 52l-42 -51q-14 -19 -32 -19q-12 0 -21 8.5t-9 19.5q0 14 18 35z"/>
<glyph glyph-name="ugrave" horiz-adv-x="538" unicode="ù" d="M308 616l-115 47q-35 14 -35 37q0 14 10 28t28 14q12 0 34 -9l115 -47q35 -14 35 -37q0 -14 -10 -28t-28 -14q-12 0 -34 9zM58 206v285q0 22 12 34.5t32 12.5t32 -12.5t12 -34.5v-282q0 -139 123 -139t123 139v282q0 22 12 34.5t32 12.5t32 -12.5t12 -34.5v-285 q0 -109 -60.5 -160.5t-150.5 -51.5t-150.5 51.5t-60.5 160.5z"/>
<glyph glyph-name="uacute" horiz-adv-x="538" unicode="ú" d="M345 663l-115 -47q-22 -9 -34 -9q-18 0 -28 14t-10 28q0 23 35 37l115 47q22 9 34 9q18 0 28 -14t10 -28q0 -23 -35 -37zM58 206v285q0 22 12 34.5t32 12.5t32 -12.5t12 -34.5v-282q0 -139 123 -139t123 139v282q0 22 12 34.5t32 12.5t32 -12.5t12 -34.5v-285 q0 -109 -60.5 -160.5t-150.5 -51.5t-150.5 51.5t-60.5 160.5z"/>
<glyph glyph-name="ucircumflex" horiz-adv-x="538" unicode="û" d="M140 680l129 55l129 -55q23 -10 23 -35q0 -16 -10 -27t-26 -11q-11 0 -22 5l-94 37l-94 -37q-11 -5 -22 -5q-16 0 -26 11t-10 27q0 25 23 35zM58 206v285q0 22 12 34.5t32 12.5t32 -12.5t12 -34.5v-282q0 -139 123 -139t123 139v282q0 22 12 34.5t32 12.5t32 -12.5 t12 -34.5v-285q0 -109 -60.5 -160.5t-150.5 -51.5t-150.5 51.5t-60.5 160.5z"/>
<glyph glyph-name="udieresis" horiz-adv-x="538" unicode="ü" d="M308 658q0 22 16 38t38 16t38 -16t16 -38t-16 -38t-38 -16t-38 16t-16 38zM122 658q0 22 16 38t38 16t38 -16t16 -38t-16 -38t-38 -16t-38 16t-16 38zM58 206v285q0 22 12 34.5t32 12.5t32 -12.5t12 -34.5v-282q0 -139 123 -139t123 139v282q0 22 12 34.5t32 12.5 t32 -12.5t12 -34.5v-285q0 -109 -60.5 -160.5t-150.5 -51.5t-150.5 51.5t-60.5 160.5z"/>
<glyph glyph-name="yacute" horiz-adv-x="444" unicode="ý" d="M298 663l-115 -47q-22 -9 -34 -9q-18 0 -28 14t-10 28q0 23 35 37l115 47q22 9 34 9q18 0 28 -14t10 -28q0 -23 -35 -37zM179 19l-150 433q-12 36 -12 49q0 16 12 26.5t28 10.5q34 0 44 -33l122 -365h2l120 365q10 33 42 33q16 0 28 -10.5t12 -26.5q0 -13 -12 -49 l-222 -635q-12 -33 -43 -33q-16 0 -28 10.5t-12 26.5q0 14 13 49z"/>
<glyph glyph-name="thorn" horiz-adv-x="556" unicode="þ" d="M62 -169v894q0 22 12 34.5t32 12.5t32 -12.5t12 -34.5v-260h2q38 73 142 73t165.5 -80t61.5 -192t-61.5 -192t-165.5 -80q-48 0 -85 21.5t-57 50.5h-2v-235q0 -22 -12 -34.5t-32 -12.5t-32 12.5t-12 34.5zM141 266q0 -78 36 -137t110 -59t110 59t36 137t-36 137t-110 59 t-110 -59t-36 -137z"/>
<glyph glyph-name="OE" horiz-adv-x="926" unicode="Œ" d="M554 48v56h-2q-34 -49 -90 -79.5t-119 -30.5q-97 0 -170 52.5t-107.5 133.5t-34.5 176t34.5 176t107.5 133.5t170 52.5q121 0 211 -100v46q0 48 47 48h241q43 0 43 -41t-43 -41h-200v-233h193q43 0 43 -41t-43 -41h-193v-233h210q43 0 43 -41t-43 -41h-251q-47 0 -47 48z M125 356q0 -73 20 -135t71 -106.5t127 -44.5t127 44.5t71 106.5t20 135t-20 135t-71 106.5t-127 44.5t-127 -44.5t-71 -106.5t-20 -135z"/>
<glyph glyph-name="oe" horiz-adv-x="907" unicode="œ" d="M268 462q-50 0 -84.5 -31t-47.5 -73.5t-13 -91.5t13 -91.5t47.5 -73.5t84.5 -31t84.5 31t47.5 73.5t13 91.5t-13 91.5t-47.5 73.5t-84.5 31zM35 266q0 112 62.5 192t168.5 80q121 0 193 -104q28 48 77 76t111 28q107 0 170.5 -78t63.5 -181q0 -24 -11 -35.5t-38 -11.5 h-331q0 -70 42.5 -115t118.5 -45h4q37 1 67.5 11.5t46 23.5t31.5 23.5t27 11.5q13 0 22.5 -10.5t9.5 -28.5q1 -21 -29 -46.5t-80 -44t-99 -18.5q-143 0 -203 104q-75 -104 -193 -104q-106 0 -168.5 80t-62.5 192zM501 298h292q0 64 -37.5 114t-108.5 50t-108.5 -50 t-37.5 -114z"/>
<glyph glyph-name="Scaron" horiz-adv-x="481" unicode="Š" d="M241 767l-129 55q-23 10 -23 35q0 16 10 27t26 11q11 0 22 -5l94 -37l94 37q11 5 22 5q16 0 26 -11t10 -27q0 -25 -23 -35zM238 718q68 0 121.5 -24.5t53.5 -58.5q0 -16 -11 -27.5t-27 -11.5q-15 0 -32 11.5t-43.5 23t-64.5 11.5q-49 0 -81 -28t-32 -73q0 -32 18.5 -54.5 t48.5 -36.5t66 -26t72 -27.5t66 -36t48.5 -56.5t18.5 -85q0 -93 -65 -159t-176 -66q-74 0 -136 25t-62 61q0 19 9.5 32t27.5 13q11 0 33 -13.5t56 -27.5t73 -14q66 0 106 42t40 103q0 39 -25 66t-62.5 40t-81.5 30t-81.5 35t-62.5 56t-25 93q0 68 58.5 125.5t151.5 57.5z "/>
<glyph glyph-name="scaron" horiz-adv-x="444" unicode="š" d="M222 607l-129 55q-23 10 -23 35q0 16 10 27t26 11q11 0 22 -5l94 -37l94 37q11 5 22 5q16 0 26 -11t10 -27q0 -25 -23 -35zM46 388q0 69 54.5 109.5t126.5 40.5q60 0 118.5 -27.5t58.5 -66.5q0 -15 -10.5 -25.5t-29.5 -10.5q-15 0 -32 13.5t-43 27t-62 13.5 q-40 0 -66.5 -17.5t-26.5 -49.5q0 -25 29.5 -45t71 -35t83 -33t71 -49.5t29.5 -74.5q0 -79 -57 -121.5t-137 -42.5t-140 32.5t-60 68.5q0 18 10.5 29t25.5 11t37 -16.5t55 -32.5t75 -16q46 0 74.5 21.5t28.5 50.5q0 28 -29.5 50.5t-71 39t-83 35t-71 49.5t-29.5 72z"/>
<glyph glyph-name="Ydieresis" horiz-adv-x="500" unicode="Ÿ" d="M289 818q0 22 15.5 38t38.5 16t38.5 -16t15.5 -38t-15.5 -38t-38.5 -16t-38.5 16t-15.5 38zM103 818q0 22 15.5 38t38.5 16t38.5 -16t15.5 -38t-15.5 -38t-38.5 -16t-38.5 16t-15.5 38zM206 41v293l-191 311q-14 22 -14 37q0 16 11.5 26t28.5 10q27 0 44 -28l165 -269 l165 269q17 28 44 28q17 0 28.5 -10t11.5 -26q0 -15 -14 -37l-191 -311v-293q0 -22 -12 -34.5t-32 -12.5t-32 12.5t-12 34.5z"/>
<glyph glyph-name="circumflex" d="M-27 680l129 55l129 -55q23 -10 23 -35q0 -16 -10 -27t-26 -11q-11 0 -22 5l-94 37l-94 -37q-11 -5 -22 -5q-16 0 -26 11t-10 27q0 25 23 35z" unicode="ˆ"/>
<glyph glyph-name="tilde" d="M-47 655q0 24 26.5 43.5t66.5 19.5q24 0 57.5 -10t52.5 -10q15 0 33 10t29 10q12 0 22.5 -12t10.5 -27q0 -24 -26.5 -43.5t-66.5 -19.5q-24 0 -57.5 10t-52.5 10q-15 0 -33 -10t-29 -10q-12 0 -22.5 12t-10.5 27z" unicode="˜"/>
<glyph glyph-name="uni03BC" horiz-adv-x="538" unicode="μ" d="M58 -169v660q0 22 12 34.5t32 12.5t32 -12.5t12 -34.5v-282q0 -75 27.5 -107t95.5 -32t95.5 32t27.5 107v282q0 22 12 34.5t32 12.5t32 -12.5t12 -34.5v-450q0 -22 -12 -34.5t-32 -12.5q-33 0 -41 29q-48 -29 -126 -29q-81 0 -123 46v-209q0 -22 -12 -34.5t-32 -12.5 t-32 12.5t-12 34.5z"/>
<glyph glyph-name="pi" horiz-adv-x="557" unicode="π" d="M531 448h-76v-302q0 -92 14 -146h-79q-17 29 -17 140v308h-166q-5 -106 -25 -243t-45 -205h-80q26 79 45.5 212.5t22.5 235.5q-74 0 -105 -11l-11 55q42 28 142 28h388z"/>
<glyph glyph-name="endash" horiz-adv-x="500" unicode="–" d="M462 230h-424q-16 0 -27 11t-11 27t11 27t27 11h424q16 0 27 -11t11 -27t-11 -27t-27 -11z"/>
<glyph glyph-name="emdash" horiz-adv-x="1000" unicode="—" d="M0 306h1000q16 0 27 -11t11 -27t-11 -27t-27 -11h-1000q-16 0 -27 11t-11 27t11 27t27 11z"/>
<glyph glyph-name="quoteleft" d="M36 571l56 110q19 37 47 37q16 0 28 -11t12 -27q0 -15 -11 -37l-56 -110q-19 -37 -47 -37q-16 0 -28 11t-12 27q0 15 11 37z" unicode="‘"/>
<glyph glyph-name="quotesinglbase" d="M36 -51l56 110q19 37 47 37q16 0 28 -11t12 -27q0 -15 -11 -37l-56 -110q-19 -37 -47 -37q-16 0 -28 11t-12 27q0 15 11 37z" unicode="‚"/>
<glyph glyph-name="quotedblleft" horiz-adv-x="334" unicode="“" d="M30 571l56 110q19 37 47 37q16 0 28 -11t12 -27q0 -15 -11 -37l-56 -110q-19 -37 -47 -37q-16 0 -28 11t-12 27q0 15 11 37zM172 571l56 110q19 37 47 37q16 0 28 -11t12 -27q0 -15 -11 -37l-56 -110q-19 -37 -47 -37q-16 0 -28 11t-12 27q0 15 11 37z"/>
<glyph glyph-name="quotedblright" horiz-adv-x="334" unicode="”" d="M30 571l56 110q19 37 47 37q16 0 28 -11t12 -27q0 -15 -11 -37l-56 -110q-19 -37 -47 -37q-16 0 -28 11t-12 27q0 15 11 37zM172 571l56 110q19 37 47 37q16 0 28 -11t12 -27q0 -15 -11 -37l-56 -110q-19 -37 -47 -37q-16 0 -28 11t-12 27q0 15 11 37z"/>
<glyph glyph-name="dagger" horiz-adv-x="612" unicode="†" d="M265 470v205q0 43 41 43t41 -43v-205h195q43 0 43 -41t-43 -41h-195v-561q0 -43 -41 -43t-41 43v561h-195q-43 0 -43 41t43 41h195z"/>
<glyph glyph-name="daggerdbl" horiz-adv-x="612" unicode="‡" d="M265 94v314h-195q-43 0 -43 41t43 41h195v185q0 43 41 43t41 -43v-185h195q43 0 43 -41t-43 -41h-195v-314h195q43 0 43 -41t-43 -41h-195v-185q0 -43 -41 -43t-41 43v185h-195q-43 0 -43 41t43 41h195z"/>
<glyph glyph-name="ellipsis" horiz-adv-x="1000" unicode="…" d="M782 45q0 21 15 36t36 15t36 -15t15 -36t-15 -36t-36 -15t-36 15t-15 36zM449 45q0 21 15 36t36 15t36 -15t15 -36t-15 -36t-36 -15t-36 15t-15 36zM116 45q0 21 15 36t36 15t36 -15t15 -36t-15 -36t-36 -15t-36 15t-15 36z"/>
<glyph glyph-name="perthousand" horiz-adv-x="1093" unicode="‰" d="M211 58l266 638q13 30 35 30q17 0 26 -8.5t9 -18.5q0 -9 -14 -45l-266 -638q-13 -30 -37 -30q-15 0 -24 8t-9 19t14 45zM895 48q44 0 65 34.5t21 80.5t-21 80.5t-65 34.5t-65 -34.5t-21 -80.5t21 -80.5t65 -34.5zM895 -6q-72 0 -112 49t-40 120t40 120t112 49t112 -49 t40 -120t-40 -120t-112 -49zM198 434q44 0 65 34.5t21 80.5t-21 80.5t-65 34.5t-65 -34.5t-21 -80.5t21 -80.5t65 -34.5zM198 380q-72 0 -112 49t-40 120t40 120t112 49t112 -49t40 -120t-40 -120t-112 -49zM545 48q44 0 65 34.5t21 80.5t-21 80.5t-65 34.5t-65 -34.5 t-21 -80.5t21 -80.5t65 -34.5zM545 -6q-72 0 -112 49t-40 120t40 120t112 49t112 -49t40 -120t-40 -120t-112 -49z"/>
<glyph glyph-name="guilsinglleft" horiz-adv-x="259" unicode="‹" d="M43 268l99 178q15 26 34 26q16 0 28 -9t12 -26q0 -12 -11 -31l-83 -138l83 -138q11 -19 11 -31q0 -17 -12 -26t-28 -9q-19 0 -34 26z"/>
<glyph glyph-name="guilsinglright" horiz-adv-x="259" unicode="›" d="M54 130l83 138l-83 138q-11 19 -11 31q0 17 12 26t28 9q19 0 34 -26l99 -178l-99 -178q-15 -26 -34 -26q-16 0 -28 9t-12 26q0 12 11 31z"/>
<glyph glyph-name="fraction" horiz-adv-x="168" unicode="⁄" d="M-77 58l266 638q13 30 35 30q17 0 26 -8.5t9 -18.5q0 -12 -14 -45l-266 -638q-13 -30 -37 -30q-15 0 -24 8t-9 19t14 45z"/>
<glyph glyph-name="Euro" horiz-adv-x="536" unicode="€" d="M493 676v-86q-50 48 -141 48q-75 0 -117 -47.5t-51 -130.5h270l-23 -67h-255q-1 -10 -1 -35q0 -28 1 -37h230l-23 -67h-199q11 -89 53.5 -135.5t115.5 -46.5q86 0 140 48v-87q-46 -38 -152 -38q-211 0 -244 259h-73l22 67h44q-1 9 -1 37q0 25 1 35h-66l22 67h50 q34 257 245 257q98 0 152 -41z"/>
<glyph glyph-name="trademark" horiz-adv-x="990" unicode="™" d="M474 336v315q0 67 63 67q51 0 67 -39l100 -261l98 261q16 39 67 39q63 0 63 -67v-315q0 -16 -11 -27t-27 -11t-27 11t-11 27v288h-2l-108 -289q-14 -37 -43 -37t-43 37l-108 289h-2v-288q0 -16 -11 -27t-27 -11t-27 11t-11 27zM185 341v305h-95q-32 0 -32 33t32 33h272 q32 0 32 -33t-32 -33h-95v-305q0 -43 -41 -43t-41 43z"/>
<glyph glyph-name="partialdiff" horiz-adv-x="533" unicode="∂" d="M236 68h1q63 0 105 73t52 175q-12 38 -48 70.5t-85 32.5q-57 0 -98 -56t-41 -134q0 -71 31.5 -116t82.5 -45zM99 673l-27 62q70 55 164 55q104 0 176.5 -97.5t72.5 -279.5q0 -186 -67 -300t-189 -114q-90 0 -139 68.5t-49 162.5q0 114 60.5 185t145.5 71q57 0 98 -29.5 t57 -59.5h1q1 10 1 41q0 123 -51 203t-126 80q-69 0 -128 -48z"/>
<glyph glyph-name="product" horiz-adv-x="680" unicode="∏" d="M654 622h-104v-718h-81v718h-259v-718h-81v718h-104v76h629v-76z"/>
<glyph glyph-name="summation" horiz-adv-x="536" unicode="∑" d="M514 -96h-491v55l255 341l-245 339v59h466v-72h-353v-3l225 -310l-245 -327v-4h388v-78z"/>
<glyph glyph-name="minus" horiz-adv-x="600" unicode="−" d="M510 212h-420q-43 0 -43 41t43 41h420q43 0 43 -41t-43 -41z"/>
<glyph glyph-name="radical" horiz-adv-x="559" unicode="√" d="M559 831l-215 -978h-71l-152 459l-73 -28l-15 50l139 54l118 -359q2 -8 9 -36.5t9 -39.5h1q6 36 13 77l177 801h60z"/>
<glyph glyph-name="infinity" horiz-adv-x="759" unicode="∞" d="M561 394h-1q-18 0 -36 -7t-36 -21.5t-28.5 -24.5t-27.5 -29.5t-21 -23.5q52 -60 83.5 -83.5t68.5 -23.5q43 0 69 32t26 72q0 50 -27 79.5t-70 29.5zM204 181h1q13 0 25 3t25 10.5t21 12.5t22 18.5t18.5 18t19.5 21t17 18.5q-23 29 -34 41.5t-32.5 33t-42.5 28.5t-46 8 q-44 0 -70 -32t-26 -78q0 -44 28.5 -73.5t73.5 -29.5zM710 290v-1q0 -70 -45 -114t-105 -44q-45 0 -86 27t-93 88q-47 -55 -89 -85t-95 -30q-61 0 -104.5 44.5t-43.5 109.5q0 69 44 113.5t111 44.5q50 0 92.5 -30.5t87.5 -84.5q57 63 85 83q46 32 97 32q64 -1 104 -43 t40 -110z"/>
<glyph glyph-name="approxequal" horiz-adv-x="544" unicode="≈" d="M467 262l32 -29q-47 -95 -126 -95q-27 0 -49 9t-63 32q-59 34 -90 34q-30 0 -51 -19t-44 -55l-33 28q22 44 57.5 70t76.5 26q17 0 35 -5t26 -8.5t27 -14.5t20 -11q4 -2 15 -8.5t15 -8.5t13.5 -7t15.5 -6.5t15 -3t17 -1.5q28 0 48 17.5t43 55.5zM467 431l32 -28 q-47 -95 -126 -95q-27 0 -50 9t-62 31q-57 34 -90 34q-21 0 -39.5 -11.5t-29 -24.5t-26.5 -37l-33 28q22 44 57 69.5t78 25.5q13 0 26 -2.5t25 -7.5t20 -9t20 -11t16 -9t14 -7.5t14 -7.5t11.5 -6t12.5 -5.5t12 -4t13.5 -3t13.5 -0.5q49 0 91 72z"/>
<glyph glyph-name="notequal" horiz-adv-x="544" unicode="≠" d="M388 500l-42 -94h148v-52h-168l-65 -141h233v-52h-253l-51 -114l-42 18l44 96h-143v52h164l63 141h-227v52h247l51 112z"/>
<glyph glyph-name="lessequal" horiz-adv-x="544" unicode="≤" d="M494 5h-444v54h444v-54zM491 98l-436 221v56l436 221v-63l-382 -184v-2l382 -186v-63z"/>
<glyph glyph-name="greaterequal" horiz-adv-x="544" unicode="≥" d="M493 5h-443v54h443v-54zM56 596l436 -221v-56l-436 -221v63l381 185v2l-381 185v63z"/>
<glyph glyph-name="lozenge" horiz-adv-x="559" unicode="◊" d="M431 346l-132 271q-14 33 -18 55h-3q-10 -33 -19 -55l-132 -267l133 -273q13 -30 17 -53h4q7 32 17 52zM506 348l-195 -393h-67l-192 393l195 394h67z"/>
</font>
</defs>
</svg>
