
<svg version="1.1" id="Layer_1" xmlns="http://www.w3.org/2000/svg" xmlns:xlink="http://www.w3.org/1999/xlink" x="0px" y="0px"
	 viewBox="0 0 612 792" style="enable-background:new 0 0 612 792;" xml:space="preserve">
<style type="text/css">
	.st0{fill:none;stroke:#000000;stroke-width:2;stroke-linecap:round;stroke-linejoin:round;stroke-miterlimit:10;}
</style>
<path d="M303.8,384.8h5.8v0.6c-0.9-0.2-1.9-0.2-2.9-0.2c-1,0-2,0.1-2.9,0.2V384.8z M306.7,387.4c10.7,0,12.8,6.5,14.1,11.5
	c0.2,0.9-0.3,1.9-1.2,2.1c-2,0.6-6.1,1.4-13.2,1.4c-7.1,0-11-0.8-12.9-1.4c-0.9-0.3-1.2-1.1-1.2-2
	C292.8,394.4,296.2,387.4,306.7,387.4z M311.6,385.9v-2.1c0-0.6-0.4-1-1-1h-2.9h-2h-2.9c-0.6,0-1,0.4-1,1v2.1
	c-5.3,1.1-10.8,5.7-11.7,13.9c-0.1,1.3,0.7,2.5,1.9,2.9c4,1.4,7.2,1.7,14.4,1.8c8.2,0,12.7-1,15-1.9c1.3-0.5,2.1-1.9,1.7-3.3
	C322.3,395.3,319.6,387.1,311.6,385.9z"/>
<g>
	<path d="M291.8,406.2c2.7,0.9,7.3,1.9,14.9,1.9c7.6,0,12.3-0.9,14.9-1.6v2c-1.3,0.6-5,1.8-14.9,1.8c-10.5,0-13.9-1.7-14.9-2.4
		V406.2 M291.5,404c-0.9,0-1.7,0.7-1.7,1.7v2.3c0,0.5,0.2,1,0.6,1.3c1.3,1,5.2,3,16.3,3c10.5,0,14.5-1.3,16.1-2.2
		c0.5-0.3,0.9-0.9,0.9-1.5V406c0-1-0.8-1.7-1.7-1.7c-0.2,0-0.3,0-0.5,0.1c-2.4,0.7-6.9,1.6-14.7,1.6c-7.7,0-12.3-1-14.6-1.9
		C291.9,404.1,291.7,404,291.5,404L291.5,404z"/>
</g>
<line class="st0" x1="302.1" y1="380.6" x2="311.3" y2="380.6"/>
</svg>
