<?xml version="1.0"?>
<svg width="612" height="792" xmlns="http://www.w3.org/2000/svg">
 <style type="text/css">.st0{fill:none;stroke:#000000;stroke-width:2;stroke-linecap:round;stroke-linejoin:round;stroke-miterlimit:10;}</style>

 <g>
  <title>background</title>
  <rect fill="none" id="canvas_background" height="402" width="582" y="-1" x="-1"/>
 </g>
 <g>
  <title>Layer 1</title>
  <path id="svg_1" d="m17.799988,6.799988l5.799988,0l0,0.600006c-0.899994,-0.200012 -1.899994,-0.200012 -2.899994,-0.200012c-1,0 -2,0.100006 -2.899994,0.200012l0,-0.600006zm2.900024,2.600006c10.700012,0 12.799988,6.5 14.100006,11.5c0.199982,0.899994 -0.300018,1.899994 -1.200012,2.100006c-2,0.599976 -6.100006,1.399994 -13.199982,1.399994c-7.100006,0 -11,-0.800018 -12.900024,-1.399994c-0.899994,-0.300018 -1.199982,-1.100006 -1.199982,-2c0.499969,-4.600006 3.899994,-11.600006 14.399994,-11.600006zm4.899994,-1.5l0,-2.100006c0,-0.600006 -0.399994,-1 -1,-1l-2.899994,0l-2,0l-2.899994,0c-0.600006,0 -1,0.399994 -1,1l0,2.100006c-5.300018,1.100006 -10.800018,5.699982 -11.700012,13.899994c-0.100006,1.299988 0.700012,2.5 1.899994,2.899994c4,1.399994 7.200012,1.700012 14.400024,1.800018c8.199982,0 12.699982,-1 15,-1.900024c1.299988,-0.5 2.099976,-1.899994 1.699982,-3.299988c-0.800018,-4 -3.5,-12.199982 -11.5,-13.399994z"/>
  <g id="svg_2">
   <path id="svg_3" d="m5.799988,28.200012c2.700012,0.899994 7.299988,1.899994 14.899994,1.899994c7.600006,0 12.300018,-0.899994 14.899994,-1.600006l0,2c-1.299988,0.600006 -5,1.800018 -14.899994,1.800018c-10.5,0 -13.899994,-1.700012 -14.899994,-2.399994l0,-1.700012m-0.299988,-2.200012c-0.899994,0 -1.700012,0.700012 -1.700012,1.700012l0,2.299988c0,0.5 0.200012,1 0.600006,1.299988c1.300018,1 5.200012,3 16.300018,3c10.5,0 14.5,-1.299988 16.099976,-2.199982c0.5,-0.300018 0.900024,-0.899994 0.900024,-1.5l0,-2.600006c0,-1 -0.800018,-1.700012 -1.700012,-1.700012c-0.200012,0 -0.299988,0 -0.5,0.100006c-2.399994,0.700012 -6.899994,1.600006 -14.700012,1.600006c-7.699982,0 -12.299988,-1 -14.599976,-1.899994c-0.300018,0 -0.5,-0.100006 -0.700012,-0.100006l0,0z"/>
  </g>
  <line id="svg_4" y2="2.6" x2="25.3" y1="2.6" x1="16.1" class="st0"/>
 </g>
</svg>