
<svg width="58px" height="40px" viewBox="0 0 58 40" xmlns="http://www.w3.org/2000/svg"><g fill="none" fill-rule="evenodd"><g fill-rule="nonzero"><path d="M22,0 L22,16 L-5.21567593e-05,16 L2.46859282e-16,2 C-0.0017169333,1.77117262 0.038969459,1.54400693 0.12,1.33 C0.36809392,0.625649753 0.989918183,0.119693366 1.73,0.02 C1.81956554,0.00839106185 1.90970152,0.00171432282 2,0 L22,0 Z" fill="#285680"/><path d="M22,0 L22,16 L0,16 L0,2 C0.00322381203,0.896768606 0.896768606,0.00322381203 2,1.77635684e-15 L22,0 Z" fill="#285680"/><path d="M58,2 L58,38 C57.9967543,39.1032223 57.1032223,39.9967543 56,40 L2,40 C0.896777692,39.9967543 0.00324565669,39.1032223 0,38 L0,16 L22,16 L22,0 L56,0 C57.1032314,0.00322381203 57.9967762,0.896768606 58,2 Z" fill="#285680"/><path d="M22,13.53 L22,16 L18.6,16 L0,2.47 L0,2 C0.00322381203,0.896768606 0.896768606,0.00322381203 2,8.8817842e-16 L3.4,8.8817842e-16 L22,13.53 Z" fill="#ECF0F1"/><polygon fill="#ECF0F1" points="22 0 22 2.47 14.4 8 11 10.47 3.4 16 0 16 0 13.53 7.6 8 11 5.53 18.6 0"/><polygon fill="#ECF0F1" points="22 6 22 10 13 10 13 16 9 16 9 10 0 10 0 6 9 6 9 0 13 0 13 6"/><path d="M22,14.76 L22,16 L20.3,16 L13.16,10.81 C13.0996309,10.7680778 13.0457258,10.7175417 13,10.66 L13,10 L15.45,10 L22,14.76 Z" fill="#C03A2B"/><path d="M9,5.34 L9,6 L6.55,6 L0.44,1.56 L0.12,1.33 C0.36809392,0.625649753 0.989918183,0.119693366 1.73,0.02 L1.88,0.12 L8.84,5.19 C8.90038616,5.23190109 8.95429419,5.28243987 9,5.34 Z" fill="#C03A2B"/><path d="M9,10 L9,10.66 C8.95427421,10.7175417 8.90036908,10.7680778 8.84,10.81 L1.7,16 L0,16 L0,14.76 L6.55,10 L9,10 Z" fill="#C03A2B"/><path d="M22,0 L22,1.24 L15.45,6 L13,6 L13,5.34 C13.0457058,5.28243987 13.0996138,5.23190109 13.16,5.19 L20.3,0 L22,0 Z" fill="#C03A2B"/><polygon fill="#ECF0F1" points="11.846 20 13.215 23.469 16.781 22.377 14.923 25.61 18 27.717 14.313 28.28 14.585 32 11.846 29.469 9.107 32 9.378 28.28 5.691 27.717 8.769 25.61 6.91 22.377 10.476 23.469"/><polygon fill="#ECF0F1" points="44.5 2 45.279 3.973 47.307 3.352 46.25 5.191 48 6.389 45.903 6.709 46.058 8.824 44.5 7.385 42.942 8.824 43.097 6.709 41 6.389 42.75 5.191 41.693 3.352 43.721 3.973"/><polygon fill="#ECF0F1" points="39.5 10 40.279 11.973 42.307 11.352 41.25 13.191 43 14.389 40.903 14.709 41.058 16.824 39.5 15.385 37.942 16.824 38.097 14.709 36 14.389 37.75 13.191 36.693 11.352 38.721 11.973"/><polygon fill="#ECF0F1" points="51.5 8.176 52.279 10.148 54.307 9.527 53.25 11.366 55 12.564 52.903 12.885 53.058 15 51.5 13.561 49.942 15 50.097 12.885 48 12.564 49.75 11.366 48.693 9.527 50.721 10.148"/><polygon fill="#ECF0F1" points="43.5 23.176 44.279 25.148 46.307 24.527 45.25 26.366 47 27.564 44.903 27.885 45.058 30 43.5 28.561 41.942 30 42.097 27.885 40 27.564 41.75 26.366 40.693 24.527 42.721 25.148"/><rect fill="#C03A2B" y="7" width="22" height="2"/><rect fill="#C03A2B" x="10" width="2" height="16"/><polygon fill="#ECF0F1" points="49.846 17 50.495 18.317 51.949 18.528 50.897 19.553 51.145 21 49.846 20.317 48.546 21 48.794 19.553 47.743 18.528 49.196 18.317"/></g></g></svg>