
<svg width="58px" height="40px" viewBox="0 0 58 40" xmlns="http://www.w3.org/2000/svg"><g fill="none" fill-rule="evenodd"><g fill-rule="nonzero"><path d="M45,40 L56,40 C57.1045695,40 58,39.1045695 58,38 L58,2 C58,0.8954305 57.1045695,0 56,0 L2,0 C0.8954305,0 2.22044605e-16,0.8954305 0,2 L0,38 C2.22044605e-16,39.1045695 0.8954305,40 2,40 L45,40 Z" fill="#2C2F38"/><path d="M58,2 L58,38 C57.9967543,39.1032223 57.1032223,39.9967543 56,40 L40,40 L40,0 L56,0 C57.1032314,0.00322381203 57.9967762,0.896768606 58,2 Z" fill="#C03A2B"/><rect fill="#F0C419" x="18" width="22" height="40"/></g></g></svg>