<svg width="58px" height="40px" viewBox="0 0 58 40" xmlns="http://www.w3.org/2000/svg"><g fill="none" fill-rule="evenodd"><g fill-rule="nonzero"><path d="M58,36 L58,38 C57.9967543,39.1032223 57.1032223,39.9967543 56,40 L2,40 C0.896777692,39.9967543 0.00324565669,39.1032223 0,38 L0,36 L58,36 Z" fill="#E6E7E8"/><path d="M58,2 L58,36 L0,36 L0,2 C0.00322381203,0.896768606 0.896768606,0.00322381203 2,0 L56,0 C57.1032314,0.00322381203 57.9967762,0.896768606 58,2 Z" fill="#C03A2B"/><path d="M2,0 L28,0 L28,20 L0,20 L0,2 C-1.11022302e-16,0.8954305 0.8954305,0 2,0 Z" fill="#285680"/><rect fill="#E6E7E8" x="28" y="4" width="30" height="4"/><rect fill="#E6E7E8" x="28" y="12" width="30" height="4"/><rect fill="#E6E7E8" y="20" width="58" height="4"/><polyline fill="#E6E7E8" points="36.32 32 58 32 58 28 0 28 0 32 21.68 32"/><polygon fill="#ECF0F1" points="2 1 2.464 1.939 3.5 2.09 2.75 2.821 2.927 3.853 2 3.366 1.073 3.853 1.25 2.821 0.5 2.09 1.536 1.939"/><polygon fill="#ECF0F1" points="6 1 6.464 1.939 7.5 2.09 6.75 2.821 6.927 3.853 6 3.366 5.073 3.853 5.25 2.821 4.5 2.09 5.536 1.939"/><polygon fill="#ECF0F1" points="10 1 10.464 1.939 11.5 2.09 10.75 2.821 10.927 3.853 10 3.366 9.073 3.853 9.25 2.821 8.5 2.09 9.536 1.939"/><polygon fill="#ECF0F1" points="14 1 14.464 1.939 15.5 2.09 14.75 2.821 14.927 3.853 14 3.366 13.073 3.853 13.25 2.821 12.5 2.09 13.536 1.939"/><polygon fill="#ECF0F1" points="18 1 18.464 1.939 19.5 2.09 18.75 2.821 18.927 3.853 18 3.366 17.073 3.853 17.25 2.821 16.5 2.09 17.536 1.939"/><polygon fill="#ECF0F1" points="22 1 22.464 1.939 23.5 2.09 22.75 2.821 22.927 3.853 22 3.366 21.073 3.853 21.25 2.821 20.5 2.09 21.536 1.939"/><polygon fill="#ECF0F1" points="26 1 26.464 1.939 27.5 2.09 26.75 2.821 26.927 3.853 26 3.366 25.073 3.853 25.25 2.821 24.5 2.09 25.536 1.939"/><polygon fill="#ECF0F1" points="4.25 4.787 4.714 5.726 5.75 5.877 5 6.608 5.177 7.64 4.25 7.152 3.323 7.64 3.5 6.608 2.75 5.877 3.786 5.726"/><polygon fill="#ECF0F1" points="8.25 4.787 8.714 5.726 9.75 5.877 9 6.608 9.177 7.64 8.25 7.152 7.323 7.64 7.5 6.608 6.75 5.877 7.786 5.726"/><polygon fill="#ECF0F1" points="12.25 4.787 12.714 5.726 13.75 5.877 13 6.608 13.177 7.64 12.25 7.152 11.323 7.64 11.5 6.608 10.75 5.877 11.786 5.726"/><polygon fill="#ECF0F1" points="16.25 4.787 16.714 5.726 17.75 5.877 17 6.608 17.177 7.64 16.25 7.152 15.323 7.64 15.5 6.608 14.75 5.877 15.786 5.726"/><polygon fill="#ECF0F1" points="20.25 4.787 20.714 5.726 21.75 5.877 21 6.608 21.177 7.64 20.25 7.152 19.323 7.64 19.5 6.608 18.75 5.877 19.786 5.726"/><polygon fill="#ECF0F1" points="24.25 4.787 24.714 5.726 25.75 5.877 25 6.608 25.177 7.64 24.25 7.152 23.323 7.64 23.5 6.608 22.75 5.877 23.786 5.726"/><polygon fill="#ECF0F1" points="2 8.573 2.464 9.513 3.5 9.663 2.75 10.394 2.927 11.427 2 10.939 1.073 11.427 1.25 10.394 0.5 9.663 1.536 9.513"/><polygon fill="#ECF0F1" points="6 8.573 6.464 9.513 7.5 9.663 6.75 10.394 6.927 11.427 6 10.939 5.073 11.427 5.25 10.394 4.5 9.663 5.536 9.513"/><polygon fill="#ECF0F1" points="10 8.573 10.464 9.513 11.5 9.663 10.75 10.394 10.927 11.427 10 10.939 9.073 11.427 9.25 10.394 8.5 9.663 9.536 9.513"/><polygon fill="#ECF0F1" points="14 8.573 14.464 9.513 15.5 9.663 14.75 10.394 14.927 11.427 14 10.939 13.073 11.427 13.25 10.394 12.5 9.663 13.536 9.513"/><polygon fill="#ECF0F1" points="18 8.573 18.464 9.513 19.5 9.663 18.75 10.394 18.927 11.427 18 10.939 17.073 11.427 17.25 10.394 16.5 9.663 17.536 9.513"/><polygon fill="#ECF0F1" points="22 8.573 22.464 9.513 23.5 9.663 22.75 10.394 22.927 11.427 22 10.939 21.073 11.427 21.25 10.394 20.5 9.663 21.536 9.513"/><polygon fill="#ECF0F1" points="26 8.573 26.464 9.513 27.5 9.663 26.75 10.394 26.927 11.427 26 10.939 25.073 11.427 25.25 10.394 24.5 9.663 25.536 9.513"/><polygon fill="#ECF0F1" points="2 16.147 2.464 17.086 3.5 17.237 2.75 17.968 2.927 19 2 18.513 1.073 19 1.25 17.968 0.5 17.237 1.536 17.086"/><polygon fill="#ECF0F1" points="6 16.147 6.464 17.086 7.5 17.237 6.75 17.968 6.927 19 6 18.513 5.073 19 5.25 17.968 4.5 17.237 5.536 17.086"/><polygon fill="#ECF0F1" points="10 16.147 10.464 17.086 11.5 17.237 10.75 17.968 10.927 19 10 18.513 9.073 19 9.25 17.968 8.5 17.237 9.536 17.086"/><polygon fill="#ECF0F1" points="14 16.147 14.464 17.086 15.5 17.237 14.75 17.968 14.927 19 14 18.513 13.073 19 13.25 17.968 12.5 17.237 13.536 17.086"/><polygon fill="#ECF0F1" points="18 16.147 18.464 17.086 19.5 17.237 18.75 17.968 18.927 19 18 18.513 17.073 19 17.25 17.968 16.5 17.237 17.536 17.086"/><polygon fill="#ECF0F1" points="22 16.147 22.464 17.086 23.5 17.237 22.75 17.968 22.927 19 22 18.513 21.073 19 21.25 17.968 20.5 17.237 21.536 17.086"/><polygon fill="#ECF0F1" points="26 16.147 26.464 17.086 27.5 17.237 26.75 17.968 26.927 19 26 18.513 25.073 19 25.25 17.968 24.5 17.237 25.536 17.086"/><polygon fill="#ECF0F1" points="4.25 12.36 4.714 13.299 5.75 13.45 5 14.181 5.177 15.213 4.25 14.726 3.323 15.213 3.5 14.181 2.75 13.45 3.786 13.299"/><polygon fill="#ECF0F1" points="8.25 12.36 8.714 13.299 9.75 13.45 9 14.181 9.177 15.213 8.25 14.726 7.323 15.213 7.5 14.181 6.75 13.45 7.786 13.299"/><polygon fill="#ECF0F1" points="12.25 12.36 12.714 13.299 13.75 13.45 13 14.181 13.177 15.213 12.25 14.726 11.323 15.213 11.5 14.181 10.75 13.45 11.786 13.299"/><polygon fill="#ECF0F1" points="16.25 12.36 16.714 13.299 17.75 13.45 17 14.181 17.177 15.213 16.25 14.726 15.323 15.213 15.5 14.181 14.75 13.45 15.786 13.299"/><polygon fill="#ECF0F1" points="20.25 12.36 20.714 13.299 21.75 13.45 21 14.181 21.177 15.213 20.25 14.726 19.323 15.213 19.5 14.181 18.75 13.45 19.786 13.299"/><polygon fill="#ECF0F1" points="24.25 12.36 24.714 13.299 25.75 13.45 25 14.181 25.177 15.213 24.25 14.726 23.323 15.213 23.5 14.181 22.75 13.45 23.786 13.299"/></g></g></svg>