<?xml version="1.0" standalone="no"?>
<!DOCTYPE svg PUBLIC "-//W3C//DTD SVG 1.1//EN" "http://www.w3.org/Graphics/SVG/1.1/DTD/svg11.dtd" >
<svg xmlns="http://www.w3.org/2000/svg" xmlns:xlink="http://www.w3.org/1999/xlink" version="1.1">
<metadata>
Created by FontForge 20170731 at Sun Sep 20 15:35:22 2015
 By Aleksey,,,
Copyright (c) 2015 Swiss Typefaces Sa`rl. All rights reserved.
</metadata>
<defs>
<font id="VillageFlex" horiz-adv-x="240" >
  <font-face 
    font-family="Village Flex"
    font-weight="400"
    font-stretch="normal"
    units-per-em="1000"
    panose-1="2 11 5 0 3 0 0 0 0 0"
    ascent="806"
    descent="-194"
    x-height="500"
    cap-height="710"
    bbox="-200 -1029.75 1445 940"
    underline-thickness="75"
    underline-position="-238"
    unicode-range="U+0020-FB02"
  />
<missing-glyph horiz-adv-x="500" 
d="M0 0v710h500v-710h-500zM239 355l-220 327v-654zM260 355l221 -327v654zM250 339l-216 -320h432zM34 691l216 -321l216 321h-432z" />
    <glyph glyph-name="f_t" unicode="ft" horiz-adv-x="636" 
d="M194 422v-422h-85v422h-87v78h84q-37 35 -37 88t40.5 87.5t105.5 34.5h104v-78h-90q-34 0 -55 -16t-21 -47q0 -33 20.5 -51t48.5 -18h142v107l86 43v-150h151l-19 -78h-132v-264q0 -40 17 -60t57 -20h67v-78h-76q-73 0 -112 37t-39 108v277h-170z" />
    <glyph glyph-name="t_f" unicode="tf" horiz-adv-x="642" 
d="M19 422l-19 78h99v107l86 43v-150h206q-36 36 -36 88q0 53 40.5 87.5t105.5 34.5h117v-78h-103q-34 0 -55 -16t-21 -47q0 -33 20 -51t48 -18h111v-78h-139v-422h-85v422h-209v-264q0 -40 17 -60t57 -20h67v-78h-76q-73 0 -112 37t-39 108v277h-80z" />
    <glyph glyph-name="t_t" unicode="tt" horiz-adv-x="648" 
d="M19 422l-19 78h99v107l86 43v-150h191v107l86 43v-150h151l-19 -78h-132v-264q0 -40 17 -60t57 -20h67v-78h-76q-73 0 -112 37t-39 108v277h-191v-264q0 -40 17 -60t57 -20h67v-78h-76q-73 0 -112 37t-39 108v277h-80z" />
    <glyph glyph-name=".notdef" horiz-adv-x="500" 
d="M0 0v710h500v-710h-500zM239 355l-220 327v-654zM260 355l221 -327v654zM250 339l-216 -320h432zM34 691l216 -321l216 321h-432z" />
    <glyph glyph-name=".null" horiz-adv-x="0" 
 />
    <glyph glyph-name="nonmarkingreturn" horiz-adv-x="333" 
 />
    <glyph glyph-name="space" unicode=" " horiz-adv-x="252" 
 />
    <glyph glyph-name="exclam" unicode="!" horiz-adv-x="260" 
d="M103 220l-16 197v293h87v-293l-16 -197h-55zM129 -8q-30 0 -51.5 21.5t-21.5 52.5q0 41 34 62h80q34 -22 34 -62q0 -31 -22 -52.5t-53 -21.5z" />
    <glyph glyph-name="quotedbl" unicode="&#x22;" horiz-adv-x="414" 
d="M67 465v245h78v-245h-78zM269 465v245h78v-245h-78z" />
    <glyph glyph-name="numbersign" unicode="#" horiz-adv-x="758" 
d="M357 0l62 200h-181l-62 -200h-79l62 200h-115v73h138l54 171h-119v73h142l60 193h79l-60 -193h181l60 193h79l-60 -193h116v-73h-139l-54 -171h121v-73h-144l-62 -200h-79zM315 444l-54 -171h181l54 171h-181z" />
    <glyph glyph-name="dollar" unicode="$" horiz-adv-x="519" 
d="M221 -88v82q-64 7 -115 36.5t-80 71.5l63 53q27 -36 70 -60t94 -24q63 0 100.5 30.5t37.5 77.5q0 44 -28 71t-92 59l-65 32q-80 39 -116 86t-36 113q0 69 48 116.5t119 58.5v83h74v-82q97 -13 160 -89l-59 -55q-56 67 -138 67q-52 0 -86 -28t-34 -70q0 -40 25.5 -66.5
t83.5 -54.5l65 -32q80 -39 122.5 -84.5t42.5 -114.5q0 -79 -48.5 -131.5t-133.5 -62.5v-83h-74z" />
    <glyph glyph-name="percent" unicode="%" horiz-adv-x="440" 
d="M216 58q33 0 53.5 21.5t20.5 53.5t-20.5 53.5t-53.5 21.5q-31 0 -51.5 -22t-20.5 -53t20.5 -53t51.5 -22zM216 -7q-59 0 -100.5 40.5t-41.5 99.5t41.5 99.5t100.5 40.5q60 0 102.5 -40.5t42.5 -99.5t-42.5 -99.5t-102.5 -40.5zM76 317v73h290v-73h-290zM216 502
q33 0 53.5 21.5t20.5 53.5q0 31 -20.5 52.5t-53.5 21.5q-31 0 -51.5 -21.5t-20.5 -52.5t20.5 -53t51.5 -22zM216 437q-59 0 -100.5 40.5t-41.5 99.5t41.5 99.5t100.5 40.5q60 0 102.5 -40.5t42.5 -99.5t-42.5 -99.5t-102.5 -40.5z" />
    <glyph glyph-name="ampersand" unicode="&#x26;" horiz-adv-x="665" 
d="M33 190q0 133 160 204q-70 85 -70 156t51.5 119.5t129.5 48.5t128 -45.5t50 -116.5q0 -56 -33 -97.5t-126 -87.5l116 -131l85 131h98l-126 -194l159 -177h-110l-96 106q-82 -114 -211 -114q-91 0 -148 56t-57 142zM392 167l1 2l-148 166q-123 -54 -123 -145
q0 -53 33.5 -85t91.5 -32q83 0 145 94zM209 550q0 -29 14 -55.5t48 -65.5q72 32 98.5 58.5t26.5 66.5q0 38 -26 62.5t-66 24.5q-41 0 -68 -26.5t-27 -64.5z" />
    <glyph glyph-name="quotesingle" unicode="'" horiz-adv-x="212" 
d="M67 465v245h78v-245h-78z" />
    <glyph glyph-name="parenleft" unicode="(" horiz-adv-x="243" 
d="M164 -142q-57 115 -82.5 215t-25.5 228t25.5 228t82.5 215l68 -29q-99 -208 -99 -414t99 -414z" />
    <glyph glyph-name="parenright" unicode=")" horiz-adv-x="243" 
d="M79 -142l-68 29q99 208 99 414t-99 414l68 29q57 -115 82.5 -215t25.5 -228t-25.5 -228t-82.5 -215z" />
    <glyph glyph-name="asterisk" unicode="*" horiz-adv-x="443" 
d="M300 375l-79 106l-77 -105l-55 38l78 105l-125 42l20 64l126 -42v127h66v-127l127 42l20 -64l-126 -41l78 -106z" />
    <glyph glyph-name="plus" unicode="+" horiz-adv-x="629" 
d="M96 240v70h183v178h71v-178h183v-70h-183v-182h-71v182h-183z" />
    <glyph glyph-name="comma" unicode="," horiz-adv-x="252" 
d="M73 -142l43 142h-51v123h122v-124l-57 -141h-57z" />
    <glyph glyph-name="hyphen" unicode="-" horiz-adv-x="334" 
d="M46 229v89h243v-89h-243z" />
    <glyph glyph-name="period" unicode="." horiz-adv-x="260" 
d="M130 -8q-30 0 -52 21.5t-22 52.5t22 52.5t52 21.5q31 0 52.5 -21.5t21.5 -52.5t-21.5 -52.5t-52.5 -21.5z" />
    <glyph glyph-name="slash" unicode="/" horiz-adv-x="425" 
d="M0 0l344 710h81l-344 -710h-81z" />
    <glyph glyph-name="zero" unicode="0" horiz-adv-x="814" 
d="M407 71q119 0 198 81.5t79 202.5t-79 202.5t-198 81.5t-197.5 -81.5t-78.5 -202.5t78.5 -202.5t197.5 -81.5zM407 -8q-153 0 -258.5 105t-105.5 258t105.5 258t258.5 105t258.5 -105t105.5 -258t-105.5 -258t-258.5 -105z" />
    <glyph glyph-name="one" unicode="1" horiz-adv-x="278" 
d="M96 0v632l86 86v-718h-86z" />
    <glyph glyph-name="two" unicode="2" horiz-adv-x="548" 
d="M146 505h-85q0 90 62 151.5t153 61.5t153.5 -61.5t62.5 -151.5q0 -62 -28.5 -117t-94.5 -126l-164 -182h287v-80h-467l275 299q58 63 82.5 107.5t24.5 98.5q0 57 -37 95.5t-94 38.5t-93.5 -38t-36.5 -96z" />
    <glyph glyph-name="three" unicode="3" horiz-adv-x="518" 
d="M234 -8q-62 0 -117.5 29.5t-86.5 79.5l66 51q19 -35 55.5 -58t81.5 -23q67 0 110.5 42.5t43.5 111.5q0 70 -43.5 114t-115.5 44h-63l143 247h-249v80h382l-149 -258q85 -17 134 -80t49 -147q0 -99 -67.5 -166t-173.5 -67z" />
    <glyph glyph-name="four" unicode="4" horiz-adv-x="589" 
d="M394 0v196h-401l486 522v-442h93v-80h-93v-196h-85zM168 276h226v243z" />
    <glyph glyph-name="five" unicode="5" horiz-adv-x="541" 
d="M257 -8q-64 0 -120.5 30t-86.5 79l67 52q18 -35 55.5 -58.5t82.5 -23.5q66 0 109 43t43 109q0 68 -43 112t-113 44q-65 0 -111 -55l-59 25v361h358v-80h-272v-193q42 20 87 20q109 0 174.5 -67t65.5 -167q0 -98 -66.5 -164.5t-170.5 -66.5z" />
    <glyph glyph-name="six" unicode="6" horiz-adv-x="544" 
d="M271 -8q-99 0 -167 67.5t-68 163.5q0 62 41 132l212 355h99l-158 -262q18 6 46 6q94 0 162.5 -68t68.5 -163q0 -96 -68.5 -163.5t-167.5 -67.5zM271 71q65 0 106.5 44t41.5 108t-41.5 108t-106.5 44q-64 0 -106 -44t-42 -108t42 -108t106 -44z" />
    <glyph glyph-name="seven" unicode="7" horiz-adv-x="506" 
d="M63 0l302 630h-336v80h465l-340 -710h-91z" />
    <glyph glyph-name="eight" unicode="8" horiz-adv-x="548" 
d="M274 -8q-95 0 -161.5 65.5t-66.5 162.5q0 62 28.5 112.5t77.5 81.5q-54 51 -54 128q0 76 51 126t125 50t125 -50t51 -126q0 -77 -54 -128q49 -31 77.5 -82t28.5 -112q0 -97 -66.5 -162.5t-161.5 -65.5zM274 73q59 0 99 42.5t40 104.5t-40 104.5t-99 42.5t-99 -42.5
t-40 -104.5t40 -104.5t99 -42.5zM270 448h4h3q37 2 62.5 28t25.5 66q0 41 -26.5 68t-64.5 27t-64.5 -27t-26.5 -68q0 -40 25 -66t62 -28z" />
    <glyph glyph-name="nine" unicode="9" horiz-adv-x="543" 
d="M155 -1l158 262q-18 -6 -46 -6q-94 0 -162.5 68t-68.5 163q0 96 68.5 164t167.5 68t167 -68t68 -164q0 -61 -42 -132l-212 -355h-98zM272 334q64 0 106 44t42 108t-42 108.5t-106 44.5q-65 0 -106.5 -44.5t-41.5 -108.5t41.5 -108t106.5 -44z" />
    <glyph glyph-name="colon" unicode=":" horiz-adv-x="260" 
d="M130 360q-30 0 -52 21.5t-22 52.5t22 52.5t52 21.5q31 0 52.5 -21.5t21.5 -52.5t-21.5 -52.5t-52.5 -21.5zM130 -8q-30 0 -52 21.5t-22 52.5t22 52.5t52 21.5q31 0 52.5 -21.5t21.5 -52.5t-21.5 -52.5t-52.5 -21.5z" />
    <glyph glyph-name="semicolon" unicode=";" horiz-adv-x="252" 
d="M73 -142l43 142h-51v123h122v-124l-57 -141h-57zM132 360q-30 0 -52 21.5t-22 52.5t22 52.5t52 21.5q31 0 52.5 -21.5t21.5 -52.5t-21.5 -52.5t-52.5 -21.5z" />
    <glyph glyph-name="less" unicode="&#x3c;" horiz-adv-x="463" 
d="M343 -8l-289 277l289 276l50 -52l-237 -224l237 -226z" />
    <glyph glyph-name="equal" unicode="=" horiz-adv-x="636" 
d="M96 131v70h444v-70h-444zM96 350v70h444v-70h-444z" />
    <glyph glyph-name="greater" unicode="&#x3e;" horiz-adv-x="464" 
d="M121 -8l-51 51l237 226l-237 224l51 52l289 -276z" />
    <glyph glyph-name="question" unicode="?" horiz-adv-x="467" 
d="M171 292v79h60q57 0 94 38.5t37 95.5t-37 95.5t-94 38.5t-93.5 -38t-36.5 -96h-85q0 90 62 151.5t153 61.5t153.5 -61.5t62.5 -151.5t-62.5 -151.5t-153.5 -61.5h-60zM234 -8q-30 0 -51.5 21.5t-21.5 52.5q0 41 34 62h80q34 -22 34 -62q0 -31 -22 -52.5t-53 -21.5z" />
    <glyph glyph-name="at" unicode="@" horiz-adv-x="805" 
d="M354 165q-70 0 -114 50t-44 122q0 92 62 155.5t155 63.5q69 0 110 -38l6 28h72l-51 -239q-7 -35 4.5 -57t42.5 -22q42 0 72 48t30 132q0 114 -77.5 180.5t-197.5 66.5q-132 0 -224 -88.5t-92 -229.5q0 -122 75 -200.5t204 -78.5q105 0 184 41l25 -63q-97 -44 -209 -44
q-158 0 -253.5 98.5t-95.5 246.5q0 166 115 273.5t272 107.5q148 0 245 -85.5t97 -226.5q0 -122 -53 -182.5t-129 -60.5q-31 0 -59 15t-39 39q-52 -52 -133 -52zM371 231q68 0 102 56l34 157q-32 46 -98 46q-55 0 -95.5 -42t-40.5 -104q0 -53 27 -83t71 -30z" />
    <glyph glyph-name="A" unicode="A" horiz-adv-x="710" 
d="M9 0l346 718l346 -718h-98l-88 186h-320l-88 -186h-98zM355 524l-120 -254h240z" />
    <glyph glyph-name="B" unicode="B" horiz-adv-x="612" 
d="M86 0v710h237q99 0 154 -53t55 -132q0 -98 -74 -148q121 -47 121 -177q0 -95 -66.5 -147.5t-178.5 -52.5h-248zM177 84h168q69 0 105.5 33t36.5 87t-36.5 88t-105.5 34h-168v-242zM177 404h144q55 0 87.5 31.5t32.5 79.5q0 47 -32.5 79t-87.5 32h-144v-222z" />
    <glyph glyph-name="C" unicode="C" horiz-adv-x="663" 
d="M401 -8q-153 0 -258 104.5t-105 258.5t105 258.5t258 104.5q137 0 230 -84l-53 -69q-78 66 -177 66q-116 0 -193 -79.5t-77 -196.5t77 -196.5t193 -79.5q99 0 177 66l53 -69q-93 -84 -230 -84z" />
    <glyph glyph-name="D" unicode="D" horiz-adv-x="713" 
d="M177 85h120q128 0 207 76t79 194t-79 194t-207 76h-120v-540zM86 0v710h211q164 0 271.5 -101t107.5 -254t-107.5 -254t-271.5 -101h-211z" />
    <glyph glyph-name="E" unicode="E" horiz-adv-x="545" 
d="M86 0v710h410v-88h-319v-215h259v-88h-259v-231h319v-88h-410z" />
    <glyph glyph-name="F" unicode="F" horiz-adv-x="504" 
d="M86 0v710h398v-88h-307v-215h240v-88h-240v-319h-91z" />
    <glyph glyph-name="G" unicode="G" horiz-adv-x="730" 
d="M401 -8q-153 0 -258 104.5t-105 258.5t105 258.5t258 104.5q149 0 247 -90l-56 -68q-76 71 -191 71q-116 0 -193 -79.5t-77 -196.5t77 -196.5t193 -79.5q95 0 161 39v201h-198l39 88h250v-335q-106 -80 -252 -80z" />
    <glyph glyph-name="H" unicode="H" horiz-adv-x="746" 
d="M86 0v710h91v-303h392v303h91v-710h-91v319h-392v-319h-91z" />
    <glyph glyph-name="I" unicode="I" horiz-adv-x="263" 
d="M86 0v710h91v-710h-91z" />
    <glyph glyph-name="J" unicode="J" horiz-adv-x="495" 
d="M217 -8q-89 0 -148 55t-59 151h91q0 -58 32.5 -88t82.5 -31q53 0 85 30.5t32 88.5v512h91v-518q0 -95 -59.5 -147.5t-147.5 -52.5z" />
    <glyph glyph-name="K" unicode="K" horiz-adv-x="653" 
d="M86 0v710h91v-356l324 356h112l-328 -361l355 -349h-121l-342 337v-337h-91z" />
    <glyph glyph-name="L" unicode="L" horiz-adv-x="499" 
d="M86 0v710h91v-621h311v-89h-402z" />
    <glyph glyph-name="M" unicode="M" horiz-adv-x="864" 
d="M86 0v718l346 -381l346 381v-718h-91v494l-255 -285l-255 285v-494h-91z" />
    <glyph glyph-name="N" unicode="N" horiz-adv-x="769" 
d="M683 -8l-506 513v-505h-91v718l506 -513v505h91v-718z" />
    <glyph glyph-name="O" unicode="O" horiz-adv-x="802" 
d="M401 79q116 0 193 79.5t77 196.5t-77 196.5t-193 79.5t-193 -79.5t-77 -196.5t77 -196.5t193 -79.5zM401 -8q-153 0 -258 104.5t-105 258.5t105 258.5t258 104.5t258 -104.5t105 -258.5t-105 -258.5t-258 -104.5z" />
    <glyph glyph-name="P" unicode="P" horiz-adv-x="552" 
d="M86 0v710h201q112 0 179 -58.5t67 -158.5q0 -99 -67 -158t-179 -59h-110v-276h-91zM177 360h107q76 0 116 34.5t40 98.5q0 63 -40 98t-116 35h-107v-266z" />
    <glyph glyph-name="Q" unicode="Q" horiz-adv-x="807" 
d="M728 -8l-92 84q-100 -84 -235 -84q-152 0 -257.5 105t-105.5 258t105.5 258t257.5 105t257.5 -105t105.5 -258q0 -121 -70 -216l92 -85zM401 80q97 0 169 58l-92 85l58 62l91 -84q44 68 44 154q0 117 -77 196t-193 79q-115 0 -192.5 -79t-77.5 -196t77.5 -196t192.5 -79z
" />
    <glyph glyph-name="R" unicode="R" horiz-adv-x="621" 
d="M492 0l-237 310h-78v-310h-91v710h211q104 0 166 -54.5t62 -145.5q0 -76 -45 -127.5t-123 -66.5l245 -316h-110zM177 391h114q69 0 104.5 30.5t35.5 86.5t-35.5 87t-104.5 31h-114v-235z" />
    <glyph glyph-name="S" unicode="S" horiz-adv-x="519" 
d="M253 -8q-74 0 -136 31t-95 79l69 60q28 -36 70 -59.5t91 -23.5q62 0 98 27t36 73q0 47 -28 76.5t-88 55.5l-65 28q-155 66 -155 201q0 78 62.5 128t144.5 50q124 0 199 -91l-64 -64q-57 68 -138 68q-47 0 -80 -25t-33 -68q0 -39 24.5 -67t80.5 -53l65 -28
q167 -73 167 -201q0 -88 -61 -142.5t-164 -54.5z" />
    <glyph glyph-name="T" unicode="T" horiz-adv-x="534" 
d="M221 0v622h-201v88h494v-88h-202v-622h-91z" />
    <glyph glyph-name="U" unicode="U" horiz-adv-x="721" 
d="M360 -8q-126 0 -204.5 75t-78.5 203v440h91v-444q0 -90 52 -138.5t140 -48.5t140 48.5t52 138.5v444h91v-440q0 -129 -78 -203.5t-205 -74.5z" />
    <glyph glyph-name="V" unicode="V" horiz-adv-x="669" 
d="M335 -8l-328 718h100l228 -509l227 509h100z" />
    <glyph glyph-name="W" unicode="W" horiz-adv-x="903" 
d="M259 -8l-244 718h94l157 -474l185 482l186 -482l157 474h94l-244 -718l-193 501z" />
    <glyph glyph-name="X" unicode="X" horiz-adv-x="669" 
d="M21 0l256 362l-243 348h105l195 -279l195 279h105l-241 -348l255 -362h-103l-210 295l-208 -295h-106z" />
    <glyph glyph-name="Y" unicode="Y" horiz-adv-x="632" 
d="M270 0v301l-260 409h106l200 -320l200 320h106l-260 -409v-301h-92z" />
    <glyph glyph-name="Z" unicode="Z" horiz-adv-x="607" 
d="M23 0l395 622h-352v88h508l-395 -622h397v-88h-553z" />
    <glyph glyph-name="bracketleft" unicode="[" horiz-adv-x="284" 
d="M77 -141v882h187v-71h-108v-740h108v-71h-187z" />
    <glyph glyph-name="backslash" unicode="\" horiz-adv-x="425" 
d="M344 0l-344 710h81l344 -710h-81z" />
    <glyph glyph-name="bracketright" unicode="]" horiz-adv-x="284" 
d="M207 741v-882h-187v71h108v740h-108v71h187z" />
    <glyph glyph-name="asciicircum" unicode="^" horiz-adv-x="607" 
d="M32 317l271 395l272 -395h-86l-186 268l-186 -268h-85z" />
    <glyph glyph-name="underscore" unicode="_" horiz-adv-x="424" 
d="M0 -73v73h424v-73h-424z" />
    <glyph glyph-name="grave" unicode="`" horiz-adv-x="272" 
d="M167 545l-125 165h109l87 -165h-71z" />
    <glyph glyph-name="a" unicode="a" horiz-adv-x="620" 
d="M457 0v50q-64 -58 -159 -58q-110 0 -182.5 74.5t-72.5 183.5t72.5 183.5t182.5 74.5q95 0 159 -58v50h86v-500h-86zM300 73q52 0 93 22t64 59v192q-23 37 -64 59t-93 22q-73 0 -120.5 -51t-47.5 -126t47.5 -126t120.5 -51z" />
    <glyph glyph-name="b" unicode="b" horiz-adv-x="620" 
d="M77 0v710h86v-260q63 58 159 58q110 0 182.5 -74.5t72.5 -183.5t-72.5 -183.5t-182.5 -74.5q-96 0 -159 58v-50h-86zM320 427q-52 0 -93.5 -22.5t-63.5 -58.5v-192q22 -36 63.5 -58.5t93.5 -22.5q73 0 120.5 51t47.5 126t-47.5 126t-120.5 51z" />
    <glyph glyph-name="c" unicode="c" horiz-adv-x="528" 
d="M300 -8q-110 0 -183.5 74.5t-73.5 183.5t73.5 183.5t183.5 74.5q114 0 191 -79l-55 -60q-58 58 -136 58q-73 0 -120.5 -51t-47.5 -126t47.5 -126t120.5 -51q78 0 136 58l55 -60q-77 -79 -191 -79z" />
    <glyph glyph-name="d" unicode="d" horiz-adv-x="620" 
d="M457 0v50q-64 -58 -159 -58q-110 0 -182.5 74.5t-72.5 183.5t72.5 183.5t182.5 74.5q95 0 159 -58v260h86v-710h-86zM300 73q52 0 93 22t64 59v192q-23 37 -64 59t-93 22q-73 0 -120.5 -51t-47.5 -126t47.5 -126t120.5 -51z" />
    <glyph glyph-name="e" unicode="e" horiz-adv-x="577" 
d="M300 -8q-110 0 -183.5 74.5t-73.5 183.5t73 183.5t178 74.5q108 0 175.5 -74t68.5 -205h-406q6 -67 53 -111.5t115 -44.5q86 0 146 60l55 -60q-77 -81 -201 -81zM289 429q-55 0 -97.5 -34t-55.5 -91h305q-9 60 -51 93t-101 32z" />
    <glyph glyph-name="f" unicode="f" horiz-adv-x="357" 
d="M22 422v78h84q-37 35 -37 88t40.5 87.5t105.5 34.5h118v-78h-104q-34 0 -55 -16t-21 -47t21 -49t48 -20h111v-78h-139v-422h-86v422h-86z" />
    <glyph glyph-name="g" unicode="g" horiz-adv-x="610" 
d="M291 -194q-122 0 -213 59l45 73q70 -52 171 -52q73 0 120.5 30t47.5 96q0 37 -13 63q-62 -60 -159 -60q-110 0 -178.5 70t-68.5 176t68.5 176.5t178.5 70.5q92 0 156 -59v51h86v-398q19 -50 19 -98q0 -100 -76 -149t-184 -49zM292 95q52 0 92.5 22.5t61.5 59.5v169
q-21 36 -61.5 58.5t-92.5 22.5q-71 0 -115.5 -47t-44.5 -119q0 -71 45 -118.5t115 -47.5z" />
    <glyph glyph-name="h" unicode="h" horiz-adv-x="578" 
d="M77 0v710h86v-267q51 65 155 65q86 0 139.5 -55.5t53.5 -147.5v-305h-86v300q0 56 -34 91.5t-92 35.5q-52 0 -87 -27.5t-49 -76.5v-323h-86z" />
    <glyph glyph-name="i" unicode="i" 
d="M77 609q-19 17 -19 46q0 26 18 44.5t44 18.5t44 -18.5t18 -44.5q0 -29 -19 -46h-86zM77 0v500h86v-500h-86z" />
    <glyph glyph-name="j" unicode="j" 
d="M-27 -184v78h30q40 0 57 20t17 60v526h86v-539q0 -71 -39 -108t-112 -37h-39zM77 609q-19 17 -19 46q0 26 18 44.5t44 18.5t44 -18.5t18 -44.5q0 -29 -19 -46h-86z" />
    <glyph glyph-name="k" unicode="k" horiz-adv-x="516" 
d="M77 0v710h86v-436l221 226h108l-233 -236l256 -264h-111l-241 249v-249h-86z" />
    <glyph glyph-name="l" unicode="l" 
d="M77 0v710h86v-710h-86z" />
    <glyph glyph-name="m" unicode="m" horiz-adv-x="875" 
d="M722 0v300q0 56 -30.5 91.5t-83.5 35.5q-93 0 -123 -102q1 -7 1 -20v-305h-86v300q0 56 -31 91.5t-84 35.5q-43 0 -75 -24.5t-47 -69.5v-333h-86v500h86v-55q51 63 141 63q102 0 151 -82q59 82 167 82q85 0 135.5 -55t50.5 -148v-305h-86z" />
    <glyph glyph-name="n" unicode="n" horiz-adv-x="578" 
d="M77 0v500h86v-57q51 65 155 65q86 0 139.5 -55.5t53.5 -147.5v-305h-86v300q0 56 -34 91.5t-92 35.5q-52 0 -87 -27.5t-49 -76.5v-323h-86z" />
    <glyph glyph-name="o" unicode="o" horiz-adv-x="605" 
d="M303 73q75 0 122.5 50.5t47.5 126.5t-47.5 126.5t-122.5 50.5t-123 -51t-48 -126t48 -126t123 -51zM303 -8q-112 0 -186 74.5t-74 183.5t74 183.5t186 74.5t185.5 -74.5t73.5 -183.5t-73.5 -183.5t-185.5 -74.5z" />
    <glyph glyph-name="p" unicode="p" horiz-adv-x="620" 
d="M77 -184v684h86v-50q63 58 159 58q110 0 182.5 -74.5t72.5 -183.5t-72.5 -183.5t-182.5 -74.5q-96 0 -159 58v-234h-86zM320 427q-52 0 -93.5 -22.5t-63.5 -58.5v-192q22 -36 63.5 -58.5t93.5 -22.5q73 0 120.5 51t47.5 126t-47.5 126t-120.5 51z" />
    <glyph glyph-name="q" unicode="q" horiz-adv-x="620" 
d="M457 -184v234q-64 -58 -159 -58q-110 0 -182.5 74.5t-72.5 183.5t72.5 183.5t182.5 74.5q95 0 159 -58v50h86v-684h-86zM300 73q52 0 93 22t64 59v192q-23 37 -64 59t-93 22q-73 0 -120.5 -51t-47.5 -126t47.5 -126t120.5 -51z" />
    <glyph glyph-name="r" unicode="r" horiz-adv-x="359" 
d="M77 0v500h86v-59q51 64 138 64q19 0 35 -3v-89q-21 6 -48 6q-42 0 -75.5 -20.5t-49.5 -58.5v-340h-86z" />
    <glyph glyph-name="s" unicode="s" horiz-adv-x="418" 
d="M204 -8q-117 0 -177 100l68 46q41 -69 111 -69q38 0 63.5 17.5t25.5 45.5t-20 46t-65 34l-39 15q-119 45 -119 148q0 57 44 95t112 38q104 0 150 -90l-67 -39q-25 52 -83 52q-30 0 -50.5 -15t-20.5 -40q0 -50 73 -76l41 -15q130 -47 130 -150q0 -61 -48.5 -102
t-128.5 -41z" />
    <glyph glyph-name="t" unicode="t" horiz-adv-x="371" 
d="M19 422l-19 78h99v107l86 43v-150h151l-19 -78h-132v-264q0 -40 17 -60t57 -20h67v-78h-76q-73 0 -112 37t-39 108v277h-80z" />
    <glyph glyph-name="u" unicode="u" horiz-adv-x="568" 
d="M405 0v56q-52 -64 -154 -64q-86 0 -139.5 55.5t-53.5 147.5v305h86v-300q0 -56 34 -91.5t91 -35.5q104 0 136 100v327h86v-500h-86z" />
    <glyph glyph-name="v" unicode="v" horiz-adv-x="535" 
d="M267 -8l-264 508h97l167 -337l168 337h97z" />
    <glyph glyph-name="w" unicode="w" horiz-adv-x="720" 
d="M179 0l-158 500h89l112 -364l138 372l138 -372l112 364h89l-158 -500h-69l-112 303l-111 -303h-70z" />
    <glyph glyph-name="x" unicode="x" horiz-adv-x="540" 
d="M23 0l195 254l-185 246h99l139 -184l137 184h99l-185 -246l195 -254h-100l-147 194l-147 -194h-100z" />
    <glyph glyph-name="y" unicode="y" horiz-adv-x="510" 
d="M107 -184l103 226l-204 458h93l156 -364l157 364h93l-307 -684h-91z" />
    <glyph glyph-name="z" unicode="z" horiz-adv-x="504" 
d="M27 0l294 422h-262v78h411l-293 -422h283v-78h-433z" />
    <glyph glyph-name="braceleft" unicode="{" horiz-adv-x="294" 
d="M224 -141q-69 0 -98.5 35.5t-29.5 108.5v190q0 38 -11.5 54.5t-46.5 16.5h-16v71h16q35 0 46.5 16.5t11.5 54.5v191q0 73 28.5 108.5t97.5 35.5h50v-71h-39q-35 0 -47 -16.5t-12 -56.5v-187q0 -47 -11.5 -71.5t-41.5 -38.5q30 -15 41.5 -39.5t11.5 -71.5v-186
q0 -40 12 -56.5t47 -16.5h39v-71h-48z" />
    <glyph glyph-name="bar" unicode="|" horiz-adv-x="229" 
d="M75 -184v894h79v-894h-79z" />
    <glyph glyph-name="braceright" unicode="}" horiz-adv-x="294" 
d="M69 -141h-48v71h39q35 0 47 16.5t12 56.5v186q0 47 11.5 71.5t41.5 39.5q-30 14 -41.5 38.5t-11.5 71.5v187q0 40 -12 56.5t-47 16.5h-39v71h50q69 0 97.5 -35.5t28.5 -108.5v-191q0 -38 11.5 -54.5t46.5 -16.5h16v-71h-16q-35 0 -46.5 -16.5t-11.5 -54.5v-190
q0 -73 -29.5 -108.5t-98.5 -35.5z" />
    <glyph glyph-name="asciitilde" unicode="~" horiz-adv-x="610" 
d="M96 206v86l108 73l198 -75l112 74v-82l-108 -75l-199 75z" />
    <glyph glyph-name="uni00A0" unicode="&#xa0;" horiz-adv-x="252" 
 />
    <glyph glyph-name="exclamdown" unicode="&#xa1;" horiz-adv-x="260" 
d="M87 -185v269l16 197h55l16 -197v-269h-87zM90 373q-34 19 -34 61q0 31 21.5 52.5t51.5 21.5q31 0 53 -21.5t22 -52.5q0 -41 -34 -61h-80z" />
    <glyph glyph-name="cent" unicode="&#xa2;" horiz-adv-x="534" 
d="M269 -88v82q-98 11 -161 83.5t-63 172.5t63 172t161 84v82h67v-82q91 -11 157 -77l-55 -60q-58 58 -136 58q-73 0 -120.5 -51t-47.5 -126t47.5 -126t120.5 -51q78 0 136 58l55 -60q-64 -66 -157 -77v-82h-67z" />
    <glyph glyph-name="sterling" unicode="&#xa3;" horiz-adv-x="611" 
d="M72 305v73h91q-53 55 -53 133q0 86 60.5 146.5t153.5 60.5q91 0 151.5 -61.5t61.5 -149.5h-87q0 56 -35 94t-91 38t-92 -36.5t-36 -91.5q0 -56 36 -94.5t92 -38.5h82v-73h-157v-225h315v-80h-492v80h90v225h-90z" />
    <glyph glyph-name="currency" unicode="&#xa4;" horiz-adv-x="584" 
d="M75 91l-45 45l69 70q-46 62 -46 140t45 141l-68 70l45 44l68 -67q64 51 146 51q84 0 150 -53l70 69l45 -44l-71 -72q45 -63 45 -139q0 -75 -45 -138l71 -72l-45 -45l-71 70q-65 -51 -149 -51q-82 0 -145 49zM290 187q69 0 114.5 46t45.5 113q0 69 -46 116.5t-115 47.5
q-67 0 -111.5 -47.5t-44.5 -116.5q0 -67 44.5 -113t112.5 -46z" />
    <glyph glyph-name="yen" unicode="&#xa5;" horiz-adv-x="638" 
d="M119 272v73h130l-233 365h100l203 -322l203 322h100l-232 -365h130v-73h-158v-74h158v-73h-158v-125h-85v125h-158v73h158v74h-158z" />
    <glyph glyph-name="brokenbar" unicode="&#xa6;" horiz-adv-x="229" 
d="M75 -184v384h79v-384h-79zM75 327v383h79v-383h-79z" />
    <glyph glyph-name="section" unicode="&#xa7;" horiz-adv-x="524" 
d="M244 -194q-116 0 -172 106l65 40q40 -77 109 -77q38 0 66 23.5t28 59.5q0 67 -96 110q-3 1 -12.5 4.5t-15.5 5.5q-70 20 -108.5 69.5t-38.5 120.5q0 53 29 100t75 68q-3 2 -7.5 5.5t-7.5 5.5q-57 49 -57 129q0 61 45 101.5t113 40.5q52 0 92.5 -27t60.5 -76l-64 -32
q-28 66 -90 66q-32 0 -54.5 -21t-22.5 -53q0 -63 66 -102q22 -11 42 -16q166 -38 166 -189q0 -56 -28 -102t-78 -72l15 -12q54 -47 54 -123q0 -64 -48.5 -108.5t-125.5 -44.5zM262 143q50 0 82 36t32 89q0 51 -32 84.5t-82 33.5t-82.5 -33.5t-32.5 -84.5q0 -52 32.5 -88.5
t82.5 -36.5z" />
    <glyph glyph-name="dieresis" unicode="&#xa8;" horiz-adv-x="406" 
d="M90 571q-24 0 -42 17.5t-18 42.5q0 24 18 41.5t42 17.5q26 0 43.5 -17t17.5 -42t-17.5 -42.5t-43.5 -17.5zM315 571q-25 0 -42.5 17.5t-17.5 42.5t17.5 42t42.5 17t42.5 -17t17.5 -42t-17.5 -42.5t-42.5 -17.5z" />
    <glyph glyph-name="copyright" unicode="&#xa9;" horiz-adv-x="802" 
d="M412 161q-82 0 -137.5 56t-55.5 139t55.5 139t137.5 56q44 0 88 -20.5t69 -59.5l-51 -46q-41 57 -103 57q-55 0 -88.5 -35.5t-33.5 -90.5t33.5 -90.5t88.5 -35.5q62 0 103 57l51 -46q-25 -39 -69 -59.5t-88 -20.5zM400 61q121 0 207.5 86t86.5 207q0 122 -86 208t-208 86
q-121 0 -207 -86.5t-86 -207.5t86 -207t207 -86zM401 -9q-150 0 -256.5 107t-106.5 256q0 150 106.5 257t256.5 107t256.5 -107t106.5 -257q0 -149 -106.5 -256t-256.5 -107z" />
    <glyph glyph-name="ordfeminine" unicode="&#xaa;" horiz-adv-x="365" 
d="M255 410v19q-32 -24 -77 -24q-67 0 -111 44.5t-44 110.5t44 110.5t111 44.5q44 0 77 -25v20h69v-300h-69zM179 471q50 0 76 38v101q-26 39 -76 39q-37 0 -61 -25.5t-24 -63.5t24 -63.5t61 -25.5z" />
    <glyph glyph-name="guillemotleft" unicode="&#xab;" horiz-adv-x="491" 
d="M383 29l-152 221l152 221l62 -42l-123 -179l123 -179zM181 29l-152 221l152 221l62 -42l-123 -179l123 -179z" />
    <glyph glyph-name="logicalnot" unicode="&#xac;" horiz-adv-x="630" 
d="M463 50v190h-367v70h438v-260h-71z" />
    <glyph glyph-name="uni00AD" unicode="&#xad;" horiz-adv-x="334" 
d="M46 229v89h243v-89h-243z" />
    <glyph glyph-name="registered" unicode="&#xae;" horiz-adv-x="802" 
d="M401 -9q-150 0 -256.5 107t-106.5 256q0 150 106.5 257t256.5 107t256.5 -107t106.5 -257q0 -149 -106.5 -256t-256.5 -107zM400 61q121 0 207.5 86t86.5 207q0 122 -86 208t-208 86q-121 0 -207 -86.5t-86 -207.5t86 -207t207 -86zM491 164l-119 163h-29v-163h-68v384
h141q50 0 83 -30t33 -78q-1 -41 -24 -69.5t-61 -38.5l124 -168h-80zM344 390h60q55 0 55 46t-55 46h-60v-92z" />
    <glyph glyph-name="macron" unicode="&#xaf;" horiz-adv-x="365" 
d="M37 614v65h292v-65h-292z" />
    <glyph glyph-name="degree" unicode="&#xb0;" horiz-adv-x="352" 
d="M176 525q27 0 46.5 20t19.5 47t-19 46.5t-47 19.5q-27 0 -47 -19.5t-20 -46.5t20 -47t47 -20zM176 470q-50 0 -86 36t-36 86t36 86t86 36t86 -36t36 -86t-36 -86t-86 -36z" />
    <glyph glyph-name="plusminus" unicode="&#xb1;" horiz-adv-x="630" 
d="M96 289v70h184v141h70v-141h184v-70h-184v-144h-70v144h-184zM96 0v70h438v-70h-438z" />
    <glyph glyph-name="twosuperior" unicode="&#xb2;" horiz-adv-x="340" 
d="M105 709h-69q0 56 39 94t97 38t97 -38t39 -94q0 -59 -55 -120l-98 -114h152v-65h-295l149 171q1 1 9.5 10.5t12 13.5t12 15t13.5 18t11.5 17.5t10.5 18.5t6.5 17.5t2.5 17.5q0 29 -18.5 48.5t-48.5 19.5t-48.5 -19.5t-18.5 -48.5z" />
    <glyph glyph-name="threesuperior" unicode="&#xb3;" horiz-adv-x="310" 
d="M139 405q-83 0 -125 61l50 42q27 -39 73 -39q35 0 57.5 21.5t22.5 57.5t-22.5 58t-60.5 22h-40l77 143h-139v65h242l-82 -155q45 -14 70 -49t25 -84q0 -64 -40.5 -103.5t-107.5 -39.5z" />
    <glyph glyph-name="acute" unicode="&#xb4;" horiz-adv-x="272" 
d="M33 545l87 165h109l-124 -165h-72z" />
    <glyph glyph-name="mu" unicode="&#xb5;" horiz-adv-x="587" 
d="M424 0v56q-52 -64 -154 -64q-62 0 -108 29v-205h-85v684h86v-300q0 -56 34 -91.5t91 -35.5q104 0 136 100v327h86v-500h-86z" />
    <glyph glyph-name="mu" unicode="&#x3bc;" horiz-adv-x="587" 
d="M424 0v56q-52 -64 -154 -64q-62 0 -108 29v-205h-85v684h86v-300q0 -56 34 -91.5t91 -35.5q104 0 136 100v327h86v-500h-86z" />
    <glyph glyph-name="paragraph" unicode="&#xb6;" horiz-adv-x="635" 
d="M274 -184v444q-93 0 -159 66t-66 159t66 159t159 66h265v-894h-78v816h-108v-816h-79z" />
    <glyph glyph-name="periodcentered" unicode="&#xb7;" horiz-adv-x="260" 
d="M130 198q-30 0 -52 21.5t-22 52.5t22 52.5t52 21.5q31 0 52.5 -21.5t21.5 -52.5t-21.5 -52.5t-52.5 -21.5z" />
    <glyph glyph-name="cedilla" unicode="&#xb8;" horiz-adv-x="197" 
d="M-6 -135l77 135h59l-38 -135h-98z" />
    <glyph glyph-name="onesuperior" unicode="&#xb9;" horiz-adv-x="176" 
d="M54 410v364l69 72v-436h-69z" />
    <glyph glyph-name="ordmasculine" unicode="&#xba;" horiz-adv-x="357" 
d="M179 471q37 0 60.5 25.5t23.5 63.5t-23.5 63.5t-60.5 25.5t-61 -25.5t-24 -63.5t24 -63.5t61 -25.5zM179 405q-67 0 -111.5 44.5t-44.5 110.5t44.5 110.5t111.5 44.5q66 0 110.5 -44.5t44.5 -110.5t-44.5 -110.5t-110.5 -44.5z" />
    <glyph glyph-name="guillemotright" unicode="&#xbb;" horiz-adv-x="491" 
d="M462 250l-152 -221l-62 42l123 179l-123 179l62 42zM260 250l-152 -221l-62 42l123 179l-123 179l62 42z" />
    <glyph glyph-name="onequarter" unicode="&#xbc;" horiz-adv-x="736" 
d="M68 284v366l69 70v-436h-69zM31 0h80l500 710h-80zM605 0v108h-229l297 328v-267h49v-61h-49v-108h-68zM511 169h94v104z" />
    <glyph glyph-name="onehalf" unicode="&#xbd;" horiz-adv-x="792" 
d="M68 284v366l69 70v-436h-69zM31 0h80l500 710h-80zM526 299h-69q0 56 39 94t97 38t97 -38t39 -94q0 -59 -55 -120l-98 -114h152v-65h-295l149 171q1 1 9.5 10.5t12 13.5t12 15t13.5 18t11.5 17.5t10.5 18.5t6.5 17.5t2.5 17.5q0 29 -18.5 48.5t-48.5 19.5t-48.5 -19.5
t-18.5 -48.5z" />
    <glyph glyph-name="threequarters" unicode="&#xbe;" horiz-adv-x="835" 
d="M160 279q-83 0 -125 61l50 42q27 -39 73 -39q35 0 57.5 21.5t22.5 57.5t-22.5 58t-60.5 22h-40l77 143h-139v65h242l-82 -155q45 -14 70 -49t25 -84q0 -64 -40.5 -103.5t-107.5 -39.5zM130 0h80l500 710h-80zM704 0v108h-229l297 328v-267h49v-61h-49v-108h-68zM610 169
h94v104z" />
    <glyph glyph-name="questiondown" unicode="&#xbf;" horiz-adv-x="467" 
d="M236 -194q-91 0 -153.5 61.5t-62.5 151.5t62.5 151.5t153.5 61.5h60v-79h-60q-57 0 -94 -38.5t-37 -95.5t37 -95.5t94 -38.5t93.5 38t36.5 96h85q0 -90 -62 -151.5t-153 -61.5zM192 372q-34 22 -34 62q0 31 22 52.5t53 21.5q30 0 51.5 -21.5t21.5 -52.5q0 -41 -34 -62
h-80z" />
    <glyph glyph-name="Agrave" unicode="&#xc0;" horiz-adv-x="710" 
d="M9 0l346 718l346 -718h-98l-88 186h-320l-88 -186h-98zM355 524l-120 -254h240zM318 768l-113 145h109l77 -145h-73z" />
    <glyph glyph-name="Aacute" unicode="&#xc1;" horiz-adv-x="710" 
d="M9 0l346 718l346 -718h-98l-88 186h-320l-88 -186h-98zM355 524l-120 -254h240zM319 768l77 145h108l-112 -145h-73z" />
    <glyph glyph-name="Acircumflex" unicode="&#xc2;" horiz-adv-x="710" 
d="M9 0l346 718l346 -718h-98l-88 186h-320l-88 -186h-98zM355 524l-120 -254h240zM217 766l-35 60l173 100l173 -100l-35 -60l-138 82z" />
    <glyph glyph-name="Atilde" unicode="&#xc3;" horiz-adv-x="710" 
d="M9 0l346 718l346 -718h-98l-88 186h-320l-88 -186h-98zM355 524l-120 -254h240zM423 783q-31 0 -72.5 22t-55.5 22q-36 0 -46 -43h-69l4 18q8 44 38.5 70t66.5 26q31 0 71.5 -22t54.5 -22q38 0 48 43h68l-3 -18q-8 -44 -37.5 -70t-67.5 -26z" />
    <glyph glyph-name="Adieresis" unicode="&#xc4;" horiz-adv-x="710" 
d="M9 0l346 718l346 -718h-98l-88 186h-320l-88 -186h-98zM355 524l-120 -254h240zM242 782q-24 0 -42.5 18t-18.5 44q0 24 18.5 42t42.5 18q26 0 44 -17.5t18 -42.5q0 -26 -18 -44t-44 -18zM467 782q-25 0 -43 18t-18 44q0 25 18 42.5t43 17.5q26 0 44 -17.5t18 -42.5
q0 -26 -18 -44t-44 -18z" />
    <glyph glyph-name="Aring" unicode="&#xc5;" horiz-adv-x="710" 
d="M9 0l346 718l346 -718h-98l-88 186h-320l-88 -186h-98zM355 524l-120 -254h240zM354 798q20 0 34 13t14 34t-14 34.5t-34 13.5t-34 -13.5t-14 -34.5t14 -34t34 -13zM354 751q-42 0 -70.5 27t-28.5 67q0 41 29 68t70 27t70 -27t29 -68q0 -40 -28.5 -67t-70.5 -27z" />
    <glyph glyph-name="AE" unicode="&#xc6;" horiz-adv-x="1016" 
d="M9 0l299 621l-42 89h399l42 -88h-306l104 -215h262l42 -88h-262l111 -231h306l43 -88h-404l-88 186h-320l-88 -186h-98zM355 524l-120 -254h240z" />
    <glyph glyph-name="Ccedilla" unicode="&#xc7;" horiz-adv-x="663" 
d="M277 -135l74 130q-135 17 -224 118t-89 242q0 154 105 258.5t258 104.5q137 0 230 -84l-53 -69q-78 66 -177 66q-116 0 -193 -79.5t-77 -196.5t77 -196.5t193 -79.5q99 0 177 66l53 -69q-90 -81 -221 -84l-35 -127h-98z" />
    <glyph glyph-name="Egrave" unicode="&#xc8;" horiz-adv-x="545" 
d="M86 0v710h410v-88h-319v-215h259v-88h-259v-231h319v-88h-410zM282 768l-113 145h109l77 -145h-73z" />
    <glyph glyph-name="Eacute" unicode="&#xc9;" horiz-adv-x="545" 
d="M86 0v710h410v-88h-319v-215h259v-88h-259v-231h319v-88h-410zM225 768l77 145h108l-112 -145h-73z" />
    <glyph glyph-name="Ecircumflex" unicode="&#xca;" horiz-adv-x="545" 
d="M86 0v710h410v-88h-319v-215h259v-88h-259v-231h319v-88h-410zM152 766l-35 60l173 100l173 -100l-35 -60l-138 82z" />
    <glyph glyph-name="Edieresis" unicode="&#xcb;" horiz-adv-x="545" 
d="M86 0v710h410v-88h-319v-215h259v-88h-259v-231h319v-88h-410zM178 782q-24 0 -42.5 18t-18.5 44q0 24 18.5 42t42.5 18q26 0 44 -17.5t18 -42.5q0 -26 -18 -44t-44 -18zM403 782q-25 0 -43 18t-18 44q0 25 18 42.5t43 17.5q26 0 44 -17.5t18 -42.5q0 -26 -18 -44
t-44 -18z" />
    <glyph glyph-name="Igrave" unicode="&#xcc;" horiz-adv-x="263" 
d="M86 0v710h91v-710h-91zM123 768l-113 145h109l77 -145h-73z" />
    <glyph glyph-name="Iacute" unicode="&#xcd;" horiz-adv-x="263" 
d="M86 0v710h91v-710h-91zM66 768l77 145h108l-112 -145h-73z" />
    <glyph glyph-name="Icircumflex" unicode="&#xce;" horiz-adv-x="263" 
d="M86 0v710h91v-710h-91zM-7 766l-35 60l173 100l173 -100l-35 -60l-138 82z" />
    <glyph glyph-name="Idieresis" unicode="&#xcf;" horiz-adv-x="263" 
d="M86 0v710h91v-710h-91zM19 782q-24 0 -42.5 18t-18.5 44q0 24 18.5 42t42.5 18q26 0 44 -17.5t18 -42.5q0 -26 -18 -44t-44 -18zM244 782q-25 0 -43 18t-18 44q0 25 18 42.5t43 17.5q26 0 44 -17.5t18 -42.5q0 -26 -18 -44t-44 -18z" />
    <glyph glyph-name="Eth" unicode="&#xd0;" horiz-adv-x="744" 
d="M9 312v87h108v311h211q164 0 271.5 -101t107.5 -254t-107.5 -254t-271.5 -101h-211v312h-108zM208 85h120q128 0 207 76t79 194t-79 194t-207 76h-120v-226h134v-87h-134v-227z" />
    <glyph glyph-name="Ntilde" unicode="&#xd1;" horiz-adv-x="769" 
d="M683 -8l-506 513v-505h-91v718l506 -513v505h91v-718zM452 783q-31 0 -72.5 22t-55.5 22q-36 0 -46 -43h-69l4 18q8 44 38.5 70t66.5 26q31 0 71.5 -22t54.5 -22q38 0 48 43h68l-3 -18q-8 -44 -37.5 -70t-67.5 -26z" />
    <glyph glyph-name="Ograve" unicode="&#xd2;" horiz-adv-x="802" 
d="M401 79q116 0 193 79.5t77 196.5t-77 196.5t-193 79.5t-193 -79.5t-77 -196.5t77 -196.5t193 -79.5zM401 -8q-153 0 -258 104.5t-105 258.5t105 258.5t258 104.5t258 -104.5t105 -258.5t-105 -258.5t-258 -104.5zM393 768l-113 145h109l77 -145h-73z" />
    <glyph glyph-name="Oacute" unicode="&#xd3;" horiz-adv-x="802" 
d="M401 79q116 0 193 79.5t77 196.5t-77 196.5t-193 79.5t-193 -79.5t-77 -196.5t77 -196.5t193 -79.5zM401 -8q-153 0 -258 104.5t-105 258.5t105 258.5t258 104.5t258 -104.5t105 -258.5t-105 -258.5t-258 -104.5zM335 768l77 145h108l-112 -145h-73z" />
    <glyph glyph-name="Ocircumflex" unicode="&#xd4;" horiz-adv-x="802" 
d="M401 79q116 0 193 79.5t77 196.5t-77 196.5t-193 79.5t-193 -79.5t-77 -196.5t77 -196.5t193 -79.5zM401 -8q-153 0 -258 104.5t-105 258.5t105 258.5t258 104.5t258 -104.5t105 -258.5t-105 -258.5t-258 -104.5zM263 766l-35 60l173 100l173 -100l-35 -60l-138 82z" />
    <glyph glyph-name="Otilde" unicode="&#xd5;" horiz-adv-x="802" 
d="M401 79q116 0 193 79.5t77 196.5t-77 196.5t-193 79.5t-193 -79.5t-77 -196.5t77 -196.5t193 -79.5zM401 -8q-153 0 -258 104.5t-105 258.5t105 258.5t258 104.5t258 -104.5t105 -258.5t-105 -258.5t-258 -104.5zM469 783q-31 0 -72.5 22t-55.5 22q-36 0 -46 -43h-69
l4 18q8 44 38.5 70t66.5 26q31 0 71.5 -22t54.5 -22q38 0 48 43h68l-3 -18q-8 -44 -37.5 -70t-67.5 -26z" />
    <glyph glyph-name="Odieresis" unicode="&#xd6;" horiz-adv-x="802" 
d="M401 79q116 0 193 79.5t77 196.5t-77 196.5t-193 79.5t-193 -79.5t-77 -196.5t77 -196.5t193 -79.5zM401 -8q-153 0 -258 104.5t-105 258.5t105 258.5t258 104.5t258 -104.5t105 -258.5t-105 -258.5t-258 -104.5zM288 782q-24 0 -42.5 18t-18.5 44q0 24 18.5 42t42.5 18
q26 0 44 -17.5t18 -42.5q0 -26 -18 -44t-44 -18zM513 782q-25 0 -43 18t-18 44q0 25 18 42.5t43 17.5q26 0 44 -17.5t18 -42.5q0 -26 -18 -44t-44 -18z" />
    <glyph glyph-name="multiply" unicode="&#xd7;" horiz-adv-x="590" 
d="M148 70l-50 49l148 147l-150 150l50 49l149 -150l148 148l49 -49l-148 -148l150 -149l-49 -49l-150 149z" />
    <glyph glyph-name="Oslash" unicode="&#xd8;" horiz-adv-x="802" 
d="M120 -15l-53 51l64 72q-93 103 -93 247q0 154 105 258.5t258 104.5q119 0 213 -67l71 79l54 -51l-69 -77q94 -104 94 -247q0 -154 -105 -258.5t-258 -104.5q-122 0 -215 67zM401 79q116 0 193 79.5t77 196.5q0 103 -62 179l-363 -408q67 -47 155 -47zM131 355
q0 -104 61 -179l363 408q-67 47 -154 47q-116 0 -193 -79.5t-77 -196.5z" />
    <glyph glyph-name="Ugrave" unicode="&#xd9;" horiz-adv-x="721" 
d="M360 -8q-126 0 -204.5 75t-78.5 203v440h91v-444q0 -90 52 -138.5t140 -48.5t140 48.5t52 138.5v444h91v-440q0 -129 -78 -203.5t-205 -74.5zM349 768l-113 145h109l77 -145h-73z" />
    <glyph glyph-name="Uacute" unicode="&#xda;" horiz-adv-x="721" 
d="M360 -8q-126 0 -204.5 75t-78.5 203v440h91v-444q0 -90 52 -138.5t140 -48.5t140 48.5t52 138.5v444h91v-440q0 -129 -78 -203.5t-205 -74.5zM299 768l77 145h108l-112 -145h-73z" />
    <glyph glyph-name="Ucircumflex" unicode="&#xdb;" horiz-adv-x="721" 
d="M360 -8q-126 0 -204.5 75t-78.5 203v440h91v-444q0 -90 52 -138.5t140 -48.5t140 48.5t52 138.5v444h91v-440q0 -129 -78 -203.5t-205 -74.5zM222 766l-35 60l173 100l173 -100l-35 -60l-138 82z" />
    <glyph glyph-name="Udieresis" unicode="&#xdc;" horiz-adv-x="721" 
d="M360 -8q-126 0 -204.5 75t-78.5 203v440h91v-444q0 -90 52 -138.5t140 -48.5t140 48.5t52 138.5v444h91v-440q0 -129 -78 -203.5t-205 -74.5zM247 782q-24 0 -42.5 18t-18.5 44q0 24 18.5 42t42.5 18q26 0 44 -17.5t18 -42.5q0 -26 -18 -44t-44 -18zM472 782
q-25 0 -43 18t-18 44q0 25 18 42.5t43 17.5q26 0 44 -17.5t18 -42.5q0 -26 -18 -44t-44 -18z" />
    <glyph glyph-name="Yacute" unicode="&#xdd;" horiz-adv-x="632" 
d="M270 0v301l-260 409h106l200 -320l200 320h106l-260 -409v-301h-92zM280 768l77 145h108l-112 -145h-73z" />
    <glyph glyph-name="Thorn" unicode="&#xde;" horiz-adv-x="550" 
d="M86 0v710h91v-136h102q114 0 183 -59.5t69 -157.5q0 -99 -69 -158.5t-183 -59.5h-102v-139h-91zM177 223h101q77 0 119 35.5t42 98.5t-42 97.5t-119 34.5h-101v-266z" />
    <glyph glyph-name="germandbls" unicode="&#xdf;" horiz-adv-x="526" 
d="M70 0v565q0 71 39 108t112 37h39v-78h-30q-40 0 -57 -20t-17 -60v-52h326l-135 -233q73 -24 113.5 -78t40.5 -133q0 -105 -72.5 -172.5t-188.5 -67.5h-7v82h8q79 0 126.5 43.5t47.5 114.5q0 67 -44.5 109t-129.5 42h-18l124 215h-191v-422h-86z" />
    <glyph glyph-name="agrave" unicode="&#xe0;" horiz-adv-x="620" 
d="M457 0v50q-64 -58 -159 -58q-110 0 -182.5 74.5t-72.5 183.5t72.5 183.5t182.5 74.5q95 0 159 -58v50h86v-500h-86zM300 73q52 0 93 22t64 59v192q-23 37 -64 59t-93 22q-73 0 -120.5 -51t-47.5 -126t47.5 -126t120.5 -51zM283 545l-125 165h109l87 -165h-71z" />
    <glyph glyph-name="aacute" unicode="&#xe1;" horiz-adv-x="620" 
d="M457 0v50q-64 -58 -159 -58q-110 0 -182.5 74.5t-72.5 183.5t72.5 183.5t182.5 74.5q95 0 159 -58v50h86v-500h-86zM300 73q52 0 93 22t64 59v192q-23 37 -64 59t-93 22q-73 0 -120.5 -51t-47.5 -126t47.5 -126t120.5 -51zM262 545l87 165h109l-124 -165h-72z" />
    <glyph glyph-name="acircumflex" unicode="&#xe2;" horiz-adv-x="620" 
d="M457 0v50q-64 -58 -159 -58q-110 0 -182.5 74.5t-72.5 183.5t72.5 183.5t182.5 74.5q95 0 159 -58v50h86v-500h-86zM300 73q52 0 93 22t64 59v192q-23 37 -64 59t-93 22q-73 0 -120.5 -51t-47.5 -126t47.5 -126t120.5 -51zM182 553l-34 58l170 107l170 -107l-35 -58
l-135 86z" />
    <glyph glyph-name="atilde" unicode="&#xe3;" horiz-adv-x="620" 
d="M457 0v50q-64 -58 -159 -58q-110 0 -182.5 74.5t-72.5 183.5t72.5 183.5t182.5 74.5q95 0 159 -58v50h86v-500h-86zM300 73q52 0 93 22t64 59v192q-23 37 -64 59t-93 22q-73 0 -120.5 -51t-47.5 -126t47.5 -126t120.5 -51zM145 566l3 19q9 44 38 69t65 25q31 0 71.5 -22
t54.5 -22q37 0 48 44h66l-3 -18q-8 -42 -36.5 -68t-66.5 -26q-31 0 -72.5 22t-55.5 22q-35 0 -46 -45h-66z" />
    <glyph glyph-name="adieresis" unicode="&#xe4;" horiz-adv-x="620" 
d="M457 0v50q-64 -58 -159 -58q-110 0 -182.5 74.5t-72.5 183.5t72.5 183.5t182.5 74.5q95 0 159 -58v50h86v-500h-86zM300 73q52 0 93 22t64 59v192q-23 37 -64 59t-93 22q-73 0 -120.5 -51t-47.5 -126t47.5 -126t120.5 -51zM205 571q-24 0 -42 17.5t-18 42.5q0 24 18 41.5
t42 17.5q26 0 43.5 -17t17.5 -42t-17.5 -42.5t-43.5 -17.5zM430 571q-25 0 -42.5 17.5t-17.5 42.5t17.5 42t42.5 17t42.5 -17t17.5 -42t-17 -42.5t-43 -17.5z" />
    <glyph glyph-name="aring" unicode="&#xe5;" horiz-adv-x="620" 
d="M457 0v50q-64 -58 -159 -58q-110 0 -182.5 74.5t-72.5 183.5t72.5 183.5t182.5 74.5q95 0 159 -58v50h86v-500h-86zM300 73q52 0 93 22t64 59v192q-23 37 -64 59t-93 22q-73 0 -120.5 -51t-47.5 -126t47.5 -126t120.5 -51zM298 613q20 0 34 13t14 34t-14 34.5t-34 13.5
t-34 -13.5t-14 -34.5t14 -34t34 -13zM298 566q-41 0 -70 27t-29 67q0 41 29 68t70 27t70 -27t29 -68q0 -40 -29 -67t-70 -27z" />
    <glyph glyph-name="ae" unicode="&#xe6;" horiz-adv-x="922" 
d="M645 -8q-130 0 -205 99q-85 -99 -212 -99q-91 0 -145 45t-54 121q0 72 57.5 118t147.5 46q88 0 153 -36v25q-2 116 -138 116q-82 0 -142 -51l-41 70q78 62 184 62q65 0 115.5 -24.5t74.5 -74.5q76 99 199 99q108 0 175.5 -74t68.5 -205h-406q6 -67 53 -111.5t115 -44.5
q86 0 146 60l55 -60q-77 -81 -201 -81zM232 73q54 0 94.5 21t60.5 56v56q-56 43 -146 43q-53 0 -88 -23.5t-35 -67.5q0 -43 32.5 -64t81.5 -21zM634 429q-55 0 -97.5 -34t-55.5 -91h305q-9 60 -51 93t-101 32z" />
    <glyph glyph-name="ccedilla" unicode="&#xe7;" horiz-adv-x="528" 
d="M185 -135l74 130q-95 14 -155.5 85.5t-60.5 169.5q0 109 73.5 183.5t183.5 74.5q114 0 191 -79l-55 -60q-58 58 -136 58q-73 0 -120.5 -51t-47.5 -126t47.5 -126t120.5 -51q78 0 136 58l55 -60q-71 -73 -172 -78l-36 -128h-98z" />
    <glyph glyph-name="egrave" unicode="&#xe8;" horiz-adv-x="577" 
d="M300 -8q-110 0 -183.5 74.5t-73.5 183.5t73 183.5t178 74.5q108 0 175.5 -74t68.5 -205h-406q6 -67 53 -111.5t115 -44.5q86 0 146 60l55 -60q-77 -81 -201 -81zM289 429q-55 0 -97.5 -34t-55.5 -91h305q-9 60 -51 93t-101 32zM289 545l-125 165h109l87 -165h-71z" />
    <glyph glyph-name="eacute" unicode="&#xe9;" horiz-adv-x="577" 
d="M300 -8q-110 0 -183.5 74.5t-73.5 183.5t73 183.5t178 74.5q108 0 175.5 -74t68.5 -205h-406q6 -67 53 -111.5t115 -44.5q86 0 146 60l55 -60q-77 -81 -201 -81zM289 429q-55 0 -97.5 -34t-55.5 -91h305q-9 60 -51 93t-101 32zM238 545l87 165h109l-124 -165h-72z" />
    <glyph glyph-name="ecircumflex" unicode="&#xea;" horiz-adv-x="577" 
d="M300 -8q-110 0 -183.5 74.5t-73.5 183.5t73 183.5t178 74.5q108 0 175.5 -74t68.5 -205h-406q6 -67 53 -111.5t115 -44.5q86 0 146 60l55 -60q-77 -81 -201 -81zM289 429q-55 0 -97.5 -34t-55.5 -91h305q-9 60 -51 93t-101 32zM158 553l-34 58l170 107l170 -107l-35 -58
l-135 86z" />
    <glyph glyph-name="edieresis" unicode="&#xeb;" horiz-adv-x="577" 
d="M300 -8q-110 0 -183.5 74.5t-73.5 183.5t73 183.5t178 74.5q108 0 175.5 -74t68.5 -205h-406q6 -67 53 -111.5t115 -44.5q86 0 146 60l55 -60q-77 -81 -201 -81zM289 429q-55 0 -97.5 -34t-55.5 -91h305q-9 60 -51 93t-101 32zM182 571q-24 0 -42 17.5t-18 42.5
q0 24 18 41.5t42 17.5q26 0 43.5 -17t17.5 -42t-17.5 -42.5t-43.5 -17.5zM407 571q-25 0 -42.5 17.5t-17.5 42.5t17.5 42t42.5 17t42.5 -17t17.5 -42t-17.5 -42.5t-42.5 -17.5z" />
    <glyph glyph-name="igrave" unicode="&#xec;" 
d="M77 0v500h86v-500h-86zM115 545l-125 165h109l87 -165h-71z" />
    <glyph glyph-name="iacute" unicode="&#xed;" 
d="M77 0v500h86v-500h-86zM55 545l87 165h109l-124 -165h-72z" />
    <glyph glyph-name="icircumflex" unicode="&#xee;" 
d="M-16 553l-34 58l170 107l170 -107l-35 -58l-135 86zM77 0v500h86v-500h-86z" />
    <glyph glyph-name="idieresis" unicode="&#xef;" 
d="M77 0v500h86v-500h-86zM7 571q-24 0 -42 17.5t-18 42.5q0 24 18 41.5t42 17.5q26 0 43.5 -17t17.5 -42t-17.5 -42.5t-43.5 -17.5zM232 571q-25 0 -42.5 17.5t-17.5 42.5t17.5 42t42.5 17t42.5 -17t17.5 -42t-17 -42.5t-43 -17.5z" />
    <glyph glyph-name="eth" unicode="&#xf0;" horiz-adv-x="605" 
d="M177 562v67h85l-55 81h94l56 -81h125v-67h-79l105 -152q54 -80 54 -160q0 -108 -74.5 -183t-185.5 -75t-185 75t-74 183q0 105 71.5 180t179.5 78q27 0 58 -9l-44 63h-131zM302 71q76 0 124 51.5t48 127.5t-48 127.5t-124 51.5q-75 0 -123.5 -51.5t-48.5 -127.5
t48.5 -127.5t123.5 -51.5z" />
    <glyph glyph-name="ntilde" unicode="&#xf1;" horiz-adv-x="578" 
d="M77 0v500h86v-57q51 65 155 65q86 0 139.5 -55.5t53.5 -147.5v-305h-86v300q0 56 -34 91.5t-92 35.5q-52 0 -87 -27.5t-49 -76.5v-323h-86zM121 566l3 19q9 44 38 69t65 25q31 0 71.5 -22t54.5 -22q37 0 48 44h66l-3 -18q-8 -42 -36.5 -68t-66.5 -26q-31 0 -72.5 22
t-55.5 22q-35 0 -46 -45h-66z" />
    <glyph glyph-name="ograve" unicode="&#xf2;" horiz-adv-x="605" 
d="M303 73q75 0 122.5 50.5t47.5 126.5t-47.5 126.5t-122.5 50.5t-123 -51t-48 -126t48 -126t123 -51zM303 -8q-112 0 -186 74.5t-74 183.5t74 183.5t186 74.5t185.5 -74.5t73.5 -183.5t-73.5 -183.5t-185.5 -74.5zM287 545l-125 165h109l87 -165h-71z" />
    <glyph glyph-name="oacute" unicode="&#xf3;" horiz-adv-x="605" 
d="M303 73q75 0 122.5 50.5t47.5 126.5t-47.5 126.5t-122.5 50.5t-123 -51t-48 -126t48 -126t123 -51zM303 -8q-112 0 -186 74.5t-74 183.5t74 183.5t186 74.5t185.5 -74.5t73.5 -183.5t-73.5 -183.5t-185.5 -74.5zM247 545l87 165h109l-124 -165h-72z" />
    <glyph glyph-name="ocircumflex" unicode="&#xf4;" horiz-adv-x="605" 
d="M303 73q75 0 122.5 50.5t47.5 126.5t-47.5 126.5t-122.5 50.5t-123 -51t-48 -126t48 -126t123 -51zM303 -8q-112 0 -186 74.5t-74 183.5t74 183.5t186 74.5t185.5 -74.5t73.5 -183.5t-73.5 -183.5t-185.5 -74.5zM166 553l-34 58l170 107l170 -107l-35 -58l-135 86z" />
    <glyph glyph-name="otilde" unicode="&#xf5;" horiz-adv-x="605" 
d="M303 73q75 0 122.5 50.5t47.5 126.5t-47.5 126.5t-122.5 50.5t-123 -51t-48 -126t48 -126t123 -51zM303 -8q-112 0 -186 74.5t-74 183.5t74 183.5t186 74.5t185.5 -74.5t73.5 -183.5t-73.5 -183.5t-185.5 -74.5zM129 566l3 19q9 44 38 69t65 25q31 0 71.5 -22t54.5 -22
q37 0 48 44h66l-3 -18q-8 -42 -36.5 -68t-66.5 -26q-31 0 -72.5 22t-55.5 22q-35 0 -46 -45h-66z" />
    <glyph glyph-name="odieresis" unicode="&#xf6;" horiz-adv-x="605" 
d="M303 73q75 0 122.5 50.5t47.5 126.5t-47.5 126.5t-122.5 50.5t-123 -51t-48 -126t48 -126t123 -51zM303 -8q-112 0 -186 74.5t-74 183.5t74 183.5t186 74.5t185.5 -74.5t73.5 -183.5t-73.5 -183.5t-185.5 -74.5zM189 571q-24 0 -42 17.5t-18 42.5q0 24 18 41.5t42 17.5
q26 0 43.5 -17t17.5 -42t-17.5 -42.5t-43.5 -17.5zM414 571q-25 0 -42.5 17.5t-17.5 42.5t17.5 42t42.5 17t42.5 -17t17.5 -42t-17 -42.5t-43 -17.5z" />
    <glyph glyph-name="divide" unicode="&#xf7;" horiz-adv-x="630" 
d="M315 69q-27 0 -47 19.5t-20 46.5t20 46.5t47 19.5q28 0 47 -19t19 -47t-19 -47t-47 -19zM96 240v70h438v-70h-438zM315 348q-27 0 -47 19.5t-20 47.5q0 27 20 46.5t47 19.5q28 0 47 -19.5t19 -46.5q0 -28 -19 -47.5t-47 -19.5z" />
    <glyph glyph-name="oslash" unicode="&#xf8;" horiz-adv-x="606" 
d="M89 -16l-50 50l56 57q-52 69 -52 159q0 109 74 183.5t186 74.5q87 0 154 -48l54 55l50 -50l-53 -54q54 -70 54 -161q0 -109 -73.5 -183.5t-185.5 -74.5q-91 0 -158 50zM303 73q75 0 122.5 50.5t47.5 126.5q0 54 -27 98l-241 -246q43 -29 98 -29zM132 250q0 -54 25 -96
l241 245q-42 28 -95 28q-75 0 -123 -51t-48 -126z" />
    <glyph glyph-name="ugrave" unicode="&#xf9;" horiz-adv-x="568" 
d="M405 0v56q-52 -64 -154 -64q-86 0 -139.5 55.5t-53.5 147.5v305h86v-300q0 -56 34 -91.5t91 -35.5q104 0 136 100v327h86v-500h-86zM258 545l-125 165h109l87 -165h-71z" />
    <glyph glyph-name="uacute" unicode="&#xfa;" horiz-adv-x="568" 
d="M405 0v56q-52 -64 -154 -64q-86 0 -139.5 55.5t-53.5 147.5v305h86v-300q0 -56 34 -91.5t91 -35.5q104 0 136 100v327h86v-500h-86zM218 545l87 165h109l-124 -165h-72z" />
    <glyph glyph-name="ucircumflex" unicode="&#xfb;" horiz-adv-x="568" 
d="M405 0v56q-52 -64 -154 -64q-86 0 -139.5 55.5t-53.5 147.5v305h86v-300q0 -56 34 -91.5t91 -35.5q104 0 136 100v327h86v-500h-86zM138 553l-34 58l170 107l170 -107l-35 -58l-135 86z" />
    <glyph glyph-name="udieresis" unicode="&#xfc;" horiz-adv-x="568" 
d="M405 0v56q-52 -64 -154 -64q-86 0 -139.5 55.5t-53.5 147.5v305h86v-300q0 -56 34 -91.5t91 -35.5q104 0 136 100v327h86v-500h-86zM161 571q-24 0 -42 17.5t-18 42.5q0 24 18 41.5t42 17.5q26 0 43.5 -17t17.5 -42t-17.5 -42.5t-43.5 -17.5zM386 571q-25 0 -42.5 17.5
t-17.5 42.5t17.5 42t42.5 17t42.5 -17t17.5 -42t-17 -42.5t-43 -17.5z" />
    <glyph glyph-name="yacute" unicode="&#xfd;" horiz-adv-x="510" 
d="M107 -184l103 226l-204 458h93l156 -364l157 364h93l-307 -684h-91zM219 545l87 165h109l-124 -165h-72z" />
    <glyph glyph-name="thorn" unicode="&#xfe;" horiz-adv-x="620" 
d="M77 -184v894h86v-260q63 58 159 58q110 0 182.5 -74.5t72.5 -183.5t-72.5 -183.5t-182.5 -74.5q-96 0 -159 58v-234h-86zM320 427q-52 0 -93.5 -22.5t-63.5 -58.5v-192q22 -36 63.5 -58.5t93.5 -22.5q73 0 120.5 51t47.5 126t-47.5 126t-120.5 51z" />
    <glyph glyph-name="ydieresis" unicode="&#xff;" horiz-adv-x="510" 
d="M107 -184l103 226l-204 458h93l156 -364l157 364h93l-307 -684h-91zM149 571q-24 0 -42 17.5t-18 42.5q0 24 18 41.5t42 17.5q26 0 43.5 -17t17.5 -42t-17.5 -42.5t-43.5 -17.5zM374 571q-25 0 -42.5 17.5t-17.5 42.5t17.5 42t42.5 17t42.5 -17t17.5 -42t-17 -42.5
t-43 -17.5z" />
    <glyph glyph-name="Amacron" unicode="&#x100;" horiz-adv-x="710" 
d="M9 0l346 718l346 -718h-98l-88 186h-320l-88 -186h-98zM355 524l-120 -254h240zM208 803v65h292v-65h-292z" />
    <glyph glyph-name="amacron" unicode="&#x101;" horiz-adv-x="620" 
d="M457 0v50q-64 -58 -159 -58q-110 0 -182.5 74.5t-72.5 183.5t72.5 183.5t182.5 74.5q95 0 159 -58v50h86v-500h-86zM300 73q52 0 93 22t64 59v192q-23 37 -64 59t-93 22q-73 0 -120.5 -51t-47.5 -126t47.5 -126t120.5 -51zM172 614v65h292v-65h-292z" />
    <glyph glyph-name="Abreve" unicode="&#x102;" horiz-adv-x="710" 
d="M9 0l346 718l346 -718h-98l-88 186h-320l-88 -186h-98zM355 524l-120 -254h240zM353 772q-68 0 -110.5 39.5t-45.5 97.5h64q2 -33 27 -56t66 -23t66.5 23t27.5 56h64q-4 -58 -47 -97.5t-112 -39.5z" />
    <glyph glyph-name="abreve" unicode="&#x103;" horiz-adv-x="620" 
d="M457 0v50q-64 -58 -159 -58q-110 0 -182.5 74.5t-72.5 183.5t72.5 183.5t182.5 74.5q95 0 159 -58v50h86v-500h-86zM300 73q52 0 93 22t64 59v192q-23 37 -64 59t-93 22q-73 0 -120.5 -51t-47.5 -126t47.5 -126t120.5 -51zM317 573q-68 0 -110.5 39.5t-45.5 97.5h64
q2 -33 27 -56t66 -23t66.5 23t27.5 56h64q-4 -58 -47 -97.5t-112 -39.5z" />
    <glyph glyph-name="Aogonek" unicode="&#x104;" horiz-adv-x="710" 
d="M9 0l346 718l346 -718h-1q-76 -33 -76 -81q0 -23 14 -35.5t30 -12.5q18 0 33 11v-54q-27 -18 -61 -18q-40 0 -68.5 26.5t-28.5 68.5q0 29 17 54.5t43 40.5l-88 186h-320l-88 -186h-98zM355 524l-120 -254h240z" />
    <glyph glyph-name="aogonek" unicode="&#x105;" horiz-adv-x="622" 
d="M457 0v50q-64 -58 -159 -58q-110 0 -182.5 74.5t-72.5 183.5t72.5 183.5t182.5 74.5q95 0 159 -58v50h86v-500q-31 -15 -50.5 -36.5t-19.5 -44.5q0 -22 14 -35t29 -13q14 0 29 11v-54q-22 -18 -58 -18t-64 26.5t-28 68.5q0 28 17.5 54t44.5 41zM300 73q52 0 93 22t64 59
v192q-23 37 -64 59t-93 22q-73 0 -120.5 -51t-47.5 -126t47.5 -126t120.5 -51z" />
    <glyph glyph-name="Cacute" unicode="&#x106;" horiz-adv-x="663" 
d="M401 -8q-153 0 -258 104.5t-105 258.5t105 258.5t258 104.5q137 0 230 -84l-53 -69q-78 66 -177 66q-116 0 -193 -79.5t-77 -196.5t77 -196.5t193 -79.5q99 0 177 66l53 -69q-93 -84 -230 -84zM336 768l77 145h108l-112 -145h-73z" />
    <glyph glyph-name="cacute" unicode="&#x107;" horiz-adv-x="528" 
d="M300 -8q-110 0 -183.5 74.5t-73.5 183.5t73.5 183.5t183.5 74.5q114 0 191 -79l-55 -60q-58 58 -136 58q-73 0 -120.5 -51t-47.5 -126t47.5 -126t120.5 -51q78 0 136 58l55 -60q-77 -79 -191 -79zM245 545l87 165h109l-124 -165h-72z" />
    <glyph glyph-name="Ccircumflex" unicode="&#x108;" horiz-adv-x="663" 
d="M401 -8q-153 0 -258 104.5t-105 258.5t105 258.5t258 104.5q137 0 230 -84l-53 -69q-78 66 -177 66q-116 0 -193 -79.5t-77 -196.5t77 -196.5t193 -79.5q99 0 177 66l53 -69q-93 -84 -230 -84zM262 766l-35 60l173 100l173 -100l-35 -60l-138 82z" />
    <glyph glyph-name="ccircumflex" unicode="&#x109;" horiz-adv-x="528" 
d="M300 -8q-110 0 -183.5 74.5t-73.5 183.5t73.5 183.5t183.5 74.5q114 0 191 -79l-55 -60q-58 58 -136 58q-73 0 -120.5 -51t-47.5 -126t47.5 -126t120.5 -51q78 0 136 58l55 -60q-77 -79 -191 -79zM165 553l-34 58l170 107l170 -107l-35 -58l-135 86z" />
    <glyph glyph-name="Cdotaccent" unicode="&#x10a;" horiz-adv-x="663" 
d="M401 -8q-153 0 -258 104.5t-105 258.5t105 258.5t258 104.5q137 0 230 -84l-53 -69q-78 66 -177 66q-116 0 -193 -79.5t-77 -196.5t77 -196.5t193 -79.5q99 0 177 66l53 -69q-93 -84 -230 -84zM401 780q-25 0 -43.5 18.5t-18.5 45.5q0 25 18.5 43.5t43.5 18.5
q27 0 45.5 -18t18.5 -44q0 -27 -18.5 -45.5t-45.5 -18.5z" />
    <glyph glyph-name="cdotaccent" unicode="&#x10b;" horiz-adv-x="528" 
d="M300 -8q-110 0 -183.5 74.5t-73.5 183.5t73.5 183.5t183.5 74.5q114 0 191 -79l-55 -60q-58 58 -136 58q-73 0 -120.5 -51t-47.5 -126t47.5 -126t120.5 -51q78 0 136 58l55 -60q-77 -79 -191 -79zM302 569q-26 0 -44 18t-18 44q0 25 18 43t44 18t44 -17.5t18 -43.5
t-18 -44t-44 -18z" />
    <glyph glyph-name="Ccaron" unicode="&#x10c;" horiz-adv-x="663" 
d="M401 -8q-153 0 -258 104.5t-105 258.5t105 258.5t258 104.5q137 0 230 -84l-53 -69q-78 66 -177 66q-116 0 -193 -79.5t-77 -196.5t77 -196.5t193 -79.5q99 0 177 66l53 -69q-93 -84 -230 -84zM400 766l-173 100l35 60l138 -82l138 82l35 -60z" />
    <glyph glyph-name="ccaron" unicode="&#x10d;" horiz-adv-x="528" 
d="M300 -8q-110 0 -183.5 74.5t-73.5 183.5t73.5 183.5t183.5 74.5q114 0 191 -79l-55 -60q-58 58 -136 58q-73 0 -120.5 -51t-47.5 -126t47.5 -126t120.5 -51q78 0 136 58l55 -60q-77 -79 -191 -79zM470 676l-170 -107l-170 107l34 58l136 -86l135 86z" />
    <glyph glyph-name="Dcaron" unicode="&#x10e;" horiz-adv-x="713" 
d="M177 85h120q128 0 207 76t79 194t-79 194t-207 76h-120v-540zM86 0v710h211q164 0 271.5 -101t107.5 -254t-107.5 -254t-271.5 -101h-211zM320 766l-173 100l35 60l138 -82l138 82l35 -60z" />
    <glyph glyph-name="dcaron" unicode="&#x10f;" horiz-adv-x="620" 
d="M457 0v50q-64 -58 -159 -58q-110 0 -182.5 74.5t-72.5 183.5t72.5 183.5t182.5 74.5q95 0 159 -58v260h86v-710h-86zM300 73q52 0 93 22t64 59v192q-23 37 -64 59t-93 22q-73 0 -120.5 -51t-47.5 -126t47.5 -126t120.5 -51zM604 545l25 165h87l-51 -165h-61z" />
    <glyph glyph-name="Dcroat" unicode="&#x110;" horiz-adv-x="744" 
d="M9 312v87h108v311h211q164 0 271.5 -101t107.5 -254t-107.5 -254t-271.5 -101h-211v312h-108zM208 85h120q128 0 207 76t79 194t-79 194t-207 76h-120v-226h134v-87h-134v-227z" />
    <glyph glyph-name="dcroat" unicode="&#x111;" horiz-adv-x="620" 
d="M286 568v74h171v68h86v-68h70v-74h-70v-568h-86v50q-64 -58 -159 -58q-110 0 -182.5 74.5t-72.5 183.5t72.5 183.5t182.5 74.5q95 0 159 -58v118h-171zM300 73q52 0 93 22t64 59v192q-23 37 -64 59t-93 22q-73 0 -120.5 -51t-47.5 -126t47.5 -126t120.5 -51z" />
    <glyph glyph-name="Emacron" unicode="&#x112;" horiz-adv-x="545" 
d="M86 0v710h410v-88h-319v-215h259v-88h-259v-231h319v-88h-410zM144 803v65h292v-65h-292z" />
    <glyph glyph-name="emacron" unicode="&#x113;" horiz-adv-x="577" 
d="M300 -8q-110 0 -183.5 74.5t-73.5 183.5t73 183.5t178 74.5q108 0 175.5 -74t68.5 -205h-406q6 -67 53 -111.5t115 -44.5q86 0 146 60l55 -60q-77 -81 -201 -81zM289 429q-55 0 -97.5 -34t-55.5 -91h305q-9 60 -51 93t-101 32zM148 614v65h292v-65h-292z" />
    <glyph glyph-name="Ebreve" unicode="&#x114;" horiz-adv-x="545" 
d="M86 0v710h410v-88h-319v-215h259v-88h-259v-231h319v-88h-410zM289 772q-68 0 -110.5 39.5t-45.5 97.5h64q2 -33 27 -56t66 -23t66.5 23t27.5 56h64q-4 -58 -47 -97.5t-112 -39.5z" />
    <glyph glyph-name="ebreve" unicode="&#x115;" horiz-adv-x="577" 
d="M300 -8q-110 0 -183.5 74.5t-73.5 183.5t73 183.5t178 74.5q108 0 175.5 -74t68.5 -205h-406q6 -67 53 -111.5t115 -44.5q86 0 146 60l55 -60q-77 -81 -201 -81zM289 429q-55 0 -97.5 -34t-55.5 -91h305q-9 60 -51 93t-101 32zM293 573q-68 0 -110.5 39.5t-45.5 97.5h64
q2 -33 27 -56t66 -23t66.5 23t27.5 56h64q-4 -58 -47 -97.5t-112 -39.5z" />
    <glyph glyph-name="Edotaccent" unicode="&#x116;" horiz-adv-x="545" 
d="M86 0v710h410v-88h-319v-215h259v-88h-259v-231h319v-88h-410zM293 780q-25 0 -43.5 18.5t-18.5 45.5q0 25 18.5 43.5t43.5 18.5q27 0 45.5 -18t18.5 -44q0 -27 -18.5 -45.5t-45.5 -18.5z" />
    <glyph glyph-name="edotaccent" unicode="&#x117;" horiz-adv-x="577" 
d="M300 -8q-110 0 -183.5 74.5t-73.5 183.5t73 183.5t178 74.5q108 0 175.5 -74t68.5 -205h-406q6 -67 53 -111.5t115 -44.5q86 0 146 60l55 -60q-77 -81 -201 -81zM289 429q-55 0 -97.5 -34t-55.5 -91h305q-9 60 -51 93t-101 32zM294 569q-26 0 -44 18t-18 44q0 25 18 43
t44 18t44 -17.5t18 -43.5t-18 -44t-44 -18z" />
    <glyph glyph-name="Eogonek" unicode="&#x118;" horiz-adv-x="545" 
d="M86 0v710h410v-88h-319v-215h259v-88h-259v-231h319v-88h-1q-85 -37 -85 -84q0 -17 13.5 -28.5t36.5 -11.5q17 0 36 7v-59q-27 -13 -64 -13q-45 0 -76.5 24t-31.5 65q0 30 23.5 59t55.5 41h-317z" />
    <glyph glyph-name="eogonek" unicode="&#x119;" horiz-adv-x="577" 
d="M308 -178q-44 0 -74.5 23.5t-30.5 63.5q0 54 66 85q-99 10 -162.5 82.5t-63.5 173.5q0 109 73 183.5t178 74.5q108 0 175.5 -74t68.5 -205h-406q6 -67 53 -111.5t115 -44.5q86 0 146 60l55 -60q-54 -56 -134 -73q-80 -36 -80 -75q0 -17 13 -27.5t37 -10.5q14 0 33 7v-59
q-23 -13 -62 -13zM289 429q-55 0 -97.5 -34t-55.5 -91h305q-9 60 -51 93t-101 32z" />
    <glyph glyph-name="Ecaron" unicode="&#x11a;" horiz-adv-x="545" 
d="M86 0v710h410v-88h-319v-215h259v-88h-259v-231h319v-88h-410zM290 766l-173 100l35 60l138 -82l138 82l35 -60z" />
    <glyph glyph-name="ecaron" unicode="&#x11b;" horiz-adv-x="577" 
d="M300 -8q-110 0 -183.5 74.5t-73.5 183.5t73 183.5t178 74.5q108 0 175.5 -74t68.5 -205h-406q6 -67 53 -111.5t115 -44.5q86 0 146 60l55 -60q-77 -81 -201 -81zM289 429q-55 0 -97.5 -34t-55.5 -91h305q-9 60 -51 93t-101 32zM464 676l-170 -107l-170 107l34 58l136 -86
l135 86z" />
    <glyph glyph-name="Gcircumflex" unicode="&#x11c;" horiz-adv-x="730" 
d="M401 -8q-153 0 -258 104.5t-105 258.5t105 258.5t258 104.5q149 0 247 -90l-56 -68q-76 71 -191 71q-116 0 -193 -79.5t-77 -196.5t77 -196.5t193 -79.5q95 0 161 39v201h-198l39 88h250v-335q-106 -80 -252 -80zM263 766l-35 60l173 100l173 -100l-35 -60l-138 82z" />
    <glyph glyph-name="gcircumflex" unicode="&#x11d;" horiz-adv-x="610" 
d="M291 -194q-122 0 -213 59l45 73q70 -52 171 -52q73 0 120.5 30t47.5 96q0 37 -13 63q-62 -60 -159 -60q-110 0 -178.5 70t-68.5 176t68.5 176.5t178.5 70.5q92 0 156 -59v51h86v-398q19 -50 19 -98q0 -100 -76 -149t-184 -49zM292 95q52 0 92.5 22.5t61.5 59.5v169
q-21 36 -61.5 58.5t-92.5 22.5q-71 0 -115.5 -47t-44.5 -119q0 -71 45 -118.5t115 -47.5zM165 553l-34 58l170 107l170 -107l-35 -58l-135 86z" />
    <glyph glyph-name="Gbreve" unicode="&#x11e;" horiz-adv-x="730" 
d="M401 -8q-153 0 -258 104.5t-105 258.5t105 258.5t258 104.5q149 0 247 -90l-56 -68q-76 71 -191 71q-116 0 -193 -79.5t-77 -196.5t77 -196.5t193 -79.5q95 0 161 39v201h-198l39 88h250v-335q-106 -80 -252 -80zM399 772q-68 0 -110.5 39.5t-45.5 97.5h64q2 -33 27 -56
t66 -23t66.5 23t27.5 56h64q-4 -58 -47 -97.5t-112 -39.5z" />
    <glyph glyph-name="gbreve" unicode="&#x11f;" horiz-adv-x="610" 
d="M291 -194q-122 0 -213 59l45 73q70 -52 171 -52q73 0 120.5 30t47.5 96q0 37 -13 63q-62 -60 -159 -60q-110 0 -178.5 70t-68.5 176t68.5 176.5t178.5 70.5q92 0 156 -59v51h86v-398q19 -50 19 -98q0 -100 -76 -149t-184 -49zM292 95q52 0 92.5 22.5t61.5 59.5v169
q-21 36 -61.5 58.5t-92.5 22.5q-71 0 -115.5 -47t-44.5 -119q0 -71 45 -118.5t115 -47.5zM301 573q-68 0 -110.5 39.5t-45.5 97.5h64q2 -33 27 -56t66 -23t66.5 23t27.5 56h64q-4 -58 -47 -97.5t-112 -39.5z" />
    <glyph glyph-name="Gdotaccent" unicode="&#x120;" horiz-adv-x="730" 
d="M401 -8q-153 0 -258 104.5t-105 258.5t105 258.5t258 104.5q149 0 247 -90l-56 -68q-76 71 -191 71q-116 0 -193 -79.5t-77 -196.5t77 -196.5t193 -79.5q95 0 161 39v201h-198l39 88h250v-335q-106 -80 -252 -80zM400 780q-25 0 -43.5 18.5t-18.5 45.5q0 25 18.5 43.5
t43.5 18.5q27 0 45.5 -18t18.5 -44q0 -27 -18.5 -45.5t-45.5 -18.5z" />
    <glyph glyph-name="gdotaccent" unicode="&#x121;" horiz-adv-x="610" 
d="M291 -194q-122 0 -213 59l45 73q70 -52 171 -52q73 0 120.5 30t47.5 96q0 37 -13 63q-62 -60 -159 -60q-110 0 -178.5 70t-68.5 176t68.5 176.5t178.5 70.5q92 0 156 -59v51h86v-398q19 -50 19 -98q0 -100 -76 -149t-184 -49zM292 95q52 0 92.5 22.5t61.5 59.5v169
q-21 36 -61.5 58.5t-92.5 22.5q-71 0 -115.5 -47t-44.5 -119q0 -71 45 -118.5t115 -47.5zM291 569q-26 0 -44 18t-18 44q0 25 18 43t44 18t44 -17.5t18 -43.5t-18 -44t-44 -18z" />
    <glyph glyph-name="Gcommaaccent" unicode="&#x122;" horiz-adv-x="730" 
d="M278 -229l74 179h100l-109 -179h-65zM401 -8q-153 0 -258 104.5t-105 258.5t105 258.5t258 104.5q149 0 247 -90l-56 -68q-76 71 -191 71q-116 0 -193 -79.5t-77 -196.5t77 -196.5t193 -79.5q95 0 161 39v201h-198l39 88h250v-335q-106 -80 -252 -80z" />
    <glyph glyph-name="gcommaaccent" unicode="&#x123;" horiz-adv-x="610" 
d="M415 722l-74 -179h-100l109 179h65zM291 -194q-122 0 -213 59l45 73q70 -52 171 -52q73 0 120.5 30t47.5 96q0 37 -13 63q-62 -60 -159 -60q-110 0 -178.5 70t-68.5 176t68.5 176.5t178.5 70.5q92 0 156 -59v51h86v-398q19 -50 19 -98q0 -100 -76 -149t-184 -49zM292 95
q52 0 92.5 22.5t61.5 59.5v169q-21 36 -61.5 58.5t-92.5 22.5q-71 0 -115.5 -47t-44.5 -119q0 -71 45 -118.5t115 -47.5z" />
    <glyph glyph-name="Hcircumflex" unicode="&#x124;" horiz-adv-x="746" 
d="M86 0v710h91v-303h392v303h91v-710h-91v319h-392v-319h-91zM235 766l-35 60l173 100l173 -100l-35 -60l-138 82z" />
    <glyph glyph-name="hcircumflex" unicode="&#x125;" horiz-adv-x="578" 
d="M77 0v710h86v-267q51 65 155 65q86 0 139.5 -55.5t53.5 -147.5v-305h-86v300q0 56 -34 91.5t-92 35.5q-52 0 -87 -27.5t-49 -76.5v-323h-86zM156 766l-35 60l173 100l173 -100l-35 -60l-138 82z" />
    <glyph glyph-name="Hbar" unicode="&#x126;" horiz-adv-x="746" 
d="M23 514v88h63v108h91v-108h392v108h91v-108h63v-88h-63v-514h-91v319h-392v-319h-91v514h-63zM177 407h392v107h-392v-107z" />
    <glyph glyph-name="hbar" unicode="&#x127;" horiz-adv-x="578" 
d="M7 568v74h70v68h86v-68h171v-74h-171v-125q51 65 155 65q86 0 139.5 -55.5t53.5 -147.5v-305h-86v300q0 56 -34 91.5t-92 35.5q-52 0 -87 -27.5t-49 -76.5v-323h-86v568h-70z" />
    <glyph glyph-name="Itilde" unicode="&#x128;" horiz-adv-x="263" 
d="M86 0v710h91v-710h-91zM200 783q-31 0 -72.5 22t-55.5 22q-36 0 -46 -43h-69l4 18q8 44 38.5 70t66.5 26q31 0 71.5 -22t54.5 -22q38 0 48 43h68l-3 -18q-8 -44 -37.5 -70t-67.5 -26z" />
    <glyph glyph-name="itilde" unicode="&#x129;" 
d="M77 0v500h86v-500h-86zM-52 566l3 19q9 44 38 69t65 25q31 0 71.5 -22t54.5 -22q37 0 48 44h66l-3 -18q-8 -42 -36.5 -68t-66.5 -26q-31 0 -72.5 22t-55.5 22q-36 0 -46 -45h-66z" />
    <glyph glyph-name="Imacron" unicode="&#x12a;" horiz-adv-x="263" 
d="M86 0v710h91v-710h-91zM-15 803v65h292v-65h-292z" />
    <glyph glyph-name="imacron" unicode="&#x12b;" 
d="M77 0v500h86v-500h-86zM-26 614v65h292v-65h-292z" />
    <glyph glyph-name="Ibreve" unicode="&#x12c;" horiz-adv-x="263" 
d="M86 0v710h91v-710h-91zM130 772q-68 0 -110.5 39.5t-45.5 97.5h64q2 -33 27 -56t66 -23t66.5 23t27.5 56h64q-4 -58 -47 -97.5t-112 -39.5z" />
    <glyph glyph-name="ibreve" unicode="&#x12d;" 
d="M119 573q-68 0 -110.5 39.5t-45.5 97.5h64q2 -33 27 -56t66 -23t66.5 23t27.5 56h64q-4 -58 -47 -97.5t-112 -39.5zM77 0v500h86v-500h-86z" />
    <glyph glyph-name="Iogonek" unicode="&#x12e;" horiz-adv-x="263" 
d="M121 -190q-40 0 -68.5 26.5t-28.5 68.5q0 28 17.5 54t44.5 41v710h91v-710q-72 -33 -72 -81q0 -23 14 -35.5t30 -12.5q18 0 33 11v-54q-27 -18 -61 -18z" />
    <glyph glyph-name="iogonek" unicode="&#x12f;" 
d="M77 0v500h86v-500q-81 -36 -81 -75q0 -17 13 -27.5t37 -10.5q14 0 33 7v-59q-23 -13 -62 -13q-44 0 -74.5 23.5t-30.5 63.5q0 30 23 54t56 37zM77 609q-19 17 -19 46q0 26 18 44.5t44 18.5t44 -18.5t18 -44.5q0 -29 -19 -46h-86z" />
    <glyph glyph-name="Idotaccent" unicode="&#x130;" horiz-adv-x="263" 
d="M86 0v710h91v-710h-91zM130 780q-25 0 -43.5 18.5t-18.5 45.5q0 25 18.5 43.5t43.5 18.5q27 0 45.5 -18t18.5 -44q0 -27 -18.5 -45.5t-45.5 -18.5z" />
    <glyph glyph-name="dotlessi" unicode="&#x131;" 
d="M77 0v500h86v-500h-86z" />
    <glyph glyph-name="Jcircumflex" unicode="&#x134;" horiz-adv-x="495" 
d="M217 -8q-89 0 -148 55t-59 151h91q0 -58 32.5 -88t82.5 -31q53 0 85 30.5t32 88.5v512h91v-518q0 -95 -59.5 -147.5t-147.5 -52.5zM240 766l-35 60l173 100l173 -100l-35 -60l-138 82z" />
    <glyph glyph-name="jcircumflex" unicode="&#x135;" 
d="M-16 553l-34 58l170 107l170 -107l-35 -58l-135 86zM-27 -184v78h30q40 0 57 20t17 60v526h86v-539q0 -71 -39 -108t-112 -37h-39z" />
    <glyph glyph-name="Kcommaaccent" unicode="&#x136;" horiz-adv-x="653" 
d="M204 -229l74 179h100l-109 -179h-65zM86 0v710h91v-356l324 356h112l-328 -361l355 -349h-121l-342 337v-337h-91z" />
    <glyph glyph-name="kcommaaccent" unicode="&#x137;" horiz-adv-x="516" 
d="M160 -229l74 179h100l-109 -179h-65zM77 0v710h86v-436l221 226h108l-233 -236l256 -264h-111l-241 249v-249h-86z" />
    <glyph glyph-name="Lacute" unicode="&#x139;" horiz-adv-x="499" 
d="M86 0v710h91v-621h311v-89h-402zM95 768l77 145h108l-112 -145h-73z" />
    <glyph glyph-name="lacute" unicode="&#x13a;" 
d="M77 0v710h86v-710h-86zM82 768l77 145h108l-112 -145h-73z" />
    <glyph glyph-name="Lcommaaccent" unicode="&#x13b;" horiz-adv-x="499" 
d="M157 -229l74 179h100l-109 -179h-65zM86 0v710h91v-621h311v-89h-402z" />
    <glyph glyph-name="lcommaaccent" unicode="&#x13c;" 
d="M77 0v710h86v-710h-86zM2 -229l74 179h100l-109 -179h-65z" />
    <glyph glyph-name="Lcaron" unicode="&#x13d;" horiz-adv-x="499" 
d="M86 0v710h91v-621h311v-89h-402zM256 545l25 165h87l-51 -165h-61z" />
    <glyph glyph-name="lcaron" unicode="&#x13e;" 
d="M77 0v710h86v-710h-86zM224 545l25 165h87l-51 -165h-61z" />
    <glyph glyph-name="Ldot" unicode="&#x13f;" horiz-adv-x="499" 
d="M372 338q-26 0 -44 18t-18 44q0 25 18 43t44 18t44 -17.5t18 -43.5t-18 -44t-44 -18zM86 0v710h91v-621h311v-89h-402z" />
    <glyph glyph-name="ldot" unicode="&#x140;" horiz-adv-x="308" 
d="M274 290q-26 0 -44 18t-18 44q0 25 18 43t44 18t44 -17.5t18 -43.5t-18 -44t-44 -18zM77 0v710h86v-710h-86z" />
    <glyph glyph-name="Lslash" unicode="&#x141;" horiz-adv-x="526" 
d="M31 197l-42 71l124 81v361h91v-302l168 110l42 -71l-210 -137v-221h311v-89h-402v250z" />
    <glyph glyph-name="lslash" unicode="&#x142;" horiz-adv-x="314" 
d="M34 250l-39 65l119 77v318h86v-262l79 51l39 -65l-118 -77v-357h-86v302z" />
    <glyph glyph-name="Nacute" unicode="&#x143;" horiz-adv-x="769" 
d="M683 -8l-506 513v-505h-91v718l506 -513v505h91v-718zM323 768l77 145h108l-112 -145h-73z" />
    <glyph glyph-name="nacute" unicode="&#x144;" horiz-adv-x="578" 
d="M77 0v500h86v-57q51 65 155 65q86 0 139.5 -55.5t53.5 -147.5v-305h-86v300q0 56 -34 91.5t-92 35.5q-52 0 -87 -27.5t-49 -76.5v-323h-86zM228 545l87 165h109l-124 -165h-72z" />
    <glyph glyph-name="Ncommaaccent" unicode="&#x145;" horiz-adv-x="769" 
d="M279 -229l74 179h100l-109 -179h-65zM683 -8l-506 513v-505h-91v718l506 -513v505h91v-718z" />
    <glyph glyph-name="ncommaaccent" unicode="&#x146;" horiz-adv-x="578" 
d="M159 -229l74 179h100l-109 -179h-65zM77 0v500h86v-57q51 65 155 65q86 0 139.5 -55.5t53.5 -147.5v-305h-86v300q0 56 -34 91.5t-92 35.5q-52 0 -87 -27.5t-49 -76.5v-323h-86z" />
    <glyph glyph-name="Ncaron" unicode="&#x147;" horiz-adv-x="769" 
d="M683 -8l-506 513v-505h-91v718l506 -513v505h91v-718zM384 766l-173 100l35 60l138 -82l138 82l35 -60z" />
    <glyph glyph-name="ncaron" unicode="&#x148;" horiz-adv-x="578" 
d="M77 0v500h86v-57q51 65 155 65q86 0 139.5 -55.5t53.5 -147.5v-305h-86v300q0 56 -34 91.5t-92 35.5q-52 0 -87 -27.5t-49 -76.5v-323h-86zM464 676l-170 -107l-170 107l34 58l136 -86l135 86z" />
    <glyph glyph-name="Eng" unicode="&#x14a;" horiz-adv-x="769" 
d="M683 -29q0 -75 -40 -115t-116 -40h-41v75h17q87 0 89 85v108l-415 421v-505h-91v718l506 -513v505h91v-739z" />
    <glyph glyph-name="eng" unicode="&#x14b;" horiz-adv-x="578" 
d="M77 0v500h86v-57q51 65 155 65q86 0 139.5 -55.5t53.5 -147.5v-346q0 -66 -38 -104.5t-105 -38.5h-47v78h30q38 0 56 18t18 57v331q0 56 -34 91.5t-92 35.5q-52 0 -87 -27.5t-49 -76.5v-323h-86z" />
    <glyph glyph-name="Omacron" unicode="&#x14c;" horiz-adv-x="802" 
d="M401 79q116 0 193 79.5t77 196.5t-77 196.5t-193 79.5t-193 -79.5t-77 -196.5t77 -196.5t193 -79.5zM401 -8q-153 0 -258 104.5t-105 258.5t105 258.5t258 104.5t258 -104.5t105 -258.5t-105 -258.5t-258 -104.5zM254 803v65h292v-65h-292z" />
    <glyph glyph-name="omacron" unicode="&#x14d;" horiz-adv-x="605" 
d="M303 73q75 0 122.5 50.5t47.5 126.5t-47.5 126.5t-122.5 50.5t-123 -51t-48 -126t48 -126t123 -51zM303 -8q-112 0 -186 74.5t-74 183.5t74 183.5t186 74.5t185.5 -74.5t73.5 -183.5t-73.5 -183.5t-185.5 -74.5zM155 614v65h292v-65h-292z" />
    <glyph glyph-name="Obreve" unicode="&#x14e;" horiz-adv-x="802" 
d="M401 79q116 0 193 79.5t77 196.5t-77 196.5t-193 79.5t-193 -79.5t-77 -196.5t77 -196.5t193 -79.5zM401 -8q-153 0 -258 104.5t-105 258.5t105 258.5t258 104.5t258 -104.5t105 -258.5t-105 -258.5t-258 -104.5zM399 772q-68 0 -110.5 39.5t-45.5 97.5h64q2 -33 27 -56
t66 -23t66.5 23t27.5 56h64q-4 -58 -47 -97.5t-112 -39.5z" />
    <glyph glyph-name="obreve" unicode="&#x14f;" horiz-adv-x="605" 
d="M303 73q75 0 122.5 50.5t47.5 126.5t-47.5 126.5t-122.5 50.5t-123 -51t-48 -126t48 -126t123 -51zM303 -8q-112 0 -186 74.5t-74 183.5t74 183.5t186 74.5t185.5 -74.5t73.5 -183.5t-73.5 -183.5t-185.5 -74.5zM302 573q-68 0 -110.5 39.5t-45.5 97.5h64q2 -33 27 -56
t66 -23t66.5 23t27.5 56h64q-4 -58 -47 -97.5t-112 -39.5z" />
    <glyph glyph-name="Ohungarumlaut" unicode="&#x150;" horiz-adv-x="802" 
d="M401 79q116 0 193 79.5t77 196.5t-77 196.5t-193 79.5t-193 -79.5t-77 -196.5t77 -196.5t193 -79.5zM401 -8q-153 0 -258 104.5t-105 258.5t105 258.5t258 104.5t258 -104.5t105 -258.5t-105 -258.5t-258 -104.5zM251 768l77 145h104l-113 -145h-68zM451 768l77 145h104
l-113 -145h-68z" />
    <glyph glyph-name="ohungarumlaut" unicode="&#x151;" horiz-adv-x="605" 
d="M303 73q75 0 122.5 50.5t47.5 126.5t-47.5 126.5t-122.5 50.5t-123 -51t-48 -126t48 -126t123 -51zM303 -8q-112 0 -186 74.5t-74 183.5t74 183.5t186 74.5t185.5 -74.5t73.5 -183.5t-73.5 -183.5t-185.5 -74.5zM184 545l87 165h101l-125 -165h-63zM353 545l87 165h101
l-125 -165h-63z" />
    <glyph glyph-name="OE" unicode="&#x152;" horiz-adv-x="1080" 
d="M401 -8q-153 0 -258 104.5t-105 258.5t105 258.5t258 104.5q114 0 207 -63v55h411v-88h-324v-51q53 -73 65 -164h198v-88h-196q-9 -101 -67 -181v-50h324v-88h-411v54q-94 -62 -207 -62zM401 79q116 0 193 79.5t77 196.5t-77 196.5t-193 79.5t-193 -79.5t-77 -196.5
t77 -196.5t193 -79.5z" />
    <glyph glyph-name="oe" unicode="&#x153;" horiz-adv-x="1008" 
d="M303 -8q-112 0 -186 74.5t-74 183.5t74 183.5t186 74.5q69 0 125 -29.5t90 -81.5q34 52 88.5 81.5t118.5 29.5q108 0 175.5 -74t68.5 -205h-407q7 -67 54 -111.5t115 -44.5q86 0 146 60l55 -60q-77 -81 -201 -81q-67 0 -123 29.5t-90 81.5q-34 -52 -90 -81.5t-125 -29.5z
M303 73q75 0 123 51t48 126t-48 126t-123 51t-123 -51t-48 -126t48 -126t123 -51zM566 304h306q-9 60 -51 93t-101 32q-55 0 -98 -34t-56 -91z" />
    <glyph glyph-name="Racute" unicode="&#x154;" horiz-adv-x="621" 
d="M492 0l-237 310h-78v-310h-91v710h211q104 0 166 -54.5t62 -145.5q0 -76 -45 -127.5t-123 -66.5l245 -316h-110zM177 391h114q69 0 104.5 30.5t35.5 86.5t-35.5 87t-104.5 31h-114v-235zM220 768l77 145h108l-112 -145h-73z" />
    <glyph glyph-name="racute" unicode="&#x155;" horiz-adv-x="359" 
d="M77 0v500h86v-59q51 64 138 64q19 0 35 -3v-89q-21 6 -48 6q-42 0 -75.5 -20.5t-49.5 -58.5v-340h-86zM142 545l87 165h109l-124 -165h-72z" />
    <glyph glyph-name="Rcommaaccent" unicode="&#x156;" horiz-adv-x="621" 
d="M186 -229l74 179h100l-109 -179h-65zM492 0l-237 310h-78v-310h-91v710h211q104 0 166 -54.5t62 -145.5q0 -76 -45 -127.5t-123 -66.5l245 -316h-110zM177 391h114q69 0 104.5 30.5t35.5 86.5t-35.5 87t-104.5 31h-114v-235z" />
    <glyph glyph-name="rcommaaccent" unicode="&#x157;" horiz-adv-x="359" 
d="M77 0v500h86v-59q51 64 138 64q19 0 35 -3v-89q-21 6 -48 6q-42 0 -75.5 -20.5t-49.5 -58.5v-340h-86zM3 -229l74 179h100l-109 -179h-65z" />
    <glyph glyph-name="Rcaron" unicode="&#x158;" horiz-adv-x="621" 
d="M492 0l-237 310h-78v-310h-91v710h211q104 0 166 -54.5t62 -145.5q0 -76 -45 -127.5t-123 -66.5l245 -316h-110zM177 391h114q69 0 104.5 30.5t35.5 86.5t-35.5 87t-104.5 31h-114v-235zM281 766l-173 100l35 60l138 -82l138 82l35 -60z" />
    <glyph glyph-name="rcaron" unicode="&#x159;" horiz-adv-x="359" 
d="M77 0v500h86v-59q51 64 138 64q19 0 35 -3v-89q-21 6 -48 6q-42 0 -75.5 -20.5t-49.5 -58.5v-340h-86zM376 676l-170 -107l-170 107l34 58l136 -86l135 86z" />
    <glyph glyph-name="Sacute" unicode="&#x15a;" horiz-adv-x="519" 
d="M253 -8q-74 0 -136 31t-95 79l69 60q28 -36 70 -59.5t91 -23.5q62 0 98 27t36 73q0 47 -28 76.5t-88 55.5l-65 28q-155 66 -155 201q0 78 62.5 128t144.5 50q124 0 199 -91l-64 -64q-57 68 -138 68q-47 0 -80 -25t-33 -68q0 -39 24.5 -67t80.5 -53l65 -28
q167 -73 167 -201q0 -88 -61 -142.5t-164 -54.5zM209 768l77 145h108l-112 -145h-73z" />
    <glyph glyph-name="sacute" unicode="&#x15b;" horiz-adv-x="418" 
d="M204 -8q-117 0 -177 100l68 46q41 -69 111 -69q38 0 63.5 17.5t25.5 45.5t-20 46t-65 34l-39 15q-119 45 -119 148q0 57 44 95t112 38q104 0 150 -90l-67 -39q-25 52 -83 52q-30 0 -50.5 -15t-20.5 -40q0 -50 73 -76l41 -15q130 -47 130 -150q0 -61 -48.5 -102
t-128.5 -41zM174 545l87 165h109l-124 -165h-72z" />
    <glyph glyph-name="Scircumflex" unicode="&#x15c;" horiz-adv-x="519" 
d="M253 -8q-74 0 -136 31t-95 79l69 60q28 -36 70 -59.5t91 -23.5q62 0 98 27t36 73q0 47 -28 76.5t-88 55.5l-65 28q-155 66 -155 201q0 78 62.5 128t144.5 50q124 0 199 -91l-64 -64q-57 68 -138 68q-47 0 -80 -25t-33 -68q0 -39 24.5 -67t80.5 -53l65 -28
q167 -73 167 -201q0 -88 -61 -142.5t-164 -54.5zM121 766l-35 60l173 100l173 -100l-35 -60l-138 82z" />
    <glyph glyph-name="scircumflex" unicode="&#x15d;" horiz-adv-x="418" 
d="M204 -8q-117 0 -177 100l68 46q41 -69 111 -69q38 0 63.5 17.5t25.5 45.5t-20 46t-65 34l-39 15q-119 45 -119 148q0 57 44 95t112 38q104 0 150 -90l-67 -39q-25 52 -83 52q-30 0 -50.5 -15t-20.5 -40q0 -50 73 -76l41 -15q130 -47 130 -150q0 -61 -48.5 -102
t-128.5 -41zM74 553l-34 58l170 107l170 -107l-35 -58l-135 86z" />
    <glyph glyph-name="Scedilla" unicode="&#x15e;" horiz-adv-x="519" 
d="M158 -135l73 128q-67 5 -123 35t-86 74l69 60q28 -36 70 -59.5t91 -23.5q62 0 98 27t36 73q0 47 -28 76.5t-88 55.5l-65 28q-155 66 -155 201q0 78 62.5 128t144.5 50q124 0 199 -91l-64 -64q-57 68 -138 68q-47 0 -80 -25t-33 -68q0 -39 24.5 -67t80.5 -53l65 -28
q167 -73 167 -201q0 -79 -50 -131.5t-136 -62.5l-36 -130h-98z" />
    <glyph glyph-name="scedilla" unicode="&#x15f;" horiz-adv-x="418" 
d="M99 -135l73 129q-95 13 -145 98l68 46q41 -69 111 -69q38 0 63.5 17.5t25.5 45.5t-20 46t-65 34l-39 15q-119 45 -119 148q0 57 44 95t112 38q104 0 150 -90l-67 -39q-25 52 -83 52q-30 0 -50.5 -15t-20.5 -40q0 -50 73 -76l41 -15q130 -47 130 -150q0 -56 -40 -95
t-108 -46l-36 -129h-98z" />
    <glyph glyph-name="Scaron" unicode="&#x160;" horiz-adv-x="519" 
d="M253 -8q-74 0 -136 31t-95 79l69 60q28 -36 70 -59.5t91 -23.5q62 0 98 27t36 73q0 47 -28 76.5t-88 55.5l-65 28q-155 66 -155 201q0 78 62.5 128t144.5 50q124 0 199 -91l-64 -64q-57 68 -138 68q-47 0 -80 -25t-33 -68q0 -39 24.5 -67t80.5 -53l65 -28
q167 -73 167 -201q0 -88 -61 -142.5t-164 -54.5zM259 766l-173 100l35 60l138 -82l138 82l35 -60z" />
    <glyph glyph-name="scaron" unicode="&#x161;" horiz-adv-x="418" 
d="M204 -8q-117 0 -177 100l68 46q41 -69 111 -69q38 0 63.5 17.5t25.5 45.5t-20 46t-65 34l-39 15q-119 45 -119 148q0 57 44 95t112 38q104 0 150 -90l-67 -39q-25 52 -83 52q-30 0 -50.5 -15t-20.5 -40q0 -50 73 -76l41 -15q130 -47 130 -150q0 -61 -48.5 -102
t-128.5 -41zM380 676l-170 -107l-170 107l34 58l136 -86l135 86z" />
    <glyph glyph-name="uni0162" unicode="&#x162;" horiz-adv-x="534" 
d="M144 -229l74 179h100l-109 -179h-65zM221 0v622h-201v88h494v-88h-202v-622h-91z" />
    <glyph glyph-name="uni0163" unicode="&#x163;" horiz-adv-x="371" 
d="M19 422l-19 78h99v107l86 43v-150h151l-19 -78h-132v-264q0 -40 17 -60t57 -20h67v-78h-76q-73 0 -112 37t-39 108v277h-80zM96 -229l74 179h100l-109 -179h-65z" />
    <glyph glyph-name="Tcaron" unicode="&#x164;" horiz-adv-x="534" 
d="M221 0v622h-201v88h494v-88h-202v-622h-91zM267 766l-173 100l35 60l138 -82l138 82l35 -60z" />
    <glyph glyph-name="tcaron" unicode="&#x165;" horiz-adv-x="371" 
d="M19 422l-19 78h99v107l86 43v-150h151l-19 -78h-132v-264q0 -40 17 -60t57 -20h67v-78h-76q-73 0 -112 37t-39 108v277h-80zM250 545l25 165h87l-51 -165h-61z" />
    <glyph glyph-name="Tbar" unicode="&#x166;" horiz-adv-x="534" 
d="M65 337v75h156v210h-201v88h494v-88h-202v-210h156v-75h-156v-337h-91v337h-156z" />
    <glyph glyph-name="tbar" unicode="&#x167;" horiz-adv-x="371" 
d="M19 422l-19 78h99v107l86 43v-150h151l-19 -78h-132v-91h143v-75h-143v-98q0 -40 17 -60t57 -20h67v-78h-76q-73 0 -112 37t-39 108v111h-91v75h91v91h-80z" />
    <glyph glyph-name="Utilde" unicode="&#x168;" horiz-adv-x="721" 
d="M360 -8q-126 0 -204.5 75t-78.5 203v440h91v-444q0 -90 52 -138.5t140 -48.5t140 48.5t52 138.5v444h91v-440q0 -129 -78 -203.5t-205 -74.5zM428 783q-31 0 -72.5 22t-55.5 22q-36 0 -46 -43h-69l4 18q8 44 38.5 70t66.5 26q31 0 71.5 -22t54.5 -22q38 0 48 43h68
l-3 -18q-8 -44 -37.5 -70t-67.5 -26z" />
    <glyph glyph-name="utilde" unicode="&#x169;" horiz-adv-x="568" 
d="M405 0v56q-52 -64 -154 -64q-86 0 -139.5 55.5t-53.5 147.5v305h86v-300q0 -56 34 -91.5t91 -35.5q104 0 136 100v327h86v-500h-86zM101 566l3 19q9 44 38 69t65 25q31 0 71.5 -22t54.5 -22q37 0 48 44h66l-3 -18q-8 -42 -36.5 -68t-66.5 -26q-31 0 -72.5 22t-55.5 22
q-35 0 -46 -45h-66z" />
    <glyph glyph-name="Umacron" unicode="&#x16a;" horiz-adv-x="721" 
d="M360 -8q-126 0 -204.5 75t-78.5 203v440h91v-444q0 -90 52 -138.5t140 -48.5t140 48.5t52 138.5v444h91v-440q0 -129 -78 -203.5t-205 -74.5zM213 803v65h292v-65h-292z" />
    <glyph glyph-name="umacron" unicode="&#x16b;" horiz-adv-x="568" 
d="M405 0v56q-52 -64 -154 -64q-86 0 -139.5 55.5t-53.5 147.5v305h86v-300q0 -56 34 -91.5t91 -35.5q104 0 136 100v327h86v-500h-86zM127 614v65h292v-65h-292z" />
    <glyph glyph-name="Ubreve" unicode="&#x16c;" horiz-adv-x="721" 
d="M360 -8q-126 0 -204.5 75t-78.5 203v440h91v-444q0 -90 52 -138.5t140 -48.5t140 48.5t52 138.5v444h91v-440q0 -129 -78 -203.5t-205 -74.5zM358 772q-68 0 -110.5 39.5t-45.5 97.5h64q2 -33 27 -56t66 -23t66.5 23t27.5 56h64q-4 -58 -47 -97.5t-112 -39.5z" />
    <glyph glyph-name="ubreve" unicode="&#x16d;" horiz-adv-x="568" 
d="M405 0v56q-52 -64 -154 -64q-86 0 -139.5 55.5t-53.5 147.5v305h86v-300q0 -56 34 -91.5t91 -35.5q104 0 136 100v327h86v-500h-86zM272 573q-68 0 -110.5 39.5t-45.5 97.5h64q2 -33 27 -56t66 -23t66.5 23t27.5 56h64q-4 -58 -47 -97.5t-112 -39.5z" />
    <glyph glyph-name="Uring" unicode="&#x16e;" horiz-adv-x="721" 
d="M360 -8q-126 0 -204.5 75t-78.5 203v440h91v-444q0 -90 52 -138.5t140 -48.5t140 48.5t52 138.5v444h91v-440q0 -129 -78 -203.5t-205 -74.5zM359 798q20 0 34 13t14 34t-14 34.5t-34 13.5t-34 -13.5t-14 -34.5t14 -34t34 -13zM359 751q-42 0 -70.5 27t-28.5 67
q0 41 29 68t70 27t70 -27t29 -68q0 -40 -28.5 -67t-70.5 -27z" />
    <glyph glyph-name="uring" unicode="&#x16f;" horiz-adv-x="568" 
d="M405 0v56q-52 -64 -154 -64q-86 0 -139.5 55.5t-53.5 147.5v305h86v-300q0 -56 34 -91.5t91 -35.5q104 0 136 100v327h86v-500h-86zM273 613q20 0 34 13t14 34t-14 34.5t-34 13.5t-34 -13.5t-14 -34.5t14 -34t34 -13zM273 566q-41 0 -70 27t-29 67q0 41 29 68t70 27
t70 -27t29 -68q0 -40 -29 -67t-70 -27z" />
    <glyph glyph-name="Uhungarumlaut" unicode="&#x170;" horiz-adv-x="721" 
d="M360 -8q-126 0 -204.5 75t-78.5 203v440h91v-444q0 -90 52 -138.5t140 -48.5t140 48.5t52 138.5v444h91v-440q0 -129 -78 -203.5t-205 -74.5zM210 768l77 145h104l-113 -145h-68zM410 768l77 145h104l-113 -145h-68z" />
    <glyph glyph-name="uhungarumlaut" unicode="&#x171;" horiz-adv-x="568" 
d="M405 0v56q-52 -64 -154 -64q-86 0 -139.5 55.5t-53.5 147.5v305h86v-300q0 -56 34 -91.5t91 -35.5q104 0 136 100v327h86v-500h-86zM136 545l87 165h101l-125 -165h-63zM305 545l87 165h101l-125 -165h-63z" />
    <glyph glyph-name="Uogonek" unicode="&#x172;" horiz-adv-x="721" 
d="M382 -189q-45 0 -76.5 24t-31.5 65q0 27 18 52t45 41q-117 6 -188.5 80t-71.5 197v440h91v-444q0 -90 52 -138.5t140 -48.5t140 48.5t52 138.5v444h91v-440q0 -108 -57 -179t-153 -91q-35 -17 -54 -40t-19 -44q0 -17 13.5 -28.5t36.5 -11.5q17 0 36 7v-59
q-27 -13 -64 -13z" />
    <glyph glyph-name="uogonek" unicode="&#x173;" horiz-adv-x="570" 
d="M431 -178q-44 0 -74.5 23.5t-30.5 63.5q0 30 23 54t56 37v56q-52 -64 -154 -64q-86 0 -139.5 55.5t-53.5 147.5v305h86v-300q0 -56 34 -91.5t91 -35.5q104 0 136 100v327h86v-500h1q-82 -36 -82 -75q0 -17 13 -27.5t37 -10.5q14 0 33 7v-59q-23 -13 -62 -13z" />
    <glyph glyph-name="Wcircumflex" unicode="&#x174;" horiz-adv-x="903" 
d="M259 -8l-244 718h94l157 -474l185 482l186 -482l157 474h94l-244 -718l-193 501zM313 766l-35 60l173 100l173 -100l-35 -60l-138 82z" />
    <glyph glyph-name="wcircumflex" unicode="&#x175;" horiz-adv-x="720" 
d="M215 553l-34 58l170 107l170 -107l-35 -58l-135 86zM179 0l-158 500h89l112 -364l138 372l138 -372l112 364h89l-158 -500h-69l-112 303l-111 -303h-70z" />
    <glyph glyph-name="Ycircumflex" unicode="&#x176;" horiz-adv-x="632" 
d="M270 0v301l-260 409h106l200 -320l200 320h106l-260 -409v-301h-92zM178 766l-35 60l173 100l173 -100l-35 -60l-138 82z" />
    <glyph glyph-name="ycircumflex" unicode="&#x177;" horiz-adv-x="510" 
d="M107 -184l103 226l-204 458h93l156 -364l157 364h93l-307 -684h-91zM119 553l-34 58l170 107l170 -107l-35 -58l-135 86z" />
    <glyph glyph-name="Ydieresis" unicode="&#x178;" horiz-adv-x="632" 
d="M270 0v301l-260 409h106l200 -320l200 320h106l-260 -409v-301h-92zM203 782q-24 0 -42.5 18t-18.5 44q0 24 18.5 42t42.5 18q26 0 44 -17.5t18 -42.5q0 -26 -18 -44t-44 -18zM428 782q-25 0 -43 18t-18 44q0 25 18 42.5t43 17.5q26 0 44 -17.5t18 -42.5q0 -26 -18 -44
t-44 -18z" />
    <glyph glyph-name="Zacute" unicode="&#x179;" horiz-adv-x="607" 
d="M23 0l395 622h-352v88h508l-395 -622h397v-88h-553zM255 768l77 145h108l-112 -145h-73z" />
    <glyph glyph-name="zacute" unicode="&#x17a;" horiz-adv-x="504" 
d="M27 0l294 422h-262v78h411l-293 -422h283v-78h-433zM198 545l87 165h109l-124 -165h-72z" />
    <glyph glyph-name="Zdotaccent" unicode="&#x17b;" horiz-adv-x="607" 
d="M23 0l395 622h-352v88h508l-395 -622h397v-88h-553zM320 780q-25 0 -43.5 18.5t-18.5 45.5q0 25 18.5 43.5t43.5 18.5q27 0 45.5 -18t18.5 -44q0 -27 -18.5 -45.5t-45.5 -18.5z" />
    <glyph glyph-name="zdotaccent" unicode="&#x17c;" horiz-adv-x="504" 
d="M27 0l294 422h-262v78h411l-293 -422h283v-78h-433zM265 569q-26 0 -44 18t-18 44q0 25 18 43t44 18t44 -17.5t18 -43.5t-18 -44t-44 -18z" />
    <glyph glyph-name="Zcaron" unicode="&#x17d;" horiz-adv-x="607" 
d="M23 0l395 622h-352v88h508l-395 -622h397v-88h-553zM320 766l-173 100l35 60l138 -82l138 82l35 -60z" />
    <glyph glyph-name="zcaron" unicode="&#x17e;" horiz-adv-x="504" 
d="M27 0l294 422h-262v78h411l-293 -422h283v-78h-433zM434 676l-170 -107l-170 107l34 58l136 -86l135 86z" />
    <glyph glyph-name="Scommaaccent" unicode="&#x218;" horiz-adv-x="519" 
d="M134 -229l74 179h100l-109 -179h-65zM253 -8q-74 0 -136 31t-95 79l69 60q28 -36 70 -59.5t91 -23.5q62 0 98 27t36 73q0 47 -28 76.5t-88 55.5l-65 28q-155 66 -155 201q0 78 62.5 128t144.5 50q124 0 199 -91l-64 -64q-57 68 -138 68q-47 0 -80 -25t-33 -68
q0 -39 24.5 -67t80.5 -53l65 -28q167 -73 167 -201q0 -88 -61 -142.5t-164 -54.5z" />
    <glyph glyph-name="scommaaccent" unicode="&#x219;" horiz-adv-x="418" 
d="M72 -229l74 179h100l-109 -179h-65zM204 -8q-117 0 -177 100l68 46q41 -69 111 -69q38 0 63.5 17.5t25.5 45.5t-20 46t-65 34l-39 15q-119 45 -119 148q0 57 44 95t112 38q104 0 150 -90l-67 -39q-25 52 -83 52q-30 0 -50.5 -15t-20.5 -40q0 -50 73 -76l41 -15
q130 -47 130 -150q0 -61 -48.5 -102t-128.5 -41z" />
    <glyph glyph-name="Tcommaaccent" unicode="&#x21a;" horiz-adv-x="534" 
d="M144 -229l74 179h100l-109 -179h-65zM221 0v622h-201v88h494v-88h-202v-622h-91z" />
    <glyph glyph-name="tcommaaccent" unicode="&#x21b;" horiz-adv-x="371" 
d="M19 422l-19 78h99v107l86 43v-150h151l-19 -78h-132v-264q0 -40 17 -60t57 -20h67v-78h-76q-73 0 -112 37t-39 108v277h-80zM96 -229l74 179h100l-109 -179h-65z" />
    <glyph glyph-name="uni0232" unicode="&#x232;" horiz-adv-x="632" 
d="M270 0v301l-260 409h106l200 -320l200 320h106l-260 -409v-301h-92zM169 803v65h292v-65h-292z" />
    <glyph glyph-name="uni0233" unicode="&#x233;" horiz-adv-x="510" 
d="M107 -184l103 226l-204 458h93l156 -364l157 364h93l-307 -684h-91zM108 614v65h292v-65h-292z" />
    <glyph glyph-name="dotlessj" unicode="&#x237;" 
d="M-27 -184v78h30q40 0 57 20t17 60v526h86v-539q0 -71 -39 -108t-112 -37h-39z" />
    <glyph glyph-name="circumflex" unicode="&#x2c6;" horiz-adv-x="396" 
d="M60 553l-34 58l170 107l170 -107l-35 -58l-135 86z" />
    <glyph glyph-name="caron" unicode="&#x2c7;" horiz-adv-x="404" 
d="M366 676l-170 -107l-170 107l34 58l136 -86l135 86z" />
    <glyph glyph-name="breve" unicode="&#x2d8;" horiz-adv-x="379" 
d="M188 573q-68 0 -110.5 39.5t-45.5 97.5h64q2 -33 27 -56t66 -23t66.5 23t27.5 56h64q-4 -58 -47 -97.5t-112 -39.5z" />
    <glyph glyph-name="dotaccent" unicode="&#x2d9;" horiz-adv-x="177" 
d="M89 569q-26 0 -44 18t-18 44q0 25 18 43t44 18t44 -17.5t18 -43.5t-18 -44t-44 -18z" />
    <glyph glyph-name="ring" unicode="&#x2da;" horiz-adv-x="264" 
d="M132 613q20 0 34 13t14 34t-14 34.5t-34 13.5t-34 -13.5t-14 -34.5t14 -34t34 -13zM132 566q-41 0 -70 27t-29 67q0 41 29 68t70 27t70 -27t29 -68q0 -40 -29 -67t-70 -27z" />
    <glyph glyph-name="ogonek" unicode="&#x2db;" 
d="M141 -178q-44 0 -74.5 23.5t-30.5 63.5q0 30 23 54t56 37h87q-82 -36 -82 -75q0 -17 13 -27.5t37 -10.5q14 0 33 7v-59q-23 -13 -62 -13z" />
    <glyph glyph-name="tilde" unicode="&#x2dc;" horiz-adv-x="434" 
d="M44 566l3 19q9 44 38 69t65 25q31 0 71.5 -22t54.5 -22q37 0 48 44h66l-3 -18q-8 -42 -36.5 -68t-66.5 -26q-31 0 -72.5 22t-55.5 22q-36 0 -46 -45h-66z" />
    <glyph glyph-name="hungarumlaut" unicode="&#x2dd;" horiz-adv-x="425" 
d="M33 545l87 165h101l-125 -165h-63zM202 545l87 165h101l-125 -165h-63z" />
    <glyph glyph-name="uni032C" unicode="&#x32c;" horiz-adv-x="433" 
d="M391 -57l-170 -120l-170 120l32 53l138 -99l138 99z" />
    <glyph glyph-name="Delta" unicode="&#x394;" horiz-adv-x="790" 
d="M154 84h479l-238 453zM9 0l386 717l386 -717h-772z" />
    <glyph glyph-name="Delta" unicode="&#x2206;" horiz-adv-x="790" 
d="M154 84h479l-238 453zM9 0l386 717l386 -717h-772z" />
    <glyph glyph-name="Omega" unicode="&#x3a9;" horiz-adv-x="842" 
d="M59 0v83h132q-60 44 -96.5 117.5t-36.5 154.5q0 153 105.5 258t257.5 105t257.5 -105t105.5 -258q0 -82 -36 -155t-96 -117h132v-83h-271v90q81 28 131.5 101t50.5 164q0 117 -78.5 198t-195.5 81t-195 -81t-78 -198q0 -91 50.5 -164t131.5 -101v-90h-271z" />
    <glyph glyph-name="Omega" unicode="&#x2126;" horiz-adv-x="842" 
d="M59 0v83h132q-60 44 -96.5 117.5t-36.5 154.5q0 153 105.5 258t257.5 105t257.5 -105t105.5 -258q0 -82 -36 -155t-96 -117h132v-83h-271v90q81 28 131.5 101t50.5 164q0 117 -78.5 198t-195.5 81t-195 -81t-78 -198q0 -91 50.5 -164t131.5 -101v-90h-271z" />
    <glyph glyph-name="pi" unicode="&#x3c0;" horiz-adv-x="642" 
d="M444 0v422h-246v-422h-85v422h-75v78h566v-78h-75v-422h-85z" />
    <glyph glyph-name="Wgrave" unicode="&#x1e80;" horiz-adv-x="903" 
d="M259 -8l-244 718h94l157 -474l185 482l186 -482l157 474h94l-244 -718l-193 501zM414 768l-113 145h109l77 -145h-73z" />
    <glyph glyph-name="wgrave" unicode="&#x1e81;" horiz-adv-x="720" 
d="M179 0l-158 500h89l112 -364l138 372l138 -372l112 364h89l-158 -500h-69l-112 303l-111 -303h-70zM327 545l-125 165h109l87 -165h-71z" />
    <glyph glyph-name="Wacute" unicode="&#x1e82;" horiz-adv-x="903" 
d="M259 -8l-244 718h94l157 -474l185 482l186 -482l157 474h94l-244 -718l-193 501zM415 768l77 145h108l-112 -145h-73z" />
    <glyph glyph-name="wacute" unicode="&#x1e83;" horiz-adv-x="720" 
d="M317 545l87 165h109l-124 -165h-72zM179 0l-158 500h89l112 -364l138 372l138 -372l112 364h89l-158 -500h-69l-112 303l-111 -303h-70z" />
    <glyph glyph-name="Wdieresis" unicode="&#x1e84;" horiz-adv-x="903" 
d="M259 -8l-244 718h94l157 -474l185 482l186 -482l157 474h94l-244 -718l-193 501zM338 782q-24 0 -42.5 18t-18.5 44q0 24 18.5 42t42.5 18q26 0 44 -17.5t18 -42.5q0 -26 -18 -44t-44 -18zM563 782q-25 0 -43 18t-18 44q0 25 18 42.5t43 17.5q26 0 44 -17.5t18 -42.5
q0 -26 -18 -44t-44 -18z" />
    <glyph glyph-name="wdieresis" unicode="&#x1e85;" horiz-adv-x="720" 
d="M249 571q-24 0 -42 17.5t-18 42.5q0 24 18 41.5t42 17.5q26 0 43.5 -17t17.5 -42t-17.5 -42.5t-43.5 -17.5zM474 571q-25 0 -42.5 17.5t-17.5 42.5t17.5 42t42.5 17t42.5 -17t17.5 -42t-17 -42.5t-43 -17.5zM179 0l-158 500h89l112 -364l138 372l138 -372l112 364h89
l-158 -500h-69l-112 303l-111 -303h-70z" />
    <glyph glyph-name="uni1ECA" unicode="&#x1eca;" horiz-adv-x="263" 
d="M86 0v710h91v-710h-91zM131 -192q-26 0 -44 18t-18 44q0 25 18 43t44 18t44 -17.5t18 -43.5t-18 -44t-44 -18z" />
    <glyph glyph-name="uni1ECB" unicode="&#x1ecb;" 
d="M77 609q-19 17 -19 46q0 26 18 44.5t44 18.5t44 -18.5t18 -44.5q0 -29 -19 -46h-86zM77 0v500h86v-500h-86zM118 -192q-26 0 -44 18t-18 44q0 25 18 43t44 18t44 -17.5t18 -43.5t-18 -44t-44 -18z" />
    <glyph glyph-name="uni1ECC" unicode="&#x1ecc;" horiz-adv-x="802" 
d="M401 79q116 0 193 79.5t77 196.5t-77 196.5t-193 79.5t-193 -79.5t-77 -196.5t77 -196.5t193 -79.5zM401 -8q-153 0 -258 104.5t-105 258.5t105 258.5t258 104.5t258 -104.5t105 -258.5t-105 -258.5t-258 -104.5zM401 -192q-26 0 -44 18t-18 44q0 25 18 43t44 18
t44 -17.5t18 -43.5t-18 -44t-44 -18z" />
    <glyph glyph-name="uni1ECD" unicode="&#x1ecd;" horiz-adv-x="605" 
d="M303 73q75 0 122.5 50.5t47.5 126.5t-47.5 126.5t-122.5 50.5t-123 -51t-48 -126t48 -126t123 -51zM303 -8q-112 0 -186 74.5t-74 183.5t74 183.5t186 74.5t185.5 -74.5t73.5 -183.5t-73.5 -183.5t-185.5 -74.5zM302 -192q-26 0 -44 18t-18 44q0 25 18 43t44 18t44 -17.5
t18 -43.5t-18 -44t-44 -18z" />
    <glyph glyph-name="uni1EE4" unicode="&#x1ee4;" horiz-adv-x="721" 
d="M360 -8q-126 0 -204.5 75t-78.5 203v440h91v-444q0 -90 52 -138.5t140 -48.5t140 48.5t52 138.5v444h91v-440q0 -129 -78 -203.5t-205 -74.5zM360 -192q-26 0 -44 18t-18 44q0 25 18 43t44 18t44 -17.5t18 -43.5t-18 -44t-44 -18z" />
    <glyph glyph-name="uni1EE5" unicode="&#x1ee5;" horiz-adv-x="568" 
d="M405 0v56q-52 -64 -154 -64q-86 0 -139.5 55.5t-53.5 147.5v305h86v-300q0 -56 34 -91.5t91 -35.5q104 0 136 100v327h86v-500h-86zM274 -192q-26 0 -44 18t-18 44q0 25 18 43t44 18t44 -17.5t18 -43.5t-18 -44t-44 -18z" />
    <glyph glyph-name="Ygrave" unicode="&#x1ef2;" horiz-adv-x="632" 
d="M270 0v301l-260 409h106l200 -320l200 320h106l-260 -409v-301h-92zM290 768l-113 145h109l77 -145h-73z" />
    <glyph glyph-name="ygrave" unicode="&#x1ef3;" horiz-adv-x="510" 
d="M107 -184l103 226l-204 458h93l156 -364l157 364h93l-307 -684h-91zM250 545l-125 165h109l87 -165h-71z" />
    <glyph glyph-name="endash" unicode="&#x2013;" horiz-adv-x="526" 
d="M46 233v81h434v-81h-434z" />
    <glyph glyph-name="emdash" unicode="&#x2014;" horiz-adv-x="823" 
d="M46 233v81h731v-81h-731z" />
    <glyph glyph-name="quoteleft" unicode="&#x2018;" horiz-adv-x="256" 
d="M181 710l-43 -142h51v-123h-122v124l57 141h57z" />
    <glyph glyph-name="quoteright" unicode="&#x2019;" horiz-adv-x="256" 
d="M75 445l43 142h-51v123h122v-124l-57 -141h-57z" />
    <glyph glyph-name="quotesinglbase" unicode="&#x201a;" horiz-adv-x="256" 
d="M75 -142l43 142h-51v123h122v-124l-57 -141h-57z" />
    <glyph glyph-name="quotedblleft" unicode="&#x201c;" horiz-adv-x="451" 
d="M181 710l-43 -142h51v-123h-122v124l57 141h57zM376 710l-43 -142h51v-123h-122v124l57 141h57z" />
    <glyph glyph-name="quotedblright" unicode="&#x201d;" horiz-adv-x="451" 
d="M75 445l43 142h-51v123h122v-124l-57 -141h-57zM270 445l43 142h-51v123h122v-124l-57 -141h-57z" />
    <glyph glyph-name="quotedblbase" unicode="&#x201e;" horiz-adv-x="451" 
d="M75 -142l43 142h-51v123h122v-124l-57 -141h-57zM270 -142l43 142h-51v123h122v-124l-57 -141h-57z" />
    <glyph glyph-name="dagger" unicode="&#x2020;" horiz-adv-x="567" 
d="M243 -98v517h-184v81h184v210h81v-210h184v-81h-184v-517h-81z" />
    <glyph glyph-name="daggerdbl" unicode="&#x2021;" horiz-adv-x="567" 
d="M243 -98v210h-184v81h184v226h-184v81h184v210h81v-210h184v-81h-184v-226h184v-81h-184v-210h-81z" />
    <glyph glyph-name="bullet" unicode="&#x2022;" horiz-adv-x="402" 
d="M201 166q-56 0 -96 40t-40 96t40 96t96 40t96 -40t40 -96t-40 -96t-96 -40z" />
    <glyph glyph-name="ellipsis" unicode="&#x2026;" horiz-adv-x="654" 
d="M109 -8q-30 0 -52 21.5t-22 52.5t22 52.5t52 21.5q31 0 52.5 -21.5t21.5 -52.5t-21.5 -52.5t-52.5 -21.5zM326 -8q-30 0 -52 21.5t-22 52.5t22 52.5t52 21.5q31 0 52.5 -21.5t21.5 -52.5t-21.5 -52.5t-52.5 -21.5zM544 -8q-30 0 -52 21.5t-22 52.5t22 52.5t52 21.5
q31 0 52.5 -21.5t21.5 -52.5t-21.5 -52.5t-52.5 -21.5z" />
    <glyph glyph-name="perthousand" unicode="&#x2030;" horiz-adv-x="766" 
d="M216 58q33 0 53.5 21.5t20.5 53.5t-20.5 53.5t-53.5 21.5q-31 0 -51.5 -22t-20.5 -53t20.5 -53t51.5 -22zM216 -7q-59 0 -100.5 40.5t-41.5 99.5t41.5 99.5t100.5 40.5q60 0 102.5 -40.5t42.5 -99.5t-42.5 -99.5t-102.5 -40.5zM216 502q33 0 53.5 21.5t20.5 53.5
q0 31 -20.5 52.5t-53.5 21.5q-31 0 -51.5 -21.5t-20.5 -52.5t20.5 -53t51.5 -22zM216 437q-59 0 -100.5 40.5t-41.5 99.5t41.5 99.5t100.5 40.5q60 0 102.5 -40.5t42.5 -99.5t-42.5 -99.5t-102.5 -40.5zM76 317v73h616v-73h-616zM542 58q33 0 53.5 21.5t20.5 53.5
t-20.5 53.5t-53.5 21.5q-31 0 -51.5 -22t-20.5 -53t20.5 -53t51.5 -22zM542 -7q-59 0 -100.5 40.5t-41.5 99.5t41.5 99.5t100.5 40.5q60 0 102 -40.5t42 -99.5t-42 -99.5t-102 -40.5z" />
    <glyph glyph-name="guilsinglleft" unicode="&#x2039;" horiz-adv-x="289" 
d="M181 29l-152 221l152 221l62 -42l-123 -179l123 -179z" />
    <glyph glyph-name="guilsinglright" unicode="&#x203a;" horiz-adv-x="289" 
d="M260 250l-152 -221l-62 42l123 179l-123 179l62 42z" />
    <glyph glyph-name="fraction" unicode="&#x2044;" horiz-adv-x="180" 
d="M-120 0h-80l500 710h80z" />
    <glyph glyph-name="zero.superior" unicode="&#x2070;" horiz-adv-x="480" 
d="M240 469q64 0 106.5 44.5t42.5 109.5t-42.5 109.5t-106.5 44.5q-65 0 -107 -44.5t-42 -109.5t42 -109.5t107 -44.5zM240 405q-91 0 -155 63.5t-64 154.5t64 154.5t155 63.5q92 0 155.5 -63.5t63.5 -154.5t-63.5 -154.5t-155.5 -63.5z" />
    <glyph glyph-name="four.superior" unicode="&#x2074;" horiz-adv-x="353" 
d="M223 410v108h-229l297 328v-267h49v-61h-49v-108h-68zM124 579h99v109z" />
    <glyph glyph-name="five.superior" unicode="&#x2075;" horiz-adv-x="326" 
d="M155 405q-39 0 -74 16t-54 45l52 44q24 -41 74 -41q34 0 55 22t21 54q0 33 -21 55.5t-56 22.5q-40 0 -63 -34l-44 20v227h222v-65h-153v-91q23 7 41 7q66 0 105.5 -39.5t39.5 -102.5q0 -62 -40 -101t-105 -39z" />
    <glyph glyph-name="six.superior" unicode="&#x2076;" horiz-adv-x="317" 
d="M159 469q33 0 53.5 22t20.5 54q0 31 -20.5 53t-53.5 22t-53.5 -22t-20.5 -53q0 -32 20.5 -54t53.5 -22zM159 405q-61 0 -102.5 40.5t-41.5 99.5q0 34 26 79l121 212h77l-90 -154q8 2 17 2q57 0 97 -41t40 -98q0 -59 -41.5 -99.5t-102.5 -40.5z" />
    <glyph glyph-name="seven.superior" unicode="&#x2077;" horiz-adv-x="307" 
d="M31 410l170 361h-182v65h286l-199 -426h-75z" />
    <glyph glyph-name="eight.superior" unicode="&#x2078;" horiz-adv-x="345" 
d="M172 405q-61 0 -103 39.5t-42 97.5q0 74 63 111q-31 29 -31 75q0 47 32.5 80t80.5 33t81 -32.5t33 -80.5q0 -44 -31 -75q63 -38 63 -111q0 -58 -42 -97.5t-104 -39.5zM172 469q34 0 55 21t21 52t-21 52.5t-55 21.5q-33 0 -54 -21.5t-21 -52.5t21 -52t54 -21zM172 680
q21 0 34.5 13.5t13.5 34.5t-13.5 35t-34.5 14t-34 -14t-13 -35t13 -34.5t34 -13.5z" />
    <glyph glyph-name="nine.superior" unicode="&#x2079;" horiz-adv-x="316" 
d="M159 627q32 0 53 22t21 53t-21 53t-53 22q-34 0 -54.5 -21.5t-20.5 -53.5q0 -31 21 -53t54 -22zM78 410l91 155q-8 -2 -17 -2q-57 0 -97 41t-40 98q0 59 41 99t103 40q61 0 102 -40t41 -99q0 -35 -26 -80l-121 -212h-77z" />
    <glyph glyph-name="plus.superior" unicode="&#x207a;" horiz-adv-x="319" 
d="M29 589v55h103v101h55v-101h103v-55h-103v-103h-55v103h-103z" />
    <glyph glyph-name="minus.superior" unicode="&#x207b;" horiz-adv-x="319" 
d="M29 589v55h261v-55h-261z" />
    <glyph glyph-name="equal.superior" unicode="&#x207c;" horiz-adv-x="322" 
d="M29 526v55h264v-55h-264zM29 653v54h264v-54h-264z" />
    <glyph glyph-name="parenleft.superior" unicode="&#x207d;" horiz-adv-x="156" 
d="M98 304q-66 129 -66 277t66 277l52 -23q-58 -130 -58 -254t58 -254z" />
    <glyph glyph-name="parenright.superior" unicode="&#x207e;" horiz-adv-x="156" 
d="M61 304l-53 23q58 127 58 254t-58 254l53 23q65 -127 65 -277t-65 -277z" />
    <glyph glyph-name="n.superior" unicode="&#x207f;" horiz-adv-x="350" 
d="M41 410v300h69v-26q31 31 82 31q57 0 90 -36t33 -95v-174h-69v173q0 25 -18 45.5t-49 20.5q-52 0 -69 -51v-188h-69z" />
    <glyph glyph-name="zero.inferior" unicode="&#x2080;" horiz-adv-x="480" 
d="M240 -56q64 0 106.5 44.5t42.5 109.5t-42.5 109.5t-106.5 44.5q-65 0 -107 -44.5t-42 -109.5t42 -109.5t107 -44.5zM240 -120q-91 0 -155 63.5t-64 154.5t64 154.5t155 63.5q92 0 155.5 -63.5t63.5 -154.5t-63.5 -154.5t-155.5 -63.5z" />
    <glyph glyph-name="one.inferior" unicode="&#x2081;" horiz-adv-x="176" 
d="M54 -115v364l69 72v-436h-69z" />
    <glyph glyph-name="two.inferior" unicode="&#x2082;" horiz-adv-x="340" 
d="M105 184h-69q0 56 39 94t97 38t97 -38t39 -94q0 -59 -55 -120l-98 -114h152v-65h-295l149 171q1 1 9.5 10.5t12 13.5t12 15t13.5 18t11.5 17.5t10.5 18.5t6.5 17.5t2.5 17.5q0 29 -18.5 48.5t-48.5 19.5t-48.5 -19.5t-18.5 -48.5z" />
    <glyph glyph-name="three.inferior" unicode="&#x2083;" horiz-adv-x="310" 
d="M139 -120q-83 0 -125 61l50 42q27 -39 73 -39q35 0 57.5 21.5t22.5 57.5t-22.5 58t-60.5 22h-40l77 143h-139v65h242l-82 -155q45 -14 70 -49t25 -84q0 -64 -40.5 -103.5t-107.5 -39.5z" />
    <glyph glyph-name="four.inferior" unicode="&#x2084;" horiz-adv-x="353" 
d="M223 -115v108h-229l297 328v-267h49v-61h-49v-108h-68zM124 54h99v109z" />
    <glyph glyph-name="five.inferior" unicode="&#x2085;" horiz-adv-x="326" 
d="M155 -120q-39 0 -74 16t-54 45l52 44q24 -41 74 -41q34 0 55 22t21 54q0 33 -21 55.5t-56 22.5q-40 0 -63 -34l-44 20v227h222v-65h-153v-91q23 7 41 7q66 0 105.5 -39.5t39.5 -102.5q0 -62 -40 -101t-105 -39z" />
    <glyph glyph-name="six.inferior" unicode="&#x2086;" horiz-adv-x="317" 
d="M159 -56q33 0 53.5 22t20.5 54q0 31 -20.5 53t-53.5 22t-53.5 -22t-20.5 -53q0 -32 20.5 -54t53.5 -22zM159 -120q-61 0 -102.5 40.5t-41.5 99.5q0 34 26 79l121 212h77l-90 -154q8 2 17 2q57 0 97 -41t40 -98q0 -59 -41.5 -99.5t-102.5 -40.5z" />
    <glyph glyph-name="seven.inferior" unicode="&#x2087;" horiz-adv-x="307" 
d="M31 -115l170 361h-182v65h286l-199 -426h-75z" />
    <glyph glyph-name="eight.inferior" unicode="&#x2088;" horiz-adv-x="345" 
d="M172 -120q-61 0 -103 39.5t-42 97.5q0 74 63 111q-31 29 -31 75q0 47 32.5 80t80.5 33t81 -33t33 -80q0 -44 -31 -75q63 -38 63 -111q0 -58 -42 -97.5t-104 -39.5zM172 -56q34 0 55 21t21 52t-21 52.5t-55 21.5q-33 0 -54 -21.5t-21 -52.5t21 -52t54 -21zM172 155
q21 0 34.5 13.5t13.5 34.5t-13.5 35t-34.5 14t-34 -14t-13 -35t13 -34.5t34 -13.5z" />
    <glyph glyph-name="nine.inferior" unicode="&#x2089;" horiz-adv-x="316" 
d="M159 102q32 0 53 22t21 53t-21 53t-53 22q-34 0 -54.5 -21.5t-20.5 -53.5q0 -31 21 -53t54 -22zM78 -115l91 155q-8 -2 -17 -2q-57 0 -97 41t-40 98q0 59 41 99t103 40q61 0 102 -40t41 -99q0 -35 -26 -80l-121 -212h-77z" />
    <glyph glyph-name="parenleft.inferior" unicode="&#x208d;" horiz-adv-x="156" 
d="M98 -221q-66 129 -66 277t66 277l52 -23q-58 -130 -58 -254t58 -254z" />
    <glyph glyph-name="parenright.inferior" unicode="&#x208e;" horiz-adv-x="156" 
d="M61 -221l-53 23q58 127 58 254t-58 254l53 23q65 -127 65 -277t-65 -277z" />
    <glyph glyph-name="Euro" unicode="&#x20ac;" horiz-adv-x="713" 
d="M9 397l28 61h99q32 115 126 187.5t219 72.5q117 0 208 -61l-33 -76q-77 58 -175 58q-90 0 -158.5 -49t-97.5 -132h373l-28 -61h-360q-2 -28 -2 -42q0 -15 2 -41h316l-28 -60h-274q28 -84 97.5 -133.5t159.5 -49.5q75 0 136 36v-89q-63 -26 -136 -26q-125 0 -219.5 73
t-125.5 189h-127l28 60h88q-2 13 -2 41t2 42h-116z" />
    <glyph glyph-name="afii61289" unicode="&#x2113;" horiz-adv-x="472" 
d="M243 -8q-59 0 -89 35.5t-30 115.5v30l-59 -55l-45 60l104 94v219q0 118 37 172.5t110 54.5q65 0 99.5 -49.5t34.5 -114.5q0 -76 -43 -138.5t-135 -144.5l-17 -16v-88q0 -50 11.5 -73t43.5 -23q16 0 47 15t50 34l36 -55q-28 -30 -70 -51.5t-85 -21.5zM210 532v-182l8 8
q55 49 82 94.5t27 98.5q0 39 -13.5 66.5t-41.5 27.5q-62 0 -62 -113z" />
    <glyph glyph-name="afii61352" unicode="&#x2116;" horiz-adv-x="1153" 
d="M781 265h291v76h-291v-76zM927 471q37 0 60.5 25.5t23.5 63.5t-23.5 63.5t-60.5 25.5t-61 -25.5t-24 -63.5t24 -63.5t61 -25.5zM927 405q-67 0 -111.5 44.5t-44.5 110.5t44.5 110.5t111.5 44.5q66 0 110.5 -44.5t44.5 -110.5t-44.5 -110.5t-110.5 -44.5zM683 -8l-506 513
v-505h-91v718l506 -513v505h91v-718z" />
    <glyph glyph-name="uni2117" unicode="&#x2117;" horiz-adv-x="802" 
d="M401 -9q-150 0 -256.5 107t-106.5 256q0 150 106.5 257t256.5 107t256.5 -107t106.5 -257q0 -149 -106.5 -256t-256.5 -107zM400 61q121 0 207.5 86t86.5 207q0 122 -86 208t-208 86q-121 0 -207 -86.5t-86 -207.5t86 -207t207 -86zM300 164v384h137q48 0 84 -35t36 -83
q-1 -52 -38.5 -87.5t-89.5 -35.5h-61v-143h-68zM369 370h56q26 0 42.5 16.5t16.5 39.5t-16.5 39.5t-42.5 16.5h-56v-112z" />
    <glyph glyph-name="trademark" unicode="&#x2122;" horiz-adv-x="814" 
d="M369 355v371l183 -180l183 180v-371h-65v228l-118 -116l-119 116v-228h-64zM145 355v295h-96v60h260v-60h-98v-295h-66z" />
    <glyph glyph-name="estimated" unicode="&#x212e;" horiz-adv-x="580" 
d="M297 -8q-113 0 -183.5 74.5t-70.5 185.5q0 112 71.5 184t178.5 72q112 0 177.5 -72.5t66.5 -180.5h-382v-194q21 -22 62.5 -36.5t87.5 -14.5q66 0 119.5 35.5t75.5 97.5h24q-23 -67 -81.5 -109t-145.5 -42zM155 440v-167h270v167q-48 50 -133 50q-81 0 -137 -50z" />
    <glyph glyph-name="onethird" unicode="&#x2153;" horiz-adv-x="743" 
d="M68 284v366l69 70v-436h-69zM31 0h80l500 710h-80zM571 -5q-83 0 -125 61l50 42q27 -39 73 -39q35 0 57.5 21.5t22.5 57.5t-22.5 58t-60.5 22h-40l77 143h-139v65h242l-82 -155q45 -14 70 -49t25 -84q0 -64 -40.5 -103.5t-107.5 -39.5z" />
    <glyph glyph-name="twothirds" unicode="&#x2154;" horiz-adv-x="891" 
d="M115 583h-69q0 56 39 94t97 38t97 -38t39 -94q0 -59 -55 -120l-98 -114h152v-65h-295l149 171q1 1 9.5 10.5t12 13.5t12 15t13.5 18t11.5 17.5t10.5 18.5t6.5 17.5t2.5 17.5q0 29 -18.5 48.5t-48.5 19.5t-48.5 -19.5t-18.5 -48.5zM180 0h80l500 710h-80zM720 -5
q-83 0 -125 61l50 42q27 -39 73 -39q35 0 57.5 21.5t22.5 57.5t-22.5 58t-60.5 22h-40l77 143h-139v65h242l-82 -155q45 -14 70 -49t25 -84q0 -64 -40.5 -103.5t-107.5 -39.5z" />
    <glyph glyph-name="uni2155" unicode="&#x2155;" horiz-adv-x="755" 
d="M68 284v366l69 70v-436h-69zM31 0h80l500 710h-80zM584 -5q-39 0 -74.5 16t-53.5 45l51 44q26 -41 74 -41q34 0 55.5 22t21.5 54q0 33 -21 55.5t-57 22.5q-41 0 -62 -34l-45 20v227h223v-65h-154v-91q21 7 42 7q65 0 104.5 -39.5t39.5 -102.5q0 -62 -39.5 -101
t-104.5 -39z" />
    <glyph glyph-name="uni2156" unicode="&#x2156;" horiz-adv-x="903" 
d="M115 583h-69q0 56 39 94t97 38t97 -38t39 -94q0 -59 -55 -120l-98 -114h152v-65h-295l149 171q1 1 9.5 10.5t12 13.5t12 15t13.5 18t11.5 17.5t10.5 18.5t6.5 17.5t2.5 17.5q0 29 -18.5 48.5t-48.5 19.5t-48.5 -19.5t-18.5 -48.5zM180 0h80l500 710h-80zM733 -5
q-39 0 -74.5 16t-53.5 45l51 44q26 -41 74 -41q34 0 55.5 22t21.5 54q0 33 -21 55.5t-57 22.5q-41 0 -62 -34l-45 20v227h223v-65h-154v-91q21 7 42 7q65 0 104.5 -39.5t39.5 -102.5q0 -62 -39.5 -101t-104.5 -39z" />
    <glyph glyph-name="uni2157" unicode="&#x2157;" horiz-adv-x="854" 
d="M160 279q-83 0 -125 61l50 42q27 -39 73 -39q35 0 57.5 21.5t22.5 57.5t-22.5 58t-60.5 22h-40l77 143h-139v65h242l-82 -155q45 -14 70 -49t25 -84q0 -64 -40.5 -103.5t-107.5 -39.5zM130 0h80l500 710h-80zM683 -5q-39 0 -74.5 16t-53.5 45l51 44q26 -41 74 -41
q34 0 55.5 22t21.5 54q0 33 -21 55.5t-57 22.5q-41 0 -62 -34l-45 20v227h223v-65h-154v-91q21 7 42 7q65 0 104.5 -39.5t39.5 -102.5q0 -62 -39.5 -101t-104.5 -39z" />
    <glyph glyph-name="uni2158" unicode="&#x2158;" horiz-adv-x="847" 
d="M194 284v108h-229l297 328v-267h49v-61h-49v-108h-68zM100 453h94v104zM124 0h80l500 710h-80zM677 -5q-39 0 -74.5 16t-53.5 45l51 44q26 -41 74 -41q34 0 55.5 22t21.5 54q0 33 -21 55.5t-57 22.5q-41 0 -62 -34l-45 20v227h223v-65h-154v-91q21 7 42 7
q65 0 104.5 -39.5t39.5 -102.5q0 -62 -39.5 -101t-104.5 -39z" />
    <glyph glyph-name="uni2159" unicode="&#x2159;" horiz-adv-x="746" 
d="M68 284v366l69 70v-436h-69zM31 0h80l500 710h-80zM578 -5q-61 0 -102.5 40.5t-41.5 99.5q0 34 26 79l121 212h77l-90 -154q8 2 17 2q57 0 97 -41t40 -98q0 -59 -41.5 -99.5t-102.5 -40.5zM578 59q33 0 53.5 22t20.5 54q0 31 -20.5 53t-53.5 22t-53.5 -22t-20.5 -53
q0 -32 20.5 -54t53.5 -22z" />
    <glyph glyph-name="uni215A" unicode="&#x215a;" horiz-adv-x="857" 
d="M173 279q-39 0 -74.5 16t-53.5 45l51 44q26 -41 74 -41q34 0 55.5 22t21.5 54q0 33 -21 55.5t-57 22.5q-41 0 -62 -34l-45 20v227h223v-65h-154v-91q21 7 42 7q65 0 104.5 -39.5t39.5 -102.5q0 -62 -39.5 -101t-104.5 -39zM143 0h80l500 710h-80zM690 -5
q-61 0 -102.5 40.5t-41.5 99.5q0 34 26 79l121 212h77l-90 -154q8 2 17 2q57 0 97 -41t40 -98q0 -59 -41.5 -99.5t-102.5 -40.5zM690 59q33 0 53.5 22t20.5 54q0 31 -20.5 53t-53.5 22t-53.5 -22t-20.5 -53q0 -32 20.5 -54t53.5 -22z" />
    <glyph glyph-name="oneeighth" unicode="&#x215b;" horiz-adv-x="779" 
d="M68 284v366l69 70v-436h-69zM31 0h80l500 710h-80zM594 -5q-61 0 -103 39.5t-42 97.5q0 74 63 112q-30 28 -30 74q0 48 32 80.5t80 32.5t81 -32.5t33 -80.5q0 -44 -31 -75q63 -38 63 -111q0 -58 -41.5 -97.5t-104.5 -39.5zM594 59q34 0 55.5 21t21.5 52q0 32 -21.5 53
t-55.5 21q-33 0 -54 -21.5t-21 -52.5t21 -52t54 -21zM594 270q22 0 35.5 14t13.5 34q0 21 -13.5 35t-35.5 14q-21 0 -34 -14t-13 -35t13 -34.5t34 -13.5z" />
    <glyph glyph-name="threeeighths" unicode="&#x215c;" horiz-adv-x="878" 
d="M160 279q-83 0 -125 61l50 42q27 -39 73 -39q35 0 57.5 21.5t22.5 57.5t-22.5 58t-60.5 22h-40l77 143h-139v65h242l-82 -155q45 -14 70 -49t25 -84q0 -64 -40.5 -103.5t-107.5 -39.5zM130 0h80l500 710h-80zM693 -5q-61 0 -103 39.5t-42 97.5q0 74 63 112q-30 28 -30 74
q0 48 32 80.5t80 32.5q49 0 81.5 -32.5t32.5 -80.5q0 -44 -31 -75q63 -38 63 -111q0 -58 -41.5 -97.5t-104.5 -39.5zM693 59q34 0 55.5 21t21.5 52q0 32 -21 53t-56 21q-33 0 -54 -21.5t-21 -52.5t21 -52t54 -21zM693 270q21 0 35 14t14 34q0 21 -13.5 35t-35.5 14
q-21 0 -34 -14t-13 -35t13 -34.5t34 -13.5z" />
    <glyph glyph-name="fiveeighths" unicode="&#x215d;" horiz-adv-x="890" 
d="M173 279q-39 0 -74.5 16t-53.5 45l51 44q26 -41 74 -41q34 0 55.5 22t21.5 54q0 33 -21 55.5t-57 22.5q-41 0 -62 -34l-45 20v227h223v-65h-154v-91q21 7 42 7q65 0 104.5 -39.5t39.5 -102.5q0 -62 -39.5 -101t-104.5 -39zM143 0h80l500 710h-80zM706 -5q-61 0 -103 39.5
t-42 97.5q0 74 63 112q-30 28 -30 74q0 48 32 80.5t80 32.5t81 -32.5t33 -80.5q0 -44 -31 -75q63 -38 63 -111q0 -58 -41.5 -97.5t-104.5 -39.5zM706 59q34 0 55.5 21t21.5 52q0 32 -21.5 53t-55.5 21q-33 0 -54 -21.5t-21 -52.5t21 -52t54 -21zM706 270q22 0 35.5 14
t13.5 34q0 21 -13.5 35t-35.5 14q-21 0 -34 -14t-13 -35t13 -34.5t34 -13.5z" />
    <glyph glyph-name="seveneighths" unicode="&#x215e;" horiz-adv-x="813" 
d="M27 284l170 361h-182v65h286l-199 -426h-75zM65 0h80l500 710h-80zM628 -5q-61 0 -103 39.5t-42 97.5q0 74 63 112q-30 28 -30 74q0 48 32 80.5t80 32.5t81 -32.5t33 -80.5q0 -44 -31 -75q63 -38 63 -111q0 -58 -41.5 -97.5t-104.5 -39.5zM628 59q34 0 55.5 21t21.5 52
q0 32 -21.5 53t-55.5 21q-33 0 -54 -21.5t-21 -52.5t21 -52t54 -21zM628 270q22 0 35.5 14t13.5 34q0 21 -13.5 35t-35.5 14q-21 0 -34 -14t-13 -35t13 -34.5t34 -13.5z" />
    <glyph glyph-name="uni215F" unicode="&#x215f;" horiz-adv-x="412" 
d="M68 284v366l69 70v-436h-69zM31 0h80l500 710h-80z" />
    <glyph glyph-name="uni2190" unicode="&#x2190;" horiz-adv-x="800" 
d="M346 -55l-306 306l306 306l48 -50l-220 -220h586v-72h-586l220 -221z" />
    <glyph glyph-name="uni2191" unicode="&#x2191;" horiz-adv-x="800" 
d="M364 0v586l-221 -220l-49 48l306 306l306 -306l-50 -48l-220 220v-586h-72z" />
    <glyph glyph-name="uni2192" unicode="&#x2192;" horiz-adv-x="800" 
d="M454 -55l-48 50l220 220h-586v72h586l-220 221l48 49l306 -306z" />
    <glyph glyph-name="uni2193" unicode="&#x2193;" horiz-adv-x="800" 
d="M706 296l-306 -306l-306 306l49 48l221 -220v586h72v-586l220 220z" />
    <glyph glyph-name="uni2196" unicode="&#x2196;" horiz-adv-x="800" 
d="M709 60l-49 -50l-444 443v-314h-69v433h433v-70h-314z" />
    <glyph glyph-name="uni2197" unicode="&#x2197;" horiz-adv-x="800" 
d="M140 10l-49 50l443 442h-314v70h433v-433h-69v314z" />
    <glyph glyph-name="uni2198" unicode="&#x2198;" horiz-adv-x="800" 
d="M653 0h-433v70h314l-443 442l49 50l444 -443v314h69v-433z" />
    <glyph glyph-name="uni2199" unicode="&#x2199;" horiz-adv-x="800" 
d="M151 0v433h69v-314l444 443l49 -50l-443 -442h314v-70h-433z" />
    <glyph glyph-name="uni219E" unicode="&#x219e;" horiz-adv-x="800" 
d="M594 -55l-270 270h-168l220 -221l-48 -49l-306 306l306 306l48 -50l-220 -220h168l270 270l48 -50l-220 -220h320v-72h-320l220 -221z" />
    <glyph glyph-name="uni219F" unicode="&#x219f;" horiz-adv-x="800" 
d="M143 100l-49 48l270 270v168l-221 -220l-49 48l306 306l306 -306l-50 -48l-220 220v-168l270 -270l-50 -48l-220 220v-320h-72v320z" />
    <glyph glyph-name="uni21A0" unicode="&#x21a0;" horiz-adv-x="800" 
d="M458 214l-270 -270l-48 49l220 221h-320v72h320l-220 220l48 50l270 -270h168l-220 220l48 50l306 -306l-306 -306l-48 49l220 221h-168z" />
    <glyph glyph-name="uni21A1" unicode="&#x21a1;" horiz-adv-x="800" 
d="M706 296l-306 -306l-306 306l49 48l221 -220v168l-270 270l49 48l221 -220v320h72v-320l220 220l50 -48l-270 -270v-168l220 220z" />
    <glyph glyph-name="uni21A2" unicode="&#x21a2;" horiz-adv-x="800" 
d="M791 -6l-49 -50l-270 270h-352l221 -220l-49 -50l-306 306l306 306l49 -49l-221 -221h352l270 270l49 -49l-257 -257z" />
    <glyph glyph-name="uni21A3" unicode="&#x21a3;" horiz-adv-x="800" 
d="M46 -56l-49 50l257 256l-257 257l49 49l270 -270h352l-221 221l49 49l306 -306l-306 -306l-49 50l221 220h-352z" />
    <glyph glyph-name="uni21A4" unicode="&#x21a4;" horiz-adv-x="800" 
d="M666 0v214h-516l220 -221l-48 -49l-306 306l306 306l48 -50l-220 -220h516v214h70v-500h-70z" />
    <glyph glyph-name="uni21A5" unicode="&#x21a5;" horiz-adv-x="800" 
d="M150 0v70h214v516l-221 -220l-49 48l306 306l306 -306l-50 -48l-220 220v-516h214v-70h-500z" />
    <glyph glyph-name="uni21A6" unicode="&#x21a6;" horiz-adv-x="800" 
d="M136 0h-70v500h70v-214h516l-220 220l48 50l306 -306l-306 -306l-48 49l220 221h-516v-214z" />
    <glyph glyph-name="uni21A7" unicode="&#x21a7;" horiz-adv-x="800" 
d="M364 640h-214v70h500v-70h-214v-516l220 220l50 -48l-306 -306l-306 306l49 48l221 -220v516z" />
    <glyph glyph-name="uni21B0" unicode="&#x21b0;" horiz-adv-x="800" 
d="M736 -184h-72v397h-514l220 -220l-48 -50l-306 306l306 306l48 -49l-220 -221h586v-469z" />
    <glyph glyph-name="uni21B1" unicode="&#x21b1;" horiz-adv-x="800" 
d="M64 -184v469h586l-220 221l48 49l306 -306l-306 -306l-48 50l220 220h-514v-397h-72z" />
    <glyph glyph-name="uni21B2" unicode="&#x21b2;" horiz-adv-x="800" 
d="M322 -57l-306 306l306 306l48 -50l-220 -220h514v397h72v-469h-586l220 -221z" />
    <glyph glyph-name="uni21B3" unicode="&#x21b3;" horiz-adv-x="800" 
d="M784 249l-306 -306l-48 49l220 221h-586v469h72v-397h514l-220 220l48 50z" />
    <glyph glyph-name="partialdiff" unicode="&#x2202;" horiz-adv-x="591" 
d="M295 -8q-108 0 -180 73t-72 178q0 103 71 177t176 74q51 0 95 -20.5t70 -57.5q-26 101 -100 162.5t-191 61.5h-7v75h6q79 0 144.5 -23.5t109.5 -64t74 -95.5t43.5 -116t13.5 -128q0 -133 -66 -214.5t-187 -81.5zM295 64q77 0 126 51.5t49 127.5t-49 127.5t-126 51.5
q-76 0 -126 -52t-50 -127t50 -127t126 -52z" />
    <glyph glyph-name="product" unicode="&#x220f;" horiz-adv-x="644" 
d="M96 -184v894h452v-894h-74v824h-304v-824h-74z" />
    <glyph glyph-name="summation" unicode="&#x2211;" horiz-adv-x="589" 
d="M59 -184v66l266 381l-266 381v66h466v-70h-374l263 -377l-263 -377h374v-70h-466z" />
    <glyph glyph-name="minus" unicode="&#x2212;" horiz-adv-x="630" 
d="M96 240v70h438v-70h-438z" />
    <glyph glyph-name="radical" unicode="&#x221a;" horiz-adv-x="698" 
d="M282 -17l-144 266h-89v70h129l91 -176l260 655h140v-70h-89z" />
    <glyph glyph-name="infinity" unicode="&#x221e;" horiz-adv-x="811" 
d="M542 112q-86 0 -137 67q-51 -67 -136 -67q-73 0 -123 50t-50 121t50 121t123 50q85 0 136 -67q51 67 137 67q73 0 123 -50t50 -121t-50 -121t-123 -50zM542 181q44 0 73 29.5t29 72.5t-29 72.5t-73 29.5t-72.5 -29.5t-28.5 -72.5t28.5 -72.5t72.5 -29.5zM269 181
q44 0 73 29.5t29 72.5t-29 72.5t-73 29.5t-72.5 -29.5t-28.5 -72.5t28.5 -72.5t72.5 -29.5z" />
    <glyph glyph-name="integral" unicode="&#x222b;" horiz-adv-x="405" 
d="M58 -188v70h26q48 0 65 18.5t17 68.5v595q0 79 35.5 114t121.5 35h24v-70h-28q-48 0 -64.5 -18.5t-16.5 -68.5v-594q0 -79 -36 -114.5t-120 -35.5h-24z" />
    <glyph glyph-name="approxequal" unicode="&#x2248;" horiz-adv-x="610" 
d="M96 112v86l108 73l198 -75l112 74v-82l-108 -75l-199 75zM96 300v86l108 73l198 -75l112 74v-82l-108 -75l-199 75z" />
    <glyph glyph-name="notequal" unicode="&#x2260;" horiz-adv-x="636" 
d="M96 350v70h281l86 119l55 -40l-57 -79h79v-70h-130l-108 -149h238v-70h-288l-86 -119l-55 40l57 79h-72v70h122l108 149h-230z" />
    <glyph glyph-name="lessequal" unicode="&#x2264;" horiz-adv-x="652" 
d="M539 118l-460 209l460 210v-77l-293 -133l293 -131v-78zM79 0v70h460v-70h-460z" />
    <glyph glyph-name="greaterequal" unicode="&#x2265;" horiz-adv-x="653" 
d="M113 118v78l293 131l-293 133v77l461 -210zM113 0v70h461v-70h-461z" />
    <glyph glyph-name="uni25A0" unicode="&#x25a0;" horiz-adv-x="654" 
d="M77 0v500h500v-500h-500z" />
    <glyph glyph-name="uni25A1" unicode="&#x25a1;" horiz-adv-x="655" 
d="M77 0v500h501v-500h-501zM163 417v-334h329v334h-329z" />
    <glyph glyph-name="square" unicode="&#x25ab;" horiz-adv-x="655" 
d="M77 0v500h501v-500h-501zM163 417v-334h329v334h-329z" />
    <glyph glyph-name="Triangle.up" unicode="&#x25b3;" horiz-adv-x="782" 
d="M150 84h479l-238 453zM5 0l386 717l386 -717h-772z" />
    <glyph glyph-name="triangle.up" unicode="&#x25b5;" horiz-adv-x="567" 
d="M134 77h299l-150 280zM3 0l280 514l281 -514h-561z" />
    <glyph glyph-name="Triangle.down" unicode="&#x25bd;" horiz-adv-x="782" 
d="M391 173l238 453h-479zM391 -7l-386 717h772z" />
    <glyph glyph-name="triangle.down" unicode="&#x25bf;" horiz-adv-x="567" 
d="M283 143l150 280h-299zM283 -14l-280 514h561z" />
    <glyph glyph-name="lozenge" unicode="&#x25ca;" horiz-adv-x="676" 
d="M338 112l186 243l-186 243l-186 -243zM338 -9l-279 364l279 365l279 -365z" />
    <glyph glyph-name="uni25CB" unicode="&#x25cb;" horiz-adv-x="602" 
d="M301 74q76 0 124 51t48 125t-48 125t-124 51q-75 0 -123.5 -51t-48.5 -125t48.5 -125t123.5 -51zM301 -8q-111 0 -185 75t-74 183t74 183t185 75t185 -75t74 -183t-74 -183t-185 -75z" />
    <glyph glyph-name="uni25CF" unicode="&#x25cf;" horiz-adv-x="614" 
d="M307 -10q-109 0 -187 78t-78 187t78 187t187 78t187 -78t78 -187t-78 -187t-187 -78z" />
    <glyph glyph-name="Circle" unicode="&#x25ef;" horiz-adv-x="802" 
d="M401 81q115 0 192.5 79t77.5 195t-77.5 195t-192.5 79t-192.5 -79t-77.5 -195t77.5 -195t192.5 -79zM401 -8q-152 0 -257.5 105t-105.5 258t105.5 258t257.5 105t257.5 -105t105.5 -258t-105.5 -258t-257.5 -105z" />
    <glyph glyph-name="Square" unicode="&#x25fb;" horiz-adv-x="883" 
d="M177 89h527v532h-527v-532zM86 0v710h710v-710h-710z" />
    <glyph glyph-name="fi" unicode="&#xfb01;" horiz-adv-x="597" 
d="M22 422v78h84q-37 35 -37 88t40.5 87.5t105.5 34.5h118v-78h-104q-34 0 -55 -16t-21 -47t21 -49t48 -20h111v-78h-139v-422h-86v422h-86zM433 609q-19 17 -19 46q0 26 18 44.5t44 18.5t44 -18.5t18 -44.5q0 -29 -19 -46h-86zM433 0v500h86v-500h-86z" />
    <glyph glyph-name="fl" unicode="&#xfb02;" horiz-adv-x="597" 
d="M22 422v78h84q-37 35 -37 88t40.5 87.5t105.5 34.5h118v-78h-104q-34 0 -55 -16t-21 -47t21 -49t48 -20h111v-78h-139v-422h-86v422h-86zM433 0v710h86v-710h-86z" />
    <glyph glyph-name="CR" horiz-adv-x="0" 
 />
    <glyph glyph-name="apple" horiz-adv-x="602" 
d="M301 -8q-107 0 -182.5 76t-75.5 182t75.5 182t182.5 76l-60 -151h88l-52 -137l188 194h-117l33 81q78 -26 128 -93.5t50 -151.5q0 -106 -75.5 -182t-182.5 -76z" />
    <glyph glyph-name="dotaccent.low" horiz-adv-x="177" 
d="M89 -192q-26 0 -44 18t-18 44q0 25 18 43t44 18t44 -17.5t18 -43.5t-18 -44t-44 -18z" />
    <glyph glyph-name="commaaccent" horiz-adv-x="249" 
d="M32 -229l74 179h100l-109 -179h-65z" />
    <glyph glyph-name="zero.slashed" horiz-adv-x="814" 
d="M407 -8q-153 0 -258.5 105t-105.5 258t105.5 258t258.5 105t258.5 -105t105.5 -258t-105.5 -258t-258.5 -105zM407 71q119 0 198 81.5t79 202.5q0 30 -6 57l-520 -185q34 -72 99.5 -114t149.5 -42zM131 355q0 -29 4 -52l518 186q-34 69 -99 109.5t-147 40.5
q-119 0 -197.5 -81.5t-78.5 -202.5z" />
    <glyph glyph-name="one.pof" horiz-adv-x="259" 
d="M87 0v468l85 86v-554h-85z" />
    <glyph glyph-name="two.pof" horiz-adv-x="471" 
d="M139 379h-83q0 71 50.5 120t127.5 49q76 0 127 -47.5t51 -111.5q0 -21 -5 -41.5t-9 -33t-19.5 -33.5t-20 -27t-28 -32t-27.5 -31l-98 -113h202v-78h-378l159 183q10 12 28 32q67 76 89.5 108.5t22.5 64.5q0 33 -27 58t-67 25q-41 0 -68 -27t-27 -65z" />
    <glyph glyph-name="three.pof" horiz-adv-x="502" 
d="M214 -142q-121 0 -196 83l56 59q59 -63 138 -63q73 0 119 43t46 114q0 69 -46 109.5t-126 36.5h-21l116 222h-253v78h384l-123 -236q72 -23 114 -77.5t42 -132.5q0 -107 -69 -171.5t-181 -64.5z" />
    <glyph glyph-name="four.pof" horiz-adv-x="552" 
d="M360 -133v183h-390l475 498v-420h95v-78h-95v-183h-85zM152 128h208v218z" />
    <glyph glyph-name="five.pof" horiz-adv-x="530" 
d="M243 -142q-62 0 -115.5 26.5t-83.5 62.5l56 59q63 -69 140 -69q69 0 110 42.5t41 103.5q0 63 -40.5 105t-110.5 42t-113 -45l-51 27v328h356v-78h-271v-170q39 17 86 17q106 0 168.5 -64t62.5 -162q0 -96 -63.5 -160.5t-171.5 -64.5z" />
    <glyph glyph-name="six.pof" horiz-adv-x="505" 
d="M252 -8q-94 0 -157.5 64t-63.5 155q0 52 29 110l182 353h92l-129 -252q24 8 55 8q91 -4 152 -67t61 -152q0 -91 -63.5 -155t-157.5 -64zM252 71q59 0 96.5 41t37.5 99t-37.5 99.5t-96.5 41.5t-97 -41.5t-38 -99.5t38 -99t97 -41z" />
    <glyph glyph-name="seven.pof" horiz-adv-x="500" 
d="M80 -134l283 596h-334v78h461l-319 -674h-91z" />
    <glyph glyph-name="eight.pof" horiz-adv-x="556" 
d="M278 -8q-91 0 -156 63.5t-65 152.5q0 58 28 106.5t75 77.5q-56 48 -56 122q0 71 50.5 119.5t123.5 48.5q72 0 123 -48.5t51 -119.5q0 -75 -57 -122q48 -29 76 -77.5t28 -106.5q0 -89 -65 -152.5t-156 -63.5zM278 71q56 0 95 40t39 97t-39 97.5t-95 40.5t-95 -40.5
t-39 -97.5t39 -97t95 -40zM274 425h4h3q36 2 61 27.5t25 61.5q0 37 -26 63t-63 26t-63 -26t-26 -63q0 -36 25 -61.5t60 -27.5z" />
    <glyph glyph-name="nine.pof" horiz-adv-x="505" 
d="M253 549q94 0 157.5 -64t63.5 -155q0 -52 -29 -110l-182 -353h-92l129 252q-24 -8 -55 -8q-91 4 -152 67t-61 152q0 91 63.5 155t157.5 64zM253 470q-59 0 -96.5 -41t-37.5 -99t37.5 -99.5t96.5 -41.5t97 41.5t38 99.5t-38 99t-97 41z" />
    <glyph glyph-name="zero.pof" horiz-adv-x="646" 
d="M324 71q86 0 139 57t53 142t-53 142t-139 57t-139.5 -57t-53.5 -142t53.5 -142t139.5 -57zM324 -8q-120 0 -200 81t-80 197t80 197t200 81q119 0 199 -81t80 -197t-80 -197t-199 -81z" />
    <glyph glyph-name="zero.slashed.pof" horiz-adv-x="646" 
d="M324 -8q-120 0 -200 81t-80 197t80 197t200 81q119 0 199 -81t80 -197t-80 -197t-199 -81zM324 71q86 0 139 57t53 142q0 27 -6 51l-346 -168q54 -82 160 -82zM131 270q0 -23 5 -50l345 168q-55 81 -157 81q-86 0 -139.5 -57t-53.5 -142z" />
    <glyph glyph-name="one.tlf" horiz-adv-x="590" 
d="M120 0v80h138v550h-87v80h173v-630h138v-80h-362z" />
    <glyph glyph-name="two.tlf" horiz-adv-x="590" 
d="M172 505h-85q0 90 62 151.5t153 61.5t153.5 -61.5t62.5 -151.5q0 -62 -28.5 -117t-94.5 -126l-164 -182h287v-80h-467l275 299q58 63 82.5 107.5t24.5 98.5q0 57 -37 95.5t-94 38.5t-93.5 -38t-36.5 -96z" />
    <glyph glyph-name="three.tlf" horiz-adv-x="590" 
d="M267 -8q-62 0 -117.5 29.5t-86.5 79.5l66 51q19 -35 55.5 -58t81.5 -23q67 0 110.5 42.5t43.5 111.5q0 70 -43.5 114t-115.5 44h-63l143 247h-249v80h382l-149 -258q85 -17 134 -80t49 -147q0 -99 -67.5 -166t-173.5 -67z" />
    <glyph glyph-name="four.tlf" horiz-adv-x="590" 
d="M394 0v196h-401l486 522v-442h93v-80h-93v-196h-85zM168 276h226v243z" />
    <glyph glyph-name="five.tlf" horiz-adv-x="590" 
d="M284 -8q-64 0 -120.5 30t-86.5 79l67 52q18 -35 55.5 -58.5t82.5 -23.5q66 0 109 43t43 109q0 68 -43 112t-113 44q-65 0 -111 -55l-59 25v361h358v-80h-272v-193q42 20 87 20q109 0 174.5 -67t65.5 -167q0 -98 -66.5 -164.5t-170.5 -66.5z" />
    <glyph glyph-name="six.tlf" horiz-adv-x="590" 
d="M294 -8q-99 0 -167 67.5t-68 163.5q0 62 41 132l212 355h99l-158 -262q18 6 46 6q94 0 162.5 -68t68.5 -163q0 -96 -68.5 -163.5t-167.5 -67.5zM294 71q65 0 106.5 44t41.5 108t-41.5 108t-106.5 44q-64 0 -106 -44t-42 -108t42 -108t106 -44z" />
    <glyph glyph-name="seven.tlf" horiz-adv-x="590" 
d="M111 0l302 630h-336v80h465l-340 -710h-91z" />
    <glyph glyph-name="eight.tlf" horiz-adv-x="590" 
d="M295 -8q-95 0 -161.5 65.5t-66.5 162.5q0 62 28.5 112.5t77.5 81.5q-54 51 -54 128q0 76 51 126t125 50t125 -50t51 -126q0 -77 -54 -128q49 -31 77.5 -82t28.5 -112q0 -97 -66.5 -162.5t-161.5 -65.5zM295 73q59 0 99 42.5t40 104.5t-40 104.5t-99 42.5t-99 -42.5
t-40 -104.5t40 -104.5t99 -42.5zM291 448h4h3q37 2 62.5 28t25.5 66q0 41 -26.5 68t-64.5 27t-64.5 -27t-26.5 -68q0 -40 25 -66t62 -28z" />
    <glyph glyph-name="nine.tlf" horiz-adv-x="590" 
d="M178 -1l158 262q-18 -6 -46 -6q-94 0 -162.5 68t-68.5 163q0 96 68.5 164t167.5 68t167 -68t68 -164q0 -61 -42 -132l-212 -355h-98zM295 334q64 0 106 44t42 108t-42 108.5t-106 44.5q-65 0 -106.5 -44.5t-41.5 -108.5t41.5 -108t106.5 -44z" />
    <glyph glyph-name="zero.tlf" horiz-adv-x="590" 
d="M296 71q86 0 139 57t53 142t-53 142t-139 57t-139.5 -57t-53.5 -142t53.5 -142t139.5 -57zM296 -8q-120 0 -200 81t-80 197t80 197t200 81q119 0 199 -81t80 -197t-80 -197t-199 -81z" />
    <glyph glyph-name="zero.slashed.tlf" horiz-adv-x="590" 
d="M296 -8q-120 0 -200 81t-80 197t80 197t200 81q119 0 199 -81t80 -197t-80 -197t-199 -81zM296 71q86 0 139 57t53 142q0 27 -6 51l-346 -168q54 -82 160 -82zM103 270q0 -23 5 -50l345 168q-55 81 -157 81q-86 0 -139.5 -57t-53.5 -142z" />
    <glyph glyph-name="one.case" horiz-adv-x="300" 
d="M105 0v628l90 90v-718h-90z" />
    <glyph glyph-name="two.case" horiz-adv-x="570" 
d="M160 504h-89q0 90 62.5 152t153.5 62q92 0 155 -62t63 -152q0 -60 -27.5 -114t-90.5 -122l-164 -184h282v-84h-471l271 297q33 37 51 59.5t38.5 65t20.5 82.5q0 56 -36 93.5t-92 37.5t-91.5 -37.5t-35.5 -93.5z" />
    <glyph glyph-name="three.case" horiz-adv-x="538" 
d="M244 -8q-63 0 -118 29t-87 79l69 54q19 -35 54.5 -57t79.5 -22q65 0 108 42t43 109q0 68 -42.5 111t-113.5 43h-63l140 246h-246v84h386l-148 -258q83 -18 131.5 -80t48.5 -146q0 -100 -67.5 -167t-174.5 -67z" />
    <glyph glyph-name="four.case" horiz-adv-x="606" 
d="M400 0v193h-398l487 525v-443h92v-82h-92v-193h-89zM184 275h216v233z" />
    <glyph glyph-name="five.case" horiz-adv-x="560" 
d="M267 -8q-64 0 -121 29.5t-87 78.5l70 55q18 -35 54.5 -57.5t80.5 -22.5q65 0 106.5 42t41.5 106q0 66 -41.5 109t-109.5 43t-110 -55l-62 26v364h360v-84h-269v-187q42 19 84 19q109 0 174.5 -67t65.5 -168q0 -98 -66.5 -164.5t-170.5 -66.5z" />
    <glyph glyph-name="six.case" horiz-adv-x="564" 
d="M281 -8q-99 0 -167.5 67.5t-68.5 163.5q0 61 42 132l210 355h100l-156 -262q26 7 46 7q96 -2 163.5 -69t67.5 -163t-69 -163.5t-168 -67.5zM281 75q63 0 103.5 43t40.5 105t-40.5 105.5t-103.5 43.5t-103.5 -43.5t-40.5 -105.5t40.5 -105t103.5 -43z" />
    <glyph glyph-name="seven.case" horiz-adv-x="524" 
d="M70 0l299 626h-331v84h466l-338 -710h-96z" />
    <glyph glyph-name="eight.case" horiz-adv-x="571" 
d="M286 -8q-97 0 -164 65.5t-67 162.5q0 62 28.5 112.5t77.5 80.5q-53 50 -53 127q0 76 51.5 127t126.5 51q74 0 126 -51t52 -127t-54 -127q49 -30 77.5 -80.5t28.5 -112.5q0 -97 -66.5 -162.5t-163.5 -65.5zM286 77q58 0 97.5 41.5t39.5 101.5q0 61 -39.5 102.5t-97.5 41.5
t-98 -41.5t-40 -102.5q0 -60 40 -101.5t98 -41.5zM286 448q37 0 63 26.5t26 65.5q0 40 -26 66.5t-63 26.5q-38 0 -63.5 -26.5t-25.5 -66.5t25.5 -66t63.5 -26z" />
    <glyph glyph-name="nine.case" horiz-adv-x="562" 
d="M166 0l157 262q-26 -7 -47 -7q-96 2 -163 69t-67 163t68.5 163.5t167.5 67.5t167 -67.5t68 -163.5q0 -62 -41 -132l-210 -355h-100zM282 338q63 0 103.5 43.5t40.5 105.5t-40.5 105t-103.5 43t-103.5 -43t-40.5 -105t40.5 -105.5t103.5 -43.5z" />
    <glyph glyph-name="zero.case" horiz-adv-x="832" 
d="M416 75q117 0 194.5 80.5t77.5 199.5t-77.5 199.5t-194.5 80.5q-118 0 -195 -80.5t-77 -199.5t77 -199.5t195 -80.5zM416 -8q-153 0 -258.5 105t-105.5 258t105.5 258t258.5 105t258.5 -105t105.5 -258t-105.5 -258t-258.5 -105z" />
    <glyph glyph-name="zero.slashed.case" horiz-adv-x="832" 
d="M416 -8q-153 0 -258.5 105t-105.5 258t105.5 258t258.5 105t258.5 -105t105.5 -258t-105.5 -258t-258.5 -105zM416 75q117 0 194.5 80.5t77.5 199.5q0 26 -5 56l-512 -183q33 -70 98 -111.5t147 -41.5zM144 355q0 -28 4 -51l509 183q-34 68 -97.5 108t-143.5 40
q-118 0 -195 -80.5t-77 -199.5z" />
    <glyph glyph-name="a.superior" horiz-adv-x="365" 
d="M255 410v19q-32 -24 -77 -24q-67 0 -111 44.5t-44 110.5t44 110.5t111 44.5q44 0 77 -25v20h69v-300h-69zM179 471q50 0 76 38v101q-26 39 -76 39q-37 0 -61 -25.5t-24 -63.5t24 -63.5t61 -25.5z" />
    <glyph glyph-name="b.superior" horiz-adv-x="365" 
d="M41 410v426h69v-146q33 25 77 25q66 0 110 -44.5t44 -110.5t-44 -110.5t-110 -44.5q-45 0 -77 24v-19h-69zM186 649q-50 0 -76 -38v-102q26 -38 76 -38q37 0 61 25.5t24 63.5t-24 63.5t-61 25.5z" />
    <glyph glyph-name="c.superior" horiz-adv-x="314" 
d="M179 405q-67 0 -111.5 44.5t-44.5 110.5t44.5 110.5t111.5 44.5q68 0 114 -51l-47 -48q-26 31 -67 31q-37 0 -61 -24.5t-24 -62.5t24 -62.5t61 -24.5q41 0 67 31l47 -48q-46 -51 -114 -51z" />
    <glyph glyph-name="d.superior" horiz-adv-x="365" 
d="M255 410v19q-32 -24 -77 -24q-67 0 -111 44.5t-44 110.5t44 110.5t111 44.5q44 0 77 -25v146h69v-426h-69zM179 471q50 0 76 38v101q-26 39 -76 39q-37 0 -61 -25.5t-24 -63.5t24 -63.5t61 -25.5z" />
    <glyph glyph-name="e.superior" horiz-adv-x="344" 
d="M179 405q-67 0 -111.5 44.5t-44.5 110.5t44 110.5t111 44.5t106 -47.5t37 -127.5h-226q5 -30 28.5 -48t55.5 -18q46 0 76 34l47 -50q-46 -53 -123 -53zM173 651q-26 0 -47 -15.5t-29 -42.5h148q-12 58 -72 58z" />
    <glyph glyph-name="f.superior" horiz-adv-x="216" 
d="M12 649v61h47q-21 21 -21 51q0 33 23.5 54t60.5 21h81v-61h-61q-38 0 -38 -32q0 -14 8.5 -23t21.5 -10h69v-61h-76v-239h-70v239h-45z" />
    <glyph glyph-name="g.superior" horiz-adv-x="361" 
d="M173 294q-75 0 -129 36l36 60q43 -30 93 -30q86 0 86 60q0 16 -6 29q-35 -26 -80 -26q-66 0 -108 41t-42 105t42 105t108 41q44 0 77 -25v20h69v-240q12 -28 12 -59q0 -60 -46 -88.5t-112 -28.5zM174 489q51 0 76 38v83q-26 39 -76 39q-34 0 -57 -22.5t-23 -57.5
t23 -57.5t57 -22.5z" />
    <glyph glyph-name="h.superior" horiz-adv-x="350" 
d="M41 410v426h69v-152q31 31 82 31q57 0 90 -36t33 -95v-174h-69v173q0 25 -18 45.5t-49 20.5q-52 0 -69 -51v-188h-69z" />
    <glyph glyph-name="i.superior" horiz-adv-x="152" 
d="M41 767q-10 13 -10 29q0 18 13 31.5t32 13.5q18 0 31.5 -13.5t13.5 -31.5q0 -17 -10 -29h-70zM41 410v300h69v-300h-69z" />
    <glyph glyph-name="j.superior" horiz-adv-x="155" 
d="M-19 300v65h18q45 0 45 40v305h69v-309q0 -54 -27.5 -77.5t-83.5 -23.5h-21zM44 767q-10 11 -10 29t13 31.5t31 13.5q19 0 32 -13.5t13 -31.5t-10 -29h-69z" />
    <glyph glyph-name="k.superior" horiz-adv-x="321" 
d="M41 410v426h69v-261l117 135h81l-122 -142l137 -158h-84l-129 149v-149h-69z" />
    <glyph glyph-name="l.superior" horiz-adv-x="151" 
d="M41 410v426h69v-426h-69z" />
    <glyph glyph-name="m.superior" horiz-adv-x="531" 
d="M426 410v173q0 26 -15 46t-45 20q-46 0 -64 -51q1 -5 1 -14v-174h-69v173q0 26 -15.5 46t-45.5 20q-46 0 -63 -51v-188h-69v300h69v-27q29 32 76 32q62 0 94 -46q35 46 99 46q55 0 85.5 -35.5t30.5 -95.5v-174h-69z" />
    <glyph glyph-name="o.superior" horiz-adv-x="357" 
d="M179 471q37 0 60.5 25.5t23.5 63.5t-23.5 63.5t-60.5 25.5t-61 -25.5t-24 -63.5t24 -63.5t61 -25.5zM179 405q-67 0 -111.5 44.5t-44.5 110.5t44.5 110.5t111.5 44.5q66 0 110.5 -44.5t44.5 -110.5t-44.5 -110.5t-110.5 -44.5z" />
    <glyph glyph-name="p.superior" horiz-adv-x="365" 
d="M41 300v410h69v-20q33 25 77 25q66 0 110 -44.5t44 -110.5t-44 -110.5t-110 -44.5q-46 0 -77 25v-130h-69zM186 649q-50 0 -76 -38v-102q26 -38 76 -38q37 0 61 25.5t24 63.5t-24 63.5t-61 25.5z" />
    <glyph glyph-name="q.superior" horiz-adv-x="365" 
d="M255 300v129q-32 -24 -77 -24q-67 0 -111 44.5t-44 110.5t44 110.5t111 44.5q44 0 77 -25v20h69v-410h-69zM179 471q50 0 76 38v101q-26 39 -76 39q-37 0 -61 -25.5t-24 -63.5t24 -63.5t61 -25.5z" />
    <glyph glyph-name="r.superior" horiz-adv-x="221" 
d="M41 410v300h69v-28q28 32 76 32q15 0 22 -1v-73q-15 5 -34 5q-46 0 -64 -34v-201h-69z" />
    <glyph glyph-name="s.superior" horiz-adv-x="250" 
d="M123 405q-77 0 -113 62l53 37q22 -37 60 -37q35 0 35 25q0 21 -38 36l-20 8q-74 29 -74 93q0 37 27.5 61.5t69.5 24.5q63 0 95 -52l-51 -36q-14 26 -42 26q-13 0 -22 -6t-9 -16q0 -11 8 -18.5t29 -15.5l21 -8q40 -16 59.5 -38t19.5 -56q0 -40 -30.5 -65t-77.5 -25z" />
    <glyph glyph-name="t.superior" horiz-adv-x="233" 
d="M10 649l-12 61h58v56l69 36v-92h77l-10 -61h-67v-131q0 -24 9 -34.5t34 -10.5h41v-63h-61q-43 0 -67.5 24.5t-24.5 67.5v147h-46z" />
    <glyph glyph-name="u.superior" horiz-adv-x="350" 
d="M239 410v25q-30 -30 -82 -30q-57 0 -90 36t-33 95v174h69v-173q0 -25 18.5 -45.5t48.5 -20.5q48 0 69 47v192h69v-300h-69z" />
    <glyph glyph-name="v.superior" horiz-adv-x="326" 
d="M163 405l-165 305h77l88 -171l87 171h79z" />
    <glyph glyph-name="w.superior" horiz-adv-x="435" 
d="M102 410l-95 300h72l60 -196l78 201l79 -201l59 196h73l-95 -300h-52l-64 157l-62 -157h-53z" />
    <glyph glyph-name="x.superior" horiz-adv-x="327" 
d="M7 410l112 152l-106 148h80l71 -100l71 100h79l-107 -148l113 -152h-80l-77 105l-76 -105h-80z" />
    <glyph glyph-name="y.superior" horiz-adv-x="308" 
d="M66 300l52 124l-117 286h74l79 -205l80 205h73l-169 -410h-72z" />
    <glyph glyph-name="z.superior" horiz-adv-x="304" 
d="M11 410l160 239h-141v61h260l-160 -239h151v-61h-270z" />
    <glyph glyph-name="zero.slashed.superior" horiz-adv-x="480" 
d="M240 405q-91 0 -155 63.5t-64 154.5t64 154.5t155 63.5q92 0 155.5 -63.5t63.5 -154.5t-63.5 -154.5t-155.5 -63.5zM240 469q64 0 106.5 44.5t42.5 109.5q0 2 -0.5 6t-0.5 5l-279 -88q42 -77 131 -77zM91 623v-10l278 88q-19 35 -53 55.5t-76 20.5q-65 0 -107 -44.5
t-42 -109.5z" />
    <glyph glyph-name="period.superior" horiz-adv-x="174" 
d="M87 405q-23 0 -38.5 15.5t-15.5 38.5q0 22 16 37.5t38 15.5t37.5 -15.5t15.5 -37.5t-15.5 -38t-37.5 -16z" />
    <glyph glyph-name="hyphen.superior" horiz-adv-x="209" 
d="M26 582v68h157v-68h-157z" />
    <glyph glyph-name="comma.superior" horiz-adv-x="163" 
d="M47 322l27 88h-36v87h87v-87l-36 -88h-42z" />
    <glyph glyph-name="a.inferior" horiz-adv-x="365" 
d="M255 -115v19q-32 -24 -77 -24q-67 0 -111 44.5t-44 110.5t44 110.5t111 44.5q44 0 77 -25v20h69v-300h-69zM179 -54q50 0 76 38v101q-26 39 -76 39q-37 0 -61 -25.5t-24 -63.5t24 -63.5t61 -25.5z" />
    <glyph glyph-name="b.inferior" horiz-adv-x="365" 
d="M41 -115v426h69v-146q33 25 77 25q66 0 110 -44.5t44 -110.5t-44 -110.5t-110 -44.5q-45 0 -77 24v-19h-69zM186 124q-50 0 -76 -38v-102q26 -38 76 -38q37 0 61 25.5t24 63.5t-24 63.5t-61 25.5z" />
    <glyph glyph-name="c.inferior" horiz-adv-x="314" 
d="M179 -120q-67 0 -111.5 44.5t-44.5 110.5t44.5 110.5t111.5 44.5q68 0 114 -51l-47 -48q-26 31 -67 31q-37 0 -61 -24.5t-24 -62.5t24 -62.5t61 -24.5q41 0 67 31l47 -48q-46 -51 -114 -51z" />
    <glyph glyph-name="d.inferior" horiz-adv-x="365" 
d="M255 -115v19q-32 -24 -77 -24q-67 0 -111 44.5t-44 110.5t44 110.5t111 44.5q44 0 77 -25v146h69v-426h-69zM179 -54q50 0 76 38v101q-26 39 -76 39q-37 0 -61 -25.5t-24 -63.5t24 -63.5t61 -25.5z" />
    <glyph glyph-name="e.inferior" horiz-adv-x="344" 
d="M179 -120q-67 0 -111.5 44.5t-44.5 110.5t44 110.5t111 44.5t106 -47.5t37 -127.5h-226q5 -30 28.5 -48t55.5 -18q46 0 76 34l47 -50q-46 -53 -123 -53zM173 126q-26 0 -47 -15.5t-29 -42.5h148q-12 58 -72 58z" />
    <glyph glyph-name="f.inferior" horiz-adv-x="216" 
d="M12 124v61h47q-21 21 -21 51q0 33 23.5 54t60.5 21h81v-61h-61q-38 0 -38 -32q0 -14 8.5 -23t21.5 -10h69v-61h-76v-239h-70v239h-45z" />
    <glyph glyph-name="g.inferior" horiz-adv-x="361" 
d="M173 -231q-75 0 -129 36l36 60q43 -30 93 -30q86 0 86 60q0 15 -6 29q-35 -26 -80 -26q-66 0 -108 41t-42 105t42 105t108 41q44 0 77 -25v20h69v-240q12 -28 12 -59q0 -60 -46 -88.5t-112 -28.5zM174 -36q51 0 76 38v83q-26 39 -76 39q-34 0 -57 -22.5t-23 -57.5
t23 -57.5t57 -22.5z" />
    <glyph glyph-name="h.inferior" horiz-adv-x="350" 
d="M41 -115v426h69v-152q31 31 82 31q57 0 90 -36t33 -95v-174h-69v173q0 25 -18 45.5t-49 20.5q-52 0 -69 -51v-188h-69z" />
    <glyph glyph-name="i.inferior" horiz-adv-x="152" 
d="M41 242q-10 13 -10 29q0 18 13 31.5t32 13.5q18 0 31.5 -13.5t13.5 -31.5q0 -17 -10 -29h-70zM41 -115v300h69v-300h-69z" />
    <glyph glyph-name="j.inferior" horiz-adv-x="155" 
d="M-19 -225v65h18q45 0 45 40v305h69v-309q0 -54 -27.5 -77.5t-83.5 -23.5h-21zM44 242q-10 11 -10 29t13 31.5t31 13.5q19 0 32 -13.5t13 -31.5t-10 -29h-69z" />
    <glyph glyph-name="k.inferior" horiz-adv-x="321" 
d="M41 -115v426h69v-261l117 135h81l-122 -142l137 -158h-84l-129 149v-149h-69z" />
    <glyph glyph-name="l.inferior" horiz-adv-x="151" 
d="M41 -115v426h69v-426h-69z" />
    <glyph glyph-name="m.inferior" horiz-adv-x="531" 
d="M426 -115v173q0 26 -15 46t-45 20q-46 0 -64 -51q1 -5 1 -14v-174h-69v173q0 26 -15.5 46t-45.5 20q-46 0 -63 -51v-188h-69v300h69v-27q29 32 76 32q62 0 94 -46q35 46 99 46q55 0 85.5 -35.5t30.5 -95.5v-174h-69z" />
    <glyph glyph-name="n.inferior" horiz-adv-x="350" 
d="M41 -115v300h69v-26q31 31 82 31q57 0 90 -36t33 -95v-174h-69v173q0 25 -18 45.5t-49 20.5q-52 0 -69 -51v-188h-69z" />
    <glyph glyph-name="o.inferior" horiz-adv-x="357" 
d="M179 -54q37 0 60.5 25.5t23.5 63.5t-23.5 63.5t-60.5 25.5t-61 -25.5t-24 -63.5t24 -63.5t61 -25.5zM179 -120q-67 0 -111.5 44.5t-44.5 110.5t44.5 110.5t111.5 44.5q66 0 110.5 -44.5t44.5 -110.5t-44.5 -110.5t-110.5 -44.5z" />
    <glyph glyph-name="p.inferior" horiz-adv-x="365" 
d="M41 -225v410h69v-20q33 25 77 25q66 0 110 -44.5t44 -110.5t-44 -110.5t-110 -44.5q-46 0 -77 25v-130h-69zM186 124q-50 0 -76 -38v-102q26 -38 76 -38q37 0 61 25.5t24 63.5t-24 63.5t-61 25.5z" />
    <glyph glyph-name="q.inferior" horiz-adv-x="365" 
d="M255 -225v129q-32 -24 -77 -24q-67 0 -111 44.5t-44 110.5t44 110.5t111 44.5q44 0 77 -25v20h69v-410h-69zM179 -54q50 0 76 38v101q-26 39 -76 39q-37 0 -61 -25.5t-24 -63.5t24 -63.5t61 -25.5z" />
    <glyph glyph-name="r.inferior" horiz-adv-x="221" 
d="M41 -115v300h69v-28q28 32 76 32q15 0 22 -1v-73q-15 5 -34 5q-46 0 -64 -34v-201h-69z" />
    <glyph glyph-name="s.inferior" horiz-adv-x="250" 
d="M123 -120q-77 0 -113 62l53 37q22 -37 60 -37q35 0 35 25q0 21 -38 36l-20 8q-74 29 -74 93q0 37 27.5 61.5t69.5 24.5q63 0 95 -52l-51 -36q-14 26 -42 26q-13 0 -22 -6t-9 -16q0 -11 8 -18.5t29 -15.5l21 -8q40 -16 59.5 -38t19.5 -56q0 -40 -30.5 -65t-77.5 -25z" />
    <glyph glyph-name="t.inferior" horiz-adv-x="233" 
d="M10 124l-12 61h58v56l69 36v-92h77l-10 -61h-67v-131q0 -24 9 -34.5t34 -10.5h41v-63h-61q-43 0 -67.5 24.5t-24.5 67.5v147h-46z" />
    <glyph glyph-name="u.inferior" horiz-adv-x="350" 
d="M239 -115v25q-30 -30 -82 -30q-57 0 -90 36t-33 95v174h69v-173q0 -25 18.5 -45.5t48.5 -20.5q48 0 69 47v192h69v-300h-69z" />
    <glyph glyph-name="v.inferior" horiz-adv-x="326" 
d="M163 -120l-165 305h77l88 -171l87 171h79z" />
    <glyph glyph-name="w.inferior" horiz-adv-x="435" 
d="M102 -115l-95 300h72l60 -196l78 201l79 -201l59 196h73l-95 -300h-52l-64 157l-62 -157h-53z" />
    <glyph glyph-name="x.inferior" horiz-adv-x="327" 
d="M7 -115l112 152l-106 148h80l71 -100l71 100h79l-107 -148l113 -152h-80l-77 105l-76 -105h-80z" />
    <glyph glyph-name="y.inferior" horiz-adv-x="308" 
d="M66 -225l52 124l-117 286h74l79 -205l80 205h73l-169 -410h-72z" />
    <glyph glyph-name="z.inferior" horiz-adv-x="304" 
d="M11 -115l160 239h-141v61h260l-160 -239h151v-61h-270z" />
    <glyph glyph-name="zero.slashed.inferior" horiz-adv-x="480" 
d="M240 -120q-91 0 -155 63.5t-64 154.5t64 154.5t155 63.5q92 0 155.5 -63.5t63.5 -154.5t-63.5 -154.5t-155.5 -63.5zM240 -56q64 0 106.5 44.5t42.5 109.5q0 2 -0.5 6t-0.5 5l-279 -88q42 -77 131 -77zM91 98v-10l278 88q-19 35 -53 55.5t-76 20.5q-65 0 -107 -44.5
t-42 -109.5z" />
    <glyph glyph-name="period.inferior" horiz-adv-x="174" 
d="M87 -120q-23 0 -38.5 16t-15.5 38t16 37.5t38 15.5t37.5 -15.5t15.5 -37.5t-15.5 -38t-37.5 -16z" />
    <glyph glyph-name="hyphen.inferior" horiz-adv-x="209" 
d="M26 57v68h157v-68h-157z" />
    <glyph glyph-name="comma.inferior" horiz-adv-x="163" 
d="M47 -203l27 88h-36v87h87v-87l-36 -88h-42z" />
    <glyph glyph-name="equal.inferior" horiz-adv-x="322" 
d="M29 1v55h264v-55h-264zM29 128v54h264v-54h-264z" />
    <glyph glyph-name="plus.inferior" horiz-adv-x="319" 
d="M29 64v55h103v101h55v-101h103v-55h-103v-103h-55v103h-103z" />
    <glyph glyph-name="minus.inferior" horiz-adv-x="319" 
d="M29 64v55h261v-55h-261z" />
    <glyph glyph-name="one.numerator" horiz-adv-x="232" 
d="M68 284v366l69 70v-436h-69z" />
    <glyph glyph-name="two.numerator" horiz-adv-x="380" 
d="M115 583h-69q0 56 39 94t97 38t97 -38t39 -94q0 -59 -55 -120l-98 -114h152v-65h-295l149 171q1 1 9.5 10.5t12 13.5t12 15t13.5 18t11.5 17.5t10.5 18.5t6.5 17.5t2.5 17.5q0 29 -18.5 48.5t-48.5 19.5t-48.5 -19.5t-18.5 -48.5z" />
    <glyph glyph-name="three.numerator" horiz-adv-x="331" 
d="M160 279q-83 0 -125 61l50 42q27 -39 73 -39q35 0 57.5 21.5t22.5 57.5t-22.5 58t-60.5 22h-40l77 143h-139v65h242l-82 -155q45 -14 70 -49t25 -84q0 -64 -40.5 -103.5t-107.5 -39.5z" />
    <glyph glyph-name="four.numerator" horiz-adv-x="324" 
d="M194 284v108h-229l297 328v-267h49v-61h-49v-108h-68zM100 453h94v104z" />
    <glyph glyph-name="five.numerator" horiz-adv-x="343" 
d="M173 279q-39 0 -74.5 16t-53.5 45l51 44q26 -41 74 -41q34 0 55.5 22t21.5 54q0 33 -21 55.5t-57 22.5q-41 0 -62 -34l-45 20v227h223v-65h-154v-91q21 7 42 7q65 0 104.5 -39.5t39.5 -102.5q0 -62 -39.5 -101t-104.5 -39z" />
    <glyph glyph-name="six.numerator" horiz-adv-x="334" 
d="M167 279q-61 0 -102.5 40.5t-41.5 99.5q0 34 26 79l121 212h77l-90 -154q8 2 17 2q57 0 97 -41t40 -98q0 -59 -41.5 -99.5t-102.5 -40.5zM167 343q33 0 53.5 22t20.5 54q0 31 -20.5 53t-53.5 22t-53.5 -22t-20.5 -53q0 -32 20.5 -54t53.5 -22z" />
    <glyph glyph-name="seven.numerator" horiz-adv-x="266" 
d="M27 284l170 361h-182v65h286l-199 -426h-75z" />
    <glyph glyph-name="eight.numerator" horiz-adv-x="367" 
d="M183 279q-61 0 -103 39.5t-42 97.5q0 74 63 112q-30 28 -30 74q0 48 32 80.5t80 32.5q49 0 81.5 -32.5t32.5 -80.5q0 -44 -31 -75q63 -38 63 -111q0 -58 -41.5 -97.5t-104.5 -39.5zM183 343q34 0 55.5 21t21.5 52q0 32 -21 53t-56 21q-33 0 -54 -21.5t-21 -52.5t21 -52
t54 -21zM183 554q21 0 35 14t14 34q0 21 -13.5 35t-35.5 14q-21 0 -34 -14t-13 -35t13 -34.5t34 -13.5z" />
    <glyph glyph-name="nine.numerator" horiz-adv-x="333" 
d="M86 284l91 155q-8 -2 -17 -2q-57 0 -97 41t-40 98q0 59 41 99t103 40q61 0 102 -40t41 -99q0 -35 -26 -80l-121 -212h-77zM167 501q32 0 53 22t21 53t-21 53t-53 22q-34 0 -54.5 -21.5t-20.5 -53.5q0 -31 21 -53t54 -22z" />
    <glyph glyph-name="zero.numerator" horiz-adv-x="500" 
d="M249 343q65 0 107.5 44.5t42.5 109.5t-42.5 109.5t-107.5 44.5q-64 0 -106 -44.5t-42 -109.5t42 -109.5t106 -44.5zM249 279q-90 0 -154 63.5t-64 154.5t64 154.5t154 63.5q92 0 156 -63.5t64 -154.5t-64 -154.5t-156 -63.5z" />
    <glyph glyph-name="zero.slashed.numerator" horiz-adv-x="500" 
d="M250 279q-91 0 -155 63.5t-64 154.5t64 154.5t155 63.5q92 0 155.5 -63.5t63.5 -154.5t-63.5 -154.5t-155.5 -63.5zM250 343q64 0 106.5 44.5t42.5 109.5q0 2 -0.5 6t-0.5 5l-279 -88q42 -77 131 -77zM101 497v-10l278 88q-19 35 -53 55.5t-76 20.5q-65 0 -107 -44.5
t-42 -109.5z" />
    <glyph glyph-name="one.denominator" horiz-adv-x="232" 
d="M68 0v366l69 70v-436h-69z" />
    <glyph glyph-name="two.denominator" horiz-adv-x="380" 
d="M115 299h-69q0 56 39 94t97 38t97 -38t39 -94q0 -59 -55 -120l-98 -114h152v-65h-295l149 171q1 1 9.5 10.5t12 13.5t12 15t13.5 18t11.5 17.5t10.5 18.5t6.5 17.5t2.5 17.5q0 29 -18.5 48.5t-48.5 19.5t-48.5 -19.5t-18.5 -48.5z" />
    <glyph glyph-name="three.denominator" horiz-adv-x="331" 
d="M160 -5q-83 0 -125 61l50 42q27 -39 73 -39q35 0 57.5 21.5t22.5 57.5t-22.5 58t-60.5 22h-40l77 143h-139v65h242l-82 -155q45 -14 70 -49t25 -84q0 -64 -40.5 -103.5t-107.5 -39.5z" />
    <glyph glyph-name="four.denominator" horiz-adv-x="324" 
d="M194 0v108h-229l297 328v-267h49v-61h-49v-108h-68zM100 169h94v104z" />
    <glyph glyph-name="five.denominator" horiz-adv-x="343" 
d="M173 -5q-39 0 -74.5 16t-53.5 45l51 44q26 -41 74 -41q34 0 55.5 22t21.5 54q0 33 -21 55.5t-57 22.5q-41 0 -62 -34l-45 20v227h223v-65h-154v-91q21 7 42 7q65 0 104.5 -39.5t39.5 -102.5q0 -62 -39.5 -101t-104.5 -39z" />
    <glyph glyph-name="six.denominator" horiz-adv-x="334" 
d="M167 -5q-61 0 -102.5 40.5t-41.5 99.5q0 34 26 79l121 212h77l-90 -154q8 2 17 2q57 0 97 -41t40 -98q0 -59 -41.5 -99.5t-102.5 -40.5zM167 59q33 0 53.5 22t20.5 54q0 31 -20.5 53t-53.5 22t-53.5 -22t-20.5 -53q0 -32 20.5 -54t53.5 -22z" />
    <glyph glyph-name="seven.denominator" horiz-adv-x="266" 
d="M27 0l170 361h-182v65h286l-199 -426h-75z" />
    <glyph glyph-name="eight.denominator" horiz-adv-x="367" 
d="M183 -5q-61 0 -103 39.5t-42 97.5q0 74 63 112q-30 28 -30 74q0 48 32 80.5t80 32.5q49 0 81.5 -32.5t32.5 -80.5q0 -44 -31 -75q63 -38 63 -111q0 -58 -41.5 -97.5t-104.5 -39.5zM183 59q34 0 55.5 21t21.5 52q0 32 -21 53t-56 21q-33 0 -54 -21.5t-21 -52.5t21 -52
t54 -21zM183 270q21 0 35 14t14 34q0 21 -13.5 35t-35.5 14q-21 0 -34 -14t-13 -35t13 -34.5t34 -13.5z" />
    <glyph glyph-name="nine.denominator" horiz-adv-x="333" 
d="M86 0l91 155q-8 -2 -17 -2q-57 0 -97 41t-40 98q0 59 41 99t103 40q61 0 102 -40t41 -99q0 -35 -26 -80l-121 -212h-77zM167 217q32 0 53 22t21 53t-21 53t-53 22q-34 0 -54.5 -21.5t-20.5 -53.5q0 -31 21 -53t54 -22z" />
    <glyph glyph-name="zero.denominator" horiz-adv-x="500" 
d="M249 59q65 0 107.5 44.5t42.5 109.5t-42.5 109.5t-107.5 44.5q-64 0 -106 -44.5t-42 -109.5t42 -109.5t106 -44.5zM249 -5q-90 0 -154 63.5t-64 154.5t64 154.5t154 63.5q92 0 156 -63.5t64 -154.5t-64 -154.5t-156 -63.5z" />
    <glyph glyph-name="zero.slashed.denominator" horiz-adv-x="500" 
d="M250 -5q-91 0 -155 63.5t-64 154.5t64 154.5t155 63.5q92 0 155.5 -63.5t63.5 -154.5t-63.5 -154.5t-155.5 -63.5zM250 59q64 0 106.5 44.5t42.5 109.5q0 2 -0.5 6t-0.5 5l-279 -88q42 -77 131 -77zM101 213v-10l278 88q-19 35 -53 55.5t-76 20.5q-65 0 -107 -44.5
t-42 -109.5z" />
    <glyph glyph-name="ampersand.case" horiz-adv-x="665" 
d="M33 190q0 133 160 204q-70 85 -70 156t51.5 119.5t129.5 48.5t128 -45.5t50 -116.5q0 -56 -33 -97.5t-126 -87.5l116 -131l85 131h98l-126 -194l159 -177h-110l-96 106q-82 -114 -211 -114q-91 0 -148 56t-57 142zM392 167l1 2l-148 166q-123 -54 -123 -145
q0 -53 33.5 -85t91.5 -32q83 0 145 94zM209 550q0 -29 14 -55.5t48 -65.5q72 32 98.5 58.5t26.5 66.5q0 38 -26 62.5t-66 24.5q-41 0 -68 -26.5t-27 -64.5z" />
    <glyph glyph-name="hyphen.case" horiz-adv-x="353" 
d="M55 315v89h243v-89h-243z" />
    <glyph glyph-name="endash.case" horiz-adv-x="544" 
d="M55 319v81h434v-81h-434z" />
    <glyph glyph-name="emdash.case" horiz-adv-x="841" 
d="M786 319h-731v81h731v-81z" />
    <glyph glyph-name="question.case" horiz-adv-x="489" 
d="M183 290v83h59q56 0 92 37.5t36 93.5t-36 93.5t-92 37.5t-91.5 -37.5t-35.5 -93.5h-90q0 90 63 152t154 62q92 0 155 -62t63 -152q0 -91 -63 -152.5t-155 -61.5h-59zM243 -8q-30 0 -51.5 21.5t-21.5 52.5q0 41 34 62h80q34 -22 34 -62q0 -31 -22 -52.5t-53 -21.5z" />
    <glyph glyph-name="questiondown.case" horiz-adv-x="489" 
d="M247 -8q-92 0 -155 62t-63 152q0 91 63 152.5t155 61.5h59v-83h-59q-56 0 -92 -37.5t-36 -93.5t36 -93.5t92 -37.5t91.5 37.5t35.5 93.5h90q0 -90 -63 -152t-154 -62zM205 582q-34 22 -34 62q0 31 22 52.5t53 21.5q30 0 51.5 -21.5t21.5 -52.5q0 -41 -34 -62h-80z" />
    <glyph glyph-name="exclam.case" horiz-adv-x="283" 
d="M113 223l-17 196v291h92v-291l-17 -196h-58zM141 -8q-32 0 -54 22.5t-22 54.5q0 42 34 63h84q35 -22 35 -63q0 -32 -22.5 -54.5t-54.5 -22.5z" />
    <glyph glyph-name="exclamdown.case" horiz-adv-x="283" 
d="M170 487l17 -196v-291h-92v291l17 196h58zM142 718q32 0 54 -22.5t22 -54.5q0 -42 -34 -63h-84q-35 22 -35 63q0 32 22.5 54.5t54.5 22.5z" />
    <glyph glyph-name="guilsinglleft.case" horiz-adv-x="307" 
d="M190 89l-152 221l152 221l62 -42l-123 -179l123 -179z" />
    <glyph glyph-name="guilsinglright.case" horiz-adv-x="307" 
d="M269 310l-152 -221l-62 42l123 179l-123 179l62 42z" />
    <glyph glyph-name="guillemotleft.case" horiz-adv-x="509" 
d="M392 89l-152 221l152 221l62 -42l-123 -179l123 -179zM190 89l-152 221l152 221l62 -42l-123 -179l123 -179z" />
    <glyph glyph-name="guillemotright.case" horiz-adv-x="509" 
d="M471 310l-152 -221l-62 42l123 179l-123 179l62 42zM269 310l-152 -221l-62 42l123 179l-123 179l62 42z" />
    <glyph glyph-name="parenleft.case" horiz-adv-x="258" 
d="M172 -10q-107 182 -107 366q0 183 107 366l66 -33q-95 -168 -95 -333q0 -166 94 -333z" />
    <glyph glyph-name="parenright.case" horiz-adv-x="258" 
d="M86 -10l-65 33q94 167 94 333q0 165 -95 333l66 33q107 -183 107 -366q0 -184 -107 -366z" />
    <glyph glyph-name="bracketleft.case" horiz-adv-x="301" 
d="M86 0v710h186v-71h-108v-568h108v-71h-186z" />
    <glyph glyph-name="bracketright.case" horiz-adv-x="301" 
d="M215 710v-710h-186v71h108v568h-108v71h186z" />
    <glyph glyph-name="braceleft.case" horiz-adv-x="312" 
d="M232 0q-69 0 -98.5 35.5t-29.5 108.5v104q0 38 -11 54.5t-46 16.5h-16v71h16q35 0 46 16.5t11 54.5v105q0 73 29 108.5t98 35.5h50v-71h-39q-35 0 -47 -16.5t-12 -55.5v-102q0 -47 -11.5 -71.5t-41.5 -39.5q30 -14 41.5 -38.5t11.5 -71.5v-101q0 -39 12 -55.5t47 -16.5
h39v-71h-49z" />
    <glyph glyph-name="braceright.case" horiz-adv-x="312" 
d="M80 0h-49v71h39q35 0 47 16.5t12 55.5v101q0 47 11.5 71.5t41.5 38.5q-30 15 -41.5 39.5t-11.5 71.5v102q0 39 -12 55.5t-47 16.5h-39v71h50q69 0 98 -35.5t29 -108.5v-105q0 -38 11 -54.5t46 -16.5h16v-71h-16q-35 0 -46 -16.5t-11 -54.5v-104q0 -73 -29.5 -108.5
t-98.5 -35.5z" />
    <glyph glyph-name="bar.case" horiz-adv-x="247" 
d="M84 0v710h79v-710h-79z" />
    <glyph glyph-name="brokenbar.case" horiz-adv-x="247" 
d="M84 0v292h79v-292h-79zM84 419v291h79v-291h-79z" />
    <glyph glyph-name="periodcentered.case" horiz-adv-x="278" 
d="M139 285q-30 0 -52 21.5t-22 52.5t22 52.5t52 21.5q31 0 52.5 -21.5t21.5 -52.5t-21.5 -52.5t-52.5 -21.5z" />
    <glyph glyph-name="plus.case" horiz-adv-x="647" 
d="M105 320v70h183v178h71v-178h183v-70h-183v-182h-71v182h-183z" />
    <glyph glyph-name="minus.case" horiz-adv-x="648" 
d="M105 320v70h438v-70h-438z" />
    <glyph glyph-name="divide.case" horiz-adv-x="648" 
d="M324 149q-27 0 -47 19.5t-20 46.5t20 46.5t47 19.5q28 0 47 -19t19 -47t-19 -47t-47 -19zM105 320v70h438v-70h-438zM324 428q-27 0 -47 19.5t-20 47.5q0 27 20 46.5t47 19.5q28 0 47 -19.5t19 -46.5q0 -28 -19 -47.5t-47 -19.5z" />
    <glyph glyph-name="multiply.case" horiz-adv-x="608" 
d="M157 163l-50 49l148 147l-150 150l50 49l149 -150l148 148l49 -49l-148 -148l150 -149l-49 -49l-150 149z" />
    <glyph glyph-name="equal.case" horiz-adv-x="654" 
d="M105 215v70h444v-70h-444zM105 434v70h444v-70h-444z" />
    <glyph glyph-name="plusminus.case" horiz-adv-x="648" 
d="M105 378v70h184v141h70v-141h184v-70h-184v-144h-70v144h-184zM105 89v70h438v-70h-438z" />
    <glyph glyph-name="less.case" horiz-adv-x="481" 
d="M352 76l-289 277l289 276l50 -52l-237 -224l237 -226z" />
    <glyph glyph-name="greater.case" horiz-adv-x="482" 
d="M130 75l-51 51l237 226l-237 224l51 52l289 -276z" />
    <glyph glyph-name="lessequal.case" horiz-adv-x="670" 
d="M548 208l-460 209l460 210v-77l-293 -133l293 -131v-78zM88 90v70h460v-70h-460z" />
    <glyph glyph-name="greaterequal.case" horiz-adv-x="671" 
d="M122 202v78l293 131l-293 133v77l461 -210zM122 84v70h461v-70h-461z" />
    <glyph glyph-name="notequal.case" horiz-adv-x="654" 
d="M105 434v70h281l86 119l55 -40l-57 -79h79v-70h-130l-108 -149h238v-70h-288l-86 -119l-55 40l57 79h-72v70h122l108 149h-230z" />
    <glyph glyph-name="acute.case" horiz-adv-x="267" 
d="M46 768l77 145h108l-112 -145h-73z" />
    <glyph glyph-name="breve.case" horiz-adv-x="379" 
d="M188 772q-68 0 -110.5 39.5t-45.5 97.5h64q2 -33 27 -56t66 -23t66.5 23t27.5 56h64q-4 -58 -47 -97.5t-112 -39.5z" />
    <glyph glyph-name="caron.case" horiz-adv-x="396" 
d="M198 766l-173 100l35 60l138 -82l138 82l35 -60z" />
    <glyph glyph-name="cedilla.case" horiz-adv-x="197" 
d="M14 -135l77 135h59l-38 -135h-98z" />
    <glyph glyph-name="circumflex.case" horiz-adv-x="395" 
d="M60 766l-35 60l173 100l173 -100l-35 -60l-138 82z" />
    <glyph glyph-name="dieresis.case" horiz-adv-x="409" 
d="M126 782q-24 0 -42.5 18t-18.5 44q0 24 18.5 42t42.5 18q26 0 44 -17.5t18 -42.5q0 -26 -18 -44t-44 -18zM351 782q-25 0 -43 18t-18 44q0 25 18 42.5t43 17.5q26 0 44 -17.5t18 -42.5q0 -26 -18 -44t-44 -18z" />
    <glyph glyph-name="dotaccent.case" horiz-adv-x="179" 
d="M89 780q-25 0 -43.5 18.5t-18.5 45.5q0 25 18.5 43.5t43.5 18.5q27 0 45.5 -18t18.5 -44q0 -27 -18.5 -45.5t-45.5 -18.5z" />
    <glyph glyph-name="grave.case" horiz-adv-x="267" 
d="M150 768l-113 145h109l77 -145h-73z" />
    <glyph glyph-name="hungarumlaut.case" horiz-adv-x="461" 
d="M46 768l77 145h104l-113 -145h-68zM246 768l77 145h104l-113 -145h-68z" />
    <glyph glyph-name="macron.case" horiz-adv-x="365" 
d="M37 803v65h292v-65h-292z" />
    <glyph glyph-name="ogonek.case" horiz-adv-x="245" 
d="M144 -189q-45 0 -76.5 24t-31.5 65q0 30 23.5 59t55.5 41h92q-85 -37 -85 -84q0 -17 13.5 -28.5t36.5 -11.5q17 0 36 7v-59q-27 -13 -64 -13z" />
    <glyph glyph-name="ring.case" horiz-adv-x="264" 
d="M132 798q20 0 34 13t14 34t-14 34.5t-34 13.5t-34 -13.5t-14 -34.5t14 -34t34 -13zM132 751q-42 0 -70.5 27t-28.5 67q0 41 29 68t70 27t70 -27t29 -68q0 -40 -28.5 -67t-70.5 -27z" />
    <glyph glyph-name="tilde.case" horiz-adv-x="435" 
d="M284 783q-31 0 -72.5 22t-55.5 22q-36 0 -46 -43h-69l4 18q8 44 38.5 70t66.5 26q31 0 71.5 -22t54.5 -22q38 0 48 43h68l-3 -18q-8 -44 -37.5 -70t-67.5 -26z" />
    <glyph glyph-name="A.ss01" horiz-adv-x="666" 
d="M86 0v710h494v-710h-92v267h-311v-267h-91zM177 622v-267h311v267h-311z" />
    <glyph glyph-name="B.ss01" horiz-adv-x="738" 
d="M86 0v710h391v-210h183v-500h-574zM177 412v-324h392v324h-392zM177 622v-122h208v122h-208z" />
    <glyph glyph-name="C.ss01" horiz-adv-x="618" 
d="M86 0v710h483v-88h-392v-534h392v-88h-483z" />
    <glyph glyph-name="G.ss01" horiz-adv-x="740" 
d="M372 319v88h287v-407h-573v710h527v-88h-436v-534h391v231h-196z" />
    <glyph glyph-name="J.ss01" horiz-adv-x="398" 
d="M20 0v88h201v622h91v-710h-292z" />
    <glyph glyph-name="O.ss01" horiz-adv-x="883" 
d="M177 88h528v534h-528v-534zM86 0v710h710v-710h-710z" />
    <glyph glyph-name="P.ss01" horiz-adv-x="646" 
d="M86 0v710h494v-443h-403v-267h-91zM177 622v-267h312v267h-312z" />
    <glyph glyph-name="Q.ss01" horiz-adv-x="883" 
d="M86 0v710h710v-710h-310v-184h-90v184h-310zM177 88h219v183h90v-183h219v534h-528v-534z" />
    <glyph glyph-name="S.ss01" horiz-adv-x="604" 
d="M85 413v297h434v-88h-343v-122h343v-500h-434v88h343v325h-343z" />
    <glyph glyph-name="U.ss01" horiz-adv-x="738" 
d="M86 -2v712h91v-622h384v622h91v-712h-566z" />
    <glyph glyph-name="Y.ss01" horiz-adv-x="698" 
d="M66 319v391h91v-303h384v303h91v-391h-237v-319h-91v319h-238z" />
    <glyph glyph-name="b.ss01" horiz-adv-x="651" 
d="M77 0v710h86v-210h411v-500h-497zM163 417v-334h325v334h-325z" />
    <glyph glyph-name="c.ss01" horiz-adv-x="482" 
d="M77 0v500h348v-83h-262v-334h262v-83h-348z" />
    <glyph glyph-name="d.ss01" horiz-adv-x="651" 
d="M77 0v500h411v210h86v-710h-497zM163 417v-334h325v334h-325z" />
    <glyph glyph-name="f.ss01" horiz-adv-x="357" 
d="M22 422v78h87v210h224v-78h-139v-132h139v-78h-139v-422h-85v422h-87z" />
    <glyph glyph-name="h.ss01" horiz-adv-x="588" 
d="M425 0v417h-262v-417h-86v710h86v-210h348v-500h-86z" />
    <glyph glyph-name="i.ss01" 
d="M77 0v500h86v-500h-86zM77 609v101h86v-101h-86z" />
    <glyph glyph-name="j.ss01" 
d="M-27 -184v78h104v606h86v-684h-190zM77 609v101h86v-101h-86z" />
    <glyph glyph-name="k.ss01" horiz-adv-x="569" 
d="M417 0v221h-254v-221h-86v710h86v-407h178v197h85v-197h76v-303h-85z" />
    <glyph glyph-name="m.ss01" horiz-adv-x="885" 
d="M400 0v417h-237v-417h-86v500h731v-500h-86v417h-236v-417h-86z" />
    <glyph glyph-name="n.ss01" horiz-adv-x="588" 
d="M425 0v417h-262v-417h-86v500h434v-500h-86z" />
    <glyph glyph-name="o.ss01" horiz-adv-x="654" 
d="M77 0v500h500v-500h-500zM163 417v-334h328v334h-328z" />
    <glyph glyph-name="p.ss01" horiz-adv-x="651" 
d="M77 -184v684h497v-500h-411v-184h-86zM163 417v-334h325v334h-325z" />
    <glyph glyph-name="q.ss01" horiz-adv-x="651" 
d="M77 0v500h497v-684h-86v184h-411zM163 417v-334h325v334h-325z" />
    <glyph glyph-name="r.ss01" horiz-adv-x="359" 
d="M77 0v500h259v-83h-173v-417h-86z" />
    <glyph glyph-name="s.ss01" horiz-adv-x="537" 
d="M76 209v291h385v-83h-300v-125h300v-292h-385v83h300v126h-300z" />
    <glyph glyph-name="t.ss01" horiz-adv-x="371" 
d="M10 422v78h89v129h86v-129h142v-78h-142v-344h141v-78h-227v422h-89z" />
    <glyph glyph-name="u.ss01" horiz-adv-x="587" 
d="M77 0v500h85v-417h263v417h85v-500h-433z" />
    <glyph glyph-name="y.ss01" horiz-adv-x="573" 
d="M43 209v291h85v-208h284v208h85v-684h-85v393h-369z" />
    <glyph glyph-name="A.ss02" horiz-adv-x="713" 
d="M9 0l342 710h276v-710h-91v186h-341l-89 -186h-97zM401 622l-166 -352h301v352h-135z" />
    <glyph glyph-name="E.ss02" horiz-adv-x="502" 
d="M246 0q-83 0 -143 59.5t-60 143.5q0 95 75 157q-75 59 -75 155q0 80 57.5 137.5t138.5 57.5h214v-88h-211q-45 0 -76.5 -31.5t-31.5 -76.5q0 -44 31.5 -75.5t76.5 -31.5h151v-88h-143q-48 0 -82 -34t-34 -82q0 -47 34 -81t82 -34h203v-88h-207z" />
    <glyph glyph-name="K.ss02" horiz-adv-x="663" 
d="M86 0v710h91v-356l324 356h112l-324 -356h162l189 -354h-99l-142 266h-222v-266h-91z" />
    <glyph glyph-name="N.ss02" horiz-adv-x="769" 
d="M592 0v143l-415 375v-518h-91v718l506 -457v449h91v-710h-91z" />
    <glyph glyph-name="Q.ss02" horiz-adv-x="802" 
d="M357 -184v179q-137 15 -228 116.5t-91 243.5q0 154 105 258.5t258 104.5t258 -104.5t105 -258.5q0 -142 -90.5 -243.5t-227.5 -116.5v-179h-89zM446 400v-318q99 16 162 92t63 181q0 117 -77 196.5t-193 79.5q-104 0 -178 -65t-89 -166h312zM357 312h-223
q13 -90 73.5 -153t149.5 -77v230z" />
    <glyph glyph-name="W.ss02" horiz-adv-x="942" 
d="M335 -8l-328 718h100l232 -518l87 196l-146 322h92l99 -222l99 222h92l-147 -322l88 -196l232 518h100l-328 -718l-136 298z" />
    <glyph glyph-name="X.ss02" horiz-adv-x="666" 
d="M538 0l-241 336l-179 -336h-97l220 415l-211 295h108l229 -321l170 320h98l-212 -398l222 -311h-107z" />
    <glyph glyph-name="Y.ss02" horiz-adv-x="665" 
d="M66 319v391h92v-303h201l190 303h106l-259 -409v-301h-92v319h-238z" />
    <glyph glyph-name="a.ss02" horiz-adv-x="550" 
d="M227 -8q-92 0 -143 47.5t-51 120.5t55.5 119t148.5 46q87 0 151 -33v130h-295v78h380v-500h-85v54q-62 -62 -161 -62zM234 70q107 0 154 76v66q-58 41 -143 41q-54 0 -89.5 -25t-35.5 -67q0 -43 33 -67t81 -24z" />
    <glyph glyph-name="g.ss02" horiz-adv-x="610" 
d="M532 -184h-429v82h344v175q-61 -58 -157 -58q-110 0 -178.5 70t-68.5 176t68.5 176.5t178.5 70.5q92 0 156 -59v51h86v-684zM292 95q52 0 92.5 22.5t61.5 59.5v169q-21 36 -61.5 58.5t-92.5 22.5q-71 0 -115.5 -47t-44.5 -119q0 -71 45 -118.5t115 -47.5z" />
    <glyph glyph-name="k.ss02" horiz-adv-x="556" 
d="M444 0l-187 193h-94v-193h-86v710h86v-210h258v-83h-258v-142h125l267 -275h-111z" />
    <glyph glyph-name="m.ss02" horiz-adv-x="875" 
d="M722 0v300q0 56 -30.5 91.5t-83.5 35.5q-94 0 -123 -104q1 -8 1 -26v-297h-86v292q0 56 -31 91.5t-84 35.5h-122v-419h-86v500h227q98 0 149 -78q58 86 169 86q85 0 135.5 -55t50.5 -148v-305h-86z" />
    <glyph glyph-name="w.ss02" horiz-adv-x="851" 
d="M250 0l-190 288v212h85v-188l151 -229h87v417h85v-417h87l151 229v188h85v-212l-191 -288h-350z" />
    <glyph glyph-name="b.ss03" horiz-adv-x="521" 
d="M77 0v500h192q83 0 126 -35.5t43 -99.5q0 -69 -48 -100q39 -15 60 -47.5t21 -73.5q0 -144 -179 -144h-215zM299 224h-136v-148h136q38 0 62 19.5t24 54.5t-24 54.5t-62 19.5zM279 424h-116v-133h116q31 0 52.5 16.5t21.5 49.5t-22 50t-52 17z" />
    <glyph glyph-name="d.ss03" horiz-adv-x="548" 
d="M77 0v500h170q119 0 189 -71.5t70 -178.5t-70 -178.5t-189 -71.5h-170zM249 419h-86v-338h86q78 0 124 48t46 121t-46 121t-124 48z" />
    <glyph glyph-name="f.ss03" horiz-adv-x="435" 
d="M77 0v500h321v-78h-235v-134h213v-78h-213v-210h-86z" />
    <glyph glyph-name="g.ss03" horiz-adv-x="570" 
d="M298 -8q-109 0 -182.5 75.5t-73.5 182.5q0 108 73.5 183t184.5 75q124 0 201 -81l-60 -54q-56 56 -141 56q-75 0 -123 -52t-48 -127t48 -127t121 -52q74 0 128 37v112h-125l33 78h177v-229q-35 -35 -92 -56t-121 -21z" />
    <glyph glyph-name="h.ss03" horiz-adv-x="588" 
d="M423 0v220h-258v-220h-88v500h88v-202h258v202h88v-500h-88z" />
    <glyph glyph-name="i.ss03" 
d="M77 0v500h86v-500h-86z" />
    <glyph glyph-name="j.ss03" horiz-adv-x="395" 
d="M170 -8q-76 0 -120.5 40.5t-44.5 108.5v17h85v-7q0 -39 21.5 -59.5t57.5 -20.5t57.5 20.5t21.5 59.5v349h85v-359q0 -68 -44 -108.5t-119 -40.5z" />
    <glyph glyph-name="k.ss03" horiz-adv-x="517" 
d="M77 0v500h86v-248l225 248h101l-230 -251l254 -249h-108l-242 240v-240h-86z" />
    <glyph glyph-name="l.ss03" horiz-adv-x="441" 
d="M77 0v500h86v-422h235v-78h-321z" />
    <glyph glyph-name="p.ss03" horiz-adv-x="475" 
d="M77 0v500h174q97 0 144 -44.5t47 -113.5t-47 -113.5t-144 -44.5h-88v-184h-86zM253 424h-90v-164h90q102 0 102 82t-102 82z" />
    <glyph glyph-name="q.ss03" horiz-adv-x="605" 
d="M515 -8l-56 51q-69 -51 -157 -51q-111 0 -185.5 75t-74.5 183t74.5 183t185.5 75t185 -75t74 -183q0 -91 -53 -158l54 -50zM302 71q55 0 97 28l-73 68l47 50l73 -68q28 44 28 101q0 76 -48 127.5t-124 51.5t-124.5 -51.5t-48.5 -127.5t48.5 -127.5t124.5 -51.5z" />
    <glyph glyph-name="t.ss03" horiz-adv-x="444" 
d="M18 422v78h408v-78h-160v-422h-88v422h-160z" />
    <glyph glyph-name="y.ss03" horiz-adv-x="483" 
d="M199 0v206l-190 294h98l135 -217l135 217h98l-190 -294v-206h-86z" />
    <glyph glyph-name="A.ss04" horiz-adv-x="710" 
d="M9 0l346 718l346 -718h-98l-248 524l-248 -524h-98zM355 -8q-31 0 -53.5 22t-22.5 54t22.5 54.5t53.5 22.5t53.5 -22.5t22.5 -54.5t-22.5 -54t-53.5 -22z" />
    <glyph glyph-name="E.ss04" horiz-adv-x="545" 
d="M86 0v710h410v-88h-319v-534h319v-88h-410zM338 287q-32 0 -54.5 22.5t-22.5 53.5t22.5 53.5t54.5 22.5t54 -22.5t22 -53.5t-22 -53.5t-54 -22.5z" />
    <glyph glyph-name="F.ss04" horiz-adv-x="504" 
d="M86 0v710h398v-88h-307v-622h-91zM331 287q-32 0 -54.5 22.5t-22.5 53.5t22.5 53.5t54.5 22.5q31 0 53.5 -22.5t22.5 -53.5t-22.5 -53.5t-53.5 -22.5z" />
    <glyph glyph-name="G.ss04" horiz-adv-x="730" 
d="M401 -8q-153 0 -258 104.5t-105 258.5t105 258.5t258 104.5q149 0 247 -90l-56 -68q-76 71 -191 71q-116 0 -193 -79.5t-77 -196.5t77 -196.5t193 -79.5q95 0 161 39v289h91v-335q-106 -80 -252 -80zM401 287q-32 0 -54.5 22.5t-22.5 53.5t22.5 53.5t54.5 22.5
q31 0 53.5 -22.5t22.5 -53.5t-22.5 -53.5t-53.5 -22.5z" />
    <glyph glyph-name="H.ss04" horiz-adv-x="746" 
d="M86 0v710h91v-710h-91zM373 287q-32 0 -54.5 22.5t-22.5 53.5t22.5 53.5t54.5 22.5q31 0 53.5 -22.5t22.5 -53.5t-22.5 -53.5t-53.5 -22.5zM569 0v710h91v-710h-91z" />
    <glyph glyph-name="K.ss04" horiz-adv-x="653" 
d="M519 0l-342 337v-337h-91v710h91v-356h103l360 -354h-121zM494 565q-31 0 -53.5 22.5t-22.5 54.5t22 54t54 22t54 -22t22 -54t-22.5 -54.5t-53.5 -22.5z" />
    <glyph glyph-name="O.ss04" horiz-adv-x="802" 
d="M399 279q-31 0 -53.5 22.5t-22.5 53.5t22.5 53.5t53.5 22.5t53.5 -22.5t22.5 -53.5t-22.5 -53.5t-53.5 -22.5zM401 79q116 0 193 79.5t77 196.5t-77 196.5t-193 79.5t-193 -79.5t-77 -196.5t77 -196.5t193 -79.5zM401 -8q-153 0 -258 104.5t-105 258.5t105 258.5
t258 104.5t258 -104.5t105 -258.5t-105 -258.5t-258 -104.5z" />
    <glyph glyph-name="Q.ss04" horiz-adv-x="805" 
d="M726 -8l-91 83q-101 -83 -234 -83q-153 0 -258 104.5t-105 258.5t105 258.5t258 104.5t258 -104.5t105 -258.5q0 -123 -70 -218l90 -83zM401 79q116 0 193 79.5t77 196.5t-77 196.5t-193 79.5t-193 -79.5t-77 -196.5t77 -196.5t193 -79.5zM401 279q-31 0 -53.5 22.5
t-22.5 53.5t22.5 53.5t53.5 22.5t53.5 -22.5t22.5 -53.5t-22.5 -53.5t-53.5 -22.5z" />
    <glyph glyph-name="Y.ss04" horiz-adv-x="631" 
d="M270 301l-260 409h106l200 -320l200 320h106l-260 -409h-92zM316 -8q-32 0 -54 22t-22 54t22.5 54.5t53.5 22.5t53.5 -22.5t22.5 -54.5t-22 -54t-54 -22z" />
    <glyph glyph-name="A.ss05" horiz-adv-x="710" 
d="M355 0v89h206l-206 435l-248 -524h-98l346 718l346 -718h-346z" />
    <glyph glyph-name="E.ss05" horiz-adv-x="519" 
d="M23 0l237 355l-237 355h457v-88h-296l179 -267l-179 -267h296v-88h-457z" />
    <glyph glyph-name="F.ss05" horiz-adv-x="532" 
d="M98 0v407h169l-202 303h457v-88h-296l203 -303h-240v-319h-91z" />
    <glyph glyph-name="R.ss05" horiz-adv-x="610" 
d="M86 0v710h511l-243 -363l239 -347h-104l-238 346l185 276h-259v-622h-91z" />
    <glyph glyph-name="S.ss05" horiz-adv-x="544" 
d="M154 0l213 319h-356l261 391h106l-203 -303h358l-273 -407h-106z" />
    <glyph glyph-name="T.ss05" horiz-adv-x="603" 
d="M290 0v350l-281 360h574v-88h-395l193 -247v-375h-91z" />
    <glyph glyph-name="X.ss05" horiz-adv-x="750" 
d="M21 0l291 356l-279 354h683l-279 -353l292 -357h-110l-244 298l-245 -298h-109zM211 622l164 -207l163 207h-327z" />
    <glyph glyph-name="h.ss05" horiz-adv-x="588" 
d="M77 0v710h86v-567l263 357h85v-500h-86v356l-262 -356h-86z" />
    <glyph glyph-name="m.ss05" horiz-adv-x="886" 
d="M486 0h-86v351l-237 -351h-86v500h86v-351l237 351h86v-351l237 351h86v-500h-86v351z" />
    <glyph glyph-name="n.ss05" horiz-adv-x="588" 
d="M77 0v500h86v-357l263 357h85v-500h-86v356l-262 -356h-86z" />
    <glyph glyph-name="r.ss05" horiz-adv-x="310" 
d="M161 351v-351h-85v397l181 111l42 -72z" />
    <glyph glyph-name="s.ss05" horiz-adv-x="502" 
d="M164 0l172 212h-336l237 288h103l-174 -211h336l-235 -289h-103z" />
    <glyph glyph-name="b.ss06" horiz-adv-x="654" 
d="M77 0v710h86v-293l83 83h331v-500h-500zM492 417h-329v-334h329v334z" />
    <glyph glyph-name="d.ss06" horiz-adv-x="654" 
d="M78 0v500h415v210h85v-710h-85v417h-329v-334h329l-83 -83h-332z" />
    <glyph glyph-name="f.ss06" horiz-adv-x="337" 
d="M11 422l78 78v210h224v-78h-139v-132h139v-78h-139v-422h-85v422h-78z" />
    <glyph glyph-name="h.ss06" horiz-adv-x="588" 
d="M163 417v-417h-86v710h86v-293l83 83h265v-500h-86v417h-262z" />
    <glyph glyph-name="j.ss06" 
d="M-1 -184l78 78v606h86v-684h-164zM77 609v101h86v-101h-86z" />
    <glyph glyph-name="l.ss06" 
d="M77 0v632l86 86v-718h-86z" />
    <glyph glyph-name="m.ss06" horiz-adv-x="885" 
d="M163 417v-417h-86v500h86v-83l83 83h240v-83l83 83h239v-500h-86v417h-236v-417h-86v417h-237z" />
    <glyph glyph-name="n.ss06" horiz-adv-x="588" 
d="M163 417v-417h-86v500h86v-83l83 83h265v-500h-86v417h-262z" />
    <glyph glyph-name="p.ss06" horiz-adv-x="654" 
d="M77 -184v684h86v-83l83 83h331v-500h-414v-184h-86zM492 417h-329v-334h329v334z" />
    <glyph glyph-name="q.ss06" horiz-adv-x="654" 
d="M491 -184v601h-328v-334h328l-83 -83h-331v500h500v-684h-86z" />
    <glyph glyph-name="r.ss06" horiz-adv-x="359" 
d="M163 417v-417h-86v500h86v-83l83 83h90v-83h-173z" />
    <glyph glyph-name="t.ss06" horiz-adv-x="381" 
d="M109 0v422h-140l226 228v-150h141v-78h-141v-344h141v-78h-227z" />
    <glyph glyph-name="u.ss06" horiz-adv-x="587" 
d="M77 0v500h85v-417h262l-83 -83h-264zM424 0v500h86v-500h-86z" />
    <glyph glyph-name="B.ss07" horiz-adv-x="567" 
d="M86 0v84h214q69 0 105.5 33t36.5 87t-36.5 88t-105.5 34h-214v78h190q55 0 87.5 31.5t32.5 79.5q0 47 -32.5 79t-87.5 32h-190v84h192q99 0 154 -53t55 -132q0 -98 -74 -148q121 -47 121 -177q0 -95 -66.5 -147.5t-178.5 -52.5h-203z" />
    <glyph glyph-name="D.ss07" horiz-adv-x="667" 
d="M86 0v85h166q127 0 206 76.5t79 193.5q0 118 -79 194t-206 76h-166v85h166q164 0 271 -101t107 -254t-107 -254t-271 -101h-166z" />
    <glyph glyph-name="E.ss07" horiz-adv-x="545" 
d="M86 0v88h410v-88h-410zM86 319v88h350v-88h-350zM86 622v88h410v-88h-410z" />
    <glyph glyph-name="F.ss07" horiz-adv-x="504" 
d="M86 319v88h331v-88h-331zM86 622v88h398v-88h-398z" />
    <glyph glyph-name="H.ss07" horiz-adv-x="700" 
d="M523 0v319h-437v88h437v303h91v-710h-91z" />
    <glyph glyph-name="K.ss07" horiz-adv-x="544" 
d="M436 0l-350 345l332 365h112l-328 -361l355 -349h-121z" />
    <glyph glyph-name="P.ss07" horiz-adv-x="507" 
d="M86 276v84h153q76 0 116 34.5t40 98.5q0 63 -40 98t-116 35h-153v84h156q112 0 179 -58.5t67 -158.5q0 -99 -67 -158t-179 -59h-156z" />
    <glyph glyph-name="R.ss07" horiz-adv-x="576" 
d="M86 310v81h160q69 0 104.5 30.5t35.5 86.5t-35.5 87t-104.5 31h-160v84h166q104 0 166 -54.5t62 -145.5q0 -76 -45 -127.5t-123 -66.5l245 -316h-110l-237 310h-124z" />
    <glyph glyph-name="T.ss07" horiz-adv-x="534" 
d="M20 622v88h494v-88h-494z" />
    <glyph glyph-name="Y.ss07" horiz-adv-x="632" 
d="M270 301l-260 409h106l200 -320l200 320h106l-260 -409h-92z" />
    <glyph glyph-name="A.ss08" horiz-adv-x="710" 
d="M9 0l346 718l346 -718h-98l-88 186h-320l-32 -68v-764q0 -11 -4.5 -15.5t-9.5 0t-5 15.5v724l-26 -55v-218q0 -11 -5 -15.5t-9.5 0t-4.5 15.5v195h-90zM355 524l-120 -254h240z" />
    <glyph glyph-name="C.ss08" horiz-adv-x="663" 
d="M401 -8q-3 0 -7 0.5t-6 0.5v-266q0 -11 -5 -15.5t-9.5 0t-4.5 15.5v266q-142 11 -236.5 114t-94.5 248q0 154 105 258.5t258 104.5q137 0 230 -84l-53 -69q-78 66 -177 66h-13v-552h13q99 0 177 66l53 -69q-79 -71 -193 -82v-177q0 -11 -5 -15.5t-9.5 0t-4.5 15.5v176
q-6 -1 -18 -1zM323 494v126q-86 -24 -139 -96.5t-53 -168.5q0 -109 67 -186t171 -88v548q-18 -2 -27 -4v-131q0 -11 -5 -15.5t-9.5 0t-4.5 15.5z" />
    <glyph glyph-name="D.ss08" horiz-adv-x="713" 
d="M86 -195v905h211q164 0 271.5 -101t107.5 -254t-107.5 -254t-271.5 -101h-153v-646q0 -11 -5 -15.5t-9.5 0t-4.5 15.5v646h-20v-195q0 -11 -4.5 -15.5t-9.5 0t-5 15.5zM177 85h120q128 0 207 76t79 194t-79 194t-207 76h-120v-540z" />
    <glyph glyph-name="E.ss08" horiz-adv-x="545" 
d="M437 -112v112h-19v-1012q0 -11 -5 -15.5t-9.5 0t-4.5 15.5v1012h-313v710h410v-88h-319v-215h259v-88h-259v-231h319v-400q0 -11 -5 -15.5t-9.5 0t-4.5 15.5v312h-21v-112q0 -11 -5 -15.5t-9.5 0t-4.5 15.5z" />
    <glyph glyph-name="G.ss08" horiz-adv-x="730" 
d="M401 -8q-153 0 -258 104.5t-105 258.5t105 258.5t258 104.5q149 0 247 -90l-56 -68q-47 43 -114 61v-214h175v-335q-87 -66 -206 -77v-512q0 -11 -4.5 -15.5t-9.5 0t-5 15.5v510q-4 0 -13 -0.5t-14 -0.5zM398 304v15h-34l39 88h56v218q-28 6 -58 6q-116 0 -193 -79.5
t-77 -196.5t77 -196.5t193 -79.5q18 0 27 1v239h-11v-15q0 -11 -4.5 -15.5t-9.5 0t-5 15.5zM459 280v39h-12v-237q66 8 115 36v201h-84v-39q0 -11 -5 -15.5t-9.5 0t-4.5 15.5z" />
    <glyph glyph-name="H.ss08" horiz-adv-x="746" 
d="M202 253v66h-25v-563q0 -11 -4.5 -15.5t-9.5 0t-5 15.5v244h-23v-80q0 -11 -4.5 -15.5t-9.5 0t-5 15.5v80h-30v710h91v-303h392v303h91v-710h-72v-869q0 -11 -5 -15.5t-9.5 0t-4.5 15.5v1188h-348v-66q0 -11 -4.5 -15.5t-9.5 0t-5 15.5z" />
    <glyph glyph-name="M.ss08" horiz-adv-x="866" 
d="M422 -46v266l-245 274v-529q0 -11 -4.5 -15.5t-9.5 0t-5 15.5v35h-72v718l346 -381l346 381v-718h-91v494l-216 -242v-879q0 -11 -4.5 -15.5t-9.5 0t-5 15.5v858l-11 -12v-265q0 -11 -4.5 -15.5t-9.5 0t-5 15.5z" />
    <glyph glyph-name="N.ss08" horiz-adv-x="771" 
d="M664 -119v130l-30 30v-563q0 -11 -5 -15.5t-9.5 0t-4.5 15.5v583l-438 444v-505h-91v718l506 -513v505h91v-829q0 -11 -4.5 -15.5t-9.5 0t-5 15.5z" />
    <glyph glyph-name="O.ss08" horiz-adv-x="802" 
d="M401 -8q-77 0 -148 30v-354q0 -11 -4.5 -15.5t-9.5 0t-5 15.5v363q-89 45 -142.5 131t-53.5 193q0 154 105 258.5t258 104.5t258 -104.5t105 -258.5q0 -96 -44 -176.5t-119 -128.5v-82q0 -11 -4.5 -15.5t-9.5 0t-5 15.5v70q-24 -12 -29 -14v-1016q0 -11 -4.5 -15.5
t-9.5 0t-5 15.5v1008q-62 -24 -133 -24zM401 79q116 0 193 79.5t77 196.5t-77 196.5t-193 79.5t-193 -79.5t-77 -196.5t77 -196.5t193 -79.5z" />
    <glyph glyph-name="Q.ss08" horiz-adv-x="807" 
d="M676 -95v134l-40 37q-100 -84 -235 -84q-152 0 -257.5 105t-105.5 258t105.5 258t257.5 105t257.5 -105t105.5 -258q0 -121 -70 -216l92 -85l-50 -54v-393q0 -11 -5 -15.5t-9.5 0t-4.5 15.5v395l-22 20v-117q0 -11 -4.5 -15.5t-9.5 0t-5 15.5zM401 80q97 0 169 58l-92 85
l58 62l91 -84q44 68 44 154q0 117 -77 196t-193 79q-115 0 -192.5 -79t-77.5 -196t77.5 -196t192.5 -79z" />
    <glyph glyph-name="R.ss08" horiz-adv-x="621" 
d="M129 -36v36h-24v-213q0 -11 -4.5 -15.5t-9.5 0t-5 15.5v923h211q104 0 166 -54.5t62 -145.5q0 -76 -45 -127.5t-123 -66.5l245 -316h-110l-237 310h-78v-310h-29v-36q0 -11 -5 -15.5t-9.5 0t-4.5 15.5zM177 391h114q69 0 104.5 30.5t35.5 86.5t-35.5 87t-104.5 31h-114
v-235z" />
    <glyph glyph-name="S.ss08" horiz-adv-x="519" 
d="M253 -8q-70 0 -131 29v-595q0 -11 -5 -15.5t-9.5 0t-4.5 15.5v604q-51 29 -81 72l69 60q28 -36 70 -59.5t91 -23.5q62 0 98 27t36 73q0 47 -28 76.5t-88 55.5l-65 28q-155 66 -155 201q0 78 62.5 128t144.5 50q124 0 199 -91l-64 -64q-57 68 -138 68q-47 0 -80 -25
t-33 -68q0 -39 24.5 -67t80.5 -53l65 -28q167 -73 167 -201q0 -92 -65 -146v-79q0 -11 -4.5 -15.5t-9.5 0t-5 15.5v65q-8 -5 -24 -13v-229q0 -11 -5 -15.5t-9.5 0t-4.5 15.5v221q-46 -16 -98 -16z" />
    <glyph glyph-name="U.ss08" horiz-adv-x="720" 
d="M360 -8q-25 0 -49 3v-271q0 -11 -4.5 -15.5t-9.5 0t-5 15.5v275q-8 1 -24 5v-74q0 -11 -5 -15.5t-9.5 0t-4.5 15.5v80q-80 28 -126 95.5t-46 164.5v440h91v-444q0 -90 52 -138.5t140 -48.5t140 48.5t52 138.5v444h91v-440q0 -113 -62 -186v-190q0 -11 -4.5 -15.5t-9.5 0
t-5 15.5v170q-77 -72 -202 -72z" />
    <glyph glyph-name="a.ss08" horiz-adv-x="620" 
d="M457 0v50q-64 -58 -159 -58q-22 0 -49 5v-28q0 -11 -4.5 -15.5t-9.5 0t-5 15.5v31q-84 22 -135.5 90.5t-51.5 159.5q0 109 72.5 183.5t182.5 74.5q95 0 159 -58v50h86v-914q0 -11 -4.5 -15.5t-9.5 0t-5 15.5v414h-21v-74q0 -11 -4.5 -15.5t-9.5 0t-5 15.5v74h-27zM300 73
q52 0 93 22t64 59v192q-23 37 -64 59t-93 22q-73 0 -120.5 -51t-47.5 -126t47.5 -126t120.5 -51z" />
    <glyph glyph-name="b.ss08" horiz-adv-x="620" 
d="M274 -72v68q-64 10 -111 54v-462q0 -11 -4.5 -15.5t-9.5 0t-5 15.5v412h-15v-112q0 -11 -4.5 -15.5t-9.5 0t-5 15.5v112h-33v710h86v-260q63 58 159 58q110 0 182.5 -74.5t72.5 -183.5t-72.5 -183.5t-182.5 -74.5q-11 0 -29 2v-66q0 -11 -4.5 -15.5t-9.5 0t-5 15.5z
M320 427q-52 0 -93.5 -22.5t-63.5 -58.5v-192q22 -36 63.5 -58.5t93.5 -22.5q73 0 120.5 51t47.5 126t-47.5 126t-120.5 51z" />
    <glyph glyph-name="c.ss08" horiz-adv-x="528" 
d="M300 -8h-5v-304q0 -11 -4.5 -15.5t-9.5 0t-5 15.5v305q-101 8 -167 81t-66 176q0 109 73.5 183.5t183.5 74.5q114 0 191 -79l-55 -60q-48 48 -110 56v-351q63 10 110 57l55 -60q-57 -59 -136 -73v-107q0 -11 -4.5 -15.5t-9.5 0t-5 15.5v103q-7 0 -10 -1v-15
q0 -11 -5 -15.5t-9.5 0t-4.5 15.5v14h-7zM132 250q0 -75 47.5 -126t120.5 -51h7v354h-7q-73 0 -120.5 -51t-47.5 -126z" />
    <glyph glyph-name="e.ss08" horiz-adv-x="577" 
d="M255 -791v787q-51 7 -93 34v-137q0 -11 -5 -15.5t-9.5 0t-4.5 15.5v150q-14 10 -25 22v-109q0 -11 -5 -15.5t-9.5 0t-4.5 15.5v130q-56 68 -56 164q0 109 73 183.5t178 74.5q108 0 175.5 -74t68.5 -205h-264v-154q16 -2 26 -2q86 0 146 60l55 -60q-77 -81 -201 -81
q-10 0 -26 2v-785q0 -11 -5 -15.5t-9.5 0t-4.5 15.5zM289 429q-27 0 -51 -9v-116h203q-9 60 -51 93t-101 32zM219 185v44h-87q4 -55 38 -95.5t85 -54.5v150h-17v-44q0 -11 -5 -15.5t-9.5 0t-4.5 15.5zM219 412q-65 -32 -83 -108h83v108z" />
    <glyph glyph-name="f.ss08" horiz-adv-x="357" 
d="M314 575v57h-21v-132h40v-78h-40v-937q0 -11 -4.5 -15.5t-9.5 0t-5 15.5v937h-80v-422h-86v422h-86v78h84q-37 35 -37 88t40.5 87.5t105.5 34.5h118v-135q0 -11 -4.5 -15.5t-9.5 0t-5 15.5zM153 569q0 -31 21 -49t48 -20h52v132h-45q-34 0 -55 -16t-21 -47z" />
    <glyph glyph-name="k.ss08" horiz-adv-x="516" 
d="M144 -124v124h-48v-324q0 -11 -5 -15.5t-9.5 0t-4.5 15.5v1034h86v-436l221 226h108l-233 -236l256 -264h-111l-241 249v-373q0 -11 -4.5 -15.5t-9.5 0t-5 15.5z" />
    <glyph glyph-name="g.ss08" horiz-adv-x="610" 
d="M291 -194q-122 0 -213 59l45 73q70 -52 171 -52q12 0 34 2v129q-24 -2 -38 -2q-110 0 -178.5 70t-68.5 176t68.5 176.5t178.5 70.5q92 0 156 -59v51h86v-398q19 -50 19 -98q0 -86 -57.5 -134t-146.5 -60v-80q0 -11 -4.5 -15.5t-9.5 0t-5 15.5v78q-24 -2 -37 -2zM292 95
q18 0 36 3v326q-18 3 -36 3q-11 0 -16 -1v-18q0 -11 -5 -15.5t-9.5 0t-4.5 15.5v16q-57 -11 -91 -56t-34 -107q0 -71 45 -118.5t115 -47.5zM446 346q-32 55 -99 73v-317q66 20 99 75v169zM449 75q-42 -41 -102 -54v-130q115 20 115 121q0 37 -13 63z" />
    <glyph glyph-name="i.ss08" 
d="M144 -241v241h-31v-441q0 -11 -4.5 -15.5t-9.5 0t-5 15.5v441h-17v500h67v109h-11v-29q0 -11 -4.5 -15.5t-9.5 0t-5 15.5v29h-15v-55q0 -11 -4.5 -15.5t-9.5 0t-5 15.5v55h-3q-19 17 -19 46q0 26 18 44.5t44 18.5t44 -18.5t18 -44.5q0 -29 -19 -46v-850q0 -11 -4.5 -15.5
t-9.5 0t-5 15.5z" />
    <glyph glyph-name="n.ss08" horiz-adv-x="578" 
d="M289 -182v609q-99 -6 -126 -104v-737q0 -11 -4.5 -15.5t-9.5 0t-5 15.5v414h-21v-74q0 -11 -4.5 -15.5t-9.5 0t-5 15.5v74h-27v500h86v-57q51 65 155 65q86 0 139.5 -55.5t53.5 -147.5v-305h-86v300q0 53 -32 88t-85 38v-608q0 -11 -5 -15.5t-9.5 0t-4.5 15.5z" />
    <glyph glyph-name="o.ss08" horiz-adv-x="605" 
d="M303 -8q-112 0 -186 74.5t-74 183.5t74 183.5t186 74.5t185.5 -74.5t73.5 -183.5q0 -86 -48 -152.5t-126 -92.5v-638q0 -11 -5 -15.5t-9.5 0t-4.5 15.5v633l-27 -5v-411q0 -11 -5 -15.5t-9.5 0t-4.5 15.5v409q-3 0 -10 -0.5t-10 -0.5zM303 73q13 0 20 1v352q-3 0 -10 0.5
t-10 0.5q-75 0 -123 -51t-48 -126t48 -126t123 -51zM473 250q0 64 -36 112t-95 61v-346q60 13 95.5 60.5t35.5 112.5z" />
    <glyph glyph-name="s.ss08" horiz-adv-x="418" 
d="M157 -214v211q-6 2 -18 4v-405q0 -11 -4.5 -15.5t-9.5 0t-5 15.5v412q-57 24 -93 84l68 46q26 -45 62 -60v154q-105 46 -105 143q0 57 44 95t112 38q104 0 150 -90l-67 -39q-25 52 -83 52q-30 0 -50.5 -15t-20.5 -40q0 -50 73 -76l41 -15q130 -47 130 -150
q0 -60 -46 -100.5t-123 -42.5v-606q0 -11 -5 -15.5t-9.5 0t-4.5 15.5v606l-17 2v-208q0 -11 -5 -15.5t-9.5 0t-4.5 15.5zM210 212l-34 13v-153q14 -3 30 -3q38 0 63.5 17.5t25.5 45.5t-20 46t-65 34z" />
    <glyph glyph-name="t.ss08" horiz-adv-x="371" 
d="M272 345v77h-87v-264q0 -40 17 -60t57 -20h67v-78h-76q-30 0 -54 6v-308q0 -11 -5 -15.5t-9.5 0t-4.5 15.5v314l-18 9v-197q0 -11 -4.5 -15.5t-9.5 0t-5 15.5v211q-41 38 -41 110v277h-80l-19 78h99v107l86 43v-150h151l-19 -78h-26v-77q0 -11 -4.5 -15.5t-9.5 0t-5 15.5
z" />
    <glyph glyph-name="w.ss08" horiz-adv-x="719" 
d="M277 -106v182l-28 -76v-726q0 -11 -4.5 -15.5t-9.5 0t-5 15.5v726h-51l-158 500h89l112 -364l138 372l138 -372l112 364h89l-158 -500h-69l-19 51v-367q0 -11 -4.5 -15.5t-9.5 0t-5 15.5v419l-74 200l-64 -175v-234q0 -11 -5 -15.5t-9.5 0t-4.5 15.5z" />
    <glyph glyph-name="z.ss08" horiz-adv-x="504" 
d="M124 -203v203h-20v-473q0 -11 -5 -15.5t-9.5 0t-4.5 15.5v473h-58l294 422h-262v78h411l-293 -422h283v-78h-49v-41q0 -11 -4.5 -15.5t-9.5 0t-5 15.5v41h-249v-203q0 -11 -4.5 -15.5t-9.5 0t-5 15.5z" />
    <glyph glyph-name="A.ss09" horiz-adv-x="710" 
d="M9 0l346 718l346 -718h-21l-112 233h-426l-112 -233h-21zM355 675l-173 -358h345z" />
    <glyph glyph-name="D.ss09" horiz-adv-x="713" 
d="M105 85h192q128 0 207 76t79 194t-79 194t-207 76h-192v-540zM86 0v710h211q164 0 271.5 -101t107.5 -254t-107.5 -254t-271.5 -101h-211z" />
    <glyph glyph-name="F.ss09" horiz-adv-x="504" 
d="M86 0v710h398v-88h-379v-215h312v-88h-312v-319h-19z" />
    <glyph glyph-name="H.ss09" horiz-adv-x="716" 
d="M611 0v319h-506v-319h-19v710h19v-303h506v303h19v-710h-19z" />
    <glyph glyph-name="K.ss09" horiz-adv-x="633" 
d="M492 0l-385 345l456 365h30l-405 -324l432 -386h-128zM86 0v710h19v-710h-19z" />
    <glyph glyph-name="M.ss09" horiz-adv-x="864" 
d="M86 0v718l346 -381l346 381v-718h-91v494l-255 -285v102l-327 360v-671h-19z" />
    <glyph glyph-name="N.ss09" horiz-adv-x="769" 
d="M683 -8l-578 675v-667h-19v718l506 -591v583h91v-718z" />
    <glyph glyph-name="Q.ss09" horiz-adv-x="805" 
d="M399 -8q-153 0 -258 104.5t-105 258.5t105 258.5t258 104.5t258 -104.5t105 -258.5q0 -151 -104 -257l115 -93l-12 -15l-116 95q-102 -93 -246 -93zM399 79q102 0 176 63l-118 97l12 14l120 -98q80 78 80 200q0 117 -77 196.5t-193 79.5t-193 -79.5t-77 -196.5t77 -196.5
t193 -79.5z" />
    <glyph glyph-name="R.ss09" horiz-adv-x="621" 
d="M483 0l-378 391v-391h-19v710h211q104 0 166 -54.5t62 -145.5q0 -89 -60.5 -144t-162.5 -56l300 -310h-119zM105 626v-235h186q69 0 104.5 30.5t35.5 86.5t-35.5 87t-104.5 31h-186z" />
    <glyph glyph-name="T.ss09" horiz-adv-x="573" 
d="M277 0v691h-277v19h573v-19h-277v-691h-19z" />
    <glyph glyph-name="V.ss09" horiz-adv-x="638" 
d="M319 -8l-312 718h21l291 -670l291 670h21z" />
    <glyph glyph-name="W.ss09" horiz-adv-x="902" 
d="M259 -8l-244 718h21l194 -570l221 578l221 -578l194 570h21l-244 -718l-192 501z" />
    <glyph glyph-name="X.ss09" horiz-adv-x="669" 
d="M21 0l278 341l-265 369h105l215 -301l245 301h25l-258 -317l282 -393h-103l-234 325l-265 -325h-25z" />
    <glyph glyph-name="Y.ss09" horiz-adv-x="632" 
d="M310 0v271l-300 439h106l245 -358l239 358h22l-293 -439v-271h-19z" />
    <glyph glyph-name="Z.ss09" horiz-adv-x="607" 
d="M23 0l461 622h-418v88h508l-461 -622h463v-88h-553z" />
    <glyph glyph-name="H.ss10" horiz-adv-x="725" 
d="M24 0l96 159l-96 196l96 196l-96 159h98l96 -159l-71 -144h385l71 144l-96 159h98l96 -159l-96 -196l95 -196l-96 -159h-97l96 159l-79 160h-385l78 -160l-96 -159h-97z" />
    <glyph glyph-name="I.ss10" horiz-adv-x="242" 
d="M24 0l96 159l-96 196l96 196l-96 159h98l96 -159l-96 -196l95 -196l-96 -159h-97z" />
    <glyph glyph-name="i.ss10" horiz-adv-x="227" 
d="M15 0h96l101 159l-100 196l74 145h-96l-74 -145l100 -196zM95 609q-19 17 -19 46q0 26 18 44.5t44 18.5t44 -18.5t18 -44.5q0 -29 -19 -46h-86z" />
    <glyph glyph-name="l.ss10" horiz-adv-x="227" 
d="M111 0h-96l101 159l-100 196l100 196l-101 159h96l101 -159l-100 -196l100 -196z" />
    <glyph glyph-name="A.ss11" horiz-adv-x="710" 
d="M0 186v84h139l216 448l216 -448h139v-84h-99l90 -186h-98l-88 186h-320l-88 -186h-98l89 186h-98zM355 524l-120 -254h240z" />
    <glyph glyph-name="C.ss11" horiz-adv-x="708" 
d="M401 -8q-153 0 -258 104.5t-105 258.5t105 258.5t258 104.5q137 0 230 -84v-229h-91v187q-65 39 -139 39q-116 0 -193 -79.5t-77 -196.5t77 -196.5t193 -79.5q99 0 177 66l53 -69q-93 -84 -230 -84z" />
    <glyph glyph-name="F.ss11" horiz-adv-x="572" 
d="M86 0v710h443v-229h-91v141h-261v-215h240v-88h-240v-319h-91z" />
    <glyph glyph-name="G.ss11" horiz-adv-x="730" 
d="M401 -8q-153 0 -258 104.5t-105 258.5t105 258.5t258 104.5q149 0 247 -90l-56 -68q-76 71 -191 71q-116 0 -193 -79.5t-77 -196.5t77 -196.5t193 -79.5q95 0 161 39v201h-107v-70h-91v229h91v-71h198v-335q-106 -80 -252 -80z" />
    <glyph glyph-name="I.ss11" horiz-adv-x="491" 
d="M44 621v89h403v-89h-156v-532h156v-89h-403v89h156v532h-156z" />
    <glyph glyph-name="J.ss11" horiz-adv-x="495" 
d="M116 621v89h308v-518q0 -95 -59.5 -147.5t-147.5 -52.5q-89 0 -148 55t-59 151h91q0 -58 32.5 -88t82.5 -31q53 0 85 30.5t32 88.5v423h-217z" />
    <glyph glyph-name="K.ss11" horiz-adv-x="807" 
d="M240 0v89q-97 14 -157.5 85.5t-60.5 169.5t61 169.5t157 85.5v111h91v-108h344v108h91v-189h-435v-348q53 15 85.5 59t35.5 104l342 -336h-121l-186 183q-57 -75 -156 -93v-90h-91zM111 344q0 -64 35 -111.5t94 -61.5v345q-59 -13 -94 -60.5t-35 -111.5z" />
    <glyph glyph-name="L.ss11" horiz-adv-x="576" 
d="M86 0v710h91v-621h265v140h91v-229h-447z" />
    <glyph glyph-name="Q.ss11" horiz-adv-x="713" 
d="M307 -8q-137 0 -230 84v477l447 -365q53 74 53 167q0 117 -77 196.5t-193 79.5q-99 0 -177 -66l-53 69q93 84 230 84q153 0 258 -104.5t105 -258.5q0 -128 -75 -225l90 -73l-53 -67l-98 80q-99 -78 -227 -78zM168 370v-253q64 -38 139 -38q89 0 157 48z" />
    <glyph glyph-name="T.ss11" horiz-adv-x="670" 
d="M289 0v622h-155v-141h-91v229h584v-229h-91v141h-156v-622h-91z" />
    <glyph glyph-name="W.ss11" horiz-adv-x="903" 
d="M259 -8l-244 718h94l175 -516l121 211l-176 305h93l129 -225l130 225h93l-177 -305l122 -211l175 516h94l-244 -718l-193 333z" />
    <glyph glyph-name="X.ss11" horiz-adv-x="669" 
d="M21 0l218 308q-87 25 -137 94t-50 171v137h91v-141q0 -90 52 -138.5t140 -48.5t140 48.5t52 138.5v141h91v-137q0 -102 -50 -171t-137 -94l217 -308h-103l-210 295l-208 -295h-106z" />
    <glyph glyph-name="Y.ss11" horiz-adv-x="644" 
d="M276 0v216q-108 14 -172.5 87t-64.5 189v218h91v-222q0 -88 49.5 -136.5t133.5 -50.5h17q85 2 134.5 50.5t49.5 136.5v222h91v-218q0 -116 -64.5 -189t-172.5 -87v-216h-92z" />
    <glyph glyph-name="Z.ss11" horiz-adv-x="627" 
d="M116 319v88h169l137 215h-261v-141h-91v229h508l-193 -303h104v-88h-160l-146 -231h306v141h91v-229h-553l202 319h-113z" />
    <glyph glyph-name="c.ss11" horiz-adv-x="538" 
d="M300 -8q-110 0 -183.5 74.5t-73.5 183.5t73.5 183.5t183.5 74.5q114 0 191 -79v-133h-85v98q-50 33 -106 33q-73 0 -120.5 -51t-47.5 -126t47.5 -126t120.5 -51q78 0 136 58l55 -60q-77 -79 -191 -79z" />
    <glyph glyph-name="f.ss11" horiz-adv-x="465" 
d="M431 0h-409v78h139v344h-99v78h99v65q0 71 39 108t112 37h129v-78h-120q-40 0 -57 -20t-17 -60v-52h134v-78h-134v-344h184v-78z" />
    <glyph glyph-name="g.ss11" horiz-adv-x="610" 
d="M412 -184h-369v78h357q26 0 44 18t18 44q0 25 -18.5 43t-43.5 18h-357v78h59q-59 67 -59 166q0 107 69 177t180 70q34 0 68 -8h201v-78h-75q55 -68 55 -161q0 -110 -72 -179q37 -17 59.5 -51t22.5 -75q0 -58 -40.5 -99t-98.5 -41zM292 95q71 0 115.5 47t44.5 119
t-44.5 119t-115.5 47t-115.5 -47t-44.5 -119t44.5 -119t115.5 -47z" />
    <glyph glyph-name="i.ss11" horiz-adv-x="398" 
d="M62 422v78h185v-422h139v-78h-364v78h139v344h-99zM161 609q-19 17 -19 46q0 26 18 44.5t44 18.5t44 -18.5t18 -44.5q0 -29 -19 -46h-86z" />
    <glyph glyph-name="j.ss11" horiz-adv-x="304" 
d="M37 422v78h190v-539q0 -71 -39 -108t-112 -37h-39v78h30q40 0 57 20t17 60v448h-104zM141 609q-19 17 -19 46q0 26 18 44.5t44 18.5t44 -18.5t18 -44.5q0 -29 -19 -46h-86z" />
    <glyph glyph-name="k.ss11" horiz-adv-x="608" 
d="M169 0v72q-64 14 -105.5 65.5t-41.5 117.5t41.5 117.5t105.5 65.5v272h86v-273q58 -15 99 -62l122 125h108l-206 -209h-72q-14 42 -51 60v-192q37 18 51 61h88l213 -220h-111l-137 142q-40 -52 -104 -69v-73h-86zM108 255q0 -33 16.5 -59.5t44.5 -38.5v196
q-28 -12 -44.5 -39t-16.5 -59z" />
    <glyph glyph-name="l.ss11" horiz-adv-x="398" 
d="M62 632v78h185v-632h139v-78h-364v78h139v554h-99z" />
    <glyph glyph-name="r.ss11" horiz-adv-x="477" 
d="M62 422v78h185v-59q51 64 138 64q18 0 35 -3v-89q-21 6 -48 6q-42 0 -75.5 -20.5t-49.5 -58.5v-262h184v-78h-409v78h139v344h-99z" />
    <glyph glyph-name="w.ss11" horiz-adv-x="720" 
d="M472 0l-112 204l-112 -204h-69l-158 500h89l120 -391l91 166l-124 225h79l84 -154l84 154h79l-124 -225l91 -166l120 391h89l-158 -500h-69z" />
    <glyph glyph-name="x.ss11" horiz-adv-x="540" 
d="M23 0l159 207q-123 43 -123 190v103h85v-98q0 -56 34.5 -91.5t91.5 -35.5t91.5 35.5t34.5 91.5v98h85v-103q0 -146 -122 -189l158 -208h-100l-147 194l-147 -194h-100z" />
    <glyph glyph-name="y.ss11" horiz-adv-x="510" 
d="M16 -184v78h77q51 0 66 35l51 113l-204 458h93l156 -364l157 364h93l-272 -606q-35 -78 -139 -78h-78z" />
    <glyph glyph-name="z.ss11" horiz-adv-x="514" 
d="M32 0l294 422h-177v-50h-85v128h411l-293 -422h198v50h85v-128h-433z" />
    <glyph glyph-name="A_C" horiz-adv-x="1100" 
d="M838 -8q-106 0 -191.5 52.5t-131.5 141.5h-320l-88 -186h-98l346 718l131 -272q29 120 126.5 196t225.5 76q137 0 230 -84l-53 -69q-78 66 -177 66q-116 0 -193 -79.5t-77 -196.5t77 -196.5t193 -79.5q99 0 177 66l53 -69q-93 -84 -230 -84zM235 270h240l-120 254z" />
    <glyph glyph-name="A_G" horiz-adv-x="1167" 
d="M838 -8q-106 0 -191.5 52.5t-131.5 141.5h-320l-88 -186h-98l346 718l131 -272q29 120 126.5 196t225.5 76q149 0 247 -90l-56 -68q-76 71 -191 71q-116 0 -193 -79.5t-77 -196.5t77 -196.5t193 -79.5q95 0 161 39v201h-198l39 88h250v-335q-106 -80 -252 -80zM235 270
h240l-120 254z" />
    <glyph glyph-name="A_H" horiz-adv-x="1095" 
d="M9 0l346 718l150 -311h413v303h91v-710h-91v319h-371l154 -319h-98l-88 186h-320l-88 -186h-98zM355 524l-120 -254h240z" />
    <glyph glyph-name="A_O" horiz-adv-x="1239" 
d="M838 -8q-106 0 -191.5 52.5t-131.5 141.5h-320l-88 -186h-98l346 718l131 -272q29 120 126.5 196t225.5 76q153 0 258 -104.5t105 -258.5t-105 -258.5t-258 -104.5zM838 79q116 0 193 79.5t77 196.5t-77 196.5t-193 79.5t-193 -79.5t-77 -196.5t77 -196.5t193 -79.5z
M235 270h240l-120 254z" />
    <glyph glyph-name="A_Q" horiz-adv-x="1243" 
d="M1164 -8l-92 84q-100 -84 -235 -84q-105 0 -191 52.5t-132 141.5h-319l-88 -186h-98l346 718l130 -271q30 119 127.5 195t224.5 76q152 0 257.5 -105t105.5 -258q0 -121 -70 -216l92 -85zM837 80q97 0 169 58l-92 85l58 62l91 -84q44 68 44 154q0 117 -77 196t-193 79
q-115 0 -192.5 -79t-77.5 -196t77.5 -196t192.5 -79zM235 270h240l-120 254z" />
    <glyph glyph-name="A_V" horiz-adv-x="941" 
d="M9 0l346 718l251 -520l228 512h100l-327 -718l-92 194h-320l-88 -186h-98zM235 270h240l-120 254z" />
    <glyph glyph-name="A_W" horiz-adv-x="1251" 
d="M992 -8l-193 501l-192 -501l-92 194h-320l-88 -186h-98l346 718l247 -513l197 513l186 -482l157 474h94zM235 270h240l-120 254z" />
    <glyph glyph-name="D_A" horiz-adv-x="1149" 
d="M86 0v710h211q136 0 236 -72.5t131 -189.5l130 270l346 -718h-98l-88 186h-320q-47 -86 -136 -136t-201 -50h-211zM177 85h120q128 0 207 76t79 194t-79 194t-207 76h-120v-540zM674 270h240l-120 254z" />
    <glyph glyph-name="D_C" horiz-adv-x="1208" 
d="M946 -8q-102 0 -186.5 49.5t-131.5 134.5q-48 -82 -135 -129t-196 -47h-211v710h211q109 0 196 -47t135 -129q47 85 131.5 134.5t186.5 49.5q137 0 230 -84l-53 -69q-78 66 -177 66q-116 0 -193 -79.5t-77 -196.5t77 -196.5t193 -79.5q99 0 177 66l53 -69
q-93 -84 -230 -84zM177 85h120q128 0 207 76t79 194t-79 194t-207 76h-120v-540z" />
    <glyph glyph-name="D_G" horiz-adv-x="1275" 
d="M946 -8q-102 0 -186.5 49.5t-131.5 134.5q-48 -82 -135 -129t-196 -47h-211v710h211q109 0 196 -47t135 -129q47 85 131.5 134.5t186.5 49.5q149 0 247 -90l-56 -68q-76 71 -191 71q-116 0 -193 -79.5t-77 -196.5t77 -196.5t193 -79.5q95 0 161 39v201h-198l39 88h250
v-335q-106 -80 -252 -80zM177 85h120q128 0 207 76t79 194t-79 194t-207 76h-120v-540z" />
    <glyph glyph-name="D_H" horiz-adv-x="1243" 
d="M86 0v710h211q149 0 253 -85t122 -218h394v303h91v-710h-91v319h-392q-13 -139 -118 -229t-259 -90h-211zM177 85h120q128 0 207 76t79 194t-79 194t-207 76h-120v-540z" />
    <glyph glyph-name="D_K" horiz-adv-x="1152" 
d="M86 0v710h211q164 0 271.5 -101t107.5 -254v-1l324 356h112l-328 -361l355 -349h-121l-343 337q-7 -146 -113.5 -241.5t-264.5 -95.5h-211zM177 85h120q128 0 207 76t79 194t-79 194t-207 76h-120v-540z" />
    <glyph glyph-name="D_M" horiz-adv-x="1249" 
d="M86 0v710h211q181 0 294 -124l226 -249l346 381v-718h-91v494l-255 -285l-141 158v-12q0 -153 -107.5 -254t-271.5 -101h-211zM177 85h120q128 0 207 76t79 194t-79 194t-207 76h-120v-540z" />
    <glyph glyph-name="D_N" horiz-adv-x="1145" 
d="M1059 -8l-384 389q1 -8 1 -26q0 -153 -107.5 -254t-271.5 -101h-211v710h211q171 0 281 -110l390 -395v505h91v-718zM177 85h120q128 0 207 76t79 194t-79 194t-207 76h-120v-540z" />
    <glyph glyph-name="D_O" horiz-adv-x="1347" 
d="M946 -8q-102 0 -186.5 49.5t-131.5 134.5q-48 -82 -135 -129t-196 -47h-211v710h211q109 0 196 -47t135 -129q47 85 131.5 134.5t186.5 49.5q153 0 258 -104.5t105 -258.5t-105 -258.5t-258 -104.5zM177 85h120q128 0 207 76t79 194t-79 194t-207 76h-120v-540zM946 79
q116 0 193 79.5t77 196.5t-77 196.5t-193 79.5t-193 -79.5t-77 -196.5t77 -196.5t193 -79.5z" />
    <glyph glyph-name="D_Q" horiz-adv-x="1352" 
d="M946 -8q-102 0 -186.5 50t-130.5 135q-48 -82 -135.5 -129.5t-196.5 -47.5h-211v710h211q109 0 196.5 -47.5t135.5 -129.5q46 85 130.5 135t186.5 50q152 0 257.5 -105t105.5 -258q0 -121 -70 -216l92 -85l-58 -62l-92 85q-101 -85 -235 -85zM946 80q98 0 169 58l-92 85
l58 62l91 -84q44 68 44 154q0 117 -77 196t-193 79q-115 0 -192.5 -79t-77.5 -196t77.5 -196t192.5 -79zM177 85h120q128 0 207 76t79 194t-79 194t-207 76h-120v-540z" />
    <glyph glyph-name="D_V" horiz-adv-x="1114" 
d="M780 -8l-119 260q-33 -113 -132 -182.5t-232 -69.5h-211v710h211q121 0 213.5 -57t135.5 -153l134 -299l227 509h100zM177 85h120q128 0 207 76t79 194t-79 194t-207 76h-120v-540z" />
    <glyph glyph-name="D_W" horiz-adv-x="1372" 
d="M728 -8l-78 228q-40 -100 -134.5 -160t-218.5 -60h-211v710h211q135 0 231 -68.5t134 -182.5l73 -223l185 482l186 -482l157 474h94l-244 -718l-193 501zM177 85h120q128 0 207 76t79 194t-79 194t-207 76h-120v-540z" />
    <glyph glyph-name="E_A" horiz-adv-x="1099" 
d="M86 0v710h410v-88h-319v-215h259v-88h-259v-231h263l304 630l346 -718h-98l-88 186h-320l-88 -186h-410zM744 524l-120 -254h240z" />
    <glyph glyph-name="E_E" horiz-adv-x="955" 
d="M86 0v710h410h410v-88h-319v-215h259v-88h-259v-231h319v-88h-820zM496 88v534h-319v-215h259v-88h-259v-231h319z" />
    <glyph glyph-name="G_H" horiz-adv-x="1222" 
d="M401 -8q-153 0 -258 104.5t-105 258.5t105 258.5t258 104.5q149 0 247 -90l-56 -68q-76 71 -191 71q-116 0 -193 -79.5t-77 -196.5t77 -196.5t193 -79.5q95 0 161 39v201h-198l39 88h642v303h91v-710h-91v319h-392v-247q-106 -80 -252 -80z" />
    <glyph glyph-name="G_K" horiz-adv-x="1129" 
d="M401 -8q-153 0 -258 104.5t-105 258.5t105 258.5t258 104.5q149 0 247 -90l-56 -68q-76 71 -191 71q-116 0 -193 -79.5t-77 -196.5t77 -196.5t193 -79.5q95 0 161 39v201h-198l39 88h250v-53l324 356h112l-328 -361l355 -349h-121l-342 337v-265q-106 -80 -252 -80z" />
    <glyph glyph-name="H_A" horiz-adv-x="1095" 
d="M394 0l153 319h-370v-319h-91v710h91v-303h413l150 311l346 -718h-98l-88 186h-320l-88 -186h-98zM740 524l-120 -254h240z" />
    <glyph glyph-name="H_B" horiz-adv-x="1095" 
d="M569 0v319h-392v-319h-91v710h91v-303h392v303h237q99 0 154 -53t55 -132q0 -98 -74 -148q121 -47 121 -177q0 -95 -66.5 -147.5t-178.5 -52.5h-248zM660 84h168q69 0 105.5 33t36.5 87t-36.5 88t-105.5 34h-168v-242zM660 404h144q55 0 87.5 31.5t32.5 79.5
q0 47 -32.5 79t-87.5 32h-144v-222z" />
    <glyph glyph-name="H_C" horiz-adv-x="1192" 
d="M930 -8q-143 0 -245.5 93t-116.5 234h-391v-319h-91v710h91v-303h393q19 135 120 223t240 88q137 0 230 -84l-53 -69q-78 66 -177 66q-116 0 -193 -79.5t-77 -196.5t77 -196.5t193 -79.5q99 0 177 66l53 -69q-93 -84 -230 -84z" />
    <glyph glyph-name="H_D" horiz-adv-x="1196" 
d="M569 0v319h-392v-319h-91v710h91v-303h392v303h211q164 0 271.5 -101t107.5 -254t-107.5 -254t-271.5 -101h-211zM660 85h120q128 0 207 76t79 194t-79 194t-207 76h-120v-540z" />
    <glyph glyph-name="H_E" horiz-adv-x="1028" 
d="M569 0v319h-392v-319h-91v710h91v-303h392v303h410v-88h-319v-215h259v-88h-259v-231h319v-88h-410z" />
    <glyph glyph-name="H_F" horiz-adv-x="987" 
d="M86 0v710h91v-303h392v303h398v-88h-307v-215h240v-88h-240v-319h-91v319h-392v-319h-91z" />
    <glyph glyph-name="H_G" horiz-adv-x="1259" 
d="M930 -8q-143 0 -245.5 93t-116.5 234h-391v-319h-91v710h91v-303h393q19 135 120 223t240 88q149 0 247 -90l-56 -68q-76 71 -191 71q-116 0 -193 -79.5t-77 -196.5t77 -196.5t193 -79.5q95 0 161 39v201h-198l39 88h250v-335q-106 -80 -252 -80z" />
    <glyph glyph-name="H_K" horiz-adv-x="1136" 
d="M569 0v319h-392v-319h-91v710h91v-303h392v303h91v-356l324 356h112l-328 -361l355 -349h-121l-342 337v-337h-91z" />
    <glyph glyph-name="H_M" horiz-adv-x="1347" 
d="M569 0v319h-392v-319h-91v710h91v-303h392v311l346 -381l346 381v-718h-91v494l-255 -285l-255 285v-494h-91z" />
    <glyph glyph-name="H_N" horiz-adv-x="1252" 
d="M1166 -8l-506 513v-505h-91v319h-392v-319h-91v710h91v-303h392v311l506 -513v505h91v-718z" />
    <glyph glyph-name="H_O" horiz-adv-x="1331" 
d="M930 -8q-143 0 -245.5 93t-116.5 234h-391v-319h-91v710h91v-303h393q19 135 120 223t240 88q153 0 258 -104.5t105 -258.5t-105 -258.5t-258 -104.5zM930 79q116 0 193 79.5t77 196.5t-77 196.5t-193 79.5t-193 -79.5t-77 -196.5t77 -196.5t193 -79.5z" />
    <glyph glyph-name="H_P" horiz-adv-x="1035" 
d="M569 0v319h-392v-319h-91v710h91v-303h392v303h201q112 0 179 -58.5t67 -158.5q0 -99 -67 -158t-179 -59h-110v-276h-91zM660 360h107q76 0 116 34.5t40 98.5q0 63 -40 98t-116 35h-107v-266z" />
    <glyph glyph-name="H_Q" horiz-adv-x="1336" 
d="M1257 -8l-92 84q-100 -84 -235 -84q-142 0 -245 93.5t-117 233.5h-391v-319h-91v710h91v-303h393q19 134 120.5 222.5t239.5 88.5q152 0 257.5 -105t105.5 -258q0 -121 -70 -216l92 -85zM930 80q97 0 169 58l-92 85l58 62l91 -84q44 68 44 154q0 117 -77 196t-193 79
q-115 0 -192.5 -79t-77.5 -196t77.5 -196t192.5 -79z" />
    <glyph glyph-name="H_R" horiz-adv-x="1104" 
d="M975 0l-237 310h-78v-310h-91v319h-392v-319h-91v710h91v-303h392v303h211q104 0 166 -54.5t62 -145.5q0 -76 -45 -127.5t-123 -66.5l245 -316h-110zM660 391h114q69 0 104.5 30.5t35.5 86.5t-35.5 87t-104.5 31h-114v-235z" />
    <glyph glyph-name="H_T" horiz-adv-x="882" 
d="M86 0v710h91v-303h392v215h-201v88h494v-88h-202v-622h-91v319h-392v-319h-91z" />
    <glyph glyph-name="H_U" horiz-adv-x="1213" 
d="M852 -8q-126 0 -204.5 75t-78.5 203v49h-392v-319h-91v710h91v-303h392v303h91v-444q0 -90 52 -138.5t140 -48.5t140 48.5t52 138.5v444h91v-440q0 -129 -78 -203.5t-205 -74.5z" />
    <glyph glyph-name="H_V" horiz-adv-x="1092" 
d="M758 -8l-150 327h-431v-319h-91v710h91v-303h391l-138 303h100l228 -509l227 509h100z" />
    <glyph glyph-name="H_W" horiz-adv-x="1353" 
d="M709 -8l-111 327h-421v-319h-91v710h91v-303h391l-103 303h94l157 -474l185 482l186 -482l157 474h94l-244 -718l-193 501z" />
    <glyph glyph-name="H_Y" horiz-adv-x="930" 
d="M569 0v319h-392v-319h-91v710h91v-303h333l-201 303h106l200 -302l199 302h106l-260 -391v-319h-91z" />
    <glyph glyph-name="L_A" horiz-adv-x="1091" 
d="M86 0v710h91v-621h256l303 629l346 -718h-98l-88 186h-320l-88 -186h-402zM736 524l-120 -254h240z" />
    <glyph glyph-name="M_B" horiz-adv-x="1213" 
d="M86 0v718l346 -381l339 373h153q99 0 154 -53t55 -132q0 -98 -74 -148q121 -47 121 -177q0 -95 -66.5 -147.5t-178.5 -52.5h-248v494l-255 -285l-255 285v-494h-91zM778 84h168q69 0 105.5 33t36.5 87t-36.5 88t-105.5 34h-168v-242zM778 404h144q55 0 87.5 31.5
t32.5 79.5q0 47 -32.5 79t-87.5 32h-144v-222z" />
    <glyph glyph-name="M_C" horiz-adv-x="1204" 
d="M942 -8q-153 0 -258 104.5t-105 258.5v19l-147 -165l-255 285v-494h-91v718l346 -381l244 268q49 54 118.5 83.5t147.5 29.5q137 0 230 -84l-53 -69q-78 66 -177 66q-116 0 -193 -79.5t-77 -196.5t77 -196.5t193 -79.5q99 0 177 66l53 -69q-93 -84 -230 -84z" />
    <glyph glyph-name="M_D" horiz-adv-x="1314" 
d="M86 0v718l346 -381l339 373h127q164 0 271.5 -101t107.5 -254t-107.5 -254t-271.5 -101h-211v494l-255 -285l-255 285v-494h-91zM778 85h120q128 0 207 76t79 194t-79 194t-207 76h-120v-540z" />
    <glyph glyph-name="M_E" horiz-adv-x="1146" 
d="M86 0v718l346 -381l339 373h326v-88h-319v-215h259v-88h-259v-231h319v-88h-410v494l-255 -285l-255 285v-494h-91z" />
    <glyph glyph-name="M_F" horiz-adv-x="1105" 
d="M86 0v718l346 -381l339 373h314v-88h-307v-215h240v-88h-240v-319h-91v494l-255 -285l-255 285v-494h-91z" />
    <glyph glyph-name="M_G" horiz-adv-x="1271" 
d="M942 -8q-153 0 -258 104.5t-105 258.5v19l-147 -165l-255 285v-494h-91v718l346 -381l242 267q103 114 268 114q149 0 247 -90l-56 -68q-76 71 -191 71q-116 0 -193 -79.5t-77 -196.5t77 -196.5t193 -79.5q95 0 161 39v201h-198l39 88h250v-335q-106 -80 -252 -80z" />
    <glyph glyph-name="M_K" horiz-adv-x="1254" 
d="M86 0v718l346 -381l346 381v-364l324 356h112l-328 -361l355 -349h-121l-342 337v-337h-91v494l-255 -285l-255 285v-494h-91z" />
    <glyph glyph-name="M_M" horiz-adv-x="1465" 
d="M86 0v718l346 -381l301 331l300 -331l346 381v-718h-91v494l-255 -285l-255 285v-494h-91v494l-255 -285l-255 285v-494h-91z" />
    <glyph glyph-name="M_N" horiz-adv-x="1370" 
d="M1284 -8l-506 513v-505h-91v494l-255 -285l-255 285v-494h-91v718l346 -381l302 333l459 -465v505h91v-718z" />
    <glyph glyph-name="M_O" horiz-adv-x="1343" 
d="M942 -8q-153 0 -258 104.5t-105 258.5v19l-147 -165l-255 285v-494h-91v718l346 -381l244 267q103 114 266 114q153 0 258 -104.5t105 -258.5t-105 -258.5t-258 -104.5zM942 79q116 0 193 79.5t77 196.5t-77 196.5t-193 79.5t-193 -79.5t-77 -196.5t77 -196.5t193 -79.5z
" />
    <glyph glyph-name="M_P" horiz-adv-x="1153" 
d="M86 0v718l346 -381l339 373h117q112 0 179 -58.5t67 -158.5q0 -99 -67 -158t-179 -59h-110v-276h-91v494l-255 -285l-255 285v-494h-91zM778 360h107q76 0 116 34.5t40 98.5q0 63 -40 98t-116 35h-107v-266z" />
    <glyph glyph-name="M_Q" horiz-adv-x="1346" 
d="M1267 -8l-92 84q-100 -84 -235 -84q-152 0 -257.5 105t-105.5 258v16l-145 -162l-255 285v-494h-91v718l346 -381l232 257q113 124 276 124q152 0 257.5 -105t105.5 -258q0 -121 -70 -216l92 -85zM940 80q97 0 169 58l-92 85l58 62l91 -84q44 68 44 154q0 117 -77 196
t-193 79q-115 0 -192.5 -79t-77.5 -196t77.5 -196t192.5 -79z" />
    <glyph glyph-name="M_R" horiz-adv-x="1222" 
d="M1093 0l-237 310h-78v-310h-91v494l-255 -285l-255 285v-494h-91v718l346 -381l339 373h127q104 0 166 -54.5t62 -145.5q0 -76 -45 -127.5t-123 -66.5l245 -316h-110zM778 391h114q69 0 104.5 30.5t35.5 86.5t-35.5 87t-104.5 31h-114v-235z" />
    <glyph glyph-name="M_U" horiz-adv-x="1331" 
d="M970 -8q-126 0 -204.5 75t-78.5 203v224l-255 -285l-255 285v-494h-91v718l346 -381l346 381v-452q0 -90 52 -138.5t140 -48.5t140 48.5t52 138.5v444h91v-440q0 -129 -78 -203.5t-205 -74.5z" />
    <glyph glyph-name="N_B" horiz-adv-x="1118" 
d="M86 0v718l506 -513v505h237q99 0 154 -53t55 -132q0 -98 -74 -148q121 -47 121 -177q0 -95 -66.5 -147.5t-178.5 -52.5h-165l-498 505v-505h-91zM683 84h168q69 0 105.5 33t36.5 87t-36.5 88t-105.5 34h-168v-242zM683 404h144q55 0 87.5 31.5t32.5 79.5q0 47 -32.5 79
t-87.5 32h-144v-222z" />
    <glyph glyph-name="N_C" horiz-adv-x="1100" 
d="M838 -8q-156 0 -269 115l-392 398v-505h-91v718l390 -396q-1 11 -1 33q0 154 105 258.5t258 104.5q137 0 230 -84l-53 -69q-78 66 -177 66q-116 0 -193 -79.5t-77 -196.5t77 -196.5t193 -79.5q99 0 177 66l53 -69q-93 -84 -230 -84z" />
    <glyph glyph-name="N_D" horiz-adv-x="1219" 
d="M86 0v718l506 -513v505h211q164 0 271.5 -101t107.5 -254t-107.5 -254t-271.5 -101h-128l-498 505v-505h-91zM683 85h120q128 0 207 76t79 194t-79 194t-207 76h-120v-540z" />
    <glyph glyph-name="N_E" horiz-adv-x="1051" 
d="M86 0v718l506 -513v505h410v-88h-319v-215h259v-88h-259v-231h319v-88h-327l-498 505v-505h-91z" />
    <glyph glyph-name="N_F" horiz-adv-x="1010" 
d="M683 -8l-506 513v-505h-91v718l506 -513v505h398v-88h-307v-215h240v-88h-240v-327z" />
    <glyph glyph-name="N_G" horiz-adv-x="1166" 
d="M837 -8q-155 0 -263 110l-397 403v-505h-91v718l389 -395q-1 11 -1 32q0 154 105 258.5t258 104.5q149 0 247 -90l-56 -68q-76 71 -191 71q-116 0 -193 -79.5t-77 -196.5t77 -196.5t193 -79.5q95 0 161 39v201h-198l39 88h250v-335q-106 -80 -252 -80z" />
    <glyph glyph-name="N_K" horiz-adv-x="1159" 
d="M683 -8l-506 513v-505h-91v718l506 -513v505h91v-356l324 356h112l-328 -361l355 -349h-121l-342 337v-345z" />
    <glyph glyph-name="N_M" horiz-adv-x="1370" 
d="M683 -8l-506 513v-505h-91v718l506 -513v513l346 -381l346 381v-718h-91v494l-255 -285l-255 285v-502z" />
    <glyph glyph-name="N_N" horiz-adv-x="1275" 
d="M683 -8l-506 513v-505h-91v718l506 -513v513l506 -513v505h91v-718l-506 513v-513z" />
    <glyph glyph-name="N_O" horiz-adv-x="1239" 
d="M838 -8q-156 0 -267 113l-394 400v-505h-91v718l390 -396q-1 11 -1 33q0 154 105 258.5t258 104.5t258 -104.5t105 -258.5t-105 -258.5t-258 -104.5zM838 79q116 0 193 79.5t77 196.5t-77 196.5t-193 79.5t-193 -79.5t-77 -196.5t77 -196.5t193 -79.5z" />
    <glyph glyph-name="N_P" horiz-adv-x="1058" 
d="M683 -8l-506 513v-505h-91v718l506 -513v505h201q112 0 179 -58.5t67 -158.5q0 -99 -67 -158t-179 -59h-110v-284zM683 360h107q76 0 116 34.5t40 98.5q0 63 -40 98t-116 35h-107v-266z" />
    <glyph glyph-name="N_Q" horiz-adv-x="1243" 
d="M1164 -8l-91 84q-100 -84 -235 -84q-156 0 -267 113l-394 400v-505h-91v718l390 -396q-1 11 -1 33q0 154 105 258.5t258 104.5t258 -104.5t105 -258.5q0 -122 -70 -217l91 -84zM838 79q97 0 169 58l-93 86l58 62l92 -85q44 69 44 155q0 117 -77 196.5t-193 79.5
t-193 -79.5t-77 -196.5t77 -196.5t193 -79.5z" />
    <glyph glyph-name="N_R" horiz-adv-x="1127" 
d="M998 0l-237 310h-78v-318l-506 513v-505h-91v718l506 -513v505h211q104 0 166 -54.5t62 -145.5q0 -76 -45 -127.5t-123 -66.5l245 -316h-110zM683 391h114q69 0 104.5 30.5t35.5 86.5t-35.5 87t-104.5 31h-114v-235z" />
    <glyph glyph-name="N_T" horiz-adv-x="905" 
d="M683 -8l-506 513v-505h-91v718l506 -513v417h-201v88h494v-88h-202v-630z" />
    <glyph glyph-name="N_U" horiz-adv-x="1175" 
d="M814 -8q-128 0 -206 76l-431 437v-505h-91v718l445 -451v443h91v-444q0 -90 52 -138.5t140 -48.5t140 48.5t52 138.5v444h91v-440q0 -129 -78 -203.5t-205 -74.5z" />
    <glyph glyph-name="O_A" horiz-adv-x="1239" 
d="M401 -8q-153 0 -258 104.5t-105 258.5t105 258.5t258 104.5q128 0 225 -76t127 -196l131 272l346 -718h-98l-88 186h-320q-46 -89 -132 -141.5t-191 -52.5zM401 79q116 0 193 79.5t77 196.5t-77 196.5t-193 79.5t-193 -79.5t-77 -196.5t77 -196.5t193 -79.5zM764 270h240
l-120 254z" />
    <glyph glyph-name="O_C" horiz-adv-x="1296" 
d="M401 -8q-153 0 -258 104.5t-105 258.5t105 258.5t258 104.5q101 0 185.5 -49t131.5 -133q46 84 130.5 133t185.5 49q137 0 230 -84l-53 -69q-78 66 -177 66q-116 0 -193 -79.5t-77 -196.5t77 -196.5t193 -79.5q99 0 177 66l53 -69q-93 -84 -230 -84q-101 0 -185.5 49
t-131.5 133q-46 -84 -130.5 -133t-185.5 -49zM401 79q116 0 193 79.5t77 196.5t-77 196.5t-193 79.5t-193 -79.5t-77 -196.5t77 -196.5t193 -79.5z" />
    <glyph glyph-name="O_G" horiz-adv-x="1363" 
d="M401 -8q-153 0 -258 104.5t-105 258.5t105 258.5t258 104.5q101 0 185.5 -49t131.5 -133q46 84 130.5 133t185.5 49q149 0 247 -90l-56 -68q-76 71 -191 71q-116 0 -193 -79.5t-77 -196.5t77 -196.5t193 -79.5q95 0 161 39v201h-198l39 88h250v-335q-106 -80 -252 -80
q-101 0 -185.5 49t-131.5 133q-46 -84 -130.5 -133t-185.5 -49zM401 79q116 0 193 79.5t77 196.5t-77 196.5t-193 79.5t-193 -79.5t-77 -196.5t77 -196.5t193 -79.5z" />
    <glyph glyph-name="O_H" horiz-adv-x="1332" 
d="M401 -8q-153 0 -258 104.5t-105 258.5t105 258.5t258 104.5q139 0 240 -88t119 -223h395v303h91v-710h-91v319h-393q-13 -141 -115.5 -234t-245.5 -93zM401 79q116 0 193 79.5t77 196.5t-77 196.5t-193 79.5t-193 -79.5t-77 -196.5t77 -196.5t193 -79.5z" />
    <glyph glyph-name="O_K" horiz-adv-x="1240" 
d="M401 -8q-153 0 -258 104.5t-105 258.5t105 258.5t258 104.5t258 -104.5t105 -258.5v-1l324 356h112l-328 -361l355 -349h-121l-343 337q-6 -147 -110 -246t-252 -99zM401 79q116 0 193 79.5t77 196.5t-77 196.5t-193 79.5t-193 -79.5t-77 -196.5t77 -196.5t193 -79.5z
" />
    <glyph glyph-name="O_M" horiz-adv-x="1342" 
d="M401 -8q-153 0 -258 104.5t-105 258.5t105 258.5t258 104.5q164 0 280 -127l229 -254l346 381v-718h-91v494l-255 -285l-146 164v-18q0 -154 -105 -258.5t-258 -104.5zM401 79q116 0 193 79.5t77 196.5t-77 196.5t-193 79.5t-193 -79.5t-77 -196.5t77 -196.5t193 -79.5z
" />
    <glyph glyph-name="O_N" horiz-adv-x="1240" 
d="M1154 -9l-391 397q1 -11 1 -33q0 -154 -105 -258.5t-258 -104.5t-258 104.5t-105 258.5t105 258.5t258 104.5t257 -104l405 -410v505h91v-718zM401 79q116 0 193 79.5t77 196.5t-77 196.5t-193 79.5t-193 -79.5t-77 -196.5t77 -196.5t193 -79.5z" />
    <glyph glyph-name="O_O" horiz-adv-x="1435" 
d="M401 -8q-153 0 -258 104.5t-105 258.5t105 258.5t258 104.5q101 0 185.5 -49t131.5 -133q46 84 130.5 133t185.5 49q153 0 258 -104.5t105 -258.5t-105 -258.5t-258 -104.5q-101 0 -185.5 49t-131.5 133q-46 -84 -130.5 -133t-185.5 -49zM401 79q116 0 193 79.5t77 196.5
t-77 196.5t-193 79.5t-193 -79.5t-77 -196.5t77 -196.5t193 -79.5zM1034 79q116 0 193 79.5t77 196.5t-77 196.5t-193 79.5t-193 -79.5t-77 -196.5t77 -196.5t193 -79.5z" />
    <glyph glyph-name="O_Q" horiz-adv-x="1440" 
d="M401 -8q-153 0 -258 104.5t-105 258.5t105 258.5t258 104.5q101 0 185.5 -49t131.5 -133q47 84 131 133t185 49q152 0 257.5 -105t105.5 -258q0 -121 -70 -216l92 -85l-58 -62l-92 85q-101 -85 -235 -85q-101 0 -185 49t-131 133q-47 -84 -131.5 -133t-185.5 -49zM401 79
q116 0 193 79.5t77 196.5t-77 196.5t-193 79.5t-193 -79.5t-77 -196.5t77 -196.5t193 -79.5zM1034 80q98 0 169 58l-92 85l58 62l91 -84q44 68 44 154q0 117 -77 196t-193 79q-115 0 -192.5 -79t-77.5 -196t77.5 -196t192.5 -79z" />
    <glyph glyph-name="O_V" horiz-adv-x="1203" 
d="M401 -8q-153 0 -258 104.5t-105 258.5t105 258.5t258 104.5q113 0 202 -59.5t133 -159.5l133 -298l227 509h100l-327 -718l-119 260q-33 -116 -128.5 -188t-220.5 -72zM401 79q116 0 193 79.5t77 196.5t-77 196.5t-193 79.5t-193 -79.5t-77 -196.5t77 -196.5t193 -79.5z
" />
    <glyph glyph-name="O_W" horiz-adv-x="1460" 
d="M401 -8q-153 0 -258 104.5t-105 258.5t105 258.5t258 104.5q125 0 217 -68.5t130 -185.5l75 -228l185 482l186 -482l157 474h94l-244 -718l-193 501l-192 -501l-77 227q-40 -102 -131.5 -164.5t-206.5 -62.5zM401 79q116 0 193 79.5t77 196.5t-77 196.5t-193 79.5
t-193 -79.5t-77 -196.5t77 -196.5t193 -79.5z" />
    <glyph glyph-name="T_H" horiz-adv-x="881" 
d="M221 0v622h-201v88h494v-88h-202v-215h392v303h91v-710h-91v319h-392v-319h-91z" />
    <glyph glyph-name="T_T" horiz-adv-x="937" 
d="M624 0v622h-312v-622h-91v622h-201v88h897v-88h-202v-622h-91z" />
    <glyph glyph-name="T_U" horiz-adv-x="865" 
d="M20 622v88h494v-88h-202v-356q0 -90 52 -138.5t140 -48.5t140 48.5t52 138.5v444h91v-440q0 -129 -78 -203.5t-205 -74.5q-126 0 -204.5 75t-78.5 203v352h-201z" />
    <glyph glyph-name="T_Z" horiz-adv-x="1055" 
d="M471 0l395 622h-554v-622h-91v622h-201v88h1002l-395 -622h397v-88h-553z" />
    </font>
</defs>
</svg>
