<?xml version="1.0" standalone="no"?>
<!DOCTYPE svg PUBLIC "-//W3C//DTD SVG 1.1//EN" "http://www.w3.org/Graphics/SVG/1.1/DTD/svg11.dtd" >
<svg xmlns="http://www.w3.org/2000/svg" xmlns:xlink="http://www.w3.org/1999/xlink" version="1.1">
<metadata>
Created by FontForge 20170731 at Thu Aug  2 18:24:08 2018
 By Aleksey,,,
Copyright (c) 2013-2018 Bold Monday. All rights reserved. Nitti Grotesk is a trademark of Bold Monday. Unauthorized copying or modification of any of its data is illegal.
</metadata>
<defs>
<font id="NittiGrotesk-Medium" horiz-adv-x="520" >
  <font-face 
    font-family="Nitti Grotesk Medium"
    font-weight="500"
    font-stretch="normal"
    units-per-em="1000"
    panose-1="2 11 6 3 4 2 2 2 0 3"
    ascent="770"
    descent="-230"
    x-height="439"
    cap-height="558"
    bbox="-130 -220 1049 859"
    underline-thickness="68"
    underline-position="-300"
    unicode-range="U+0020-FB02"
  />
<missing-glyph 
d="M195 -178v810h130v-810h-130z" />
    <glyph glyph-name="fi" unicode="fi" horiz-adv-x="521" 
d="M353 0v439h96v-439h-96zM347 566v96h108v-96h-108zM83 0v366h-67v73h67v91q0 65 33 103.5t101 38.5q39 0 53 -9v-77q-18 6 -37 6q-54 0 -54 -69v-84h91v-73h-91v-366h-96z" />
    <glyph glyph-name="fl" unicode="fl" horiz-adv-x="519" 
d="M352 0v662h96v-662h-96zM83 0v366h-67v73h67v91q0 65 33 103.5t101 38.5q39 0 53 -9v-77q-18 6 -37 6q-54 0 -54 -69v-84h91v-73h-91v-366h-96z" />
    <glyph glyph-name=".notdef" 
d="M195 -178v810h130v-810h-130z" />
    <glyph glyph-name=".null" horiz-adv-x="0" 
 />
    <glyph glyph-name="nonmarkingreturn" horiz-adv-x="333" 
 />
    <glyph glyph-name="space" unicode=" " horiz-adv-x="215" 
 />
    <glyph glyph-name="exclam" unicode="!" horiz-adv-x="290" 
d="M133 171l-37 187v200h98v-200l-37 -187h-24zM90 0v110h110v-110h-110z" />
    <glyph glyph-name="quotedbl" unicode="&#x22;" horiz-adv-x="428" 
d="M285 350l-41 248h107l-41 -248h-25zM118 350l-41 248h107l-41 -248h-25z" />
    <glyph glyph-name="numbersign" unicode="#" horiz-adv-x="521" 
d="M230 353l-27 -136h93l26 136h-92zM81 351l13 68h77l27 139h73l-27 -139h89l27 139h74l-27 -139h76l-13 -68h-76l-26 -132h76l-13 -68h-76l-29 -151h-74l29 151h-89l-29 -151h-73l29 151h-77l13 68h77l26 132h-77z" />
    <glyph glyph-name="dollar" unicode="$" horiz-adv-x="547" 
d="M50 167h95q5 -86 107 -102v180l-51 14q-138 39 -138 152q0 70 50.5 110.5t132.5 45.5v108h60v-109q79 -8 125 -52.5t51 -119.5h-94q-7 85 -88 99v-171l58 -16q139 -39 139 -153q0 -74 -53 -115t-138 -47v-108h-60v109q-86 7 -138 51.5t-58 123.5zM320 228l-20 5v-170
q50 3 77.5 26t27.5 58q0 60 -85 81zM155 418q0 -56 84 -81l13 -4v162q-47 -2 -72 -22.5t-25 -54.5z" />
    <glyph glyph-name="percent" unicode="%" horiz-adv-x="766" 
d="M184 308q73 0 73 99t-73 99t-73 -99t73 -99zM184 246q-60 0 -101.5 38t-41.5 123t41.5 123t101.5 38t101.5 -38t41.5 -123t-41.5 -123t-101.5 -38zM163 0l361 558h79l-361 -558h-79zM582 52q73 0 73 99t-73 99t-73 -99t73 -99zM582 -10q-60 0 -101.5 38t-41.5 123
t41.5 123t101.5 38t101.5 -38t41.5 -123t-41.5 -123t-101.5 -38z" />
    <glyph glyph-name="ampersand" unicode="&#x26;" horiz-adv-x="570" 
d="M442 0l-42 49q-75 -59 -177 -59q-88 0 -137 41.5t-49 106.5q0 59 38 97t104 74q-68 78 -68 135q0 52 40 88t110 36q68 0 109.5 -34.5t41.5 -91.5q0 -48 -30 -79.5t-91 -64.5l117 -134q32 58 32 135h82q-2 -105 -65 -191l95 -108h-110zM239 63q65 0 116 39l-134 157
q-46 -26 -68 -50.5t-22 -60.5q0 -40 28.5 -62.5t79.5 -22.5zM198 443q0 -39 50 -97q44 25 60.5 45.5t16.5 47.5q0 30 -17.5 46.5t-46.5 16.5t-46 -15.5t-17 -43.5z" />
    <glyph glyph-name="quotesingle" unicode="'" horiz-adv-x="261" 
d="M118 350l-41 248h107l-41 -248h-25z" />
    <glyph glyph-name="parenleft" unicode="(" horiz-adv-x="309" 
d="M332 -178h-101q-83 88 -121 194t-38 211t38 211t121 194h101q-172 -171 -172 -405t172 -405z" />
    <glyph glyph-name="parenright" unicode=")" horiz-adv-x="309" 
d="M78 -178h-101q172 171 172 405t-172 405h101q83 -88 121 -194t38 -211t-38 -211t-121 -194z" />
    <glyph glyph-name="asterisk" unicode="*" horiz-adv-x="336" 
d="M198 598l-8 -119l111 44l18 -55l-114 -29l75 -92l-47 -33l-65 102l-65 -102l-47 33l75 92l-114 29l18 55l111 -44l-8 119h60z" />
    <glyph glyph-name="plus" unicode="+" 
d="M61 198v76h158v160h82v-160h158v-76h-158v-161h-82v161h-158z" />
    <glyph glyph-name="comma" unicode="," horiz-adv-x="284" 
d="M78 -160l64 160h-55v110h110v-110l-67 -160h-52z" />
    <glyph glyph-name="hyphen" unicode="-" horiz-adv-x="359" 
d="M60 189v87h239v-87h-239z" />
    <glyph glyph-name="period" unicode="." horiz-adv-x="284" 
d="M87 0v110h110v-110h-110z" />
    <glyph glyph-name="slash" unicode="/" horiz-adv-x="330" 
d="M-4 -64l258 696h80l-258 -696h-80z" />
    <glyph glyph-name="zero" unicode="0" horiz-adv-x="564" 
d="M282 488q-68 0 -95.5 -54.5t-27.5 -154.5t27.5 -154.5t95.5 -54.5t95.5 54.5t27.5 154.5t-27.5 154.5t-95.5 54.5zM282 568q112 0 167 -75.5t55 -213.5t-55 -213.5t-167 -75.5t-167 75.5t-55 213.5t55 213.5t167 75.5z" />
    <glyph glyph-name="one" unicode="1" horiz-adv-x="350" 
d="M179 558h87v-558h-99v428q-21 -22 -61.5 -38t-86.5 -16v81q57 1 100 31.5t60 71.5z" />
    <glyph glyph-name="two" unicode="2" horiz-adv-x="464" 
d="M231 568q90 0 139 -44.5t49 -118.5q0 -59 -30.5 -101t-90.5 -83l-77 -53q-58 -40 -65 -87h270v-81h-379v32q0 123 118 202l75 50q41 27 62.5 54t21.5 66q0 42 -25.5 65t-72.5 23q-101 0 -103 -107h-92q0 86 54 134.5t146 48.5z" />
    <glyph glyph-name="three" unicode="3" horiz-adv-x="488" 
d="M239 568q90 0 140 -44t50 -112q0 -92 -82 -128q43 -15 68.5 -49.5t25.5 -83.5q0 -72 -52.5 -116.5t-147.5 -44.5q-98 0 -152 49t-54 138h93q1 -56 30.5 -83.5t80.5 -27.5q49 0 77.5 24t28.5 65q0 42 -30.5 66.5t-85.5 24.5h-45v73h46q50 0 77 23t27 63t-25.5 63.5
t-72.5 23.5q-48 0 -75 -26.5t-28 -78.5h-93q0 85 53.5 133t145.5 48z" />
    <glyph glyph-name="four" unicode="4" horiz-adv-x="475" 
d="M285 558h88v-365h80v-75h-80v-118h-95v118h-267v64zM104 193h174v237z" />
    <glyph glyph-name="five" unicode="5" horiz-adv-x="490" 
d="M89 558h328v-81h-249l-11 -148q46 32 115 32q87 0 135 -51.5t48 -132.5q0 -83 -52 -135t-150 -52q-94 0 -149 49.5t-55 137.5h93q1 -57 31 -84t77 -27q52 0 80.5 30t28.5 80t-29.5 80t-84.5 30q-68 0 -120 -47l-57 13z" />
    <glyph glyph-name="six" unicode="6" horiz-adv-x="525" 
d="M282 568q85 0 137.5 -48t52.5 -132h-93q0 46 -25.5 75t-71.5 29q-58 0 -91 -48.5t-34 -146.5q57 47 134 47t128 -48t51 -127q0 -81 -53.5 -130t-139.5 -49q-104 0 -160.5 74.5t-56.5 211.5q0 142 59 217t163 75zM269 270q-63 0 -111 -41q5 -84 37 -123.5t83 -39.5
q44 0 71.5 27t27.5 74q0 49 -30 76t-78 27z" />
    <glyph glyph-name="seven" unicode="7" horiz-adv-x="394" 
d="M10 558h373v-72q-164 -170 -164 -459v-27h-101v44q0 127 46 246.5t114 186.5h-268v81z" />
    <glyph glyph-name="eight" unicode="8" horiz-adv-x="512" 
d="M256 568q91 0 143.5 -45t52.5 -112q0 -42 -22 -76t-64 -52q43 -16 70 -51t27 -83q0 -69 -54.5 -114t-152.5 -45t-152.5 45t-54.5 114q0 48 26.5 83t69.5 51q-42 18 -63.5 52t-21.5 76q0 67 52.5 112t143.5 45zM256 247q-51 0 -81.5 -25t-30.5 -67q0 -41 30 -65.5
t82 -24.5t82 24.5t30 65.5q0 42 -30.5 67t-81.5 25zM256 493q-49 0 -75.5 -24t-26.5 -64t26.5 -63.5t75.5 -23.5t75.5 23.5t26.5 63.5t-26.5 64t-75.5 24z" />
    <glyph glyph-name="nine" unicode="9" horiz-adv-x="524" 
d="M248 568q103 0 159.5 -74t56.5 -216q0 -141 -56.5 -214.5t-161.5 -73.5q-91 0 -142 50t-51 130h92q0 -46 26 -75t75 -29q58 0 88 46.5t33 146.5q-54 -45 -132 -45q-80 0 -131 48t-51 127q0 81 54.5 130t140.5 49zM254 288q65 0 112 40q-5 84 -37.5 124t-82.5 40
q-44 0 -71.5 -27t-27.5 -74q0 -49 29.5 -76t77.5 -27z" />
    <glyph glyph-name="colon" unicode=":" horiz-adv-x="306" 
d="M98 0v110h110v-110h-110zM98 329v110h110v-110h-110z" />
    <glyph glyph-name="semicolon" unicode=";" horiz-adv-x="306" 
d="M89 -160l64 160h-55v110h110v-110l-67 -160h-52zM98 329v110h110v-110h-110z" />
    <glyph glyph-name="less" unicode="&#x3c;" 
d="M65 201v59l390 200v-80l-295 -148l295 -148v-83z" />
    <glyph glyph-name="equal" unicode="=" 
d="M71 295v75h378v-75h-378zM71 102v75h378v-75h-378z" />
    <glyph glyph-name="greater" unicode="&#x3e;" 
d="M455 260v-59l-390 -200v80l295 148l-295 148v83z" />
    <glyph glyph-name="question" unicode="?" horiz-adv-x="434" 
d="M154 0v110h110v-110h-110zM169 170v8q0 33 5 56t18.5 41.5t21.5 26t31 26.5q17 14 26 23t16.5 25t7.5 36q0 35 -21 56.5t-65 21.5q-96 0 -96 -104h-85q0 86 51 134t137 48q85 0 130 -44.5t45 -107.5q0 -27 -7.5 -49.5t-24 -41.5t-26.5 -28t-31 -25q-28 -23 -41 -42
t-13 -52v-8h-79z" />
    <glyph glyph-name="at" unicode="@" horiz-adv-x="915" 
d="M548 102v98l-83 -9q-99 -11 -99 -73q0 -58 73 -58q59 0 109 42zM563 58q-19 -27 -59 -47.5t-93 -20.5q-65 0 -102.5 33.5t-37.5 90.5q0 119 175 134l102 9v12q0 56 -16 81t-66 25q-46 0 -66 -21.5t-20 -64.5h-92q1 47 18 80t45.5 49.5t59 23.5t65.5 7q91 0 129 -42.5
t38 -127.5v-184q0 -37 33 -37q48 0 80.5 57t32.5 155q0 149 -80 221t-225 72q-165 0 -259.5 -89t-94.5 -255q0 -164 92 -250.5t253 -86.5q64 0 122.5 12t86.5 26v-61q-27 -13 -87 -24.5t-125 -11.5q-197 0 -305.5 110.5t-108.5 284.5q0 177 112 290.5t315 113.5
q175 0 274.5 -90.5t99.5 -259.5q0 -123 -52.5 -202.5t-144.5 -79.5q-45 0 -70 19t-29 49z" />
    <glyph glyph-name="A" unicode="A" horiz-adv-x="575" 
d="M26 0l208 558h107l208 -558h-105l-41 118h-235l-41 -118h-101zM193 194h184l-92 265z" />
    <glyph glyph-name="B" unicode="B" horiz-adv-x="577" 
d="M84 0v558h213q98 0 150 -39.5t52 -113.5q0 -85 -74 -116q97 -30 97 -130q0 -77 -54.5 -118t-155.5 -41h-228zM183 80h119q65 0 91.5 20.5t26.5 62.5q0 43 -26.5 63.5t-91.5 20.5h-119v-167zM183 323h106q60 0 84 19t24 59q0 39 -24 58t-84 19h-106v-155z" />
    <glyph glyph-name="C" unicode="C" horiz-adv-x="594" 
d="M445 187h99q-6 -93 -70.5 -145t-165.5 -52q-122 0 -186 78t-64 211t64 211t186 78q101 0 165.5 -52t70.5 -145h-99q-4 47 -39 79t-96 32q-150 0 -150 -203t150 -203q61 0 96 32t39 79z" />
    <glyph glyph-name="D" unicode="D" horiz-adv-x="601" 
d="M84 0v558h185q136 0 205 -74.5t69 -204.5t-69 -204.5t-205 -74.5h-185zM183 82h86q172 0 172 197t-172 197h-86v-394z" />
    <glyph glyph-name="E" unicode="E" horiz-adv-x="523" 
d="M84 0v558h384v-84h-285v-148h234v-82h-234v-160h285v-84h-384z" />
    <glyph glyph-name="F" unicode="F" horiz-adv-x="497" 
d="M84 0v558h363v-84h-264v-147h225v-84h-225v-243h-99z" />
    <glyph glyph-name="G" unicode="G" horiz-adv-x="628" 
d="M315 -10q-121 0 -189 75.5t-68 211.5q0 143 69 217t186 74q97 0 162.5 -48.5t75.5 -136.5h-100q-6 44 -40.5 72t-94.5 28q-158 0 -158 -205q0 -203 163 -203q69 0 103 36.5t37 92.5h-142v77h238v-281h-77v73q-49 -83 -165 -83z" />
    <glyph glyph-name="H" unicode="H" horiz-adv-x="619" 
d="M84 0v558h99v-230h253v230h99v-558h-99v243h-253v-243h-99z" />
    <glyph glyph-name="I" unicode="I" horiz-adv-x="335" 
d="M44 0v65h74v428h-74v65h247v-65h-74v-428h74v-65h-247z" />
    <glyph glyph-name="J" unicode="J" horiz-adv-x="490" 
d="M85 473v85h331v-378q0 -97 -44 -141q-49 -49 -147 -49q-191 0 -191 186v40h99v-40q0 -55 22.5 -79.5t69.5 -24.5q48 0 70 24t22 80v297h-232z" />
    <glyph glyph-name="K" unicode="K" horiz-adv-x="554" 
d="M84 0v558h99v-256l232 256h120l-206 -220l219 -338h-116l-170 267l-79 -85v-182h-99z" />
    <glyph glyph-name="L" unicode="L" horiz-adv-x="465" 
d="M84 0v558h99v-473h258v-85h-357z" />
    <glyph glyph-name="M" unicode="M" horiz-adv-x="700" 
d="M84 0v558h123l146 -287l147 287h116v-558h-94v429l-141 -275h-62l-141 275v-429h-94z" />
    <glyph glyph-name="N" unicode="N" horiz-adv-x="622" 
d="M84 0v558h118l242 -429v429h94v-558h-118l-242 429v-429h-94z" />
    <glyph glyph-name="O" unicode="O" horiz-adv-x="636" 
d="M318 76q158 0 158 203t-158 203t-158 -203t158 -203zM318 -10q-128 0 -194 77.5t-66 211.5t66 211.5t194 77.5t194 -77.5t66 -211.5t-66 -211.5t-194 -77.5z" />
    <glyph glyph-name="P" unicode="P" horiz-adv-x="545" 
d="M84 0v558h183q114 0 175.5 -45t61.5 -136t-61.5 -136t-175.5 -45h-84v-196h-99zM183 278h82q74 0 105 23.5t31 75.5t-31 75.5t-105 23.5h-82v-198z" />
    <glyph glyph-name="Q" unicode="Q" horiz-adv-x="640" 
d="M318 -10q-128 0 -194 77.5t-66 211.5t66 211.5t194 77.5q127 0 193 -77.5t66 -211.5q0 -122 -58 -199l71 -71l-61 -61l-75 75q-57 -33 -136 -33zM318 75q41 0 72 14l-75 75l60 59l74 -75q26 51 26 131q0 203 -157 203q-158 0 -158 -203q0 -204 158 -204z" />
    <glyph glyph-name="R" unicode="R" horiz-adv-x="571" 
d="M84 0v558h183q114 0 175.5 -45t61.5 -136q0 -127 -127 -162l157 -215h-117l-137 196h-97v-196h-99zM183 278h82q74 0 105 23.5t31 75.5t-31 75.5t-105 23.5h-82v-198z" />
    <glyph glyph-name="S" unicode="S" horiz-adv-x="540" 
d="M50 167h100q4 -52 42 -75t91 -23t82 21.5t29 56.5q0 57 -77 78l-118 33q-136 38 -136 152q0 79 57.5 118.5t144.5 39.5q92 0 148.5 -45t62.5 -129h-100q-3 51 -36.5 73t-81.5 22q-47 0 -71.5 -19t-24.5 -53q0 -57 77 -78l117 -33q137 -38 137 -152q0 -84 -61.5 -124
t-153.5 -40q-99 0 -160.5 45.5t-67.5 131.5z" />
    <glyph glyph-name="T" unicode="T" horiz-adv-x="473" 
d="M187 0v473h-168v85h435v-85h-168v-473h-99z" />
    <glyph glyph-name="U" unicode="U" horiz-adv-x="600" 
d="M74 203v355h99v-342q0 -76 30.5 -108t96.5 -32t96.5 32t30.5 108v342h99v-355q0 -213 -226 -213t-226 213z" />
    <glyph glyph-name="V" unicode="V" horiz-adv-x="533" 
d="M210 0l-196 558h104l150 -453l150 453h101l-196 -558h-113z" />
    <glyph glyph-name="W" unicode="W" horiz-adv-x="808" 
d="M184 0l-155 558h97l115 -439l113 439h104l114 -439l114 439h93l-155 -558h-106l-114 435l-114 -435h-106z" />
    <glyph glyph-name="X" unicode="X" horiz-adv-x="537" 
d="M20 0l192 287l-181 271h112l129 -195l128 195h106l-181 -271l192 -287h-112l-140 212l-139 -212h-106z" />
    <glyph glyph-name="Y" unicode="Y" horiz-adv-x="521" 
d="M211 0v219l-203 339h109l145 -253l146 253h105l-203 -339v-219h-99z" />
    <glyph glyph-name="Z" unicode="Z" horiz-adv-x="508" 
d="M43 0v80l293 393h-281v85h401v-80l-293 -393h305v-85h-425z" />
    <glyph glyph-name="bracketleft" unicode="[" horiz-adv-x="298" 
d="M94 -178v810h201v-69h-116v-672h116v-69h-201z" />
    <glyph glyph-name="backslash" unicode="\" horiz-adv-x="330" 
d="M254 -64l-258 696h80l258 -696h-80z" />
    <glyph glyph-name="bracketright" unicode="]" horiz-adv-x="298" 
d="M3 -178v69h116v672h-116v69h201v-810h-201z" />
    <glyph glyph-name="asciicircum" unicode="^" horiz-adv-x="432" 
d="M30 255l156 303h60l156 -303h-81l-107 214l-106 -214h-78z" />
    <glyph glyph-name="underscore" unicode="_" horiz-adv-x="463" 
d="M33 -76v76h397v-76h-397z" />
    <glyph glyph-name="grave" unicode="`" horiz-adv-x="416" 
d="M245 523l-122 135h109l61 -135h-48z" />
    <glyph glyph-name="a" unicode="a" horiz-adv-x="488" 
d="M316 102v98l-83 -9q-99 -11 -99 -73q0 -58 73 -58q59 0 109 42zM332 52v6q-20 -27 -60 -47.5t-93 -20.5q-65 0 -102.5 33.5t-37.5 90.5q0 119 175 134l102 9v12q0 56 -16 81t-66 25q-46 0 -66 -21.5t-20 -64.5h-92q1 47 18 80t45.5 49.5t59 23.5t65.5 7q91 0 129 -42.5
t38 -127.5v-188q0 -26 25 -26q18 0 36 9v-68q-28 -16 -69 -16q-71 0 -71 62z" />
    <glyph glyph-name="b" unicode="b" horiz-adv-x="518" 
d="M167 331v-223q35 -37 94 -37q57 0 86 38.5t29 110.5t-29 110t-86 38q-59 0 -94 -37zM71 0v662h96v-266q40 53 120 53q79 0 132.5 -56t53.5 -172q0 -117 -53.5 -174t-132.5 -57q-91 0 -133 64v-54h-83z" />
    <glyph glyph-name="c" unicode="c" horiz-adv-x="483" 
d="M348 155h94q-5 -79 -56 -122t-131 -43q-39 0 -73.5 11t-66.5 35.5t-51 71.5t-19 112t19 112t51 71.5t66.5 35t73.5 10.5q80 0 131 -43t56 -122h-94q-2 37 -26 61t-68 24q-112 0 -112 -149q0 -150 112 -150q44 0 68 24t26 61z" />
    <glyph glyph-name="d" unicode="d" horiz-adv-x="518" 
d="M364 0v54q-42 -64 -133 -64q-79 0 -132.5 56t-53.5 172q0 117 53.5 174t132.5 57q80 0 120 -53v266h96v-662h-83zM351 108v223q-35 37 -94 37q-57 0 -86 -38t-29 -110t29 -110.5t86 -38.5q59 0 94 37z" />
    <glyph glyph-name="e" unicode="e" horiz-adv-x="493" 
d="M141 263h213q-4 55 -31.5 84t-74.5 29q-96 0 -107 -113zM355 145h93q-12 -83 -70 -119t-128 -36q-88 0 -146.5 55.5t-58.5 174.5t59.5 174t142.5 55q38 0 72 -11t64.5 -36t48.5 -71.5t18 -109.5v-15h-310q3 -141 113 -141q88 0 102 80z" />
    <glyph glyph-name="f" unicode="f" horiz-adv-x="281" 
d="M83 0v366h-67v73h67v91q0 65 33 103.5t101 38.5q39 0 53 -9v-77q-18 6 -37 6q-54 0 -54 -69v-84h91v-73h-91v-366h-96z" />
    <glyph glyph-name="g" unicode="g" horiz-adv-x="504" 
d="M49 290q0 79 57.5 119t128.5 40q96 0 150 -60q33 60 117 60v-88q-62 0 -89 -20q8 -24 8 -51q0 -79 -57.5 -119t-128.5 -40q-39 0 -76 12q-32 -15 -32 -41q0 -37 69 -37h112q71 0 115.5 -30t44.5 -92q0 -72 -60.5 -111.5t-167.5 -39.5q-101 0 -156 33.5t-55 88.5
q0 65 76 94q-56 22 -56 75q0 54 64 83q-64 45 -64 124zM290 -13h-131q-44 -16 -44 -59q0 -67 126 -67q135 0 135 72q0 54 -86 54zM329 290q0 41 -25 64.5t-69 23.5t-69 -23.5t-25 -64.5t25 -64.5t69 -23.5t69 23.5t25 64.5z" />
    <glyph glyph-name="h" unicode="h" horiz-adv-x="513" 
d="M71 0v662h96v-270q42 57 132 57q149 0 149 -178v-271h-96v252q0 59 -18.5 86.5t-68.5 27.5q-63 0 -98 -39v-327h-96z" />
    <glyph glyph-name="i" unicode="i" horiz-adv-x="240" 
d="M72 0v439h96v-439h-96zM66 566v96h108v-96h-108z" />
    <glyph glyph-name="j" unicode="j" horiz-adv-x="244" 
d="M-15 -199v77q18 -6 36 -6q29 0 41 17.5t12 51.5v498h96v-505q0 -65 -32 -103.5t-100 -38.5q-37 0 -53 9zM68 566v96h108v-96h-108z" />
    <glyph glyph-name="k" unicode="k" horiz-adv-x="483" 
d="M71 0v662h96v-421l186 198h110l-163 -168l165 -271h-112l-120 208l-66 -69v-139h-96z" />
    <glyph glyph-name="l" unicode="l" horiz-adv-x="238" 
d="M71 0v662h96v-662h-96z" />
    <glyph glyph-name="m" unicode="m" horiz-adv-x="762" 
d="M71 0v439h82v-57q42 67 136 67q88 0 122 -68q48 68 143 68q143 0 143 -178v-271h-96v252q0 59 -16.5 86.5t-61.5 27.5q-59 0 -95 -42q4 -21 4 -53v-271h-96v252q0 59 -16.5 86.5t-62.5 27.5q-59 0 -90 -39v-327h-96z" />
    <glyph glyph-name="n" unicode="n" horiz-adv-x="513" 
d="M71 0v439h82v-57q43 67 145 67q150 0 150 -178v-271h-96v252q0 59 -18.5 86.5t-68.5 27.5q-63 0 -98 -39v-327h-96z" />
    <glyph glyph-name="o" unicode="o" horiz-adv-x="512" 
d="M256 70q114 0 114 150q0 149 -114 149t-114 -149q0 -150 114 -150zM256 -10q-40 0 -75 11.5t-67 36t-50.5 71.5t-18.5 111t18.5 110.5t50.5 71.5t67 36t75 11t75 -11t67 -36t50.5 -71.5t18.5 -110.5t-18.5 -111t-50.5 -71.5t-67 -36t-75 -11.5z" />
    <glyph glyph-name="p" unicode="p" horiz-adv-x="518" 
d="M71 -198v637h83v-54q42 64 133 64q79 0 132.5 -56t53.5 -172q0 -117 -53.5 -174t-132.5 -57q-80 0 -120 53v-241h-96zM167 331v-223q35 -37 94 -37q57 0 86 38t29 110t-29 110.5t-86 38.5q-59 0 -94 -37z" />
    <glyph glyph-name="q" unicode="q" horiz-adv-x="518" 
d="M351 -198v241q-40 -53 -120 -53q-79 0 -132.5 56t-53.5 172q0 117 53.5 174t132.5 57q91 0 133 -64v54h83v-637h-96zM351 108v223q-35 37 -94 37q-57 0 -86 -38.5t-29 -110.5t29 -110t86 -38q59 0 94 37z" />
    <glyph glyph-name="r" unicode="r" horiz-adv-x="333" 
d="M71 0v439h82v-58q36 68 118 68q34 0 52 -9v-84q-30 12 -64 12q-65 0 -92 -41v-327h-96z" />
    <glyph glyph-name="s" unicode="s" horiz-adv-x="465" 
d="M43 142h94q2 -38 30 -60.5t74 -22.5q38 0 61 15.5t23 44.5q0 10 -2.5 18t-10 14.5t-14 10.5t-20.5 9t-23 8t-29.5 8.5t-32.5 8.5q-29 8 -48 16t-40.5 22t-32.5 36.5t-11 52.5q0 64 49 95t120 31q76 0 123.5 -35t51.5 -103h-94q-2 31 -24 50.5t-60 19.5q-31 0 -51.5 -13.5
t-20.5 -38.5q0 -10 3 -17.5t10.5 -13.5t15 -10t21 -8.5t24 -7.5t29.5 -7.5t32 -8.5q60 -17 95 -45.5t35 -85.5q0 -70 -52.5 -102.5t-128.5 -32.5q-84 0 -137 39t-59 113z" />
    <glyph glyph-name="t" unicode="t" horiz-adv-x="334" 
d="M81 130v236h-67v73h39q25 0 35.5 11t10.5 36v89h78v-136h130v-73h-130v-225q0 -37 13.5 -54.5t49.5 -17.5q37 0 61 11v-76q-26 -14 -81 -14q-139 0 -139 140z" />
    <glyph glyph-name="u" unicode="u" horiz-adv-x="509" 
d="M65 169v270h96v-251q0 -60 17.5 -87.5t66.5 -27.5q58 0 97 39v327h96v-439h-82v57q-45 -67 -143 -67q-148 0 -148 179z" />
    <glyph glyph-name="v" unicode="v" horiz-adv-x="462" 
d="M179 0l-159 439h103l112 -338l111 338h96l-159 -439h-104z" />
    <glyph glyph-name="w" unicode="w" horiz-adv-x="694" 
d="M157 0l-135 439h97l90 -337l90 337h101l90 -337l90 337h92l-135 -439h-101l-89 326l-89 -326h-101z" />
    <glyph glyph-name="x" unicode="x" horiz-adv-x="463" 
d="M12 0l166 229l-150 210h113l95 -138l92 138h104l-148 -205l167 -234h-113l-112 162l-110 -162h-104z" />
    <glyph glyph-name="y" unicode="y" horiz-adv-x="462" 
d="M42 -199v79q27 -9 49 -9q26 0 43 14.5t30 50.5l19 52l-163 451h103l112 -338l111 338h96l-182 -502q-25 -70 -59.5 -107.5t-102.5 -37.5q-35 0 -56 9z" />
    <glyph glyph-name="z" unicode="z" horiz-adv-x="438" 
d="M43 0v64l228 300h-223v75h342v-64l-228 -300h234v-75h-353z" />
    <glyph glyph-name="braceleft" unicode="{" horiz-adv-x="317" 
d="M123 -20v130q0 45 -19 63.5t-62 18.5v70q43 0 62 18.5t19 63.5v130q0 92 43 127.5t151 35.5v-70q-65 0 -87 -18t-22 -86v-129q0 -39 -18 -67.5t-53 -39.5q35 -11 53 -39.5t18 -67.5v-129q0 -68 22 -86t87 -18v-70q-108 0 -151 35.5t-43 127.5z" />
    <glyph glyph-name="bar" unicode="|" horiz-adv-x="266" 
d="M94 -178v810h78v-810h-78z" />
    <glyph glyph-name="braceright" unicode="}" horiz-adv-x="317" 
d="M0 -183v70q65 0 87 18t22 86v129q0 39 18 67.5t53 39.5q-35 11 -53 39.5t-18 67.5v129q0 68 -22 86t-87 18v70q108 0 151 -35.5t43 -127.5v-130q0 -45 19 -63.5t62 -18.5v-70q-43 0 -62 -18.5t-19 -63.5v-130q0 -92 -43 -127.5t-151 -35.5z" />
    <glyph glyph-name="asciitilde" unicode="~" 
d="M134 161h-72q0 155 111 155q50 0 104 -46q2 -1 8.5 -7t8.5 -7.5t7.5 -6.5t8 -6.5l7.5 -4.5t8.5 -4t8.5 -2t9 -1q43 0 43 77h72q0 -155 -111 -155q-51 0 -98 41q-4 3 -14.5 12.5t-15 13t-13 9t-15.5 7.5t-14 2q-43 0 -43 -77z" />
    <glyph glyph-name="uni00A0" unicode="&#xa0;" horiz-adv-x="215" 
 />
    <glyph glyph-name="exclamdown" unicode="&#xa1;" horiz-adv-x="290" 
d="M96 -119v200l37 187h24l37 -187v-200h-98zM90 329v110h110v-110h-110z" />
    <glyph glyph-name="cent" unicode="&#xa2;" horiz-adv-x="488" 
d="M358 156h89q-6 -72 -50 -115t-114 -49v-110h-60v110q-76 10 -126.5 63.5t-50.5 164.5t50.5 164t126.5 63v111h60v-111q70 -7 114 -49.5t50 -114.5h-89q-2 34 -23 58.5t-59 30.5v-306q38 6 59 30.5t23 59.5zM139 220q0 -136 91 -153v305q-91 -17 -91 -152z" />
    <glyph glyph-name="sterling" unicode="&#xa3;" horiz-adv-x="497" 
d="M62 227v64h56q-2 2 -8.5 13t-8.5 14.5t-7.5 13t-7.5 15t-5.5 14.5t-5 16t-3 16.5t-1.5 18.5q0 66 52.5 111t139.5 45q81 0 136 -43t60 -138h-94q-5 109 -101 109q-44 0 -70 -23t-26 -63q0 -13 2 -24.5t8.5 -26.5t9 -21t13 -25.5t11.5 -21.5h150v-64h-124q3 -15 3 -30
q0 -78 -68 -121h294v-76h-421v62q51 20 78 55.5t27 78.5q0 11 -4 31h-85z" />
    <glyph glyph-name="currency" unicode="&#xa4;" 
d="M260 169q45 0 72 30t27 80t-27 80t-72 30t-72 -30t-27 -80t27 -80t72 -30zM260 96q-61 0 -105 30l-64 -65l-47 47l64 65q-30 47 -30 106t30 106l-64 65l47 47l64 -65q44 30 105 30t105 -30l64 65l47 -47l-64 -65q30 -47 30 -106t-30 -106l64 -65l-47 -47l-64 65
q-44 -30 -105 -30z" />
    <glyph glyph-name="yen" unicode="&#xa5;" horiz-adv-x="538" 
d="M63 217v57h123l-167 284h108l144 -258l143 258h105l-168 -284h124v-57h-157v-70h157v-58h-157v-89h-98v89h-157v58h157v70h-157z" />
    <glyph glyph-name="brokenbar" unicode="&#xa6;" horiz-adv-x="266" 
d="M94 -178v321h78v-321h-78zM94 311v321h78v-321h-78z" />
    <glyph glyph-name="section" unicode="&#xa7;" horiz-adv-x="502" 
d="M188 200l114 -50q30 -13 51 -31q25 22 25 57q0 48 -63 76l-114 50q-30 13 -51 31q-25 -22 -25 -57q0 -48 63 -76zM50 34h83q2 -41 31 -66t79 -25q41 0 66 16.5t25 47.5q0 26 -19.5 43.5t-59.5 35.5l-116 52q-98 44 -98 121q0 71 71 104q-28 31 -28 77q0 64 48 96t120 32
q78 0 124.5 -37.5t50.5 -109.5h-83q-3 38 -27 60t-68 22q-35 0 -57 -14.5t-22 -43.5q0 -27 19 -44t58 -35l116 -52q98 -44 98 -121q0 -71 -71 -104q28 -31 28 -77q0 -69 -50.5 -101.5t-125.5 -32.5q-85 0 -136.5 40t-55.5 116z" />
    <glyph glyph-name="dieresis" unicode="&#xa8;" horiz-adv-x="416" 
d="M67 543v93h97v-93h-97zM252 543v93h97v-93h-97z" />
    <glyph glyph-name="copyright" unicode="&#xa9;" horiz-adv-x="682" 
d="M341 37q104 0 168 66.5t64 175.5t-64 175.5t-168 66.5t-168 -66.5t-64 -175.5t64 -175.5t168 -66.5zM341 -10q-127 0 -205 79.5t-78 209.5t78 209.5t205 79.5t205 -79.5t78 -209.5t-78 -209.5t-205 -79.5zM414 227h73q-4 -60 -43.5 -93.5t-101.5 -33.5q-41 0 -75 14
t-60 56t-26 109t26 109t60 56t75 14q62 0 101.5 -33.5t43.5 -93.5h-73q-2 28 -20.5 45.5t-52.5 17.5q-84 0 -84 -115t84 -115q34 0 52.5 17.5t20.5 45.5z" />
    <glyph glyph-name="ordfeminine" unicode="&#xaa;" horiz-adv-x="375" 
d="M225 355v56l-42 -5q-62 -7 -62 -43q0 -33 41 -33q33 0 63 25zM236 322v4q-29 -43 -94 -43q-39 0 -64.5 19.5t-25.5 57.5q0 75 115 84l58 4v8q0 33 -9 47t-38 14q-27 0 -38.5 -11.5t-12.5 -35.5h-65q1 54 36.5 76t85.5 22q60 0 85 -27t25 -80v-114q0 -14 12 -14q11 0 25 6
v-45q-18 -11 -47 -11q-48 0 -48 39zM63 164v57h252v-57h-252z" />
    <glyph glyph-name="guillemotleft" unicode="&#xab;" horiz-adv-x="489" 
d="M352 77l-125 156l125 156h77l-116 -156l116 -156h-77zM189 77l-125 156l125 156h77l-116 -156l116 -156h-77z" />
    <glyph glyph-name="logicalnot" unicode="&#xac;" 
d="M61 198v76h386v-274h-81v198h-305z" />
    <glyph glyph-name="uni00AD" unicode="&#xad;" horiz-adv-x="359" 
d="M60 189v87h239v-87h-239z" />
    <glyph glyph-name="registered" unicode="&#xae;" horiz-adv-x="510" 
d="M255 270q83 0 124.5 46.5t41.5 120.5t-41.5 120.5t-124.5 46.5t-124.5 -46.5t-41.5 -120.5t41.5 -120.5t124.5 -46.5zM169 317v241h86q47 0 72.5 -20t25.5 -58q0 -55 -58 -68l69 -95h-60l-59 87h-25v-87h-51zM220 445h30q51 0 51 36q0 35 -51 35h-30v-71zM45 437
q0 90 53.5 148.5t156.5 58.5t156.5 -58.5t53.5 -148.5t-53.5 -148.5t-156.5 -58.5t-156.5 58.5t-53.5 148.5z" />
    <glyph glyph-name="macron" unicode="&#xaf;" horiz-adv-x="416" 
d="M79 557v66h258v-66h-258z" />
    <glyph glyph-name="degree" unicode="&#xb0;" horiz-adv-x="326" 
d="M239 432q0 36 -21.5 58.5t-54.5 22.5t-54.5 -22.5t-21.5 -58.5t21.5 -58.5t54.5 -22.5t54.5 22.5t21.5 58.5zM26 432q0 59 40 97.5t97 38.5t97 -38.5t40 -97.5t-40 -97.5t-97 -38.5t-97 38.5t-40 97.5z" />
    <glyph glyph-name="plusminus" unicode="&#xb1;" 
d="M61 286v76h158v160h82v-160h158v-76h-158v-161h-82v161h-158zM63 0v73h394v-73h-394z" />
    <glyph glyph-name="twosuperior" unicode="&#xb2;" horiz-adv-x="287" 
d="M143 564q48 0 80 -25.5t32 -73.5q0 -38 -19.5 -63.5t-56.5 -50.5l-37 -25q-37 -26 -41 -51h158v-52h-231v21q0 77 75 126l38 25q17 12 24.5 18t15 19t7.5 29q0 25 -13.5 38t-35.5 13q-24 0 -39 -14.5t-15 -44.5h-62q0 54 34.5 82.5t85.5 28.5z" />
    <glyph glyph-name="threesuperior" unicode="&#xb3;" horiz-adv-x="287" 
d="M147 564q49 0 80.5 -25.5t31.5 -68.5q0 -48 -46 -74q53 -24 53 -82q0 -46 -32.5 -71.5t-85.5 -25.5q-55 0 -90 28t-35 83h62q0 -60 59 -60q26 0 41 13t15 37q0 25 -17 38.5t-46 13.5h-25v47h25q56 0 56 47q0 23 -14 36t-37 13q-24 0 -39 -14.5t-15 -44.5h-61
q0 53 34.5 81.5t85.5 28.5z" />
    <glyph glyph-name="acute" unicode="&#xb4;" horiz-adv-x="416" 
d="M123 523l61 135h109l-122 -135h-48z" />
    <glyph glyph-name="mu" unicode="&#xb5;" horiz-adv-x="511" 
d="M71 -198v637h96v-327q37 -39 96 -39q49 0 68 28t19 87v251h96v-270q0 -179 -153 -179q-84 0 -126 57v-245h-96z" />
    <glyph glyph-name="paragraph" unicode="&#xb6;" horiz-adv-x="547" 
d="M221 -198v421q-81 0 -127.5 42.5t-46.5 125.5t46.5 125t127.5 42h71v-756h-71zM387 -198v756h71v-756h-71z" />
    <glyph glyph-name="periodcentered" unicode="&#xb7;" horiz-adv-x="302" 
d="M96 175v110h110v-110h-110z" />
    <glyph glyph-name="cedilla" unicode="&#xb8;" horiz-adv-x="416" 
d="M117 -121h50q3 -30 34 -30q18 0 29 10t11 28q0 39 -42 39q-28 0 -42 -19l-30 13l29 80h35l-18 -49q16 11 44 11q38 0 59.5 -20t21.5 -54q0 -38 -26 -59.5t-67 -21.5q-37 0 -60.5 18.5t-27.5 53.5z" />
    <glyph glyph-name="onesuperior" unicode="&#xb9;" horiz-adv-x="225" 
d="M107 558h58v-335h-65v252q-30 -37 -90 -37v58q36 0 61 19t36 43z" />
    <glyph glyph-name="ordmasculine" unicode="&#xba;" horiz-adv-x="374" 
d="M61 164v57h252v-57h-252zM187 341q67 0 67 84q0 86 -67 86t-67 -86q0 -84 67 -84zM187 283q-57 0 -97 33t-40 109q0 77 40 110t97 33t97 -33t40 -110q0 -76 -40 -109t-97 -33z" />
    <glyph glyph-name="guillemotright" unicode="&#xbb;" horiz-adv-x="489" 
d="M223 77l116 156l-116 156h77l125 -156l-125 -156h-77zM60 77l116 156l-116 156h77l125 -156l-125 -156h-77z" />
    <glyph glyph-name="onequarter" unicode="&#xbc;" horiz-adv-x="665" 
d="M541 335h62v-216h43v-49h-43v-70h-64v70h-162v42zM539 119v139l-102 -139h102zM95 0l362 558h68l-362 -558h-68zM107 558h58v-335h-65v252q-30 -37 -90 -37v58q36 0 61 19t36 43z" />
    <glyph glyph-name="onehalf" unicode="&#xbd;" horiz-adv-x="682" 
d="M538 341q48 0 80 -25.5t32 -73.5q0 -38 -19.5 -63.5t-56.5 -50.5l-37 -25q-37 -26 -41 -51h158v-52h-231v21q0 77 75 126l38 25q17 12 24.5 18t15 19t7.5 29q0 25 -13.5 38t-35.5 13q-24 0 -39 -14.5t-15 -44.5h-62q0 54 34.5 82.5t85.5 28.5zM95 0l362 558h68l-362 -558
h-68zM107 558h58v-335h-65v252q-30 -37 -90 -37v58q36 0 61 19t36 43z" />
    <glyph glyph-name="threequarters" unicode="&#xbe;" horiz-adv-x="727" 
d="M603 335h62v-216h43v-49h-43v-70h-64v70h-162v42zM601 119v139l-102 -139h102zM157 0l362 558h68l-362 -558h-68zM147 564q49 0 80.5 -25.5t31.5 -68.5q0 -48 -46 -74q53 -24 53 -82q0 -46 -32.5 -71.5t-85.5 -25.5q-55 0 -90 28t-35 83h62q0 -60 59 -60q26 0 41 13
t15 37q0 25 -17 38.5t-46 13.5h-25v47h25q56 0 56 47q0 23 -14 36t-37 13q-24 0 -39 -14.5t-15 -44.5h-61q0 53 34.5 81.5t85.5 28.5z" />
    <glyph glyph-name="questiondown" unicode="&#xbf;" horiz-adv-x="434" 
d="M280 439v-110h-110v110h110zM265 269v-8q0 -33 -5 -56t-18.5 -41.5t-21.5 -26t-31 -26.5q-17 -14 -26 -23t-16.5 -25t-7.5 -36q0 -35 21 -56.5t65 -21.5q96 0 96 104h85q0 -86 -51 -134t-137 -48q-85 0 -130 44.5t-45 107.5q0 27 7.5 49.5t24 41.5t26.5 28t31 25
q28 23 41 42t13 52v8h79z" />
    <glyph glyph-name="Agrave" unicode="&#xc0;" horiz-adv-x="575" 
d="M287 630l-122 135h109l61 -135h-48zM26 0l208 558h107l208 -558h-105l-41 118h-235l-41 -118h-101zM193 194h184l-92 265z" />
    <glyph glyph-name="Aacute" unicode="&#xc1;" horiz-adv-x="575" 
d="M239 630l61 135h109l-122 -135h-48zM26 0l208 558h107l208 -558h-105l-41 118h-235l-41 -118h-101zM193 194h184l-92 265z" />
    <glyph glyph-name="Acircumflex" unicode="&#xc2;" horiz-adv-x="575" 
d="M142 626l114 140h62l114 -140h-55l-90 67l-90 -67h-55zM26 0l208 558h107l208 -558h-105l-41 118h-235l-41 -118h-101zM193 194h184l-92 265z" />
    <glyph glyph-name="Atilde" unicode="&#xc3;" horiz-adv-x="575" 
d="M146 654v57q25 47 75 47q34 0 79 -31q39 -27 60 -27q37 0 68 37v-57q-25 -47 -75 -47q-36 0 -78 30q-40 28 -61 28q-37 0 -68 -37zM26 0l208 558h107l208 -558h-105l-41 118h-235l-41 -118h-101zM193 194h184l-92 265z" />
    <glyph glyph-name="Adieresis" unicode="&#xc4;" horiz-adv-x="575" 
d="M146 650v93h97v-93h-97zM331 650v93h97v-93h-97zM26 0l208 558h107l208 -558h-105l-41 118h-235l-41 -118h-101zM193 194h184l-92 265z" />
    <glyph glyph-name="Aring" unicode="&#xc5;" horiz-adv-x="575" 
d="M287 655q24 0 39 15.5t15 42.5t-15 42.5t-39 15.5t-39 -15.5t-15 -42.5t15 -42.5t39 -15.5zM287 607q-43 0 -74.5 29.5t-31.5 76.5t31.5 76.5t74.5 29.5t74.5 -29.5t31.5 -76.5t-31.5 -76.5t-74.5 -29.5zM26 0l208 558h107l208 -558h-105l-41 118h-235l-41 -118h-101z
M193 194h184l-92 265z" />
    <glyph glyph-name="AE" unicode="&#xc6;" horiz-adv-x="822" 
d="M-10 0l341 558h436v-84h-285v-148h234v-82h-234v-160h285v-84h-384v118h-214l-71 -118h-108zM210 194h173v281h-4z" />
    <glyph glyph-name="Ccedilla" unicode="&#xc7;" horiz-adv-x="594" 
d="M230 -121h50q3 -30 34 -30q18 0 29 10t11 28q0 39 -42 39q-28 0 -42 -19l-30 13l26 73q-101 12 -154.5 88.5t-53.5 197.5q0 133 64 211t186 78q101 0 165.5 -52t70.5 -145h-99q-4 47 -39 79t-96 32q-150 0 -150 -203t150 -203q61 0 96 32t39 79h99q-6 -93 -70.5 -145
t-165.5 -52h-8l-14 -39q16 11 44 11q38 0 59.5 -20t21.5 -54q0 -38 -26 -59.5t-67 -21.5q-37 0 -60.5 18.5t-27.5 53.5z" />
    <glyph glyph-name="Egrave" unicode="&#xc8;" horiz-adv-x="523" 
d="M274 630l-122 135h109l61 -135h-48zM84 0v558h384v-84h-285v-148h234v-82h-234v-160h285v-84h-384z" />
    <glyph glyph-name="Eacute" unicode="&#xc9;" horiz-adv-x="523" 
d="M226 630l61 135h109l-122 -135h-48zM84 0v558h384v-84h-285v-148h234v-82h-234v-160h285v-84h-384z" />
    <glyph glyph-name="Ecircumflex" unicode="&#xca;" horiz-adv-x="523" 
d="M129 626l114 140h62l114 -140h-55l-90 67l-90 -67h-55zM84 0v558h384v-84h-285v-148h234v-82h-234v-160h285v-84h-384z" />
    <glyph glyph-name="Edieresis" unicode="&#xcb;" horiz-adv-x="523" 
d="M133 650v93h97v-93h-97zM318 650v93h97v-93h-97zM84 0v558h384v-84h-285v-148h234v-82h-234v-160h285v-84h-384z" />
    <glyph glyph-name="Igrave" unicode="&#xcc;" horiz-adv-x="335" 
d="M167 630l-122 135h109l61 -135h-48zM44 0v65h74v428h-74v65h247v-65h-74v-428h74v-65h-247z" />
    <glyph glyph-name="Iacute" unicode="&#xcd;" horiz-adv-x="335" 
d="M119 630l61 135h109l-122 -135h-48zM44 0v65h74v428h-74v65h247v-65h-74v-428h74v-65h-247z" />
    <glyph glyph-name="Icircumflex" unicode="&#xce;" horiz-adv-x="335" 
d="M22 626l114 140h62l114 -140h-55l-90 67l-90 -67h-55zM44 0v65h74v428h-74v65h247v-65h-74v-428h74v-65h-247z" />
    <glyph glyph-name="Idieresis" unicode="&#xcf;" horiz-adv-x="335" 
d="M26 650v93h97v-93h-97zM211 650v93h97v-93h-97zM44 0v65h74v428h-74v65h247v-65h-74v-428h74v-65h-247z" />
    <glyph glyph-name="Eth" unicode="&#xd0;" horiz-adv-x="609" 
d="M29 251v69h63v238h185q136 0 205 -74.5t69 -204.5t-69 -204.5t-205 -74.5h-185v251h-63zM191 82h86q172 0 172 197t-172 197h-86v-156h106v-69h-106v-169z" />
    <glyph glyph-name="Ntilde" unicode="&#xd1;" horiz-adv-x="622" 
d="M170 654v57q25 47 75 47q34 0 79 -31q39 -27 60 -27q37 0 68 37v-57q-25 -47 -75 -47q-36 0 -78 30q-40 28 -61 28q-37 0 -68 -37zM84 0v558h118l242 -429v429h94v-558h-118l-242 429v-429h-94z" />
    <glyph glyph-name="Ograve" unicode="&#xd2;" horiz-adv-x="636" 
d="M318 630l-122 135h109l61 -135h-48zM318 76q158 0 158 203t-158 203t-158 -203t158 -203zM318 -10q-128 0 -194 77.5t-66 211.5t66 211.5t194 77.5t194 -77.5t66 -211.5t-66 -211.5t-194 -77.5z" />
    <glyph glyph-name="Oacute" unicode="&#xd3;" horiz-adv-x="636" 
d="M270 630l61 135h109l-122 -135h-48zM318 76q158 0 158 203t-158 203t-158 -203t158 -203zM318 -10q-128 0 -194 77.5t-66 211.5t66 211.5t194 77.5t194 -77.5t66 -211.5t-66 -211.5t-194 -77.5z" />
    <glyph glyph-name="Ocircumflex" unicode="&#xd4;" horiz-adv-x="636" 
d="M173 626l114 140h62l114 -140h-55l-90 67l-90 -67h-55zM318 76q158 0 158 203t-158 203t-158 -203t158 -203zM318 -10q-128 0 -194 77.5t-66 211.5t66 211.5t194 77.5t194 -77.5t66 -211.5t-66 -211.5t-194 -77.5z" />
    <glyph glyph-name="Otilde" unicode="&#xd5;" horiz-adv-x="636" 
d="M177 654v57q25 47 75 47q34 0 79 -31q39 -27 60 -27q37 0 68 37v-57q-25 -47 -75 -47q-36 0 -78 30q-40 28 -61 28q-37 0 -68 -37zM318 76q158 0 158 203t-158 203t-158 -203t158 -203zM318 -10q-128 0 -194 77.5t-66 211.5t66 211.5t194 77.5t194 -77.5t66 -211.5
t-66 -211.5t-194 -77.5z" />
    <glyph glyph-name="Odieresis" unicode="&#xd6;" horiz-adv-x="636" 
d="M177 650v93h97v-93h-97zM362 650v93h97v-93h-97zM318 76q158 0 158 203t-158 203t-158 -203t158 -203zM318 -10q-128 0 -194 77.5t-66 211.5t66 211.5t194 77.5t194 -77.5t66 -211.5t-66 -211.5t-194 -77.5z" />
    <glyph glyph-name="multiply" unicode="&#xd7;" 
d="M81 110l126 126l-126 125l53 54l126 -126l125 126l54 -53l-126 -126l126 -125l-53 -54l-126 126l-125 -126z" />
    <glyph glyph-name="Oslash" unicode="&#xd8;" horiz-adv-x="640" 
d="M73 -55l-48 42l86 100q-51 73 -51 192q0 134 66 211.5t194 77.5q99 0 164 -51l83 96l48 -42l-86 -100q51 -73 51 -192q0 -134 -66 -211.5t-194 -77.5q-99 0 -165 50zM162 279q0 -70 19 -116l244 281q-40 38 -105 38q-158 0 -158 -203zM320 76q158 0 158 203q0 69 -20 116
l-244 -282q39 -37 106 -37z" />
    <glyph glyph-name="Ugrave" unicode="&#xd9;" horiz-adv-x="600" 
d="M300 630l-122 135h109l61 -135h-48zM74 203v355h99v-342q0 -76 30.5 -108t96.5 -32t96.5 32t30.5 108v342h99v-355q0 -213 -226 -213t-226 213z" />
    <glyph glyph-name="Uacute" unicode="&#xda;" horiz-adv-x="600" 
d="M252 630l61 135h109l-122 -135h-48zM74 203v355h99v-342q0 -76 30.5 -108t96.5 -32t96.5 32t30.5 108v342h99v-355q0 -213 -226 -213t-226 213z" />
    <glyph glyph-name="Ucircumflex" unicode="&#xdb;" horiz-adv-x="600" 
d="M155 626l114 140h62l114 -140h-55l-90 67l-90 -67h-55zM74 203v355h99v-342q0 -76 30.5 -108t96.5 -32t96.5 32t30.5 108v342h99v-355q0 -213 -226 -213t-226 213z" />
    <glyph glyph-name="Udieresis" unicode="&#xdc;" horiz-adv-x="600" 
d="M159 650v93h97v-93h-97zM344 650v93h97v-93h-97zM74 203v355h99v-342q0 -76 30.5 -108t96.5 -32t96.5 32t30.5 108v342h99v-355q0 -213 -226 -213t-226 213z" />
    <glyph glyph-name="Yacute" unicode="&#xdd;" horiz-adv-x="521" 
d="M213 630l61 135h109l-122 -135h-48zM211 0v219l-203 339h109l145 -253l146 253h105l-203 -339v-219h-99z" />
    <glyph glyph-name="Thorn" unicode="&#xde;" horiz-adv-x="548" 
d="M84 0v558h99v-92h84q114 0 175.5 -45t61.5 -136t-61.5 -136t-175.5 -45h-84v-104h-99zM183 186h82q74 0 105 23.5t31 75.5t-31 75.5t-105 23.5h-82v-198z" />
    <glyph glyph-name="germandbls" unicode="&#xdf;" horiz-adv-x="529" 
d="M71 0v485q0 95 53.5 141t134.5 46q79 0 125.5 -43t46.5 -116q0 -57 -28.5 -103t-76.5 -76q67 -24 119 -74.5t52 -126.5q0 -61 -39.5 -102t-127.5 -41q-65 0 -91 14v79q38 -18 80 -18q81 0 81 73q0 53 -41.5 89t-119.5 63v64q54 29 75.5 71.5t21.5 83.5q0 42 -21.5 65.5
t-60.5 23.5q-88 0 -88 -112v-486h-95z" />
    <glyph glyph-name="agrave" unicode="&#xe0;" horiz-adv-x="488" 
d="M234 523l-122 135h109l61 -135h-48zM316 102v98l-83 -9q-99 -11 -99 -73q0 -58 73 -58q59 0 109 42zM332 52v6q-20 -27 -60 -47.5t-93 -20.5q-65 0 -102.5 33.5t-37.5 90.5q0 119 175 134l102 9v12q0 56 -16 81t-66 25q-46 0 -66 -21.5t-20 -64.5h-92q1 47 18 80
t45.5 49.5t59 23.5t65.5 7q91 0 129 -42.5t38 -127.5v-188q0 -26 25 -26q18 0 36 9v-68q-28 -16 -69 -16q-71 0 -71 62z" />
    <glyph glyph-name="aacute" unicode="&#xe1;" horiz-adv-x="488" 
d="M186 523l61 135h109l-122 -135h-48zM316 102v98l-83 -9q-99 -11 -99 -73q0 -58 73 -58q59 0 109 42zM332 52v6q-20 -27 -60 -47.5t-93 -20.5q-65 0 -102.5 33.5t-37.5 90.5q0 119 175 134l102 9v12q0 56 -16 81t-66 25q-46 0 -66 -21.5t-20 -64.5h-92q1 47 18 80
t45.5 49.5t59 23.5t65.5 7q91 0 129 -42.5t38 -127.5v-188q0 -26 25 -26q18 0 36 9v-68q-28 -16 -69 -16q-71 0 -71 62z" />
    <glyph glyph-name="acircumflex" unicode="&#xe2;" horiz-adv-x="488" 
d="M89 519l114 140h62l114 -140h-55l-90 67l-90 -67h-55zM316 102v98l-83 -9q-99 -11 -99 -73q0 -58 73 -58q59 0 109 42zM332 52v6q-20 -27 -60 -47.5t-93 -20.5q-65 0 -102.5 33.5t-37.5 90.5q0 119 175 134l102 9v12q0 56 -16 81t-66 25q-46 0 -66 -21.5t-20 -64.5h-92
q1 47 18 80t45.5 49.5t59 23.5t65.5 7q91 0 129 -42.5t38 -127.5v-188q0 -26 25 -26q18 0 36 9v-68q-28 -16 -69 -16q-71 0 -71 62z" />
    <glyph glyph-name="atilde" unicode="&#xe3;" horiz-adv-x="488" 
d="M93 547v57q25 47 75 47q34 0 79 -31q39 -27 60 -27q37 0 68 37v-57q-25 -47 -75 -47q-36 0 -78 30q-40 28 -61 28q-37 0 -68 -37zM316 102v98l-83 -9q-99 -11 -99 -73q0 -58 73 -58q59 0 109 42zM332 52v6q-20 -27 -60 -47.5t-93 -20.5q-65 0 -102.5 33.5t-37.5 90.5
q0 119 175 134l102 9v12q0 56 -16 81t-66 25q-46 0 -66 -21.5t-20 -64.5h-92q1 47 18 80t45.5 49.5t59 23.5t65.5 7q91 0 129 -42.5t38 -127.5v-188q0 -26 25 -26q18 0 36 9v-68q-28 -16 -69 -16q-71 0 -71 62z" />
    <glyph glyph-name="adieresis" unicode="&#xe4;" horiz-adv-x="488" 
d="M93 543v93h97v-93h-97zM278 543v93h97v-93h-97zM316 102v98l-83 -9q-99 -11 -99 -73q0 -58 73 -58q59 0 109 42zM332 52v6q-20 -27 -60 -47.5t-93 -20.5q-65 0 -102.5 33.5t-37.5 90.5q0 119 175 134l102 9v12q0 56 -16 81t-66 25q-46 0 -66 -21.5t-20 -64.5h-92
q1 47 18 80t45.5 49.5t59 23.5t65.5 7q91 0 129 -42.5t38 -127.5v-188q0 -26 25 -26q18 0 36 9v-68q-28 -16 -69 -16q-71 0 -71 62z" />
    <glyph glyph-name="aring" unicode="&#xe5;" horiz-adv-x="488" 
d="M234 548q24 0 39 15.5t15 42.5t-15 42.5t-39 15.5t-39 -15.5t-15 -42.5t15 -42.5t39 -15.5zM234 500q-43 0 -74.5 29.5t-31.5 76.5t31.5 76.5t74.5 29.5t74.5 -29.5t31.5 -76.5t-31.5 -76.5t-74.5 -29.5zM316 102v98l-83 -9q-99 -11 -99 -73q0 -58 73 -58q59 0 109 42z
M332 52v6q-20 -27 -60 -47.5t-93 -20.5q-65 0 -102.5 33.5t-37.5 90.5q0 119 175 134l102 9v12q0 56 -16 81t-66 25q-46 0 -66 -21.5t-20 -64.5h-92q1 47 18 80t45.5 49.5t59 23.5t65.5 7q91 0 129 -42.5t38 -127.5v-188q0 -26 25 -26q18 0 36 9v-68q-28 -16 -69 -16
q-71 0 -71 62z" />
    <glyph glyph-name="ae" unicode="&#xe6;" horiz-adv-x="758" 
d="M148 289h-92q1 46 17.5 79.5t44.5 50t57.5 23.5t63.5 7q100 0 135 -63q51 63 141 63q37 0 70 -11.5t63.5 -36t48.5 -71t18 -109.5v-15h-310q3 -141 113 -141q88 0 102 80h93q-12 -83 -70 -119t-128 -36q-103 0 -156 70q-79 -70 -175 -70q-70 0 -107.5 33t-37.5 90
q0 120 175 135l102 9v12q0 56 -16 81t-66 25q-46 0 -66 -21.5t-20 -64.5zM207 60q68 0 125 52q-15 40 -16 89l-83 -9q-99 -11 -99 -74q0 -58 73 -58zM406 263h213q-4 55 -31.5 84t-74.5 29q-96 0 -107 -113z" />
    <glyph glyph-name="ccedilla" unicode="&#xe7;" horiz-adv-x="483" 
d="M180 -121h50q3 -30 34 -30q18 0 29 10t11 28q0 39 -42 39q-28 0 -42 -19l-30 13l26 73q-74 10 -122.5 64t-48.5 163q0 65 19 112t51 71.5t66.5 35t73.5 10.5q80 0 131 -43t56 -122h-94q-2 37 -26 61t-68 24q-112 0 -112 -149q0 -150 112 -150q44 0 68 24t26 61h94
q-5 -79 -56 -122t-131 -43h-5l-14 -39q16 11 44 11q38 0 59.5 -20t21.5 -54q0 -38 -26 -59.5t-67 -21.5q-37 0 -60.5 18.5t-27.5 53.5z" />
    <glyph glyph-name="egrave" unicode="&#xe8;" horiz-adv-x="493" 
d="M247 523l-122 135h109l61 -135h-48zM141 263h213q-4 55 -31.5 84t-74.5 29q-96 0 -107 -113zM355 145h93q-12 -83 -70 -119t-128 -36q-88 0 -146.5 55.5t-58.5 174.5t59.5 174t142.5 55q38 0 72 -11t64.5 -36t48.5 -71.5t18 -109.5v-15h-310q3 -141 113 -141q88 0 102 80
z" />
    <glyph glyph-name="eacute" unicode="&#xe9;" horiz-adv-x="493" 
d="M199 523l61 135h109l-122 -135h-48zM141 263h213q-4 55 -31.5 84t-74.5 29q-96 0 -107 -113zM355 145h93q-12 -83 -70 -119t-128 -36q-88 0 -146.5 55.5t-58.5 174.5t59.5 174t142.5 55q38 0 72 -11t64.5 -36t48.5 -71.5t18 -109.5v-15h-310q3 -141 113 -141q88 0 102 80
z" />
    <glyph glyph-name="ecircumflex" unicode="&#xea;" horiz-adv-x="493" 
d="M102 519l114 140h62l114 -140h-55l-90 67l-90 -67h-55zM141 263h213q-4 55 -31.5 84t-74.5 29q-96 0 -107 -113zM355 145h93q-12 -83 -70 -119t-128 -36q-88 0 -146.5 55.5t-58.5 174.5t59.5 174t142.5 55q38 0 72 -11t64.5 -36t48.5 -71.5t18 -109.5v-15h-310
q3 -141 113 -141q88 0 102 80z" />
    <glyph glyph-name="edieresis" unicode="&#xeb;" horiz-adv-x="493" 
d="M106 543v93h97v-93h-97zM291 543v93h97v-93h-97zM141 263h213q-4 55 -31.5 84t-74.5 29q-96 0 -107 -113zM355 145h93q-12 -83 -70 -119t-128 -36q-88 0 -146.5 55.5t-58.5 174.5t59.5 174t142.5 55q38 0 72 -11t64.5 -36t48.5 -71.5t18 -109.5v-15h-310q3 -141 113 -141
q88 0 102 80z" />
    <glyph glyph-name="igrave" unicode="&#xec;" horiz-adv-x="240" 
d="M120 523l-122 135h109l61 -135h-48zM72 0v439h96v-439h-96z" />
    <glyph glyph-name="iacute" unicode="&#xed;" horiz-adv-x="240" 
d="M72 523l61 135h109l-122 -135h-48zM72 0v439h96v-439h-96z" />
    <glyph glyph-name="icircumflex" unicode="&#xee;" horiz-adv-x="240" 
d="M-25 519l114 140h62l114 -140h-55l-90 67l-90 -67h-55zM72 0v439h96v-439h-96z" />
    <glyph glyph-name="idieresis" unicode="&#xef;" horiz-adv-x="240" 
d="M-21 543v93h97v-93h-97zM164 543v93h97v-93h-97zM72 0v439h96v-439h-96z" />
    <glyph glyph-name="eth" unicode="&#xf0;" horiz-adv-x="512" 
d="M167 490v66l75 19l-40 87h97l28 -64l105 27v-66l-78 -21l58 -129q29 -67 42 -109t13 -90q0 -111 -61 -165.5t-151 -54.5q-39 0 -74 11t-66.5 35t-50.5 70.5t-19 109.5q0 62 18 108t47.5 70t60 35t62.5 11q56 0 87 -32l-51 108zM256 69q113 0 113 146t-113 146
q-114 0 -114 -146t114 -146z" />
    <glyph glyph-name="ntilde" unicode="&#xf1;" horiz-adv-x="513" 
d="M119 547v57q25 47 75 47q34 0 79 -31q39 -27 60 -27q37 0 68 37v-57q-25 -47 -75 -47q-36 0 -78 30q-40 28 -61 28q-37 0 -68 -37zM71 0v439h82v-57q43 67 145 67q150 0 150 -178v-271h-96v252q0 59 -18.5 86.5t-68.5 27.5q-63 0 -98 -39v-327h-96z" />
    <glyph glyph-name="ograve" unicode="&#xf2;" horiz-adv-x="512" 
d="M256 523l-122 135h109l61 -135h-48zM256 70q114 0 114 150q0 149 -114 149t-114 -149q0 -150 114 -150zM256 -10q-40 0 -75 11.5t-67 36t-50.5 71.5t-18.5 111t18.5 110.5t50.5 71.5t67 36t75 11t75 -11t67 -36t50.5 -71.5t18.5 -110.5t-18.5 -111t-50.5 -71.5t-67 -36
t-75 -11.5z" />
    <glyph glyph-name="oacute" unicode="&#xf3;" horiz-adv-x="512" 
d="M208 523l61 135h109l-122 -135h-48zM256 70q114 0 114 150q0 149 -114 149t-114 -149q0 -150 114 -150zM256 -10q-40 0 -75 11.5t-67 36t-50.5 71.5t-18.5 111t18.5 110.5t50.5 71.5t67 36t75 11t75 -11t67 -36t50.5 -71.5t18.5 -110.5t-18.5 -111t-50.5 -71.5t-67 -36
t-75 -11.5z" />
    <glyph glyph-name="ocircumflex" unicode="&#xf4;" horiz-adv-x="512" 
d="M111 519l114 140h62l114 -140h-55l-90 67l-90 -67h-55zM256 70q114 0 114 150q0 149 -114 149t-114 -149q0 -150 114 -150zM256 -10q-40 0 -75 11.5t-67 36t-50.5 71.5t-18.5 111t18.5 110.5t50.5 71.5t67 36t75 11t75 -11t67 -36t50.5 -71.5t18.5 -110.5t-18.5 -111
t-50.5 -71.5t-67 -36t-75 -11.5z" />
    <glyph glyph-name="otilde" unicode="&#xf5;" horiz-adv-x="512" 
d="M115 547v57q25 47 75 47q34 0 79 -31q39 -27 60 -27q37 0 68 37v-57q-25 -47 -75 -47q-36 0 -78 30q-40 28 -61 28q-37 0 -68 -37zM256 70q114 0 114 150q0 149 -114 149t-114 -149q0 -150 114 -150zM256 -10q-40 0 -75 11.5t-67 36t-50.5 71.5t-18.5 111t18.5 110.5
t50.5 71.5t67 36t75 11t75 -11t67 -36t50.5 -71.5t18.5 -110.5t-18.5 -111t-50.5 -71.5t-67 -36t-75 -11.5z" />
    <glyph glyph-name="odieresis" unicode="&#xf6;" horiz-adv-x="512" 
d="M115 543v93h97v-93h-97zM300 543v93h97v-93h-97zM256 70q114 0 114 150q0 149 -114 149t-114 -149q0 -150 114 -150zM256 -10q-40 0 -75 11.5t-67 36t-50.5 71.5t-18.5 111t18.5 110.5t50.5 71.5t67 36t75 11t75 -11t67 -36t50.5 -71.5t18.5 -110.5t-18.5 -111
t-50.5 -71.5t-67 -36t-75 -11.5z" />
    <glyph glyph-name="divide" unicode="&#xf7;" 
d="M208 24v102h104v-102h-104zM208 346v102h104v-102h-104zM61 198v76h398v-76h-398z" />
    <glyph glyph-name="oslash" unicode="&#xf8;" horiz-adv-x="516" 
d="M60 -55l-46 42l72 84q-39 57 -39 149q0 64 18.5 110.5t50.5 71.5t67 36t75 11q74 0 127 -36l71 81l46 -42l-72 -84q39 -57 39 -148q0 -64 -18.5 -111t-50.5 -71.5t-67 -36t-75 -11.5q-74 0 -127 36zM144 220q0 -49 11 -78l176 202q-26 25 -73 25q-114 0 -114 -149z
M258 70q114 0 114 150q0 44 -11 77l-176 -202q26 -25 73 -25z" />
    <glyph glyph-name="ugrave" unicode="&#xf9;" horiz-adv-x="509" 
d="M251 523l-122 135h109l61 -135h-48zM65 169v270h96v-251q0 -60 17.5 -87.5t66.5 -27.5q58 0 97 39v327h96v-439h-82v57q-45 -67 -143 -67q-148 0 -148 179z" />
    <glyph glyph-name="uacute" unicode="&#xfa;" horiz-adv-x="509" 
d="M203 523l61 135h109l-122 -135h-48zM65 169v270h96v-251q0 -60 17.5 -87.5t66.5 -27.5q58 0 97 39v327h96v-439h-82v57q-45 -67 -143 -67q-148 0 -148 179z" />
    <glyph glyph-name="ucircumflex" unicode="&#xfb;" horiz-adv-x="509" 
d="M106 519l114 140h62l114 -140h-55l-90 67l-90 -67h-55zM65 169v270h96v-251q0 -60 17.5 -87.5t66.5 -27.5q58 0 97 39v327h96v-439h-82v57q-45 -67 -143 -67q-148 0 -148 179z" />
    <glyph glyph-name="udieresis" unicode="&#xfc;" horiz-adv-x="509" 
d="M110 543v93h97v-93h-97zM295 543v93h97v-93h-97zM65 169v270h96v-251q0 -60 17.5 -87.5t66.5 -27.5q58 0 97 39v327h96v-439h-82v57q-45 -67 -143 -67q-148 0 -148 179z" />
    <glyph glyph-name="yacute" unicode="&#xfd;" horiz-adv-x="462" 
d="M187 523l61 135h109l-122 -135h-48zM42 -199v79q27 -9 49 -9q26 0 43 14.5t30 50.5l19 52l-163 451h103l112 -338l111 338h96l-182 -502q-25 -70 -59.5 -107.5t-102.5 -37.5q-35 0 -56 9z" />
    <glyph glyph-name="thorn" unicode="&#xfe;" horiz-adv-x="518" 
d="M71 -198v860h96v-266q40 53 120 53q79 0 132.5 -56t53.5 -172q0 -117 -53.5 -174t-132.5 -57q-80 0 -120 53v-241h-96zM167 331v-223q35 -37 94 -37q57 0 86 38t29 110t-29 110.5t-86 38.5q-59 0 -94 -37z" />
    <glyph glyph-name="ydieresis" unicode="&#xff;" horiz-adv-x="462" 
d="M94 543v93h97v-93h-97zM279 543v93h97v-93h-97zM42 -199v79q27 -9 49 -9q26 0 43 14.5t30 50.5l19 52l-163 451h103l112 -338l111 338h96l-182 -502q-25 -70 -59.5 -107.5t-102.5 -37.5q-35 0 -56 9z" />
    <glyph glyph-name="Amacron" unicode="&#x100;" horiz-adv-x="575" 
d="M158 664v66h258v-66h-258zM26 0l208 558h107l208 -558h-105l-41 118h-235l-41 -118h-101zM193 194h184l-92 265z" />
    <glyph glyph-name="amacron" unicode="&#x101;" horiz-adv-x="488" 
d="M105 557v66h258v-66h-258zM316 102v98l-83 -9q-99 -11 -99 -73q0 -58 73 -58q59 0 109 42zM332 52v6q-20 -27 -60 -47.5t-93 -20.5q-65 0 -102.5 33.5t-37.5 90.5q0 119 175 134l102 9v12q0 56 -16 81t-66 25q-46 0 -66 -21.5t-20 -64.5h-92q1 47 18 80t45.5 49.5
t59 23.5t65.5 7q91 0 129 -42.5t38 -127.5v-188q0 -26 25 -26q18 0 36 9v-68q-28 -16 -69 -16q-71 0 -71 62z" />
    <glyph glyph-name="Abreve" unicode="&#x102;" horiz-adv-x="575" 
d="M287 621q-129 0 -129 147h49q0 -38 21 -60t59 -22t59 22t21 60h49q0 -147 -129 -147zM26 0l208 558h107l208 -558h-105l-41 118h-235l-41 -118h-101zM193 194h184l-92 265z" />
    <glyph glyph-name="abreve" unicode="&#x103;" horiz-adv-x="488" 
d="M234 514q-129 0 -129 147h49q0 -38 21 -60t59 -22t59 22t21 60h49q0 -147 -129 -147zM316 102v98l-83 -9q-99 -11 -99 -73q0 -58 73 -58q59 0 109 42zM332 52v6q-20 -27 -60 -47.5t-93 -20.5q-65 0 -102.5 33.5t-37.5 90.5q0 119 175 134l102 9v12q0 56 -16 81t-66 25
q-46 0 -66 -21.5t-20 -64.5h-92q1 47 18 80t45.5 49.5t59 23.5t65.5 7q91 0 129 -42.5t38 -127.5v-188q0 -26 25 -26q18 0 36 9v-68q-28 -16 -69 -16q-71 0 -71 62z" />
    <glyph glyph-name="Aogonek" unicode="&#x104;" horiz-adv-x="575" 
d="M501 -116h48q-2 -36 -26 -56.5t-64 -20.5q-41 0 -66.5 20.5t-25.5 56.5q0 60 81 104l-45 130h-235l-41 -118h-101l208 558h107l208 -558q-59 -26 -89 -52.5t-30 -57.5q0 -37 34 -37t37 31zM193 194h184l-92 265z" />
    <glyph glyph-name="aogonek" unicode="&#x105;" horiz-adv-x="488" 
d="M424 -116h48q-3 -36 -27 -56.5t-64 -20.5t-65.5 20.5t-25.5 56.5q0 63 88 109q-46 8 -46 59v6q-21 -28 -60.5 -48t-91.5 -20q-62 0 -101.5 30.5t-39.5 91.5q0 31 11.5 55t29 38t43.5 24t48 14t50 6l95 8v12q0 56 -16 81t-66 25q-46 0 -66 -21.5t-20 -64.5h-92q1 47 18 80
t45.5 49.5t58.5 23.5t65 7q92 0 130 -42.5t38 -127.5v-188q0 -26 25 -26q18 0 36 9v-69q-60 -30 -89.5 -57t-29.5 -58q0 -37 34 -37t37 31zM316 102v98l-83 -9q-99 -11 -99 -73q0 -58 73 -58q59 0 109 42z" />
    <glyph glyph-name="Cacute" unicode="&#x106;" horiz-adv-x="594" 
d="M258 630l61 135h109l-122 -135h-48zM445 187h99q-6 -93 -70.5 -145t-165.5 -52q-122 0 -186 78t-64 211t64 211t186 78q101 0 165.5 -52t70.5 -145h-99q-4 47 -39 79t-96 32q-150 0 -150 -203t150 -203q61 0 96 32t39 79z" />
    <glyph glyph-name="cacute" unicode="&#x107;" horiz-adv-x="483" 
d="M208 523l61 135h109l-122 -135h-48zM348 155h94q-5 -79 -56 -122t-131 -43q-39 0 -73.5 11t-66.5 35.5t-51 71.5t-19 112t19 112t51 71.5t66.5 35t73.5 10.5q80 0 131 -43t56 -122h-94q-2 37 -26 61t-68 24q-112 0 -112 -149q0 -150 112 -150q44 0 68 24t26 61z" />
    <glyph glyph-name="Ccircumflex" unicode="&#x108;" horiz-adv-x="594" 
d="M161 626l114 140h62l114 -140h-55l-90 67l-90 -67h-55zM445 187h99q-6 -93 -70.5 -145t-165.5 -52q-122 0 -186 78t-64 211t64 211t186 78q101 0 165.5 -52t70.5 -145h-99q-4 47 -39 79t-96 32q-150 0 -150 -203t150 -203q61 0 96 32t39 79z" />
    <glyph glyph-name="ccircumflex" unicode="&#x109;" horiz-adv-x="483" 
d="M111 519l114 140h62l114 -140h-55l-90 67l-90 -67h-55zM348 155h94q-5 -79 -56 -122t-131 -43q-39 0 -73.5 11t-66.5 35.5t-51 71.5t-19 112t19 112t51 71.5t66.5 35t73.5 10.5q80 0 131 -43t56 -122h-94q-2 37 -26 61t-68 24q-112 0 -112 -149q0 -150 112 -150
q44 0 68 24t26 61z" />
    <glyph glyph-name="Cdotaccent" unicode="&#x10a;" horiz-adv-x="594" 
d="M257 650v93h98v-93h-98zM445 187h99q-6 -93 -70.5 -145t-165.5 -52q-122 0 -186 78t-64 211t64 211t186 78q101 0 165.5 -52t70.5 -145h-99q-4 47 -39 79t-96 32q-150 0 -150 -203t150 -203q61 0 96 32t39 79z" />
    <glyph glyph-name="cdotaccent" unicode="&#x10b;" horiz-adv-x="483" 
d="M207 543v93h98v-93h-98zM348 155h94q-5 -79 -56 -122t-131 -43q-39 0 -73.5 11t-66.5 35.5t-51 71.5t-19 112t19 112t51 71.5t66.5 35t73.5 10.5q80 0 131 -43t56 -122h-94q-2 37 -26 61t-68 24q-112 0 -112 -149q0 -150 112 -150q44 0 68 24t26 61z" />
    <glyph glyph-name="Ccaron" unicode="&#x10c;" horiz-adv-x="594" 
d="M275 626l-114 140h55l90 -67l90 67h55l-114 -140h-62zM445 187h99q-6 -93 -70.5 -145t-165.5 -52q-122 0 -186 78t-64 211t64 211t186 78q101 0 165.5 -52t70.5 -145h-99q-4 47 -39 79t-96 32q-150 0 -150 -203t150 -203q61 0 96 32t39 79z" />
    <glyph glyph-name="ccaron" unicode="&#x10d;" horiz-adv-x="483" 
d="M225 519l-114 140h55l90 -67l90 67h55l-114 -140h-62zM348 155h94q-5 -79 -56 -122t-131 -43q-39 0 -73.5 11t-66.5 35.5t-51 71.5t-19 112t19 112t51 71.5t66.5 35t73.5 10.5q80 0 131 -43t56 -122h-94q-2 37 -26 61t-68 24q-112 0 -112 -149q0 -150 112 -150
q44 0 68 24t26 61z" />
    <glyph glyph-name="Dcaron" unicode="&#x10e;" horiz-adv-x="601" 
d="M253 626l-114 140h55l90 -67l90 67h55l-114 -140h-62zM84 0v558h185q136 0 205 -74.5t69 -204.5t-69 -204.5t-205 -74.5h-185zM183 82h86q172 0 172 197t-172 197h-86v-394z" />
    <glyph glyph-name="dcaron" unicode="&#x10f;" horiz-adv-x="519" 
d="M364 0v54q-42 -64 -133 -64q-79 0 -132.5 56t-53.5 172q0 117 53.5 174t132.5 57q80 0 120 -53v266h96v-662h-83zM351 108v223q-35 37 -94 37q-57 0 -86 -38t-29 -110t29 -110.5t86 -38.5q59 0 94 37zM488 475l30 187h96l-89 -187h-37z" />
    <glyph glyph-name="Dcroat" unicode="&#x110;" horiz-adv-x="609" 
d="M29 251v69h63v238h185q136 0 205 -74.5t69 -204.5t-69 -204.5t-205 -74.5h-185v251h-63zM191 82h86q172 0 172 197t-172 197h-86v-156h106v-69h-106v-169z" />
    <glyph glyph-name="dcroat" unicode="&#x111;" 
d="M258 517v67h93v78h96v-78h50v-67h-50v-517h-83v54q-42 -64 -133 -64q-79 0 -132.5 56t-53.5 172q0 117 53.5 174t132.5 57q80 0 120 -53v121h-93zM351 108v223q-35 37 -94 37q-57 0 -86 -38t-29 -110t29 -110.5t86 -38.5q59 0 94 37z" />
    <glyph glyph-name="Emacron" unicode="&#x112;" horiz-adv-x="523" 
d="M145 664v66h258v-66h-258zM84 0v558h384v-84h-285v-148h234v-82h-234v-160h285v-84h-384z" />
    <glyph glyph-name="emacron" unicode="&#x113;" horiz-adv-x="493" 
d="M118 557v66h258v-66h-258zM141 263h213q-4 55 -31.5 84t-74.5 29q-96 0 -107 -113zM355 145h93q-12 -83 -70 -119t-128 -36q-88 0 -146.5 55.5t-58.5 174.5t59.5 174t142.5 55q38 0 72 -11t64.5 -36t48.5 -71.5t18 -109.5v-15h-310q3 -141 113 -141q88 0 102 80z" />
    <glyph glyph-name="Ebreve" unicode="&#x114;" horiz-adv-x="523" 
d="M274 621q-129 0 -129 147h49q0 -38 21 -60t59 -22t59 22t21 60h49q0 -147 -129 -147zM84 0v558h384v-84h-285v-148h234v-82h-234v-160h285v-84h-384z" />
    <glyph glyph-name="ebreve" unicode="&#x115;" horiz-adv-x="493" 
d="M247 514q-129 0 -129 147h49q0 -38 21 -60t59 -22t59 22t21 60h49q0 -147 -129 -147zM141 263h213q-4 55 -31.5 84t-74.5 29q-96 0 -107 -113zM355 145h93q-12 -83 -70 -119t-128 -36q-88 0 -146.5 55.5t-58.5 174.5t59.5 174t142.5 55q38 0 72 -11t64.5 -36t48.5 -71.5
t18 -109.5v-15h-310q3 -141 113 -141q88 0 102 80z" />
    <glyph glyph-name="Edotaccent" unicode="&#x116;" horiz-adv-x="523" 
d="M225 650v93h98v-93h-98zM84 0v558h384v-84h-285v-148h234v-82h-234v-160h285v-84h-384z" />
    <glyph glyph-name="edotaccent" unicode="&#x117;" horiz-adv-x="493" 
d="M198 543v93h98v-93h-98zM141 263h213q-4 55 -31.5 84t-74.5 29q-96 0 -107 -113zM355 145h93q-12 -83 -70 -119t-128 -36q-88 0 -146.5 55.5t-58.5 174.5t59.5 174t142.5 55q38 0 72 -11t64.5 -36t48.5 -71.5t18 -109.5v-15h-310q3 -141 113 -141q88 0 102 80z" />
    <glyph glyph-name="Eogonek" unicode="&#x118;" horiz-adv-x="523" 
d="M84 0v558h384v-84h-285v-148h234v-82h-234v-160h285v-84q-59 -26 -89 -52.5t-30 -57.5q0 -37 34 -37t37 31h48q-2 -36 -26 -56.5t-64 -20.5q-41 0 -66.5 20.5t-25.5 56.5q0 68 106 116h-308z" />
    <glyph glyph-name="eogonek" unicode="&#x119;" horiz-adv-x="493" 
d="M294 -116h48q-2 -36 -26 -56.5t-64 -20.5q-41 0 -66.5 20.5t-25.5 56.5q0 61 82 106q-86 3 -141.5 58.5t-55.5 170.5q0 63 17.5 109.5t48 71.5t64.5 37t73 12q38 0 71.5 -11t64 -36t48.5 -71.5t18 -109.5v-15h-310q3 -141 113 -141q88 0 102 80h93q-15 -91 -95 -133
q-34 -18 -52.5 -29t-39 -26.5t-29.5 -31.5t-9 -35q0 -37 34 -37t37 31zM141 263h213q-4 55 -31.5 84t-74.5 29q-96 0 -107 -113z" />
    <glyph glyph-name="Ecaron" unicode="&#x11a;" horiz-adv-x="523" 
d="M243 626l-114 140h55l90 -67l90 67h55l-114 -140h-62zM84 0v558h384v-84h-285v-148h234v-82h-234v-160h285v-84h-384z" />
    <glyph glyph-name="ecaron" unicode="&#x11b;" horiz-adv-x="493" 
d="M216 519l-114 140h55l90 -67l90 67h55l-114 -140h-62zM141 263h213q-4 55 -31.5 84t-74.5 29q-96 0 -107 -113zM355 145h93q-12 -83 -70 -119t-128 -36q-88 0 -146.5 55.5t-58.5 174.5t59.5 174t142.5 55q38 0 72 -11t64.5 -36t48.5 -71.5t18 -109.5v-15h-310
q3 -141 113 -141q88 0 102 80z" />
    <glyph glyph-name="Gcircumflex" unicode="&#x11c;" horiz-adv-x="628" 
d="M171 626l114 140h62l114 -140h-55l-90 67l-90 -67h-55zM315 -10q-121 0 -189 75.5t-68 211.5q0 143 69 217t186 74q97 0 162.5 -48.5t75.5 -136.5h-100q-6 44 -40.5 72t-94.5 28q-158 0 -158 -205q0 -203 163 -203q69 0 103 36.5t37 92.5h-142v77h238v-281h-77v73
q-49 -83 -165 -83z" />
    <glyph glyph-name="gcircumflex" unicode="&#x11d;" horiz-adv-x="504" 
d="M90 519l114 140h62l114 -140h-55l-90 67l-90 -67h-55zM49 290q0 79 57.5 119t128.5 40q96 0 150 -60q33 60 117 60v-88q-62 0 -89 -20q8 -24 8 -51q0 -79 -57.5 -119t-128.5 -40q-39 0 -76 12q-32 -15 -32 -41q0 -37 69 -37h112q71 0 115.5 -30t44.5 -92
q0 -72 -60.5 -111.5t-167.5 -39.5q-101 0 -156 33.5t-55 88.5q0 65 76 94q-56 22 -56 75q0 54 64 83q-64 45 -64 124zM290 -13h-131q-44 -16 -44 -59q0 -67 126 -67q135 0 135 72q0 54 -86 54zM329 290q0 41 -25 64.5t-69 23.5t-69 -23.5t-25 -64.5t25 -64.5t69 -23.5
t69 23.5t25 64.5z" />
    <glyph glyph-name="Gbreve" unicode="&#x11e;" horiz-adv-x="628" 
d="M316 621q-129 0 -129 147h49q0 -38 21 -60t59 -22t59 22t21 60h49q0 -147 -129 -147zM315 -10q-121 0 -189 75.5t-68 211.5q0 143 69 217t186 74q97 0 162.5 -48.5t75.5 -136.5h-100q-6 44 -40.5 72t-94.5 28q-158 0 -158 -205q0 -203 163 -203q69 0 103 36.5t37 92.5
h-142v77h238v-281h-77v73q-49 -83 -165 -83z" />
    <glyph glyph-name="gbreve" unicode="&#x11f;" horiz-adv-x="504" 
d="M235 514q-129 0 -129 147h49q0 -38 21 -60t59 -22t59 22t21 60h49q0 -147 -129 -147zM49 290q0 79 57.5 119t128.5 40q96 0 150 -60q33 60 117 60v-88q-62 0 -89 -20q8 -24 8 -51q0 -79 -57.5 -119t-128.5 -40q-39 0 -76 12q-32 -15 -32 -41q0 -37 69 -37h112
q71 0 115.5 -30t44.5 -92q0 -72 -60.5 -111.5t-167.5 -39.5q-101 0 -156 33.5t-55 88.5q0 65 76 94q-56 22 -56 75q0 54 64 83q-64 45 -64 124zM290 -13h-131q-44 -16 -44 -59q0 -67 126 -67q135 0 135 72q0 54 -86 54zM329 290q0 41 -25 64.5t-69 23.5t-69 -23.5t-25 -64.5
t25 -64.5t69 -23.5t69 23.5t25 64.5z" />
    <glyph glyph-name="Gdotaccent" unicode="&#x120;" horiz-adv-x="628" 
d="M267 650v93h98v-93h-98zM315 -10q-121 0 -189 75.5t-68 211.5q0 143 69 217t186 74q97 0 162.5 -48.5t75.5 -136.5h-100q-6 44 -40.5 72t-94.5 28q-158 0 -158 -205q0 -203 163 -203q69 0 103 36.5t37 92.5h-142v77h238v-281h-77v73q-49 -83 -165 -83z" />
    <glyph glyph-name="gdotaccent" unicode="&#x121;" horiz-adv-x="504" 
d="M186 543v93h98v-93h-98zM49 290q0 79 57.5 119t128.5 40q96 0 150 -60q33 60 117 60v-88q-62 0 -89 -20q8 -24 8 -51q0 -79 -57.5 -119t-128.5 -40q-39 0 -76 12q-32 -15 -32 -41q0 -37 69 -37h112q71 0 115.5 -30t44.5 -92q0 -72 -60.5 -111.5t-167.5 -39.5
q-101 0 -156 33.5t-55 88.5q0 65 76 94q-56 22 -56 75q0 54 64 83q-64 45 -64 124zM290 -13h-131q-44 -16 -44 -59q0 -67 126 -67q135 0 135 72q0 54 -86 54zM329 290q0 41 -25 64.5t-69 23.5t-69 -23.5t-25 -64.5t25 -64.5t69 -23.5t69 23.5t25 64.5z" />
    <glyph glyph-name="Gcommaaccent" unicode="&#x122;" horiz-adv-x="628" 
d="M270 -208l48 88h-48v83h92v-83l-51 -88h-41zM315 -10q-121 0 -189 75.5t-68 211.5q0 143 69 217t186 74q97 0 162.5 -48.5t75.5 -136.5h-100q-6 44 -40.5 72t-94.5 28q-158 0 -158 -205q0 -203 163 -203q69 0 103 36.5t37 92.5h-142v77h238v-281h-77v73q-49 -83 -165 -83
z" />
    <glyph glyph-name="gcommaaccent" unicode="&#x123;" horiz-adv-x="504" 
d="M282 692l-48 -88h48v-83h-92v83l51 88h41zM49 290q0 79 57.5 119t128.5 40q96 0 150 -60q33 60 117 60v-88q-62 0 -89 -20q8 -24 8 -51q0 -79 -57.5 -119t-128.5 -40q-39 0 -76 12q-32 -15 -32 -41q0 -37 69 -37h112q71 0 115.5 -30t44.5 -92q0 -72 -60.5 -111.5
t-167.5 -39.5q-101 0 -156 33.5t-55 88.5q0 65 76 94q-56 22 -56 75q0 54 64 83q-64 45 -64 124zM290 -13h-131q-44 -16 -44 -59q0 -67 126 -67q135 0 135 72q0 54 -86 54zM329 290q0 41 -25 64.5t-69 23.5t-69 -23.5t-25 -64.5t25 -64.5t69 -23.5t69 23.5t25 64.5z" />
    <glyph glyph-name="Hcircumflex" unicode="&#x124;" horiz-adv-x="619" 
d="M163 626l114 140h62l114 -140h-55l-90 67l-90 -67h-55zM84 0v558h99v-230h253v230h99v-558h-99v243h-253v-243h-99z" />
    <glyph glyph-name="hcircumflex" unicode="&#x125;" horiz-adv-x="513" 
d="M71 0v662h96v-270q42 57 132 57q149 0 149 -178v-271h-96v252q0 59 -18.5 86.5t-68.5 27.5q-63 0 -98 -39v-327h-96zM-26 684l114 140h62l114 -140h-55l-90 67l-90 -67h-55z" />
    <glyph glyph-name="Hbar" unicode="&#x126;" horiz-adv-x="629" 
d="M32 405v69h57v84h99v-84h253v84h99v-84h57v-69h-57v-405h-99v243h-253v-243h-99v405h-57zM188 328h253v77h-253v-77z" />
    <glyph glyph-name="hbar" unicode="&#x127;" horiz-adv-x="515" 
d="M23 517v67h50v78h96v-78h93v-67h-93v-125q42 57 132 57q149 0 149 -178v-271h-96v252q0 59 -18.5 86.5t-68.5 27.5q-63 0 -98 -39v-327h-96v517h-50z" />
    <glyph glyph-name="Itilde" unicode="&#x128;" horiz-adv-x="335" 
d="M26 654v57q25 47 75 47q34 0 79 -31q39 -27 60 -27q37 0 68 37v-57q-25 -47 -75 -47q-36 0 -78 30q-40 28 -61 28q-37 0 -68 -37zM44 0v65h74v428h-74v65h247v-65h-74v-428h74v-65h-247z" />
    <glyph glyph-name="itilde" unicode="&#x129;" horiz-adv-x="240" 
d="M-21 547v57q25 47 75 47q34 0 79 -31q39 -27 60 -27q37 0 68 37v-57q-25 -47 -75 -47q-36 0 -78 30q-40 28 -61 28q-37 0 -68 -37zM72 0v439h96v-439h-96z" />
    <glyph glyph-name="Imacron" unicode="&#x12a;" horiz-adv-x="335" 
d="M38 664v66h258v-66h-258zM44 0v65h74v428h-74v65h247v-65h-74v-428h74v-65h-247z" />
    <glyph glyph-name="imacron" unicode="&#x12b;" horiz-adv-x="240" 
d="M-9 557v66h258v-66h-258zM72 0v439h96v-439h-96z" />
    <glyph glyph-name="Ibreve" unicode="&#x12c;" horiz-adv-x="335" 
d="M167 621q-129 0 -129 147h49q0 -38 21 -60t59 -22t59 22t21 60h49q0 -147 -129 -147zM44 0v65h74v428h-74v65h247v-65h-74v-428h74v-65h-247z" />
    <glyph glyph-name="ibreve" unicode="&#x12d;" horiz-adv-x="240" 
d="M120 514q-129 0 -129 147h49q0 -38 21 -60t59 -22t59 22t21 60h49q0 -147 -129 -147zM72 0v439h96v-439h-96z" />
    <glyph glyph-name="Iogonek" unicode="&#x12e;" horiz-adv-x="335" 
d="M44 0v65h74v428h-74v65h247v-65h-74v-428h74v-65q-59 -26 -89 -52.5t-30 -57.5q0 -37 34 -37t37 31h48q-2 -36 -26 -56.5t-64 -20.5q-41 0 -66.5 20.5t-25.5 56.5q0 68 106 116h-171z" />
    <glyph glyph-name="iogonek" unicode="&#x12f;" horiz-adv-x="240" 
d="M119 -116h49q-2 -36 -26 -56.5t-64 -20.5q-41 0 -66.5 20.5t-25.5 56.5q0 64 86 107v448h96v-439q-59 -26 -89 -52.5t-30 -57.5q0 -37 34 -37q33 0 36 31zM66 566v96h107v-96h-107z" />
    <glyph glyph-name="Idotaccent" unicode="&#x130;" horiz-adv-x="335" 
d="M118 650v93h98v-93h-98zM44 0v65h74v428h-74v65h247v-65h-74v-428h74v-65h-247z" />
    <glyph glyph-name="dotlessi" unicode="&#x131;" horiz-adv-x="240" 
d="M72 0v439h96v-439h-96z" />
    <glyph glyph-name="IJ" unicode="&#x132;" horiz-adv-x="575" 
d="M288 -10q-214 0 -214 212h99q0 -66 27.5 -96.5t88.5 -30.5t87 32t26 109v342h99v-342q0 -120 -52 -172q-54 -54 -161 -54zM74 318v240h99v-240h-99z" />
    <glyph glyph-name="ij" unicode="&#x133;" horiz-adv-x="484" 
d="M225 -199v77q18 -6 36 -6q29 0 41 17.5t12 51.5v498h96v-505q0 -65 -32 -103.5t-100 -38.5q-37 0 -53 9zM308 566v96h108v-96h-108zM72 0v439h96v-439h-96zM66 566v96h108v-96h-108z" />
    <glyph glyph-name="Jcircumflex" unicode="&#x134;" horiz-adv-x="490" 
d="M105 626l114 140h62l114 -140h-55l-90 67l-90 -67h-55zM85 473v85h331v-378q0 -97 -44 -141q-49 -49 -147 -49q-191 0 -191 186v40h99v-40q0 -55 22.5 -79.5t69.5 -24.5q48 0 70 24t22 80v297h-232z" />
    <glyph glyph-name="jcircumflex" unicode="&#x135;" horiz-adv-x="244" 
d="M-15 -199v77q18 -6 36 -6q29 0 41 17.5t12 51.5v498h96v-505q0 -65 -32 -103.5t-100 -38.5q-37 0 -53 9zM-21 519l114 140h62l114 -140h-55l-90 67l-90 -67h-55z" />
    <glyph glyph-name="Kcommaaccent" unicode="&#x136;" horiz-adv-x="554" 
d="M254 -208l48 88h-48v83h92v-83l-51 -88h-41zM84 0v558h99v-256l232 256h120l-206 -220l219 -338h-116l-170 267l-79 -85v-182h-99z" />
    <glyph glyph-name="kcommaaccent" unicode="&#x137;" horiz-adv-x="483" 
d="M71 0v662h96v-421l186 198h110l-163 -168l165 -271h-112l-120 208l-66 -69v-139h-96zM210 -208l48 88h-48v83h92v-83l-51 -88h-41z" />
    <glyph glyph-name="kgreenlandic" unicode="&#x138;" horiz-adv-x="483" 
d="M71 0v439h96v-198l186 198h110l-163 -168l165 -271h-112l-120 208l-66 -69v-139h-96z" />
    <glyph glyph-name="Lacute" unicode="&#x139;" horiz-adv-x="465" 
d="M84 0v558h99v-473h258v-85h-357zM85 630l61 135h109l-122 -135h-48z" />
    <glyph glyph-name="lacute" unicode="&#x13a;" horiz-adv-x="238" 
d="M71 0v662h96v-662h-96zM71 688l61 135h109l-122 -135h-48z" />
    <glyph glyph-name="Lcommaaccent" unicode="&#x13b;" horiz-adv-x="465" 
d="M84 0v558h99v-473h258v-85h-357zM218 -208l48 88h-48v83h92v-83l-51 -88h-41z" />
    <glyph glyph-name="lcommaaccent" unicode="&#x13c;" horiz-adv-x="238" 
d="M71 0v662h96v-662h-96zM74 -208l48 88h-48v83h92v-83l-51 -88h-41z" />
    <glyph glyph-name="Lcaron" unicode="&#x13d;" horiz-adv-x="465" 
d="M84 0v558h99v-473h258v-85h-357zM243 371l30 187h96l-89 -187h-37z" />
    <glyph glyph-name="lcaron" unicode="&#x13e;" horiz-adv-x="248" 
d="M71 0v662h96v-662h-96zM217 475l30 187h96l-89 -187h-37z" />
    <glyph glyph-name="Ldot" unicode="&#x13f;" horiz-adv-x="465" 
d="M294 196v110h110v-110h-110zM84 0v558h99v-473h258v-85h-357z" />
    <glyph glyph-name="ldot" unicode="&#x140;" horiz-adv-x="356" 
d="M241 175v110h110v-110h-110zM71 0v662h96v-662h-96z" />
    <glyph glyph-name="Lslash" unicode="&#x141;" horiz-adv-x="475" 
d="M26 158v77l68 43v280h99v-218l131 83v-77l-131 -83v-178h258v-85h-357v201z" />
    <glyph glyph-name="lslash" unicode="&#x142;" horiz-adv-x="252" 
d="M12 195v77l66 41v349h96v-288l66 42v-78l-66 -42v-296h-96v236z" />
    <glyph glyph-name="Nacute" unicode="&#x143;" horiz-adv-x="622" 
d="M263 630l61 135h109l-122 -135h-48zM84 0v558h118l242 -429v429h94v-558h-118l-242 429v-429h-94z" />
    <glyph glyph-name="nacute" unicode="&#x144;" horiz-adv-x="513" 
d="M212 523l61 135h109l-122 -135h-48zM71 0v439h82v-57q43 67 145 67q150 0 150 -178v-271h-96v252q0 59 -18.5 86.5t-68.5 27.5q-63 0 -98 -39v-327h-96z" />
    <glyph glyph-name="Ncommaaccent" unicode="&#x145;" horiz-adv-x="622" 
d="M265 -208l48 88h-48v83h92v-83l-51 -88h-41zM84 0v558h118l242 -429v429h94v-558h-118l-242 429v-429h-94z" />
    <glyph glyph-name="ncommaaccent" unicode="&#x146;" horiz-adv-x="513" 
d="M214 -208l48 88h-48v83h92v-83l-51 -88h-41zM71 0v439h82v-57q43 67 145 67q150 0 150 -178v-271h-96v252q0 59 -18.5 86.5t-68.5 27.5q-63 0 -98 -39v-327h-96z" />
    <glyph glyph-name="Ncaron" unicode="&#x147;" horiz-adv-x="622" 
d="M280 626l-114 140h55l90 -67l90 67h55l-114 -140h-62zM84 0v558h118l242 -429v429h94v-558h-118l-242 429v-429h-94z" />
    <glyph glyph-name="ncaron" unicode="&#x148;" horiz-adv-x="513" 
d="M229 519l-114 140h55l90 -67l90 67h55l-114 -140h-62zM71 0v439h82v-57q43 67 145 67q150 0 150 -178v-271h-96v252q0 59 -18.5 86.5t-68.5 27.5q-63 0 -98 -39v-327h-96z" />
    <glyph glyph-name="napostrophe" unicode="&#x149;" horiz-adv-x="702" 
d="M260 0v439h82v-57q43 67 145 67q150 0 150 -178v-271h-96v252q0 59 -18.5 86.5t-68.5 27.5q-63 0 -98 -39v-327h-96zM172 598v-110l-61 -138h-49l57 138h-57v110h110z" />
    <glyph glyph-name="Eng" unicode="&#x14a;" horiz-adv-x="622" 
d="M84 0v558h113l247 -416v416h94v-624q0 -65 -32 -103.5t-100 -38.5q-39 0 -53 9v77q18 -6 36 -6q55 0 55 71v39l-266 447v-429h-94z" />
    <glyph glyph-name="eng" unicode="&#x14b;" horiz-adv-x="513" 
d="M263 -199v77q18 -6 36 -6q29 0 41 17.5t12 51.5v311q0 59 -18.5 86.5t-68.5 27.5q-63 0 -98 -39v-327h-96v439h82v-57q43 67 145 67q150 0 150 -178v-337q0 -65 -32 -103.5t-100 -38.5q-37 0 -53 9z" />
    <glyph glyph-name="Omacron" unicode="&#x14c;" horiz-adv-x="636" 
d="M189 664v66h258v-66h-258zM318 76q158 0 158 203t-158 203t-158 -203t158 -203zM318 -10q-128 0 -194 77.5t-66 211.5t66 211.5t194 77.5t194 -77.5t66 -211.5t-66 -211.5t-194 -77.5z" />
    <glyph glyph-name="omacron" unicode="&#x14d;" horiz-adv-x="512" 
d="M127 557v66h258v-66h-258zM256 70q114 0 114 150q0 149 -114 149t-114 -149q0 -150 114 -150zM256 -10q-40 0 -75 11.5t-67 36t-50.5 71.5t-18.5 111t18.5 110.5t50.5 71.5t67 36t75 11t75 -11t67 -36t50.5 -71.5t18.5 -110.5t-18.5 -111t-50.5 -71.5t-67 -36t-75 -11.5z
" />
    <glyph glyph-name="Obreve" unicode="&#x14e;" horiz-adv-x="636" 
d="M318 621q-129 0 -129 147h49q0 -38 21 -60t59 -22t59 22t21 60h49q0 -147 -129 -147zM318 76q158 0 158 203t-158 203t-158 -203t158 -203zM318 -10q-128 0 -194 77.5t-66 211.5t66 211.5t194 77.5t194 -77.5t66 -211.5t-66 -211.5t-194 -77.5z" />
    <glyph glyph-name="obreve" unicode="&#x14f;" horiz-adv-x="512" 
d="M256 514q-129 0 -129 147h49q0 -38 21 -60t59 -22t59 22t21 60h49q0 -147 -129 -147zM256 70q114 0 114 150q0 149 -114 149t-114 -149q0 -150 114 -150zM256 -10q-40 0 -75 11.5t-67 36t-50.5 71.5t-18.5 111t18.5 110.5t50.5 71.5t67 36t75 11t75 -11t67 -36
t50.5 -71.5t18.5 -110.5t-18.5 -111t-50.5 -71.5t-67 -36t-75 -11.5z" />
    <glyph glyph-name="Ohungarumlaut" unicode="&#x150;" horiz-adv-x="636" 
d="M212 630l50 135h105l-110 -135h-45zM379 630l50 135h105l-110 -135h-45zM318 76q158 0 158 203t-158 203t-158 -203t158 -203zM318 -10q-128 0 -194 77.5t-66 211.5t66 211.5t194 77.5t194 -77.5t66 -211.5t-66 -211.5t-194 -77.5z" />
    <glyph glyph-name="ohungarumlaut" unicode="&#x151;" horiz-adv-x="512" 
d="M150 523l50 135h105l-110 -135h-45zM317 523l50 135h105l-110 -135h-45zM256 70q114 0 114 150q0 149 -114 149t-114 -149q0 -150 114 -150zM256 -10q-40 0 -75 11.5t-67 36t-50.5 71.5t-18.5 111t18.5 110.5t50.5 71.5t67 36t75 11t75 -11t67 -36t50.5 -71.5
t18.5 -110.5t-18.5 -111t-50.5 -71.5t-67 -36t-75 -11.5z" />
    <glyph glyph-name="OE" unicode="&#x152;" horiz-adv-x="857" 
d="M802 0h-470q-136 0 -205 74.5t-69 204.5t69 204.5t205 74.5h470v-84h-285v-148h234v-82h-234v-160h285v-84zM332 82h86v394h-86q-172 0 -172 -197t172 -197z" />
    <glyph glyph-name="oe" unicode="&#x153;" horiz-adv-x="818" 
d="M575 -10q-107 0 -159 83q-51 -83 -160 -83q-40 0 -75 11.5t-67 36t-50.5 71.5t-18.5 111t18.5 110.5t50.5 71.5t67 36t75 11q109 0 160 -83q51 83 156 83q38 0 72 -11t64.5 -36t48.5 -71.5t18 -109.5v-15h-310q3 -141 113 -141q88 0 102 80h93q-12 -83 -70 -119t-128 -36
zM256 70q114 0 114 150q0 149 -114 149t-114 -149q0 -150 114 -150zM466 263h213q-4 55 -31.5 84t-74.5 29q-96 0 -107 -113z" />
    <glyph glyph-name="Racute" unicode="&#x154;" horiz-adv-x="571" 
d="M222 630l61 135h109l-122 -135h-48zM84 0v558h183q114 0 175.5 -45t61.5 -136q0 -127 -127 -162l157 -215h-117l-137 196h-97v-196h-99zM183 278h82q74 0 105 23.5t31 75.5t-31 75.5t-105 23.5h-82v-198z" />
    <glyph glyph-name="racute" unicode="&#x155;" horiz-adv-x="333" 
d="M149 523l61 135h109l-122 -135h-48zM71 0v439h82v-58q36 68 118 68q34 0 52 -9v-84q-30 12 -64 12q-65 0 -92 -41v-327h-96z" />
    <glyph glyph-name="Rcommaaccent" unicode="&#x156;" horiz-adv-x="571" 
d="M254 -208l48 88h-48v83h92v-83l-51 -88h-41zM84 0v558h183q114 0 175.5 -45t61.5 -136q0 -127 -127 -162l157 -215h-117l-137 196h-97v-196h-99zM183 278h82q74 0 105 23.5t31 75.5t-31 75.5t-105 23.5h-82v-198z" />
    <glyph glyph-name="rcommaaccent" unicode="&#x157;" horiz-adv-x="333" 
d="M72 -208l48 88h-48v83h92v-83l-51 -88h-41zM71 0v439h82v-58q36 68 118 68q34 0 52 -9v-84q-30 12 -64 12q-65 0 -92 -41v-327h-96z" />
    <glyph glyph-name="Rcaron" unicode="&#x158;" horiz-adv-x="571" 
d="M239 626l-114 140h55l90 -67l90 67h55l-114 -140h-62zM84 0v558h183q114 0 175.5 -45t61.5 -136q0 -127 -127 -162l157 -215h-117l-137 196h-97v-196h-99zM183 278h82q74 0 105 23.5t31 75.5t-31 75.5t-105 23.5h-82v-198z" />
    <glyph glyph-name="rcaron" unicode="&#x159;" horiz-adv-x="333" 
d="M166 519l-114 140h55l90 -67l90 67h55l-114 -140h-62zM71 0v439h82v-58q36 68 118 68q34 0 52 -9v-84q-30 12 -64 12q-65 0 -92 -41v-327h-96z" />
    <glyph glyph-name="Sacute" unicode="&#x15a;" horiz-adv-x="540" 
d="M224 630l61 135h109l-122 -135h-48zM50 167h100q4 -52 42 -75t91 -23t82 21.5t29 56.5q0 57 -77 78l-118 33q-136 38 -136 152q0 79 57.5 118.5t144.5 39.5q92 0 148.5 -45t62.5 -129h-100q-3 51 -36.5 73t-81.5 22q-47 0 -71.5 -19t-24.5 -53q0 -57 77 -78l117 -33
q137 -38 137 -152q0 -84 -61.5 -124t-153.5 -40q-99 0 -160.5 45.5t-67.5 131.5z" />
    <glyph glyph-name="sacute" unicode="&#x15b;" horiz-adv-x="465" 
d="M184 523l61 135h109l-122 -135h-48zM43 142h94q2 -38 30 -60.5t74 -22.5q38 0 61 15.5t23 44.5q0 10 -2.5 18t-10 14.5t-14 10.5t-20.5 9t-23 8t-29.5 8.5t-32.5 8.5q-29 8 -48 16t-40.5 22t-32.5 36.5t-11 52.5q0 64 49 95t120 31q76 0 123.5 -35t51.5 -103h-94
q-2 31 -24 50.5t-60 19.5q-31 0 -51.5 -13.5t-20.5 -38.5q0 -10 3 -17.5t10.5 -13.5t15 -10t21 -8.5t24 -7.5t29.5 -7.5t32 -8.5q60 -17 95 -45.5t35 -85.5q0 -70 -52.5 -102.5t-128.5 -32.5q-84 0 -137 39t-59 113z" />
    <glyph glyph-name="Scircumflex" unicode="&#x15c;" horiz-adv-x="540" 
d="M127 626l114 140h62l114 -140h-55l-90 67l-90 -67h-55zM50 167h100q4 -52 42 -75t91 -23t82 21.5t29 56.5q0 57 -77 78l-118 33q-136 38 -136 152q0 79 57.5 118.5t144.5 39.5q92 0 148.5 -45t62.5 -129h-100q-3 51 -36.5 73t-81.5 22q-47 0 -71.5 -19t-24.5 -53
q0 -57 77 -78l117 -33q137 -38 137 -152q0 -84 -61.5 -124t-153.5 -40q-99 0 -160.5 45.5t-67.5 131.5z" />
    <glyph glyph-name="scircumflex" unicode="&#x15d;" horiz-adv-x="465" 
d="M87 519l114 140h62l114 -140h-55l-90 67l-90 -67h-55zM43 142h94q2 -38 30 -60.5t74 -22.5q38 0 61 15.5t23 44.5q0 10 -2.5 18t-10 14.5t-14 10.5t-20.5 9t-23 8t-29.5 8.5t-32.5 8.5q-29 8 -48 16t-40.5 22t-32.5 36.5t-11 52.5q0 64 49 95t120 31q76 0 123.5 -35
t51.5 -103h-94q-2 31 -24 50.5t-60 19.5q-31 0 -51.5 -13.5t-20.5 -38.5q0 -10 3 -17.5t10.5 -13.5t15 -10t21 -8.5t24 -7.5t29.5 -7.5t32 -8.5q60 -17 95 -45.5t35 -85.5q0 -70 -52.5 -102.5t-128.5 -32.5q-84 0 -137 39t-59 113z" />
    <glyph glyph-name="Scedilla" unicode="&#x15e;" horiz-adv-x="540" 
d="M196 -121h50q3 -30 34 -30q18 0 29 10t11 28q0 39 -42 39q-28 0 -42 -19l-30 13l26 73q-80 10 -128.5 54.5t-53.5 119.5h100q4 -52 42 -75t91 -23t82 21.5t29 56.5q0 57 -77 78l-118 33q-136 38 -136 152q0 79 57.5 118.5t144.5 39.5q92 0 148.5 -45t62.5 -129h-100
q-3 51 -36.5 73t-81.5 22q-47 0 -71.5 -19t-24.5 -53q0 -57 77 -78l117 -33q137 -38 137 -152q0 -84 -61.5 -124t-153.5 -40h-12l-14 -39q16 11 44 11q38 0 59.5 -20t21.5 -54q0 -38 -26 -59.5t-67 -21.5q-37 0 -60.5 18.5t-27.5 53.5z" />
    <glyph glyph-name="scedilla" unicode="&#x15f;" horiz-adv-x="465" 
d="M163 -121h50q3 -30 34 -30q18 0 29 10t11 28q0 39 -42 39q-28 0 -42 -19l-30 13l26 73q-67 8 -109 46t-47 103h94q2 -38 30 -60.5t74 -22.5q38 0 61 15.5t23 44.5q0 10 -2.5 18t-10 14.5t-14 10.5t-20.5 9t-23 8t-29.5 8.5t-32.5 8.5q-29 8 -48 16t-40.5 22t-32.5 36.5
t-11 52.5q0 64 49 95t120 31q76 0 123.5 -35t51.5 -103h-94q-2 31 -24 50.5t-60 19.5q-31 0 -51.5 -13.5t-20.5 -38.5q0 -10 3 -17.5t10.5 -13.5t15 -10t21 -8.5t24 -7.5t29.5 -7.5t32 -8.5q60 -17 95 -45.5t35 -85.5q0 -70 -52.5 -102.5t-128.5 -32.5h-6l-14 -39
q16 11 44 11q38 0 59.5 -20t21.5 -54q0 -38 -26 -59.5t-67 -21.5q-37 0 -60.5 18.5t-27.5 53.5z" />
    <glyph glyph-name="Scaron" unicode="&#x160;" horiz-adv-x="540" 
d="M241 626l-114 140h55l90 -67l90 67h55l-114 -140h-62zM50 167h100q4 -52 42 -75t91 -23t82 21.5t29 56.5q0 57 -77 78l-118 33q-136 38 -136 152q0 79 57.5 118.5t144.5 39.5q92 0 148.5 -45t62.5 -129h-100q-3 51 -36.5 73t-81.5 22q-47 0 -71.5 -19t-24.5 -53
q0 -57 77 -78l117 -33q137 -38 137 -152q0 -84 -61.5 -124t-153.5 -40q-99 0 -160.5 45.5t-67.5 131.5z" />
    <glyph glyph-name="scaron" unicode="&#x161;" horiz-adv-x="465" 
d="M201 519l-114 140h55l90 -67l90 67h55l-114 -140h-62zM43 142h94q2 -38 30 -60.5t74 -22.5q38 0 61 15.5t23 44.5q0 10 -2.5 18t-10 14.5t-14 10.5t-20.5 9t-23 8t-29.5 8.5t-32.5 8.5q-29 8 -48 16t-40.5 22t-32.5 36.5t-11 52.5q0 64 49 95t120 31q76 0 123.5 -35
t51.5 -103h-94q-2 31 -24 50.5t-60 19.5q-31 0 -51.5 -13.5t-20.5 -38.5q0 -10 3 -17.5t10.5 -13.5t15 -10t21 -8.5t24 -7.5t29.5 -7.5t32 -8.5q60 -17 95 -45.5t35 -85.5q0 -70 -52.5 -102.5t-128.5 -32.5q-84 0 -137 39t-59 113z" />
    <glyph glyph-name="uni0162" unicode="&#x162;" horiz-adv-x="473" 
d="M190 -208l48 88h-48v83h92v-83l-51 -88h-41zM187 0v473h-168v85h435v-85h-168v-473h-99z" />
    <glyph glyph-name="uni0163" unicode="&#x163;" horiz-adv-x="334" 
d="M166 -208l48 88h-48v83h92v-83l-51 -88h-41zM81 130v236h-67v73h39q25 0 35.5 11t10.5 36v89h78v-136h130v-73h-130v-225q0 -37 13.5 -54.5t49.5 -17.5q37 0 61 11v-76q-26 -14 -81 -14q-139 0 -139 140z" />
    <glyph glyph-name="Tcaron" unicode="&#x164;" horiz-adv-x="473" 
d="M205 626l-114 140h55l90 -67l90 67h55l-114 -140h-62zM187 0v473h-168v85h435v-85h-168v-473h-99z" />
    <glyph glyph-name="tcaron" unicode="&#x165;" horiz-adv-x="334" 
d="M81 130v236h-67v73h39q25 0 35.5 11t10.5 36v89h78v-136h130v-73h-130v-225q0 -37 13.5 -54.5t49.5 -17.5q37 0 61 11v-76q-26 -14 -81 -14q-139 0 -139 140zM233 475l30 187h96l-89 -187h-37z" />
    <glyph glyph-name="Tbar" unicode="&#x166;" horiz-adv-x="483" 
d="M98 245v69h94v159h-168v85h435v-85h-168v-159h93v-69h-93v-245h-99v245h-94z" />
    <glyph glyph-name="tbar" unicode="&#x167;" horiz-adv-x="356" 
d="M41 208v69h50v89h-67v73h39q25 0 35.5 11t10.5 36v89h78v-136h130v-73h-130v-89h93v-69h-93v-67q0 -37 13.5 -54.5t49.5 -17.5q37 0 61 11v-76q-26 -14 -81 -14q-139 0 -139 140v78h-50z" />
    <glyph glyph-name="Utilde" unicode="&#x168;" horiz-adv-x="600" 
d="M159 654v57q25 47 75 47q34 0 79 -31q39 -27 60 -27q37 0 68 37v-57q-25 -47 -75 -47q-36 0 -78 30q-40 28 -61 28q-37 0 -68 -37zM74 203v355h99v-342q0 -76 30.5 -108t96.5 -32t96.5 32t30.5 108v342h99v-355q0 -213 -226 -213t-226 213z" />
    <glyph glyph-name="utilde" unicode="&#x169;" horiz-adv-x="509" 
d="M110 547v57q25 47 75 47q34 0 79 -31q39 -27 60 -27q37 0 68 37v-57q-25 -47 -75 -47q-36 0 -78 30q-40 28 -61 28q-37 0 -68 -37zM65 169v270h96v-251q0 -60 17.5 -87.5t66.5 -27.5q58 0 97 39v327h96v-439h-82v57q-45 -67 -143 -67q-148 0 -148 179z" />
    <glyph glyph-name="Umacron" unicode="&#x16a;" horiz-adv-x="600" 
d="M171 664v66h258v-66h-258zM74 203v355h99v-342q0 -76 30.5 -108t96.5 -32t96.5 32t30.5 108v342h99v-355q0 -213 -226 -213t-226 213z" />
    <glyph glyph-name="umacron" unicode="&#x16b;" horiz-adv-x="509" 
d="M122 557v66h258v-66h-258zM65 169v270h96v-251q0 -60 17.5 -87.5t66.5 -27.5q58 0 97 39v327h96v-439h-82v57q-45 -67 -143 -67q-148 0 -148 179z" />
    <glyph glyph-name="Ubreve" unicode="&#x16c;" horiz-adv-x="600" 
d="M300 621q-129 0 -129 147h49q0 -38 21 -60t59 -22t59 22t21 60h49q0 -147 -129 -147zM74 203v355h99v-342q0 -76 30.5 -108t96.5 -32t96.5 32t30.5 108v342h99v-355q0 -213 -226 -213t-226 213z" />
    <glyph glyph-name="ubreve" unicode="&#x16d;" horiz-adv-x="509" 
d="M251 514q-129 0 -129 147h49q0 -38 21 -60t59 -22t59 22t21 60h49q0 -147 -129 -147zM65 169v270h96v-251q0 -60 17.5 -87.5t66.5 -27.5q58 0 97 39v327h96v-439h-82v57q-45 -67 -143 -67q-148 0 -148 179z" />
    <glyph glyph-name="Uring" unicode="&#x16e;" horiz-adv-x="600" 
d="M300 655q24 0 39 15.5t15 42.5t-15 42.5t-39 15.5t-39 -15.5t-15 -42.5t15 -42.5t39 -15.5zM300 607q-43 0 -74.5 29.5t-31.5 76.5t31.5 76.5t74.5 29.5t74.5 -29.5t31.5 -76.5t-31.5 -76.5t-74.5 -29.5zM74 203v355h99v-342q0 -76 30.5 -108t96.5 -32t96.5 32t30.5 108
v342h99v-355q0 -213 -226 -213t-226 213z" />
    <glyph glyph-name="uring" unicode="&#x16f;" horiz-adv-x="509" 
d="M251 548q24 0 39 15.5t15 42.5t-15 42.5t-39 15.5t-39 -15.5t-15 -42.5t15 -42.5t39 -15.5zM251 500q-43 0 -74.5 29.5t-31.5 76.5t31.5 76.5t74.5 29.5t74.5 -29.5t31.5 -76.5t-31.5 -76.5t-74.5 -29.5zM65 169v270h96v-251q0 -60 17.5 -87.5t66.5 -27.5q58 0 97 39v327
h96v-439h-82v57q-45 -67 -143 -67q-148 0 -148 179z" />
    <glyph glyph-name="Uhungarumlaut" unicode="&#x170;" horiz-adv-x="600" 
d="M194 630l50 135h105l-110 -135h-45zM361 630l50 135h105l-110 -135h-45zM74 203v355h99v-342q0 -76 30.5 -108t96.5 -32t96.5 32t30.5 108v342h99v-355q0 -213 -226 -213t-226 213z" />
    <glyph glyph-name="uhungarumlaut" unicode="&#x171;" horiz-adv-x="509" 
d="M145 523l50 135h105l-110 -135h-45zM312 523l50 135h105l-110 -135h-45zM65 169v270h96v-251q0 -60 17.5 -87.5t66.5 -27.5q58 0 97 39v327h96v-439h-82v57q-45 -67 -143 -67q-148 0 -148 179z" />
    <glyph glyph-name="Uogonek" unicode="&#x172;" horiz-adv-x="600" 
d="M357 -116h48q-2 -36 -26 -56.5t-64 -20.5q-41 0 -66.5 20.5t-25.5 56.5q0 62 84 106h-7q-226 0 -226 213v355h99v-342q0 -76 30.5 -108t96.5 -32q67 0 97 32t30 108v342h99v-355q0 -75 -26.5 -120t-80.5 -72q-36 -18 -54 -28t-39.5 -26t-30.5 -32t-9 -35q0 -37 34 -37
t37 31z" />
    <glyph glyph-name="uogonek" unicode="&#x173;" horiz-adv-x="509" 
d="M390 -116h48q-2 -36 -26 -56.5t-64 -20.5q-41 0 -66.5 20.5t-25.5 56.5q0 67 100 113v60q-45 -67 -143 -67q-148 0 -148 179v270h96v-251q0 -60 17.5 -87.5t66.5 -27.5q58 0 97 39v327h96v-439q-59 -26 -89 -52.5t-30 -57.5q0 -37 34 -37t37 31z" />
    <glyph glyph-name="Wcircumflex" unicode="&#x174;" horiz-adv-x="808" 
d="M259 626l114 140h62l114 -140h-55l-90 67l-90 -67h-55zM184 0l-155 558h97l115 -439l113 439h104l114 -439l114 439h93l-155 -558h-106l-114 435l-114 -435h-106z" />
    <glyph glyph-name="wcircumflex" unicode="&#x175;" horiz-adv-x="694" 
d="M203 519l114 140h62l114 -140h-55l-90 67l-90 -67h-55zM157 0l-135 439h97l90 -337l90 337h101l90 -337l90 337h92l-135 -439h-101l-89 326l-89 -326h-101z" />
    <glyph glyph-name="Ycircumflex" unicode="&#x176;" horiz-adv-x="521" 
d="M116 626l114 140h62l114 -140h-55l-90 67l-90 -67h-55zM211 0v219l-203 339h109l145 -253l146 253h105l-203 -339v-219h-99z" />
    <glyph glyph-name="ycircumflex" unicode="&#x177;" horiz-adv-x="462" 
d="M90 519l114 140h62l114 -140h-55l-90 67l-90 -67h-55zM42 -199v79q27 -9 49 -9q26 0 43 14.5t30 50.5l19 52l-163 451h103l112 -338l111 338h96l-182 -502q-25 -70 -59.5 -107.5t-102.5 -37.5q-35 0 -56 9z" />
    <glyph glyph-name="Ydieresis" unicode="&#x178;" horiz-adv-x="521" 
d="M120 650v93h97v-93h-97zM305 650v93h97v-93h-97zM211 0v219l-203 339h109l145 -253l146 253h105l-203 -339v-219h-99z" />
    <glyph glyph-name="Zacute" unicode="&#x179;" horiz-adv-x="508" 
d="M215 630l61 135h109l-122 -135h-48zM43 0v80l293 393h-281v85h401v-80l-293 -393h305v-85h-425z" />
    <glyph glyph-name="zacute" unicode="&#x17a;" horiz-adv-x="438" 
d="M169 523l61 135h109l-122 -135h-48zM43 0v64l228 300h-223v75h342v-64l-228 -300h234v-75h-353z" />
    <glyph glyph-name="Zdotaccent" unicode="&#x17b;" horiz-adv-x="508" 
d="M214 650v93h98v-93h-98zM43 0v80l293 393h-281v85h401v-80l-293 -393h305v-85h-425z" />
    <glyph glyph-name="zdotaccent" unicode="&#x17c;" horiz-adv-x="438" 
d="M168 543v93h98v-93h-98zM43 0v64l228 300h-223v75h342v-64l-228 -300h234v-75h-353z" />
    <glyph glyph-name="Zcaron" unicode="&#x17d;" horiz-adv-x="508" 
d="M232 626l-114 140h55l90 -67l90 67h55l-114 -140h-62zM43 0v80l293 393h-281v85h401v-80l-293 -393h305v-85h-425z" />
    <glyph glyph-name="zcaron" unicode="&#x17e;" horiz-adv-x="438" 
d="M186 519l-114 140h55l90 -67l90 67h55l-114 -140h-62zM43 0v64l228 300h-223v75h342v-64l-228 -300h234v-75h-353z" />
    <glyph glyph-name="florin" unicode="&#x192;" horiz-adv-x="517" 
d="M309 290l-27 -147q-14 -78 -50 -115.5t-103 -37.5q-57 0 -83 25t-26 67q0 18 3 32h74q-2 -10 -2 -20q0 -35 32 -35q25 0 38.5 20.5t21.5 63.5l26 147h-73l12 65h72l11 60q14 78 50.5 115.5t102.5 37.5q109 0 109 -92q0 -18 -3 -32h-74q2 10 2 20q0 35 -32 35
q-45 0 -60 -84l-11 -60h98l-12 -65h-96z" />
    <glyph glyph-name="AEacute" unicode="&#x1fc;" horiz-adv-x="822" 
d="M425 630l61 135h109l-122 -135h-48zM-10 0l341 558h436v-84h-285v-148h234v-82h-234v-160h285v-84h-384v118h-214l-71 -118h-108zM210 194h173v281h-4z" />
    <glyph glyph-name="aeacute" unicode="&#x1fd;" horiz-adv-x="758" 
d="M327 523l61 135h109l-122 -135h-48zM148 289h-92q1 46 17.5 79.5t44.5 50t57.5 23.5t63.5 7q100 0 135 -63q51 63 141 63q37 0 70 -11.5t63.5 -36t48.5 -71t18 -109.5v-15h-310q3 -141 113 -141q88 0 102 80h93q-12 -83 -70 -119t-128 -36q-103 0 -156 70
q-79 -70 -175 -70q-70 0 -107.5 33t-37.5 90q0 120 175 135l102 9v12q0 56 -16 81t-66 25q-46 0 -66 -21.5t-20 -64.5zM207 60q68 0 125 52q-15 40 -16 89l-83 -9q-99 -11 -99 -74q0 -58 73 -58zM406 263h213q-4 55 -31.5 84t-74.5 29q-96 0 -107 -113z" />
    <glyph glyph-name="Oslashacute" unicode="&#x1fe;" horiz-adv-x="640" 
d="M73 -55l-48 42l86 100q-51 73 -51 192q0 134 66 211.5t194 77.5q99 0 164 -51l83 96l48 -42l-86 -100q51 -73 51 -192q0 -134 -66 -211.5t-194 -77.5q-99 0 -165 50zM320 76q158 0 158 203q0 69 -20 116l-244 -282q39 -37 106 -37zM162 279q0 -70 19 -116l244 281
q-40 38 -105 38q-158 0 -158 -203zM270 630l61 135h109l-122 -135h-48z" />
    <glyph glyph-name="oslashacute" unicode="&#x1ff;" horiz-adv-x="516" 
d="M60 -55l-46 42l72 84q-39 57 -39 149q0 64 18.5 110.5t50.5 71.5t67 36t75 11q74 0 127 -36l71 81l46 -42l-72 -84q39 -57 39 -148q0 -64 -18.5 -111t-50.5 -71.5t-67 -36t-75 -11.5q-74 0 -127 36zM144 220q0 -49 11 -78l176 202q-26 25 -73 25q-114 0 -114 -149z
M258 70q114 0 114 150q0 44 -11 77l-176 -202q26 -25 73 -25zM210 523l61 135h109l-122 -135h-48z" />
    <glyph glyph-name="Scommaaccent" unicode="&#x218;" horiz-adv-x="540" 
d="M226 -208l48 88h-48v83h92v-83l-51 -88h-41zM50 167h100q4 -52 42 -75t91 -23t82 21.5t29 56.5q0 57 -77 78l-118 33q-136 38 -136 152q0 79 57.5 118.5t144.5 39.5q92 0 148.5 -45t62.5 -129h-100q-3 51 -36.5 73t-81.5 22q-47 0 -71.5 -19t-24.5 -53q0 -57 77 -78
l117 -33q137 -38 137 -152q0 -84 -61.5 -124t-153.5 -40q-99 0 -160.5 45.5t-67.5 131.5z" />
    <glyph glyph-name="scommaaccent" unicode="&#x219;" horiz-adv-x="465" 
d="M193 -208l48 88h-48v83h92v-83l-51 -88h-41zM43 142h94q2 -38 30 -60.5t74 -22.5q38 0 61 15.5t23 44.5q0 10 -2.5 18t-10 14.5t-14 10.5t-20.5 9t-23 8t-29.5 8.5t-32.5 8.5q-29 8 -48 16t-40.5 22t-32.5 36.5t-11 52.5q0 64 49 95t120 31q76 0 123.5 -35t51.5 -103h-94
q-2 31 -24 50.5t-60 19.5q-31 0 -51.5 -13.5t-20.5 -38.5q0 -10 3 -17.5t10.5 -13.5t15 -10t21 -8.5t24 -7.5t29.5 -7.5t32 -8.5q60 -17 95 -45.5t35 -85.5q0 -70 -52.5 -102.5t-128.5 -32.5q-84 0 -137 39t-59 113z" />
    <glyph glyph-name="uni021A" unicode="&#x21a;" horiz-adv-x="473" 
d="M190 -208l48 88h-48v83h92v-83l-51 -88h-41zM187 0v473h-168v85h435v-85h-168v-473h-99z" />
    <glyph glyph-name="uni021B" unicode="&#x21b;" horiz-adv-x="334" 
d="M166 -208l48 88h-48v83h92v-83l-51 -88h-41zM81 130v236h-67v73h39q25 0 35.5 11t10.5 36v89h78v-136h130v-73h-130v-225q0 -37 13.5 -54.5t49.5 -17.5q37 0 61 11v-76q-26 -14 -81 -14q-139 0 -139 140z" />
    <glyph glyph-name="uni0237" unicode="&#x237;" horiz-adv-x="244" 
d="M-15 -199v77q18 -6 36 -6q29 0 41 17.5t12 51.5v498h96v-505q0 -65 -32 -103.5t-100 -38.5q-37 0 -53 9z" />
    <glyph glyph-name="circumflex" unicode="&#x2c6;" horiz-adv-x="416" 
d="M63 519l114 140h62l114 -140h-55l-90 67l-90 -67h-55z" />
    <glyph glyph-name="caron" unicode="&#x2c7;" horiz-adv-x="416" 
d="M177 519l-114 140h55l90 -67l90 67h55l-114 -140h-62z" />
    <glyph glyph-name="breve" unicode="&#x2d8;" horiz-adv-x="416" 
d="M208 514q-129 0 -129 147h49q0 -38 21 -60t59 -22t59 22t21 60h49q0 -147 -129 -147z" />
    <glyph glyph-name="dotaccent" unicode="&#x2d9;" horiz-adv-x="416" 
d="M159 543v93h98v-93h-98z" />
    <glyph glyph-name="ring" unicode="&#x2da;" horiz-adv-x="416" 
d="M208 548q24 0 39 15.5t15 42.5t-15 42.5t-39 15.5t-39 -15.5t-15 -42.5t15 -42.5t39 -15.5zM208 500q-43 0 -74.5 29.5t-31.5 76.5t31.5 76.5t74.5 29.5t74.5 -29.5t31.5 -76.5t-31.5 -76.5t-74.5 -29.5z" />
    <glyph glyph-name="ogonek" unicode="&#x2db;" horiz-adv-x="416" 
d="M250 -116h48q-2 -36 -26 -56.5t-64 -20.5q-41 0 -66.5 20.5t-25.5 56.5q0 46 43.5 79t124.5 61l14 -24q-59 -26 -89 -52.5t-30 -57.5q0 -37 34 -37t37 31z" />
    <glyph glyph-name="tilde" unicode="&#x2dc;" horiz-adv-x="416" 
d="M67 547v57q25 47 75 47q34 0 79 -31q39 -27 60 -27q37 0 68 37v-57q-25 -47 -75 -47q-36 0 -78 30q-40 28 -61 28q-37 0 -68 -37z" />
    <glyph glyph-name="hungarumlaut" unicode="&#x2dd;" horiz-adv-x="416" 
d="M47 523l50 135h105l-110 -135h-45zM214 523l50 135h105l-110 -135h-45z" />
    <glyph glyph-name="uni0312" unicode="&#x312;" horiz-adv-x="416" 
d="M254 692l-48 -88h48v-83h-92v83l51 88h41z" />
    <glyph glyph-name="uni0326" unicode="&#x326;" horiz-adv-x="416" 
d="M162 -208l48 88h-48v83h92v-83l-51 -88h-41z" />
    <glyph glyph-name="pi" unicode="&#x3c0;" horiz-adv-x="522" 
d="M88 0v366h-66v73h478v-73h-66v-366h-96v366h-154v-366h-96z" />
    <glyph glyph-name="Wgrave" unicode="&#x1e80;" horiz-adv-x="808" 
d="M404 630l-122 135h109l61 -135h-48zM184 0l-155 558h97l115 -439l113 439h104l114 -439l114 439h93l-155 -558h-106l-114 435l-114 -435h-106z" />
    <glyph glyph-name="wgrave" unicode="&#x1e81;" horiz-adv-x="694" 
d="M348 523l-122 135h109l61 -135h-48zM157 0l-135 439h97l90 -337l90 337h101l90 -337l90 337h92l-135 -439h-101l-89 326l-89 -326h-101z" />
    <glyph glyph-name="Wacute" unicode="&#x1e82;" horiz-adv-x="808" 
d="M356 630l61 135h109l-122 -135h-48zM184 0l-155 558h97l115 -439l113 439h104l114 -439l114 439h93l-155 -558h-106l-114 435l-114 -435h-106z" />
    <glyph glyph-name="wacute" unicode="&#x1e83;" horiz-adv-x="694" 
d="M300 523l61 135h109l-122 -135h-48zM157 0l-135 439h97l90 -337l90 337h101l90 -337l90 337h92l-135 -439h-101l-89 326l-89 -326h-101z" />
    <glyph glyph-name="Wdieresis" unicode="&#x1e84;" horiz-adv-x="808" 
d="M263 650v93h97v-93h-97zM448 650v93h97v-93h-97zM184 0l-155 558h97l115 -439l113 439h104l114 -439l114 439h93l-155 -558h-106l-114 435l-114 -435h-106z" />
    <glyph glyph-name="wdieresis" unicode="&#x1e85;" horiz-adv-x="694" 
d="M207 543v93h97v-93h-97zM392 543v93h97v-93h-97zM157 0l-135 439h97l90 -337l90 337h101l90 -337l90 337h92l-135 -439h-101l-89 326l-89 -326h-101z" />
    <glyph glyph-name="Ygrave" unicode="&#x1ef2;" horiz-adv-x="521" 
d="M261 630l-122 135h109l61 -135h-48zM211 0v219l-203 339h109l145 -253l146 253h105l-203 -339v-219h-99z" />
    <glyph glyph-name="ygrave" unicode="&#x1ef3;" horiz-adv-x="462" 
d="M235 523l-122 135h109l61 -135h-48zM42 -199v79q27 -9 49 -9q26 0 43 14.5t30 50.5l19 52l-163 451h103l112 -338l111 338h96l-182 -502q-25 -70 -59.5 -107.5t-102.5 -37.5q-35 0 -56 9z" />
    <glyph glyph-name="endash" unicode="&#x2013;" 
d="M61 198v76h398v-76h-398z" />
    <glyph glyph-name="emdash" unicode="&#x2014;" horiz-adv-x="719" 
d="M61 198v76h597v-76h-597z" />
    <glyph glyph-name="quoteleft" unicode="&#x2018;" horiz-adv-x="254" 
d="M72 350v110l61 138h49l-57 -138h57v-110h-110z" />
    <glyph glyph-name="quoteright" unicode="&#x2019;" horiz-adv-x="254" 
d="M182 598v-110l-61 -138h-49l57 138h-57v110h110z" />
    <glyph glyph-name="quotesinglbase" unicode="&#x201a;" horiz-adv-x="302" 
d="M206 110v-110l-61 -138h-49l57 138h-57v110h110z" />
    <glyph glyph-name="quotedblleft" unicode="&#x201c;" horiz-adv-x="423" 
d="M241 350v110l61 138h49l-57 -138h57v-110h-110zM72 350v110l61 138h49l-57 -138h57v-110h-110z" />
    <glyph glyph-name="quotedblright" unicode="&#x201d;" horiz-adv-x="423" 
d="M351 598v-110l-61 -138h-49l57 138h-57v110h110zM182 598v-110l-61 -138h-49l57 138h-57v110h110z" />
    <glyph glyph-name="quotedblbase" unicode="&#x201e;" horiz-adv-x="471" 
d="M375 110v-110l-61 -138h-49l57 138h-57v110h110zM206 110v-110l-61 -138h-49l57 138h-57v110h110z" />
    <glyph glyph-name="dagger" unicode="&#x2020;" horiz-adv-x="373" 
d="M155 205v254h-116v57h116v116h63v-116h116v-57h-116v-254h-63z" />
    <glyph glyph-name="daggerdbl" unicode="&#x2021;" horiz-adv-x="373" 
d="M155 39v250h-116v57h116v113h-116v57h116v116h63v-116h116v-57h-116v-113h116v-57h-116v-250h-63z" />
    <glyph glyph-name="bullet" unicode="&#x2022;" horiz-adv-x="316" 
d="M66 233q0 40 23.5 65.5t68.5 25.5t68.5 -25.5t23.5 -65.5t-23.5 -65.5t-68.5 -25.5t-68.5 25.5t-23.5 65.5z" />
    <glyph glyph-name="ellipsis" unicode="&#x2026;" horiz-adv-x="710" 
d="M90 0v108h108v-108h-108zM301 0v108h108v-108h-108zM512 0v108h108v-108h-108z" />
    <glyph glyph-name="perthousand" unicode="&#x2030;" horiz-adv-x="1090" 
d="M906 52q73 0 73 99t-73 99t-73 -99t73 -99zM906 -10q-60 0 -101.5 38t-41.5 123t41.5 123t101.5 38t101.5 -38t41.5 -123t-41.5 -123t-101.5 -38zM184 308q73 0 73 99t-73 99t-73 -99t73 -99zM184 246q-60 0 -101.5 38t-41.5 123t41.5 123t101.5 38t101.5 -38t41.5 -123
t-41.5 -123t-101.5 -38zM163 0l361 558h79l-361 -558h-79zM582 52q73 0 73 99t-73 99t-73 -99t73 -99zM582 -10q-60 0 -101.5 38t-41.5 123t41.5 123t101.5 38t101.5 -38t41.5 -123t-41.5 -123t-101.5 -38z" />
    <glyph glyph-name="guilsinglleft" unicode="&#x2039;" horiz-adv-x="326" 
d="M189 77l-125 156l125 156h77l-116 -156l116 -156h-77z" />
    <glyph glyph-name="guilsinglright" unicode="&#x203a;" horiz-adv-x="326" 
d="M60 77l116 156l-116 156h77l125 -156l-125 -156h-77z" />
    <glyph glyph-name="fraction" unicode="&#x2044;" horiz-adv-x="170" 
d="M-130 0l362 558h68l-362 -558h-68z" />
    <glyph glyph-name="uni2070" unicode="&#x2070;" horiz-adv-x="328" 
d="M164 272q69 0 69 119t-69 119t-69 -119t69 -119zM164 218q-67 0 -101.5 46.5t-34.5 126.5t34.5 126.5t101.5 46.5t101.5 -46.5t34.5 -126.5t-34.5 -126.5t-101.5 -46.5z" />
    <glyph glyph-name="uni2074" unicode="&#x2074;" horiz-adv-x="303" 
d="M179 558h62v-216h43v-49h-43v-70h-64v70h-162v42zM177 342v139l-102 -139h102z" />
    <glyph glyph-name="uni2075" unicode="&#x2075;" horiz-adv-x="287" 
d="M49 558h202v-54h-149l-6 -80q27 18 66 18q48 0 78 -29.5t30 -81.5q0 -54 -33 -84t-87 -30q-52 0 -87.5 28.5t-35.5 82.5h62q0 -30 16.5 -45t41.5 -15q27 0 42.5 16t15.5 46t-16.5 45.5t-45.5 15.5q-38 0 -71 -26l-36 10z" />
    <glyph glyph-name="uni2076" unicode="&#x2076;" horiz-adv-x="303" 
d="M166 564q51 0 82.5 -29t31.5 -81h-62q0 58 -53 58q-67 0 -71 -108q30 28 80 28q47 0 76.5 -29.5t29.5 -76.5q0 -48 -32 -78.5t-85 -30.5q-62 0 -98.5 44.5t-36.5 126.5q0 84 37.5 130t100.5 46zM157 383q-37 0 -62 -22q8 -93 67 -93q24 0 38.5 15.5t14.5 41.5
q0 27 -15.5 42.5t-42.5 15.5z" />
    <glyph glyph-name="uni2077" unicode="&#x2077;" horiz-adv-x="244" 
d="M6 558h220v-49q-95 -105 -95 -268v-18h-66v25q0 72 23.5 142.5t62.5 113.5h-145v54z" />
    <glyph glyph-name="uni2078" unicode="&#x2078;" horiz-adv-x="297" 
d="M149 564q49 0 83.5 -24t34.5 -70q0 -51 -48 -76q56 -23 56 -80q0 -47 -36.5 -72t-89.5 -25t-89.5 25t-36.5 72q0 58 55 80q-47 25 -47 76q0 46 34.5 70t83.5 24zM149 371q-27 0 -44.5 -12.5t-17.5 -39.5t18 -39.5t44 -12.5t44 12.5t18 39.5t-17.5 39.5t-44.5 12.5z
M149 514q-23 0 -38.5 -12t-15.5 -36q0 -25 15.5 -37t38.5 -12t38.5 12t15.5 37q0 24 -15.5 36t-38.5 12z" />
    <glyph glyph-name="uni2079" unicode="&#x2079;" horiz-adv-x="302" 
d="M139 564q62 0 98.5 -44.5t36.5 -127.5q0 -84 -37.5 -129.5t-99.5 -45.5q-51 0 -82.5 29t-31.5 81h62q0 -58 52 -58q66 0 71 106q-31 -26 -80 -26q-47 0 -76 29.5t-29 76.5q0 48 32 78.5t84 30.5zM145 398q37 0 62 20q-8 95 -67 95q-24 0 -38.5 -15.5t-14.5 -41.5
q0 -27 15.5 -42.5t42.5 -15.5z" />
    <glyph glyph-name="uni2080" unicode="&#x2080;" horiz-adv-x="358" 
d="M164 49q69 0 69 119t-69 119t-69 -119t69 -119zM164 -5q-67 0 -101.5 46.5t-34.5 126.5t34.5 126.5t101.5 46.5t101.5 -46.5t34.5 -126.5t-34.5 -126.5t-101.5 -46.5z" />
    <glyph glyph-name="uni2081" unicode="&#x2081;" horiz-adv-x="225" 
d="M107 335h58v-335h-65v252q-30 -37 -90 -37v58q36 0 61 19t36 43z" />
    <glyph glyph-name="uni2082" unicode="&#x2082;" horiz-adv-x="287" 
d="M143 341q48 0 80 -25.5t32 -73.5q0 -38 -19.5 -63.5t-56.5 -50.5l-37 -25q-37 -26 -41 -51h158v-52h-231v21q0 77 75 126l38 25q17 12 24.5 18t15 19t7.5 29q0 25 -13.5 38t-35.5 13q-24 0 -39 -14.5t-15 -44.5h-62q0 54 34.5 82.5t85.5 28.5z" />
    <glyph glyph-name="uni2083" unicode="&#x2083;" horiz-adv-x="287" 
d="M147 341q49 0 80.5 -25.5t31.5 -68.5q0 -48 -46 -74q53 -24 53 -82q0 -46 -32.5 -71.5t-85.5 -25.5q-55 0 -90 28t-35 83h62q0 -60 59 -60q26 0 41 13t15 37q0 25 -17 38.5t-46 13.5h-25v47h25q56 0 56 47q0 23 -14 36t-37 13q-24 0 -39 -14.5t-15 -44.5h-61
q0 53 34.5 81.5t85.5 28.5z" />
    <glyph glyph-name="uni2084" unicode="&#x2084;" horiz-adv-x="303" 
d="M179 335h62v-216h43v-49h-43v-70h-64v70h-162v42zM177 119v139l-102 -139h102z" />
    <glyph glyph-name="uni2085" unicode="&#x2085;" horiz-adv-x="287" 
d="M49 335h202v-54h-149l-6 -80q27 18 66 18q48 0 78 -29.5t30 -81.5q0 -54 -33 -84t-87 -30q-52 0 -87.5 28.5t-35.5 82.5h62q0 -30 16.5 -45t41.5 -15q27 0 42.5 16t15.5 46t-16.5 45.5t-45.5 15.5q-38 0 -71 -26l-36 10z" />
    <glyph glyph-name="uni2086" unicode="&#x2086;" horiz-adv-x="303" 
d="M166 341q51 0 82.5 -29t31.5 -81h-62q0 58 -53 58q-67 0 -71 -108q30 28 80 28q47 0 76.5 -29.5t29.5 -76.5q0 -48 -32 -78.5t-85 -30.5q-62 0 -98.5 44.5t-36.5 126.5q0 84 37.5 130t100.5 46zM157 160q-37 0 -62 -22q8 -93 67 -93q24 0 38.5 15.5t14.5 41.5
q0 27 -15.5 42.5t-42.5 15.5z" />
    <glyph glyph-name="uni2087" unicode="&#x2087;" horiz-adv-x="244" 
d="M6 335h220v-49q-95 -105 -95 -268v-18h-66v25q0 72 23.5 142.5t62.5 113.5h-145v54z" />
    <glyph glyph-name="uni2088" unicode="&#x2088;" horiz-adv-x="297" 
d="M149 341q49 0 83.5 -24t34.5 -70q0 -51 -48 -76q56 -23 56 -80q0 -47 -36.5 -72t-89.5 -25t-89.5 25t-36.5 72q0 58 55 80q-47 25 -47 76q0 46 34.5 70t83.5 24zM149 148q-27 0 -44.5 -12.5t-17.5 -39.5t18 -39.5t44 -12.5t44 12.5t18 39.5t-17.5 39.5t-44.5 12.5z
M149 291q-23 0 -38.5 -12t-15.5 -36q0 -25 15.5 -37t38.5 -12t38.5 12t15.5 37q0 24 -15.5 36t-38.5 12z" />
    <glyph glyph-name="uni2089" unicode="&#x2089;" horiz-adv-x="302" 
d="M139 341q62 0 98.5 -44.5t36.5 -127.5q0 -84 -37.5 -129.5t-99.5 -45.5q-51 0 -82.5 29t-31.5 81h62q0 -58 52 -58q66 0 71 106q-31 -26 -80 -26q-47 0 -76 29.5t-29 76.5q0 48 32 78.5t84 30.5zM145 175q37 0 62 20q-8 95 -67 95q-24 0 -38.5 -15.5t-14.5 -41.5
q0 -27 15.5 -42.5t42.5 -15.5z" />
    <glyph glyph-name="Euro" unicode="&#x20ac;" horiz-adv-x="613" 
d="M31 323v51h74q19 91 78 142.5t154 51.5t157 -51t69 -143h-94q-4 51 -37.5 84t-92.5 33q-109 0 -137 -117h169v-51h-176q-2 -30 -2 -44q0 -16 2 -44h176v-51h-169q28 -117 137 -117q59 0 92.5 33t37.5 84h94q-7 -92 -69 -143t-157 -51t-154 51.5t-78 142.5h-74v51h67
q-2 28 -2 44t2 44h-67z" />
    <glyph glyph-name="trademark" unicode="&#x2122;" horiz-adv-x="562" 
d="M260 317v241h59l56 -113l57 113h56v-241h-51v160l-45 -93h-36l-45 93v-160h-51zM110 317v194h-64v47h181v-47h-64v-194h-53z" />
    <glyph glyph-name="Omega" unicode="&#x2126;" horiz-adv-x="622" 
d="M54 0v79h114q-105 82 -105 236q0 115 63.5 184t184.5 69t184.5 -69t63.5 -184q0 -154 -105 -236h114v-79h-210v61q100 93 100 236q0 189 -147 189t-147 -189q0 -143 100 -236v-61h-210z" />
    <glyph glyph-name="uni2153" unicode="&#x2153;" horiz-adv-x="682" 
d="M542 341q49 0 80.5 -25.5t31.5 -68.5q0 -48 -46 -74q53 -24 53 -82q0 -46 -32.5 -71.5t-85.5 -25.5q-55 0 -90 28t-35 83h62q0 -60 59 -60q26 0 41 13t15 37q0 25 -17 38.5t-46 13.5h-25v47h25q56 0 56 47q0 23 -14 36t-37 13q-24 0 -39 -14.5t-15 -44.5h-61
q0 53 34.5 81.5t85.5 28.5zM95 0l362 558h68l-362 -558h-68zM107 558h58v-335h-65v252q-30 -37 -90 -37v58q36 0 61 19t36 43z" />
    <glyph glyph-name="uni2154" unicode="&#x2154;" horiz-adv-x="746" 
d="M606 341q49 0 80.5 -25.5t31.5 -68.5q0 -48 -46 -74q53 -24 53 -82q0 -46 -32.5 -71.5t-85.5 -25.5q-55 0 -90 28t-35 83h62q0 -60 59 -60q26 0 41 13t15 37q0 25 -17 38.5t-46 13.5h-25v47h25q56 0 56 47q0 23 -14 36t-37 13q-24 0 -39 -14.5t-15 -44.5h-61
q0 53 34.5 81.5t85.5 28.5zM159 0l362 558h68l-362 -558h-68zM143 564q48 0 80 -25.5t32 -73.5q0 -38 -19.5 -63.5t-56.5 -50.5l-37 -25q-37 -26 -41 -51h158v-52h-231v21q0 77 75 126l38 25q17 12 24.5 18t15 19t7.5 29q0 25 -13.5 38t-35.5 13q-24 0 -39 -14.5t-15 -44.5
h-62q0 54 34.5 82.5t85.5 28.5z" />
    <glyph glyph-name="uni2155" unicode="&#x2155;" horiz-adv-x="682" 
d="M444 335h202v-54h-149l-6 -80q27 18 66 18q48 0 78 -29.5t30 -81.5q0 -54 -33 -84t-87 -30q-52 0 -87.5 28.5t-35.5 82.5h62q0 -30 16.5 -45t41.5 -15q27 0 42.5 16t15.5 46t-16.5 45.5t-45.5 15.5q-38 0 -71 -26l-36 10zM95 0l362 558h68l-362 -558h-68zM107 558h58
v-335h-65v252q-30 -37 -90 -37v58q36 0 61 19t36 43z" />
    <glyph glyph-name="uni2156" unicode="&#x2156;" horiz-adv-x="746" 
d="M508 335h202v-54h-149l-6 -80q27 18 66 18q48 0 78 -29.5t30 -81.5q0 -54 -33 -84t-87 -30q-52 0 -87.5 28.5t-35.5 82.5h62q0 -30 16.5 -45t41.5 -15q27 0 42.5 16t15.5 46t-16.5 45.5t-45.5 15.5q-38 0 -71 -26l-36 10zM159 0l362 558h68l-362 -558h-68zM143 564
q48 0 80 -25.5t32 -73.5q0 -38 -19.5 -63.5t-56.5 -50.5l-37 -25q-37 -26 -41 -51h158v-52h-231v21q0 77 75 126l38 25q17 12 24.5 18t15 19t7.5 29q0 25 -13.5 38t-35.5 13q-24 0 -39 -14.5t-15 -44.5h-62q0 54 34.5 82.5t85.5 28.5z" />
    <glyph glyph-name="uni2157" unicode="&#x2157;" horiz-adv-x="744" 
d="M506 335h202v-54h-149l-6 -80q27 18 66 18q48 0 78 -29.5t30 -81.5q0 -54 -33 -84t-87 -30q-52 0 -87.5 28.5t-35.5 82.5h62q0 -30 16.5 -45t41.5 -15q27 0 42.5 16t15.5 46t-16.5 45.5t-45.5 15.5q-38 0 -71 -26l-36 10zM157 0l362 558h68l-362 -558h-68zM147 564
q49 0 80.5 -25.5t31.5 -68.5q0 -48 -46 -74q53 -24 53 -82q0 -46 -32.5 -71.5t-85.5 -25.5q-55 0 -90 28t-35 83h62q0 -60 59 -60q26 0 41 13t15 37q0 25 -17 38.5t-46 13.5h-25v47h25q56 0 56 47q0 23 -14 36t-37 13q-24 0 -39 -14.5t-15 -44.5h-61q0 53 34.5 81.5
t85.5 28.5z" />
    <glyph glyph-name="uni2158" unicode="&#x2158;" horiz-adv-x="760" 
d="M522 335h202v-54h-149l-6 -80q27 18 66 18q48 0 78 -29.5t30 -81.5q0 -54 -33 -84t-87 -30q-52 0 -87.5 28.5t-35.5 82.5h62q0 -30 16.5 -45t41.5 -15q27 0 42.5 16t15.5 46t-16.5 45.5t-45.5 15.5q-38 0 -71 -26l-36 10zM173 0l362 558h68l-362 -558h-68zM179 558h62
v-216h43v-49h-43v-70h-64v70h-162v42zM177 342v139l-102 -139h102z" />
    <glyph glyph-name="uni2159" unicode="&#x2159;" horiz-adv-x="698" 
d="M561 341q51 0 82.5 -29t31.5 -81h-62q0 58 -53 58q-67 0 -71 -108q30 28 80 28q47 0 76.5 -29.5t29.5 -76.5q0 -48 -32 -78.5t-85 -30.5q-62 0 -98.5 44.5t-36.5 126.5q0 84 37.5 130t100.5 46zM552 160q-37 0 -62 -22q8 -93 67 -93q24 0 38.5 15.5t14.5 41.5
q0 27 -15.5 42.5t-42.5 15.5zM95 0l362 558h68l-362 -558h-68zM107 558h58v-335h-65v252q-30 -37 -90 -37v58q36 0 61 19t36 43z" />
    <glyph glyph-name="uni215A" unicode="&#x215a;" horiz-adv-x="760" 
d="M623 341q51 0 82.5 -29t31.5 -81h-62q0 58 -53 58q-67 0 -71 -108q30 28 80 28q47 0 76.5 -29.5t29.5 -76.5q0 -48 -32 -78.5t-85 -30.5q-62 0 -98.5 44.5t-36.5 126.5q0 84 37.5 130t100.5 46zM614 160q-37 0 -62 -22q8 -93 67 -93q24 0 38.5 15.5t14.5 41.5
q0 27 -15.5 42.5t-42.5 15.5zM157 0l362 558h68l-362 -558h-68zM49 558h202v-54h-149l-6 -80q27 18 66 18q48 0 78 -29.5t30 -81.5q0 -54 -33 -84t-87 -30q-52 0 -87.5 28.5t-35.5 82.5h62q0 -30 16.5 -45t41.5 -15q27 0 42.5 16t15.5 46t-16.5 45.5t-45.5 15.5
q-38 0 -71 -26l-36 10z" />
    <glyph glyph-name="uni215B" unicode="&#x215b;" horiz-adv-x="692" 
d="M544 341q49 0 83.5 -24t34.5 -70q0 -51 -48 -76q56 -23 56 -80q0 -47 -36.5 -72t-89.5 -25t-89.5 25t-36.5 72q0 58 55 80q-47 25 -47 76q0 46 34.5 70t83.5 24zM544 148q-27 0 -44.5 -12.5t-17.5 -39.5t18 -39.5t44 -12.5t44 12.5t18 39.5t-17.5 39.5t-44.5 12.5z
M544 291q-23 0 -38.5 -12t-15.5 -36q0 -25 15.5 -37t38.5 -12t38.5 12t15.5 37q0 24 -15.5 36t-38.5 12zM95 0l362 558h68l-362 -558h-68zM107 558h58v-335h-65v252q-30 -37 -90 -37v58q36 0 61 19t36 43z" />
    <glyph glyph-name="uni215C" unicode="&#x215c;" horiz-adv-x="754" 
d="M606 341q49 0 83.5 -24t34.5 -70q0 -51 -48 -76q56 -23 56 -80q0 -47 -36.5 -72t-89.5 -25t-89.5 25t-36.5 72q0 58 55 80q-47 25 -47 76q0 46 34.5 70t83.5 24zM606 148q-27 0 -44.5 -12.5t-17.5 -39.5t18 -39.5t44 -12.5t44 12.5t18 39.5t-17.5 39.5t-44.5 12.5z
M606 291q-23 0 -38.5 -12t-15.5 -36q0 -25 15.5 -37t38.5 -12t38.5 12t15.5 37q0 24 -15.5 36t-38.5 12zM157 0l362 558h68l-362 -558h-68zM147 564q49 0 80.5 -25.5t31.5 -68.5q0 -48 -46 -74q53 -24 53 -82q0 -46 -32.5 -71.5t-85.5 -25.5q-55 0 -90 28t-35 83h62
q0 -60 59 -60q26 0 41 13t15 37q0 25 -17 38.5t-46 13.5h-25v47h25q56 0 56 47q0 23 -14 36t-37 13q-24 0 -39 -14.5t-15 -44.5h-61q0 53 34.5 81.5t85.5 28.5z" />
    <glyph glyph-name="uni215D" unicode="&#x215d;" horiz-adv-x="754" 
d="M606 341q49 0 83.5 -24t34.5 -70q0 -51 -48 -76q56 -23 56 -80q0 -47 -36.5 -72t-89.5 -25t-89.5 25t-36.5 72q0 58 55 80q-47 25 -47 76q0 46 34.5 70t83.5 24zM606 148q-27 0 -44.5 -12.5t-17.5 -39.5t18 -39.5t44 -12.5t44 12.5t18 39.5t-17.5 39.5t-44.5 12.5z
M606 291q-23 0 -38.5 -12t-15.5 -36q0 -25 15.5 -37t38.5 -12t38.5 12t15.5 37q0 24 -15.5 36t-38.5 12zM157 0l362 558h68l-362 -558h-68zM49 558h202v-54h-149l-6 -80q27 18 66 18q48 0 78 -29.5t30 -81.5q0 -54 -33 -84t-87 -30q-52 0 -87.5 28.5t-35.5 82.5h62
q0 -30 16.5 -45t41.5 -15q27 0 42.5 16t15.5 46t-16.5 45.5t-45.5 15.5q-38 0 -71 -26l-36 10z" />
    <glyph glyph-name="uni215E" unicode="&#x215e;" horiz-adv-x="691" 
d="M543 341q49 0 83.5 -24t34.5 -70q0 -51 -48 -76q56 -23 56 -80q0 -47 -36.5 -72t-89.5 -25t-89.5 25t-36.5 72q0 58 55 80q-47 25 -47 76q0 46 34.5 70t83.5 24zM543 148q-27 0 -44.5 -12.5t-17.5 -39.5t18 -39.5t44 -12.5t44 12.5t18 39.5t-17.5 39.5t-44.5 12.5z
M543 291q-23 0 -38.5 -12t-15.5 -36q0 -25 15.5 -37t38.5 -12t38.5 12t15.5 37q0 24 -15.5 36t-38.5 12zM94 0l362 558h68l-362 -558h-68zM6 558h220v-49q-95 -105 -95 -268v-18h-66v25q0 72 23.5 142.5t62.5 113.5h-145v54z" />
    <glyph glyph-name="uni2190" unicode="&#x2190;" horiz-adv-x="620" 
d="M42 281l207 207l51 -51l-121 -121h399v-70h-399l121 -121l-51 -51z" />
    <glyph glyph-name="uni2191" unicode="&#x2191;" horiz-adv-x="620" 
d="M275 13v399l-121 -121l-51 51l207 207l207 -207l-51 -51l-121 121v-399h-70z" />
    <glyph glyph-name="uni2192" unicode="&#x2192;" horiz-adv-x="620" 
d="M42 246v70h399l-121 121l51 51l207 -207l-207 -207l-51 51l121 121h-399z" />
    <glyph glyph-name="uni2193" unicode="&#x2193;" horiz-adv-x="620" 
d="M310 13l-207 207l51 51l121 -121v399h70v-399l121 121l51 -51z" />
    <glyph glyph-name="uni2196" unicode="&#x2196;" horiz-adv-x="620" 
d="M109 178v292h292v-72h-171l281 -282l-49 -48l-282 281v-171h-71z" />
    <glyph glyph-name="uni2197" unicode="&#x2197;" horiz-adv-x="620" 
d="M109 116l281 282h-171v72h292v-292h-72v171l-281 -281z" />
    <glyph glyph-name="uni2198" unicode="&#x2198;" horiz-adv-x="620" 
d="M219 68v71h171l-281 281l49 50l281 -281v171h72v-292h-292z" />
    <glyph glyph-name="uni2199" unicode="&#x2199;" horiz-adv-x="620" 
d="M109 68v292h71v-171l282 281l49 -50l-281 -281h171v-71h-292z" />
    <glyph glyph-name="partialdiff" unicode="&#x2202;" horiz-adv-x="512" 
d="M255 -10q-39 0 -74 11t-66.5 35t-50.5 70.5t-19 109.5q0 62 18 108t47.5 70t60 35t62.5 11q56 0 87 -32l-72 150h97l67 -149q29 -67 42 -109t13 -90q0 -111 -61 -165.5t-151 -54.5zM256 69q113 0 113 146t-113 146q-114 0 -114 -146t114 -146z" />
    <glyph glyph-name="Delta" unicode="&#x2206;" horiz-adv-x="573" 
d="M50 0v70l180 488h113l180 -488v-70h-473zM150 80h269l-134 387z" />
    <glyph glyph-name="product" unicode="&#x220f;" horiz-adv-x="587" 
d="M84 0v558h419v-558h-99v473h-221v-473h-99z" />
    <glyph glyph-name="summation" unicode="&#x2211;" horiz-adv-x="502" 
d="M45 0v80l184 206l-174 192v80h400v-85h-277l168 -187l-180 -201h300v-85h-421z" />
    <glyph glyph-name="minus" unicode="&#x2212;" 
d="M61 198v76h398v-76h-398z" />
    <glyph glyph-name="radical" unicode="&#x221a;" 
d="M218 0l-118 368h-83v71h156l99 -327l154 520h97l-203 -632h-102z" />
    <glyph glyph-name="infinity" unicode="&#x221e;" horiz-adv-x="644" 
d="M110 232q0 -37 18 -60t51 -23q45 0 84 51l25 32l-25 32q-39 51 -84 51q-33 0 -51 -23t-18 -60zM356 232l25 -32q39 -51 84 -51q33 0 51 23t18 60t-18 60t-51 23q-45 0 -84 -51zM46 232q0 65 35.5 104.5t92.5 39.5q74 0 129 -74l19 -25l19 25q55 74 129 74
q57 0 92.5 -39.5t35.5 -104.5t-35.5 -104.5t-92.5 -39.5q-74 0 -129 74l-19 25l-19 -25q-55 -74 -129 -74q-57 0 -92.5 39.5t-35.5 104.5z" />
    <glyph glyph-name="integral" unicode="&#x222b;" horiz-adv-x="414" 
d="M-9 -84h76q0 -55 40 -55q24 0 34 20t10 63v466q0 158 136 158q121 0 121 -124h-76q0 55 -40 55q-24 0 -34 -20t-10 -63v-466q0 -158 -136 -158q-121 0 -121 124z" />
    <glyph glyph-name="approxequal" unicode="&#x2248;" 
d="M134 256h-72q0 155 111 155q50 0 104 -46q2 -1 8.5 -7t8.5 -7.5t7.5 -6.5t8 -6.5l7.5 -4.5t8.5 -4t8.5 -2t9 -1q43 0 43 77h72q0 -155 -111 -155q-51 0 -98 41q-4 3 -14.5 12.5t-15 13t-13 9t-15.5 7.5t-14 2q-43 0 -43 -77zM134 66h-72q0 155 111 155q50 0 104 -46
q2 -1 8.5 -7t8.5 -7.5t7.5 -6.5t8 -6.5l7.5 -4.5t8.5 -4t8.5 -2t9 -1q43 0 43 77h72q0 -155 -111 -155q-51 0 -98 41q-4 3 -14.5 12.5t-15 13t-13 9t-15.5 7.5t-14 2q-43 0 -43 -77z" />
    <glyph glyph-name="notequal" unicode="&#x2260;" 
d="M71 295v75h251l87 114l50 -38l-57 -76h47v-75h-109l-89 -118h198v-75h-251l-87 -115l-50 38l58 77h-48v75h110l88 118h-198z" />
    <glyph glyph-name="lessequal" unicode="&#x2264;" 
d="M65 0v73h390v-73h-390zM65 295v59l390 200v-80l-295 -148l295 -148v-83z" />
    <glyph glyph-name="greaterequal" unicode="&#x2265;" 
d="M65 0v73h390v-73h-390zM455 354v-59l-390 -200v80l295 148l-295 148v83z" />
    <glyph glyph-name="lozenge" unicode="&#x25ca;" horiz-adv-x="486" 
d="M245 73l115 201l-119 211l-115 -201zM191 0l-149 254v50l149 254h104l149 -254v-50l-149 -254h-104z" />
    <glyph glyph-name="a.alt02" horiz-adv-x="518" 
d="M364 0v54q-42 -64 -133 -64q-79 0 -132.5 56t-53.5 172q0 117 54 174t132 57q48 0 82 -18.5t51 -44.5v53h83v-439h-83zM351 108v223q-35 37 -94 37q-57 0 -86 -38t-29 -110t29 -110.5t86 -38.5q59 0 94 37z" />
    <glyph glyph-name="g.alt02" horiz-adv-x="518" 
d="M351 -13v65q-41 -56 -120 -56t-132.5 55t-53.5 170q0 116 53.5 172t132.5 56q48 0 82 -18.5t51 -44.5v53h83v-459q0 -91 -42 -139.5t-154 -48.5q-196 0 -196 156h94q0 -83 99 -83q36 0 58.5 9.5t31.5 30t11 37t2 45.5zM351 114v217q-35 37 -94 37q-115 0 -115 -145
q0 -146 115 -146q59 0 94 37z" />
    <glyph glyph-name="zero.zero" horiz-adv-x="564" 
d="M282 490q-69 0 -97 -54.5t-28 -156.5t28 -156.5t97 -54.5t97 54.5t28 156.5t-28 156.5t-97 54.5zM282 318q17 0 28 -11t11 -28t-11 -28t-28 -11t-28 11t-11 28t11 28t28 11zM282 568q112 0 167 -75.5t55 -213.5t-55 -213.5t-167 -75.5t-167 75.5t-55 213.5t55 213.5
t167 75.5z" />
    <glyph glyph-name="at.alt02" horiz-adv-x="915" 
d="M438 -10q-79 0 -132.5 56t-53.5 172q0 117 54 174t132 57q48 0 82 -18.5t51 -44.5v53h83v-344q0 -37 32 -37q44 0 73.5 57.5t29.5 154.5q0 149 -80 221t-225 72q-165 0 -259.5 -89t-94.5 -255q0 -164 92 -250.5t253 -86.5q64 0 122.5 12t86.5 26v-61q-27 -13 -87 -24.5
t-125 -11.5q-197 0 -305.5 110.5t-108.5 284.5q0 177 112 290.5t315 113.5q175 0 274.5 -90.5t99.5 -259.5q0 -123 -50 -202.5t-139 -79.5q-43 0 -69.5 18t-31.5 45q-16 -25 -49 -44t-82 -19zM558 108v223q-35 37 -94 37q-57 0 -86 -38t-29 -110t29 -110.5t86 -38.5
q59 0 94 37z" />
    <glyph glyph-name="cent.tf" 
d="M374 156h89q-6 -72 -50 -115t-114 -50v-109h-60v110q-76 10 -126.5 63.5t-50.5 164.5t50.5 164t126.5 63v111h60v-111q70 -7 114 -49.5t50 -114.5h-89q-2 34 -23 58.5t-59 30.5v-306q38 6 59 30.5t23 59.5zM155 220q0 -136 91 -153v305q-91 -17 -91 -152z" />
    <glyph glyph-name="Euro.tf" 
d="M20 323v51h62q18 91 70 142.5t135 51.5t138 -51.5t60 -142.5h-91q-2 51 -28.5 84.5t-76.5 33.5q-90 0 -113 -118h133v-51h-140q-1 -15 -1 -44q0 -30 1 -44h140v-51h-133q23 -118 113 -118q50 0 76.5 33.5t28.5 84.5h91q-5 -91 -60 -142.5t-138 -51.5t-135 51t-70 143h-62
v51h55q-1 14 -1 44t1 44h-55z" />
    <glyph glyph-name="florin.tf" 
d="M311 290l-27 -147q-14 -78 -50 -115.5t-103 -37.5q-57 0 -83 25t-26 67q0 18 3 32h74q-2 -10 -2 -20q0 -35 32 -35q25 0 38.5 20.5t21.5 63.5l26 147h-73l12 65h72l11 60q14 78 50.5 115.5t102.5 37.5q109 0 109 -92q0 -18 -3 -32h-74q2 10 2 20q0 35 -32 35
q-45 0 -60 -84l-11 -60h98l-12 -65h-96z" />
    <glyph glyph-name="sterling.tf" 
d="M73 227v64h56q-2 2 -8.5 13t-8.5 14.5t-7.5 13t-7.5 15t-5.5 14.5t-5 16t-3 16.5t-1.5 18.5q0 66 52.5 111t139.5 45q81 0 136 -43t60 -138h-94q-5 109 -101 109q-44 0 -70 -23t-26 -63q0 -13 2 -24.5t8.5 -26.5t9 -21t13 -25.5t11.5 -21.5h150v-64h-124q3 -15 3 -30
q0 -78 -68 -121h294v-76h-421v62q51 20 78 55.5t27 78.5q0 11 -4 31h-85z" />
    <glyph glyph-name="dollar.tf" 
d="M42 167h95q3 -45 31 -70t72 -32v179l-51 15q-135 40 -135 152q0 69 49.5 110t129.5 46v108h60v-109q77 -8 122 -52.5t50 -119.5h-94q-7 85 -85 99v-171l58 -17q66 -20 100.5 -56t34.5 -96q0 -74 -51 -115t-135 -47v-108h-60v109q-84 7 -135 52t-56 123zM304 228l-18 5
v-170q48 3 74 26t26 58q0 59 -82 81zM147 418q0 -61 81 -81l12 -3v161q-45 -2 -69 -22.5t-24 -54.5z" />
    <glyph glyph-name="yen.tf" 
d="M58 217v57h120l-162 284h106l140 -264l139 264h103l-163 -284h121v-57h-153v-70h153v-58h-153v-89h-98v89h-153v58h153v70h-153z" />
    <glyph glyph-name="aacute.alt02" horiz-adv-x="518" 
d="M205 523l61 135h109l-122 -135h-48zM364 0v54q-42 -64 -133 -64q-79 0 -132.5 56t-53.5 172q0 117 54 174t132 57q48 0 82 -18.5t51 -44.5v53h83v-439h-83zM351 108v223q-35 37 -94 37q-57 0 -86 -38t-29 -110t29 -110.5t86 -38.5q59 0 94 37z" />
    <glyph glyph-name="abreve.alt02" horiz-adv-x="518" 
d="M253 514q-129 0 -129 147h49q0 -38 21 -60t59 -22t59 22t21 60h49q0 -147 -129 -147zM364 0v54q-42 -64 -133 -64q-79 0 -132.5 56t-53.5 172q0 117 54 174t132 57q48 0 82 -18.5t51 -44.5v53h83v-439h-83zM351 108v223q-35 37 -94 37q-57 0 -86 -38t-29 -110t29 -110.5
t86 -38.5q59 0 94 37z" />
    <glyph glyph-name="acircumflex.alt02" horiz-adv-x="518" 
d="M108 519l114 140h62l114 -140h-55l-90 67l-90 -67h-55zM364 0v54q-42 -64 -133 -64q-79 0 -132.5 56t-53.5 172q0 117 54 174t132 57q48 0 82 -18.5t51 -44.5v53h83v-439h-83zM351 108v223q-35 37 -94 37q-57 0 -86 -38t-29 -110t29 -110.5t86 -38.5q59 0 94 37z" />
    <glyph glyph-name="adieresis.alt02" horiz-adv-x="518" 
d="M112 543v93h97v-93h-97zM297 543v93h97v-93h-97zM364 0v54q-42 -64 -133 -64q-79 0 -132.5 56t-53.5 172q0 117 54 174t132 57q48 0 82 -18.5t51 -44.5v53h83v-439h-83zM351 108v223q-35 37 -94 37q-57 0 -86 -38t-29 -110t29 -110.5t86 -38.5q59 0 94 37z" />
    <glyph glyph-name="agrave.alt02" horiz-adv-x="518" 
d="M253 523l-122 135h109l61 -135h-48zM364 0v54q-42 -64 -133 -64q-79 0 -132.5 56t-53.5 172q0 117 54 174t132 57q48 0 82 -18.5t51 -44.5v53h83v-439h-83zM351 108v223q-35 37 -94 37q-57 0 -86 -38t-29 -110t29 -110.5t86 -38.5q59 0 94 37z" />
    <glyph glyph-name="amacron.alt02" horiz-adv-x="518" 
d="M124 557v66h258v-66h-258zM364 0v54q-42 -64 -133 -64q-79 0 -132.5 56t-53.5 172q0 117 54 174t132 57q48 0 82 -18.5t51 -44.5v53h83v-439h-83zM351 108v223q-35 37 -94 37q-57 0 -86 -38t-29 -110t29 -110.5t86 -38.5q59 0 94 37z" />
    <glyph glyph-name="aogonek.alt02" horiz-adv-x="518" 
d="M399 -116h48q-2 -36 -26 -56.5t-64 -20.5q-41 0 -66.5 20.5t-25.5 56.5q0 65 99 113v57q-42 -64 -133 -64q-79 0 -132.5 56t-53.5 172q0 117 53.5 174t132.5 57q48 0 82 -18.5t51 -44.5v53h83v-439q-59 -26 -89 -52.5t-30 -57.5q0 -37 34 -37t37 31zM351 108v223
q-35 37 -95 37q-56 0 -85 -38t-29 -110t29 -110.5t85 -38.5q58 0 95 37z" />
    <glyph glyph-name="aring.alt02" horiz-adv-x="518" 
d="M253 548q24 0 39 15.5t15 42.5t-15 42.5t-39 15.5t-39 -15.5t-15 -42.5t15 -42.5t39 -15.5zM253 500q-43 0 -74.5 29.5t-31.5 76.5t31.5 76.5t74.5 29.5t74.5 -29.5t31.5 -76.5t-31.5 -76.5t-74.5 -29.5zM364 0v54q-42 -64 -133 -64q-79 0 -132.5 56t-53.5 172
q0 117 54 174t132 57q48 0 82 -18.5t51 -44.5v53h83v-439h-83zM351 108v223q-35 37 -94 37q-57 0 -86 -38t-29 -110t29 -110.5t86 -38.5q59 0 94 37z" />
    <glyph glyph-name="atilde.alt02" horiz-adv-x="518" 
d="M112 547v57q25 47 75 47q34 0 79 -31q39 -27 60 -27q37 0 68 37v-57q-25 -47 -75 -47q-36 0 -78 30q-40 28 -61 28q-37 0 -68 -37zM364 0v54q-42 -64 -133 -64q-79 0 -132.5 56t-53.5 172q0 117 54 174t132 57q48 0 82 -18.5t51 -44.5v53h83v-439h-83zM351 108v223
q-35 37 -94 37q-57 0 -86 -38t-29 -110t29 -110.5t86 -38.5q59 0 94 37z" />
    <glyph glyph-name="gbreve.alt02" horiz-adv-x="518" 
d="M253 514q-129 0 -129 147h49q0 -38 21 -60t59 -22t59 22t21 60h49q0 -147 -129 -147zM351 -13v65q-41 -56 -120 -56t-132.5 55t-53.5 170q0 116 53.5 172t132.5 56q48 0 82 -18.5t51 -44.5v53h83v-459q0 -91 -42 -139.5t-154 -48.5q-196 0 -196 156h94q0 -83 99 -83
q36 0 58.5 9.5t31.5 30t11 37t2 45.5zM351 114v217q-35 37 -94 37q-115 0 -115 -145q0 -146 115 -146q59 0 94 37z" />
    <glyph glyph-name="gcircumflex.alt02" horiz-adv-x="518" 
d="M108 519l114 140h62l114 -140h-55l-90 67l-90 -67h-55zM351 -13v65q-41 -56 -120 -56t-132.5 55t-53.5 170q0 116 53.5 172t132.5 56q48 0 82 -18.5t51 -44.5v53h83v-459q0 -91 -42 -139.5t-154 -48.5q-196 0 -196 156h94q0 -83 99 -83q36 0 58.5 9.5t31.5 30t11 37
t2 45.5zM351 114v217q-35 37 -94 37q-115 0 -115 -145q0 -146 115 -146q59 0 94 37z" />
    <glyph glyph-name="gcommaaccent.alt02" horiz-adv-x="518" 
d="M300 692l-48 -88h48v-83h-92v83l51 88h41zM351 -13v65q-41 -56 -120 -56t-132.5 55t-53.5 170q0 116 53.5 172t132.5 56q48 0 82 -18.5t51 -44.5v53h83v-459q0 -91 -42 -139.5t-154 -48.5q-196 0 -196 156h94q0 -83 99 -83q36 0 58.5 9.5t31.5 30t11 37t2 45.5zM351 114
v217q-35 37 -94 37q-115 0 -115 -145q0 -146 115 -146q59 0 94 37z" />
    <glyph glyph-name="gdotaccent.alt02" horiz-adv-x="518" 
d="M204 543v93h98v-93h-98zM351 -13v65q-41 -56 -120 -56t-132.5 55t-53.5 170q0 116 53.5 172t132.5 56q48 0 82 -18.5t51 -44.5v53h83v-459q0 -91 -42 -139.5t-154 -48.5q-196 0 -196 156h94q0 -83 99 -83q36 0 58.5 9.5t31.5 30t11 37t2 45.5zM351 114v217q-35 37 -94 37
q-115 0 -115 -145q0 -146 115 -146q59 0 94 37z" />
    <glyph glyph-name="ijacute" horiz-adv-x="484" 
d="M72 0v439h96v-439h-96zM315 523l61 135h109l-122 -135h-48zM73 523l61 135h109l-122 -135h-48zM225 -199v77q18 -6 36 -6q29 0 41 17.5t12 51.5v498h96v-505q0 -65 -32 -103.5t-100 -38.5q-37 0 -53 9z" />
    <glyph glyph-name="jacute" horiz-adv-x="244" 
d="M75 523l61 135h109l-122 -135h-48zM-15 -199v77q18 -6 36 -6q29 0 41 17.5t12 51.5v498h96v-505q0 -65 -32 -103.5t-100 -38.5q-37 0 -53 9z" />
    <glyph glyph-name="IJacute" horiz-adv-x="575" 
d="M404 630l61 135h109l-122 -135h-48zM76 630l61 135h109l-122 -135h-48zM288 -10q-214 0 -214 212h99q0 -66 27.5 -96.5t88.5 -30.5t87 32t26 109v342h99v-342q0 -120 -52 -172q-54 -54 -161 -54zM74 318v240h99v-240h-99z" />
    <glyph glyph-name="Jacute" horiz-adv-x="490" 
d="M202 630l61 135h109l-122 -135h-48zM85 473v85h331v-378q0 -97 -44 -141q-49 -49 -147 -49q-191 0 -191 186v40h99v-40q0 -55 22.5 -79.5t69.5 -24.5q48 0 70 24t22 80v297h-232z" />
    <glyph glyph-name="zero.tf" 
d="M260 488q-65 0 -91 -54t-26 -155t26 -155t91 -54t91 54t26 155t-26 155t-91 54zM260 568q109 0 162.5 -75.5t53.5 -213.5t-53.5 -213.5t-162.5 -75.5t-162.5 75.5t-53.5 213.5t53.5 213.5t162.5 75.5z" />
    <glyph glyph-name="zero.zero_tf" 
d="M260 490q-66 0 -92.5 -54.5t-26.5 -156.5t26.5 -156.5t92.5 -54.5t92.5 54.5t26.5 156.5t-26.5 156.5t-92.5 54.5zM260 318q17 0 28 -11t11 -28t-11 -28t-28 -11t-28 11t-11 28t11 28t28 11zM260 568q109 0 162.5 -75.5t53.5 -213.5t-53.5 -213.5t-162.5 -75.5
t-162.5 75.5t-53.5 213.5t53.5 213.5t162.5 75.5z" />
    <glyph glyph-name="one.tf" 
d="M103 80h144v347q-21 -22 -62.5 -38t-90.5 -17v81q59 1 103.5 32t60.5 73h87v-478h127v-80h-369v80z" />
    <glyph glyph-name="two.tf" 
d="M265 568q87 0 134.5 -45t47.5 -120q0 -58 -29 -99t-87 -83l-75 -53q-57 -39 -62 -87h261v-81h-369v32q0 125 113 202l73 50q39 27 59.5 53.5t20.5 66.5q0 41 -23.5 64.5t-68.5 23.5q-96 0 -98 -107h-92q0 86 52.5 134.5t142.5 48.5z" />
    <glyph glyph-name="three.tf" 
d="M269 568q87 0 135 -44t48 -111q0 -92 -80 -129q43 -15 68 -49.5t25 -84.5q0 -70 -50.5 -115t-142.5 -45q-95 0 -147.5 49t-52.5 138h93q1 -111 104 -111q48 0 74.5 23.5t26.5 65.5q0 43 -29 67t-83 24h-42v73h43q49 0 74 22.5t25 63.5t-24 64t-69 23q-95 0 -97 -106h-93
q0 85 52.5 133.5t141.5 48.5z" />
    <glyph glyph-name="four.tf" 
d="M321 558h89v-365h72v-75h-72v-118h-95v118h-261v64zM145 193h170v238z" />
    <glyph glyph-name="five.tf" 
d="M114 558h319v-81h-241l-11 -147q46 31 113 31q83 0 129.5 -51.5t46.5 -132.5q0 -83 -50.5 -135t-145.5 -52q-91 0 -144.5 49.5t-53.5 137.5h92q1 -56 28.5 -83.5t75.5 -27.5q50 0 76.5 29.5t26.5 79.5q0 51 -28 81t-81 30q-66 0 -116 -47l-57 13z" />
    <glyph glyph-name="six.tf" 
d="M277 568q86 0 134 -50.5t48 -129.5h-92q0 46 -23 75t-68 29q-55 0 -87.5 -48.5t-33.5 -144.5q56 45 128 45q76 0 125.5 -47.5t49.5 -127.5q0 -81 -52 -130t-136 -49q-100 0 -156 73.5t-56 212.5q0 145 59.5 218.5t159.5 73.5zM263 270q-62 0 -107 -39q4 -84 35 -124.5
t80 -40.5q42 0 68 27t26 74q0 49 -28 76t-74 27z" />
    <glyph glyph-name="seven.tf" 
d="M74 558h373v-72q-165 -169 -165 -459v-27h-100v44q0 128 45.5 247t113.5 186h-267v81z" />
    <glyph glyph-name="eight.tf" 
d="M260 568q87 0 138.5 -45t51.5 -112q0 -90 -83 -128q42 -16 68 -51t26 -83q0 -69 -53 -114t-148 -45t-148 45t-53 114q0 48 26 83t68 51q-83 38 -83 128q0 67 51.5 112t138.5 45zM260 247q-50 0 -78.5 -25.5t-28.5 -67.5q0 -41 28 -65t79 -24t79 24t28 65q0 42 -28.5 67.5
t-78.5 25.5zM260 493q-47 0 -72 -23.5t-25 -63.5q0 -41 25 -64.5t72 -23.5t72 23.5t25 64.5q0 40 -25 63.5t-72 23.5z" />
    <glyph glyph-name="nine.tf" 
d="M250 568q100 0 156 -74t56 -215q0 -142 -56.5 -215.5t-158.5 -73.5q-87 0 -136.5 50.5t-49.5 129.5h92q0 -46 24.5 -75t70.5 -29q111 0 117 193q-53 -45 -126 -45q-77 0 -127 47.5t-50 127.5q0 81 52.5 130t135.5 49zM256 288q63 0 108 39q-5 84 -36 124.5t-80 40.5
q-41 0 -67 -27t-26 -74q0 -48 28 -75.5t73 -27.5z" />
    <glyph glyph-name="caron.slovak" horiz-adv-x="416" 
d="M145 475l30 187h96l-89 -187h-37z" />
    <glyph glyph-name="tilde.case" horiz-adv-x="416" 
d="M67 654v57q25 47 75 47q34 0 79 -31q39 -27 60 -27q37 0 68 37v-57q-25 -47 -75 -47q-36 0 -78 30q-40 28 -61 28q-37 0 -68 -37z" />
    <glyph glyph-name="macron.case" horiz-adv-x="416" 
d="M79 664v66h258v-66h-258z" />
    <glyph glyph-name="dotaccent.case" horiz-adv-x="416" 
d="M159 650v93h98v-93h-98z" />
    <glyph glyph-name="dieresis.case" horiz-adv-x="416" 
d="M67 650v93h97v-93h-97zM252 650v93h97v-93h-97z" />
    <glyph glyph-name="hungarumlaut.case" horiz-adv-x="416" 
d="M47 630l50 135h105l-110 -135h-45zM214 630l50 135h105l-110 -135h-45z" />
    <glyph glyph-name="acute.case" horiz-adv-x="416" 
d="M123 630l61 135h109l-122 -135h-48z" />
    <glyph glyph-name="grave.case" horiz-adv-x="416" 
d="M245 630l-122 135h109l61 -135h-48z" />
    <glyph glyph-name="circumflex.case" horiz-adv-x="416" 
d="M63 626l114 140h62l114 -140h-55l-90 67l-90 -67h-55z" />
    <glyph glyph-name="caron.case" horiz-adv-x="416" 
d="M177 626l-114 140h55l90 -67l90 67h55l-114 -140h-62z" />
    <glyph glyph-name="breve.case" horiz-adv-x="416" 
d="M208 621q-129 0 -129 147h49q0 -38 21 -60t59 -22t59 22t21 60h49q0 -147 -129 -147z" />
    <glyph glyph-name="ring.case" horiz-adv-x="416" 
d="M208 655q24 0 39 15.5t15 42.5t-15 42.5t-39 15.5t-39 -15.5t-15 -42.5t15 -42.5t39 -15.5zM208 607q-43 0 -74.5 29.5t-31.5 76.5t31.5 76.5t74.5 29.5t74.5 -29.5t31.5 -76.5t-31.5 -76.5t-74.5 -29.5z" />
    <glyph glyph-name="apple" horiz-adv-x="748" 
d="M360 70q94 0 157.5 56.5t63.5 161.5q0 92 -50.5 146t-142.5 54q-93 0 -157 -56t-64 -163q0 -93 51.5 -146t141.5 -53zM95 0v558h558v-558h-558zM400 165l-1 1q-12 -4 -28 -4q-34 0 -54 36t-20 100q0 67 24 111.5t81 44.5q58 0 96.5 -47t38.5 -127q0 -138 -111 -174
q69 44 69 160q0 72 -27 114.5t-71 42.5q-21 0 -34.5 -9t-14.5 -21l1 -1q12 4 28 4q34 0 54 -36t20 -100q0 -67 -24 -111.5t-81 -44.5q-58 0 -96.5 47t-38.5 127q0 138 111 174q-69 -44 -69 -160q0 -72 27 -114.5t71 -42.5q21 0 34.5 9t14.5 21z" />
    <glyph glyph-name="bbox" horiz-adv-x="80" 
d="M25 -220v1079h30v-1079h-30z" />
    </font>
</defs>
</svg>
